<svg xmlns="http://www.w3.org/2000/svg" fill="#fc7251" stroke="#fc7251" viewBox="0 0 19.42 19.03"><g id="Calque_2" data-name="Calque 2"><g id="Calque_1-2" data-name="Calque 1"><path d="M19.23,7.91,10.08.13a.56.56,0,0,0-.71,0L.19,8a.54.54,0,0,0-.06.77.56.56,0,0,0,.41.19A.53.53,0,0,0,.9,8.78L1,8.72v9.76a.55.55,0,0,0,.54.55H17.87a.55.55,0,0,0,.55-.55V8.65l.1.1a.55.55,0,0,0,.77-.07A.54.54,0,0,0,19.23,7.91Zm-7.36,10H7.51V11.54h4.36Zm5.46,0H13V11a.55.55,0,0,0-.54-.55H7a.55.55,0,0,0-.55.55v6.94H2.06V7.79L9.73,1.26l7.6,6.47Z"/></g></g></svg>