<svg xmlns="http://www.w3.org/2000/svg" viewBox="0 0 25.04 28.01"><defs><style>.cls-1{fill-rule:evenodd;}</style></defs><g id="Calque_2" data-name="Calque 2"><g id="Calque_1-2" data-name="Calque 1"><path d="M12,0H9A1,1,0,0,0,8,1,1,1,0,0,0,9,2h2V4.06A12,12,0,1,0,21.15,8.27l1.46-1.45.7.71a1,1,0,1,0,1.45-1.39l0,0L23.44,4.83a1,1,0,0,0-.24-.25L21.9,3.29A1,1,0,0,0,21.18,3a1,1,0,0,0-1,1,1,1,0,0,0,.3.72l.71.71L19.74,6.86A12,12,0,0,0,13,4.06V2h2a1,1,0,0,0,1-1,1,1,0,0,0-1-1H12Zm-.1,6a1,1,0,0,0,.24,0A10,10,0,0,1,18.93,8.8a.93.93,0,0,0,.28.28A10,10,0,1,1,11.88,6Z"/><path class="cls-1" d="M12,10a1,1,0,0,0-1,1v3.27A2,2,0,0,0,12,18h0a2,2,0,0,0,2-2h0a2,2,0,0,0-1-1.73V11a1,1,0,0,0-1-1Z"/></g></g></svg>