<svg xmlns="http://www.w3.org/2000/svg" viewBox="0 0 305.47 158.77"><defs><style>.cls-1,.cls-2{fill:#fe5f58;}.cls-1{opacity:0.2;}</style></defs><g id="Calque_2" data-name="Calque 2"><g id="Phrase_1" data-name="Phrase 1"><g id="P1_m5_3"><path class="cls-1" d="M304.26,78.21c-1-2.19-3.31-4.23-3.41-6.67-.14-3,2.12-6.4,2.7-9.39,2.07-10.69-3.19-25.52-14.86-27.85-9.87-2-17.43,5.65-22.92,12.79-3.08,4-5.81,8.27-8.81,12.34-2.27,3.06-4.51,6.63-8.74,6.06-5.8-.79-11.46-4.61-16.39-7.57-4.57-2.74-5-8.37-6.15-13.19-1.42-6-3.27-12-7.82-16.42a21.26,21.26,0,0,0-18.49-6,33.22,33.22,0,0,0-11.29,4.26c-.68-7.33-2.62-14.8-8.93-18.83-11.64-7.42-26.4,1-33.76,10.5-3.79,4.91-5.11,11.91-12.06,12.85-7.21,1-14.86-1.33-21.66-3.48-7.25-2.3-14.38-4.51-21.83-6.14-8-1.75-16.1-3.44-23.47-7.2a5.06,5.06,0,0,0-3.69-.46C58.43,6.23,51.74.28,42.47,0c-11.35-.33-22,6.45-29.32,14.62C-.84,30.21-3.63,55.45,4.59,74.39c4.16,9.59,11.62,17.35,21.5,21,6.6,2.45,12.53,1.25,18.91-1.08,2.52-.93,6-2.44,8.72-1.65,2.49.72,4.57,3.5,7,4.64,7.11,3.32,12.84-.17,19.73-1.91,1.06-.27,4.8-.31,4.08-1.07a22.5,22.5,0,0,1,1.94,2.77,29.27,29.27,0,0,0,3.58,3.8c5,4.31,10.77,4.23,17,4.58,2.63.15,4.34,1.57,6.7,2.7a34.9,34.9,0,0,0,11.45,2.88c4,.45,7.57.9,11.14,2.82s7,4.57,11,5.78c3,.89,5.94.62,9,.87,4.14.34,8.14,2.12,11.74,4.1,6.71,3.68,12.6,8.32,20.18,10.17,7.16,1.75,14.61,1.26,21.77,3.15,12.37,3.26,22.44,10.42,33.83,15.8,8.76,4.15,19.75,7.75,28.76,2.1,4.73-3,7.63-7.87,9.31-13.08,2.62-8.13-.37-15.65.38-23.8.65-7,5.84-8.23,11.18-11.19s8.23-7.24,10-12.93C305.12,89.64,306.59,83.41,304.26,78.21Z"/><path class="cls-2" d="M296.55,87.26v.43l-.22.19-.55-.89c-1,.55-1.61-.67-2.4-.45l-.27-.61a1.62,1.62,0,0,1-.49.25,1.71,1.71,0,0,1-.71,0,10,10,0,0,1-1.17-.39c-.13,0-.36-.12-.35-.16.05-.59-.46-.52-.75-.57a7.92,7.92,0,0,0-1.7-.12,7.81,7.81,0,0,1-2.59-.83,2.32,2.32,0,0,0-.86-.24,16.15,16.15,0,0,0-1.81.28l.95.8-.16.17-3-2.61c.81-1.2,1.55-2.37,2.37-3.48s1.83-2.27,2.68-3.45c1.06-1.48,2.06-3,3.05-4.53,1.25-1.92,2.53-3.83,3.69-5.8a24.85,24.85,0,0,0,2.22-5.66c.09-.3.37-.7.26-.87a1.18,1.18,0,0,1-.11-1.15,4,4,0,0,0,0-1.16c-.23.24-.41.44-.67.73v-.76l-.87.09s0,0-.06.14c-.3,1-.55,2-.92,2.94s-.82,1.88-1.25,2.8a6.08,6.08,0,0,1-.81,1.51,3.24,3.24,0,0,0-.81,1.72v0h0l-.9.74c0-.07-.11-.24-.21-.44-.68.75-.68.75-.12,1.28-.12.25-.27.48-.37.73s-.35.45-.68.26l-.17,0c-.42.29-.84.58-1.25.89,0,0,.08.17.14.28h0l-1.41,2.38.13.1,1.05-1.19.23.2c-.22.27-.54.51-.63.81-.19.65-.46.83-1,.33-.51.75-1,1.46-1.44,2.17l.12.12.42-.31.41-.31.1.14-3.54,4.88-.38-.52a7.65,7.65,0,0,0-1.44,1.93l.15.11L279.53,79l.23.22c-.56.66-1.12,1.32-1.69,2-.05.06-.24,0-.35,0l-1.31-.47.36.38a4.58,4.58,0,0,0-1,.45c-.52.41-.88.08-1.23-.18s0-.54.13-.81c.39-.65,1.51-.94.87-2.1l.83.17c-.47-.78,0-1,.36-1a11.59,11.59,0,0,1,1-1.75c.7-.82,1.51-1.55,2.24-2.34a9.65,9.65,0,0,0,.71-1l-.1,0,1-.74c-.57-.33-.35-.58-.14-.88.5-.74,1.7-.93,1.64-2.11,0,0,.08,0,.11-.06a10.41,10.41,0,0,0,2.16-2.9c.53-.84,1.39-1.49,1.51-2.57,1.08-.43.49-2,1.72-2.37,0,0,0,0,0-.06.22-.61.43-1.23.67-1.83.38-1,.73-2,1.19-3a3.12,3.12,0,0,0,.22-1.71c-.05-.4-.52-.76-.81-1.16l-.63.33c-.42.22-1.28-.07-1,.91,0,0-.09.09-.14.14a2.88,2.88,0,0,0-.67,2.15,2.93,2.93,0,0,1-.38,1.37c-.17.28-.6.4-.92.59l.08.18.56-.06a14.37,14.37,0,0,1-2.13,3.57c-.28.32-.82.57-.59,1.19,0,.09-.11.32-.22.39-1.11.67-1.61,1.85-2.48,2.87l.47.24c-.16.24-.25.4-.36.53-.54.69-1.09,1.37-1.64,2-.21.25-.44.49-.66.72l-.65.86c-.2.26-.43.5-.61.77a7.59,7.59,0,0,0-.44.79,1.74,1.74,0,0,1-.19.26l-.95.84.61.1L275,75.68c-.33.29.28,1.17-.87,1.06.34,1-.76.81-1.06,1.33.5.73-.35.53-.6.8.48,1.08-1.39,1.06-1,2.14l-1.78,2c-.41.06-2.12,2.6-1.89,3.24l.42-.12a4,4,0,0,1-1.4,2.32c0,1.19-1.07,1.84-1.26,2.85,0,.21-.38.37-.61.59.29.61.2.78-.65,1.14-.07.45-.12.81-.18,1.24l-.43.24,0,.11h.43c0,.42.15.93,0,1.13a7.59,7.59,0,0,0-.86,1.26c-1,1.58-2.13,3.06-3.12,4.63-.71,1.12-1.28,2.33-2,3.63l.67-.22.13.16a11.7,11.7,0,0,1-.91,1c-.26.23-.59.36-.37.81.05.09-.14.34-.26.47s-.59.46-.76.76c-.88,1.57-1.74,3.14-2.56,4.74a3.42,3.42,0,0,0-.5,1.51,3.07,3.07,0,0,1-.73,2.37c-.44.43-.93.8-1.35,1.25A12.36,12.36,0,0,0,249,121c-.59,1.28-1.64,1.8-2.6,2.56l-2.5,1.93a2.78,2.78,0,0,1,.07-.81c.83-2.08,1.68-4.14,2.54-6.21.55-1.33,1.12-2.64,1.66-4a6.53,6.53,0,0,0,.25-1.06,3.4,3.4,0,0,0,.86-1.06A24.68,24.68,0,0,1,251,109a9.84,9.84,0,0,0,1.61-3.2,30.25,30.25,0,0,0,.28-5c0-1.07,0-2.15-.06-3.22a14.78,14.78,0,0,1-.05-2c.21-1.72-.09-1.52-1.39-2.5a2.8,2.8,0,0,1-2,1.19c-.34-.12-.53-.43-.23-.69s.2-.6.15-.92-.07-.54-.12-.81a4.57,4.57,0,0,0-.26-1.12c0-.09-.45,0-.7,0a1.92,1.92,0,0,1-.32-.09c-.29,0-.63-.16-.87-.06-1.31.51-2.61,1.07-3.9,1.63-.41.17-.8.38-1.23.59.08-1,.12-1.9.22-2.8a5,5,0,0,1,.62-2.63,1,1,0,0,0,.14-.57c0-.6,0-1.2,0-1.8a.88.88,0,0,0-.25-.52c-.45-.36-.79-.16-1,.31l-.47-.38c-.1,1.34-.11,1.37-.85,1.65.3-.94.57-1.79.85-2.64l-.55-.38a1.63,1.63,0,0,1-.15.27c-.48.58-1,1.15-.6,2,0,0,0,.08,0,.12-.3.62-.6,1.24-.88,1.86a2.31,2.31,0,0,0-.23.67c-.18,1.28-.32,2.56-.52,3.84-.12.76-.34,1.5-.52,2.26h0a4.49,4.49,0,0,0-.5.67c-.42.85-.79,1.72-1.23,2.55-.18.33-.66.54-.73.86-.12.53-.4.65-.86.8-.3.1-.5.52-.86.93-.27,0-.14-.29,0-.62.61-1.29,1.22-2.58,1.8-3.89a19.07,19.07,0,0,0,.74-1.95,2.91,2.91,0,0,0,0-.83h0a7.55,7.55,0,0,1,1.14-2.81,4.28,4.28,0,0,0,.8-1.63c.26-1.27.38-2.56.57-3.88l-.51,0c.64-1.12,1.17-2.21-.14-3.17-.7.34-1.42.73-1.57,1.55a29.7,29.7,0,0,0-.54,4.18c0,.57-.17.64-.47.62-.18.74-.34,1.4-.51,2.05a.5.5,0,0,1-.23.3c-.49.23-.52.33-.2.66-.25.7-.49,1.35-.72,2l-.21-.07c.06-.24.11-.47.17-.71l-.18,0c-.06.39-.12.77-.19,1.19l-.25.08a1.43,1.43,0,0,1-.61,1.67c.09.07.2.18.31.28-1.06.9-1.3,1.4-.95,1.86l-.54.33,1,.6c-.41.64-.76,1.18-1.11,1.74-.78,1.28-1.55,2.56-2.34,3.84-.21.34-.5.64-.69,1-.52,1-1,2-1.5,3-.15.31-.47.63-.45.93a2.75,2.75,0,0,1-.91,1.89,7.32,7.32,0,0,0-.79,1.1c-.11.2-.31.35-.45.55-.58.81-1.16,1.63-1.72,2.45a4.27,4.27,0,0,0-.29.61c-.11.22-.23.43-.35.65l.15.09.4-.48.16.1a9,9,0,0,1-1.34,2.13c-.44.4-.42.6-.23,1a1.19,1.19,0,0,1-.33,1.43c0,.36.06.63.12.89a1.55,1.55,0,0,0,.25.65,3.71,3.71,0,0,0,.56.51l1.44-.1c0-.19-.1-.44,0-.6.38-.74.8-1.45,1.22-2.15s.89-1.42,1.31-2.15.69-1.28,1-1.92c.14-.26.46-.55.41-.76-.17-.67.31-.82.54-1a19.07,19.07,0,0,1,5.56-8.61A3.56,3.56,0,0,0,232,107c0,.07-.08.16-.12.24-.16.31-.3.64-.49.94s-.39.48-.59.73a2.05,2.05,0,0,0-.4.59c-.18.59-.3,1.21-.44,1.81a3.8,3.8,0,0,1-2,2.23c0,.84-.83,1-1.15,1.51-.77,1.27-.84,1.28-.73,1.89l.4-.64c.7.64.72,1,.13,1.58l-.38-.39a2.69,2.69,0,0,0-.26.33c-.38.66-.76,1.32-1.13,2s-.6,1.13-.9,1.7l.16.08a6.08,6.08,0,0,0,.94-1c.29-.5.4-1.11.68-1.62a9.18,9.18,0,0,1,.92-1.16q-1.17,2.86-2.36,5.74l.59-.24c.11,1.15-.46,2.25-.06,3.26l.81-.11v-.88l1,.79c.51-1,.94-2,1.42-2.85.66-1.21,1.4-2.38,2-3.6s1.1-2.34,1.65-3.52a20.57,20.57,0,0,0,.85-1.93,15.24,15.24,0,0,1,3.22-5.09c1-1.16,2.21-2.18,3.31-3.28.71-.7,1.37-1.45,2.1-2.14.9-.86,1.83-1.7,2.79-2.5.55-.45,1.17-.8,1.74-1.18.13.41.21.65.3.92-.65,0-.61.62-.65,1-.08.85,0,.87-.79,1.15-.11,0-.26.32-.22.37.55.79,0,1-.52,1.36a2.35,2.35,0,0,1-.36.91c-.29.43-.66.81-.91,1.26s-.39,1-.63,1.51c-.11.21-.45.31-.55.52-.36.71-.66,1.45-1,2.17,0,0,0,.07,0,.13l.43-.3.13.09-.44,1-.3-.42-.25,0c0,.35.1.7.12,1a1.49,1.49,0,0,1,0,.64c-.51,1.2-1.11,2.37-1.54,3.59-.25.74-1.09,1.16-1,2-.89.38-.24,1.21-.69,1.88a1,1,0,0,0-.28,1.41c-.66,0-.45.39-.4.68-.13.45-.26.89-.39,1.37.06,0,.28.17.28.28a.58.58,0,0,1-.32.37c-.55.26-.59.67-.45,1.26l.54-.45c-.09.57-.15,1-.21,1.4l-.57-.11c.28.47.48.79.69,1.15-.2.06-.38.11-.65.17a3.43,3.43,0,0,0,3.17,1.61v1.26c.45-1.1.49-1.13,1.21-.9l-.58.4c1,.05,1,.06,1,1,0,.64.06,1.27.1,2.05h-1.76c.77.76,1.92-.18,2.45.8h3.06a42.68,42.68,0,0,0,9.69-6.67l.28.42.48-.32.06.11a41.36,41.36,0,0,0,.76,4.17,5.12,5.12,0,0,0,1.16,2.62c.36.34.37,1,.58,1.54a14.07,14.07,0,0,0,3,4.33,3.29,3.29,0,0,0,.76.57c.45.26.91.5,1.37.73a3,3,0,0,0,.75.31,6.22,6.22,0,0,0,3.13-.41c.11,0,.15-.32.22-.49l-2,.35c0-.08,0-.16,0-.24a1.46,1.46,0,0,0,.36-.16c.26-.2.49-.42.74-.63-.4-.26-.84-.78-1.18-.72-.69.12-.86-.22-1-.69-.08-.19-.13-.4-.2-.62l.44-.34a3.3,3.3,0,0,1-.7-.4,3.85,3.85,0,0,1-.51-.69l-.22,0v2.07a14.27,14.27,0,0,1-3.4-6l.55.21c0-.21,0-.43,0-.64l-.24-2.37a2.35,2.35,0,0,1-.41.52.64.64,0,0,1-.51.13c-.11-.07-.13-.33-.16-.51s0-.25,0-.37c-.1-.54-.25-1.08-.3-1.62a15.45,15.45,0,0,1,0-1.8c0-.29.06-.57.06-.86a4.66,4.66,0,0,1,0-1.44,4.27,4.27,0,0,1,.91-1.16s.08,0,.13,0c0,.19.07.37.1.52.22-.4.43-.79.63-1.18A.46.46,0,0,0,259,123c-.21-.65.24-.58.65-.63,0,.94,0,1.83-.06,2.71a17.38,17.38,0,0,0,.32,2.7,10.84,10.84,0,0,1,.32,1.92,1.39,1.39,0,0,0,.32,1.18l.47-.76.15.13a5.68,5.68,0,0,0,.7,2.6c.2.6.9,1.11.49,1.88,0,0,.1.15.16.22a5.28,5.28,0,0,1,.71.94c.22.45.3,1,.5,1.43a8.5,8.5,0,0,0,.78,1.46,6,6,0,0,0,1,.93c.37.32.77.84,1.18.86a31.33,31.33,0,0,0,3.48-.18c.05,0,.1-.07.15-.1l-.43-.16.74-.63-.39-.27.37-.53a3.11,3.11,0,0,0-1.08.23,1,1,0,0,1-1.39-.19,14.9,14.9,0,0,0-1.63-1.82c-.29-.26-.72-.32-.88-.78a16.09,16.09,0,0,0-.75-1.57,18,18,0,0,0-1-1.85c-.31-.48-.18-1-.34-1.48a17.23,17.23,0,0,1-.73-2.71c-.08-.42-.08-.85-.12-1.28s0-.59-.07-.88c-.1-1-.28-2.08-.29-3.12,0-1.58.13-3.17.16-4.75a15.45,15.45,0,0,1,0-2.63,14.84,14.84,0,0,1,1.09-2.78c.21-.49.49-1,.75-1.44.75-1.38,1.52-2.74,2.25-4.13.6-1.14,1.14-2.31,1.71-3.47.66-1.36,1.33-2.71,2-4.06,1.22-2.53,2.41-5.07,3.67-7.58.67-1.33,1.44-2.62,2.22-3.9a.94.94,0,0,1,.76-.37c1.43.27,2.85.57,4.25.94,1.7.46,3.35,1.12,5.06,1.48A44.7,44.7,0,0,1,292,92.39l.22,0-.23-.56h.63a8.15,8.15,0,0,0-.24-.78c-.11-.24-.23-.58-.43-.67-1.35-.55-2.71-1.05-4.08-1.55-.84-.32-1.85,0-2.58-.84-.5-.56-1.48-.5-1.91-1.24,0,0-.12,0-.25,0l.2.76-5.1-1.43-.06-.25c.31-.13.63-.4.92-.38a8.31,8.31,0,0,1,3.1.61,10.73,10.73,0,0,0,1.94.63,2.91,2.91,0,0,0,.89-.16c-.65-.31-1.22-.36-1.43-1.08a12.25,12.25,0,0,1,1.34.52c.81.43,1.57.94,2.38,1.36a11.46,11.46,0,0,0,1.22.32c.93.3,1.83.68,2.77.94a5.55,5.55,0,0,0,1.68.15,2.69,2.69,0,0,0,.85-.32c-.22.65.12.78.46.91l2.14.83a1.42,1.42,0,0,0,.29,0l.06-.15-.78-.49,1.16-.35A1.56,1.56,0,0,0,296.55,87.26Zm-57,11.33c0,.19-.11.39-.17.58h0a.59.59,0,0,0,0,.14l0-.15C239.43,99,239.49,98.79,239.54,98.59Zm-.29,1.43a8.53,8.53,0,0,0-.59.79,8.53,8.53,0,0,1,.59-.79Zm3.07-1.94h0a10,10,0,0,1,1-.44A10,10,0,0,0,242.32,98.08Zm29.13-8.19c-.14.32-.29.64-.44,1,.15-.31.29-.63.44-.94Zm0,0h0l.86.31Z"/><path class="cls-2" d="M258.82,134.12h0v0Z"/><path class="cls-2" d="M175.89,55.56a1,1,0,0,1,0,.6,3.07,3.07,0,0,1-.45.65c.84.21,0,1.46.91,1.83l.24-.71c.58.67.76-.12,1.17-.34-.25,1-.18,1.08,1,1.29.13-1,.26-2,.37-3.06a.79.79,0,0,0-.09-.48,2.46,2.46,0,0,1,.05-1.77,2.38,2.38,0,0,1,2-1.25,2.56,2.56,0,0,0,.74-.34l-.3-.73.91-1.39-1.1-.31c0-.07,0-.14,0-.2h.8c-.09-.15-.22-.27-.21-.36.09-.65,0-.71-.63-.52l-.84.21,0-.13.77-.49-2.58-.73c.07-.28.14-.58.22-.87l.1.14,1.48-1.14v-.19a2,2,0,0,1-.78.12c-.22,0-.4-.29-.6-.45-1.3-.47-2.53.21-3.81.53a5,5,0,0,0-2.23.77,3.43,3.43,0,0,1-1.78.63c-1.35.36-2.73.61-4.09,1-.19,0-.3.4-.49.44-.72.14-1.45.2-2.17.31s-1.56.28-2.34.44a8.42,8.42,0,0,1-1.28.29c-.64,0-.74-.3-.43-.87a3,3,0,0,0,.57-1.59c-.12-1,.57-1.57.68-2.4l.48.28c.06-.13.18-.26.19-.39,0-.39-.13-.83,0-1.16a4.5,4.5,0,0,1,1.49-2.42c.13-.08.15-.35.2-.54s0-.16,0-.21c.44-.68.93-1.33,1.33-2a15.28,15.28,0,0,0,.75-1.71l-.09,0,.56-.6-.12-.14-.64.21c.26-.54.49-.95.66-1.39.56-1.4,1.08-2.81,1.64-4.2.2-.48.51-.91.69-1.39.31-.79.53-1.61.84-2.4.07-.17.34-.27.52-.4l.17.13c.1-.53.2-1.06.31-1.59,0-.19.12-.38.15-.57a13.29,13.29,0,0,0,.4-2.63,9.48,9.48,0,0,1,.53-3.47c.09-.28.17-.47-.22-.64-.61-.28-1.17-.66-1.93-1.1l-1,1.27c0-.26,0-.56.07-.91-.81,0-1.16.61-1.65,1-.07.05,0,.24,0,.37l.22.14.46-.93.72,1.31-.14.11-.66-.26c-.11.75-.17,1.46-.32,2.15s0,.87.74,1a3.26,3.26,0,0,1-.6.65.59.59,0,0,0-.29.85.92.92,0,0,1,0,.61,2.34,2.34,0,0,0-.21,1.21,2.15,2.15,0,0,1-.23,1c-.16.4-.39.76-.58,1.14a2.81,2.81,0,0,1-.25.56c-.23.29-.61.51-.74.84a14.57,14.57,0,0,0-.43,1.73c-.14.51-.31,1-.52,1.67l.7-.45.14.12-2.82,4.27-.23-.06a4.88,4.88,0,0,1,.19-1.4c.33-.74.81-1.4,1.2-2.1a7.75,7.75,0,0,0,.28-.81c.09-.19.3-.35.33-.54.1-.82.12-1.65.24-2.47a2.58,2.58,0,0,1,.57-1c.26-.38.06-1.09.06-1.73l-.6,1.8-.26-.1c.5-.9,0-2.11,1.07-3a2.08,2.08,0,0,0,.06.3,2.29,2.29,0,0,0,.3.5c.05.05.34,0,.34-.06,0-.2-.06-.4-.09-.6s-.11-.4,0-.55c.31-.69.18-1.13-.66-1.21.66-.84,1-1.41.74-1.82-.38-.66.06-1.19.11-1.77a2.15,2.15,0,0,1,.24-.6l-1-.25v-.86a4.55,4.55,0,0,0-1.41,1.68c-.41,1.26-.59,2.6-.9,3.91s-.64,2.83-1.1,4.21-1.08,2.69-1.65,4c-.84,2-1.65,4-2.54,5.9-.72,1.58-1.59,3.08-2.31,4.66s-1.21,3.14-1.9,4.67c-.83,1.83-1.72,3.63-2.69,5.4a3.25,3.25,0,0,1-1.42,1.3,25.21,25.21,0,0,1-2.48.7c-.89.3-1.74.72-2.62,1.07s-1.9.74-2.78,1.08c.09.85-.78.69-.95,1,0,1.06,1,.85,1.51,1.31l-.4.46.18.15c.33-.33.66-.67,1-1a.78.78,0,0,1,.35-.2,1.4,1.4,0,0,0,1.15-.62c.09-.15.56-.07.8-.09a4,4,0,0,1,.48-.52,2,2,0,0,1,2.09-.12c.54.21.7.44.3.82a2,2,0,0,0-.51,1.11c-.15.73-.53,1.17-1.33,1.12a1,1,0,0,0-.6.08c-.61.36-1.2.76-1.8,1.14l.46.18c-.41.46-.79.87-1.14,1.31a.63.63,0,0,0,0,.49c0,.07.27.06.42.07s.46,0,.8,0l-.84,1.33,1.67-.32c.28,1,.27,1-.22,2a13.75,13.75,0,0,0-.67,1.64q-.84,2.53-1.62,5.08c-.29,1-.51,1.94-.81,2.9-.25.8-.56,1.58-.87,2.36,0,.12-.28.16-.35.19-.3-.43-.53-1.08-.81-1.1A1.87,1.87,0,0,1,138,75.53a12.94,12.94,0,0,0-3.14-3.33,7,7,0,0,0-1.41-.75l.15-.15c-.38-.26-.83-.42-1-.74a24,24,0,0,1-1.19-2.24,3.06,3.06,0,0,1-.35-.89c-.08-.6-.07-1.22-.1-1.82l-.49-.12.62-2.13-.17-.07-.33.26a3.93,3.93,0,0,1,.41-.82c.34-.8.59-1.65,1-2.42a6,6,0,0,1,1.1-1.38c.64-.67,1.32-1.31,2-1.92.9-.76,1.82-1.49,2.75-2.21a3.86,3.86,0,0,1,1.48-.94A34.78,34.78,0,0,0,145.44,52a1.31,1.31,0,0,0,.79-1.29,4.4,4.4,0,0,0-1.19-.24,20.55,20.55,0,0,0-3,.48c-.73.19-1.32.33-1.58-.6a1.47,1.47,0,0,0-.07-1.64,3.47,3.47,0,0,1-.26-.78c-.53-.37-1-.32-1.69.33a1.58,1.58,0,0,1-1.85.22.36.36,0,0,0-.32,0c-.54.3-1.07.62-1.59.93a2.27,2.27,0,0,0,.21.2l-1.3.92-1.21-.81c-.55.76-1.86.76-2.25,2.07-.2.67-1,1.17-1.65,1.68-.89.74-1.82,1.42-2.73,2.14a7.35,7.35,0,0,0-1,.87,8.06,8.06,0,0,0-1.91,4c-.4,2.5-.46,4.92.86,7.26a15,15,0,0,0,3.87,4.8,46.11,46.11,0,0,1,3.54,3A5,5,0,0,1,132.71,78c.13.59.34,1.17.49,1.76a16.88,16.88,0,0,1,.66,2.79c.1,1-.09,2.09-.06,3.14,0,1.87-.83,2.46-2.44,3.29v-.65c-.37.24-.64.43-.92.6a13.32,13.32,0,0,1-1.49.89,6.61,6.61,0,0,1-2.29.49c-.73.06-1.43.31-2.15.43A3.56,3.56,0,0,1,120.42,89c-.06-.1-.22-.15-.32-.23-.32-.28-.68,0-1-.08a7.47,7.47,0,0,1-1.5-.63c.56.43,0,.65-.21.9l.6,1a3.43,3.43,0,0,1-.82-.11,2.85,2.85,0,0,1-.58-.47l-3.07-2.62-1.27-1.11-.09.1,1,1.11-1.63-.32c.34.67.63,1.24.93,1.81a2.75,2.75,0,0,0,.48.8c1.71,1.51,3.4,3,5.19,4.44a6.86,6.86,0,0,0,2.22.76c.84.26,1.84,0,2.5.86a1.3,1.3,0,0,0,.86.51c.77,0,1.54-.08,2.32-.09.51,0,1,.24,1.52-.16,0,0,.15.07.24.08a5.86,5.86,0,0,0,1.42.17,15.21,15.21,0,0,0,1.46-.43,24,24,0,0,0,6.66-1.84,6.94,6.94,0,0,1,0,1.22c-.22,1.18-.45,2.36-.75,3.51a4.46,4.46,0,0,1-.65,1.16l-.06,0c-.07.29-.15.57-.24.88l.24.2c-.17.16-.3.29-.44.41a1.2,1.2,0,0,0,.78,0,4.54,4.54,0,0,0,.81-.36,2.1,2.1,0,0,0,.74-.56c.39-.61.71-1.28,1-1.87a7.46,7.46,0,0,1,.17-1.43c.14-.42.54-.76.66-1.18s-.12-.65-.2-1a2.26,2.26,0,0,0,.44-.62c.2-.57.16-.58.49-.57,0,.29-.06.58-.11,1,.62-.7.66-.16.82.21a7.38,7.38,0,0,0,.7-3.32c-.21.59-.32,1.2-.49,1.8,0,.11-.29.28-.34.25-.3-.17-.57-.4-.86-.6l.08-.14.44,0a7.52,7.52,0,0,1,.52-1.29c.25-.39.8-.68.9-1.08a26.65,26.65,0,0,0,.56-3.76c.11-1.34.07-2.68.13-4,0-.52.19-1,.24-1.57a1.71,1.71,0,0,0-.14-.56l1-.73-.6-.4c-.12.21-.21.37-.31.52-.08-1,.77-2,.22-3l.31.22c.32-1,.61-2,.92-3l-.69-.11,1.11-3.46.2,0c0,.1,0,.21,0,.31a2.54,2.54,0,0,0,0,.29h.21c0-.27.11-.65,0-.79-.58-.59-.08-.69.2-.79a1.93,1.93,0,0,1,0-.6,4.79,4.79,0,0,1,.46-.65h0c.39.26.43.56.26,1-.29.77-.49,1.57-.73,2.36l1-1,.8-1.94h0l.57.72c-.11.36-.24.77-.36,1.19l-.39-.31.41.33-.53.18a.8.8,0,0,1,.16,1.29c-.39.36-.57.63-.35,1l-.63.51.1.13h.57a4.18,4.18,0,0,0-.55.88,10,10,0,0,1-.7,2.85,9.2,9.2,0,0,0-.6,2c0,.14-.2.24-.31.37.45.41.35,2.23-.14,2.5l.22.17c-.11.21-.22.4-.3.6a2.92,2.92,0,0,1-.34.87c-.67.73-.74,1.3-.21,1.94l-.37,2.31-.22,0v-.6a9.54,9.54,0,0,0-.49,1.85c0,.25-.22.61-.12.72a2.13,2.13,0,0,1,.4,2c-.69,0-.68,0-.53.63,0,.09-.11.21-.13.32-.05.42-.08.84-.13,1.35l.43-.29.19.08a1.81,1.81,0,0,0-.65,1.85s0,0,0,.06l-1.54,1.77h1.11c-.07.19-.08.29-.14.34-.6.6-.62.62.09,1.13.44.31.94.55.63,1.31.34-.64.74-.93,1.43-.64.28-.63.55-1.23.87-2l.09.62h.12c.11-1.06.23-2.11.34-3.18l.41.2a2.73,2.73,0,0,1,.43-2.49c.2-.23.13-.7.18-1.06a16.6,16.6,0,0,1,.53-3.5,5,5,0,0,0,.41-1.85,18.31,18.31,0,0,1,.68-4c.15-.77.2-1.55.3-2.3.11-.06.36-.13.4-.25.56-1.94,1.1-3.89,1.65-5.83a7.63,7.63,0,0,1,.26-.85c.2-.51.44-1,.64-1.51a8.06,8.06,0,0,0,.32-1.06,2.39,2.39,0,0,0,0-.6,4.36,4.36,0,0,1,0-1.65,12.47,12.47,0,0,0,.74-2.44c.06-.26.24-.69.36-.69.66,0,.62-.55.81-.9a13.17,13.17,0,0,1,.86-1.77c.29-.39.18-.54,0-.7.14-.1.34-.18.43-.32a6.09,6.09,0,0,1,.42-.93c.51-.61,1-1.47,1.65-1.7,2.31-.79,4.68-1.4,7-2,1.75-.45,3.52-.81,5.29-1.18.3-.07.74-.13.92,0a1,1,0,0,1,.33,1.33c-.28.53.08.9.68.9a8.54,8.54,0,0,1,1.32.18v.17l.42-.26c0,.2,0,.32,0,.54.25-.22.42-.39.63-.59l-.77-.42.08-.14.72.2c-.12-.62-.26-1.12-.31-1.64,0-.22.06-.62.2-.67a7.7,7.7,0,0,1,1.37-.25s0,.07.06.11c.12.3.12.3.37.29l.52-.85C175.63,55,175.79,55.26,175.89,55.56Zm-41,36.32a7.73,7.73,0,0,0,.86-.6h0a7.73,7.73,0,0,1-.86.6,1.27,1.27,0,0,0-.35.41A1.27,1.27,0,0,1,134.9,91.88Zm1.65-9c-.05,1.14-.11,2.27-.16,3.41.05-1.14.11-2.27.16-3.41Zm11.67-18.92h0v0Zm21-13.8h-.1a.62.62,0,0,1-.31-.22h0a.62.62,0,0,0,.31.22Z"/><path class="cls-2" d="M59,53a10.69,10.69,0,0,1,.44-1.16,3.51,3.51,0,0,1,.93-1c.38-.27,0-.67.15-.8.5-.33.52-.91.81-1.35.92-1.4,1.75-2.88,2.74-4.24a25.61,25.61,0,0,1,2.67-3c.26-.26.47-.95,1.15-.58,0,0,.33-.37.49-.56l-.45.1-.08-.16,4.43-2.64-.64-.08.88-1.07c-.51-.62-1-1.2-1.46-1.76a.38.38,0,0,0-.3-.13,4.92,4.92,0,0,0-2.69.62,1.94,1.94,0,0,1-2.21.13,1.31,1.31,0,0,0-1.36-.12,18.47,18.47,0,0,0-6.17,5.39c-.38.52-.83,1-1.32,1.55a5.09,5.09,0,0,1-.19-.93c0-.3.1-.59.1-.89,0-2.43-.06-4.87-.11-7.3a.85.85,0,0,0-.29-.47c-.47-.41-1-.8-1.49-1.23l-.36.64-.43-.09-.61,2.41.1.13c-.17.45-.28.77-.43,1.16l-.45,0,.15.14c-.39.63-.74,1.3-1.19,1.9-.25.33-.51.29-.82-.16a1.05,1.05,0,0,1,0-1.33,1.63,1.63,0,0,0,.11-.81c0-.93,0-1.86-.11-2.78,0-.16-.19-.3-.29-.44s-.24-.34-.34-.52a2,2,0,0,1-.14-.41c-.44.19-.8.33-1.15.51a1,1,0,0,0-.31.35,6.62,6.62,0,0,0-.63,1.13A4.72,4.72,0,0,0,47.65,35a4.24,4.24,0,0,1-.76,2.52c-.71,1.33-1.42,2.66-2,4-.23.52-.79.9-.67,1.63,0,.24-.51.54-.69.86-1,1.78-2,3.58-3,5.36-.81,1.44-1.66,2.86-2.5,4.29a28,28,0,0,1-2,3.38,31.17,31.17,0,0,0-2.78,4.85,24.27,24.27,0,0,1-3,5c-1,1.1-2.08,1.56-3.52.75a1.81,1.81,0,0,0-.37-.18,5.91,5.91,0,0,1-3.52-3.23,5.3,5.3,0,0,1-.69-2.61c0-.92-.28-1.85-.29-2.78,0-1.48,0-3,.11-4.44.13-2.49.21-5,.48-7.45a33.26,33.26,0,0,1,2.06-7.29c.59-1.69,1.17-3.39,1.77-5.08a2.52,2.52,0,0,1,.38-.56c.28-.38.57-.75.84-1.13s.45-.68.71-1c.65-.82,1.32-1.63,2-2.44L30,29.28l-1.36,1.54c0-.25,0-.41.05-.5a22.6,22.6,0,0,1,1.4-2.19c1.09-1.38,2.21-2.72,3.38-4A6.37,6.37,0,0,1,35,22.93c.56-.34,1.18-.58,1.73-.85l-.18-.87,2.09-.52c.06.68.12,1.32.18,1.94a1.4,1.4,0,0,0-.53,0c-.07,0-.13.26-.1.36.15.41.34.8.5,1.17,1-.3,1.3,1,2.23.85,0-.11.11-.26.06-.36a2.83,2.83,0,0,1,0-1.58,14,14,0,0,0,0-1.94l0,0c0-.84.07-1.68.11-2.59l2.14-1.09a5,5,0,0,1,.42,1.13c.13,1.47.24,3,.3,4.43A1.78,1.78,0,0,0,45,24.73c.11-.52.48-.47.73-.21a2.78,2.78,0,0,1,.42.92l.19,0a7.55,7.55,0,0,0,.42-1.65c.06-1.54,0-3.09,0-4.64a4.33,4.33,0,0,0-.7-2.94c-.06-.07,0-.21-.05-.33a6.54,6.54,0,0,0-2-2.41,1.24,1.24,0,0,0-.47,0c-1.32.22-2.64.44-4,.7-.79.16-1,.07-1.28-.86a12.88,12.88,0,0,0-2.36.93c-1.44.9-2.81,1.91-4.17,2.93S29,19.27,27.73,20.41a32.67,32.67,0,0,0-2.3,2.4,24.16,24.16,0,0,0-2.11,2.31C21.92,27,20.53,29,19.27,31a28.3,28.3,0,0,0-1.92,4c-.51,1.21-.91,2.47-1.31,3.73-.62,1.93-1.22,3.86-1.78,5.81a17.58,17.58,0,0,0-.48,2.4,9.16,9.16,0,0,0,.06,1.38,4.29,4.29,0,0,1,0,1c-.09.48-.32.94-.38,1.42a12.27,12.27,0,0,0,.08,4.79,6.71,6.71,0,0,1-.18,2.2c0,.4-.19.87-.05,1.19A2,2,0,0,1,13.36,60a11,11,0,0,0,.18,1.37c0,.59,0,1.18,0,1.77l.18-.09a2.41,2.41,0,0,1,.43.41c.55.89,1.06,1.82,1.65,2.7.25.4.76.66.44,1.26,0,0,.12.22.23.29.53.32,1.09.61,1.62.94a6.84,6.84,0,0,0,1,.65c.64.25,1.33.4,2,.61a1.05,1.05,0,0,1,.25.18c.17.13.32.32.51.37.75.21,1.53.33,2.27.56s1.33.53,2,.8l.09-.22-1.77-.76c.8-.64,1.18.19,1.74.36,0-.15-.08-.28-.12-.46l1.71.49,1.35,0,.79-.12-.42.37,0,.12,1-.21a3,3,0,0,0,2.26.15,1.2,1.2,0,0,1,.35-.12l.06.5,2.54-.84,0-.1-.65.06-.1-.2c1.41.12,1.79-1.23,2.8-1.78v.51a1.48,1.48,0,0,0,.6-.74,5.43,5.43,0,0,1,1.59-2.67c.12-.12.13-.36.2-.58.37,0,1.22-1.52,1.21-2,.64-1.36,1.11-2.39,1.59-3.41l.28.09c-.22,1.1.28,2.26-.41,3.37l.42.1-.13.88-.28-.29c0,.2-.12.48-.06.52.74.49.21,1.2.32,1.8a2.14,2.14,0,0,1-.31,1.41,2,2,0,0,0,.08,1.71c.48.73,0,1.36.08,2a6,6,0,0,1-.07,1,8.34,8.34,0,0,1,0,1.23c-.12.53,0,.82.56.85s.81,0,1,0c.31-.39.49-.84.74-.89.71-.15.57-.57.54-1-.2-.07-.45-.12-.45-.18s0-.48.14-.53c.58-.26.58-.69.4-1.18l.5-.1c-.24-.3-.41-.53-.68-.88.67,0,1-.12,1-.76,0-.18.3-.4.51-.66l-.39-.53.31-.51c-.06-.07-.13-.11-.15-.17s-.14-.42-.2-.63l.23-.06.05.5.39-.14c.11.76.21,1.46.32,2.24l.66-.31a4,4,0,0,0-.13.64c0,.49,0,1,0,1.47s-.22,1.17,0,1.63a4.64,4.64,0,0,1,.27,1.9c0,.66,0,1.32,0,2h.23c.08-.68.16-1.37.27-2.29.32.74.69.91,1,.56l1.1,1c.17-.77.32-1.41.45-2,.17-.88.3-1.78.5-2.66.4-1.67.78-3.34,1.28-5s1.2-3.44,1.84-5.16c.13-.36.4-.66.54-1C56,59,56.42,57.68,57,56.46c.44-1,1-2,1.53-3C59,53.84,58.91,53.23,59,53Zm-37,14.66c.05.07.09.16.13.22h0C22.15,67.8,22.11,67.71,22.06,67.64ZM21,39.14h0c.27-.57.53-1.13.8-1.69C21.5,38,21.24,38.58,21,39.14ZM22.2,67.88Zm6.2-44.54-.14.06.15-.06Zm0,0h0L29.55,22Zm-.16.05h0a1.12,1.12,0,0,0-.19-.15A1.12,1.12,0,0,1,28.25,23.39ZM59.21,44l0-.05,0,.05Zm.19,1c0,.17-.14.32-.48.41C59.26,45.27,59.38,45.12,59.4,45Zm-.13-1.13h0a3.88,3.88,0,0,0,.66.14A3.88,3.88,0,0,1,59.27,43.82Zm4.1-3.9h0c0,.21.06.43.06.45Zm-5,4.35v0l-.24.74ZM48.11,63.72l.43-.36h0l-.43.36ZM37.63,58.77h0c0-.1-.08-.19-.13-.29Zm2-1.74h0c-.37.59-.73,1.19-1.13,1.77C38.91,58.22,39.27,57.62,39.64,57Zm0-.1.09-.43-.09.43Zm-2.05,1.85h0c-.15.19-.3.37-.43.57C37.32,59.15,37.47,59,37.62,58.78Zm-1.56,3.34h0a2.21,2.21,0,0,0-.5.46A2.16,2.16,0,0,1,36.06,62.12ZM37.44,62c.2-.39.39-.79.58-1.18h0C37.83,61.22,37.64,61.62,37.44,62Zm2.4-4.43h0a9.38,9.38,0,0,0,.54-.85A9.38,9.38,0,0,1,39.84,57.58Z"/><path class="cls-2" d="M93.63,42.48c-.24-.71-.44-1.31-.65-1.91,0-.16-.07-.42-.18-.46A22.49,22.49,0,0,0,89.72,39a6.44,6.44,0,0,1-2.13-1c-.46-.31-.84-.61-1.45-.34-.21.09-.65.24-.72-.3,0-.08-.2-.13-.42-.27l.24.58c-.63-.17-1.2-.3-1.76-.47a4.19,4.19,0,0,1-.62-.34c-.4-.2-.81-.59-1.18-.56a18,18,0,0,0-4,.57,10.7,10.7,0,0,0-2.92,1.68,42.24,42.24,0,0,0-3.77,3A32.68,32.68,0,0,0,67.65,45c-1.11,1.36-2.08,2.84-3.07,4.29C64,50.16,63.49,51,63,51.91c-.79,1.3-1.64,2.57-2.32,3.93a24.82,24.82,0,0,0-1.2,3.29c-.17.49-.63,1-.08,1.51,0,0,0,.13,0,.19-.26,1-.51,2-.78,3-.09.31-.33.59-.35.9a10.85,10.85,0,0,0,.11,1.39c.07.79.14,1.58.15,2.37,0,.19-.22.38-.25.42a13.22,13.22,0,0,0,.08,2.39,5.73,5.73,0,0,1,.37,2.38c.38.47.85.82,1,1.28a4.53,4.53,0,0,0,2,2.18c.7.5,1.32,1.1,2,1.67.37.33.73.69,1.09,1l.12-.11c-.21-.33-.42-.65-.62-1l.16-.13,2.92,1.66c.27.76,1.19,1.1,2.09,1.61l-.61.07v.12c1.75.13,3.49.28,5.24.37.43,0,1,.07,1-.66,0-.07.09-.16.17-.19.88-.4,1.75-.84,2.66-1.17a5.25,5.25,0,0,0,2.34-1.86c1.31-1.65,2.6-3.31,3.82-5s2.28-3.23,3.28-4.93,2-3.71,2.94-5.56a28,28,0,0,0,3-10.61c.13-1.34-.09-2.73.1-4.06A14.47,14.47,0,0,0,92.6,43Zm-15,31.31h0c-.41.55-.78,1.13-1.23,1.63C77.88,74.92,78.25,74.34,78.66,73.79ZM62.81,73l.69.52L62.81,73Zm7.09,3.86a4,4,0,0,1-2.56-.25c-.08-.08-.08-.24-.16-.53C65.89,75.75,66,74.47,66,73.37c-.08-1.5,0-3,0-4.5a16.23,16.23,0,0,1,1-5c.62-1.68,1.12-3.41,1.82-5.06a33.72,33.72,0,0,1,1.92-3.54q.57-1,1.23-2a8,8,0,0,1,.87-.89,1.32,1.32,0,0,1,.13-.49c.57-.89,1.16-1.76,1.77-2.62a4,4,0,0,1,.61-.54c.29-.28.56-.59.84-.88.66-.66,1.32-1.32,2-2s1.3-1.09,1.83-1.66a15.39,15.39,0,0,1,2.41-2,3.06,3.06,0,0,1,1.48-.48l-.53.36,1.93-.34a17.92,17.92,0,0,1,0,2.12c-.06.39.36.56.2,1a7.79,7.79,0,0,0-.09,2.17c0,.85-.07,1.69-.11,2.53a4.94,4.94,0,0,1-.34,2.09,10.5,10.5,0,0,0-.46,2,39.16,39.16,0,0,1-1.22,4.17,2.51,2.51,0,0,0-.34,1.62c0,.14-.11.34-.2.5-.43.7-.89,1.39-1.3,2.1-.14.24-.14.57-.29.78-.46.62-.71,1.34-1.25,1.95s-1.19,1.11-.93,2.07c0,.19-.18.51-.35.71-1.94,2.31-3.84,4.64-5.84,6.88A21.57,21.57,0,0,1,69.9,76.84Z"/><path class="cls-2" d="M219.92,111.53a18.54,18.54,0,0,1,.58-2.06c.15-.43.49-.78.67-1.2.48-1.12.89-2.28,1.39-3.39.58-1.27,1.22-2.51,1.84-3.76.33-.67.66-1.35,1-2,.53-1.13,1.07-2.25,1.56-3.4.65-1.53,1.26-3.08,1.91-4.61.22-.53.81-1.15.67-1.51-.34-.89.44-1.21.61-1.8a.66.66,0,0,0,0-.34,1.31,1.31,0,0,1,.62-1.23.55.55,0,0,0,.15-.13l-.5-.07c.54-1.48,1.3-2.87,1-4.7-.31-.39-.8-1-1.27-1.66-.09-.12,0-.34-.07-.65a2.78,2.78,0,0,0,.81.32c.2,0,.38-.24.59-.35s.17,0,.26.05l.7.1c.25-.45.46-.85.71-1.33a8,8,0,0,0-1.14-.84,14.18,14.18,0,0,0-1.67-.58l-.13.37c-.47-.22-.91-.43-1.35-.62s-.61-.39-.88.09c0,.09-.4,0-.61,0L224.64,76s-.07.09-.13.16l.53.09,0,.17L223.32,76l0,.14.25.21-.06.18-.78-.18s-.07.33-.23.42c-.6.35-1.25.6-1.86.93a39.06,39.06,0,0,0-3.92,2.3c-.51.37-1.39.81-1.05,1.71a9.49,9.49,0,0,0-1.69.83,13.24,13.24,0,0,0-1.62,1.56,5.56,5.56,0,0,0-.56.72c-.1.15-.11.38-.24.49-.66.59-1.38,1.12-2,1.74s-1.38,1.49-2.06,2.24l-3,3.32a3.26,3.26,0,0,0-.26.53l.1,0,1.28-1.45.15.12a8,8,0,0,1-.87,1.33,1.09,1.09,0,0,0-.32,1.4c-.28.22-.57.4-.81.63a16.5,16.5,0,0,0-3.16,5.07c-.16.33-.36.64-.55,1,.09-.44.19-.88.28-1.31a5.92,5.92,0,0,0-.81,1.68c-.18.7-.35,1.4-.5,2.1v0h0c-.12.56-.22,1.11-.3,1.67-.26,1.87-.49,3.74-.58,5.62-.1,2.23-.05,4.47,0,6.7,0,.22,0,.55.17.64.64.41,1.11,1.17,2,1.12a5.87,5.87,0,0,0,2.21-.22c.62-.28,1.52.11,2.31.2a.8.8,0,0,0,.26,0c1.1-.31,2.18-.69,3.29-.92a10.23,10.23,0,0,0,4.45-2.46c.55-.46,1.17-.84,1.75-1.26a4.86,4.86,0,0,1-.14,1.26,21.94,21.94,0,0,1-.68,3.22,3.39,3.39,0,0,0-.26,1.63c.19.82-.27,1.36-.57,2,.12-.5.25-1,.38-1.49l-.19,0c-.13.48-.29.95-.38,1.43a15.17,15.17,0,0,0-.18,1.51l-.31.17c-.12-.26-.23-.53-.35-.79l-.17.15a5.3,5.3,0,0,1,.78,1.21c.13.44.16,1-.56,1.06a2.84,2.84,0,0,0,.35.72c.31.34.7.9,1,.87a9.18,9.18,0,0,0,2.23-.71.76.76,0,0,0,.44-.42c.27-.81.9-1.48.79-2.47a1.25,1.25,0,0,1,1-1.48c.17,0,.37-.34.41-.54a13.62,13.62,0,0,0,.22-1.91,3.31,3.31,0,0,0-.15-.86c-.16,0-.17,0-.16,0C219,116.77,219.27,114.1,219.92,111.53Zm8.43-30.3h0l.12,0ZM222.69,79h0l.36-.35Zm-6.37,27.54a3.22,3.22,0,0,0-1.06,1.61c-.07.35-.63.61-1,.92l-.08-.19a3.68,3.68,0,0,0-.57.26c-.19.14-.32.38-.52.5-.83.49-1.67,1-2.52,1.4-.31.16-.68.18-1,.32-.15.07-.24.27-.36.42l.1.2a9.18,9.18,0,0,1-1.47.11,5.27,5.27,0,0,1-1.19-.41l.32.57-1.2-.2c-.14,0-.32-.06-.42,0a1.14,1.14,0,0,1-1.79-.94c0-.73.09-1.47.11-2.21,0-.26-.15-.53-.14-.79,0-.66.06-1.32.13-2a3.54,3.54,0,0,0-.06-1.45.38.38,0,0,1,.05-.32c.52-.45.4-1.07.52-1.64.24-1.11.59-2.21.89-3.31a12.49,12.49,0,0,1,3-4.67c1.22-1.41,2.63-2.67,4-4,.4-.4.82-.78,1.24-1.17,1.5-1.41,3-2.88,4.52-4.22a6.52,6.52,0,0,1,5.35-1.67,7,7,0,0,0,1.36-.11c.35,0,.7,0,1.11,0l-1,2.48.16.08c.29-.64.59-1.28,1-2.1,0,1,.13,1.79-.55,2.46a3.25,3.25,0,0,0-.65,1.11c-.28.7-.49,1.43-.78,2.31l.54-.28c-.17.58-.35,1.16-.56,1.83l-.3-.6-1.44,3.36.23.11c.15-.31.29-.62.43-.93l.2,0a5.55,5.55,0,0,1-.36,1.24,21.71,21.71,0,0,1-1.47,2c-.08.1-.29.1-.44.15h0v0a6.17,6.17,0,0,0-1.11,2.18l.15.08.46-.69.28.14c-.21.49-.43,1-.65,1.46-.14.28-.29.55-.43.82C218.29,102.73,217.83,104.9,216.32,106.55Z"/><path class="cls-2" d="M113.49,78.77a3.67,3.67,0,0,0,.13-.66.87.87,0,0,0,1.27-.56c.16-.41.34-.8.51-1.21a3.36,3.36,0,0,1,.33-.8c.32-.43-.36-1.22.53-1.39-.21-.66-.12-.78.45-1.16a.69.69,0,0,0,.13-.64c-.39-.41-.11-.68.19-.81a1.8,1.8,0,0,0,1-1.91c0-.38.35-.76.54-1.14.09-.19.25-.4.22-.57a2.56,2.56,0,0,1,.51-2c.19-.31.29-.68.49-1a1.2,1.2,0,0,0,.22-1.37.91.91,0,0,1,0-.63c.19-.55.47-1.06.63-1.61a2.88,2.88,0,0,0,.1-1.13,2.78,2.78,0,0,1,.25-1.39,8.58,8.58,0,0,0,.24-2c-.61-.51-.07-1.14,0-1.73a17.2,17.2,0,0,1,.33-1.88c.13-.54.31-1.07.4-1.41a3.14,3.14,0,0,1-.18-.92c.1-.58.31-1.13.42-1.7s.2-1.45.27-2.18a.83.83,0,0,0-.11-.51c-.35-.6-.73-1.18-1.11-1.77-.6.21-1,.72-.83,1.23a3.8,3.8,0,0,1-.24,2.49c-.06.21-.3.38-.46.58.06.09.25.33.21.37-.49.56-.39,1.27-.51,1.92s-.18,1.25-.26,1.87l-.39,2.66c-.1.63-.23,1.27-.3,1.91s-.08,1.16-.11,1.74c0,.21.1.55,0,.61-.59.38-.27.93-.32,1.4,0,.09.07.2,0,.27-.11.31-.27.61-.38.92s-.28.86-.39,1.3-.14.73-.2,1.07a1.79,1.79,0,0,0-.32.53c-.19.78-.32,1.58-.5,2.36,0,.21-.23.4-.23.61a2.88,2.88,0,0,1-1,1.8c.39.37.35.56,0,1-.53.68-1,1.39-1.5,2.08h0c-.46.7-.57,1.68-1.48,2,.06.17.2.36.16.48-.3.86-.65,1.69-1,2.54a4.85,4.85,0,0,0-.13.93h0c-.82.33-1,.63-.74,1.36,0,.1-.12.27-.19.4l0-.24-.94-.29-.07.16.59.24v.77l-.59,0,.87.39-.92,1-.13-.12c0-.32.11-.65.18-1.06l-1.21.56c.14,1.31-1.24,1.39-1.73,1.95.16.47.28.81.4,1.13-1.56,1.07-1.56,1.07-2.19.8l1-.62c.11-.31.18-.49.25-.71-.6.11-1.28,0-1.59.75,0,.1-.4.16-.57.11a2.31,2.31,0,0,1-.58-.37,5,5,0,0,1,.47-1,7.12,7.12,0,0,1,1-.87c.15.17.24.36.33.37s.49-.07.5-.15a2,2,0,0,0,0-.62c.5-.52.95-1,1.38-1.47a.51.51,0,0,0,.1-.45c-.42-.67,0-.92.31-1l.44-1c.27-.61.51-1.25.84-1.85s.73-1.11,1.09-1.66l.18.12c-.23.51-.46,1-.75,1.64,1-.59,1.81-2.41,1.49-3.07l-.4.26.77-1.83c.29-.09.58-.1.72-.25s-.09-.4-.13-.53c.21-.34.65-.73.59-1a.86.86,0,0,1,.42-1.06l.14-1.08.19.13c.13-.12.34-.22.38-.37.2-.73.36-1.48.53-2.22l.27,0a2.42,2.42,0,0,1,.11.69c-.07.5-.19,1-.3,1.49,0,.13-.07.32-.16.37-.53.3-.3.59,0,.88l.36-.66.24.18.42.87.17,0c-.34-2.23.75-4.26.75-6.57l-.45.58-.14-.07.86-2.94a1.22,1.22,0,0,1-.19-.56c.09-1.05.26-2.09.34-3.14.18-2.14.29-4.29.49-6.43.13-1.42.35-2.83.54-4.25.12-.85.27-1.69.39-2.54,0-.11,0-.28-.06-.32a1,1,0,0,1-.4-1.31l-.85-.35a4.62,4.62,0,0,0-.77,1.13c-.39,1.3-.74,2.63-1,4-.18.89-.15,1.81-.27,2.71-.26,2-.63,4-.83,5.95a32.11,32.11,0,0,1-1.4,6.87c-.27.81-.59,1.59-.89,2.38-.57,1.46-1.09,2.93-1.73,4.36s-1.29,2.62-1.93,3.94c-.43.88-.8,1.78-1.24,2.65A25.29,25.29,0,0,1,104.27,79c-.67,1-1.43,1.88-2.19,2.8-.13.16-.42.21-.63.31,0-.22.24-.31.24-.41,0-.76-.06-1.51-.07-2.27,0-.46.25-1.12,0-1.32-.5-.48-.11-.82,0-1.22a3.8,3.8,0,0,1,.14-.67c.43-1-.53-2.17.24-3.2.1-.12-.05-.43-.08-.66s-.09-.22-.07-.32c.22-1.13.48-2.25.69-3.39.1-.59.08-1.21.18-1.81a13.63,13.63,0,0,1,.38-1.35,1.34,1.34,0,0,1,0-.74c.21-.62.5-1.21.7-1.83s.21-1,.35-1.51.43-1.19.6-1.8.28-1.28.44-1.91c0-.16.21-.42.31-.42.85,0,.67-.67.85-1.12s.29-.8.46-1.2.7-1.09.67-1.61a7.23,7.23,0,0,1,.54-2.08c.17-.79.18-1.62.28-2.42.06-.58.38-1.12.11-1.72,0-.09,0-.3,0-.31.61-.18.33-.49.18-.83a1,1,0,0,1,0-.6c.19-.6.32-1.15-.5-1.39a2.39,2.39,0,0,1-.59-.32l-1,1,.18.13c-.31.82-.59,1.57-.87,2.33a.22.22,0,0,0,0,.19c.4.46.15.95.06,1.43a3.17,3.17,0,0,0-.09.8,2.46,2.46,0,0,1-.87,2.2c-.16.16-.13.51-.19.78s0,.43-.09.5c-.65.5-.46,1.17-.5,1.78a2.4,2.4,0,0,0-.6.86c-.23.74-.39,1.5-.56,2.25s-.27,1.42-.45,2.12a2.69,2.69,0,0,1-.51,1.18,1.42,1.42,0,0,0-.54,1.76.66.66,0,0,1,0,.34c-.28.86-.58,1.71-.86,2.57l-.12,0,.11-.85A10.72,10.72,0,0,0,100,66.6a1.5,1.5,0,0,0-.12.45,15.27,15.27,0,0,1-.13,1.53,17.16,17.16,0,0,1-.59,2.24c-.24.7.61,1.5-.23,2.12a.26.26,0,0,0,0,.13c.44.83-.17,1.59-.14,2.3.14.24.34.42.34.59,0,1.29-.15,2.58-.21,3.88a9.24,9.24,0,0,1,0,1.29c-.07.38,0,1-.67,1a7.42,7.42,0,0,1,.44.7,2,2,0,0,1,.12.5,1.39,1.39,0,0,1-.49.07,2.55,2.55,0,0,1-1.66-1.29c-.12-.16,0-.52,0-.79l-.12-.51c0-.23.07-.6,0-.68a1.21,1.21,0,0,1-.5-1.37,3.08,3.08,0,0,0-.11-1.08,1.7,1.7,0,0,1,.74-1.71.8.8,0,0,0,.55-1c0-.21-.54-.32-1-.55.24-1.55-.55-3.35.52-5.12l.66,1a13.27,13.27,0,0,0,0-1.56c-.08-.73,0-1.34.75-1.69.35-.17.61-.45,0-.7a.72.72,0,0,1-.41-1.06,15,15,0,0,0,.52-1.56,8.6,8.6,0,0,0,.15-1.15l-.19,0-.63,1.18c.14-.49.25-1,.4-1.45.37-1.14.77-2.27,1.14-3.4.23-.69.41-1.39.65-2.07s.48-1.21.73-1.82c.25.1.85-.38.94-.81a15,15,0,0,1,.43-1.59c.17-.49,0-1,.41-1.52a9.28,9.28,0,0,0,.78-2.11c.21-.58.44-1.15.67-1.74-.67,0-.88-.51-.77-1.33.14-1.09.22-2.2.29-3.31,0-.45,0-1-.74-.61,0-.29.08-.49.12-.67l-.82-.37c-.07.22-.07.56-.22.64a1.72,1.72,0,0,0-.86,1.6,28.05,28.05,0,0,1-1.58,7.74q-.84,2.37-1.61,4.76c-.24.8-.37,1.62-.59,2.43a1.65,1.65,0,0,1-.36.68c-.34.34-.31.57,0,.89.12.1.09.51,0,.68-.27.41-.73.72-.93,1.15a14,14,0,0,0-1,2.65,34.66,34.66,0,0,0-1,5.21c-.2,2.87-.19,5.76-.19,8.65a10.09,10.09,0,0,0,.33,3.62A11,11,0,0,0,96.42,86a2.61,2.61,0,0,0,.69.44c.83.36,1.68.71,2.53,1a1.65,1.65,0,0,0,.66.12c.44,0,.88-.14,1.32-.16s.86,0,.78.66a.51.51,0,0,0,.28.43,7.52,7.52,0,0,0,1.42.08c.38,0,.74-.2,1.12-.21a3.53,3.53,0,0,0,2.72-1.19c.49-.57,1.06-1.08,1.55-1.66A15.88,15.88,0,0,0,111.54,83,45.59,45.59,0,0,0,113.49,78.77Z"/><path class="cls-2" d="M98.23,82.08h0Z"/><path class="cls-2" d="M185.52,87.33c.53-1.62,1.37-3.12,1.91-4.76s1.47-3.18,2.18-4.8c1-2.27,2-4.56,2.89-6.86.49-1.2.82-2.47,1.31-3.66,1.13-2.74,1.84-5.64,3-8.35a3.45,3.45,0,0,0,.15-.67,9.47,9.47,0,0,1,.26-1c.38-1.08.8-2.14,1.19-3.22s.81-2.42,1.25-3.62c.67-1.82,1.38-3.62,2-5.45a2.2,2.2,0,0,0,0-.92,2.67,2.67,0,0,1,.35-2.14c.38-.49,1-.92.7-1.66-.16-.15-.43-.39-.38-.52s.34-.36.53-.53l.5-.49-.16-.16-.68.3c-.73-1.63.87-2.34,1.44-3.48a2.61,2.61,0,0,0-2.59.71,4.92,4.92,0,0,0-1,2.06,6.92,6.92,0,0,0,.06,1.75.72.72,0,0,1-.18.51c-.44.34-.91.63-1.38.94,0-.14,0-.25-.06-.38a5.1,5.1,0,0,0-.62.6,3,3,0,0,0-.84,1.94,16.44,16.44,0,0,1-1,6.17c-.35.93-.76,1.84-1.1,2.77-.45,1.23-.86,2.48-1.3,3.72-.07.19-.2.36-.28.55-.4,1-.82,2-1.17,3s-.16,1.87-.7,2.7c-.12.17,0,.46,0,.7,0,.07,0,.15,0,.19-.2.32-.41.63-.62.94.78.44.16.6-.11.81l.1.26a2.86,2.86,0,0,0-.42.53c-.19.42-.35.84-.52,1.27-.45,1.15-.91,2.29-1.35,3.44-.2.52-.37,1-.57,1.55-.46,1.17-1.76,2.08-1.08,3.6,0,0,0,.13,0,.19-.2.46-.4.92-.61,1.38,0,0-.1.08-.19.15,0-.15,0-.26,0-.52a10,10,0,0,0-1,1.5c-.71,1.7-1.37,3.43-2,5.15-.24.64-.37,1.34-.65,2-.46,1-1,2-1.55,3.12l.55.06v.08l-.89.24c1,.66.35,1.45.31,2.14,0,.42-.3.94-.31,1.46s-.26.84-.85.73a.43.43,0,0,1,0,0l0,0c-.14-.28-.27-.56-.43-.87-.19,1-.39,2-.58,2.93l.07,0,.25-.59.11,0c0,.16,0,.32.06.55l1-1.34.17.1c-.38.72-.75,1.45-1.11,2.13l-.47.09c0-.19,0-.35.05-.51a9,9,0,0,0-.7,3.56,5.86,5.86,0,0,1-.34,2c-.19.69-.47,1.36-.71,2l.13.06c.26-.55.51-1.09.8-1.73.41,1.38-.28,3.24-1.15,3.43-.07.79-.15,1.56-.23,2.33h0l0,0,0,0c.19.39.54.8.51,1.17a2.67,2.67,0,0,1-.66,1.42,1.87,1.87,0,0,0-.57,1.37h0a1.56,1.56,0,0,0-.16.44c-.09.71-.79,1.27-.54,2,.07.2.32.34.45.53.33.48.68.48,1.16.16a12.36,12.36,0,0,1,1.38-.63c.2-.1.47-.21.55-.38a14.59,14.59,0,0,0,.62-1.67c.51-1.53,1-3.07,1.5-4.59.32-.93.74-1.82,1.05-2.75a8.07,8.07,0,0,0,.2-1.32c.09-.55-.31-1,0-1.66a15.74,15.74,0,0,1,1.23-2.83,1.43,1.43,0,0,0,.15-.66,24.28,24.28,0,0,1,.11-2.7c.26-1.67.63-3.32,1-5A28.64,28.64,0,0,1,185.52,87.33Z"/><path class="cls-2" d="M199.37,88c.59-2,1.18-3.93,1.94-5.82s1.78-3.9,2.74-5.82c1.2-2.39,2.46-4.74,3.69-7.11s2.58-5,3.89-7.51c.73-1.4,1.5-2.78,2.22-4.19,1.07-2.09,2.17-4.18,3.14-6.32a14,14,0,0,0,.86-3.22,13.78,13.78,0,0,0,0-5,5.77,5.77,0,0,1,0-1c-.26.32-.37.46-.51.62l-.42-.49a1.63,1.63,0,0,0-.81,1.45c-.14,1.06-.3,2.12-.47,3.18a6.42,6.42,0,0,1-.23,1.25,11,11,0,0,1-.67,1.33c.27.79.13,1.11-.65,1.15l.17-1.69H214c0,.53-.7,1,0,1.59-.3-.19-.45-.07-.52.26a2.31,2.31,0,0,1-.16.64c-.47.88-1,1.72-1.4,2.63-.12.3-.18.45-.53.42v1.87l-.65-.47c-.07.36-.13.69-.19,1,0,0,0,0-.06,0-.22,0-1.13,1.15-1,1.25.52.39,0,.7,0,1l.71-.11a13,13,0,0,1-.52,1.25c-.19.34-.46.89-.71.9-.67,0-.85.5-1.18.86-.13.15-.41.3-.38.4.19.94-.66,1.39-.8,2l-.58-.61a6.65,6.65,0,0,1-.72,1.26,3.14,3.14,0,0,0-1.17,2.44l2-2.38a3.45,3.45,0,0,0,.07,1.26,5,5,0,0,1-.71,1.85l-.19-.06-.12-.69a7.74,7.74,0,0,0-.51.69c-.68,1.07-1.32,2.17-2,3.21a5.54,5.54,0,0,1-1.08,1h0c-.66,1.21-1.78,2.19-2,3.62l.17.1.93-.87.42-.5c.44-.51.89-1,1.34-1.53.18-.21.37-.41.56-.61.1.17.1.26.06.33l-2.23,4.43c-.17.34-.31.7-.5,1-.08.14-.27.2-.55.4l.8-1.89-.27-.13a15.57,15.57,0,0,0-.7,1.42c-.08.19,0,.46.08.68s.13.47.19.71l-.22,0c-.11-.25-.21-.5-.31-.75l-.23,0c.28.56-1.18.9-.12,1.48-.14.73-.27,1.4-.41,2.07a.67.67,0,0,1-.14.38,1.34,1.34,0,0,0-.46,1.28,3.19,3.19,0,0,1-.17,1.14c-.3,1.13-.64,2.24-1,3.36,0,.2,0,.42,0,.62-.21,1.18-.39,2.36-.67,3.53s-.6,2.13-.9,3.19c-.07.22-.16.61-.21.61-.63,0-.37.4-.31.61.4,1.35-.21,2.55-.55,3.78,0,.1-.14.27-.19.26-.52-.06-.53.34-.62.66-.14.48-.27,1-.42,1.45,0,.12-.17.2-.26.3a1.92,1.92,0,0,0-.41.5c-.42,1.12-.82,2.26-1.22,3.4v0a0,0,0,0,1,0,0h0l.22.55.26-.22,1-1.76a5.84,5.84,0,0,1-.2,1.25c-.19.78-.37,1.56-.58,2.33s-.42,1.29-.59,1.94c-.22.85-.4,1.72-.6,2.58-.14.6-.45.6-.85.24a1.81,1.81,0,0,0,.13.35c.6.88.6.88-.32,1.32a3.82,3.82,0,0,0,0,.82,1.75,1.75,0,0,0,.32.62,5.11,5.11,0,0,0,.45.48l-.57.51c.44.24,1,.51,1.46-.13.11-.14.38-.15.55-.26a1.05,1.05,0,0,0,.44-.42c.29-1,.56-2,.82-3,.37-1.4.72-2.8,1.08-4.2.18-.66.33-1.33.55-2,.3-.88.71-1.72,1-2.61.31-1,.55-2.12.77-3.19s.42-2.4.63-3.6c.16-.86.32-1.71.51-2.56.41-1.79.85-3.57,1.26-5.35C198.93,90.16,199.06,89.06,199.37,88Z"/><path class="cls-2" d="M190.42,104.21c.22-.24.51-.73.41-.89-.37-.63.11-1,.24-1.52.05-.24.13-.47.18-.7.39-1.82.79-3.64,1.16-5.47a1.3,1.3,0,0,0,0-.9c-.34-.47,0-.78.11-1.15,0-.1.16-.17.18-.27a16.6,16.6,0,0,0,.4-1.8c.15-1.29,1.09-2.36.93-3.72a2,2,0,0,1,.07-.81c.51-1.59,1.08-3.17,1.54-4.77.37-1.31,1.16-2.53.92-4,0,0,.07,0,.11-.06l.24.2.08-.06c-.14-.22-.27-.44-.41-.65.61-.86,1.29-1.7,1.83-2.63.77-1.33,1.47-2.71,2.15-4.1a6,6,0,0,0,.26-1.23,2.71,2.71,0,0,1,.34-.94,5.09,5.09,0,0,0,1-1.6,10.74,10.74,0,0,1,1.77-2.53,3.09,3.09,0,0,0,.48-.82c.34-.94.63-1.89,1-2.83,0-.07.15-.11.22-.17s.5-.27.61-.47.06-.65.2-.91c.46-.82,1-1.6,1.45-2.41a16,16,0,0,0,.87-1.7c.1-.22,0-.56.1-.74a7.09,7.09,0,0,0,1.4-3c0-.12.17-.21.25-.32a8.81,8.81,0,0,0,.66-.85,9.94,9.94,0,0,0,.75-1.3c.5-1.06,1-2.13,1.44-3.23a15.16,15.16,0,0,0,.59-5c0-.17,0-.42-.14-.5-.38-.31-.81-.55-1.17-.79l-.94.26-.66.85c.57.86.55,1.26-.12,1.55.53.55.46.87-.09,1.46-.22.23-.36.93-.26,1,.41.26.13.46,0,.66a6.4,6.4,0,0,1-.42.67c.09.38.27.71.19.94a8.54,8.54,0,0,1-.86,1.74c-.76,1.18-1.6,2.3-2.35,3.49a13.69,13.69,0,0,0-1.12,2.19c-.24.57-.75,1.09-.48,1.81,0,.08-.22.28-.37.39a1.68,1.68,0,0,1-.46.17l.22.12a6.09,6.09,0,0,1-.25,1.2c-.06.14-.38.18-.43.21a9.36,9.36,0,0,1-.55,1.06c-.25.35-.73.59-.42,1.16,0,.07-.16.36-.28.39-.6.14-.67.53-.55,1l-.22.07a4.26,4.26,0,0,1-.21,1.42c-.64,1.14-1.36,2.25-2.09,3.34-.43.65-1,1.2-1.39,1.88-.88,1.61-1.68,3.26-2.5,4.9a1.51,1.51,0,0,0-.24.77,1.65,1.65,0,0,1-.76,1.6c-.17.12-.39.42-.35.53.32.69,0,1.08-.56,1.36-.08,0-.13.19-.17.29-.32.78-.65,1.56-.95,2.35a7.06,7.06,0,0,0-.21.91c-.06.26-.41.63.23.64a7,7,0,0,1-.15,1.12c0,.11-.35.15-.56.22a1.1,1.1,0,0,1,.36,1.56c-.57,1-.29,2-.66,3-.18.48.07,1.14-.14,1.6A18.79,18.79,0,0,0,190.11,95a13.59,13.59,0,0,1-.52,2.09c-.31,1-.72,1.91-1,2.88a13.52,13.52,0,0,1-1.36,4,3.76,3.76,0,0,0-.25,1c.56-.28.28-1.42,1.37-.86-.92,2.29-1.86,4.61-2.8,6.93a2.82,2.82,0,0,1-.12,1.42,4.34,4.34,0,0,1-1,1,4.12,4.12,0,0,0,1,.5,12,12,0,0,0,1.9.11c.08,0,.2-.14.23-.24.16-.66.33-1.32.45-2s.16-1.61.36-2.38a30.56,30.56,0,0,1,1-3A5.76,5.76,0,0,1,190.42,104.21Z"/><path class="cls-2" d="M202.12,62Z"/><path class="cls-2" d="M169.93,67l-.1.08.15.08-.3.57-.63-.37a3.32,3.32,0,0,0-.18.59,4.49,4.49,0,0,1-.13,1.35,2.85,2.85,0,0,0-.08,2.09c.18.89.09,1-.58,1.26v3h0a21,21,0,0,1-.55,2.18c-.46,1.29-1,2.55-1.49,3.83s-1,2.8-1.48,4.19c-.83,2.27-1.72,4.52-2.51,6.81-.59,1.68-1,3.42-1.59,5.11-.39,1.16-.89,2.28-1.36,3.41-.17.41,0,1.51.32,1.65.53.21.49.58.33,1-.38.95-.79,1.89-1.23,2.81a.93.93,0,0,0,.6,1.3.85.85,0,0,0,1.07-.46c.14-.29.34-.54.48-.81.25-.49.51-1,.72-1.47s.37-1,.56-1.56a4.57,4.57,0,0,1,.31.34c0-.41-.07-1,0-1,.66-.2.42-.82.56-1.19A34.75,34.75,0,0,1,164,98c.08-.16-.09-.45-.15-.68s-.08-.31-.13-.47h.1c.07.15.14.3.2.45l.3-.24c-.1-.25-.21-.5-.26-.6.27-.46.68-.84.7-1.24a4.56,4.56,0,0,1,.57-1.9,16.8,16.8,0,0,0,1.05-2.77c.3-.92.48-1.89.8-2.8.47-1.32,1-2.61,1.53-3.91q.3-.8.57-1.59c.15-.42.25-.85.43-1.25s.49-.85.81-1.4l-.8.14c.6-.72,1.8-1.06,1-2.06.2-.19.43-.29.49-.46.27-.75.5-1.52.79-2.41-.25.33-.44.56-.63.79,0-.29,0-.66.13-.72.8-.34.57-1.2.93-1.74l-.06-.66c-.5-.83-.17-1.68-.11-2.52a17.55,17.55,0,0,1,.42,3.36,24.44,24.44,0,0,1-.44,3.27c1-3.22.52-6.44.1-9.48A1.52,1.52,0,0,0,169.93,67Z"/><path class="cls-2" d="M168.08,75.67h0S168.08,75.66,168.08,75.67Z"/><path class="cls-2" d="M168.08,75.67Z"/><path class="cls-2" d="M180.45,89.6l3.87-9.84-.25-.09q-1.95,4.9-3.89,9.83Z"/><path class="cls-2" d="M189.93,112.93v0h0Z"/><path class="cls-2" d="M189.92,112.9a3.68,3.68,0,0,0,.32-.7c.07-.23,0-.51,0-.73a9.14,9.14,0,0,0,.62-2,3.3,3.3,0,0,0,.07-2c-.42,1.55-.86,3.08-1.25,4.63C189.67,112.37,189.84,112.65,189.92,112.9Z"/><path class="cls-2" d="M214.39,47.6l.31-.58c.06.2.1.36.15.52.21-.81,1.14-1.5.37-2.41a3.5,3.5,0,0,0-.5-.44c-.13.16-.25.33-.37.49,0,.25.07.49.1.74-.1.54-.2,1.08-.29,1.63Z"/><path class="cls-2" d="M166.6,91.75l0,0h0Z"/><path class="cls-2" d="M164.26,98.8c.14-.14.33-.27.39-.44.49-1.47,1-2.94,1.42-4.43.22-.71.36-1.45.53-2.18a1.22,1.22,0,0,0-.12.19Z"/><path class="cls-2" d="M47.28,70.83l-.51,0c0,.31,0,.57,0,.84l.37-.08.19,1.2.24,0v-3C46.81,69.93,47.31,70.47,47.28,70.83Z"/><path class="cls-2" d="M195.7,50l-.25-.1c-.65,1.75-1.29,3.49-1.94,5.23l.2.08C194.37,53.51,195,51.77,195.7,50Z"/><path class="cls-2" d="M112.82,71.7c.06.06.24,0,.36,0s.37-.09.67-.17c0-.11.13-.36.18-.48-.29-.38-.5-.67-.72-1-.22.4-.46.79-.65,1.21C112.62,71.39,112.72,71.6,112.82,71.7Z"/><path class="cls-2" d="M113.31,70.09v0l0,0h0Z"/><path class="cls-2" d="M166.63,91.71v0l0,0Z"/><path class="cls-2" d="M167.88,88.25c-.42,1.14-.83,2.28-1.24,3.42a2.18,2.18,0,0,0,.44-.53c.16-.36.25-.77.38-1.15l1.32-3.58-.17-.06C168.36,87,168.11,87.61,167.88,88.25Z"/><path class="cls-2" d="M180.91,89.49a13.2,13.2,0,0,0-.84,3.69,29.56,29.56,0,0,0,1.16-3.6Z"/><path class="cls-2" d="M52.66,32.85l.34.59V31.3a3.69,3.69,0,0,0-.66,2.9C52.44,33.77,52.54,33.34,52.66,32.85Z"/><path class="cls-2" d="M289.84,62.12c-.32.62-.61,1.26-.92,1.89-.13.28-.3.55-.45.83l.28.15,1.58-3.07-.11-.19C290.09,61.86,289.91,62,289.84,62.12Z"/><path class="cls-2" d="M197.44,85.35l-1-.26-.08.16.54.36a5.24,5.24,0,0,0-.72.64c-.09.13,0,.36-.07.54.17-.06.41-.06.49-.17C196.91,86.24,197.14,85.83,197.44,85.35Z"/><path class="cls-2" d="M195,90.87,196.45,88A3.35,3.35,0,0,0,195,90.87Z"/><path class="cls-2" d="M164.22,98.91l0-.08h0v0l0,0S164.23,98.88,164.22,98.91Z"/><path class="cls-2" d="M163.12,103.08c.27-.74.59-1.47.8-2.23a17.8,17.8,0,0,0,.3-1.94c-.42,1.37-.84,2.75-1.27,4.12Z"/><path class="cls-2" d="M187.49,72.47l-.16-.07c-.26.53-.55,1.06-.78,1.61-.31.72-.58,1.46-.86,2.19l.2.09C186.42,75,187,73.74,187.49,72.47Z"/><path class="cls-2" d="M194.2,95.21l.2,0c.08-1,.78-1.89.57-3l-.22,0Z"/><path class="cls-2" d="M97.14,74.16V71.65H97C96.58,72.6,96.66,74,97.14,74.16Z"/><path class="cls-2" d="M112.22,73.83a8.75,8.75,0,0,0,.46-1l-.09-.16c-.3.25-.62.48-.9.75a.85.85,0,0,0-.26.48c0,.07.25.28.34.25A.81.81,0,0,0,112.22,73.83Z"/><path class="cls-2" d="M101.09,57.19l-.26-.07-.88,3,.22.07C100.48,59.18,100.78,58.18,101.09,57.19Z"/><path class="cls-2" d="M201.87,96.47c.55-.8,1.09-1.6,1.63-2.41l-.21-.14-1.61,2.4Z"/><path class="cls-2" d="M110.81,74.54l-.24,1.22.82-.45c.11-.06.29-.17.28-.23a.52.52,0,0,0-.23-.36A2.68,2.68,0,0,0,110.81,74.54Z"/><path class="cls-2" d="M176.92,107.42c-1,.89-.79,2.17-1.13,3.28C176.17,109.61,176.54,108.52,176.92,107.42Z"/><path class="cls-2" d="M199.48,38.69a2.94,2.94,0,0,0-1.63,1.58l.14.13Z"/><path class="cls-2" d="M189.76,67.08l-.27-.1-.9,2.48.21.09Z"/><path class="cls-2" d="M30.35,72.09H27.21C28.23,72,29.26,72.72,30.35,72.09Z"/><path class="cls-2" d="M290.38,61l.7-.75-.14-.83-.16,0-.56,1.56Z"/><path class="cls-2" d="M209.44,59.16h0v0h0Z"/><path class="cls-2" d="M209.54,59.31s-.06-.1-.1-.15a3.29,3.29,0,0,0-.83,1.89A9.1,9.1,0,0,0,209.54,59.31Z"/><path class="cls-2" d="M145.34,71.29v0h0v0Z"/><path class="cls-2" d="M145.62,72.71c-.07-.27-.13-.46-.17-.66s-.07-.51-.11-.76c-.16.53-.33,1.06-.53,1.73Z"/><path class="cls-2" d="M98.23,82.08h0l0,0Z"/><path class="cls-2" d="M98.22,82l-1-2.1A2,2,0,0,0,98.22,82Z"/><path class="cls-2" d="M259,132.61l.15,0c-.11-.68-.22-1.35-.32-2h-.19l-.13.56v0h0C258.7,131.6,258.86,132.11,259,132.61Z"/><path class="cls-2" d="M259.82,135.61l-1-1.45a2.18,2.18,0,0,0,.72,1.61Z"/><path class="cls-2" d="M258.82,134.12h0l0,0Z"/><path class="cls-2" d="M269.42,141.32l0-.24-1.29-.1C268.54,141.62,268.66,141.64,269.42,141.32Z"/><path class="cls-2" d="M189.65,114.41c-.24-.27-.51-.31-.59.08a7.77,7.77,0,0,0,0,1.4,5.8,5.8,0,0,0,.33-.63c.11-.28.19-.56.28-.84h0s0,0,0,0Z"/><path class="cls-2" d="M104,42.68h-.13l-.08,1.88H104Z"/><path class="cls-2" d="M287.86,65.81l1.37-.22-1-.6C288.08,65.32,288,65.51,287.86,65.81Z"/><path class="cls-2" d="M144.73,59.24h-1.11l-.19.47C144.28,59.78,144.57,59.66,144.73,59.24Z"/><path class="cls-2" d="M175.89,58.83l.1,1c.14-.08.41-.17.41-.23a4.7,4.7,0,0,0-.21-.82Z"/><path class="cls-2" d="M140.34,96.91l-.94,1c.54.37.79-.28,1.2-.36v0h0Z"/><path class="cls-2" d="M170.29,81.86l.19.08.75-2.17-.15-.06C170.81,80.43,170.55,81.15,170.29,81.86Z"/><path class="cls-2" d="M292.71,56.17l-.23-.07c-.18.67-.37,1.33-.55,2l.17.06C292.3,57.5,292.5,56.83,292.71,56.17Z"/><path class="cls-2" d="M96.88,78.3l.22-.09.06-.71-.77-.07Z"/><path class="cls-2" d="M258,127l-.49,1.51.49-.08Z"/><path class="cls-2" d="M189.93,112.93l0,0v0Z"/><path class="cls-2" d="M189.52,114c.14-.41.26-.76.39-1.11C189.24,113,189.09,113.37,189.52,114Z"/><path class="cls-2" d="M101.26,56.41l.2.05L102,54.7l-.18-.05Z"/><path class="cls-2" d="M109.12,80c.17-.38.32-.69.54-1.17l-1,.73Z"/><path class="cls-2" d="M190.59,64.61l-.19,0c-.17.45-.33.91-.5,1.36l.27.07Z"/><path class="cls-2" d="M100.4,56.13l-.51,1.07.21.14.58-1.05Z"/><path class="cls-2" d="M191.59,61.74l-.2-.05-.6,1.94.12,0Z"/><path class="cls-2" d="M215.27,106.87l.23.14,1.5-2.54-.18-.15C216.3,105.17,215.78,106,215.27,106.87Z"/></g></g></g></svg>