<svg xmlns="http://www.w3.org/2000/svg" viewBox="0 0 324.45 145.07"><defs><style>.cls-1{fill:#fff;opacity:0.2;}</style></defs><g id="Calque_2" data-name="Calque 2"><g id="Contours"><path class="cls-1" d="M323.21,31.05c-2.87-7.48-9.93-8.75-17.08-7.86-.44.06-2.74.12-4.21.24-.17-.42-.34-.84-.39-1-.94-3.23-1.11-6.65-2.2-9.84A15.46,15.46,0,0,0,282.79,2.38c-4.54.56-7.13,3.43-9.12,6.9C268,2.43,258.19-2.24,251.07,3.56c-4.49,3.65-6.17,10.23-6.93,15.7a46,46,0,0,0-.56,6.62c0,.34,0,2.88.62,2.36-1.25,1.41-5.82,1.88-7.39,2.26C230.71,32,225,33.43,218.7,32.13a108,108,0,0,0-25-2.4c-8.31.19-16.76-1.29-24.85,1.23-6.61,2-12.09,6-17.42,10.3-1.77,1.42-3.18,2.91-5.57,2.73-2.08-.15-4.44-1.41-6.32-2.18a72.46,72.46,0,0,0-13.23-3.88c-7.34-1.46-15.36-2.2-22.82-.69C99.78,28.61,93,20.26,82.7,22.89c-6,1.53-9.8,6-13.62,10.51A12.14,12.14,0,0,1,63,37.62a20.88,20.88,0,0,1-4.61,1.2,1.86,1.86,0,0,0-.65.14,1.71,1.71,0,0,0,.06-.63C57.42,27.09,57.58,14.8,49,6.27a20.76,20.76,0,0,0-17.77-6c-7.48,1.13-13,5.58-18.8,10a6.14,6.14,0,0,0-1.73,2.05,22.83,22.83,0,0,0-4.91,4.06C1.49,21.11-1.1,27.93.45,34.33A10.89,10.89,0,0,0,5,41.1c1.34.81,2.83.6,4.16,1.2,2.58,1.15,1.67,3.62,1.62,6.08-.19,10.86,2.86,21.3,3.78,32,.38,4.3.52,8.83-.84,13-1.26,3.83-3.46,7.3-4.75,11.13-2.34,7-.86,14.55,6.28,17.93,6.66,3.15,14.11-.14,19.8-3.82a116.16,116.16,0,0,0,19.11-15.42c1.27-1.27,2.62-3,4.17-4,2.35-1.4,3.69-.12,6.08.7a33.86,33.86,0,0,0,14.19,2c8.43-.87,15.22-6.53,22-11.33,3.22,4.32,5.75,8.61,10.63,11.82,5.09,3.35,11.2,6.15,17.43,5.41,6.55-.78,11.94-5.18,17-9,3.3-2.45,6.89-4.31,10.36-6.5,2.54-1.59,5.75-5.13,8.89-5.18,9-.15,9.29,23.66,10.05,28.88.95,6.52.42,14.56,3.38,20.61,2.44,5,7.66,7.63,13,8.24,8.48,1,15.17-3.71,18.73-10.42a10.61,10.61,0,0,0,3.73,1.54c6.59,1.37,12.07-3.24,15.28-8.54a73.43,73.43,0,0,0,8.54-22.08c1.55-7.19-.16-14.6.57-21.83,3.24,1.11,6.5,2.15,9.81,3,5.14,1.38,10.48,1.77,15.61,3.11,4.41,1.15,8,4.06,12.22,5.73a37.88,37.88,0,0,0,10.34,2.41c6,.58,12.64-1.25,15-7.37,1.62-4.26,1.08-9.21,1.35-13.68.28-4.67,1.65-9.27,2.65-13.82,1.59-7.24,10.71-7.51,15.22-12.66C324.67,45.5,325.49,37,323.21,31.05Zm-21.84-7.56c-.4,0-.68.09-.7.15C300.93,22.94,301.16,23.1,301.37,23.49Z"/></g></g></svg>