<svg xmlns="http://www.w3.org/2000/svg" viewBox="0 0 306.12 136.87"><defs><style>.cls-1,.cls-2{fill:#fe5f58;}.cls-1{opacity:0.2;}</style></defs><g id="Calque_2" data-name="Calque 2"><g id="Phrase_1" data-name="Phrase 1"><g id="P1_m1_3"><path class="cls-1" d="M305,29.29c-2.71-7-9.37-8.25-16.12-7.41-.41.05-2.58.12-4,.23-.15-.4-.32-.8-.37-1-.88-3.05-1-6.27-2.08-9.28a14.58,14.58,0,0,0-15.6-9.6c-4.28.52-6.72,3.24-8.6,6.51-5.35-6.46-14.6-10.87-21.32-5.4-4.24,3.44-5.83,9.65-6.54,14.81a41,41,0,0,0-.53,6.25c0,.32,0,2.71.58,2.23-1.17,1.33-5.48,1.76-7,2.13-5.76,1.42-11.16,2.76-17.09,1.54a101.22,101.22,0,0,0-23.62-2.27c-7.85.18-15.81-1.22-23.45,1.16-6.23,1.94-11.4,5.69-16.43,9.72-1.68,1.34-3,2.75-5.26,2.58-2-.15-4.19-1.34-6-2.06a67.76,67.76,0,0,0-12.49-3.66c-6.92-1.38-14.48-2.08-21.52-.65C94.15,27,87.75,19.11,78,21.6c-5.65,1.44-9.24,5.67-12.84,9.91a11.45,11.45,0,0,1-5.73,4,19.51,19.51,0,0,1-4.35,1.14,1.46,1.46,0,0,0-.61.13,1.76,1.76,0,0,0,.06-.59C54.17,25.56,54.33,14,46.18,5.91A19.59,19.59,0,0,0,29.42.21C22.36,1.27,17.17,5.47,11.68,9.68a5.56,5.56,0,0,0-1.63,1.93,21.41,21.41,0,0,0-4.63,3.84c-4,4.46-6.45,10.9-5,16.94a10.27,10.27,0,0,0,4.26,6.39c1.27.77,2.68.57,3.93,1.13,2.43,1.09,1.58,3.42,1.54,5.74C10,55.9,12.85,65.74,13.72,75.88c.35,4.05.49,8.33-.79,12.23C11.74,91.73,9.66,95,8.45,98.61c-2.22,6.58-.82,13.74,5.92,16.92,6.28,3,13.31-.13,18.68-3.6a110.25,110.25,0,0,0,18-14.55c1.2-1.2,2.47-2.88,3.94-3.76,2.22-1.32,3.48-.11,5.73.67a32,32,0,0,0,13.39,1.92c8-.82,14.36-6.16,20.74-10.69,3,4.08,5.43,8.12,10,11.15,4.8,3.16,10.57,5.8,16.45,5.1,6.17-.73,11.26-4.89,16.08-8.47,3.11-2.3,6.5-4.07,9.77-6.13,2.4-1.5,5.43-4.84,8.4-4.89,8.49-.14,8.76,22.33,9.47,27.25.9,6.15.4,13.74,3.19,19.44,2.31,4.71,7.23,7.2,12.3,7.78,8,.91,14.32-3.49,17.68-9.83a9.77,9.77,0,0,0,3.52,1.45c6.22,1.3,11.38-3.06,14.42-8.05a69.52,69.52,0,0,0,8.05-20.84c1.46-6.78-.15-13.77.54-20.6,3.05,1.05,6.13,2,9.25,2.87,4.86,1.29,9.89,1.67,14.73,2.93,4.16,1.08,7.57,3.83,11.54,5.4a35.87,35.87,0,0,0,9.75,2.28c5.65.54,11.93-1.18,14.12-7,1.52-4,1-8.7,1.26-12.92.27-4.4,1.56-8.74,2.51-13,1.5-6.83,10.1-7.08,14.36-11.94C306.32,42.93,307.1,34.89,305,29.29Zm-20.61-7.13a1.55,1.55,0,0,0-.66.14C283.93,21.64,284.15,21.79,284.34,22.16Z"/><path class="cls-2" d="M213.19,42A36.06,36.06,0,0,0,198.89,38a54.91,54.91,0,0,0-10.87.44,3.26,3.26,0,0,0-1.3.45,1.22,1.22,0,0,0-.51,1.6,1.24,1.24,0,0,0,1.42.8c.29,0,.57-.14.86-.16a56.37,56.37,0,0,1,11.47,0c1.11.14,2.21.34,3.17.49a6.58,6.58,0,0,0,0,1.57,82.14,82.14,0,0,1,1.28,11.61.85.85,0,0,1-.53.92c-1,.55-2.06,1.14-3.09,1.72l-14.12,7.88c0-.16-.05-.47-.07-.78-.08-1.52-.13-3-.24-4.56a.83.83,0,0,1,.54-1,51.52,51.52,0,0,0,4.84-2.65,12.88,12.88,0,0,0,2.95-2.71,3.69,3.69,0,0,0,0-4.7,8.4,8.4,0,0,0-1.23-1.36,20.65,20.65,0,0,0-6.47-4A2.33,2.33,0,0,1,185.2,41a28.65,28.65,0,0,0-.28-3.45,1.29,1.29,0,0,0-1.38-1.16,1.31,1.31,0,0,0-1.25,1.23,11.63,11.63,0,0,0,0,1.32c0,.94.09,1.89.13,2.88-1.54-.4-3-.76-4.38-1.14-.73-.2-1.47-.37-2.18-.63a1.38,1.38,0,0,0-1.77.4,1.32,1.32,0,0,0,.31,1.84,4.87,4.87,0,0,0,1.51.71c2,.62,4,1.2,6,1.77a.86.86,0,0,1,.72.92c.15,3.68.32,7.35.52,11a1,1,0,0,1-.69,1.1c-3.15,1.46-6.28,3-9.44,4.45a3.84,3.84,0,0,1-.14-.5c-.65-3.77-1.29-7.54-2-11.3-.39-2.2-.47-4.5-1.85-6.48,1.31-.43,1.67-1.37.86-2.39a14.56,14.56,0,0,0-2.2-2.24,5.3,5.3,0,0,0-4.64-1.07,11.52,11.52,0,0,0-5.44,2.95A26.15,26.15,0,0,0,149,58.69a12,12,0,0,0,.88,5.76c1.24,2.89,3.93,3.7,6.48,1.84a14.33,14.33,0,0,0,2.73-2.66,50.43,50.43,0,0,0,6.49-11.49c.59-1.34,1.12-2.69,1.76-4.22.09.36.15.52.18.68.83,4.77,1.57,9.57,2.52,14.32a90.74,90.74,0,0,0,3.89,13.71c.41,1.1,1.12,1.53,1.93,1.24s1-1,.74-2.11c0-.05,0-.1,0-.14-.78-2.76-1.57-5.52-2.34-8.28-.26-.93-.47-1.87-.67-2.68a13.09,13.09,0,0,0,1.92-.42c1.24-.46,2.45-1,3.66-1.53,1.36-.6,2.71-1.24,4.18-1.91.05,1.18.1,2.25.16,3.33.28,5.11.54,10.23.83,15.35s.57,10.48.94,15.71a141.63,141.63,0,0,1,0,17c-.1,2.1-.16,4.21-.24,6.32v.07c0,.91.49,1.49,1.25,1.55a1.34,1.34,0,0,0,1.44-1.36c.31-4.28.63-8.56.82-12.84.3-7-.54-13.86-.89-20.79-.25-5.07-.54-10.14-.81-15.21-.05-.89-.09-1.79-.14-2.81a1.79,1.79,0,0,0,2.33.16l14.55-7.9,1-.54c0,.35,0,.59,0,.82.12,2.31.22,4.61.35,6.91.27,4.7.52,9.4.84,14.1.21,3.1.51,6.2.82,9.3.27,2.66.71,5.3.9,8,.28,4.16.42,8.32.62,12.49a4.93,4.93,0,0,0,.11.94,1.22,1.22,0,0,0,1.27,1,1.27,1.27,0,0,0,1.29-1,4.83,4.83,0,0,0,.15-.86,76.8,76.8,0,0,0-.5-13.73C210,91.83,209.34,86.92,209,82c-.57-8.1-.94-16.21-1.41-24.31a1,1,0,0,1,.53-1c1.38-.93,2.77-1.86,4.09-2.88a14.44,14.44,0,0,0,4.26-4.61,4.4,4.4,0,0,0-1-5.61A11.55,11.55,0,0,0,213.19,42Zm-45.37,1.51a3,3,0,0,0-2.64,2.06c-.93,2-1.76,4-2.66,6.06a48.62,48.62,0,0,1-5.72,10.07,12,12,0,0,1-1.89,2c-1.2,1-1.83.79-2.37-.69a9.93,9.93,0,0,1-.43-4.8,22.83,22.83,0,0,1,8.79-15.57,11,11,0,0,1,2.18-1.19,3,3,0,0,1,3.3.48c.54.45,1.06.92,1.6,1.38Zm18.33,12.58c-.17-3.31-.34-6.45-.51-9.76a20.86,20.86,0,0,1,6.22,4.11c.72.73.71,1.23,0,2a8.6,8.6,0,0,1-1.74,1.45C188.87,54.6,187.54,55.28,186.15,56.05Zm27-7.4a25.09,25.09,0,0,1-5.78,4.87c-.53-3.77-1-7.46-1.57-11.22a24.13,24.13,0,0,1,6.83,2.89C214.27,46.27,214.4,47.15,213.2,48.65Z"/><path class="cls-2" d="M43.59,48.76c-3.19-1.36-6.56-1.3-9.93-1.09l-4.72.27a1.52,1.52,0,0,1,0-.39c.19-.48.38-1,.6-1.42a133.9,133.9,0,0,0,6.7-15.75c1.28-4,2.27-8,1.77-12.27-.34-2.92-1.43-5.42-4.21-6.83a9.64,9.64,0,0,0-6.33-.55c-1.24.25-2.46.61-3.73.93,0-.13-.07-.25-.1-.36a1.25,1.25,0,0,0-1.2-1.1,1.32,1.32,0,0,0-1.39,1,3.37,3.37,0,0,0-.27,1.07c0,.46-.27.65-.66.85-1.91.94-3.85,1.85-5.69,2.92a25.78,25.78,0,0,0-3.59,2.68A3.21,3.21,0,0,0,10,20.24a1.29,1.29,0,0,0,.89,1.51,1.36,1.36,0,0,0,1.62-.68,3.21,3.21,0,0,1,.77-.87,35.44,35.44,0,0,1,3-2c1.31-.73,2.69-1.36,4.14-2.08,0,.36,0,.52,0,.69,0,2.38-.18,4.76-.12,7.14.15,6,.37,12.06.6,18.08.19,4.81.43,9.61.65,14.41.28,5.9.54,11.8.84,17.71.16,2.93.38,5.87.6,8.8.07,1,.68,1.56,1.46,1.52s1.28-.66,1.32-1.66q0-.33,0-.66c-.09-2-.17-4.07-.26-6.1-.34-7.28-.7-14.55-1-21.83-.39-8.94-.78-17.88-1.09-26.83-.14-3.87-.08-7.75-.09-11.62,0-.29.17-.75.37-.82a20.26,20.26,0,0,1,6.12-1.5A4.41,4.41,0,0,1,34.75,17a9.91,9.91,0,0,1,.34,2.17A26.79,26.79,0,0,1,33,30.53c-1.79,4.56-3.86,9-5.78,13.51a24,24,0,0,0-1.39,3.7A2.34,2.34,0,0,0,28,50.83a36.74,36.74,0,0,0,4.69-.07A30,30,0,0,1,40.6,51a11.63,11.63,0,0,1,9.11,11.58A18,18,0,0,1,47,71.09c-2.7,4.72-6.43,8.58-10.39,12.23A168.17,168.17,0,0,1,19.54,96.7c-1,.74-2.07,1.5-3.06,2.3a1.34,1.34,0,0,0-.33,1.84,1.36,1.36,0,0,0,1.83.39,8.76,8.76,0,0,0,1.15-.66A149.67,149.67,0,0,0,41.32,83a44.47,44.47,0,0,0,9.35-12.39c1.52-3.18,2.51-6.52,2-10.09A14.36,14.36,0,0,0,43.59,48.76Z"/><path class="cls-2" d="M109.49,52.71a18,18,0,0,0-3-7A6.89,6.89,0,0,0,102.7,43a6,6,0,0,0-5.63,1.61,28.78,28.78,0,0,0-4.9,5.66,93.42,93.42,0,0,0-7.24,13.2c-.11.23-.24.45-.44.85-.12-1.76-.22-3.3-.31-4.84-.4-6.21-.75-12.42-1.22-18.63a45.34,45.34,0,0,0-.9-5.66,1.34,1.34,0,0,0-1.71-1.1c-.72.2-1,.86-.91,1.77q.47,3.65.85,7.29c.1.93.1,1.88.15,2.9-1-.81-1.71-1.61-1.43-2.91a2.88,2.88,0,0,0,0-.88A1.34,1.34,0,0,0,77.8,41a1.37,1.37,0,0,0-1.43,1c-.09.3-.14.61-.22,1-.67-.11-1.24-.25-1.83-.29a12.73,12.73,0,0,0-9.86,3.61C60.88,49.71,59,54,57.93,58.72a19.32,19.32,0,0,0,.42,11.09,9.78,9.78,0,0,0,3.37,4.89,8,8,0,0,0,9.13-.22c3.15-2.1,4.83-5.19,5.79-8.75,1.11-4.15,1.24-8.43,1.63-12.67.14-1.53.28-3.06.4-4.46l1.9-.17s0,0,0,.12c.25,4.92.49,9.85.77,14.77.1,1.83.26,3.66.44,5.49a2,2,0,0,0,1.44,1.93,2,2,0,0,0,2.1-1.17c.44-.76.8-1.57,1.2-2.35,2-4,4-8.13,6.19-12.11A28.84,28.84,0,0,1,99,47c1.92-1.7,3.62-1.53,5.07.59a12.26,12.26,0,0,1,1.75,3.46c.92,3.19,1.8,6.41,2.43,9.68.86,4.54,1.45,9.14,2.21,13.7.26,1.62.6,3.22,1,4.81a1.29,1.29,0,0,0,1.64,1,1.4,1.4,0,0,0,1-1.67c-.53-3.86-1-7.74-1.64-11.57C111.56,62.23,110.56,57.46,109.49,52.71ZM75.75,47c-.53,5.36-1,10.73-1.65,16.08a13.45,13.45,0,0,1-2.88,7.06,7,7,0,0,1-4.81,2.83,4.2,4.2,0,0,1-4.22-2.12c-1.38-2.2-1.79-4.63-1.79-8.11a21.61,21.61,0,0,1,6.06-14,9.7,9.7,0,0,1,8.23-3C75.79,45.82,75.85,45.88,75.75,47Z"/><path class="cls-2" d="M251.49,34.18c3-.89,6-1.82,9-2.76q1.49-.47,2.91-1.05a1.32,1.32,0,0,0,.82-1.68,1.37,1.37,0,0,0-1.64-.89,6.93,6.93,0,0,0-.79.17L254,30.26c-1.05.31-2.09.64-3.18,1a5.34,5.34,0,0,1-.05-.56q0-10.84,0-21.7a2.35,2.35,0,0,0-.24-1.12,1.15,1.15,0,0,0-1.41-.52,1.38,1.38,0,0,0-1,1.37C248,9.84,248,11,248,12.1q-.09,9.67-.15,19.35c0,.49-.13.72-.63.87-1.74.53-3.46,1.11-5.17,1.71a7.56,7.56,0,0,0-1.65.78,1.32,1.32,0,0,0-.43,1.82,1.38,1.38,0,0,0,1.75.5c1-.38,2-.75,3-1.08s2-.58,2.89-.83c.53,7.77,1.06,15.44,1.59,23.18-1.86.3-3.83.66-5.82.92-2.38.31-4.76.61-7.15.78a3.85,3.85,0,0,1-3.73-2c-1.29-2.22-2.45-4.51-3.66-6.78a1.89,1.89,0,0,1-.12-.44c.67-.22,1.34-.39,2-.65,3.44-1.46,5.94-3.79,6.74-7.58A4,4,0,0,0,234.84,38a6.74,6.74,0,0,0-3.69-.31,7.56,7.56,0,0,0-6.29,6.44,38.42,38.42,0,0,0-.29,4.41c-.85,0-1.83,0-2.8-.15s-1.68.25-1.83,1,.32,1.39,1.31,1.64a2.84,2.84,0,0,0,.57.1c1,.06,2.06.14,3.09.14.51,0,.69.19.9.63,1.19,2.41,2.35,4.84,3.67,7.19,1.9,3.4,5,4.5,8.69,4s7.12-1.12,10.68-1.69l1-.17c.16.55.27,1,.45,1.49a1.32,1.32,0,0,0,2.57-.45,7.78,7.78,0,0,0-.06-1.18c-.21-1.85-.52-3.69-.65-5.55-.46-6.82-.86-13.65-1.3-20.47A.76.76,0,0,1,251.49,34.18Zm-22.23,7.66a4.43,4.43,0,0,1,4.41-1.07,1,1,0,0,1,.77,1.17,5.39,5.39,0,0,1-.42,1.55,9,9,0,0,1-6.19,4.59A7,7,0,0,1,229.26,41.84Z"/><path class="cls-2" d="M298.11,29.5a1.39,1.39,0,0,0-1.82-.66,18,18,0,0,0-1.7.72L283.25,35c-1.45.7-2.92,1.37-4.44,2.08,0-.19-.05-.31-.06-.42-.34-6-.64-12-1-18.06-.16-2.44-.52-4.88-.86-7.3a1.4,1.4,0,0,0-1.66-1.37c-.77.14-1.12.79-1,1.83.2,2,.45,3.9.55,5.86.38,6.83.7,13.66,1,20.49a.85.85,0,0,1-.47.88c-1.19.74-2.37,1.49-3.51,2.29a2.27,2.27,0,0,0-.79,1,1.14,1.14,0,0,0,.49,1.41,1.41,1.41,0,0,0,1.71-.1c.84-.56,1.7-1.11,2.69-1.75.12,3.2.21,6.16.34,9.13.24,5.78.47,11.56.76,17.34a26.07,26.07,0,0,0,.57,3.7A1.26,1.26,0,0,0,279,73.1a1.35,1.35,0,0,0,1.2-1.36,3.85,3.85,0,0,0,0-.59c-.18-2.5-.43-5-.53-7.49-.28-7.47-.5-14.95-.78-22.42a1.21,1.21,0,0,1,.84-1.32q7.57-3.57,15.14-7.2c.9-.44,1.79-.92,2.64-1.44A1.35,1.35,0,0,0,298.11,29.5Z"/><path class="cls-2" d="M267.61,61.08c-.4-3.5-.82-7-1.24-10.5a29.1,29.1,0,0,0-.44-3,1.28,1.28,0,0,0-1.51-1,1.34,1.34,0,0,0-1.09,1.45c.08,1.15.19,2.29.3,3.44q.48,4.89,1,9.79c.14,1.43.28,2.87.45,4.31A1.41,1.41,0,0,0,266.47,67c.75,0,1.26-.54,1.34-1.47.05-.66,0-1.32,0-1.89C267.75,62.74,267.71,61.91,267.61,61.08Z"/><path class="cls-2" d="M267.87,30.71a1.47,1.47,0,0,0-1.47,1.51,1.45,1.45,0,0,0,1.49,1.41,1.43,1.43,0,0,0,1.43-1.46A1.47,1.47,0,0,0,267.87,30.71Z"/></g></g></g></svg>