<svg xmlns="http://www.w3.org/2000/svg" viewBox="0 0 328.51 170.75"><defs><style>.cls-1{fill:#fff;opacity:0.2;}</style></defs><g id="Calque_2" data-name="Calque 2"><g id="Contours"><path class="cls-1" d="M327.2,84.11c-1.05-2.35-3.55-4.55-3.67-7.17-.14-3.27,2.29-6.89,2.91-10.1,2.23-11.5-3.43-27.45-16-29.95-10.63-2.12-18.75,6.07-24.66,13.76-3.31,4.31-6.24,8.89-9.47,13.26-2.44,3.3-4.85,7.14-9.4,6.52-6.24-.85-12.33-5-17.62-8.14-4.92-2.95-5.41-9-6.62-14.19-1.53-6.49-3.52-12.89-8.41-17.66A22.83,22.83,0,0,0,214.41,24a35.92,35.92,0,0,0-12.15,4.58c-.73-7.88-2.81-15.92-9.6-20.25-12.52-8-28.39,1-36.3,11.29-4.08,5.29-5.5,12.81-13,13.82-7.76,1.05-16-1.43-23.3-3.74-7.79-2.47-15.47-4.85-23.47-6.6-8.64-1.89-17.31-3.7-25.24-7.75a5.46,5.46,0,0,0-4-.49C62.84,6.7,55.65.3,45.68,0,33.46-.34,22,7,14.15,15.73-.9,32.48-3.9,59.63,4.94,80c4.47,10.31,12.49,18.66,23.12,22.6,7.09,2.64,13.48,1.35,20.33-1.16,2.71-1,6.45-2.62,9.38-1.77,2.68.78,4.92,3.76,7.54,5,7.65,3.57,13.81-.18,21.22-2.06,1.14-.28,5.16-.33,4.39-1.14a26,26,0,0,1,2.09,3,29.23,29.23,0,0,0,3.85,4.09c5.39,4.64,11.58,4.54,18.29,4.93,2.82.16,4.66,1.69,7.2,2.9a37.43,37.43,0,0,0,12.32,3.1c4.26.49,8.13,1,12,3s7.5,4.92,11.81,6.23c3.19,1,6.39.66,9.65.93,4.45.37,8.75,2.28,12.63,4.41,7.21,4,13.54,9,21.7,10.94,7.7,1.88,15.71,1.35,23.41,3.38,13.3,3.51,24.13,11.21,36.38,17,9.42,4.46,21.24,8.33,30.92,2.26,5.1-3.19,8.21-8.47,10-14.07,2.82-8.74-.4-16.84.41-25.6.69-7.56,6.28-8.84,12-12s8.85-7.79,10.78-13.91C328.13,96.4,329.72,89.7,327.2,84.11Z"/></g></g></svg>