<svg xmlns="http://www.w3.org/2000/svg" viewBox="0 0 318.52 119.23"><defs><style>.cls-1{fill:#fff;opacity:0.2;}</style></defs><g id="Calque_2" data-name="Calque 2"><g id="Contours"><path class="cls-1" d="M313.34,44.85c1.85-9.75,1.46-19.78-7.75-26.09-4.56-3.12-9.73-3.3-15-3.58-2-.11-4-.11-5.6-1.52-1.73-1.57-2.73-4.33-4.08-6.22a17.45,17.45,0,0,0-25.23-3.59C248.69,9.28,249.08,18,248.07,26c-3.81-1.42-6.7-2.11-10.39,2.39-6.13,7.5-13,6-20.48,1.25-5.45-3.47-10.9-7.74-17.45-8.79-5.68-.91-10.21,1.23-13.85,4.9-6.8-3-14.44-1.37-21.17,2.06-1.24.63-5.87,2.58-7.84,4.15-.41-1.33-1-3-1-3.19C153.44,18.45,150.2-1.2,135.1,2.3,122.86,5.14,119.74,21.75,117.47,32c-1.11,5.05-1.11,13.42-7.22,14.82-8.88,2-14.41-7.38-22.87-8.72-4.37-.7-8.29.55-12.16,2.48C73,41.73,70,42.87,68.06,44.39a11.41,11.41,0,0,1-1,.45,28.27,28.27,0,0,0-9.2-1.7,7,7,0,0,0-5.54,2.53,13.57,13.57,0,0,0-4-2.58c-2.93-1.11-4.71.22-7.49.7-3.06.54-5.49-1.72-8.48-2.09a14.51,14.51,0,0,0-8.61,1.91c-5.23,2.9-7.7,8.28-9.42,13.75-.53,1.71-1,3.38-1.55,5a4,4,0,0,0-2.06,2.12C6.25,75.13-4.77,87.21,2.31,99.34c3.77,6.45,12,9.5,19.09,7.64,7.83-2,12.46-8.25,18.13-13.4C44.88,88.71,50.9,90,57.3,91.72c7.17,1.9,14.31,3.73,21.79,2.89s12.66-3.66,18.42-8l.32-.21c.71.88,1.63,1.94,1.71,2,2,2.63,3.83,5.06,6.86,6.49,13.72,6.44,23.45-6.54,31-16.48,6,3.86,12.26,1.24,18.72-1.89,5.26,6.46,17.08,7.05,26.61,4.74-3.06,15.76-4.81,39.12,13.73,37.87,9.27-.62,13.78-10.63,16.46-18.22A94.7,94.7,0,0,0,217,85.81c.46-2.72.64-5.45,1.12-8.14,7.89,2.91,16.26,1.21,21.36-5.34,3.26,3,6.11,6.18,11.18,5.54a30.61,30.61,0,0,0,11.19-3.39,14.65,14.65,0,0,0,11.79,4.25,40.36,40.36,0,0,0,13.05-3.37C303.35,94.47,329.77,56.54,313.34,44.85Z"/></g></g></svg>