<svg xmlns="http://www.w3.org/2000/svg" viewBox="0 0 317.6 205.88"><defs><style>.cls-1{fill:#fff;opacity:0.2;}</style></defs><g id="Calque_2" data-name="Calque 2"><g id="Contours"><path class="cls-1" d="M317,50.7c-1.29-4.47-4.86-5.1-7.58-8.22-3.19-3.65-3.43-10.33-4.54-14.85C303,20,300.41,11.62,294.55,6c-6.27-6-15.5-7.31-23.62-4.69-8.78,2.82-15.56,9.63-24.25,12.54-6.13,2.05-12.88,2.29-19.25,3.11a96.79,96.79,0,0,0-17.88,4c-10.89,3.53-22.17.71-32.63,5.3-3.31-3.74-5.89-8.12-10.32-10.76A20.81,20.81,0,0,0,149,13.69a23.72,23.72,0,0,0-13.25,12.23,15.77,15.77,0,0,0-1,9.77c.28,1.17.8,2.28,1.18,3.42-4.75.47-10.19-.39-14.59.16-6.59.83-11.11,3-15.45,7.87-3.95,4.42-11.1,2.36-16.38,4.24-2.92,1-4.9,2.82-7.25,4.74-2.63,2.15-5.15,2.58-8.45,3.14a23.25,23.25,0,0,1-4.53.66h-.34c-.88-1.46-.9-4-1.38-5.62a26,26,0,0,0-9.42-13.25c-8.67-6.51-20-7.41-30.47-7.79a4.48,4.48,0,0,0-4.75,3.48,30.24,30.24,0,0,0-9,2.78C6,43.41-1.24,52.28.18,61.55c.45,2.94,1.56,6.37,4.49,7.69a11.57,11.57,0,0,0,3.54.63c3.59.46,4.43,1.78,4.91,5.22,1.57,11.4,4.2,23,4.48,34.47.14,5.77-1.33,10.32-3.76,15.48-2,4.27-4.07,8.65-3.77,13.49.62,10.38,11.14,14.73,20.4,14.29,10.56-.51,21.6-6.85,29.14-14,2.91-2.77,5.33-6.31,8.71-8.54,2.11-1.39,2-.81,4.1.08a20.49,20.49,0,0,0,7.87,1.39A36.08,36.08,0,0,0,95.9,129a39.77,39.77,0,0,0,5.54-3c.79-.5,2.93-2.26,3.87-2.18a5.12,5.12,0,0,0,1,1c3.45,2.33,5.79,1.63,9.65.36,5.57-1.83,10.38-3.53,15.21-6.9,3-2.07,7.19-2.41,10.77-2.79H142c-.71,1.68-1.66,3.25-2.34,4.94-4.53,11.19-3.87,23.44-5.22,35.2-2,17.48-5.76,51.5,21.34,50.13,20.89-1.06,32.5-22.43,35.49-40.72,2-12.41,3-25.7,1.69-38.23-.22-2.19-2.63-11.55,1.2-11,2,.3,4.38,3,6.54,3.61a24.13,24.13,0,0,0,8.83.68,46.83,46.83,0,0,0,14.09-3.07,13.14,13.14,0,0,0,5.4-3.7c1.66-2.1,1.35-4,2.16-6.4,2.08-6.07,9.32-3.83,14.16-4.13a10,10,0,0,0,7.27-3.76,16.78,16.78,0,0,0,18.66-2.74c2.69-2.6,3.72-6.13,6-9,2.67-3.37,7.69-2.74,11.58-2.86,8.89-.25,18-3.33,22.94-11.22C315.52,67.41,319,57.69,317,50.7Z"/></g></g></svg>