<svg xmlns="http://www.w3.org/2000/svg" viewBox="0 0 322.18 161.16"><defs><style>.cls-1{fill:#fff;opacity:0.2;}</style></defs><g id="Calque_2" data-name="Calque 2"><g id="Contours"><path class="cls-1" d="M319.23,45.46a33.3,33.3,0,0,0-13.37-15.57,32.29,32.29,0,0,0-10.5-4.23c-4.18-.83-8.72.16-12.79-.88-3.59-.9-5.42-4.35-7.24-7.29-2.11-3.41-4.26-6.87-7.32-9.52C263,3.64,255.85.9,249.34.14c-7.59-.88-14.62,2.29-17.18,9.86-2.12,6.27-1.06,13.06.27,19.59a17.79,17.79,0,0,0-14.21,7.69c-3.5,5-4.54,10.91-4.92,16.85-3.27-2.63-6.24-5.58-10.61-6.84a30.76,30.76,0,0,0-20.05,1.37c-9.35,3.94-14.82,12.4-17.45,21.74A42.5,42.5,0,0,0,133.32,63a27.7,27.7,0,0,0-8.89,2.8A53.84,53.84,0,0,0,119.91,69a17.77,17.77,0,0,1-2.1,1.34c.63.56.56.61-.21.18-1-.06-2.22-.75-3.28-.9a38.5,38.5,0,0,0-6.17-.2,53.64,53.64,0,0,0-8.6,1C95.11,63.69,90.61,58.75,81.23,60c-5.54.72-11.84,3-15.18,7.74a27.5,27.5,0,0,0-2.73,5.9c-.7,1.8-.78,4.07-2.69,3.38-2.8-1-4.51-7.89-5.62-10.41a104.27,104.27,0,0,0-6.33-12.36C43.61,45.9,36.9,38.56,26.49,38.52a4.06,4.06,0,0,0-1.23.2A22.65,22.65,0,0,0,14.4,37.05C.53,38.58-1.23,55.54.6,66.39,3.08,81,11,93.69,16.32,107.3a258,258,0,0,0,12.79,28.32c3.5,6.47,5,14.47,10.23,19.88,11.54,11.81,29.24,3.2,37.86-8.2a15.94,15.94,0,0,0,6.68,3.45c3.74.79,7.65-.15,11.12-1.57a37.75,37.75,0,0,0,15.23-11.84c7.16,2.18,14.82,1.41,20.08-3.76a10.88,10.88,0,0,0,10.1,2.8,19.74,19.74,0,0,0,10.49-6.93c6.34,2.59,13.07-.56,18.37-5,3-2.53,5.57-5.54,8.39-8.29s4.5-2.59,8.37-1.83a77.58,77.58,0,0,0,33.22-.79c7.41-1.87,13-6.67,18.77-11.32,7.91,4.26,23.07,1.58,25.94-7,7.55,2.49,16.24-1.53,20.63-8.18,6.67,5.77,22.13,1,27.85-3.38C323.54,75.25,324.17,57.44,319.23,45.46Z"/></g></g></svg>