<svg xmlns="http://www.w3.org/2000/svg" viewBox="0 0 316.33 173.72"><defs><style>.cls-1{fill:#fff;opacity:0.2;}</style></defs><g id="Calque_2" data-name="Calque 2"><g id="Contours"><path class="cls-1" d="M316,40.05c-1.26-8.6-4.8-19.16-11.56-25S290.8,9.82,284.78,13.8A26.16,26.16,0,0,0,272.87,1.64c-7.55-3.55-15.79-1-21.71,4.36-5.59,5.05-8.59,12.39-14.18,17.38-8.3,7.43-19.86,4.56-30,5.17a108.57,108.57,0,0,0-14.46,2c-5.95,1.2-10.26,4.06-15.65,6.55-1.6.75-3.06,1.46-4.69.86-2-.75-3.63-2.56-5.84-3.26-5.19-1.66-10.46-.63-15.59.7s-10.61,3.34-16,3.22c-6.36-.15-12.76-2.76-19.14-3.48a78.58,78.58,0,0,0-15.41-.2c-2,.17-4,.62-5.91.71a2.65,2.65,0,0,0-.17-.22c-.87-1-2.75-1.66-3.79-2.48-4.2-3.31-7.49-7.54-12.08-10.39a58.52,58.52,0,0,0-13.64-6c-6.38-1.95-14.13-3.41-20.92-1.76a15.33,15.33,0,0,0-5.66.59C29.68,17.88,23.72,25.68,19.79,33a83.51,83.51,0,0,0-9,29.16c-1,8.36-1,18,3.43,25.52,4.18,7,10.89,8.9,17.82,7.87-1,4.47-4,9-6.22,12.31-4.68,7.07-10.14,13.58-15.29,20.31-8,10.45-16,27.59-5.56,39.3,11.79,13.21,34.44,2.66,45.05-6.78A61.11,61.11,0,0,0,65.55,138c2.42-5.93,3-12.31,4.1-18.56.63-3.47,1.35-6.92,2.23-10.33A21.38,21.38,0,0,1,73.16,105c1-2,.72-1.83,2-1.42,1.65.53,3.18,2.11,4.76,2.87a18.22,18.22,0,0,0,6.15,1.6c5.53.55,11.43-.34,17-.6,11.13-.53,22.65-1.65,33-6.16,4.26-1.86,7.48-4.8,11-7.74,1.69-1.41,3.66-3.27,5.81-3.88,2.36-.68,3.78.49,5.9,1.26,10,3.62,19.91,1,29.63-2.14,2.81-.9,5.63-1.89,8.51-2.52s5.09-.18,8,0c5.3.24,7.53-3.52,12.13-4.91,5.21-1.57,12.26.08,17.52.72,5.86.71,11.48,0,17.3-.82s11.64-1.66,17.5-1.9c5.35-.21,10.62.45,15.94-.26C304.73,76.48,318.84,59.87,316,40.05Z"/></g></g></svg>