<svg xmlns="http://www.w3.org/2000/svg" viewBox="0 0 306.12 138.36"><defs><style>.cls-1{opacity:0.2;}.cls-2{fill:#fe5f58;}</style></defs><g id="Calque_2" data-name="Calque 2"><g id="Phrase_1" data-name="Phrase 1"><g id="P1_m6_1"><g class="cls-1"><path class="cls-2" d="M175.36,93.27a.72.72,0,0,0,.25.55c0-.18,0-.35,0-.52Z"/><path class="cls-2" d="M305.11,89c-1.14-3.34-3.26-6.66-6.67-8l-.44-.16c.06-.25.13-.49.21-.73a43.46,43.46,0,0,0,2-5.55c2.22-6.18,3.42-14.8-2.54-19.3a12.34,12.34,0,0,0-11.5-1.84c-2.79,1-4.75,3.15-6.87,5.09-3.29-2.14-7.35-2.93-11.32-3.32a16.78,16.78,0,0,0-7.39.54,18.65,18.65,0,0,0-3,1.45c-.17-6.3-.83-12.95-5.49-17.31-8-7.49-19.86-2-26.66,4.36a22.21,22.21,0,0,0-2.51,2.8c-.09.12-.17.22-.26.32l-.08-.15a17.21,17.21,0,0,0-1.48-2.29A14.67,14.67,0,0,0,207.7,39.2c-8.27,1-14.06,6.91-19.86,12.44a23.68,23.68,0,0,0-.78-5,94.85,94.85,0,0,0-3.11-9c-1.63-4-4.3-8.24-8.81-9.28-4.35-1-8.49,1.32-12.11,3.41-.9.52-3.46,2.59-4.52,2.44s-4-4.37-5.07-5.24c-5.11-4.05-10.71-3.41-16.7-2.27-3.7.7-7.57,1.29-11.32.62s-6-2.74-8.89-5c-8.35-6.62-17.91-3.1-25.15,3,.26-5.79.65-11.59-2.13-16.91C85,.3,76.61-1.36,68.87,2.73a26.09,26.09,0,0,0-4.6,3.13,18.81,18.81,0,0,0-1.78,1.49c-.15-.38-.37-.82-.48-1.08C60.79,3.1,58.92.82,55.42.16,51.19-.64,47.84,1.6,45,4.54l-.12-.18A7.91,7.91,0,0,0,38.34,1c-5.93,0-9.64,5.78-12.09,10.41-5.14,9.72-9.19,20.43-15,29.91a3.65,3.65,0,0,0-3.58,2.21C5.54,47.76,1,49.81.13,54.93c-.72,4.44,1.63,9.61,4.11,13.17C7,72,11.36,74.53,16.16,73.17A14.21,14.21,0,0,0,22,69.59a7,7,0,0,0,5.33,2.5c5.23.33,10.36-1.85,14.75-4.77,1.48,2,2.81,4.15,5,5.73a30.23,30.23,0,0,0,13,5.39,39.36,39.36,0,0,0,14-.52,21.44,21.44,0,0,0,6.33-2.71c2.28,4.47,5.82,7.89,11.65,7.33a15,15,0,0,0,6.08-2c.31-.18,1.21-.73,2-1.31a8.8,8.8,0,0,0,.78,1.39,9.64,9.64,0,0,0,4.59,3.24A27.83,27.83,0,0,0,117,86c2.08-.14,4.1-.71,6.16-1,3.26-.45,4.59.63,7.18,2.31,3.84,2.49,8.14,3.29,12.65,3.63,5.83.45,11.61.83,17.43,1.49,4.76.54,9.45.44,14.19.74l.8.08c-.14-1.29,1-4,.43-2.24a7.05,7.05,0,0,0-.2,2.27,3.51,3.51,0,0,1,1.09.2c-.53.38-.87.45-1.07.32,0,.53.07,1.05.07,1.54,0,5.16-.59,10.32-.72,15.47-.25,9.66,1.28,24.23,12.68,27.06,7.38,1.84,15.92-1.9,20.59-7.59s6.06-13.13,8.09-20.15c8.93,1.47,17.19,7,24.85,11.4,9.77,5.59,19.82,10.19,31.38,9A32.67,32.67,0,0,0,295,118.41c3.08-3.82,5.38-9,4.52-13.57a8.82,8.82,0,0,0,5.3-4.31C306.69,97.07,306.33,92.56,305.11,89Z"/></g><path class="cls-2" d="M290.58,68a3.94,3.94,0,0,0-.58-1.18,3.89,3.89,0,0,0-1.24-.54l-.22.56c-.24,0-.54-.16-.63-.06a4.35,4.35,0,0,0-1,1.13c-.57,1.07-1,2.21-1.6,3.28-.4.72-1,1.36-1.41,2.06-.18.28-.24.66-.43,1-.27.44-.64.82-.92,1.26-.74,1.17-1.45,2.35-2.18,3.52-.41.64-.86,1.27-1.29,1.91s-1.07,1.54-1.57,2.34c-.16.26-.12.66-.3.91-.6.88-1.24,1.75-1.9,2.59s-.53,1.81-1.51,2.25c-.1,0-.14.28-.19.43a6,6,0,0,1-1.88,3.08c-.17.13-.2.49-.25.75s0,.53-.05.76l-.6.23-.25,1.45-.23,0,.28-.89c-.37.17-.64.22-.78.38-.83,1-1.64,2-2.45,3a1.28,1.28,0,0,1-.29.28c-.45.21-.65.51-.3,1-1.32,0-1.79,1.15-2.58,1.82-.05,0,.06.27.07.36-.39.26-.88.56-1.33.91a8.49,8.49,0,0,0-.69.66c-.3.29-1,.33-.6,1a17.72,17.72,0,0,0-4.1,2.72,1.52,1.52,0,0,1,.23-1.74.47.47,0,0,0,.07-.19c.31-1.35.67-2.69.93-4a26.11,26.11,0,0,1,2.31-6.37c.26-.55.65-1,.93-1.57.57-1,1.11-2.1,1.64-3.15.28-.56.54-1.13.8-1.7a4.31,4.31,0,0,0,.45-1c.11-.75.13-1.52.2-2.29a.52.52,0,0,0-.52-.64c-.4,0-.7-.19-.72-.68a.45.45,0,0,0-.3-.33,11,11,0,0,0-1.16,0l-.05.43c-.67-.76-1.1-.48-1.45.17a.31.31,0,0,1-.11.08,2.87,2.87,0,0,0-1.3,2.13c-.25,1.13-1.1,1.85-1.38,2.89a6,6,0,0,1-.3.69c-.26.6-.51,1.21-.8,1.8-.14.28-.41.51-.56.79a5.59,5.59,0,0,1-1,1.82.74.74,0,0,0-.2.63c.17.66,0,.87-.68.65.08,1.09-.41,1.74-1.25,1.88-.34,1-1.24,1.51-1.75,2.27s-1.28,1.64-1.95,2.48l-.41-.34a3.08,3.08,0,0,0,.06-2.07c-.05-.19.1-.45.16-.68a1.74,1.74,0,0,0,.13-.36,11.63,11.63,0,0,1,.91-4.15,16.11,16.11,0,0,1,1.17-3,22.49,22.49,0,0,0,1.43-2.71c.76-1.51,1.54-3,2.25-4.57.25-.53.45-1.15,0-1.61a9.53,9.53,0,0,0,.46-1.12c.14-.47.21-.94-.46-1.12s-.32-.54-.16-.82c.48-.78.45-.87-.43-1.17a3.29,3.29,0,0,1-.42-.18l.25-.75-.91.08c.34-1-1.13-.18-1-1.1l.94-.17-1.09-.58v.22l-.81.06.33-.37a9.17,9.17,0,0,1-1.15-.45,2.19,2.19,0,0,0-2.46.16,3.93,3.93,0,0,1-.87.33c-.29.26-.59.49-.84.76a4.32,4.32,0,0,0-.48.74c-.26.1-.71.3-1.17.46s-.75,0-1,.24a30.37,30.37,0,0,0-2.51,2c-.45.41-.74,1-1.2,1.41-.63.54-.74.75-.42,1.38l-.65.54c-.14-.1-.29-.22-.45-.32s-.18.13-.17.17c.1.48-.36.67-.57.85a4.3,4.3,0,0,0-1.38,2.61c0,.17,0,.43-.12.47-.53.24-.37.67-.39,1.08a3.06,3.06,0,0,1-.32.78c-.11.29-.32.83-.26.86.74.42.2,1,.16,1.41a4.27,4.27,0,0,1-.22.75c-.53-.19-.6.18-.57.61s.09.75.15,1.12c0,.13.11.26.08.37a7.28,7.28,0,0,1-.45,1.39,1.4,1.4,0,0,1-.72.72,5.65,5.65,0,0,1-1.37,0c-1,0-1.95.07-2.92.07a2.85,2.85,0,0,1-2.19-.86,1.26,1.26,0,0,1-.23-1.58,1.88,1.88,0,0,0,0-1.93,13.38,13.38,0,0,0,.15-1.49c0-.35-.24-.72-.2-1.06a9.06,9.06,0,0,1,.47-2.06c.3-.79.18-1.81,1.24-2.23a.71.71,0,0,0,.4-1.1C230,83,231,82.89,231,81.89c0,0,.07-.06.1-.09a4.93,4.93,0,0,0,1.76-2.63c0-.09.18-.17.29-.24a3.57,3.57,0,0,0,.63-.4,6.58,6.58,0,0,0,1.64-2.76.85.85,0,0,1,.2-.34,13,13,0,0,0,1.29-1.59c.81-1.41,1.54-2.87,2.28-4.32.19-.37.24-.81.43-1.18.57-1.1,1.26-2.13,1.73-3.27s.87-2.6,1.29-3.91a23.91,23.91,0,0,0,.79-2.71,22.62,22.62,0,0,0,.28-3c.06-1.2.15-2.43-1.32-2.94a4.89,4.89,0,0,1-.48-.26l.3-.21c-1.29-1-2.91-.91-3.51.11l-.56-.21c-.39.53-.79,1.05-1.17,1.59s-.54.82-.81,1.24c0,.15-.22.19-.33.31a4.94,4.94,0,0,0-.89,1.11c-.17.31-.28.75.35.84a3.5,3.5,0,0,1,.72.37l-1.4.31.19-.7a2.21,2.21,0,0,0-1.28,1.78c-.21,0-.56.07-.59.17-.19.76-1.23.88-1.3,1.75,0,.2-.35.37-.49.58a4.9,4.9,0,0,0-.44.85,4.91,4.91,0,0,1-.22.71c-.63.95-1.27,1.92-2,2.82-.35.45-.26.69.14.88-.19.26-.32.63-.53.69-.48.11-.3.49-.41.75l-.9,2.21a5.15,5.15,0,0,0-.42,1c-.07.45.13,1-.06,1.38-.29.6-.62,1.21-.94,1.77a1.29,1.29,0,0,0-.12,1.32,1.06,1.06,0,0,1-.13,1.25,1.38,1.38,0,0,0-.32,1.44,1.68,1.68,0,0,1-.23,1.65c0,.06,0,.17,0,.24-.64.13-.81.33-.61,1,.13.48.24.81-.27,1.17-.18.12-.07.65-.1,1l.61,0L220.57,88l.49.05.1.21c-1.43-.26-1.79,1.16-2.79,1.56,0,0,0,.08-.07.11-.22.33-.35.76-.85.79a.34.34,0,0,0-.23.22c-.16.74-.15.73-.91.69a2,2,0,0,0-.48.09l0,.16h1.06l-1.35.37c-1,.05-.81-.87-1.07-1.5,0-.09,0-.24.07-.36a4.74,4.74,0,0,0,.27-.86,39.66,39.66,0,0,1,.46-4.09c.54-2.35,1.27-4.66,1.89-7a2.9,2.9,0,0,0,.22-2c-.09-.23.16-.59.28-.88s.2-.34.26-.53c.4-1.18.77-2.37,1.18-3.55.12-.34.39-.63.5-1a8.92,8.92,0,0,0,.21-1.32l-.78-.17v-.19h.66c0-.43-.06-.82-.09-1.24l.65-.06-.46-.34h.2c.09-.39.4-.94.24-1.14s-.14-.47,0-.73a1.67,1.67,0,0,0-.76-2,2.58,2.58,0,0,1-.77-.53c-.33-.31-.62-.63-1.14-.4a6.37,6.37,0,0,1-.84.26c0-.17-.11-.35-.18-.53l-4.25,3.72c0-.45-.17-.79-.06-1a15.74,15.74,0,0,1,1-1.59c-.53,0-.59-.18-.38-.57a6.53,6.53,0,0,0,.43-1.06c.12-.36.2-.74.3-1.11.06-.16-.11-.42,0-.55.2-.41.18-.93.34-1.24.39-.74-.17-1.31-.13-2a3.42,3.42,0,0,1,.28-1.79c-.12-.08-.36-.22-.35-.23.21-.38-.07-.65-.25-.9a8.89,8.89,0,0,0-1-1.15c-.5-.49-1-.33-1.35.16a.23.23,0,0,1-.12.08,2.74,2.74,0,0,0-2.07,1,8.55,8.55,0,0,1-1.6,1.35l.28.69a3.63,3.63,0,0,0-.66.1,2,2,0,0,0-.77.37,14.4,14.4,0,0,0-1,1.31c-.56.62-1.32,1.07-1.95,1.69-.86.84-2,1.41-2.41,2.65,0,.09-.2.15-.31.2a4.65,4.65,0,0,0-.59.3A5.39,5.39,0,0,0,198.85,64c-.31.49-.61,1.23-1.42,1.32-.2,0-.38.3-.54.49s-.07.29-.16.37c-.77.67-1.56,1.3-2.3,2-.23.21-.57.47-.34.93.06.11-.1.34-.17.55l-.54-.37c-.57.45-1.14.85-1.64,1.31a5,5,0,0,0-.52.84c-.21.31-.54.88-.69.84-.84-.23-1,.68-1.69.75l.31.34-1,.34,0,.15h.28l-4,3.09c.57.74.54.88-.06,1.09l-.09-.4c-.42,0-.2,1-.86.5l-.26.69.73.88-.77.11.24.52-.51.28.86.4-.39.16c.3.44.56.93,1.14.29l-.25.83,1.7-.23c.36-.39,1.08-.78,1.19-1.64,0-.07.19-.2.26-.18.71.2.91-.43,1.28-.78.22-.2.46-.38.66-.6s.69-.56.75-.88c.11-.69.05-.72.71-.58a.19.19,0,0,0,.18,0c.53-.46,1-.92,1.56-1.4a.54.54,0,0,0,.11-.4c-.08-.49.29-1.34.74-1.42s.41-.39.3-.55c-.5-.64,0-.71.43-.82a5.09,5.09,0,0,1,.87-.14c.53,0,.75-.2.31-.64A14.35,14.35,0,0,1,197,71.7c.52,0,.77-.18.62-.59a10.35,10.35,0,0,0,1.4-1c1.11-1.08,2.13-2.25,3.27-3.3.85-.79,1.23-1.94,2.38-2.52s1.56-2,2.75-2.53c.05,0,.08-.11.12-.16.3-.53.41-1.24,1.22-1.3.08,0,.15-.12.37-.32a6.52,6.52,0,0,1,.12,2.11,3.63,3.63,0,0,0-.19,1.1l-.26-.39c-.29.37-.22.89.2,1.65-.88.2-1.43.8-1.29,1.38l.63-.22c-.28.43-.11,1-.67,1.12,0,0-.1.26-.07.38.27.84.27.86-.28.94a3.46,3.46,0,0,0-1.06,3l-.51,0,.29.74c-.37.11-.48.41-.63.74a15,15,0,0,0-1.06,1.91c-.19.66-.4,1.07-1,1-.28.3-.43.63-.65.68-.5.1-.55.41-.47.78.22,1.07.44,2.15.72,3.2a.73.73,0,0,1-.35.91,1.31,1.31,0,0,0-.45.54,11.55,11.55,0,0,0-.37,1.19l.38.62c-.28.22-.74.39-.84.69-.17.47-.6,1-.13,1.56a.32.32,0,0,1-.09.3c-.61.35-.63,1-.87,1.57s-.72,1.17-.17,1.87c.07.1-.1.45-.23.64s-.5.47-.62.76a9.28,9.28,0,0,0-.32,1.31c-.07.32-.15.64-.23,1-.15.47-.36,1-.5,1.45s-.19.93-.3,1.39c-.23.93-.49,1.86-.7,2.8-.09.41,0,.88-.14,1.27-.25.75-.65,1.45-.89,2.2s-.35,1.53-.53,2.35c.79.38.12.63-.33.9l.35,0a7.21,7.21,0,0,1-.36.93,3.59,3.59,0,0,0-.65,2.41,1.43,1.43,0,0,1-.24,1.07c-.29.34-.3.56,0,.85l-.56.59.5.24-1,1.19c.59.24.5.57.23.89l.43.26-1,.51.84.12a5.85,5.85,0,0,1-.85,1c-.47.33-.66.62-.31.94a4.21,4.21,0,0,0,0,.91,5.58,5.58,0,0,0,.32.86c.16.41-.19.5-.42.68a.65.65,0,0,0-.18.35c-.19.72-.35,1.45-1.37,1.52.37.55.2.84-.25,1.06-.12.06-.28.27-.26.36.21.79-.53,1.63.15,2.41.13.14,0,.5,0,.76s-.1.36,0,.47c.31.49.58,1.08,1.25.85a3.26,3.26,0,0,0,.23.61s.23,0,.34,0c.54-.22,1.07-.46,1.52-.65l1-2.23a4.83,4.83,0,0,1,0-1.08c.25-1,.55-2.07.83-3.1,0-.12.09-.23.13-.35l.23-.54c.07-.16.25-.38.2-.46a1,1,0,0,0-.48-.27,1.9,1.9,0,0,0-.51-.06c.49-.79,1.73-1.08,1.38-2.13.17-.2.34-.32.4-.49.21-.64.35-1.3.57-1.94.13-.34.4-.64.54-1a3.27,3.27,0,0,0,.14-.77c0-.29.09-.58.12-.88,0-.12,0-.26,0-.36.16-.37.36-.72.51-1.09a14.93,14.93,0,0,0,.65-1.68,5.06,5.06,0,0,0,.1-1.1c-.06-.18-.23-.54-.19-.56a1.49,1.49,0,0,0,.63-1.24,11.9,11.9,0,0,1,.53-1.48c.06-.2-.11-.49,0-.66a3.55,3.55,0,0,0,.49-2.3,1.18,1.18,0,0,1,.18-.9c1-.94.67-2.27,1-3.39a4,4,0,0,0,.35-1c0-.7.52-1.29.42-2,0-.12.15-.26.22-.4a2.06,2.06,0,0,0,.12-.35c.19-.77.42-1.53.54-2.31s1-1.06.61-1.74c.22-.55.44-1,.57-1.45.17-.61.06-1.3.56-1.8a.17.17,0,0,0,0-.17c-.36-.66.08-1.16.32-1.72s.33-1,.53-1.53a6.16,6.16,0,0,1,.94-2,5.53,5.53,0,0,0,1.21-2.79,5.74,5.74,0,0,1,1.53-2.54c.42-.43.88-.8,1.32-1.21.27-.25.53-.51.79-.77l.77-.81a1.44,1.44,0,0,0-.26-.12c.26-.18.75-.38.75-.56,0-1,.78-1.12,1.22-1.58l.44,1.51-.45-.08c.31.51.17.76-.28.91-.1,0-.19.22-.21.35,0,.46-.07.92-.1,1.42-.47,0-.56.42-.58.88s0,1.16-.12,1.19c-.57.16-.53.67-.76,1s0,.53-.14.77c-.25.72-.58,1.41-.79,2.13-.35,1.27-.65,2.55-.93,3.84a37.66,37.66,0,0,0-.76,4.06c-.12,1.24.08,2.52,0,3.77s.63,2.41,1,3.64c.08-.22.14-.4.21-.61.37.3,1,.45.45,1.06a.15.15,0,0,0,0,.11l.65,1.08.86-.1,0-.26c.44.09.84.21,1.26.26a2.24,2.24,0,0,0,.93,0c.91-.26,1.8-.58,2.75-.89l-.44-.66c.35-.18.85-.27.93-.5.17-.52.5-.41.82-.4a2.7,2.7,0,0,0,2.55-2l.75-.1c0,1.24.61,2.33.62,3.62a3.2,3.2,0,0,0,1.2,2.71l-.24.49A3.31,3.31,0,0,1,225,99a1.9,1.9,0,0,1,.44.3c.09.08.12.27.2.29a25.2,25.2,0,0,0,4,.84,4.91,4.91,0,0,0,.54,0c1.18-.06,2.36-.11,3.54-.19.31,0,.61-.21.93-.23a14.29,14.29,0,0,1,1.6,0s0,.1,0,.13a5.38,5.38,0,0,0,1.17.29,5.78,5.78,0,0,0,1.15-.2l.05.2-.42.12v.19c.79.35,1.54-.42,2.33-.25a2.61,2.61,0,0,0,2.28-.9c.64-.56,1.31-1.08,2-1.68.08.51.18.9.2,1.29,0,.2-.17.4-.17.6,0,1.38,0,2.75,0,4.13a3.2,3.2,0,0,0,.09.93c.27.86.59,1.7.88,2.54l1.06.33-.42.56c.89.1,1.65.22,2.41.24a1.37,1.37,0,0,0,1-.27,11.55,11.55,0,0,0,1-1.69c.1.33.15.53.27.94a7.65,7.65,0,0,0,1-1.45c.21-.58.66-1,1.25-.86a.39.39,0,0,1,.24.26c0,.09-.12.21-.21.28a1.28,1.28,0,0,1-.35.09V106l.81.08a3.53,3.53,0,0,1-.57.8,1.1,1.1,0,0,0-.33,1.25,11.21,11.21,0,0,1,.9,2.71c0,.12.23.24.37.32a3.51,3.51,0,0,0,2.06.45,7.18,7.18,0,0,0,3.92-.79c.8-.51,1.55-1.12,2.31-1.71.13-.1.3-.32.27-.45-.18-.78.47-.63.85-.8l1-.42-1.06-.15a6.73,6.73,0,0,0,1.72-.64,14.06,14.06,0,0,0,1.5-1.58c.29-.29.62-.55,1-.87a14.47,14.47,0,0,1,.07,1.5,9.56,9.56,0,0,1-.27,1.15c-.14.78-.27,1.57-.39,2.35,0,.09.09.19.07.27a8.38,8.38,0,0,0-.34,1.33c-.05,1.62,0,3.25-.07,4.87a8.24,8.24,0,0,0,.74,3.08c.12.35.22.7.35,1.1l2.58.6-.17.48h.19c1.2-.06,2.32-.79,3.58-.42.11,0,.28-.12.42-.19a12.12,12.12,0,0,0,1.13-.59,1.16,1.16,0,0,0,.53-.57,1.68,1.68,0,0,1,1.63-1.54,3.67,3.67,0,0,0,1.35-.53c.6-.4,1.12-.92,1.78-1.28a15.14,15.14,0,0,0,1.73-1.42c.5-.37,1.06-.66,1.58-1a1.69,1.69,0,0,1,1-1.92c-.11-.78-.76-.65-1.26-.78a1,1,0,0,1-.45-.29c.12-.35.3-.69.49-1.1a13.27,13.27,0,0,1-1.6.44c-.43.06-.84.4-1.31.16,0,0-.07,0-.1.08a5.77,5.77,0,0,1-2.1,1.51c-.32.14-.51.56-.81.79-.7.54-1.45,1-2.13,1.57s-.78,1-.26,1.81h-.27c-.63,0-1.27-.06-1.9-.07-.12,0-.34.15-.33.2.18.78-.52.56-.85.71-.52.24-.82.06-.78-.57,0-.17-.17-.35-.21-.53a2.25,2.25,0,0,1-.07-.68c.07-.55.23-1.09.28-1.64.13-1.48-.34-3,.27-4.45a3.14,3.14,0,0,0,.05-1.11c0-.22-.08-.49,0-.64a4.81,4.81,0,0,0,.54-3.63,1.4,1.4,0,0,1-.47,0,.7.7,0,0,1-.38-.28c0-.08.08-.29.19-.37s.53-.38.8-.57c-.09-.2-.18-.4-.29-.62.12-.08.22-.13.31-.2.63-.43,1.68-.55,1.3-1.76a.36.36,0,0,1,.16-.28c.78-.39.84-1.1.91-1.85a2.44,2.44,0,0,1,.4-.87c.24-.42.53-.83.78-1.26s.49-.91.73-1.37a1.87,1.87,0,0,0,.2-.49.92.92,0,0,1,1.34-.63,1.26,1.26,0,0,0,.46.16c.51.06,1.13-.53,1.52.27,0,0,.09,0,.13,0l1.91.18c.08,0,.21-.06.22,0,.57.82,1.56.84,2.35,1.21a1.08,1.08,0,0,0,.64,0s0-.31,0-.43a3.64,3.64,0,0,0,.63-.15,4.71,4.71,0,0,0,.6-.34l-.3-.52,1.16-.16-.34-.52c.35-.2.49-.45,0-.78-.14-.09-.19-.31-.32-.43a6.58,6.58,0,0,0-.67-.46,1.28,1.28,0,0,0-.21-.11l.56-.34-1.64-.37a3.11,3.11,0,0,1-.49-.16,6.7,6.7,0,0,0-1-.47c-1-.25-2-.49-3.08-.66-.59-.09-.56-.34-.34-.72.59-1,1.17-2,1.8-3,.39-.6.92-1.11,1.3-1.71.74-1.17,1.43-2.38,2.13-3.57.23-.39.45-.79.7-1.18.52-.8,1-1.59,1.58-2.38.39-.58.79-1.15,1.2-1.72a4.17,4.17,0,0,0,.54-.67c.54-1.14,1.1-2.27,1.54-3.45a19.56,19.56,0,0,0,.61-2.55ZM229.8,74.81c.21-.6.36-1,.52-1.48l.09-.25c.62-1.44,1.22-2.89,1.87-4.31s1.24-2.64,1.95-3.9a19.68,19.68,0,0,1,1.5-2,1.38,1.38,0,0,0,.18-.34c.14-.27.2-.62.41-.81.51-.45.54-.42.44-1.11l1.18-.7.21.1c-.06.26-.11.53-.19.79-.12.44-.26.88-.39,1.31-.07.21-.16.41-.22.62-.1.37-.18.73-.28,1.09a2.63,2.63,0,0,1-.22.55,7.05,7.05,0,0,0-.61,1c-.17.46,0,1.09-.71,1.25-.05,0-.1.15-.1.24a2.57,2.57,0,0,1-.87,1.72,11.44,11.44,0,0,0-1.14,2.1,5.47,5.47,0,0,1-.71,1.28c-.52.54-.41,1-.08,1.66-.59-.12-1-.13-1.22.54-.09.32-.49.56-.76.83-.76.77-.8,1-.4,1.9h-1.08C229.54,76.14,230.13,75.48,229.8,74.81ZM248,87.47c-.95,1.23-2.52,1.68-3.57,2.78a2.59,2.59,0,0,1-.6.3c-.19.11-.48.21-.52.37-.17.65-.7.71-1.19.85-.19.06-.48.07-.56.19-.43.73-1.21.72-2.07,1.08.18-1.05.3-2,.51-2.9s.54-1.89.83-2.83a.91.91,0,0,1,.19-.26,2.07,2.07,0,0,0,.67-1.24,2.18,2.18,0,0,1,.81-1.12c.47-.42,1-.73,1.54-1.11.86-.66,1.73-1.33,2.57-2,.33-.27.59-.62.89-.92a1.27,1.27,0,0,1,.34-.23c.16-.07.39-.06.49-.18a3.68,3.68,0,0,1,2.36-1.2,2.5,2.5,0,0,1,.57.44c.08.1.11.41.05.45-.79.49-.49,1.23-.54,1.9a6.84,6.84,0,0,0-.44.9,22.69,22.69,0,0,1-.84,2.57A13.15,13.15,0,0,1,248,87.47Z"/><path class="cls-2" d="M236.28,100.12h0S236.29,100.13,236.28,100.12Z"/><path class="cls-2" d="M173.76,47.78c0-.33-.18-.65-.21-1-.05-.86,0-1.73-.12-2.59-.06-.52-.47-.8-1.09-.83l.55-.47a2.29,2.29,0,0,0-.53-.28c-.42-.06-.85-.07-1.42-.11l-2.29,2.16c.5.47.35.87-.37,1.37-.12.65-.2,1.09-.3,1.52a3.25,3.25,0,0,1-.15.4l-.34.92-.52,1c.4.39.3.81-.26,1.16-.06,0-.14.15-.13.19.22.48-.15.69-.39,1s-.3.52-.24.58c.38.4,0,.79-.15.88a1.19,1.19,0,0,0-.47,1.18,2.47,2.47,0,0,1-.73,2.1.87.87,0,0,0-.28.87A2.35,2.35,0,0,1,164,59c-.3.61-.74,1.15-1,1.77s-1.05.71-1,1.62c0,.66-.75,1.32-1.18,2,.39.49.33,1.07-.36,1.51s-.92,1.34-1.55,1.87c-.14.11-.15.39-.22.58a2.26,2.26,0,0,1-.29.67c-.38.41-.81.78-1.2,1.18-.09.09-.2.26-.17.34.17.53-.28.65-.54.9-.09.09-.27.13-.31.23a3.76,3.76,0,0,1-1.94,1.89.84.84,0,0,1-.74,0,3.22,3.22,0,0,1-1.07-3.26.85.85,0,0,0,0-.32c-.08-.74-.19-1.49-.24-2.23a5.51,5.51,0,0,1,0-2.39,3.16,3.16,0,0,0-.06-2.19c.69-.15,1-.51.82-1.26-.05-.17.19-.46.35-.65.32-.38.64-.73.32-1.29a.74.74,0,0,1,0-.55,9.8,9.8,0,0,1,.48-1l-.14-.12c.07-.56.08-1,.17-1.42s.28-.86.45-1.37l-.43-.46c1-.54.49-1.6.85-2.41a3.71,3.71,0,0,0-.31-2.36c-.13-.37-.77-.56-1.15-.82l-.15.41-.46-.52.23-.44c-.58.25-1.18.27-1.31.94,0,.06-.08.11-.14.14a2,2,0,0,0-1.25,1.61c0,.44-.2.93-.05,1.3a1.34,1.34,0,0,1-.19,1.24l-.23.41.48.29-1,.42c.39.43.43.77.06,1.17a1.07,1.07,0,0,0-.26.64c0,.38.15.85,0,1.15a17.91,17.91,0,0,1-1.33,2l.41.25c-.42.48-.79.92-1.2,1.38l.17.27c-.85.94-1.68,1.83-2.47,2.75-.59.69-1.15,1.42-1.71,2.14-.28.34-.47.38-.67-.09s-.45-.68-.61-1a1.43,1.43,0,0,1,0-.74c.06-.32.19-.63.25-1s0-.62,0-.63c.67-.16.36-.66.31-1-.08-.53-.53-1.07.19-1.51.06,0,0-.25,0-.38.31-1.47,0-3.07.94-4.41a.41.41,0,0,0,.07-.33c-.28-.61.23-1,.37-1.52s.28-1,.43-1.46a3.2,3.2,0,0,1,.17-.43l.42-.93c.38-.32.75-.66.45-1.33,0-.08,0-.28,0-.31.49-.27.51-.7.6-1.21.13-.72.3-1.43.38-2.17a2.17,2.17,0,0,0-.44-1.65,4.65,4.65,0,0,0-1.38-.88c-.09,0-.3,0-.33-.06-.29-.59-.76-.27-1-.07a13.21,13.21,0,0,0-1.38,1.6c-.31.39-.6.79-.9,1.19s-.84.48-.37,1.18c-.54-.4-1-.69-1.39-1a1.43,1.43,0,0,1-.4-.48,2.18,2.18,0,0,0-2-1c-.23.05-.51-.14-.77-.22l.06-.14-1.18.41A1,1,0,0,0,134,44.35a3.62,3.62,0,0,1-1.64-.23c-1-.59-1.94.55-2.82-.19l-.06,0a10.32,10.32,0,0,0-1.51.89c-.83.67-1.6,1.42-2.29,2l-1.38-.48c-.07-.17-.18-.44-.34-.8a5.37,5.37,0,0,1-3.71,1.1,7,7,0,0,0-1.65,0,1.89,1.89,0,0,1-1.71-.37c-.12-.11-.33-.1-.4-.12-.13-.25-.19-.55-.37-.65a14.18,14.18,0,0,0-1.56-.64c-.27-.1-.61-.08-.82-.25a.78.78,0,0,0-1,0l-2.25,1.51a1.87,1.87,0,0,1,.16.52,5.82,5.82,0,0,0,1.18,2.73c.17.33.65.41.79.82,0,0,.26,0,.37,0,.34-.13.53,0,.82.22.62.54.64,1.31.9,2,0,.08-.06.21-.07.32a8.15,8.15,0,0,0-.11,1.3c0,.6.44,1.22-.17,1.77,0,.05,0,.26,0,.37a.57.57,0,0,1-.35.9c.12.63.24,1.2.36,1.84-.94.25-.49,1.48-1.21,2,.32.81.27,1-.49,1.51-.2.14-.61.26-.61.38,0,.86-.76.73-1.13,1.08a5.27,5.27,0,0,1-2.3-2.63c-.18-.33-.27-1-1.07-.63-.17-.56-.33-1.11-.5-1.65s-.44-1.26-.61-1.9a5.43,5.43,0,0,1-.28-1.53,12.91,12.91,0,0,1,.27-1.71c.16-1.1-.11-2.2.07-3.32a17,17,0,0,0,0-2.76c0-.56,0-1.13,0-1.69,0-1-.85-1.9-.51-3,0-.06-.21-.23-.34-.3a1.77,1.77,0,0,0-.41-.12v-.13l1.19-.2L105.8,42V40.85l.54-.71-1-.18,0-.15.73-.09c-.07-.25-.15-.5-.25-.85.35-.6.3-.7-.76-1.13l.58-.49c-.13-.16-.22-.36-.36-.43-.72-.33-1.6-.29-2.17-1a.24.24,0,0,0-.2,0,6.28,6.28,0,0,0-1.5,1.17,3.37,3.37,0,0,1-.76.92c-.27.18-.56.31-.78.43.08.28.26.56.18.68s-.43.31-.65.45c.66.51-.33.43-.31.57.16.3.38.53.33.63a6.41,6.41,0,0,1-.92,1.56,1.52,1.52,0,0,0-.4.88,3.2,3.2,0,0,1-.55,1.29c-.31.45-.73.83-1.08,1.25a2,2,0,0,0-.21.48l.22.11c-.7,1-1,2.23-1.81,3.11-.1.28-.19.69-.4.77-.66.27-1,.59-.51,1.33-.71.32-1.52.57-1,1.56l-.47.26.26.51c-.21.73-1.38.65-1.19,1.63,0,0-.19.08-.29.11l.19.06a3,3,0,0,1-.19.87c-.18.31-.6.5-.72.82s-.08.92-.21,1.35a13.09,13.09,0,0,1-.7,1.58,3.58,3.58,0,0,0-.23.65c0,.19-.14.43-.06.58.23.46.1.72-.44.86.09.85.18,1.68.27,2.54l.93-.6c-.26.45-.6.88-.53.95a4,4,0,0,0,.88.67c.19-.19.29-.36.35-.34a2.45,2.45,0,0,1,.56.23c.79.41,1.31.2,1.56-.64.08-.25.1-.67.25-.73.73-.27.46-.82.47-1.31,0-.31-.07-.71.09-.91A5.63,5.63,0,0,0,94.3,60a3.61,3.61,0,0,1,.5-.77,1.18,1.18,0,0,1,0-.46c.25-.63.52-1.26.82-1.88s.51-.94.77-1.41a7.11,7.11,0,0,0,1.4-3.09c.2-.11.56-.23.55-.32,0-.68.63-.93.81-1.45a5.38,5.38,0,0,1,.15-.74c.48-.92,1.09-1.78,1.48-2.73.25-.6.7-1,1-1.62,0,.58-.09,1-.1,1.42,0,.2.19.49.12.58-.54.66.62,1.46-.19,2.07.17.67-.24,1.4.21,2.06.08.11-.08.37-.09.57a8.17,8.17,0,0,0,0,1c0,.15.11.29.12.44,0,.73,0,1.46.11,2.19a11.21,11.21,0,0,0,.67,3.89,19.08,19.08,0,0,0,1.18,2c.07.1.26.12.43.19l-.4.21c.48.9.89,1.83,1.44,2.67a20.39,20.39,0,0,0,1.92,2.44,1.13,1.13,0,0,0,1,.36c.37-.15.38,0,.55.22a1.63,1.63,0,0,0,.76.56,9.39,9.39,0,0,0,1.59,0,1.12,1.12,0,0,0,.06.26l1.91-.17,0-.24h-.6l0-.25,1-.27a2.17,2.17,0,0,0,.68-.22,3.56,3.56,0,0,0,.52-.57c.4-.43.82-.85,1.21-1.3.07-.08,0-.26,0-.39l.1-.78c.7-.57,1.3-1,1.29-1.95.07.4.48.08.65.16V64.5a11,11,0,0,0,.7,1.68c.81,1.3,1.67,2.57,2.55,3.81a4.94,4.94,0,0,0,3.26,1.86,20.15,20.15,0,0,0,3.81.07c.2,0,.4-.09.59-.07a7.32,7.32,0,0,0,3.09-.57c.12-.36.13-.63.27-.75a.79.79,0,0,1,.59,0,.85.85,0,0,0,1.11-.38,1.08,1.08,0,0,1,.38-.32c.86-.57,1.75-1.1,2.59-1.71.34-.25.65-.39.91,0,.12.17,0,.52,0,.78a5.18,5.18,0,0,0,.34,1.37c.41,1.15.64,2.44,2.33,2.39.86,0,1.73.13,2.59.12.27,0,.74-.28.76-.47.1-.75.45-1.14,1.2-1.12a1.82,1.82,0,0,0,1.63-1.19c.25-.54.67-.49.87-.7v1.68l.14,0a6.6,6.6,0,0,0,.27,1.61,22.39,22.39,0,0,0,1.77,3.53c.65,1,1.39,2.08,2.94,1.7.09.56.41.63.88.49.72-.2,1.52-.06,2.2-.49a4.55,4.55,0,0,1,1-.45c1.53-.55,2.09-2,3-3.07.06-.08,0-.27,0-.31.39-.16.91-.22,1-.47.36-.66.79-.62,1.36-.43a1.45,1.45,0,0,0,.51,0c1,0,2-.15,3-.08a9.84,9.84,0,0,0,3.69-.74,1.85,1.85,0,0,0,1-.66,3.64,3.64,0,0,1,1.38-1.45c.05,0,0-.17,0-.25.08-.3.17-.59.24-.88a5.67,5.67,0,0,0,.46-2c-.12-1,.59-2,0-2.91a.4.4,0,0,1,0-.19c0-.42.05-.83.08-1.25,0-.17,0-.41.07-.5.63-.58.25-1.38.44-2.06A16,16,0,0,0,173.1,57c0-.57.11-1.13.16-1.56a21.53,21.53,0,0,0,.44-2.14c.07-.77,0-1.55,0-2.33s.07-1.47.1-2.2C173.77,48.42,173.8,48.1,173.76,47.78Zm-53,4.71c-.43-.24-.6.17-.53.62.1.66-.27.88-.74,1.07l-.71-.76a4.38,4.38,0,0,0,.2-1.33c-.15-1-.27-1.2,1.36-1.07l-.89.15,2.11.13C121.22,51.72,121,52.07,120.71,52.49Zm4.6,3,.18-.5c.1-.3.5-.55.12-.95,0-.05.15-.5.28-.53.78-.17,1-.8,1.18-1.41,0-.11.09-.28.18-.32a2.67,2.67,0,0,0,1.69-2c.08-.32.76-.26,1.1,0a6.18,6.18,0,0,0,1.12.86c.22.11.55,0,.83,0s.61,0,.91,0,1-.13,1.06-.29a3.16,3.16,0,0,0-.22-1.29c0-.09-.17-.14-.27-.22a1.7,1.7,0,0,1,1.74.5,27.94,27.94,0,0,1,2.25,2c.29.28.32.59-.05.93-.71.64-1.36,1.35-2.06,2-.22.21-.56.32-.75.55-.76.91-1.9,1.27-2.82,2a13.44,13.44,0,0,1-2.91,1.39,1.11,1.11,0,0,1-.84,0,1.83,1.83,0,0,0-1.6.09.85.85,0,0,1-1.21-.77,7.66,7.66,0,0,0-.24-1.1C125.1,56.07,125.2,55.78,125.31,55.48Zm12.62,3.92a1.21,1.21,0,0,1,.11.3c0,.15,0,.41,0,.43-.72.23-.7,1-1,1.48a11.69,11.69,0,0,1-2.74,2.87L130.87,67a10.89,10.89,0,0,0-1.21.2,4.94,4.94,0,0,1-2.67.14c-.52-.14-1.15,0-1.64-.15a3.72,3.72,0,0,1-1.46-1.11,11.24,11.24,0,0,1-1.37-2.38,4.09,4.09,0,0,1,0-1.45,26.07,26.07,0,0,0,10-.42l-.48-.38.16,0c1.45.2,2.2-1.08,3.31-1.61.1,0,.06-.38.09-.65,1,.52,1-.81,1.64-.82l-.52-.5c1.33-.84,1.52-.8,1.89.25l-.63.36C138,58.84,138.73,59.11,137.93,59.4Zm29.71,5.51a2.32,2.32,0,0,0,.15.81,3.24,3.24,0,0,0,.4.56,1.59,1.59,0,0,1-.38.2c-.32.11-.38.29-.26.6a.71.71,0,0,1-.44,1.06c-.39.17-.69.6-1.07.65a4.87,4.87,0,0,1-1.69-.15c-.15,0-.31-.34-.35-.54a1.23,1.23,0,0,1,.85-1.61c.43-.18.6-.4.52-.87,0-.14.15-.31.24-.47s.33-.54.48-.82c.41-.77.8-1.55,1.26-2.44l-.18-.46.63,0h0l.61.45c.07.49.14,1,.22,1.46l-.69.16,1,.09v.13l-.81.06C168.14,64.18,168.29,64.71,167.64,64.91Z"/><path class="cls-2" d="M82.59,50c-.24-.08-.43-.43-.54-.7A.8.8,0,0,0,80.64,49c-.32.28-.63.58-.94.87l-.11-.11.13-.52a1.2,1.2,0,0,0-.7.49c-.53.91-1,1.85-1.52,2.78-.2.37-.3.83-.89.76-.1,0-.24.12-.33.21a23,23,0,0,0-2.66,2.75c-.29.41-.66.22-.9.51a10.07,10.07,0,0,1-1.27,1.08l-.61-.35.07.58-1.32-.19.29-.42a2.46,2.46,0,0,0-.32-.11c-.71-.08-1-.39-.9-1.17a1.71,1.71,0,0,0-.43-1.64.47.47,0,0,1-.12-.3c0-.84.14-1.67.1-2.5a2.5,2.5,0,0,1,.37-1.45,13.73,13.73,0,0,0,.73-1.29,9.35,9.35,0,0,0,.38-1.18l-1.15-.11,1.49-1-.15-.07c.25-.57.49-1.14.75-1.72l-.8-.67c1.32-.37,1.88-1,1.54-1.7-.55.59-.73,0-1.1-.35h.82l0-.12-1-.17V41.7h2l-.57.39c.56.37.78.29,1.09-.36A23.69,23.69,0,0,0,75,33.21a2.17,2.17,0,0,1,.08-.43,6.38,6.38,0,0,0,.52-3.14,1.08,1.08,0,0,1,0-.4c.23-1.6.54-3.2.66-4.81s0-3.19.06-4.79a5.57,5.57,0,0,0-2.22-4.58c-.12-.1-.28-.25-.4-.23a2.88,2.88,0,0,0-.7.27l0,.26c-.23-.11-.45-.22-.69-.32s-.34-.17-.47-.13a10.36,10.36,0,0,0-1.52.68,1.31,1.31,0,0,0-.48.66c-.18.47-.25,1-.46,1.46s-.64,1.19-.94,1.79c-1,1.92-2,3.8-2.88,5.76-.63,1.41-1,2.91-1.67,4.7l.7.32c-.5.43-1.19.87-1,1.8a3.71,3.71,0,0,0-.38.87c-.21.54.2,1.17-.27,1.69-.08.08.16.44.23.67s.13.4.07.47a.87.87,0,0,0,0,1.38c-.11.13-.33.36-.31.38.37.42,0,.8,0,1.2,0,.21-.05.58.06.64.73.39.2.71-.06,1.09l.45.18c0,.29-.08.56-.11.82s.06.56,0,.65c-.6.47-.31.82.1,1.21-.08.1-.22.19-.23.3,0,.48.25,1-.09,1.47,0,0,.06.17.12.23.51.48.35,1.1.32,1.68s-.28.92-.14,1.26a2.72,2.72,0,0,1,.07,1.44A5.53,5.53,0,0,1,62.13,52l.31.24a50.65,50.65,0,0,1-4.1,3.48c-.56-3,.39-5.76.17-8.54A17.48,17.48,0,0,1,59,44.57c.14-1.93.22-3.87.26-5.8a4.71,4.71,0,0,0-.41-1.34l-.42.53A6.73,6.73,0,0,0,58,36.88c-.15-.28-.34-.64-.77-.34s-.85.6-1.28.92l-.23-.55a3.84,3.84,0,0,0-1.27,2.76c-.05.8.27,1.64-.27,2.39,0,0,0,.17,0,.2.43.41.14.75-.08,1.12a3.15,3.15,0,0,0-.2.7c-.15.53-.29,1.07-.45,1.6s-.32,1-.48,1.57c0,.14-.21.21-.3.34-.5.73-1,1.47-1.44,2.2a16.54,16.54,0,0,1-1.69,2.52c-.7.72-.73,1.78-1.54,2.42a7.41,7.41,0,0,0-1.37,1.71,2.09,2.09,0,0,0-.43,1.08c0,.32.32.64.53,1l-.15.37,3.37.35c.86-1.16,1.75-2.37,2.66-3.56a2.67,2.67,0,0,1,.59-.49c.37.81.68,1.46,1,2.14l.44.11-.46.6.94.3-.7.81c.54.15.89.27,1.25.34s1,.14,1.45.22c.76.14,1.52.63,2.29,0,0,0,.26,0,.3.08.21.39.36.28.61,0s.66-1.11,1.42-.55c0,0,.09,0,.09,0,.13-.17.22-.43.36-.46a1.17,1.17,0,0,0,1-1,.81.81,0,0,1,.64-.48,8.16,8.16,0,0,1,1.38.47c.17.49.28.81.39,1.15L65,58.81c.13.34.21.58.31.81s.21.24.19.33c-.11.76.44.84,1,1a3.68,3.68,0,0,1,1.39.47c.53.48,1.13.28,1.69.39a17.07,17.07,0,0,0,2.35.17,5.89,5.89,0,0,1,.34-.49.56.56,0,0,1,.38-.21c.47,0,.94.1,1.35.15a1.58,1.58,0,0,1,1.72-.72c.07-.72.18-.85.78-1a1,1,0,0,0,.41-.28c.38-.41.74-.83,1.12-1.24,0,0,.16,0,.23-.07s.21,0,.26-.12c.26-.36.5-.73.75-1.1A5.11,5.11,0,0,0,80,55.8c.26-.72.43-.87,1.07-.67.2-.38.31-.86.61-1.1.64-.51.76-1.29,1.17-1.91a2.6,2.6,0,0,0,.31-1.22A.76.76,0,0,0,82.59,50ZM67.37,42.3a.91.91,0,0,1-.08-.58c0-.78.07-1.56.08-2.35,0-.06-.22-.12-.4-.21.59,0,.71-.36.7-.81a25.84,25.84,0,0,0-.07-3.18c-.12-.82.29-1.49.28-2.25a5.31,5.31,0,0,1,0-1.13A15.51,15.51,0,0,1,68.5,30c.65-1.74,1.29-3.47,2-5.2a3,3,0,0,1,1.12-1.36c-.11,2.32-.22,4.62-.33,7l-.43.1a16.6,16.6,0,0,1,.39,1.66,1.21,1.21,0,0,1-.17.73c-.21.39-.67.75-.68,1.13a22.8,22.8,0,0,1-.55,2.27A15.24,15.24,0,0,1,69,39.14,3.53,3.53,0,0,0,69,40l-.41.87-.36.68h0c-.07.23-.14.47-.2.71C67.84,42.71,67.56,42.51,67.37,42.3Z"/><path class="cls-2" d="M35.44,52.51c-.1-1-.21-2-.29-2.95,0-.16.12-.32.19-.48A2.94,2.94,0,0,1,35,47.9c0-.28,0-.57,0-.85,0-.47-.65-1,.23-1.39,0,0,0-.17,0-.26a21,21,0,0,0-.17-2.1c-.16-.93.1-1.92-.42-2.8,0-.06,0-.17,0-.26,0-.34-.08-.69-.15-1s-.27-.59-.18-.71c.37-.52.13-.85-.15-1.27a1.13,1.13,0,0,1-.09-1.31,1.39,1.39,0,0,0,.15-1.53c-.12-.19-.23-.6-.15-.67.49-.4,0-.72,0-1.07s-.12-.61-.17-.92c-.17-.86-.34-1.72-.49-2.58-.08-.45-.12-.9-.18-1.36,0-.14.05-.35,0-.42-.5-.43-.34-.91-.11-1.38A1.7,1.7,0,0,0,33,24.11c.09-.26.28-.53.21-.63a9.23,9.23,0,0,0-.89-1l-.12.13.24.21c-.12.05-.25.16-.34.13s-.39-.22-.38-.27c.24-.81-.19-.65-.67-.51-.12,0-.29-.11-.44-.12a1.42,1.42,0,0,0-.4.08l.53.63-.91.18c-.16.26-.5.57-.52.9,0,.56-.77,1-.26,1.63,0,.05-.08.21-.13.31-.45.93-.9,1.86-1.37,2.78q-1.44,2.82-2.91,5.62c-.49.93-1,1.85-1.53,2.75s-1.11,1.7-1.65,2.56c-.32.5-.6,1-.92,1.52s-.79,1.23-1.17,1.86-.76,1.31-1.16,2-1,1.54-1.53,2.32c-.13.2-.05.6-.2.71A4.6,4.6,0,0,0,15,49.78a6.64,6.64,0,0,1-.67,1.12c-.37.49-.85.9-1.2,1.41s-.54,1.33-1,1.77c-1.07,1-1.16,2.5-2.14,3.59l1.21.63c-.13.44.14.55.61.46.1,0,.23.15.33.14.31,0,.62-.14.93-.22l-.25-.43,1.43-.33.18.44.85-.71-.2-.07c0-.24-.13-.66,0-.71a2.6,2.6,0,0,0,1.29-1.56c0-.07.14-.11.2-.17.24-.23.57-.42.67-.7s-.1-.57-.17-.9l.6-.09.17-.8c.7,0,.81-.58.95-1.11.09-.32.29-.87.42-.86.44,0,.68-.09.83-.5.1-.26.29-.49.36-.75a1.15,1.15,0,0,1,1.44-.65c1,.52,2,1.07,3,1.57s1.82.74,2.67,1.23c1,.58,2,1.28,2.92,1.94.47.32.91.69,1.38,1s.71.46,1.06.69c.08,0,.11.15.15.16s.5,0,.56-.06c.26-.43.66-.44,1.09-.53,1-.21,1.09-.39.93-1.17C35.46,53.27,35.48,52.89,35.44,52.51ZM31.13,48c-.13.35-.39.41-.77.2-1-.56-2.09-1.07-3.13-1.61-.42-.21-.8-.48-1.22-.68a11.48,11.48,0,0,0-1.09-.37c0-.07.23-.44-.4-.33-.21,0-.5-.38-.78-.61,0-.13,0-.39.08-.65s0-.34.08-.38c1-.55,1.26-1.6,1.83-2.43a10.77,10.77,0,0,0,1-1.73c.06-.15-.1-.4-.19-.72.07,0,.2-.18.34-.2,1-.12,1.05-.92,1.33-1.61A3.16,3.16,0,0,1,28.8,36c.24-.28.38-.48-.3-.65.6,0,1-.1.64-.73l.78.07c.17.82.33,1.6.49,2.42l-.58.21c.73.7.72.93,0,2,.59.39,1,.82.26,1.47-.07.07.12.44.19.67s.24.44.19.61a1.52,1.52,0,0,0,.19,1.26,1.26,1.26,0,0,1-.09.92c-.12.31-.32.45.1.76s.35.77.52,1.17l-.17.12.63-.07C31.47,46.87,31.34,47.46,31.13,48Z"/><path class="cls-2" d="M46.68,30.83l.63-.23c-.07-.5-.12-1-.21-1.42a.77.77,0,0,1,.54-1c.38-.15.54-.37.25-.87-.19-.34,0-.89,0-1.35l.46-.13.23-.9v-.68h.18c-.32-.73-.23-.95.22-1,.09-.36.17-.62.22-.89a.66.66,0,0,0,0-.44c-.3-.5-.27-.89.25-1.1-.1-.45-.18-.84-.26-1.23-.24-1.25-1-1.64-2.16-1v-.2a4,4,0,0,0-1-.24c-.22,0-.66.22-.65.29.14,1-1.12,1.61-.58,2.64-.83.88-.25,2.1-.72,3.07-.14.28-.09.65-.21.94-.31.69-.13,1.53-.73,2.12,0,0,0,.18,0,.26-.06.49-.1,1-.18,1.46s-.22.77-.29,1.16-.09.77-.14,1.24l.39.12c-.18.13-.53.29-.52.42,0,.39.32.35.65.26a10.08,10.08,0,0,1,1.23-.15l0,.14-.93.4.81.19,0,.1-1,.12.94.64a4.17,4.17,0,0,0,.62-.26c.28-.15.53-.36.8-.54l-.1-.11a.88.88,0,0,0,.4,0,3.91,3.91,0,0,0,1-.71Zm-1.94,1.93v-.25c.2,0,.41.06.61.08Z"/><path class="cls-2" d="M262.72,74.17c.19,0,.39,0,.57.09s.4.13.6.2a1.3,1.3,0,0,1-.58.16c-.3,0-.47.08-.36.45a1.75,1.75,0,0,1-.05.64c-.14.86,0,1,.83,1.06.11,0,.22.06.33.06l1.93.08c.4.32,2.4-.63,3.16-1.86l-.51-.15c.17-.22.28-.53.45-.58.74-.18.44-.6.23-.94a5.41,5.41,0,0,0-.7-.77l.31-.64c-.06-.11-.1-.26-.19-.31-.81-.39-1.45.27-2.17.4a10.83,10.83,0,0,0-1.89.66l.3.2-1.72.21.61.25-1.21.58Z"/><polygon class="cls-2" points="268.93 71.96 268.93 71.97 268.93 71.97 268.93 71.96"/><path class="cls-2" d="M53.07,24.44a5.94,5.94,0,0,0,.94.06h.7v.14l-1.35.22,0,.25,3.46-.57s0-.07.07-.11a1.05,1.05,0,0,0-.07-.11l-.18-.17a6.63,6.63,0,0,0,.3-1.23c.11-1.52-1.2-1.3-2.29-1.55l.63-.28-1.4-.45a1.52,1.52,0,0,0-.07.6,2.08,2.08,0,0,0,.4.55l-1.57.09.06.13.56.16-.8.92.14.13.68-.77c.23.61.45.35.71.05,0,.87-.83.4-1.09.76.14,1.14,1.16.27,1.8.81H52.35A3.43,3.43,0,0,0,53.07,24.44Z"/><polygon class="cls-2" points="268.93 71.96 268.93 71.97 268.94 71.97 268.93 71.96"/><path class="cls-2" d="M269.6,72.9c-.09.38.07.51.4.54s.77-.16.8-.38l-.93-.2,0-.18,1-.5-.05-.25c-.68.28-1.42.71-1.34-.48l-.54.52a5.89,5.89,0,0,1,.42.45C269.46,72.57,269.63,72.77,269.6,72.9Z"/><path class="cls-2" d="M104.14,35l-1.24.43C103.82,35.77,104,35.67,104.14,35Z"/></g></g></g></svg>