<svg xmlns="http://www.w3.org/2000/svg" viewBox="0 0 306.12 198.44"><defs><style>.cls-1,.cls-2{fill:#fe5f58;}.cls-1{opacity:0.2;}</style></defs><g id="Calque_2" data-name="Calque 2"><g id="Phrase_1" data-name="Phrase 1"><g id="P1_m1_1"><path class="cls-1" d="M305.55,48.87c-1.24-4.31-4.68-4.92-7.3-7.92-3.07-3.53-3.3-10-4.38-14.32-1.82-7.4-4.33-15.43-10-20.86-6-5.81-14.94-7-22.77-4.53-8.45,2.72-15,9.29-23.37,12.09-5.91,2-12.41,2.21-18.55,3A93,93,0,0,0,202,20.21c-10.5,3.4-21.37.69-31.45,5.11-3.2-3.6-5.69-7.82-9.95-10.37a20.07,20.07,0,0,0-17-1.76A22.89,22.89,0,0,0,130.84,25a15.24,15.24,0,0,0-1,9.42c.27,1.13.77,2.19,1.13,3.29-4.57.46-9.82-.37-14,.16-6.36.8-10.72,2.9-14.9,7.59-3.8,4.25-10.69,2.27-15.78,4.08-2.82,1-4.73,2.72-7,4.57-2.53,2.07-5,2.49-8.14,3a23,23,0,0,1-4.37.64h-.32c-.85-1.41-.87-3.9-1.33-5.42A25.13,25.13,0,0,0,56,39.56c-8.35-6.27-19.29-7.14-29.37-7.5a4.29,4.29,0,0,0-4.57,3.35,29.17,29.17,0,0,0-8.66,2.68C5.81,41.84-1.19,50.39.17,59.33c.43,2.83,1.51,6.14,4.33,7.4a11.34,11.34,0,0,0,3.41.62c3.46.44,4.27,1.71,4.73,5,1.52,11,4.06,22.12,4.33,33.23.13,5.56-1.29,9.94-3.63,14.91-1.94,4.12-3.92,8.34-3.64,13,.61,10,10.74,14.2,19.66,13.77,10.19-.48,20.82-6.6,28.09-13.5,2.8-2.67,5.14-6.08,8.4-8.23,2-1.34,2-.78,4,.08A19.8,19.8,0,0,0,77.39,127a34.92,34.92,0,0,0,15-2.64,38.45,38.45,0,0,0,5.33-2.86c.77-.48,2.82-2.18,3.73-2.1a4.85,4.85,0,0,0,1,1c3.32,2.24,5.58,1.56,9.3.34,5.36-1.76,10-3.4,14.66-6.65,2.85-2,6.93-2.32,10.37-2.68h.1c-.69,1.62-1.6,3.13-2.26,4.76-4.37,10.79-3.73,22.6-5,33.93-1.94,16.85-5.55,49.64,20.57,48.32,20.13-1,31.33-21.63,34.21-39.25,2-12,2.87-24.77,1.63-36.85-.22-2.11-2.54-11.13,1.15-10.57,1.93.29,4.22,2.88,6.31,3.48a23,23,0,0,0,8.51.65,45,45,0,0,0,13.57-3,12.72,12.72,0,0,0,5.21-3.56c1.6-2,1.3-3.9,2.08-6.17,2-5.85,9-3.69,13.65-4a9.69,9.69,0,0,0,7-3.62,16.17,16.17,0,0,0,18-2.65c2.59-2.5,3.58-5.91,5.75-8.66,2.57-3.25,7.42-2.64,11.17-2.75,8.57-.25,17.3-3.22,22.1-10.82C304.12,65,307.49,55.61,305.55,48.87Z"/><polygon class="cls-2" points="162.76 181.69 162.76 181.69 162.76 181.7 162.76 181.69"/><polygon class="cls-2" points="159.33 185.1 159.32 185.1 159.32 185.1 159.33 185.1"/><polygon class="cls-2" points="201.88 63.89 201.87 63.9 201.87 63.9 201.88 63.89"/><path class="cls-2" d="M47.17,79.75c-1.94.06-3.88,0-6,0,.17-.29.28-.5.4-.69a17.87,17.87,0,0,0,3.12-9.25c.06-4,0-7.9-.19-11.83a19.41,19.41,0,0,0-2.3-8.29c-1.45-2.66-3.49-4.26-6.73-4.17-5,.16-10.08.14-15.22.19-.09-.61-.21-1.48-.34-2.48l-4.61.49c.07,1,.14,2,.2,2.87-4.66.11-7.79,3-11.34,5.29,1,1.35,1.84,2.55,2.71,3.74,3-1.54,5.31-4.2,8.94-4.25a4.36,4.36,0,0,1,.12.82,32,32,0,0,0,1.59,9.6,78.28,78.28,0,0,1,3,13.58,344.43,344.43,0,0,0,5.37,39.55,52.14,52.14,0,0,0,1.94,6.27,3.78,3.78,0,0,0,3.82,2.7c.31-1.15.64-2.26.92-3.39a1.34,1.34,0,0,0-.09-.76A21,21,0,0,1,31,116.12q-1.58-8.07-2.88-16.2c-.43-2.63-.64-5.3-1-8.14l2.17,1.46c.15-.13.35-.42.58-.46a4.73,4.73,0,0,0,2.78-2.09c1.24-1.51,2.49-3,3.78-4.47a2.64,2.64,0,0,1,1.12-.63,27.61,27.61,0,0,1,9.65-1.08,1.25,1.25,0,0,1,1.39,1,41,41,0,0,1,2.19,13.31c-.08,2.36,0,4.73,0,7.09a8.88,8.88,0,0,1-1.39,5.1c-1.57,2.43-3.14,4.85-4.74,7.27-3.8,5.76-9.63,8.7-15.75,11.24a4.58,4.58,0,0,1-1.42.32q-3.81.25-7.62.46c-.44,0-2.51,2.62-2.32,3,.37.76.51,1.77,1.68,1.81a22.6,22.6,0,0,0,2.84.1c3.48-.33,7-.34,10.25-1.93a76.89,76.89,0,0,0,8.55-4.69,23.24,23.24,0,0,0,5.41-4.86c2.63-3.35,4.95-7,7.3-10.51a10.83,10.83,0,0,0,1.9-5.73c.05-2.65,0-5.29.06-7.94a46.06,46.06,0,0,0-2.5-15.7C52.07,80.75,50.45,79.66,47.17,79.75Zm-9.58-3.17c-.57.89-1.16,1.77-1.75,2.65a11.9,11.9,0,0,1-3.61,3.7,14,14,0,0,0-4.84,5.39l-.69,1.21c-.32-2.82-.58-5.31-.88-7.79C25.24,77,24.82,72.2,24,67.5c-.69-3.78-2-7.44-2.88-11.2a43.56,43.56,0,0,1-.52-5.58c1.83-.14,3.44-.35,5.05-.39,3.18-.06,6.35,0,9.53-.06a2.84,2.84,0,0,1,3.08,2A23.07,23.07,0,0,1,39.7,57.7c.31,3.72.34,7.46.36,11.2A14,14,0,0,1,37.59,76.58Z"/><path class="cls-2" d="M298.66,55.09l-.12-.25c-.67-.62-1.34-1.25-2.06-1.94a10.73,10.73,0,0,1-.91,1.44,10,10,0,0,1-1,.76,2.59,2.59,0,0,1-3.72-.32,25.84,25.84,0,0,1-3.27-6.09,32.24,32.24,0,0,1-1.29-8.51,116.53,116.53,0,0,0-1.35-18.57,69.55,69.55,0,0,0-1.67-6.95A3.1,3.1,0,0,0,280,12.4c-2.8,0-5.61,0-8.41.18A9.23,9.23,0,0,0,266.14,15a2.58,2.58,0,0,0-1.65,2.3c.08,4.09,0,8.21.45,12.26.23,2.13,1.42,4.15,2.18,6.22h0l.63,1c.54.89,1.51,1.75,1.56,2.65.18,3.31.47,6.65-.45,9.93-.83,3-1.62,5.95-2.35,8.94-1.42,5.85-4.53,10.91-7.36,16.1a1.81,1.81,0,0,1-.88.78,1,1,0,0,1-.92-.18c-1.12-1.36-2.18-2.77-3.26-4.17l0,0-1.58-2.53h0c-.78-1.65-1.58-3.29-2.32-4.95-1.4-3.16-2.93-6.27-4.08-9.51-1.59-4.46-2.89-9-4.31-13.57a1.88,1.88,0,0,1-.1-.47c-.2-2.92-.39-5.84-.6-8.76a6.55,6.55,0,0,0-.34-1.26l-1.22,0-.49,0h-3v1.45c0,3.33.44,6.63.7,9.93a63.89,63.89,0,0,1-1.15,19.78c-1.23,5.18-2.34,10.4-5.54,14.84-.46.64-1,1.59-1.64,1.65a18,18,0,0,1-4.91-.2,3.42,3.42,0,0,1-2-1.47c-2.12-3.4-4.12-6.87-6.17-10.31,0,.1,0,.21-.05.32,0-.11,0-.22.05-.32l-.76-1.46c-1.24-2.67-2.46-5.35-3.71-8a4,4,0,0,1-.2-3.8,7.67,7.67,0,0,0,.41-1.88l.08-.49c.06-2.78.2-5.57.12-8.35a7.61,7.61,0,0,0-1-2.5l-.54-.62a34.31,34.31,0,0,0-2.16-2.88,12.93,12.93,0,0,0-2-1.51l-.05-.07h-.09l-6.71-2.3-.49-.08c-1.93,0-3.87-.16-5.78,0a8.66,8.66,0,0,0-2.57,1.17l-1.17,1-1.1.92-.62.54-.84.68L185,36.9l-.68.84c-.19.27-.37.55-.55.83l-2.38,4.54-.07,0v.08l-2.28,5-.1.48c-.7,2.58-1.44,5.14-2.08,7.73-.42,1.72-.69,3.48-1,5.23l-.06.49-.18,1.95-.06.74-.18,2.19-.06.74-.19,2.44-.05.5c-.26.16-.52.32-.77.49l-.49.24-1.2.73,0,0-.94.72-.29.23-1,.74-.27.21-.93.77-1.5,1.48-.52,0,0-.74c-.16-1.37-.33-2.74-.49-4.12a1.93,1.93,0,0,0,0-.24l-.67-4.19-.06-.49c-.31-1.67-.66-3.33-.92-5-.36-2.4-.66-4.81-1-7.21,0,.11,0,.23-.08.35a5.58,5.58,0,0,0-.13.69,5.58,5.58,0,0,1,.13-.69c0-.12.06-.24.08-.35s0-.33,0-.5c-.6-2.68-1.06-5.41-1.85-8a57,57,0,0,0-2.48-5.89h0l-1.45-3.48c0-.09,0-.15-.1-.18l-1.6-.89h-.24l-1.26.17-.75.19-1.41,1.51V38l-.28.72-.23.5c0,.63-.15,1.26-.16,1.9,0,3.08.34,6.24-.19,9.23a94.07,94.07,0,0,1-3.24,11.44c-.64,2-1.52,4-2.28,6l-.5,1.47-2.19,5.87c-.07.17-.15.33-.23.49-.65,1.63-1.31,3.26-2,4.88l-.28.73-1.32,3.08c-.17-2.9-.14-5.75-.18-8.59a72.35,72.35,0,0,0-2.22-17.46c-.79-3-1.65-6-3.61-8.55h0l-.75-.92-.51-.53c-.24-.15-.48-.3-.71-.46l-.5-.22-1.2-.27-2.41,0a11.2,11.2,0,0,0-7.37,1.89h0l-.73.49h0l-1.94,2h0c-.17.24-.33.48-.5.71h0c-.41.65-.82,1.3-1.24,2h0c-2.22,3.2-3.51,6.83-4.82,10.47l-1.76-2.15-.49-.49a10.4,10.4,0,0,0-2.53-.91,16.16,16.16,0,0,0-4.61.06,48.39,48.39,0,0,0-5.58,1.81h0L94.8,64.41c-.67.71-1.33,1.43-2,2.15l2-1.7a2,2,0,0,0,.69-.16,1.15,1.15,0,0,0,.46-.34,1.15,1.15,0,0,1-.46.34,2,2,0,0,1-.69.16l-2,1.7-.22.26L91.11,69h0l-1.23,2h0L87,75.62h0l-.52.28,0,0-1.18-1-.36-.3c-1.65-1.42-3.43-2.53-5.73-2.37-1.09,0-2.18,0-3.27,0-2.17,0-4.34.07-6.51.1l-2,.86h0a7.74,7.74,0,0,0-1.55,1.93,37.07,37.07,0,0,0-1,4.22l0,.24-.22,1.2,0,.49a14.2,14.2,0,0,0-.19,1.44c-.17,3.84-.32,7.67-.48,11.51,0,2.36-.05,4.73-.07,7.09.13.92.27,1.83.4,2.75h0l.33.67.12.49.8,1.83v.09l.08,0,.4.64v.06l.06,0,.45.59.53.63c.32.41.65.81,1,1.22h0l1.22,1.22,1.08.79c2.84,2.14,6.09,2.21,9.41,1.87l.5,0L82.52,113l1-1.13.91-1.06.31-.41.4-.57.09,0v-.11l1.18-2,.07,0v-.08l.33-.62.33-.74c.39-1.63.77-3.25,1.16-4.88,0-1.38,0-2.76-.07-4.15-.26-.7-.51-1.4-.77-2.11v-.07l-.07,0c-.22-.28-.45-.56-.67-.85L86,93.43l-3-1.81,1.21-2.32.07,0v-.07l2.88-5,.06,0v-.07l.65-1.12.08,0v-.08l2.87-4.77.07,0v-.09l.67-1.1.07,0v-.07c.39-.62.77-1.24,1.16-1.85l.07,0v-.08l.4-.63.08,0V74l1.16-1.82.07,0v-.08c.79-1.11,1.59-2.21,2.38-3.31l1.47-1.49A12.42,12.42,0,0,1,104.9,66c1.14,0,1.78.37,2,1.4.47,1.75.88,3.52,1.31,5.29l0,.49.21,1.71.06.49,1,6.82c0,.08,0,.16,0,.24.06.82.13,1.64.19,2.47l0,1.71c0,2.23-.06,4.45,0,6.67,0,1.93.14,3.86.22,5.79l.06.5c.1,1.8.19,3.6.32,5.4,0,.22.21.42.33.63l1.95.06,1.21,0,.5,0c1.43.28,1-.71.93-1.41,0-.44.07-.89.07-1.33V74.24c0-.93,0-1.86-.06-2.8a24,24,0,0,1,2.34-10.09c.65-1.26,1.22-2.55,1.83-3.82l.08,0V57.4c.22-.37.45-.73.68-1.1l.06,0v-.07l.41-.64.08,0v-.08l.42-.62.07,0v-.08l1.56-1.55h.07l0-.07a11.45,11.45,0,0,1,2.27-.82c1.77-.24,3.63-1,5.26.47v.09l.08,0a18.42,18.42,0,0,1,1.14,2.68c1,3.82,1.87,7.65,2.79,11.48l0,.5c.06.65.13,1.3.2,1.95,0,.16,0,.33,0,.5l.2,1.94,0,.5c0,1.38,0,2.76,0,4.14q0,8.64-.05,17.29c0,1.17.6,2.17,1.4,2.28l.24-.14.77.86c1.16-.21,2.43-.26,2.88-1.71h0l.5-1,.06,0v-.06c.54-1.09,1.16-2.15,1.6-3.27,3.21-8.18,6.24-16.43,9.63-24.53a123,123,0,0,0,4.56-14.66,13,13,0,0,0,.23-2.17c0-.32,0-.65,0-1,0-.84.07-1.68.11-2.53a2.56,2.56,0,0,1,.58,1.1c.71,3.16,1.39,6.32,2.08,9.48l0,.5c0,.56,0,1.13.09,1.68q1.38,8.69,2.8,17.37l0,.5c.15,1.94.32,3.88.45,5.83a2.92,2.92,0,0,1-.11,1.29c-1.63,3.84-3.32,7.67-5,11.51a20.74,20.74,0,0,0-1,2.87c-2.92,11.36-5.91,22.7-8.68,34.1a86.19,86.19,0,0,0-2.52,14.12c-.47,6.76-.29,13.58-.31,20.37,0,3.91.05,7.82.27,11.71a50.29,50.29,0,0,0,1,7,3.53,3.53,0,0,0,2.88,3.11,9.72,9.72,0,0,0,8.06-2.15h0l1.71-1.24,3.43-3.41,2.45-3.42h0c.44-.76.94-1.5,1.31-2.3a38.53,38.53,0,0,0,3.54-16.55c0-11.91.13-23.83-.05-35.75-.1-6.33-.76-12.65-1.17-19V96.87a90.82,90.82,0,0,0-.39-9.2c-.36-2.57-.33-4.87,1.39-6.93h0l2.66-2.69.28-.23.95-.75h0l1.25-.62V82.2c0,.25,0,.5,0,.74.5,2.73,1,5.46,1.5,8.19a3.8,3.8,0,0,0,.59,1l.55.81,1.7,1.72h0c1.31,1.7,3.39,1.55,5.17,2.13h1.68c2.81.3,5.45,0,7.58-2.15h0l.25-.23c.33-.33.65-.66,1-1l.23-.26L196.2,92l.08,0v-.08l.45-.62h0l1.19-1.72.07,0v-.08l1.66-2.58.06,0v-.06l1.66-2.84,0,0v-.06a13.11,13.11,0,0,0,1-1.8c1.57-4.17,3.12-8.35,4.62-12.55a32.45,32.45,0,0,0,.84-3.4l.09-.49c.19-1,.37-1.91.63-3.23l2.15,4.72-.31.25-.24,1,.16,1.22.09.73.15,1.71.08.74.1,1.71c.05.4.11.81.16,1.22l.09,1.71V80.5l-.09,1.23c0,.16,0,.32-.08.49l-.17,1-.13.49c-.28,1.14-.56,2.28-.83,3.43l-.17.48a27.82,27.82,0,0,1-1,2.88c-1.59,3.42-3.25,6.81-4.84,10.23-.19.41-.35,1.11-.15,1.4.93,1.3,4.85,1.08,5.6-.37,1.66-3.16,3.17-6.4,4.74-9.6l.26-.66c.09-.26.19-.52.29-.78.22-.72.45-1.43.67-2.15.12-.4.24-.81.35-1.21l.13-.5.14-.47.12-.51.12-.47c0-.17.09-.34.13-.51l.11-.47.09-.51.16-.71.07-.51.18-1.2c0-.25,0-.5.07-.75l.11-2.69,1.81,1.71a.09.09,0,0,0,.12.09c2.49,2.34,5.53,2.61,8.75,2.51a6.72,6.72,0,0,0,5.86-3.16c1.95-3.05,3.94-6.12,4.81-9.69,1-4.22,1.92-8.49,2.87-12.74.05-.24.15-.47.27-.86a3.93,3.93,0,0,1,.39.5c2.51,5.29,4.86,10.66,7.6,15.83,1.3,2.46,3.33,4.53,5,6.78v0a4.6,4.6,0,0,0,1.16.81,6.27,6.27,0,0,0,7.77-3.26c1.11-2,2.31-4,3.32-6.08,1.15-2.37,2.14-4.81,3.2-7.22.07-.21.14-.42.22-.64.43-1.56.86-3.13,1.3-4.7,0-.22.09-.45.14-.67q1.17-4.4,2.33-8.79L274,48c.06-2.45.13-4.9.19-7.35V39.46l-.15-1-.07-.5-.16-.48-.23-.6-1.77-2.6c-.71-1.7-1.77-3.35-2.06-5.13a66.35,66.35,0,0,1-.54-8.48c-.08-2.4.27-2.78,2.64-3.34a7,7,0,0,1,1.45-.15c1.62,0,3.26.07,4.88,0,1-.06,1.29.36,1.43,1.19a55,55,0,0,1,1,5.64c.4,5.47.64,10.94.94,16.42,0,.48.07,1,.1,1.44,0,.17,0,.34,0,.5.47,2.71.91,5.42,1.45,8.11a6.3,6.3,0,0,0,.93,1.67h0l2.94,5.36h0l1,1,1,1c.47.31.92.84,1.41.88a16.06,16.06,0,0,0,4.1,0c1.87-.33,3.76-.85,4.43-3l.05-.49C298.81,56.22,298.73,55.65,298.66,55.09ZM70.18,76.87l1.14,0h4.4l3.9,0,2.67,1.51.23.19L84,79.85l.17.4c-.13.25-.27.49-.41.73l-.24.44c-.34.58-.67,1.16-1,1.74v0l-1,1.73h0l-1,1.72h0l-1,1.71v0h0l-1,1.32-1.4-.26-.47-.07-1-.15-6.6,0c0-1.94-.17-3.88,0-5.81s.62-4,.94-5.94ZM83.72,101.5a17.59,17.59,0,0,1-2.91,6.59h0a3.62,3.62,0,0,1-3.88,1.49c-.2,0-.4,0-.6,0a7.13,7.13,0,0,1-5.78-3.48l2.23-.65.5-.22.76-.5,3.9-5.34.49-.78L80.14,96c2.17.14,3.39,1.19,3.62,3.11ZM76,93.94l-.52.89-.51.79v0l-1,1.51-.25.37c-.17.27-.34.54-.52.81h0l-.5.75h0l-.49.75v0c-.76,1.14-1.72,1.77-3.16,1.21V93.8l1.49-.13,5.35.09-.05.1Zm76.52-45.46a1.58,1.58,0,0,1,.42.37.63.63,0,0,1,.14.37.63.63,0,0,0-.14-.37,1.58,1.58,0,0,0-.42-.37c0-1,0-2.06,0-3.09C152.48,46.42,152.48,47.45,152.48,48.48Zm.73-10.26.25-.08-.25.08-.48.51ZM138.78,67.31c0,.68.09,1.37.14,2,0-.68-.1-1.37-.14-2l-.24-1Zm26.37,96.76-.15,1c0,.24-.07.48-.1.72l-.16.75-.08.47-.14.5-.1.48-.15.5-.11.47c-.46,1.31-.92,2.62-1.37,3.93-.11.24-.21.48-.31.73l-1,1.95-.25.42c-.17.26-.33.53-.49.79s-.34.49-.5.74l-.2.26-.56.7-.9,1.05-1.2,1.19-1,.9-.71.55-1.47,1-.9.45-.31.1-.51.16-.72.09-.72-.29-.09-.48-.13-.51-.06-.47c-.07-.41-.13-.83-.19-1.24s-.07-.8-.11-1.21-.09-1-.14-1.47-.05-1-.08-1.46l-.16-4.17c0-2.75.07-5.5.07-8.25,0-3.92,0-7.84-.07-11.77.06-1.79.11-3.59.17-5.38,0-.41.05-.81.07-1.22s.11-1,.16-1.47l.09-1c.06-.33.11-.66.17-1l.06-.48.16-.74.11-.72.17-.75.07-.47.4-1.73.09-.47.14-.5.1-.48.13-.5.1-.48.42-1.72.1-.47c0-.17.09-.34.13-.51s.06-.32.1-.47c.21-.9.43-1.8.65-2.7l.1-.48.13-.5.09-.48.15-.5.1-.48.15-.5.11-.47c.36-1.23.73-2.46,1.1-3.68l.12-.47c.13-.42.25-.83.38-1.24l.11-.47.36-1.24.1-.48.14-.5.11-.48.13-.5.1-.48c.07-.25.13-.49.19-.74l.08-.48.13-.5.09-.48.19-.74.09-.47.13-.51.1-.47.14-.51.1-.47c0-.17.09-.34.14-.5l.1-.48.18-.74.09-.48.12-.5.13-.72.14-.5.1-.47c.12-.42.25-.83.37-1.25l.12-.46.61-2,.13-.47c.12-.41.23-.83.35-1.24l.1-.48.14-.5.1-.48.7-2.2c.1-.25.19-.49.29-.73s.28-.66.43-1,.35-.81.53-1.21l.45-1L164,93l.18-1.31L164,93l.2,0c0,.56,0,1.13.08,1.69v1.72q0,4.14,0,8.3l.15,3.93c0,.56.07,1.13.1,1.69l.15,1.48.09,1.21.15,1.24.07,1c.06.58.12,1.15.17,1.72l.09,1.46c.06,1.39.11,2.78.16,4.16,0,.28-.07.57-.07.85q0,17.29,0,34.58a5.87,5.87,0,0,0,.08.72c-.05,1.39-.1,2.78-.16,4.17ZM196.43,83.4h0l-1.71,2.7h0c-.33.49-.66,1-1,1.47h0l-1.22,1.71h0L191.06,91a4.88,4.88,0,0,1-3.58,1.19c-1.11-.16-2.21-.41-3.32-.51-2.49-.21-3.31-1.84-3.58-4a8,8,0,0,0-.21-.81l-.08-.47c-1-4-.65-8.07-.7-12l12-5.38.73-.29L194,68l1.22-.53,3.25-1.64.91-.51,1.26-.72.45-.27.75-.46.73-.5h0l.62-.45h.09l0-.08A3.55,3.55,0,0,1,203.5,64a25.05,25.05,0,0,1-.57,2.6A81.93,81.93,0,0,1,196.43,83.4Zm6.94-38.58c.07.57.13,1.14.19,1.71l.06.73c.17,1.2.27,2.42.52,3.6.51,2.45.38,4.71-1.67,6.45a21.59,21.59,0,0,1-4,3.15c-5,2.5-10,4.81-15.06,7.15-1.12.52-2.31.89-3.49,1.34-.05-.28-.08-.48-.12-.67l.05-.73.21-2.45,0-.49c.21-1.4.32-2.82.64-4.19.82-3.43,1.68-6.86,2.63-10.25a21,21,0,0,1,1.62-4c1.7-3.25,3.17-6.7,6.38-8.87h0l1.21-1h0c3.43-.86,6.61,0,9.65,1.35.13,1.13.25,2.21.37,3.29l.09.48c.21,1,.42,2,.64,2.94Zm30.75,24.44c0-.25,0-.49,0-.74v.74l-.34.41Z"/><path class="cls-2" d="M150.26,25.55a6.5,6.5,0,0,0,2.37-.36,1.81,1.81,0,0,0,.91-1.22c.21-1.06.14-2.18.34-3.25a1.56,1.56,0,0,0-1.43-2.07c-.47-.1-.95-.15-1.11-.18-2.76,0-3.34.52-3.51,2.9,0,.45-.07.89-.11,1.33C147.51,25,148,25.53,150.26,25.55Z"/></g></g></g></svg>