<svg xmlns="http://www.w3.org/2000/svg" viewBox="0 0 305.4 179.93"><defs><style>.cls-1{opacity:0.2;}.cls-2{fill:#fe5f58;}</style></defs><g id="Calque_2" data-name="Calque 2"><g id="Phrase_1" data-name="Phrase 1"><g id="P1_m6_3"><g class="cls-1"><path class="cls-2" d="M41.78,132.32c.19.13.47.11.78-.3l-.27-.07Z"/><path class="cls-2" d="M305.28,143c-1-8.71-8.57-13.54-16.93-12.92-.89.07-2.66-.25-2.46.31-.86-1.28-.68-3.82-.63-5.16.17-5,1.55-9.84,2.73-14.63a166.59,166.59,0,0,0,4.78-31.86c.66-13.33-2.92-46.58-24.29-35.85-8.71,4.38-12.82,14.49-16.75,22.79-4.16,8.8-7.91,17.79-11.17,26.95l-.29.83a5.32,5.32,0,0,1-1.43-.15,53,53,0,0,1-5.57-1.61c-3.65-1.25-7.41-2.38-11-3.88-8.21-3.47-17.39-9.26-26.71-7a12.65,12.65,0,0,0-4.93,2.39c-1.33,1.06-2.34,3.51-3.75,4.22-1.24.64-4.8-.05-6.49-.26a15,15,0,0,1-6.38-2.53c-8.07-5.24-14.91-13.13-25.37-12.89-5.4.12-10.1,2.87-15.34,3.42-4.48.48-9-2.35-13.4-3-1.78-.26-3.54-.31-5.14-1.19-2.38-1.32-4.33-3.74-6.5-5.37-1.43-1.08-3.49-2.14-4.44-3.71-1.1-1.83-.9-4.53-.93-6.62-.16-11.17,1.44-20.94-6.17-30.31-5.93-7.3-14.67-11-22.76-8.08a19.33,19.33,0,0,0-4.53-9.53A20.94,20.94,0,0,0,52,.06C40.37.94,34.12,11.3,31.15,21.5c-3.08,10.59-4,22.21-4.1,33.21a60.82,60.82,0,0,1-.58,11c-.31,1.58-1.13,3.13-1.3,4.72-.05.47-.09.8-.11,1-.7.27-1.67.47-2.08.62C16.42,74.44,12.11,78,8.1,83.74.55,94.46-2.75,109.7,2.7,122a28.55,28.55,0,0,0,15.4,15c7.89,3.07,15.68.54,22.51-3.82.26-.17.73-.51,1.17-.83-.39-.26-.45-1.1.21-.51a.94.94,0,0,0,.3.14c.33-.23.56-.39.54-.34a2.43,2.43,0,0,1-.27.41c.41.09.91.15,1.14.2,4.21.93,8.26,2.68,12.53,3.31,3.93.58,7.57-.1,11.43-.73s6.43.31,9.44,2.89c5.12,4.39,9.1,10.1,15.15,13.37a19.23,19.23,0,0,0,10.13,2.6c3-.17,7.65-3,10.28-1.81,1.35.6,2.8,2.9,3.8,4a29.88,29.88,0,0,0,4,3.75A33.27,33.27,0,0,0,132.58,165c8.55,1.94,16.16.51,23.82-3.4,2.14-1.1,5.32-3.53,7.32-2.67.8.34,1.71,1.62,2.42,2.17a12.26,12.26,0,0,0,4.7,2.39c7.16,1.79,13.51-2.31,19.37-6.19,5,6,12.75,9.36,20,12.11a167.94,167.94,0,0,0,36,9.23c17.33,2.42,37.53,2.67,49.89-11.91C301.43,160.5,306.24,151.43,305.28,143Z"/></g><path class="cls-2" d="M292.81,154.88c-1.14,0-2.22-.48-3.41-.08a13.5,13.5,0,0,1-2.87.35h-.3l-2,.08c-.35-.56-.31-.52-.83,0-.3.29-.8.65-1.13.58-.71-.14-.77.35-1,.71a1.58,1.58,0,0,0-1.87.21,8.74,8.74,0,0,0-1,0,6.32,6.32,0,0,0-1.24.23c-.42.13-1.08-.12-1.11.74,0,.49-.55.54-.93.18a1.63,1.63,0,0,0-.75-.5c-.88-.09-1.77-.1-2.65-.12a1.45,1.45,0,0,0-.56.17c-.93.42-1.85.24-1.95-.52a5,5,0,0,1,.23-2.35c.21-.54.07-.68-.28-.87.09-.85.17-1.69.25-2.53a8.33,8.33,0,0,0,.1-1.1,7.9,7.9,0,0,1-.09-2.36c.21-.72,0-.85-.6-1,.35-.19.81-.21,1-.44s.14-.72.2-1.15a2,2,0,0,0-.19-.56c-.24-.41.29-.51.29-.75a6.33,6.33,0,0,0-.18-1.13,5.15,5.15,0,0,1-.08-1.29c.18-1.19.43-2.37.67-3.56,0-.2.26-.39.26-.58,0-.68-.12-1.36-.13-2,0-.2.26-.4.26-.61,0-.78-.08-1.57-.13-2.35,0-.55-.07-1.1-.09-1.5,1.08.16,1.88-.59,2.81-.9,0-.17,0-.34,0-.51.84.16,1.08-.14.9-1.06.81-.21.65-1,.6-1.41a6.39,6.39,0,0,0-2.22-3.87,1.77,1.77,0,0,1-.47-1,9.76,9.76,0,0,1,0-1.53,4.32,4.32,0,0,0,.47-1l.66-1.87.21.08A9.12,9.12,0,0,1,274,113a2.39,2.39,0,0,1-.11-.78,10.41,10.41,0,0,1,.42-1.34c.23-.68.53-1.33.69-2,.12-.52.84-1.07,0-1.58l.51-.64-.31-.2c.2-.51.64-1.08.53-1.49-.2-.71.26-1.12.37-1.67,0-.09.15-.2.12-.26-.39-.86.17-1.41.65-2a1,1,0,0,0-.34-1.3A2.89,2.89,0,0,0,277.72,97l.53.05a5.82,5.82,0,0,1,.7-4.22.78.78,0,0,1-.06-.51,6,6,0,0,0,.32-.86c.05-.33-.09-.71,0-1,.32-1.16.71-2.3,1.05-3.45a3.56,3.56,0,0,0,.05-.65,6.57,6.57,0,0,1,.77-2.06A15.09,15.09,0,0,0,281.6,81a8.05,8.05,0,0,1,.44-1.91,6.94,6.94,0,0,0,.6-3.06c-.09-1.57-.14-3.15-.26-4.72A3.46,3.46,0,0,0,280,68c-.29-.12-.67,0-.95-.14a1.76,1.76,0,0,0-2.21.26c-.11.1-.26.24-.37.22-1-.18-1,.75-1.36,1.21-.06.07,0,.24-.11.28a2.73,2.73,0,0,0-1.1,1.76c-.37,1.27-.7,2.57-1.17,3.8a3.2,3.2,0,0,0-.22,1.25,1.86,1.86,0,0,0-.28.75c-.29,1.24-.52,2.51-.9,3.72-.51,1.63-.6,3.34-1.35,4.93a13.4,13.4,0,0,0-1,2.86c-.09.39-.58.87.27,1.2l-.87.12c-.68,2.72-1.35,5.39-2,8.05l.73.46c-.25.16-.41.32-.57.33-.49,0-.88.07-.56.73,0,.07-.08.22-.14.32a12.9,12.9,0,0,0-1.09,2.8c-.11.28.13.69,0,1-.24.67-.63,1.29-.87,2a13.76,13.76,0,0,0-.83,2.91c0,.41.13.77-.6,1l.71.13a2.6,2.6,0,0,0-1.27,2.61c-.22.27-.56.5-.57.74a3.42,3.42,0,0,1-1.12,2.27s0,.1,0,.17l.29.11c-.25.82-.48,1.6-.74,2.38,0,.12-.2.29-.3.28a5.16,5.16,0,0,1-.84-.21l.33-.86c-.63-.12-1.35-.27-2.07-.39l-3.39-.55a9.72,9.72,0,0,0-3.91-.07c-.64.16-1.52-.26-1.91.66,0,0-.11,0-.16,0a8.94,8.94,0,0,0-1.85.62A16.18,16.18,0,0,0,244,119c-.27.19-.48.75-1,.28a2.89,2.89,0,0,0-.45.36l-.23.2-.53-.21a2.62,2.62,0,0,0-.32.62,3.17,3.17,0,0,1-2.14,2.56.5.5,0,0,0-.21.2c-.34.55-.66,1.12-1,1.66-.2.29-.49.51-.7.79a8.09,8.09,0,0,0-.51.8c0,.16.12.42.22.75l-.61-.3c0,.32.07.57.11,1l-.36-.36c-.75.49-1.45.89-2.07,1.39-.39.31-.92.79-.92,1.18,0,.74-.68,1.05-.75,1.72a3.21,3.21,0,0,1-.71,1.24c-.31.46-.64.91-1,1.36s-.7.91-1.12,1.46c0,0-.25-.19-.35-.13a5.71,5.71,0,0,1-2,.77,11.64,11.64,0,0,0-1.86.63c-.49.16-.83.85-1.49.41,0,0-.12.09-.19.12l-.71.26a4.07,4.07,0,0,1-.58.22,6.42,6.42,0,0,1-.87.19c-.06,0-.13-.18-.2-.28l.17-.08c-.07-.4-.14-.67-.16-.94a6,6,0,0,1-.07-2.26c.24-.66-.16-1.61.76-2,0,0,0-.15,0-.22,0-.62,0-1.24,0-1.86a6.54,6.54,0,0,1-.11-1.23,5.53,5.53,0,0,0-.19-3.48,10.14,10.14,0,0,1-.47-1.32l.22-.19a4.52,4.52,0,0,1-.41-3.34.78.78,0,0,0-.24-.62,2.81,2.81,0,0,0-.66-.39,2.39,2.39,0,0,0,.11-.91,9.29,9.29,0,0,1-.66-1.63c-.07-.89-.78-1.36-1.1-2.07a3.45,3.45,0,0,0-.67-.76l.3-.09-.79-.49.1-1a2.25,2.25,0,0,1-.82-2c0-.6.46-1.28-.12-1.88a2.36,2.36,0,0,1-.31-.81c.8-.21.2-.68.07-.87-.51-.73-1.11-1.41-1.76-2.2-.07.32-.1.48-.16.76-.48-.81-1-1.33-1.73-1-.19-.24-.34-.5-.4-.48-.37.1-.72.3-1.08.41a1.93,1.93,0,0,1-.58,0c0,.2,0,.47-.07.74h-.2l-.28-.74-.56.49.24,0c.06.37.11.74.16,1.11l-.8-.34-1.39,2.05c.85,0,.64.67.5.7-.7.18-.5.9-.87,1.24-.14.13-.27.29-.41.42-.5.48-1.37.57-1.46,1.5a6.09,6.09,0,0,1-.43,1.24l-.47-.43c.05.21.11.42.14.53-.34.17-.64.45-.88.41-.56-.09-.5.69-.85.6-.74-.2-.93.42-1.35.72a2.36,2.36,0,0,1-.65.21c-.27.19-.59.6-.94.62a5.37,5.37,0,0,0-1.87.68,19,19,0,0,0-2.33,1.38c-.7.46-1.36,1-2.06,1.48l-1-.13c.06.36.1.54.13.73l-.23.11c-.25-.39-.51-.77-.73-1.17,0-.09,0-.26.11-.38s.31-.33.3-.48a15.07,15.07,0,0,0-.24-1.62,3.07,3.07,0,0,0-.25-.72c-.19-.39-.41-.76-.62-1.14s-.84-.37-.89-.6c-.16-.76-.87-.84-1.28-1.28-.07-.07-.16-.13-.24-.2l-1.79-1.92a1,1,0,0,0-.21-.08c0,.18-.09.34-.15.58l-.66-.6.53-.43c-.18-.1-.36-.19-.53-.3s-.18-.21-.3-.25c-1-.39-2-.8-3-1.12a14.34,14.34,0,0,0-1.87-.39l-.46.63c-.1-.46-.19-.8-.28-1.18-.39.14-.77.26-1.14.41-.86.33-1.9-.2-2.67.57a1,1,0,0,1-.63.36c-1.13,0-1.64,1.21-2.72,1.39-.43.07-.77.66-1.15,1a4.93,4.93,0,0,1-.78.74c-.38.23-.83.32-1.11.72-.16.22-.38.42-.55.64-.71.93-2.19,1-2.54,2.34,0,.06-.12.1-.17.16-.62.71-1.24,1.43-1.85,2.16-.28.33-.54.69-.8,1l.51.2c-.25.19-.51.28-.58.45a2.28,2.28,0,0,1-1.1,1.49c-.16.07-.21.36-.31.56-.4.84-.69,1.78-1.56,2.1-.09.7-.17,1.34-.26,2-.57-.32-.57.12-.63.48-.13.8-.27,1.6-.37,2.41-.14,1.16-.91,2.32.06,3.49-.47.35-.89.69-1.33,1s-.93.59-1.42.86c-.72.39-1.46.74-2.19,1.13-.29.16-.55.52-.83.53-.73,0-1.17.84-1.95.67a2.51,2.51,0,0,0-.18.49l-.85-.14c-.17.23-.38.57-.43.55-.66-.3-1.24,0-1.85.18a10,10,0,0,1-1.45.15l-2.73.22c0,.06-.07.26-.1.39-.49,0-.9,0-1.31,0s-1.14-.29-1.45-.07c-.69.48-1.2.13-1.78-.06a4.58,4.58,0,0,0-2.67-.5s-.06-.07-.18-.21l.56-.22a1.61,1.61,0,0,0-.62-.35c-1.41-.51-2.82-1-2.82-2.92,0-.06-.09-.12-.11-.18-.12-.36-.22-.72-.33-1.08,0-.13-.08-.27-.1-.32,0-.31-.09-.55-.13-.78a1.21,1.21,0,0,1-.1-.36c.08-.83.14-1.66.26-2.48.05-.34.29-.66.34-1a6.78,6.78,0,0,0,0-1.19c0-.26.39-.63.31-.82-.27-.65.22-1,.36-1.56a4.71,4.71,0,0,0,.22-.73,6.78,6.78,0,0,1,.2-1.65c.53-1.23.9-2.5,1.33-3.76a11.86,11.86,0,0,1,2.49-4.35.54.54,0,0,0,.09-.12c.34-.76.69-1.52,1-2.24h-.57l.76-.45c-.37-.47-.17-.68.26-.84.12,0,.2-.2.3-.3.81-.92,1.59-1.85,2.42-2.74a15.09,15.09,0,0,0,2.48-2.91,2.34,2.34,0,0,1,1.54-1.1,1.43,1.43,0,0,0,1-.48,8,8,0,0,1,1.1-.81,6.32,6.32,0,0,0,1.35-.85,3.91,3.91,0,0,0,1-2,4.33,4.33,0,0,0-.18-2.84,4.83,4.83,0,0,0-3.48-1.63,14.78,14.78,0,0,0-3.21.57,12,12,0,0,0-3,1.79,22.67,22.67,0,0,0-2.46,2.44c-.4.42-1.17.64-.93,1.48,0,0-.19.14-.3.2a2.47,2.47,0,0,0-.46.23,6.34,6.34,0,0,0-.78.68c-.4.43-.76.89-1.26,1.48-.3,0-.65.25-.35.88l-.71-.09c0,.25.07.48,0,.61-.2.33-.5.59-.7.91s-.16.59-.33.83c-.35.53-.79,1-1.14,1.55s-.58,1.05-.9,1.57a13.92,13.92,0,0,0-.92,1.39c-.29.65-.44,1.36-.71,2-.21.52-.51,1-.77,1.5-.41.83-.82,1.66-1.24,2.49a3.29,3.29,0,0,0-.46.89,13,13,0,0,0-.12,1.7c-.6.34-1,.59-1.42.79a6,6,0,0,1-1,.33c-.69.18-1.56.14-2,.55-.79.69-1.66.48-2.49.66-.64.15-1.28.26-2,.42-.27-.32-.66-.28-1.14.07a4.25,4.25,0,0,1-2.27,1.09,14.78,14.78,0,0,0-2.44.67c-.19,0-.43-.1-.65-.15s-.26-.07-.34,0c-.33.19-.64.41-1,.62,0-.08,0-.1,0-.12,0-.68-.17-1.29.39-2a3.17,3.17,0,0,0,.43-2.49c0-.09.07-.23.12-.33a4.6,4.6,0,0,0,.65-1.21,7.21,7.21,0,0,1,1.31-3.36c.1-.12.06-.38,0-.58-.1-.77.11-1,.77-1.14.15-.32.3-.76.36-.75.63.13.44-.45.64-.67.43-.5.18-1.56,1.25-1.46.14-1.52.84-2.27,2.11-2.15-1-.51-.2-.84,0-1.14.33-.45.88-.75,1.14-1.22a2,2,0,0,1,.78-1,23.57,23.57,0,0,1,2.15-1,6.73,6.73,0,0,1,1.2-.26,5,5,0,0,1,1-.23c.92,0,2.69-.73,3.06-1.47s1.37-1.37.4-2.38l.91-.15-.58-.34c.74-.86-.37-.47-.44-.75a.63.63,0,0,0-.06-.51c-.1-.12-.38-.15-.42-.27a1.56,1.56,0,0,0-1.41-1.11c-.71-.12-1.32-.69-2.12-.48-.13,0-.31-.17-.48-.23a1.69,1.69,0,0,0-.59-.19c-1,0-2.07.11-3.16.17l.25.54c-.32,0-.62-.2-.82-.11-.41.17-.74.51-1.14.71s-.65.14-.41.61c-.2,0-.39.11-.59.14s-.41,0-.42,0c-.22.92-1.2,1-1.74,1.52-.2.21-.42.56-.85.39-.06,0-.22.14-.29.24-.64.89-1.25,1.8-1.9,2.68-.27.37-.76.61-.6,1.2,0,0-.18.19-.3.22a2.71,2.71,0,0,0-1.6,1.44c-.21.38-.39.9-.72,1.07-.87.43-.63,1.52-1.33,2,.43,1-1,1.07-.92,1.89-1.12.09-.37,1.38-1.14,1.75a1.13,1.13,0,0,0-.54.85,5.48,5.48,0,0,1-.82,2.51,8.55,8.55,0,0,0-.57,1.92c-.17.57-.34,1.14-.51,1.74a6,6,0,0,0-1.17-.5c-.28-.05-.61.22-.9.18-1.74-.25-3,.83-4.42,1.5a.76.76,0,0,0-.46,1.16c0,.09,0,.23-.07.41a3.81,3.81,0,0,1-.53-.25,2.36,2.36,0,0,1-.37-.39c-.14,1.07-.24,1.14-1.06,1l-2,1.44c0-.47-.06-.81-.09-1.15a5.51,5.51,0,0,1-.06-.57c0-.17,0-.44.06-.5.81-.46.42-1.37.78-2a3,3,0,0,0,.19-.89l-.41-1.19.19-.15c-.07-.77-.13-1.42-.2-2.1a1.33,1.33,0,0,0,.43-1.83,7.43,7.43,0,0,0,.45-1.06,10.7,10.7,0,0,1,.34-1.84c.3-.67,0-1.46.55-2-.47-1,.53-1.71.54-2.67,0-1.51,1.45-2.71,1.16-4.36a.19.19,0,0,1,.09-.16c.58,0,.31-.38.24-.67a1.26,1.26,0,0,1,0-.61c.47-1.34,1-2.67,1.44-4,.18-.52.37-1.07-.37-1.32.14-.09.39-.18.4-.28,0-.68,0-1.37,0-2.06,0-.16-.07-.32-.08-.48s0-.57-.06-.86.09-.49,0-.58c-.35-.5-.67-1.13-1.18-1.38-1.09-.55-.44-1.33-.3-1.9A1.16,1.16,0,0,0,96,85.71c-.1-.12-.32-.27-.29-.34.33-.87-.71-1-.88-1.57-.06-.24-.43-.4-.76-.66l-.37.17c-.11-.17-.18-.38-.28-.4-.87-.18-1.75-.33-2.63-.48-.61-.1-1.25-.42-1.81,0a4.69,4.69,0,0,1-2.22.66,5.14,5.14,0,0,0-1.1.24,12.71,12.71,0,0,0-3,2,20.1,20.1,0,0,0-1.65,1.27,9.27,9.27,0,0,0-.73,1.05c-.52.67-1.06,1.33-1.61,2-.4.47-.83.92-1.24,1.38a5.59,5.59,0,0,0-1,1.16,12.47,12.47,0,0,0-1.21,2.29,9.1,9.1,0,0,1-1.22,2.27c-.32.55-.45,1.22-1,1.61s-.48.74-.16,1.2c0,.07,0,.24-.08.36-.49-.2-.38.2-.36.41s.1.72.16,1.1c-.44-.09-.61.07-.7.59a7.55,7.55,0,0,1-.81,2.83c-.4.62.16,1.22-.31,1.74-.13.15-.28,1.42-.43,1.58a3,3,0,0,0-.64,2.7,5.77,5.77,0,0,1-.58,3.2c0,.06-.17.06-.28.09.11.18.23.38.37.59l-.56.51c.17.32.49.75.42.83-.43.49-.12.83.06,1.27a3.53,3.53,0,0,1,.29,1.39,4.17,4.17,0,0,0,.66,2,4.91,4.91,0,0,1,1.16,1.16,4,4,0,0,0,3.19,2.31c.32,0,.79-.21,1-.07,1,.83,2,.31,3.08.22s1.68-.93,2.7-.48c.07,0,.25-.14.35-.24.51-.53,1-1.07,1.52-1.59.13-.11.43-.22.52-.15s.18.35.21.54c.1.79.18,1.57.3,2.62a2.13,2.13,0,0,0,1.15,2.9,1.41,1.41,0,0,0,.09.51,11.29,11.29,0,0,0,1.06,1.41c.58.63,1.07,1.48,2.17,1.24.08,0,.19.16.31.21l1.57.58s.09-.05.14-.05c.32,0,.64-.07,1-.07a5.4,5.4,0,0,0,1.33,0,11.45,11.45,0,0,0,1.64-.74.23.23,0,0,1,.18.06c.33.41.57.06.9,0s.78-.11,1-.55a1.62,1.62,0,0,1,.53-.51c.95-.64,2-1.2,2.85-1.93a12.75,12.75,0,0,0,1.61-1.88l-.15-.08.82-.11c.11.3.33.61.29.88a3.34,3.34,0,0,0,1.1,2.72,5.68,5.68,0,0,0,3,2.11,9.45,9.45,0,0,1,2,.37c.52.24,1.23-.06,1.93.07a8.2,8.2,0,0,0,3.07-.17c.66-.13,1.48-.1,1.92-.83,0,0,.15,0,.21,0,.88.32,1.46-.78,2.49-.45.56.19,1.43-.54,2.14-.9.25-.12.41-.41.66-.52a16.25,16.25,0,0,0,4.25-2.12.62.62,0,0,1,.19-.07c.13.24.36.45.35.65,0,.54-.18,1.07-.27,1.6a5.85,5.85,0,0,0-.16,1.23c.07,1.27.17,2.54.3,3.8a13.19,13.19,0,0,0,.44,2.51,6.75,6.75,0,0,0,1,1.51l.31-.13-.18.17,1.35,2s0,.23-.05.44l.93.27-.12.16c.29.27.58.52.86.79a8.53,8.53,0,0,1,1.11,1.14,1.59,1.59,0,0,0,1.81.76l.22.56.38-.32c.42.69.44.65,1.13.71.49,0,1.26.1,1.37.38.31.73.82.64,1.38.66.2,0,.4.07.6.06s.7-.06,1-.09.44,0,.67,0c.83-.07,1.67-.18,2.5-.27.08,0,.2,0,.22.07.25.62.77.38,1.2.36s.92-.21,1.3-.07a3.35,3.35,0,0,0,3.34-.71l.18.65c.3-.15.55-.4.8-.39a3.19,3.19,0,0,0,2.37-1.24c-.87-.77.06-1.15.28-1.68,1,0,1.23.7,1.32,1.42l.71-.21,3.41-1.21a2.85,2.85,0,0,1,.63-.27,3.76,3.76,0,0,0,2.44-1.43,2.29,2.29,0,0,1,.46-.34,3.21,3.21,0,0,0,.71-.53,1.1,1.1,0,0,1,1.55-.27,22.27,22.27,0,0,1,3,2.13c.65.63,1.42.57,2.13.84.15.06.45-.16.55-.08a2.75,2.75,0,0,0,2.51.41c0,.92.61.42,1,.44a12,12,0,0,0,1.46-.08l.07.25c.08-.18.15-.37.16-.4.48.31.77.65,1.08.67,1,.08,2,0,3,0a5.7,5.7,0,0,0,3.63-.66,12.91,12.91,0,0,0,1.38-1.27l.5.12c.58-1.21,1.18-2.46,1.81-3.79.67,0,.94-.54.89-1.34h.51c.12-.29.19-.63.27-.63.89,0,.84-.71,1.05-1.31.28-.75.18-1.68,1-2.26.19-.14.23-.49.32-.75.3-.86.59-1.73.9-2.65,0-.29-.09-.68-.13-1l1.44-.93c.26.34.51.55.92.1a.82.82,0,0,1,.69-.22.73.73,0,0,0,1-.55c.33-.06.53-.09.73-.14.59-.17,1.17-.38,1.77-.53s1.19,0,1.53-.33a6.89,6.89,0,0,1,2.22-1.55c.76-.26,1.5-.57,2.29-.88l.06-.3a3.14,3.14,0,0,0,.88,0c.85-.3,1.69-.65,2.54-1,.46-.18.95-.33.67-1.11l.67.34a6.7,6.7,0,0,0,1.33-1c.51-.65,1.74-.47,1.78-1.6a2.13,2.13,0,0,1,.86.16c.16.11.14.47.23.7s.24.5.37.74.92.61.32,1.21c0,0,.11.22.11.33,0,.74.77,1.31.38,2.17-.13.29.23.79.4,1.27,0,.06-.38.33-.33.5s.37.5.45.58a8.33,8.33,0,0,0,.46,4.26l-.51.1c0,.18.1.32.07.43-.27,1-.73,1.92-.13,2.95.13.21,0,.6-.06.89-.16.7-.35,1.38-.51,2.08-.08.3.27.5,0,1a3,3,0,0,0-.21,2.07,11.58,11.58,0,0,1,.55,2.1c0,.15.28.26.43.4a1.41,1.41,0,0,0,.27,2c.94.63,1.29,1.84,2.43,2.23.45.15.84.63,1.26.63a16.69,16.69,0,0,0,2.89-.37c.07,0,.23-.12.39-.17a7.88,7.88,0,0,0,2.33-1.08c.4-.31.67-.56,1.22-.31-.07-.25-.11-.41-.16-.58l.11-.12.68.56,1.89-1,1.43.08-.16,1.13.68-.08c-.7,1.19-.75,1.36-.38,2,.12.18.39.28.65.47a4,4,0,0,0,1.26,2.67c.36.37.69.76,1.08,1.12a5.79,5.79,0,0,1,1.06,1.83c.22.45.38.81,1,.9s1,.68,1.6.72,1.28,1,1.95.08a.47.47,0,0,1,.27.1c.42.44.89.43,1.39-.06a3.6,3.6,0,0,0,3.08-.34c.25.43.53.46.93.15a11.23,11.23,0,0,1,1.21-.75,2.56,2.56,0,0,1,0-.26,2.92,2.92,0,0,0,.62-.28c.74-.58,1.46-1.19,2.19-1.79.25-.2.5-.51.78-.55.81-.11,1-.75,1.34-1.27l.21.07c.3-.48.5-1.18.8-1.22a.93.93,0,0,0,.92-.81,5.08,5.08,0,0,0,1.16-.95c.4-.42.76-.88,1.13-1.33l-.14-.15.72,0,.26-.73c.51.22.55-.22.74-.5.39-.56.81-1.1,1.3-1.76-.25-.43-.49-.88.47-.77a.83.83,0,0,0,.62-.48c.31-1,1-1.86,1.33-2.91a4.31,4.31,0,0,1,1.88-2.77.31.31,0,0,0,.12-.19,3.85,3.85,0,0,1,1.2-2,.37.37,0,0,0,.07-.14c.15-.49.29-1,.45-1.49a3.38,3.38,0,0,1,.28-.49c0,.92.05,1.73,0,2.52a12.51,12.51,0,0,0-.32,2.22c.07.66-.07,1.53.82,1.93-1,.45-1.08.81-1.21,1.82-.18,1.35.34,2.64,0,4-.28,1.18-.28,2.44-.6,3.63a1.19,1.19,0,0,0-.06.37c0,.92,0,1.85.09,2.76a8.53,8.53,0,0,0,.3,1.1c0,.21.08.56,0,.63-.59.38-.76.64-.42,1.45a9.17,9.17,0,0,1,.17,2.85,27,27,0,0,0,.29,2.84c.13.68.53,1.32.59,2a.77.77,0,0,0,.69.81,1.23,1.23,0,0,1,.4.19c.79.55,1.55,1.15,2.38,1.63.29.17.75.07,1.31.1,0-.05,0,.16.18.22a10.18,10.18,0,0,0,5,1c.58-.07,1.53.23,1.89-.7a.34.34,0,0,1,.28,0c.56.74,1.13.25,1.71,0a6.75,6.75,0,0,1,1.67-.48c.81,0,1.65.19,2.44.08a6.28,6.28,0,0,0,2.58-.83c.74-.49,1.57-.28,2.3-.71.94-.55,2-.87,3-1.36.49-.24.9-.9,1.35-.91.7,0,.65-.67,1.1-.92.86-.46,2.09-.93,1.89-2.37,0-.06.13-.15.2-.22.3-.27.7-.49.87-.83C294.07,155.59,293.87,154.86,292.81,154.88ZM89.3,94.25l-.47,1-.33.08.21.12a9.25,9.25,0,0,1-.43,1.5,9.49,9.49,0,0,0-.83,3,2.22,2.22,0,0,1-.45.78c-.21.61-.41,1.16-.6,1.72-.11.31-.21.62-.35.92-.49,1.12-1,2.22-1.5,3.34-.32.75-.73,1.49-1,2.2a6.82,6.82,0,0,1-1.56,2.3c-.53.55-.85,1.24-1.42,1.75a16.69,16.69,0,0,0-1.53,1.8.75.75,0,0,1-.24.19c-.47.3-1,.58-1.44.88.29-1.1.1-2.38.87-3.5-.6-.3-.5-.78-.32-1.38.08-.26.65-.7,0-1a.75.75,0,0,1,.13-.56c.84-.62.37-1.72.92-2.44l-.11-.06c.35-.76.68-1.49,1-2.22.05-.11.19-.18.25-.29.22-.36.71-.69.13-1.14a.29.29,0,0,1,0-.06,2.88,2.88,0,0,0,.78-1.47,1.85,1.85,0,0,0,.19-.94.78.78,0,0,1,.36-1c.12-.06.1-.4.15-.66.11-.09.48-.23.5-.42.11-1,.91-1.61,1.41-2.38.37-.58,1-1,1.39-1.49a6.28,6.28,0,0,0,.74-1.69c.66.56,1.11-.4,1.51-.71,1.13-.86,1.17-1,2,.19C88.76,93.41,88.77,94.08,89.3,94.25ZM184,119.93c-.36.41-.18.79,0,1.21a1.52,1.52,0,0,1-.15,1,7.37,7.37,0,0,0-.51,2.72c.07,1.26-.75,2.13-1,3.21a1.93,1.93,0,0,0-.11.52,1.8,1.8,0,0,1-.61,1.44,6.3,6.3,0,0,0-.9,2.09l-.42-.3a1.45,1.45,0,0,0,0,.28c.06.69,0,1.34-.79,1.61,0,0-.07.07-.09.11l-1.19,2.37c-1-.25-1.95-.56-2.93-.71a17.31,17.31,0,0,0-2.28,0c-.81,0-1.77.22-2.38-.13-.76-.46-2.1-.16-2.27-1.19-.14-.77-.72-1.37-.53-2.35s.64-1.93.9-2.9c0-.09.12-.16.23-.29l-.47,0c.79-.26.91-.81.82-1.51-.06-.52.39-.74.64-1.1.46-.64.73-1.41,1.18-2.06s1-1.2,1.5-1.81.73-1,1.13-1.46c.26-.31.61-.55.85-.88a2,2,0,0,0,.21-.67c.42-.24.83-.41,1.18-.66.85-.63,1.62-1.38,2.52-1.92a3,3,0,0,1,2.66-.11,8.42,8.42,0,0,0,1.8.42A1.61,1.61,0,0,1,184,118.9a1.59,1.59,0,0,0-.12.62C183.92,119.66,184.07,119.87,184,119.93Zm71.68,7.88a17.78,17.78,0,0,0-1.38,2.76,8.57,8.57,0,0,1-1.35,2.05,5.2,5.2,0,0,0-.39,1l-.32.77.09.05c-.2.3-.36.57-.54.82-.57.82-1.14,1.63-1.7,2.45l-.21-.11.72,1-2.22.34c.2.68-.06,1-.8,1.22-.37.11-.61.72-.87,1.13s-.64,1.09-1,1.61c-.12.17-.39.24-.56.38-.54.43-1,.89-1.59,1.31a5.79,5.79,0,0,1-.85.47c.25.66.25.66-.43.69a1.29,1.29,0,0,0-1.05,1.07,8.4,8.4,0,0,1-1.59.64,5.93,5.93,0,0,1-1.51-.13L236.87,146l.2-.44c-.26-.75-.5-1.42-.75-2.15.38-.2.73-.39.3-1-.19-.29,0-.91.18-1.33.54-1.49,1.11-3,1.73-4.42a3.5,3.5,0,0,1,.75-.85s.06.09.13.2l.13,0c0-.2-.11-.39-.16-.59l.14.08,1-1.83c.39.28.68.19.84-.42a2.2,2.2,0,0,1,.56-.9c.44-.49.95-.91,1.37-1.41a5.62,5.62,0,0,0,.51-1l.08.07a11.68,11.68,0,0,1,1-1.18,5.36,5.36,0,0,1,1.34-.93c.88-.39,1.17-1.26,1.73-1.92.1-.13.16-.36.28-.4a17.29,17.29,0,0,1,2.62-.65,18.8,18.8,0,0,1,2.49,0c.71,0,1.42-.08,2.12,0,.31,0,.58.34.9.44.68.22,0,.51.08.73C256.58,126.78,256,127.23,255.7,127.81Zm1.81-.41h0l0,0Z"/><path class="cls-2" d="M57.08,118c-1.47-.76-2.94-1.49-4.41-2.23a2.56,2.56,0,0,1-.68-.35,2.33,2.33,0,0,0-2.06-.72c-.4-.42-1-.75-1-1.18-.25-1.1-1.2-1.6-1.9-2.16s-1.64-.61-2-1.57c-.21-.61-1-.92-.92-1.69a3.76,3.76,0,0,0-.07-1.06c-.07-.28-.28-.53-.38-.81s-.09-1-.35-1.26a1.44,1.44,0,0,1-.23-1.48,2.63,2.63,0,0,0,.06-.48c0-.32,0-.63,0-.94.07-.12-.16-.22-.17-.33a20.47,20.47,0,0,1,0-2.35c0-.8.24-1.59.27-2.39,0-.63-.17-1.28-.11-1.91.07-.79-.1-1.68.54-2.33.45-.45,1-.83,1.45-1.24a2.25,2.25,0,0,0,.43-3,9,9,0,0,0-.76-1c-.17-.18-.45-.25-.61-.42-.87-.93-.5-2-.39-3.09.13-1.27.3-2.54.43-3.81.1-.91.19-1.82.24-2.73a11.54,11.54,0,0,0-.07-1.34,18.43,18.43,0,0,0,1.43-6.91l.32,0c0-.45,0-.85-.06-1.26L45.8,68a6.67,6.67,0,0,0,.46-1.2c.15-.85.19-1.71.34-2.55.18-1.09.43-2.17.63-3.21l-1-.27,0-.32,1.06-.35a12.34,12.34,0,0,0,.45-1.58c.18-1.1.28-2.21.4-3.33,0-.21-.17-.48-.09-.63a4.11,4.11,0,0,0,.3-2.47c0-.18.2-.4.34-.58s.27-.11.28-.18c.15-1.06.29-2.12.39-3.19a9.54,9.54,0,0,0-.05-1.3,4.06,4.06,0,0,1,.08-.69c.18-1,0-2,.63-2.87.15-.23,0-.65,0-1l.1,0c.2-1.17.4-2.34.61-3.53,0-.28,0-.56.06-.84a5.23,5.23,0,0,0,.07-.68c0-.71-.11-1.42-.1-2.13s.08-1.66.11-2.49c0-.27-.15-.63,0-.8.72-1,.29-2.16.57-3.22.07-.25-.16-.58-.27-.94l.65.35a4.2,4.2,0,0,1,.06-.62c.15-.59-1-1.28.14-1.8a.15.15,0,0,0,0-.13c-.57-.67.1-1.39-.08-2.1-.11-.45.14-1,.14-1.47,0-.69-.08-1.37-.09-2.05a14.66,14.66,0,0,0,0-2,2,2,0,0,0-.86-1.65c-.28-.16-.43-.55-.68-.9l-.61.42c0-.37.06-.63.09-.91a14.78,14.78,0,0,0-2.12.19,18,18,0,0,0-2.11.7l.17.12-.31.69c-.72-.39-.72.41-1,.66a1.53,1.53,0,0,0-.42,1.19c.14.71-.45,1.46.14,2.13,0,.05-.11.26-.14.4a2,2,0,0,0-.09.53,8.73,8.73,0,0,1,.1,1.34c0,.44-.25.85-.28,1.29-.06.8,0,1.61,0,2.41A3.81,3.81,0,0,1,43.32,28c-.27.43-.24.68.08,1a.69.69,0,0,1,.1.19l-.41.19c.39.88.37.95,0,1.09-.12.81-.22,1.52-.33,2.23a3.93,3.93,0,0,0-.13.63c0,.5.45,1-.13,1.48,0,0,.07.27.11.41s.12.23.1.34c0,.34-.12.67-.19,1s-.06.89-.3,1.08c-.94.76,0,1.71-.33,2.56-.23.61.09,1.42.15,2.14.08,1-.82,1.94-.29,3,0,0-.14.07-.18.13a3.64,3.64,0,0,0-.4,3c.07.42.49.82-.23,1.16-.23.11-.22.74-.32,1.14-.07.08-.27.19-.29.33a3.9,3.9,0,0,0,.06.87c-.66.26-.71.64,0,1.24-.14.2-.37.38-.4.59-.17,1-.2,2-.43,2.9a20.39,20.39,0,0,1-.94,2.53.49.49,0,0,1,.12.24c0,.53-.25,1.16,0,1.57a1.71,1.71,0,0,1-.12,2.13,2.15,2.15,0,0,0-.55,1c-.08.89,0,1.8,0,2.7,0,.69.26,1.53,0,2.05-.53.92.07,1.67,0,2.42l-.72.15.18.72c-.57.22-1,1.66-.75,2.51-.67.44-.67.67-.24,1.15,0,.78,0,1.34-.08,1.9-.14,1.51-.35,3-.43,4.51-.06,1-.91,1.84-.31,2.87,0,0-.11.18-.14.17-.51-.18-.63.44-1,.5a4.69,4.69,0,0,1-1.76.17c-1.08-.26-1.88.42-2.81.61a2,2,0,0,0-1.16.61c-.3.33-1,.25-1.46.51A14.15,14.15,0,0,0,25.66,89l.14.14-1-.13L22.25,91.4c-.27.09-.82-.12-1,.53,0,.1-.24.15-.38.2s-.65.06-.77.24a6.39,6.39,0,0,0-.52,1.31l-.31-.06a7.05,7.05,0,0,1-2,2.3.35.35,0,0,0-.1.32,1.9,1.9,0,0,0,.33.47l-.15.31c-.7-.67-.93-.23-1.15.27-.07.15-.19.41-.28.41-.56,0-.55.45-.73.78a3.67,3.67,0,0,1-.58.87c-.33.33-.9.55-1,.93a9.69,9.69,0,0,0-.35,2c-.49.73-.9,1.26-1.23,1.84-.23.4-.57.88-.5,1.27.12.69-.31.84-.66,1l.32.53-.53.18.13.07-.66,1c-.15.31-.44.88.38,1-.18.07-.35.15-.51.23l.3.61c-.2.14-.48.24-.52.39a18.6,18.6,0,0,0-.4,2.35,9.52,9.52,0,0,0,.24,1.8,7.43,7.43,0,0,0,.91,3.25,14.66,14.66,0,0,1,.84,1.27c.54,1.18,1,1.5,2.07,1.42.26.39.42.86.74,1a13.25,13.25,0,0,0,2.35,1c.5.17,1.12,1.16,1.51,0,.74.15,1.33.7,2.12.28a.74.74,0,0,1,.6,0c.76.51,1.31,0,1.89-.34a.8.8,0,0,0,1.18.1,2.77,2.77,0,0,1,.75-.43c.52-.27,1.37,0,1.46-.82a7.22,7.22,0,0,0,.78-.25c.78-.35,1.55-1,2.33-1,1.15,0,1.83-.8,2.59-1.28a16.86,16.86,0,0,0,2.9-2.89c.48-.51,1.19-1,1.35-1.57s.78-.68,1.1-1.06c.06-.07.77.21.77.33,0,.82.62.93,1.2,1.12,0,.21-.18.47-.1.58.4.56.76,1.33,1.32,1.55,1.28.5,2,1.59,3,2.41a13,13,0,0,0,3.82,1.93c.21.09.55-.07.74,0a11.21,11.21,0,0,0,3.06,1,5.15,5.15,0,0,0,3.12-.15c.35-.12.69-.27,1-.4.55-.21,1.13-.38,1.65-.64s1.05-.68,1.59-1a.68.68,0,0,0,.08-1.2A7.38,7.38,0,0,0,57.08,118ZM33.56,98.9c-.32.47-.63.95-.9,1.36l.85.77,0,.21c-.93-.07-.92.43-.9,1.07a1.43,1.43,0,0,1-.42,1,3.26,3.26,0,0,0-.69,1.57c-.14.51-.32,1-.48,1.51,0,.07-.1.16-.07.2.39.76-.22,1.07-.61,1.52-.14.17-.08.52-.12.82l-2,1.75c-.42-.15-.63.38-.7.8-.14.86-.88,1.19-1.38,1.7-.85.88-2.13.82-3.2,1.22-.57.21-1.12.48-1.69.68a2.57,2.57,0,0,1-.83.13,3.29,3.29,0,0,1-1.09-.07,9.49,9.49,0,0,1-1.5-.66,3.81,3.81,0,0,1-.6-.54,3.86,3.86,0,0,0,.76-2.82,1.61,1.61,0,0,1,.26-1.06,16.85,16.85,0,0,1,1.35-1.52l-.63-.3c.88-.52,1-1,.55-1.7l.76-.35a2.54,2.54,0,0,1,1.18-2.1c.16-.09.23-.33.36-.48,1-1.23,2-2.51,3.11-3.67a11.07,11.07,0,0,1,1.82-1.21c.32-.23.79-.48.86-.8a2.1,2.1,0,0,1,1.64-1.67,29.85,29.85,0,0,0,2.68-1.41A14.08,14.08,0,0,1,34,94.29a4,4,0,0,0,0,2.4c.16.34-.19,1.1-.53,1.46C33,98.7,33.45,98.79,33.56,98.9Z"/><path class="cls-2" d="M73.26,61.23c.34.13.68.21.67.26,0,.58.46.46.66.43a7.17,7.17,0,0,0,2-.44,4.25,4.25,0,0,0,1.7-1.12,22.86,22.86,0,0,0,1.69-2.82,24.93,24.93,0,0,1,1.34-2.37,2.66,2.66,0,0,0,.64-1.44c0-.75.13-1.49.19-2.24,0-.28,0-.55,0-.83l.11,0,.29-1.74c.09-.1.32-.25.37-.45a12.8,12.8,0,0,1,.29-1.68,4.62,4.62,0,0,0-.27-3.54,3.91,3.91,0,0,0-2.5-2.09c-1.35-.54-2.43.25-3.33,1.1a17.66,17.66,0,0,0-1.79,2.3l.41.92-.92-.2-.15.13c1,1,.25,2.12.26,3-.21.33-.51.58-.52.84,0,.89-.07,1.72-1,2.22l.71.33c-.62.18-.61.45-.13.8l-.43-.05-.15.18.6.18-.14.2-.64.06.2.54-.2,0c-.05.25-.12.5-.16.75-.13.72-.25,1.45-.35,2.17s-.51,1.62-.24,2.17A6.85,6.85,0,0,1,73.26,61.23Z"/></g></g></g></svg>