<svg xmlns="http://www.w3.org/2000/svg" viewBox="0 0 325.42 140.41"><defs><style>.cls-1{fill:#fff;opacity:0.2;}</style></defs><g id="Calque_2" data-name="Calque 2"><g id="Contours"><path class="cls-1" d="M323.6,48.75c-.47-4.36-.15-9-1.55-13.2-3.11-9.31-14.58-8.33-22.54-8.89-5.75-.4-11.34-1-16.89,1.05-2.72,1-5.28,3.2-8.07,3.89-3.2.79-6.86-1-10-1.46-6.81-1.06-13.89-1.3-20.76-1.92a26.34,26.34,0,0,0-9.4.69c-.75.19-1.48.43-2.21.66-.35-6.44-3.06-12.71-8.37-16.7-7.46-5.59-16.67-3.25-23.13,2.69-5.55,5.12-10.28,14.53-9.78,22.43a15.54,15.54,0,0,0-5.38,2.44,32.1,32.1,0,0,0-5.72,5.51,18.44,18.44,0,0,0-11.3-1.27,30.75,30.75,0,0,0-8.91,3.59l-1.28.71-.06,0c-.88-.88-2.17-2.25-2.24-2.32-4.1-4.47-9.42-8.53-15.23-10.47-5.5-1.83-11.29-1.65-16.94-.69C120.87,27,118.12,18.2,108.6,15c-5.68-1.92-13.31-3.14-19.26-2.2-5.22.83-8.39,4-11.77,7.33-2-3.81-3-8.47-5.54-11.94-3.16-4.34-7.58-7.47-13-8C47.78-1.08,35.4,6.58,27.38,13.78A72.11,72.11,0,0,0,6.88,46.55a4,4,0,0,0-.86,1C-2.92,63-1.85,84.43,8.87,98.92c5,6.83,12.49,12,21.2,12.33a19.94,19.94,0,0,0,11.81-3.56,57.3,57.3,0,0,0,5.15-4c1.65-1.41,3.93-4.4,6-5.13.33-.12.45-.24.48-.31a2.12,2.12,0,0,0,.58.72,13.69,13.69,0,0,1,2.24,3.41c1.69,3,2.88,6.37,4.69,9.34a22.6,22.6,0,0,0,22.14,10.56,20.33,20.33,0,0,0,10.71-4.89,23.91,23.91,0,0,0,3.82-4.69l.24.43c4.65,8.44,9.33,19.85,18,25.1,7.91,4.82,18.59,1.27,24.26-5.42a25,25,0,0,0,5.15-10.21c.83-3.28.87-9,4.71-10.25,2.48-.8,6.08.64,8.6,1a31.9,31.9,0,0,0,8.45-.16,35.56,35.56,0,0,0,14.83-5.51c2.22-1.42,4.41-2.91,6.55-4.46,1.87-1.36,3.9-3.49,6.14-4.28s5,0,7.3.27c3.05.41,6.1.6,9.14,1.15,10.66,1.94,22,1,32.06-3.62,2-1,4.16-3.14,6.28-3.77,2-.59,3.58.27,5.62.92a39.3,39.3,0,0,0,16.26,1.78c5.49-.58,10.84-2,16.24-3.07a155.81,155.81,0,0,0,18.83-4.63c8.68-3,16.56-8.73,18.6-18.18C326.38,62.79,324.34,55.62,323.6,48.75Z"/></g></g></svg>