<svg xmlns="http://www.w3.org/2000/svg" viewBox="0 0 318.6 171.49"><defs><style>.cls-1{fill:#fff;opacity:0.2;}</style></defs><g id="Calque_2" data-name="Calque 2"><g id="Contours"><path class="cls-1" d="M317.16,146.35a16.6,16.6,0,0,0-5.16-7.17c-1.61-1.26-3.44-2-4.71-3.64-1.74-2.26-1.91-5.11-2-7.84-.2-8,.26-14.86-4.67-21.68a29.62,29.62,0,0,0-17.26-11.19,32.47,32.47,0,0,0-9.31-.88c-.23,0-.85,0-1.57,0,4.55-14.07-7.13-26.85-21.19-26a29.66,29.66,0,0,0-17.49,6.93,19.32,19.32,0,0,0-3,3.25c-.91,1.26-1.4,3.3-2.36,4.39-2.32,2.67-7.32-.44-10.17-1.68-7.63-3.32-16.05-6.51-24.44-7-4.63-.26-8,1.19-12.37,2.22-2.22.53-1.71.82-3.86-.69a30.33,30.33,0,0,0-4.88-3.23c-3.69-1.67-8-2.24-12-2.76s-6.91.4-10.79,1.33c-4,1-5-2.23-8-4.32-3.42-2.37-7.65-3.27-11.7-3.87-8.94-1.33-18.13-2.51-27.14-1.26-1.29.19-7.18,2.35-9.18,2.25.25-.35-1.31-2.57-1.47-2.75a13,13,0,0,0-4.26-3.16c-1.06-.52-3-.84-3.86-1.64s-.36-2-.11-3.86A126,126,0,0,0,85.5,39.49a38,38,0,0,0-6.75-23C70.22,4.49,52.9-1.62,38.54.37a33.88,33.88,0,0,0-21.08,12,4.78,4.78,0,0,0-1,4.46c-5,4.4-8.34,10.33-8.14,17.33C8.69,45.74,18,48.35,27.6,48.49,30,56,28.41,65.14,29,72.83c.79,9.77.59,19.63,1.57,29.38.63,6.23,1.59,13-.11,19.16-2,7.35-11.39,6.43-17.57,8.08C6.3,131.22.05,135.28,0,142.87c0,7,4.93,14.1,10.74,17.59,11.76,7.07,28.73.21,40-4.86,7.17-3.22,14.58-5.87,21.73-9.1,4.37-2,8.14-3.62,12.78-1.55,3.42,1.53,6.43,3.48,10.26,3.87,8.79.89,17.63-3,24.59-8.07,1.47-1.07,3.46-3.21,5.24-2.76,1.1.28,2.36,1.8,3.44,2.36,4,2.1,8.37,1.21,12.55.09a25.39,25.39,0,0,0,3.28-.87,3,3,0,0,1,.84-.26,18.22,18.22,0,0,0,1.39,2.92,17.37,17.37,0,0,0,7.66,6.55c8.28,3.81,15.27.93,23.44-1.28,4.87-1.31,7.67,1,11.66,3.44a26.78,26.78,0,0,0,12,4.33c8.08.73,17.69-2.24,24.61-6.35,1-.59,2.9-2.52,4-2.62l.41-.05c.33.44.88,1.38,1.06,1.63a22.12,22.12,0,0,0,8.39,6.76c5.67,2.76,13.32,4.91,19.36,2,1.26-.61,2.28-2,3.55-2.44,1.91-.73,1-.18,2.28,1.69a33.77,33.77,0,0,0,6.91,7.36,38.41,38.41,0,0,0,21.16,8.09c6.9.58,15.75-.18,20.81-5.45C319.06,160.78,319.65,152.68,317.16,146.35Zm-171.51-7.06c.7,0,.48.55,0,0Z"/></g></g></svg>