<svg xmlns="http://www.w3.org/2000/svg" viewBox="0 0 306.6 153.36"><defs><style>.cls-1,.cls-2{fill:#fe5f58;}.cls-1{opacity:0.2;}</style></defs><g id="Calque_2" data-name="Calque 2"><g id="Phrase_1" data-name="Phrase 1"><g id="P1_m5_1"><path class="cls-1" d="M303.79,43.26a31.67,31.67,0,0,0-12.72-14.82,31,31,0,0,0-10-4c-4-.79-8.31.15-12.18-.83-3.41-.87-5.15-4.15-6.88-6.95-2-3.24-4.06-6.53-7-9.06A34.2,34.2,0,0,0,237.29.14c-7.23-.84-13.92,2.18-16.36,9.37-2,6-1,12.43.26,18.65a16.91,16.91,0,0,0-13.52,7.32c-3.34,4.78-4.33,10.38-4.68,16-3.12-2.5-5.94-5.31-10.1-6.5a29.22,29.22,0,0,0-19.08,1.3c-8.9,3.74-14.1,11.8-16.61,20.69a40.46,40.46,0,0,0-30.33-7,26.42,26.42,0,0,0-8.46,2.66c-1.54.85-2.86,2-4.3,3a16.57,16.57,0,0,1-2,1.28c.6.53.53.58-.19.17-.92-.06-2.12-.72-3.13-.86a36,36,0,0,0-5.87-.19,50.94,50.94,0,0,0-8.19.91c-4.22-6.36-8.5-11.06-17.43-9.9C72,57.76,66,59.88,62.86,64.43a25.83,25.83,0,0,0-2.6,5.62c-.66,1.72-.74,3.88-2.57,3.21-2.65-1-4.29-7.51-5.34-9.9a98,98,0,0,0-6-11.76C41.5,43.68,35.11,36.69,25.21,36.66a4,4,0,0,0-1.17.19,21.73,21.73,0,0,0-10.33-1.6C.5,36.71-1.17,52.86.57,63.18c2.36,13.92,9.85,26,15,38.93a244.19,244.19,0,0,0,12.18,27c3.33,6.16,4.7,13.77,9.72,18.92,11,11.24,27.83,3,36-7.8a15.28,15.28,0,0,0,6.37,3.28c3.55.75,7.28-.15,10.57-1.5a35.82,35.82,0,0,0,14.5-11.26c6.81,2.08,14.1,1.34,19.11-3.58a10.37,10.37,0,0,0,9.61,2.67,18.89,18.89,0,0,0,10-6.61c6,2.48,12.43-.52,17.47-4.71,2.89-2.41,5.3-5.28,8-7.89s4.28-2.47,8-1.74a73.82,73.82,0,0,0,31.62-.76c7-1.78,12.36-6.34,17.85-10.76,7.54,4.05,22,1.5,24.69-6.64,7.19,2.37,15.46-1.45,19.64-7.78,6.34,5.49,21.06.95,26.5-3.22C307.89,71.61,308.5,54.66,303.79,43.26Z"/><path class="cls-2" d="M67,115.58a6.17,6.17,0,0,0,0-3,1.87,1.87,0,0,1-.07-.4,14.77,14.77,0,0,0,0-1.63c-.08-.76-.27-1.5-.36-2.26-.11-.93.17-1.93-.48-2.77-.06-.08,0-.26,0-.38-.08-.33-.1-.83-.32-1-.51-.3-.42-.79-.59-1.2a3.39,3.39,0,0,0-.31-.7c-.29-.4-.67-.73-.92-1.14a5.61,5.61,0,0,0-1.58-1.94c-.09-.06-.08-.25-.15-.37a1.83,1.83,0,0,0-.32-.45c-.35-.31-.73-.59-1.09-.89-1.14-1-2.28-1.92-3.43-2.86-.2-.17-.57-.19-.69-.39-.57-.91-1.61-1.16-2.41-1.73a7.51,7.51,0,0,0-2.6-.85,8.28,8.28,0,0,0-1.21.05c-1.08-.1-2.16-.25-3.24-.35-.29,0-.59.11-.87.08-.7-.07-1.39-.28-2.08-.29a19.37,19.37,0,0,0-2.39.25,7,7,0,0,0-1.65.31,10.3,10.3,0,0,0-1.59,1c-.28.17-.58.31-.85.5a5.47,5.47,0,0,0-.58.5l.11.13h-.32l-1.2,1.65c-.22,0-.7.3-.86-.56-.07-.38-.13-1-.38-1.24-.61-.59-.72-1.41-1.17-2s0-1.45-.84-1.79c.21-.83-.56-1.29-.75-2a18.45,18.45,0,0,0-1.25-2.52C30.24,85,30.29,84.21,30,84c-.54-.34,0-1.21-.77-1.32-.12,0-.28-.47-.26-.72,0-.84-.5-1.28-1.05-1.74.41-.18.55-.26.12-.71A8.7,8.7,0,0,1,26.9,77.6c-.12-.23-.17-.58-.36-.69-.4-.23-.5-.46-.27-.86,0,0,.06-.14,0-.18a7.37,7.37,0,0,0-.67-1.12c-.33-.39-.16-1-.39-1.25-.77-.66-.8-1.65-1.31-2.41-.16-.22-.45-.52-.39-.67.24-.64-.37-.65-.55-.85.06-.33.22-.62.14-.82a9.07,9.07,0,0,0-.62-1c-.19-.33-.33-.68-.49-1l.2-.13c-.11-.06-.27-.09-.34-.19-.5-.66-.19-1.77-1.2-2.18l.27-.52c-.73-.52-1.46-2-1.3-2.19l-.52-.84c-.14-.24-.27-.49-.42-.72a6.8,6.8,0,0,1-1.25-2c-.05-.18-.16-.34-.23-.52-.28-.65-.58-1.3-.82-2S16,54,15.84,53.56a5.26,5.26,0,0,0-.73-2.35c-.13-.26-.44-.61-.87-.26l.45.7-.23.05c0,.2,0,.39,0,.58a3.33,3.33,0,0,1,.07.54c0,.18-.07.5-.14.51a1.23,1.23,0,0,1-.61-.12c-.24-.09-.48-.21-.71-.32s-.43-.12-.49-.25c-.37-.83-1.18-.79-1.76-1.06l-.53.75,1.4.55a8.22,8.22,0,0,1-1,.1c-.33,0-.66-.08-1-.12v3.36l.3-.17c0,.55.09,1.05.14,1.72,1.11.21-.32,1.36.36,2l.32-1a35.79,35.79,0,0,0,3.53,6.78c0,.33.09.9.57,1.08.06.29,0,.59.15.67.51.32.37.71.18,1.12L15,69l.1,0,.52-.61c.1.33-.05.84.54.55-.06,1.07.12,1.49.65,1.74.05.55.11,1.05.16,1.56l.24-.26.67,1.15a5,5,0,0,0,.36,1.5c.25.47.6.88.85,1.37a23.76,23.76,0,0,0,1.81,3.86A11.47,11.47,0,0,1,22,82.42a5.31,5.31,0,0,0,.2.56c.24.43.56.83.76,1.28s.27,1.09.53,1.57a18.83,18.83,0,0,0,1.31,2.76c.14.18.05.52.08.85,0,0,.27.06.34.2.27.57.48,1.18.74,1.76a2,2,0,0,0,.28.44c.11.16.28.29.32.46.19.73.35,1.46.51,2.14l.32-.7c.12,1.85,1.64,3.07,1.73,4.86.61.11.41.69.52,1.12a.79.79,0,0,1,.36.44c.11.45,0,1.11.3,1.32.52.39.42.9.59,1.36s.31.82.47,1.23c-.09.14-.28.3-.26.42a7.6,7.6,0,0,0,.3.92c-.28,1,.72.27.89.67l-.42,1.13.2.08.48-.54c0,.41,0,.87-.07.9-.47.13,0,.5-.19.65l.69.18a8.13,8.13,0,0,0-.12,1.14c0,.44.15.88.18,1.32s0,1.12.05,1.67c.08,1.2.21,2.39.27,3.58.07,1.44-.1,2.93.88,4.2l-.43.19c.07.21.22.4.18.53a.65.65,0,0,0,.74.94c-.39.88-.37,1,.24,1.48,0,0,0,.06,0,.09a7.07,7.07,0,0,0,1.74,2.56c0,.66.34,1.25.65,1.32a3.5,3.5,0,0,0,.15.55c0,.09.17.14.21.24.51,1.1,1,2.21,1.5,3.32a.46.46,0,0,0,.2.19c.35.18.37.45.26.8a2,2,0,0,0,0,.62c.58-.22,1.09-.4,1.17.4a2.19,2.19,0,0,1,1.82.63c.47.46.78,1.12,1.72,1,.51-.05,1.09.5,1.63.79.15.08.29.2.52.35-.18-.43-.29-.72-.41-1s-.31-.46-.39-.72a3.82,3.82,0,0,1,0-.9c.73.41,1.41.43,1.5,0,.14-.63-.24-1.08-.79-1.44l.71-.84c0,.63.48.52.92.49s.79-.1,1.18-.14l0-.2c-.88-.06-.88-.06-1-.31,1.14-.31,2.28-.68,3.45-.92a16.93,16.93,0,0,0,3.74-1.24c.67-.32,1.42-.49,2.09-.83.93-.47,1.81-1.06,2.73-1.55a3,3,0,0,0,1.53-1.36c.13-.29.62-.42.95-.62l.15.16-.16-.53.58-.5.56.24c-.24-.63.06-1.21.78-1.66,0,0,.1.1.11.16a3.48,3.48,0,0,1,0,.36.76.76,0,0,0,0-1.07h1l-.21-.67-.3.36-.15-.2,1.12-.73-.41-.06a3.41,3.41,0,0,0,.42-.76,9,9,0,0,0,.52-2.11c0-.72.63-1.4.15-2.15C66.94,115.68,67,115.62,67,115.58Zm-11.7,12c.46-.29.52-.44.46-.83h0C55.79,127.19,55.73,127.34,55.27,127.63Zm.49-.84h0a1.61,1.61,0,0,0,.37.07A2.38,2.38,0,0,1,55.76,126.79Zm4.72-10.86a2.24,2.24,0,0,1-.08.7c-.16.39-.2.82-.78,1-.38.1-.64.62-.09,1.11l-1,.3.29.55a.84.84,0,0,0-.18,0,1.8,1.8,0,0,0-.64.3c-.4.43-.7,1.23-1.13,1.3-.76.14-.41,1-1,1.09s-.42.47-.34.83c-.78-.17-1.5.16-1.6.57l-2.48,1a2.32,2.32,0,0,1-.36.16c-.81.19-1.64.32-2.43.59a14.5,14.5,0,0,1-3.21.37c-.45,0-.78-.46-.81-.94a4.71,4.71,0,0,0-.36-1.18,4.89,4.89,0,0,1-.6-1.82,7,7,0,0,0-.45-1.74c-.16-.58-.26-1.17-.46-1.73-.08-.23-.33-.4-.53-.64l.16-.14c.13-1.29-1.12-2.11-.74-3.42-.74-.66-.84-1.73-1.18-2.66-.33-1.5-.65-3-1-4.63l.2-.17c-.11-.39-.52-.69,0-1.16.16-.16,0-.69-.06-1.06s-.09-.61,0-.76a6,6,0,0,0,.74-1.82,5,5,0,0,1,.66-1l.43-.54c-.7-.28-.14-.74-.16-1.11,0-.09-.07-.21,0-.26.49-.58,1-1.16,1.5-1.71a1.81,1.81,0,0,1,.6-.25,6.9,6.9,0,0,1,.8-.29,1.12,1.12,0,0,1,.69,0c.13.08.1.42.12.65a.55.55,0,0,0,.14.39l.47-.84-.36-.18,0-.17.69.15-.11-.31c1.62.19,3.28-.1,4.91.71l-.71.23c.18.16.3.37.42.36,1.34-.06,1.34-.07,2.25,1l.09.08c.66.44,1.34.86,2,1.33.27.21.44.56.7.79a2.64,2.64,0,0,0,.63.31c0,.12-.07.36,0,.44.39.38.86.68,1.22,1.08a2.49,2.49,0,0,1,.46.92c.14.37.18.79.34,1.15s.15.21.48.08c.09,0,.33.1.36.2a5.42,5.42,0,0,1,.22,1.19c0,.46.36.64.62.91.07.07.21.15.2.22,0,.71.42,1.39.07,2.14-.11.25.23.68.28,1a20.61,20.61,0,0,1,.3,2.71A23.65,23.65,0,0,1,60.48,115.93Z"/><path class="cls-2" d="M46,96.75h0v0Z"/><path class="cls-2" d="M192.37,96.74Z"/><path class="cls-2" d="M199.34,79.55v0h0Z"/><path class="cls-2" d="M227.57,75.57c0-.26,0-.53,0-.8s0-.52,0-.78c0-1,0-2,0-3,0-.6-.09-1.19-.16-1.78a9.56,9.56,0,0,0-.31-2c-.3-.84-.81-1.6-1.18-2.41-.18-.38-.16-.91-.42-1.2a4.66,4.66,0,0,1-1-3.23,1.78,1.78,0,0,0-.51-1.37.78.78,0,0,0-.5-.21,1.33,1.33,0,0,0-.49.22c-.38.44.64,1-.17,1.59a1.2,1.2,0,0,1,.23,1.63,1.55,1.55,0,0,0-.3-.41c-.55-.38-.59-.45-.65-1.11,0-.08-.21-.16-.33-.22s-.22,0-.25-.06c-.31-.55-.72-.61-1.37-.19a1.54,1.54,0,0,0-.54-1.84l-1.11,0v2.34l.26-.25.11.06-.47,1.32a1.29,1.29,0,0,1,.23.12c0,.39,0,.65-.06.91,0,.44-.08.88-.15,1.32,0,.12-.15.21-.23.32l.38.22c-.22.38-.48.79,0,1.23,0,0,0,.15,0,.2s.18.32.28.48c.1-.16.28-.31.29-.47a2.85,2.85,0,0,0-.15-.75l.16,0c.19.37.37.73.53,1.06l.8.29-1.61,1.24.92,1.73L220,69v0c.31.1.8.13.89.33a6.47,6.47,0,0,1,.3,1.6c0,.07-.18.15-.32.26v-.5h-.65c.09.41.18.85.31,1.27a8.6,8.6,0,0,1,.4,1.14c.07.5-.08,1.05.6,1.25-.19.19-.41.31-.43.45a5.67,5.67,0,0,0,0,1.09c0,.42,0,.84.05,1.26a6.15,6.15,0,0,1,0,1.55c-.13.52.38,1,0,1.52s0,1.19-.65,1.5c.3.56-.19.81-.44,1.18-.7,1-1.75,1.69-2.43,2.71a1.8,1.8,0,0,1-.34.39l-1.54,1.1c-.3.22-.61.42-1,.71,0,.28-.11.52-.63.36a.2.2,0,0,0-.19,0c-.6.73-1,.11-1.44-.22A15,15,0,0,1,211,86.64c-.11-.11-.26-.24-.26-.36,0-.69-.59-.9-1.06-1.19l.12-.27c-.22-.17-.4-.25-.47-.38s.13-.26.22-.37a4.18,4.18,0,0,0,.54-.58,8.39,8.39,0,0,0,.44-1,4.26,4.26,0,0,1,.08-.73c.15-.54.33-1.07.51-1.59.06-.17.14-.34.26-.62l-1.15-.07.18.1c-.15.58-.31,1.15-.48,1.72,0,.16-.23.3-.22.44a1.26,1.26,0,0,1-1,1.38c.18-.57.36-1.13.52-1.68a.34.34,0,0,0-.09-.3c-.35-.25-.72-.47-1-.68a2.48,2.48,0,0,0-.21-2.4l-.63.61a1.19,1.19,0,0,1-.36-1.59,1,1,0,0,0-1.42-.65.64.64,0,0,1-.54-.27,5.81,5.81,0,0,1-.31-1,3.08,3.08,0,0,1-.71-1.76c0-.1-.1-.24-.2-.32a1.19,1.19,0,0,1-.45-1.4l-.72-.49c.57-.52-.07-.76-.28-1.12s-.34-.68-.48-1l-.44-.79q-.27-.5-.51-1c-.12-.26-.22-.53-.32-.8-.18-.5-.33-1-.52-1.49-.09-.21-.26-.39-.34-.6-.25-.63-.31-1.44-.74-1.87s-.14-.81-.32-1.16-.23-.8-.43-.85-.88-.21-1,.43a2.25,2.25,0,0,0,.56,2.1l-.21,1-.41-.67-.87.51c0-.34.05-.63.08-.93h-.16c-.1-.38-.11-.93-.3-1a7.81,7.81,0,0,0-1.62-.23,4,4,0,0,0,.13-1c0-.24-.21-.62-.39-.67a1.94,1.94,0,0,0-1.17.06c-.16.08-.15.59-.16.91s.22.42.16.53c-.33.61.17.78.49,1.05-.15.09-.43.15-.44.27-.08.48-.09,1-.13,1.57l.32-.42a1.12,1.12,0,0,1-.06.71,5,5,0,0,1-.34.57,3.05,3.05,0,0,1,.8,0c.06,0,0,.42,0,.75-.6-.52-1-.48-1,0,0,.16.28.32.5.56l-.58-.06.4.59.8-1,.18.15-.44.55.09.09.27-.18.82,1.85c.06.13.11.3.21.35.53.26.58.67.13,1.08a1.08,1.08,0,0,0-.13.24l.61-.25c-.2.81,0,1.15.76,1.25l-.61.82a2.83,2.83,0,0,1,.84.14.67.67,0,0,1,.24.56c0,.34-.1.56.37.42a.93.93,0,0,1,.29,0,2.83,2.83,0,0,1-.11.31c-.15.28-.47.58.17.69l-.38.19.84.22.15.22-.69.29.15.16.59-.21-.36.72.52.15a2.14,2.14,0,0,0,.78,1.74c.34.36.38.67,0,1,0,0,0,.06,0,.14l.46-.06v.78l.49.21-.22.32H200c.08.42.14.79.19,1.06.22.12.49.26.49.27-.47,1,.48,1.48.75,2.2a9.37,9.37,0,0,0,1,1.64c-.61.06-1.16.27-1.34.1s-.24-.77-.34-1.18c-.68.36-.58.87.42,1.7-.18.15-.31.37-.5.44-.6.25-.91,1-1.66,1-.11,0-.21.22-.32.34s-.19.29-.31.33a5.19,5.19,0,0,0-1.62.87,21.42,21.42,0,0,1-2.26,1.25c-.28.16-.49.56-.77.6-1,.14-2.07.15-3.1.26a2.91,2.91,0,0,1-1.8,0s-.08,0-.13,0c-.76.06-1.52.17-2.28.17a3.67,3.67,0,0,1-2.38-1.23c-.05-.05-.12-.09-.14-.14a1.92,1.92,0,0,0-1.21-1.26s0-.22-.07-.44-.42-.51-.66-.85a7.78,7.78,0,0,1-1.1-1.67c-.19-.52-.31-.61-.72-.25a2.36,2.36,0,0,0-.07-.87,7.08,7.08,0,0,1-1-2.39,8,8,0,0,1-.06-3.57.47.47,0,0,0,0-.28,3.17,3.17,0,0,1-.06-1.47,7.22,7.22,0,0,1,0-1.31c.05-.2-.13-.47-.15-.71a6.26,6.26,0,0,1,0-1.06c.05-.41.15-.81.27-1.39a8.07,8.07,0,0,1,.06-1,10.17,10.17,0,0,0,.46-2.61c-.12-1.11.55-1.92.67-2.91a1.94,1.94,0,0,1,.3-1,10.68,10.68,0,0,1,1.28-1c.39-.33.78-.67,1.15-1a5.49,5.49,0,0,1,2-.82,10.85,10.85,0,0,0,1.91-.7c.42-.26,1.22-.28,1.14-1l-2.9.42a.75.75,0,0,0-.34.17c.11.48-.24.31-.45.35a3.48,3.48,0,0,0-2.16,1,5.57,5.57,0,0,1,.87-1.52,3.35,3.35,0,0,1,.91-.53c.95-.55,1.9-1.12,2.86-1.66.21-.12.49-.12.7-.25.37-.21.71-.47,1.06-.71a2.78,2.78,0,0,0,.32-.26c-.14-.14-.29-.39-.42-.38a6.2,6.2,0,0,0-1.47.25c-.59.19-1.15.49-1.73.71-.37.14-.88.12-1.13.37s-.53.18-.81.05c0,0-.07,0-.14,0l0,.4c-.47.14-1,.27-1.42.42-.3.09-.8.17-.84.34-.17.64-.77.67-1.15,1s-.91.73-1.33,1.14c-.59.59-1.39,1-1.66,1.87a1,1,0,0,1-1.08.75,6.74,6.74,0,0,0,.72-1,8.55,8.55,0,0,1,2.87-3.72c.55-.36.93-1,1.49-1.31a14.84,14.84,0,0,1,2.13-.87l3.5-1.42s0-.12.07-.21c-.42,0-.9-.19-1.2,0-1.14.61-2.5.36-3.65,1.15a16.72,16.72,0,0,0-2.45,1.31A12.14,12.14,0,0,0,177,60.51c-.28.47-.7.84-1,1.31-.44.73-.82,1.5-1.25,2.32a1.24,1.24,0,0,1-.26,1.6.73.73,0,0,0-.21.42c-.12.79-.22,1.59-.32,2.39-.07.55-.11,1.11-.19,1.66-.05.34-.18.66-.2,1s.08.74,0,1.11c-.09.92-.27,1.83-.33,2.76-.05.71,0,1.44,0,2.16,0,1-.42,2,0,3.06,0,.07,0,.18,0,.27a2.64,2.64,0,0,0,.06,2,1.13,1.13,0,0,1,0,.92c-.31.74.21,1.29.34,1.92A2,2,0,0,0,174,86c.36.61.74,1.22,1.1,1.83l.62,1c.24.4,0,1.16.84,1.11a1.56,1.56,0,0,1,.07.34c0,.13,0,.31,0,.37.65.61,1.35,1.17,2,1.8s1,1.1,1.43,1.66a3.1,3.1,0,0,1,1,.28c.44.3.73.8,1.17,1.09a6,6,0,0,0,1.53.68c.25.08.51-.19.83.18s.84.24,1.28.24a16,16,0,0,0,1.68-.18s.12,0,.13,0c.24.61.69.23,1.06.24.15,0,.3-.06.44-.06,1,0,2.1,0,3.17,0v.15a10.84,10.84,0,0,0,1.28,0,4,4,0,0,0,1.06-.28c.88-.36,1.93-.28,2.69-1,.14-.14.44-.08.65-.16a5.54,5.54,0,0,0,1.07-.51c.88-.62,1.7-1.33,2.6-1.91s1.89-1.08,2.87-1.64A2.59,2.59,0,0,0,206,92.59l.14.27a2,2,0,0,0,2.06,1.33c-.05.21-.11.41-.17.64.58,0,1.17,0,1.75-.11.11,0,.21-.17.31-.26a1,1,0,0,0,1.34.44,1.37,1.37,0,0,1,.75-.09c.51.11,1,.29,1.63.47l-.3-1a3.16,3.16,0,0,1,.56-.1,8.09,8.09,0,0,0,1.85-.06,8.55,8.55,0,0,0,1.79-.95c.93-.55,1.84-1.11,2.75-1.68.36-.23.69-.5,1-.75.24,0,.43,0,.68-.38a5.77,5.77,0,0,1,1.31-1.3c.32-.27.81-.35.83-.91,0-.18.3-.15.54-.08a3.51,3.51,0,0,0,.8.07c0-.22,0-.44,0-.65s-.05-.68-.08-1l.71-.13a1.79,1.79,0,0,1,0-.64c.12-.42.33-.81.47-1.23a5.66,5.66,0,0,1,.41-1.34c.29-.43.16-.57-.06-.63.16-.47.57-1.07.42-1.33-.49-.82.2-1.59-.07-2.38-.11-.32.07-.74.08-1.11C227.57,77,227.57,76.27,227.57,75.57ZM202.64,87.51c.24-.32.47-.64.71-1h0C203.11,86.87,202.88,87.19,202.64,87.51Z"/><path class="cls-2" d="M152.7,103.88l.25-.81-.14-.14-.7.42,0-.4.76-.24-.52-.82h-.75v-.06l.91-.17c-.11-.66-.19-1.23-.3-1.79,0-.14-.15-.27-.16-.42-.07-.51-1.06-.91-.15-1.5-.94-.73-.57-1.79-.83-2.71h-.4c0,.46,0,.92,0,1.38l-.18,0-.62-1.48.62-.34h0l.33.06c0-.26.19-.56.11-.77-.19-.5-.54-.94-.72-1.45s.1-1.44-.5-2c-.05,0,.08-.26.06-.39-.06-.55-.15-1.09-.23-1.65l-.56-.24c.91-.61-.2-1.2.15-1.82l-.44.06.19-.1-.24-.91a1.3,1.3,0,0,1-.13-.36c0-.64-.34-.49-.67-.42.23,1,.46,1.86.68,2.77.07.29.1.59.15.89l0,0c-.17-.19-.49-.4-.47-.58a.68.68,0,0,0-.58-.82,1,1,0,0,0,0-.58c0-.14-.23-.24-.25-.37-.1-.81-1.24-1-1.18-1.9,0-.1-.3-.2-.4-.34-.59-.75-1.12-1.53-1.73-2.25-.9-1-1.83-2-2.77-3a4.43,4.43,0,0,0-1.08-.9c-.58-.32-1.31-.25-1.69-1.07a2.1,2.1,0,0,0-1.41-.92,1.29,1.29,0,0,0-1.36.36,5.29,5.29,0,0,1-.82.54l0,.54c-.32.19-.57.25-.68.41a7.16,7.16,0,0,0-.46,1l.15.1-.85.49.28.45-.68-.14-.26.37c-.07.08-.23.18-.21.25.13.64-.28.7-.54.69L131,82.25l-.72-.08.82.76-.59-.15-.48.63c.06.18.14.39.25.67-.21,0-.4-.14-.55-.09a.45.45,0,0,0-.23.39,1.61,1.61,0,0,1-.14.85,8.46,8.46,0,0,0-.38,1.33s0,0,.07,0c-.16.42-.29.8-.45,1.18,0,.13-.24.32-.21.35.37.43,0,.58-.26.81a1.92,1.92,0,0,0-.29.49l.32.1a6.71,6.71,0,0,0-.35.93c-.13.65-.23,1.3-.31,2a.83.83,0,0,1-.71.72c-.28-2-.56-4-.82-6l-.17.32c0-.62.08-1,.11-1.47-.36.15-.52.08-.49-.35a5.32,5.32,0,0,0-.28-2.23,7.28,7.28,0,0,1-.25-1.42c-.36-.15-.35-.15,0-.61.07-.12,0-.35,0-.53-.15-.68-.34-1.35-.46-2s-.17-1.34-.26-2l-.48.14.06-.55-1.67.78c0,.37.06.68.09,1l-.17,0c-.47-.85-1.41-.2-2-.71.16,0,.31,0,.45,0a1.73,1.73,0,0,0,.46-.21c-1.11-.09-1.14-.13-1.07-1.3l.85.18,0-.17-1.07-.32a1.35,1.35,0,0,0-1.13-1.81c.22.46.44.93.65,1.39l-.54-.06c0,.16.14.36.09.41a1.82,1.82,0,0,0-.44,2,3.19,3.19,0,0,1,0,1,4.93,4.93,0,0,0,0,.86c.12.66.3,1.31.42,2,.18,1,.33,2.1.5,3.16.11.65.21,1.3.35,2a10.39,10.39,0,0,1,.47,2.08,6.1,6.1,0,0,0,.39,1.62c.32,1.31.38,2.68.58,4a11,11,0,0,0,.37,1.58c.18.61,0,1.25.35,1.87a6.55,6.55,0,0,1,.27,1.76,24.77,24.77,0,0,0,.62,3,9.88,9.88,0,0,1,.52,3.41,4.11,4.11,0,0,0,.43,1.34c0,.12.19.21.21.33.13.67.2,1.35.35,2a2.54,2.54,0,0,0,.4.74,3.5,3.5,0,0,0,.24,1.1c.08.19.33.31.43.5a1,1,0,0,0,1.12.65c.1,0,.24.2.42.36l-.74.14.06.22c.26-.26.93.29.89-.55a1.63,1.63,0,0,1,.47.17,4.06,4.06,0,0,1,.86.79c.31.43,1,.24,1.19,1a.66.66,0,0,0,1.18.2,1.36,1.36,0,0,0,.09-1.69,9.5,9.5,0,0,0,.95-1.13,2.06,2.06,0,0,0,.15-.88,8.27,8.27,0,0,0,.06-1.79,3.09,3.09,0,0,1,.12-1.54,2.19,2.19,0,0,0-.08-.9l.05,0,.33-2.74-.19,0a.66.66,0,0,0,.14-.2c.15-.66.31-1.32.42-2a6.26,6.26,0,0,0,0-1.06,10.17,10.17,0,0,1,0-1.1c0-.27.26-.52.31-.79a11.5,11.5,0,0,0,.18-1.55,8.14,8.14,0,0,0-.09-1c.05-.08.21-.21.21-.34,0-.48-.16-.93.2-1.4.19-.25.09-.71.15-1.07.11-.65.21-1.32.38-2s.42-1.22.64-1.82c0,0,.13-.06.16-.11.14-.23.41-.52.36-.7-.18-.56.2-.73.51-1s.53-.38.53-.57c0-.71.57-.91,1-1.29l-.21-.23c.31-.6,1.37-.54,1.17-1.55l.17-.1,2.05,1.83a10.31,10.31,0,0,0,1.1,2s.29,0,.44-.06l-.15.14c.12.2.23.41.36.61a5.32,5.32,0,0,1,.42.67c.27.67.5,1.35.74,2a.43.43,0,0,1,0,.27c-.4.71.1,1.32.29,1.91s0,1.49.52,2.17c.29.36,0,1.11.29,1.55a3.72,3.72,0,0,1,.47,1.74,6.3,6.3,0,0,0,.27,1.1,2.92,2.92,0,0,1,0,.51,2.26,2.26,0,0,0,0,.52c.23.82.48,1.65.73,2.5l.17-.09c0,.54-.19,1.14.35,1.54,0,0,0,.09,0,.13a4.75,4.75,0,0,0,.1.94c.16.52.39,1,.56,1.53,0,.1,0,.24,0,.37s0,.26,0,.39a2.57,2.57,0,0,0,.37-.28,3.5,3.5,0,0,0,.26-.42l.16.35a2.2,2.2,0,0,1,2-.32l-.35-.24.24-.68c.13-.35,1-.79,1.21-.57a7.22,7.22,0,0,1,1,1.12c.26.35.44.72,1,.37.13-.09.36,0,.59,0-.07-.07-.15-.15-.14-.16.34-.55,0-.79-.44-1a.81.81,0,0,1-.4-1.16c.27-.51,0-.62-.29-.74,0-.29,0-.53,0-.76C152,103.49,152.69,104.07,152.7,103.88Z"/><path class="cls-2" d="M120.9,77.3l.37.26c-.65-1.17-.65-1.17-1.29-.86l.92.6,0,0h.06Zm0,0Z"/><path class="cls-2" d="M152.19,104.16h0Z"/><path class="cls-2" d="M117.74,105c.07-.09.09-.25.17-.29a4.06,4.06,0,0,0,1.81-1.83c-.7-.51-1.06-.38-1.66.4a1.24,1.24,0,0,1-1.17.59,2.45,2.45,0,0,0-2.39.64c-.09.12-.21.31-.3.3-1.08-.17-1.54.77-2.16,1.3-1.06.9-2,2-3,3a1.3,1.3,0,0,1-.56.38c-.61.12-.69.56-.68,1.08l-1.71.2c.44-.53,1.55-.23,1.3-1.23.61-.36,1.36-.55,1.66-1a12,12,0,0,1,2-2.07,7.49,7.49,0,0,0,.54-.72c.18-.1.61-.21.63-.38.07-.53.55-.73.81-1.07a13.93,13.93,0,0,1,1.92-1.74c-.36-.21-.62-.45-.69-.4a10.43,10.43,0,0,0-1.7,1.24c-.86.81-1.64,1.71-2.47,2.56-.38.38-.83.71-1.21,1.09s-.6.77-1,1.09-1.12.55-1.12.81c0,.76-.58.53-.88.74a5.33,5.33,0,0,1-.63.32,1.14,1.14,0,0,1-.41.18c-.58.07-1.17.1-1.6.14a4.8,4.8,0,0,0-.76-.1c-.39,0-.83.25-1.15.13a3.51,3.51,0,0,1-1.36-.69A9.81,9.81,0,0,0,98,108.43a1.14,1.14,0,0,1-.3-.23,5.67,5.67,0,0,0-.9-.93,3.28,3.28,0,0,1-1.65-2.55c0-.51-.3-1-.39-1.5a1.91,1.91,0,0,1,0-1,3.31,3.31,0,0,1,.71-.84l-.14-.14-.42.37c-.22-.3-.11-1,.21-1.08,1-.1,1.78-.89,2.82-.64.07,0,.16,0,.23-.08.58-.31,1.15-.64,1.74-.92.41-.2.86-.31,1.28-.49.77-.33,1.54-.69,2.33-1l0-.18c.67-.24,1.41-.21,1.81-1a1.16,1.16,0,0,1,1-.45c.68.09.85-.32,1-.79.61.3,1,.08,1.12-.66l.24.46c.35-.47-.26-1.36.76-1.56l-.33.51.09.09.55-.48.14.19c.08-.37.16-.75.25-1.19a2.83,2.83,0,0,1-.2,2.49c-.13.1-.24.21-.36.32l-.4-.17c0,.22,0,.52-.15.65a15.26,15.26,0,0,1-1.44,1.2c-.45.35-.91.94-1.37,1-.92,0-1.32.82-2.11,1s-1.8.7-2.74,1a5,5,0,0,0-1.06.63l-.51-.47c-.18.91-.89.58-1.37.73s-1,.26-1.5.39a7.42,7.42,0,0,0-1.23.12c-.06,0-.1.28-.08.42s.19.16.29.15.42-.15.62-.12c.94.12,1.69-.81,2.65-.46,0,0,.13,0,.19-.07l1.86-.68c.36-.14.71-.31,1.07-.43.85-.28,1.71-.54,2.56-.81a1,1,0,0,0,.29-.18,3.62,3.62,0,0,1,2.19-1.23c.09,0,.17-.13.26-.19l1.31-.87.43-.73.43-.84c.49,0,.89-.11.87-.74a1.45,1.45,0,0,1,.1-.69c.19-.44.48-.82.64-1.26.09-.25,0-.57,0-.85.21-1.4.46-2.8.65-4.2a15.43,15.43,0,0,0,.15-2.15c0-.4-.23-.78.11-1.19.1-.13-.09-.5-.15-.75a3.4,3.4,0,0,0-1-1.21,9.9,9.9,0,0,0-1.55-1,16.39,16.39,0,0,0-1.68-.68,2.09,2.09,0,0,0-.5-.2c-1.07-.16-2.13-.3-3.2-.42-.12,0-.25.1-.38.11a8.06,8.06,0,0,1-.85,0c-.12,0-.24-.13-.37-.14a8.52,8.52,0,0,0-1.24-.1c-.85,0-1.67-.48-2.53-.13a.45.45,0,0,1-.27,0,2.51,2.51,0,0,0-1.87,0c-.61.27-.76,0-.93-.35a2.59,2.59,0,0,1-.51.18c-.58.11-1.27,0-1.48.81,0,.18-.26.33-.42.48a8.36,8.36,0,0,0-1.52,1.44A12.24,12.24,0,0,0,91,84.43c-.11.31-.25.61-.33.93s-.66.76-.42,1.4c.09.26-.26.68-.41,1l-.34.75L89,89.75l.25.15-1,2.61c.44.42.08.82-.31,1.17l.46.3-.2,0a4.24,4.24,0,0,0-.34.87c0,.19,0,1.25,0,1.47a.77.77,0,0,0,0,.26c0,.46.1.93.12,1.4,0,.67-.52,1.33-.11,2a1.29,1.29,0,0,1-.23,1.79,2.68,2.68,0,0,1,.27,2,1.78,1.78,0,0,0,.08.59l.09,0-.18,1.45c.19.06.29.18.28.3s-.1.54-.09.8.24.75.11,1c-.24.52,0,.85.24,1.24s-.08.62.23.89c.1.08,0,.4,0,.61.07.62.67.64,1,.87,0,.2-.13.45,0,.57a4.44,4.44,0,0,0,.8.82c.33.28.71.5,1,.78.12.11.14.31.18.39.3.17.8.32.8.46,0,.52.32.28.54.36s.79.32.77.42c-.08.6.4.42.64.54a3.53,3.53,0,0,0,.7.28c.58.17,1.23.58,1.73.44,1.08-.29,2.07.21,3.13.06a12.47,12.47,0,0,1,2.5.17c.24,0,.51-.17.71-.1a7.26,7.26,0,0,0,3.14.25c.32,0,.64,0,1,0-.74-.19.1-.46-.07-.79l-1.49.39-.31-.36,3.93-1.82c.44.47.53-.06.65-.55l.1.35.72-.47.14.13.28-1.13c.39.15.87.32,1.12-.37l.1.23c.94-.18.88-1,.94-1.67l.41.48c.12-.26.2-.44.28-.63l.13.06-.06.32.2,0c.08-.41.15-.82.22-1.18a8.49,8.49,0,0,0,1.22-.57,7.85,7.85,0,0,0,1-1l-.74-.14c.21-.14.46-.22.48-.34.19-.89.9-.66,1.44-.72,0-.37.1-.72.14-1.07h.2l.16.75c.22-.35.34-.54.49-.76-1.36-.31-1.36-.31-1.58.32l-1,.36c.08-.21.1-.52.21-.55C117.22,106,117.4,105.46,117.74,105Zm-7.6-12.76s0,0,0,0Zm-11.7-6.19L97.12,87,97,86.43c-.1.49-.16.8-.22,1.11-.08-.94-.08-.94.8-1.94l.3.13Zm.83,0a8.19,8.19,0,0,1,2.15.06,12.72,12.72,0,0,1,1.26.21,1.67,1.67,0,0,0,.36.28c.58.28,1.17.55,1.78.79a.78.78,0,0,1,.57,1,.68.68,0,0,0,.08.34,20.11,20.11,0,0,1-10.76,5.71c.27-.57.49-1,.69-1.49,0-.12.13-.29.08-.36a.86.86,0,0,1,.16-1.1,1.22,1.22,0,0,0,.38-.86c0-.26.25-.49.34-.75a1.91,1.91,0,0,0,.16-.8,1.19,1.19,0,0,1,.81-1.28c.31-.15.48-.6.75-.86S98.83,86.13,99.27,86Zm2.07,28.83c.33.06.78.21.84-.41h0C102.12,115.09,101.67,114.93,101.34,114.87Zm.86-.42h0a1.15,1.15,0,0,0,1.29.29A1.15,1.15,0,0,1,102.2,114.45Z"/><path class="cls-2" d="M257.83,40.36a0,0,0,0,0,0,0h0Z"/><path class="cls-2" d="M265.1,74.72c0-.69-.48-.4-.82-.34.08-.45.08-.45,1.13-.35l-1-1c0-.09-.09-.33-.2-.74-.21.41-.34.63-.44.82l-.74-.65c0-.48.44-1.12-.33-1.54-.08,0-.1-.21-.14-.33-.18-.49-.33-1-.52-1.49s-.5-1.22-.76-1.82c-.1-.24-.21-.47-.32-.7l-.07,0-.3-1.19-.19,0c0-.17.13-.36.09-.52-.16-.63-.38-1.24-.55-1.87-.13-.45-.19-.93-.35-1.37a17.3,17.3,0,0,1-.76-1.86c-.26-1.12-.18-2.32-.91-3.33-.17-.24-.11-.64-.16-1s-.07-.65-.15-1-.41-.75-.3-.92c.25-.4-.09-.56-.17-.8s-.3-.32-.35-.5c-.19-.73.1-1.6-.63-2.19l.34-.38-.8-.76c.13-.2.36-.39.33-.53a7.27,7.27,0,0,0-.55-1.93c-.52-1-.38-2.06-.71-3-.15-.46-.25-.94-.4-1.47l3.29-1.18c.28-.1.46-.24.2-.52a4.67,4.67,0,0,0-.76.17,5.7,5.7,0,0,1-1.65.66,1.46,1.46,0,0,0-1.19.44,2.81,2.81,0,0,1-.23-1,1.39,1.39,0,0,1,.55-.89c.85-.42,1.77-.73,2.73-1.12,0,0,0-.2.15-.22A14.34,14.34,0,0,0,260.49,37a35.6,35.6,0,0,0,4.18-2.41c.14-.08.34-.3.32-.36a1,1,0,0,0-.45-.48,2.17,2.17,0,0,0-2.09.81c.46.3.46-1,1.15-.21a8.87,8.87,0,0,0-1.85.92c-.51.41-1.26.34-1.64.93,0,0-.13,0-.18,0a7.17,7.17,0,0,0-.7.23c-.18.08-.4.33-.51.29-.48-.2-.65.15-.93.38a3,3,0,0,1-.75.32,8.92,8.92,0,0,0-1.79.76c-.77.53-1,.59-1.92-.17.81-.35,1.55-.69,2.31-1a11.57,11.57,0,0,0,2.16-.8c.8-.52,1.78-.62,2.52-1.31a7,7,0,0,1,1.83-.84,5.29,5.29,0,0,1,1.21-.61c.37-.05.52-.13.53-.48,0-.07,0-.18.07-.21l1.56-.94-.5-.56c-.11.17-.18.41-.33.47-.57.26-1,.93-1.82.55-.14-.07-.46.09-.6.24s-.4.4-.7.06a.6.6,0,0,0-.58.07,1.46,1.46,0,0,1-1.25.7,1.91,1.91,0,0,0-.7.22,11.83,11.83,0,0,1-1.67,1c-.87.33-1.63,1-2.63.93-.09,0-.17.15-.27.2a4.38,4.38,0,0,1-1,.48c-.17,0-.4-.19-.61-.29.15-.26.24-.65.45-.74,1.37-.55,2.75-1,4.13-1.53a1.22,1.22,0,0,0,.29-.17,7.9,7.9,0,0,1,.8-.63c.9-.52,1.83-1,2.74-1.51-.45-1-.8-1.06-1.56-.33A6,6,0,0,1,258,32c-.78.33-1.62.53-2.4.87-.6.25-1.14.65-1.73.94a14.51,14.51,0,0,1-1.39.51c-.05,0-.12,0-.23-.07l.21-.25c-.78-2.64-1.54-5.18-2.3-7.73l.17,0-1.13-.91.48-.18a14.61,14.61,0,0,0-.78-2.12c-.41-.76-.18-1.81-1.1-2.35l.39.06c-.1-.46-.93-.78-.15-1.27-.5-1.08-.49-2.38-1.5-3.29v.58l-1-1c-.2-.19-.53-.37-.55-.57-.07-.79-.69-.55-1.1-.73s-1.34,0-1.59-.84c0-.05-.31,0-.52,0,.26.42-.16,1.12.67,1.1-.32.51-.19,1,.1,1l-.47.39a.93.93,0,0,0-1.13-.55c0,1.21.89,2.28.53,3.55.07.35.11.76.23,1.16.26.78.56,1.54.83,2.32.11.31.16.65.27,1s.31.82.49,1.21a8.47,8.47,0,0,1,.65,1.41c.1.46.09.82.27,1,0,0,0,.13,0,.2a11,11,0,0,1,.57,1.44,4.89,4.89,0,0,0,.65,2.3c.32.4.29.68-.17.86.21.17.49.28.57.48a6.33,6.33,0,0,1,.16,1c0,.2.32.4-.08.52.46.37.47,1,.72,1.46a2.24,2.24,0,0,1,.09.91l.16.17c-1.17.41-2.33.84-3.51,1.2a4.86,4.86,0,0,0-2.35.87,2.67,2.67,0,0,0,.84.22c1.35-.17,2.75,0,4.05-.63a3.66,3.66,0,0,1,1.42-.1l0,.2c-.29.11-.59.2-.87.32s-.52.24-.51.29c.18.64-.32.47-.6.53s-.81.19-1.21.25c-1.22.21-1.28.25-1.48,1.18l-1.17.53.11.32a3.51,3.51,0,0,1,1.14-.3c1.52.14,2.79-.6,4.15-1.06.49-.16.86,0,1,.43A1.28,1.28,0,0,0,248,41l-2.65.62.62.46-2.17.62.12.13c-.18.15-.34.39-.55.45-.69.19-1.39.31-2.09.45l0,.25a21.08,21.08,0,0,0,2.24-.16,18.67,18.67,0,0,0,2.18-.63v-.12c.58-.22,1.06-.38,1.51-.58s1.09,0,1.15.22.1.7.14,1l-1.42.51c.17.22.29.28.41.29,1,.13,1,.11,1.4.71a1.87,1.87,0,0,1,.27.76,14,14,0,0,0,.26,1.72,3.35,3.35,0,0,0,.7,1l-.5.09c.45.63.65,2.43.26,2.83a2.81,2.81,0,0,1,1,2.29,5.72,5.72,0,0,0,.61,1.38c0,.13-.18.58-.09.64.48.33.38.78.35,1.22l.46.08-.21.1a20,20,0,0,1,.57,2.5,11.3,11.3,0,0,0,.94,2.65l-.46.05c.89.77.94,1,.58,1.59A19.3,19.3,0,0,1,255,66.87l-.31.15a2,2,0,0,1,.28.34c.12.23.22.48.33.72a11.82,11.82,0,0,1,.63,1.47c.22.85.32,1.75,1.28,2.19l-.28.81.41.11a2.59,2.59,0,0,0,.08.82c.34.65.79,1.25.43,2,0,.11.06.3.14.43s.47.48.56.76a3.6,3.6,0,0,1,.07,1.14,1.72,1.72,0,0,1-.14.46l.54,0c-.08.35-.09.65.4.65v0h.51l-.11-.15c.29-.23.73-.71.84-.65.6.36.54,0,.59-.39,0-.09.17-.15.26-.23l-.53-.38.35-.51.3.78.57-.8.42.22-.47.68,2.37.86.64-.16c.19-.75-.36-1.13-.94-1.59h.55l.1-.16-.88-.91.55-.43-.31-.49.09-.09,1.28,1.18.09-.65C265.48,75,265.11,74.85,265.1,74.72Z"/><path class="cls-2" d="M299,62.19a.7.7,0,0,0,.27-.19l.89-.87c-.25-.55.38-.3.76-.48l-1.06-.32c-.25.79-.64,1-1.46,1a19.52,19.52,0,0,0-2.29.23c-.08,0-.22.07-.23.12-.12.76-.73.64-1.25.73-.27,0-.7.19-.73.35-.09.53-.5.57-.85.75-.74.38-1.37,1-2.3,1a.13.13,0,0,0-.11.08c-.26.67-.94.6-1.45.8-.17.07-.36.09-.52.17a1.47,1.47,0,0,1-1.75-.32l.26-.09a6.23,6.23,0,0,0,2.1-.65c.75-.57,1.73-.78,2.34-1.54.05-.06.22,0,.33,0a4.12,4.12,0,0,0,.86-.28c.54-.29,1.05-.63,1.57-.95l1.59-1s0-.12,0-.27l.62-.09c-.18-.66-1.19-1.15-1.61-.66a5.92,5.92,0,0,1-1.7,1.26c-.63.36-1.17,1.07-1.82,1.17-1.25.2-2.16,1-3.27,1.45a11.4,11.4,0,0,1-2.91,1.15,13.78,13.78,0,0,1-3.15-.07,7.66,7.66,0,0,1-2.27-.89,15.92,15.92,0,0,1-1.62-1.1c-.43-.29-.87-.55-1.29-.84a.87.87,0,0,1-.22-.33c-.27-.5-.58-.93-1.32-.79l1.14,1.46a1.55,1.55,0,0,0,.33.21l1.92,1.14-.15.28a4.7,4.7,0,0,1-4.32-2.35c.06-.12.29-.35.28-.56,0-.68-.06-.67.44-1,.1-.07.21-.23.18-.32a.5.5,0,0,0-.27-.33,2.4,2.4,0,0,0-.6,0l0-.12.72-.18c-.83-1.35.39-2,1.11-2.52a10.35,10.35,0,0,1,3-.89,6.13,6.13,0,0,0,.75-.29c.22-.1.41-.26.63-.34.91-.36,1.83-.7,2.76-1,.65-.24,1.32-.43,2-.65.35-.11.7-.2,1-.34a9.61,9.61,0,0,1,2-.85,1.8,1.8,0,0,0,1.73-1.49,2,2,0,0,0-.43-.14c-.3,0-.75-.11-.87,0-.75,1-2,1-3,1.47A31.28,31.28,0,0,1,282.61,53c-1.19.43-2.26,1.19-3.58,1.24-.08,0-.15.1-.23.13l-.91.32a11.14,11.14,0,0,0-2,.65c-.68.37-.8.41-1.11-.3a2.1,2.1,0,0,0,.56-.07l3.15-1.33h.07L282,52.46c.51-.18,1-.4,1.51-.57a4.73,4.73,0,0,0,1.54-.5c.95-.82,2.49-.45,3.18-1.7,0-.06.22,0,.33-.06a2.68,2.68,0,0,0,1-.25,2.81,2.81,0,0,0,.59-3.55l.73-.65-.06-.15-1,.32a2.27,2.27,0,0,0-.26-.54c-.29-.34-.73-.61-.91-1a14.4,14.4,0,0,0-2.7-3.22,7.25,7.25,0,0,0-1.22-1.06c-.41-.29-.9-.47-1.32-.75a3.88,3.88,0,0,1-.6-.68,3.56,3.56,0,0,1,2.77.72,1.75,1.75,0,0,0,.52.23c.22.1.59.17.63.32.2.71,1.16.68,1.3,1.45,0,.24.31.44.52.73a1.25,1.25,0,0,1,.48.32,10.18,10.18,0,0,1,.5,1c.27.48.54,1,.85,1.42A6.68,6.68,0,0,0,291,45l.08-.13c-.09-.38-.18-.75-.3-1.23l-.36-.11.25-.54-.55-.11c-.24-.5-.36-1.13-.66-1.24-.92-.33-.83-1.39-1.58-1.88s-1.08-1.39-2.08-1.5c-.07,0-.12-.22-.19-.34-.44.27-.43.26-.77-.17a.72.72,0,0,0-.47-.2c-.85,0-1.69,0-2.54,0a.64.64,0,0,1-.27-.07l-1.37-.71a.91.91,0,0,0-.33,0h-2.81a.26.26,0,0,1-.19-.07c-.43-.33-.82-.13-1.24,0a4.82,4.82,0,0,1-.85.22,15.92,15.92,0,0,1-2.25.35c-.7,0-1.1.52-1.65.77s-1.15.57-1.25,1.31c0,.11,0,.26-.1.31-.65.45-.34,1-.26,1.48a2.29,2.29,0,0,0-.36.69c-.08.6-.73.94-.65,1.61a9.53,9.53,0,0,1,0,1.41.4.4,0,0,0,.07.26c.55.34.16.82.21,1.23.07.6-.49,1.18,0,1.8.11.15-.05.55-.13.82s-.25.31-.23.43c.11.5.36,1,.08,1.49,0,.06.06.17.06.26,0,.34,0,.67,0,1,0,.12-.05.25,0,.37.14.6.48,1.22-.17,1.75a.27.27,0,0,0,0,.26c.72.76-.06,1.58.11,2.4a11.83,11.83,0,0,1,.08,2.6c0,.46-.11.92-.12,1.38a1.42,1.42,0,0,0,.17.76c.35.55.76,1.05.41,1.77a2.08,2.08,0,0,0-.08.58l.12,0,.15-.35h.13c0,.34.09.68.13,1a.72.72,0,0,1,.19,0c.47-.05.89-.59,1.44,0,.36.38,1,.45,1.22,1.07,0,.08.16.15.26.2,1.22.54,2.43,1.11,3.68,1.6.84.33,1.72.55,2.58.81a13.76,13.76,0,0,0,2.16.57c.12,0,.28-.08.38.1a1.44,1.44,0,0,1,.05.31c.59-.17,1.34.41,1.74-.13s1-.39,1.52-.48c.24,0,.58.25.75.16.54-.29.93,0,1.37.29a1.62,1.62,0,0,1-.91.21c-.94-.16-.94-.18-1.23.17l1,.22,0,.21-1.07.25c.23.34.45.64.58.83.68-.31,1.25-.62,1.85-.84a22.32,22.32,0,0,0,2.24-1c.74-.38,1.56-.66,2.3-1.1a11.7,11.7,0,0,1,1.36-.55c.65-.29,1.29-.61,1.92-.9,0,0-.05-.18,0-.16.34-.13.62-.21.88-.34A27.37,27.37,0,0,0,298,65.05c.83-.51,1.58-1.15,2.41-1.77a1.87,1.87,0,0,0-1.61-.52C298.64,62.51,298.5,62.27,299,62.19ZM274.78,50a4.61,4.61,0,0,0,.16-1.25,6.07,6.07,0,0,1,.09-2.51,5.1,5.1,0,0,0-.14-1.27,2.66,2.66,0,0,1,.33-2h2.19c.12-.16.23-.33.35-.5,0,.37.17.5.53.51a2.11,2.11,0,0,1,.75.12c.54.22,1.06.49,1.62.76v-.43c.56.56,1.11,1.13,1.68,1.68.06.06.22,0,.38,0l-.19.29.6.8v0a3.64,3.64,0,0,1,.77.86c.14.31,0,.6-.46.74-1,.3-2,.71-3.05,1.09s-1.95.78-2.94,1.14c-.66.23-1.34.43-2,.6a.61.61,0,0,1-.53-.14A.74.74,0,0,1,274.78,50Zm21.43,13.86c-.35.17-.51.34-.41.59C295.7,64.18,295.86,64,296.21,63.84Zm-2.61,2-.38-.63c.13.21.26.42.38.63Zm-2.36.82,1-.34-1,.35Zm0,0h0l-.6.65C290.83,67.14,291,66.93,291.22,66.71Zm1.47-.34.91-.48h0Zm.91-.48h0a2.29,2.29,0,0,0,.23-.21A2.29,2.29,0,0,1,293.6,65.89Zm1.77-.81.6-.38h0Zm.61-.38h0a.37.37,0,0,0,.64-.11A.37.37,0,0,1,296,64.7Z"/><path class="cls-2" d="M85.41,121.21c-.85.11-.77-.65-1-1.1a7.16,7.16,0,0,1-.35-1.47c-.08-.32-.35-.6-.47-.93a12.67,12.67,0,0,1-.49-1.73,10.35,10.35,0,0,1-.09-1.12c0-.29-.08-.57-.13-.86,0-.09-.09-.18-.1-.28-.09-.49-.16-1-.23-1.46l-.09-.72c0-.34-.15-.69-.21-1s0-1-.16-1.16c-.65-.46-.55-1.18-.77-1.76a10.73,10.73,0,0,1-.33-2.14,4.86,4.86,0,0,0-.21-1.06c-.17-.55-.38-1.08-.54-1.63-.1-.36-.08-.76-.19-1.13-.17-.58-.68-1.22-.55-1.69.26-.92-.49-1.55-.36-2.42.09-.59-.32-1.24-.44-1.87-.08-.46-.06-.94-.1-1.52l-.26-.22a3.79,3.79,0,0,0,.11-.79c-.06-.48-.23-1-.26-1.44s.23-1.09,0-1.47a16.3,16.3,0,0,0-1.77-2.46c-.12-.15-.56-.15-.79-.06s-.3.53-.22.62a9.4,9.4,0,0,1,1.05,2.39c.06.13.19.29.16.4-.13.41-.32.81-.48,1.19l.32.46c-.22.06-.49.22-.65.15a1.5,1.5,0,0,1-.64-.63c-.15-.29-.11-.68-.25-1A6.83,6.83,0,0,0,74.11,90c-.49-.55-1-1.06-1.65-1.66.11-.66-.71-.73-1.1-1.2l-.31.48.69,1a2.43,2.43,0,0,0,.05.6,5.52,5.52,0,0,1,.38.77,5.31,5.31,0,0,1,0,2.38L72,92.06l-.29,1,.43-.07a2.78,2.78,0,0,1-.22.84c-.14.23-.42.36-.62.54a.24.24,0,0,0,0,.23.28.28,0,0,0,.2.14c.45,0,.45,0,.32.39a2.47,2.47,0,0,0,0,.61,8.06,8.06,0,0,0,0,.85,4.12,4.12,0,0,0,.12.59l.24.82c.52.59.52.59,0,1.37.13.59.23,1,.34,1.47.06.24.26.5.21.71-.13.54-.17.52.29.76a1.28,1.28,0,0,1,.26.24l-.56.09.34.9.25,0c.16-.44.31-.88.48-1.38.24.35.77.62.49,1.11l.73.55-1.07.18c0-.22-.07-.44-.11-.71l-.7,1.14.51,1.43.54-.16.15,1.14c-.65.11-.41.73-.62,1l1.32-.18-.4,1.17-.13,0,.19-.9-.85.4.08.18.25-.08a4.23,4.23,0,0,1,.33.94c.08.59.44,1.13.29,1.77,0,.13.14.3.3.58a2.3,2.3,0,0,0-.19.56c0,.1.15.24.24.35.07.5.14,1,.2,1.45l1-.2c-.76.34-.17,1.33-.83,1.71l1-.08,0,.17-.47.13c-.38.79.61.86.75,1.29h-.68c.27,1.12.52,2.2.79,3.35l.21-.36.38.32c-.74.19-.84.32-.72.77l.56-.35h0l.77-.1c0,.22,0,.4,0,.59l.43-.11c0,.38.06.71.07.87l1.27-.43c.13.4.19.64.28.87a5.84,5.84,0,0,1,.38,1,11.81,11.81,0,0,1,0,1.19c0,.11.21.19.42.36,0,1.17.12,1.31,1.44,1.26.37,0,.42.18.5.48s.27.78.46.8a3.16,3.16,0,0,0,1.38-.23c.22-.09.35-.42.53-.64l-.28,0c-.32-.49-.65-1-.94-1.47a.41.41,0,0,1,.11-.39c.49-.37.28-.68,0-1a3.28,3.28,0,0,1-.35-.67,5.64,5.64,0,0,1-.21-.62C84.31,122.28,85.25,122.35,85.41,121.21ZM78,119.07h0a.52.52,0,0,1,.15.07A.52.52,0,0,0,78,119.07Zm.26.16h0Z"/><path class="cls-2" d="M242.68,80.09s.07,0,.08,0c.07-.18.14-.37.22-.55.62,0,.91-.18.72-.56s-.39-.68-.56-1-.54-.66-.33-1.14a.41.41,0,0,0-.1-.37c-.58-.23-.13-.58-.12-.88-.27-.16-.66-.26-.27-.7.07-.09,0-.34-.07-.51s-.09-.52-.16-.78a1.16,1.16,0,0,0-.19-.54.68.68,0,0,1-.2-.87c.05-.09.09-.27.05-.3-.56-.43-.34-1-.45-1.59a7.93,7.93,0,0,0-.62-1.59c-.14-.32-.3-.63-.46-1l.38-.17c-.34-.42-.81-.75-.91-1.16a6.36,6.36,0,0,0-.59-2.3c-.11-.16-.3-.44-.25-.5.45-.55-.2-.88-.28-1.3-.17-.85-.67-1.64-.84-2.49s-.11-1.86-.2-2.79-.24-1.6-.37-2.4c-.08-.49-.16-1-.27-1.47a.41.41,0,0,0-.29-.24c-.16,0-.45.13-.45.21,0,.55-.6,1.12-.08,1.53-.06.53-.1,1-.14,1.36-.82-.23-1-.66-.86-1.63-.74-.39-1-.27-1.2.44,0,.15-.25.26-.39.38,0-.14-.11-.28-.15-.43s-.1-.39-.17-.59c-.15-.43-.32-.86-.48-1.3-.06-.17-.11-.49-.2-.5a1.16,1.16,0,0,0-.68.14.7.7,0,0,0-.18.49c0,.44.08.89.09,1.34a5.56,5.56,0,0,1-.08.81c0,.39,0,.76,0,1.13s.56,1.08-.37,1.4c.64.65.11,1.08-.09,1.54a1,1,0,0,1,.21.52c0,.26,0,.51.08.86-.46.3-.23,1-.08,1.39s.31.84-.36,1.14l.65.18c-.33.33-.25.47.17.45l-.34.68c.73,0,.66.33.42.69a3.64,3.64,0,0,0,.45.81c.6.63.29,1.49.58,2.2.11.27.09.62.24.85a2.8,2.8,0,0,0,.71.58l-.61.3.83.76-.55.3c.32.17.9.23.36.6l.6.32-.47.31.95.47-.46.16.24,1.38.79.6-.46.37.6.43-.56.42.72.6-.42.5.6.16-.35.43.56.13-.31.28.4.49c-.47.52-.37.86.24,1.11l-.17,1c.56.13.53.12.27.79a1,1,0,0,0,.12.69c.24.4.85.85.77,1.11-.27.87.46.83.88,1.28.1-.31.28-.64.22-.69-.29-.25,0-.76-.55-1-.25-.1-.33-.66-.45-.93l.69-.34h1.38a1.39,1.39,0,0,1,.18.3,7.53,7.53,0,0,0,.32,1.15c.08.2.39.46.54.43a4.31,4.31,0,0,0,1.11-.47c.12-.06.19-.23.29-.34.05.28-.27.75.32.75l.22,1.39.86-.61-.76-.44c.11-.36.59-.83-.25-1l.81-.93.32.2a1,1,0,0,0-.8-1.45c-.17,0-.47-.11-.51-.23a3,3,0,0,1-.06-.85l.19,0Z"/><path class="cls-2" d="M72.11,78.74c.64-.39,1.27-.8,2-1.24,0,.21.13.37.09.4-.39.38-.4,1.15-1.17,1.16-.12,0-.34.17-.33.21.21.75-.49.65-.79.94,2.36.36,3.2-1.35,4.05-3.07l-.46-.31c.18-.4.85-.67.16-1.21l.51-.17L76,75.38,76.65,73l-.83.21.06-.2-1-.53c0-.53-.09-1.1-.15-1.87l-1.45.88.55.27c-1,.49-1.12.73-.83,1.22l-.75.23c.14-1.23.28-2.33.41-3.44a2,2,0,0,0,0-.46A6,6,0,0,0,72,69.1l.12.24a6.54,6.54,0,0,1-.35.64c-.07.11-.27.17-.28.27a1.51,1.51,0,0,1-.68,1.08.4.4,0,0,0-.14.29A1.35,1.35,0,0,1,69.73,73c-.51.15-.54.42-.43.83H67.49c.11.81.57.77,1.08.76a3,3,0,0,1,.88.29c-.17.26-.28.61-.52.77-.7.46-1.45.83-2.22,1.26.06.6.16.74.8.72s1.49.18,2.09-.43c0,0,.15,0,.22.07a5.32,5.32,0,0,1-.36.79c-.13.19-.35.45-.53.45-.56,0-.56.37-.61.8a5,5,0,0,0-.79,0c-.09,0-.24.14-.24.23s.09.34.14.34c.65,0,1.47.18,1.9-.14a3,3,0,0,1,2-.63A1.81,1.81,0,0,0,72.11,78.74Z"/><path class="cls-2" d="M232,41.43a1.34,1.34,0,0,1,.55-1.32s0-.12,0-.16l-.49.25c.06-.2.09-.32.15-.55l-.52.36-.09-.2-.29.87L231,40.6l.29-1.13-.19,0-.44,1.11-.19-.71-.41.7v-1h-.83c-.14,1.58-.82,3.27-.2,5.16l.61-.52.06.46a3.13,3.13,0,0,0,.9-.16,1.49,1.49,0,0,0,.85-1.21C231.58,42.61,232,42,232,41.43Z"/><path class="cls-2" d="M144.05,79.47l-.23.13L146,82c.24,1.16,1.45,1.64,1.77,2.77l.44-.38a11.61,11.61,0,0,1-1.69-2.7.88.88,0,0,1-.39-.21c-.5-.59-1-1.22-1.45-1.83a5.86,5.86,0,0,0-1.52-1.54.54.54,0,0,1-.2-.31c-.1-.56-.19-.61-.69-.36C142.39,78.51,143.57,78.66,144.05,79.47Z"/><path class="cls-2" d="M271.39,65.94l-.52,0,0-.12.43-.19-.68-.15,0-.37a2.75,2.75,0,0,0-.48,0,3.2,3.2,0,0,0-.57.13c1.13,1,1.82,2.38,3.26,2.84l.16-.46c.17.5.3.89.44,1.29l.2,0,.36-.8-1.77-1.3C271.92,66.79,271.25,66.87,271.39,65.94Z"/><path class="cls-2" d="M111.29,114.8c.22.64.61.3.9.17a7.26,7.26,0,0,0,.91-.57c.08-.05.22-.09.22-.14,0-.77.72-.9,1.2-1.27l-.88-.57C113.22,113.65,112.16,114.15,111.29,114.8Z"/><path class="cls-2" d="M214.59,94.9c1,.82,2.16,0,3.18.42,0,0,.08,0,.13,0l-.1-.38c.87-.06,1.22-.32,1.2-.94A7.5,7.5,0,0,1,214.59,94.9Z"/><path class="cls-2" d="M115.6,111c-.86,0-.78,1-1.41,1.29.08.08.16.21.26.23.52.1,1.1-.42,1.21-1.07l.85-.29-.47-.64C115.89,110.67,115.75,111,115.6,111Z"/><path class="cls-2" d="M78.84,123.76c-.07-.38-.11-.58-.15-.79l-.21,0-.16.58c0,.15,0,.34-.13.43-.43.45-.44.44-.2.87l1.38-.61c-.07-.39-.13-.78-.23-1.31C79,123.23,79,123.42,78.84,123.76Z"/><path class="cls-2" d="M210.17,79a4.15,4.15,0,0,0,.89,0,4.6,4.6,0,0,0,.09-1.48c0-.19-.38-.34-.59-.5l-.2.16c.09.38.17.76.26,1.17l-.5.39Z"/><path class="cls-2" d="M107.61,116.29l.15.49a8,8,0,0,0,1.14-.09,10.06,10.06,0,0,0,1.18-.37c-.19-.11-.38-.3-.56-.28C108.89,116.08,108.27,116.2,107.61,116.29Z"/><path class="cls-2" d="M110.08,116.32h0l0,0Z"/><path class="cls-2" d="M260,39.74a8.85,8.85,0,0,1,1.5-.4v-.55l-2.23.59C259.45,40,259.46,40,260,39.74Z"/><path class="cls-2" d="M40.49,134.25c0-.81,0-.81-.68-.63a5.37,5.37,0,0,0,.31.69c.17.29.33.68.6.79s.62-.1.94-.17l-.07-.21C41.14,135,40.49,134.68,40.49,134.25Z"/><path class="cls-2" d="M147.09,109.12c.11.45,1.17.21.73,1l.45,0,.47-1-1.54-.37Z"/><path class="cls-2" d="M282.6,70.68c-.24-.61-.73-.29-1.12-.27-.59,0-1.2.2-1.7-.38l-.36.25.05-.17L275.84,69s0-.18-.07-.2c-.47-.13-.94-.23-1.42-.32-.09,0-.28,0-.29.08s0,.31.06.36a3.41,3.41,0,0,0,.64.3l1.83.75.12-.44h.09l.1.54,1.16.23.28-.4c.21.3.41.59.61.86a.23.23,0,0,0,.18.08c.28,0,.57,0,.85,0s.76.25,1,.13a1,1,0,0,1,1.37.31c.08-.25.15-.45.22-.65h0Z"/><path class="cls-2" d="M282.62,70.68c.07.14.11.37.2.38.27.06.56,0,.82,0,.57.11.79-.09.68-.75Z"/><path class="cls-2" d="M153.77,105.31c0-1.07-.61-1.47-1.57-1.14.2.13.41.24.59.38a7.14,7.14,0,0,1,.54.56l-.13.18Z"/><path class="cls-2" d="M152.19,104.17h0Z"/><path class="cls-2" d="M77.88,121.41c.05.55.08,1,.11,1.32l-.78.31.51.7C78.38,122.81,78.45,122,77.88,121.41Z"/><path class="cls-2" d="M79,125.47c-.45,0-.45,0-.77,1H79l-.54.58.86-.36c-.17-.29-.33-.54-.53-.86Z"/><path class="cls-2" d="M221,92.48c-.17.1-.44.17-.5.33s.12.36.14.41l1.83-1-.77-.16Z"/><path class="cls-2" d="M223.59,90.42l-.12,0V89.8l-.18,0,.07,1.09.35.07c.24-.66.47-1.32.71-2l-.19-.06C224,89.43,223.8,89.93,223.59,90.42Z"/><path class="cls-2" d="M49.68,132l.94.11.52-.4.51.41c.08-.17.14-.32.23-.52H49.6Z"/><path class="cls-2" d="M117.86,109h-.67c-.15.48-.19,1.08-1,.9.15.32.25.55.36.81l1.45-1.48c.82,0,.41-.85.87-1.09C118.45,108.39,117.68,108.17,117.86,109Z"/><path class="cls-2" d="M199.32,79.56h0l0,0Z"/><path class="cls-2" d="M199.14,80.43l.18-.84v0l-1.44.47Z"/><path class="cls-2" d="M260,80.44l.17-.07-.37-.88.43-.3-.78-.26C258.88,79.73,259.75,80,260,80.44Z"/><path class="cls-2" d="M195.62,74.32l.5.88h.16v-.6l.62-.18-.05-.23Z"/><path class="cls-2" d="M198,76.49l-1.25-.11C197.45,77.32,197.47,77.32,198,76.49Z"/><path class="cls-2" d="M200.49,83.19l-.66-.22c-.08.72,0,.84.62,1Z"/><path class="cls-2" d="M77.08,122.19l.29-.24,0,.42.21,0c0-.31-.07-.62-.13-.93s-.1-.42-.15-.64c-.16.44-.31.89-.47,1.33Z"/><path class="cls-2" d="M56.67,130.2l.13.29,1.52-.64-.13-.27Z"/><path class="cls-2" d="M142.35,76.86l-1.41-.49C141.47,77.24,141.76,77.35,142.35,76.86Z"/><path class="cls-2" d="M54.31,131.17a.87.87,0,0,0,1.29-.43C55,130.43,54.72,131,54.31,131.17Z"/><path class="cls-2" d="M54.29,131.18h0v0l.1-.36-1.37.58h-1.1l.27.4h1a5.58,5.58,0,0,1,.79-.35,1.31,1.31,0,0,0,.31-.27l0,0h0Z"/><path class="cls-2" d="M262.71,38.45l-.09-.22-1.25.28.32.48Z"/><path class="cls-2" d="M196.33,75.41l.6.84.34-.82-.81-.14Z"/><path class="cls-2" d="M195.11,70.61l-1,.54.76.54C194.94,71.3,195,71,195.11,70.61Z"/><path class="cls-2" d="M110,115.53c0,.35,0,.57.06.77l.68-.6Z"/><path class="cls-2" d="M110.11,116.33v0h0Z"/><path class="cls-2" d="M259,40c-.59-.31-.9,0-1.18.36A.85.85,0,0,0,259,40Z"/><path class="cls-2" d="M257.83,40.37l0,0v0Z"/><path class="cls-2" d="M46,96.76h0Z"/><path class="cls-2" d="M48.71,97.58A2.85,2.85,0,0,0,49,98a8.32,8.32,0,0,0,.9-.52l-.29-.59-.46.7-.07-.66a2.44,2.44,0,0,1-.55.06c-.85-.06-1.71-.15-2.56-.23l-.42.81Z"/><path class="cls-2" d="M59.24,107.3l.3,1.55.23,0c-.1-.52-.21-1-.31-1.56Z"/></g></g></g></svg>