<svg xmlns="http://www.w3.org/2000/svg" viewBox="0 0 317.36 135.73"><defs><style>.cls-1{fill:#fff;opacity:0.2;}</style></defs><g id="Calque_2" data-name="Calque 2"><g id="Contours"><path class="cls-1" d="M313.19,41.43c-3.82-8.32-10-15.29-18.62-18.75-8.33-3.35-19.57-3.19-26.79,2.78-1.65,1.38-4.14,6.2-5.52,6.72-.79.29-1.66-.25-2.72-1-3.64-2.72-6.43-7.33-8.85-11.08-4.6-7.08-9.4-18-18.64-19.8-14.58-2.9-16.93,19.26-19,28.31-.43,1.93-1.05,3.8-1.45,5.74,0,.17-.12.45-.2.75-3.18.24-12.1.88-13,.89-10.68.22-21.37-.18-32,1.41a92.81,92.81,0,0,0-13.25,3.25c-1,.32-2,.21-2,.5a29.14,29.14,0,0,1-1.6-3c-4.64-8.17-9.54-16.55-17.11-22.36-4.59-3.52-10.66-6.07-16.23-3.16-4.72,2.46-7.17,7.56-8.67,12.44-2.9,9.42-3.17,19.77-3,29.68-5.22.09-10.48-1-15.69-.65A22,22,0,0,0,75.3,59.56c-4-3.2-7.32-7.32-12.13-9.43-5.47-2.39-10.52-.83-14.67,2.6-14.19-8.53-36-7-47.11,5.46C-1.16,61,.14,64.67,2.55,66.37A65.08,65.08,0,0,0,1.28,79.06c-.17,7.64,1.24,15,3,22.36,2.58,10.67,5.87,22.6,15.09,29.51,8.51,6.37,22,6.82,28.59-1.23,4.22,3.07,9,4,14.88,2.18,5.51-1.74,10.37-5.55,14.7-9.47,9.7,12.67,30.64.3,40.85-9.24,11.81,10.37,30,5.45,43.39.25a129.53,129.53,0,0,1,27.37-7c9.14-1.45,18.52-3.16,26.37-8.24,15.73,10.2,38.55,5,53-6.3,12.58,7.85,27.49,6,38.12-5.35C318.47,74,320.28,56.88,313.19,41.43Z"/></g></g></svg>