<svg xmlns="http://www.w3.org/2000/svg" viewBox="0 0 305.91 121.82"><defs><style>.cls-1,.cls-2{fill:#fe5f58;}.cls-1{opacity:0.2;}</style></defs><g id="Calque_2" data-name="Calque 2"><g id="Phrase_1" data-name="Phrase 1"><g id="P1_m4_3"><path class="cls-1" d="M292.44,70.2C300,66.83,307.26,63.1,305.7,53c-1.59-10.34-11.24-16-20.91-16,.76-10.72,2.08-21.92-8.07-29C266,.55,255,9.54,250.49,19.51c-2,4.48-2.55,8.76-2.69,13.62-.09,3.26.5,12.25-2.78,14.36-2.54,1.64-9.45-1.36-12.05-2.08A105,105,0,0,0,218.45,42c-6.83-.91-14.37-2.46-21.25-1.44-2.19.33-4.34.85-6.5,1.31-1.06.22-2.14.38-3.2.62l-.64.14c-.53-3.31-1.73-7.11-2.27-10.57a63.83,63.83,0,0,0-3.85-14.92c-4.43-10.57-16.12-16.06-27-17a35.1,35.1,0,0,0-31.43,14.05c-3.8,5.23-6.11,11.27-8.65,17.16-2,4.62-5.34,15.08-11.78,14.29-6.13-.74-10.31-8.31-15.5-11.18-4.92-2.71-9.52-1.26-13.65,1.49-4.32-4.06-8.81-8.79-15.15-7.48-1.71.36-3.31,2-4.91,2.26-1.34.22-3-.62-4.31-.93-3.44-.8-6.91-1.92-10.46-2.12-8-.48-13.16,3.82-17.15,9.7A3.66,3.66,0,0,0,15.28,39C11.54,46.63,5.93,53.18,2.6,61A35.28,35.28,0,0,0,1.44,84.34C3.33,91,7.62,96.85,14.57,98.71a18.62,18.62,0,0,0,11.1-.57c2.64-1,7.34-4.54,10.14-3.16s4.38,4.87,7.46,6.28c3.65,1.68,8,1.5,11.85.73a18.85,18.85,0,0,0,5.49-2c1-.54,2.64-2.36,3.77-2.14s2.51,2.52,3.2,3.26a25,25,0,0,0,4.65,4c7,4.61,15.29,4,22.85,1,3.53-1.39,6.14-3.91,9.43-5.62s6.21,1.35,8.76,3.58c3.56,3.12,6.88,5.95,11.31,7.74a45,45,0,0,0,15.48,3.27c9.26.32,17.89-3,25.89-7.38,6.7,7.06,14.77,10.06,25,10.42,14.78.52,29.29.67,44,2.33,7.36.82,14.58,1.88,22,.88a61.14,61.14,0,0,0,18.9-5.94c10.81-5.35,22.18-13.71,27.27-25,2.38-5.3,3-12-1.43-16.45C299.15,71.38,295.86,70.54,292.44,70.2Zm-106-27.56c-.64.08-.35-.09,0,0Z"/><path class="cls-2" d="M297.86,86.45a1.49,1.49,0,0,1-.07-.49c.14-.56-.08-.87-.64-.8a6.29,6.29,0,0,0-1,.28c-1,.29-1.48.09-1.83-.77-.27-.63-.65-.71-1.06-.16a6.31,6.31,0,0,0-.51,1.07l-.68-.72c-.1.22-.3.45-.24.55.31.59.07.77-.5.79-.37,0-.89,0-1.08.16a25.56,25.56,0,0,0-1.68,2.2h0c-.9.27-1.55.76-1.54,1.73-.23,0-.52,0-.56,0a.85.85,0,0,0,0,.59c.25.72.24,1-.11,1.3-.13-.28-.27-.56-.48-1-.13.56-1.1.38-.69,1.21-.67.36-.27,1-.25,1.64-.83-.84-1.53-.86-2.17,0a7.19,7.19,0,0,0-.6,1.32,2.45,2.45,0,0,1-.45.48v.83l-.4-.68c-1.18.48-1.53.93-1.38,1.86l1.13-.44c.14,1.19-1.26.78-1.39,1.6l-.22-.15c.15-.26.3-.52.46-.78l-.14.07c-.08-.3-.16-.6-.25-.92l-3.05,3.28h.68c0,.19,0,.33-.06.53-.17-.14-.3-.23-.55-.42l.2.74a4.31,4.31,0,0,0-.63-.37c-.14,0-.38-.11-.46,0-.54.48-1.05,1-1.56,1.47l.66.48c-.57.45-1-.66-1.43,0-.24.31-1.21.15-.64,1-.56.23-.61.44-.22.82l-.62.74-.12-.09a3.22,3.22,0,0,0,0-.37h-.5l-.41-.63-.24.32c-.32,0-.59-.09-.87-.11a1,1,0,0,0-.33.09c0-.14,0-.28,0-.45l-1.45.08c-.2-.32-.34-.51-.46-.72a2.42,2.42,0,0,1-.39-.81,11,11,0,0,1,0-1.53l-.65.15c-.12-.48-.59-1,.4-1.22l-.61-.17c.06-.29.11-.54.14-.71.28,0,.66,0,.69-.12a4,4,0,0,0,.12-1.1,4.69,4.69,0,0,0-.13-.67l-.73-.1c0-.07,0-.14,0-.21l.9-.43V92c-.24.46-.72.75-.58,1.25l-.95.29.65.34c-.17.34-.35.67-.56,1.08a3,3,0,0,1-.26-.59c-.12-.58-.2-1.16-.3-1.74,0-.13,0-.26,0-.39a2.7,2.7,0,0,1,.41.06,2.53,2.53,0,0,1,.4.18c.21-1.15,1.1-2,1.09-3.09l-.65-.34,0-.22.65,0c-.14-.44.54-.8.15-1.43-.14-.22.41-.88.65-1.35-.88.17-1.19,0-1.28-.65.36-.11,1,.23.92-.47-.21-.17-.47-.37-.48-.59a2.88,2.88,0,0,1,.23-.93L266.6,83l.77-.34c.1-.39.22-.8.37-1.34l-.63.55c0-1,0-1,.73-1.09l.22.48.22-.1c-.17-.42-.35-.84-.51-1.27s.11-.86.54-1.32c0,.35.07.53.09.71h.13c0-.31.07-.62.11-.94l-.55-.12c.32-.19.83-.07.51-.72-.12-.24.08-.64.15-1a4.51,4.51,0,0,1,.17-.52c-.25,0-.56-.18-.74-.08-.35.2-.61.55-.94.78a1,1,0,0,1-.63.18c-.17,0-.32-.22-.48-.33.88-.16,1-1.73,2.15-1L269,74c.46-.06.54-.56.55-1.1,0-.2,0-.44.06-.58.42-.64.16-.94-.71-1.12l1.17-.51-1.06-.19c.22-.36.51-.63.49-.88s-.37-.44-.55-.63l-.9,1.29c.07-.56.1-.9.14-1.25l-.17-.07-.48.81-.56-.66,1.05-1.29,1.45,1,.94-.38c-.24-.85-.2-.93.07-1.29.16-.21.34-.57.26-.75s-.47-.25-.63-.33c-.21.54-.37,1-.53,1.39l-.21,0-.13-.71-1.35-1c.09.49.16.82.22,1.16l-.47.16.25-.3-1.28-.89c-.13.75-.32,1.28-1.14,1.07,0,0-.16.2-.27.34l.67.23c0,.79-.66.31-.93.64-.08-.74-.15-1.38-.21-2l.66-.79c-.91-.34-1-.2-1.46.54-.55,1-.68,2.17-1.54,3a.64.64,0,0,0-.15.55c.32.64.4,1.41,1,1.91.2.17.27.49.46.7s.51.39.56.35c.66-.61,1.19.1,1.8.14-1.33.34-1.83,1.54-2.64,2.41l-.24-.29-.43.65c-.09-.7-.16-1.28-.24-1.93l.34-.22.41.35c.09-.13.24-.25.27-.39.13-.64-.4-1.11-1.13-1h0c.12.29.24.57.39,1l-1,.08a4.47,4.47,0,0,1,.06,1.41l.47.12v.09l-.37,0c0,.3.05.56.09,1l-.89-.69c.12.81,0,.93-.47.79.15-.53,0-.73-.38-.79a6,6,0,0,1-.77-.28l-.08,1-.56-.07c0,.14.07.26,0,.33-.39.62-.79,1.24-1.19,1.86a2.68,2.68,0,0,1-.37.62c-.4.38-.44.73.13,1.24-1.08-.11-1.34.56-1.58,1.24-.09.24-.22.47-.33.71-.36.83-1.57,1.3-1,2.51,0,0,0,.07-.07.09a2.31,2.31,0,0,0-.59,2.18,5.33,5.33,0,0,1,.8,0c.41.07.63.06.56-.48a6.66,6.66,0,0,1,0-1.41,2,2,0,0,1,.26-.58l.22.07c-.26,1-.4,2,.65,2.7a4.19,4.19,0,0,1,.45.39c.09-.2.18-.41.28-.61.47.18.52.27.51.81a5.11,5.11,0,0,0,.73-.48c.12-.1.14-.4.24-.42.57-.11.58-.61.64-1a5.31,5.31,0,0,1,1.09-2.42l-1.3-.61a15.11,15.11,0,0,0,1.49-.55c.32-.15.75-.35.84-.62a3.32,3.32,0,0,1,1.71-1.76c0,.51-.07.91-.08,1.3a1,1,0,0,0,.07.55c.25.34.55.63,1,1.1l-.83.1c-.27.28-.49.5-.67.7l.26.69a2.42,2.42,0,0,1,.44-.13.73.73,0,0,1,.44,0c.29.17.56.38.85.58-.32.15-.68.4-.18.95l-.24.05-.63-.9-.6,1.16.71.16a.78.78,0,0,0,0,.14h-.38c.05.27.1.5.14.69a2.78,2.78,0,0,0-.59.26s0,.23,0,.32c.2.39.43.78.66,1.21.71-.09.71-.1.87-.89.14.57.27,1.15.43,1.81a3.89,3.89,0,0,0,.77.15c.4,0,.58.23.52.52-.12.58-.34,1.13-.51,1.69l-.22,0c0-.54,0-1.09.08-1.73a2,2,0,0,1-.4.22c-.18.08-.45.22-.55.15-.61-.42-.92-.33-1.14.45l-.49-.33c.66-.54.42-1.16-.56-1.56,0,.47-.34,1,.29,1.29.05,0,0,.25,0,.38l-.33-.07a12.21,12.21,0,0,0-.25,4.14c.23-.21.28-.29.36-.32s.4-.21.51-.15a1,1,0,0,1,.33.53s-.3.15-.39.28a1.61,1.61,0,0,0-.36.76,2.81,2.81,0,0,0,.39.93c-.14.26-.38.68-.62,1.1l.09.14.64-.35c0,.16.12.5.07.52a5.61,5.61,0,0,1-1,.29c-.2.33-.18.43.25,1.28-.59.27-.59,1,0,1.78-.24.37-.45.77.1,1.09,0,0,0,.16,0,.24l.15,1.45h.28c0-.19.07-.39.13-.58s.09-.29.17-.31c.44-.12.52-.17.45-.57a6.4,6.4,0,0,0-.3-.91l1.15-.19c-.47,1-.45,1,.17,1.44l.82-.78.12.13-.45.85.16.09-.62.45.1.15,1.06-.55.51.3.29-.56.47.35c-.49.23-.83.41-1.2.54a2.92,2.92,0,0,1-.84.17,1.11,1.11,0,0,1-.68-.1,5.16,5.16,0,0,1-.71-.82l-.68,1.51.58-.24-.59,1.18a4.51,4.51,0,0,1,.6.08c.29.08.71.12.81.32.24.47.64,1,0,1.57l.25.08.82-.49,1.57.89.51-1.26a2.76,2.76,0,0,1,.29,2.15l.9.28.11-.14-1-2.28.16-.08,1.26,2,.18-.07c-.14-.51-.44-1,.14-1.44.15-.1.3-.18.46-.27-.05.22,0,.62-.14.64-.57.17-.4.49-.21.81a.64.64,0,0,0,.92.24c.14-.06.31-.2.42-.16.91.31,1-.17.83-.86.74-.23.79-.38.42-1.11a.77.77,0,0,1,1.17,0c.17.62.3,1.1.42,1.52a10.23,10.23,0,0,0,.87-.85.65.65,0,0,0,0-.5,4.8,4.8,0,0,0-.31-.75l1.15-.13c-.09.39-.16.72-.24,1.05l.13.15c.57-.37,1.15-.72,1.71-1.12a.64.64,0,0,0,.27-.48c0-.41-.18-.65.39-1.06s.76-.18,1.08-.07l.64-.57-.48-.33c.67-.8,1.6-.2,2.34-.59.3-.56.62-1.16.94-1.78l.3.48.93-2c0,.07.07.19.11.31l.09-.07c0-.18,0-.36,0-.55l.16-.09.24.59,1.46-1.67-.55-.46.51-.56c.14.31.24.55.34.79l.14-.06c0-.37-.05-.74-.08-1.26h0c.76.61.86.57,1.21-.42.05.38.08.63.12.91l1.14-1-.37-.1-.07-.18,1.18-.55c-.22-1.37,1.36-1.55,1.75-2.55l-.26,0c.31-.71.25-.85-.43-1l.51-.55c.17.49.31.92.44,1.34L292,92c0-.09-.11-.28-.07-.31a13.28,13.28,0,0,1,1.2-.93,12.14,12.14,0,0,1,1.14-.56C293.53,89.72,296.26,87.05,297.86,86.45Z"/><path class="cls-2" d="M262.9,88.64v.2h.91V88.7l-.31-.21v0Z"/><path class="cls-2" d="M263.51,88.49l0,0h0Z"/><path class="cls-2" d="M240.52,100.28l-.55.29c.58-.4,1.2-.74,1.06-1.37l-.84-.52a3.41,3.41,0,0,1-.5,1.27c-.54.56-1-.22-1.5-.37l.58-.12c.07-.39.21-.87-.47-1,0,.22-.05.42-.09.7l-1.07-.28c0-.22,0-.4.05-.6l.42.15c-.12-.5-.22-.93-.39-1.62l1.45.58.7-.42a1.82,1.82,0,0,0,0,.36c0,.16.07.32.11.48.13-.07.25-.15.38-.21l.47-.18.35.94c.74-.53.22-1.3.52-1.76-.42-.34-.8-.63-1.2-.94-.17.47-.59.39-1,.19s-.13-1.05.23-1.42h-.87s0-.11,0-.16l.5-.37-.09-.56.13,0,.29.35a3.49,3.49,0,0,1,0-.41,2.62,2.62,0,0,1,.09-.33c.74.9,1,2.1,2,2.75l.16-.11c-.07-.43-.14-.85-.22-1.31l.37-.06v-.12l-.58,0c-.37-.81-.15-1.33.56-1.55,0-1.16,0-2.29,0-3.41,0-.21.08-.26.12-.39.11-.44.27-1.28.17-1.32-.76-.29-.16-.71-.14-1a4.79,4.79,0,0,1,.32-.92,13.14,13.14,0,0,0,.52-4.44,5.64,5.64,0,0,1-.91-.76c-.14-.17-.11-.46-.17-.76.43-.08.27-1.15,1.14-1,0,0,.14-.22.16-.34.05-.28.06-.57.08-.82l-.78-.38-.86.8c0-.42-.09-.75-.14-1.12.62,0,.74-.36.53-.81l-.9-.1c.07-.15.12-.3.19-.44s.42-.55.44-.85a5.56,5.56,0,0,0-.16-1.29c-.95.38-1.15,1.77-2.33,2,0-.09-.07-.2-.14-.43-.22.36-.37.61-.58,1l.53-.1c-.06.44-.13.85-.2,1.34l-1.23-.54-.19.18.7,1.14-.76.39c0,.63.49.51.87.48s.73-.13,1.06-.19c.18-.44-.73-.69-.27-1.15.31.37.61.73,1,1.13l-.29.22c.25.35.53.75.8,1.15l-.1.13-.62-.31c0,.37-.05.69-.07,1l1.63-.93.09.13-.45.31.67.09-1,1.83.69-.24c.09.56.19,1.15.28,1.74-.41-1.21-1.67-1.5-2.39-2.34-.87.4,0,.85,0,1.27l-.34-.32-.15.73.51-.12-.51.12-.39.25-2,.37-.06.65c-.14-.09-.27-.19-.41-.27s-.35-.17-.59-.29l.63,2c-.14.08-.29.19-.46.3a1.38,1.38,0,0,0-1.12-1l-1.26,1.95,1,.45c-.65.58-1-.06-1.37,0-.2.28-.36.53-.54.76a2.29,2.29,0,0,0-.64,2c.05.22,0,.51-.43.35-.19-.07-.53-.11-.65,0a9.72,9.72,0,0,0-.78,1c-.37.47-1.05.73-1,1.48,0,0,0,0,0,0l-.73.67c-.52,0-.58.1-.62,1.08-1.18.07-1.51.32-1.56,1l-2,1.47,1,.83-.14.16-.59-.47-.43.62a.89.89,0,0,0-1.24,0c-.12.1-.34.08-.52.1-.53.06-1.12-.28-1.59.18l.19.07c-.09.49-.17,1-.26,1.47-.47-.34-.72-.72-.32-1.31.05-.08-.2-.51-.34-.53-.56-.09-.63.28-.56.72-.13-.1-.29-.17-.36-.3a12,12,0,0,1-.52-1.08l-.52.12c0-.4-.09-.74-.13-1.09l.15,0,.4.53.18,0a5.17,5.17,0,0,0,0-1.18,4.61,4.61,0,0,0-.48-1c.19-.32.5-.61.48-.86a1.92,1.92,0,0,0-.5-1.13c-.54-.51-.19-.76.16-1.08.16-.15.36-.34.38-.52.07-.72.08-1.45.12-2.06l-1-.48.93-.13V87.19l-.13-.08c-.17.28-.34.56-.6,1v-2c-.31.47-.51.81-.75,1.11-.11.14-.35.32-.45.28a1.38,1.38,0,0,1-.46-.47c-.18-.24-.33-.51-.56-.89-.26.77-.69.54-.87.45l-.59-2.14c-.28.22-.57.33-.63.52a1.14,1.14,0,0,0,.66,1.46c0,.28,0,.48-.07.74l-.63-.16,0,.12.62.18a7.43,7.43,0,0,0-.15.74c0,.06.15.14.23.21h0c.06.16.19.35.15.48a3.18,3.18,0,0,1-.35.69c-.12-.24-.29-.56-.55-1a6.18,6.18,0,0,0-.38,1c-.08.53-.1,1.06-.14,1.6a1.12,1.12,0,0,0,0,.36c.06.17.22.34.2.5a1.35,1.35,0,0,0,0,.64c.22,1,.28,2.08.41,3.12,0,.08.07.22,0,.24-.69.49-.18,1-.14,1.61s.26.4.55.24c.15.43.15.43-.61.58,0,.44.06.88.1,1.41l.51-.78.21.13c-.2.4.27,1.2-.8,1.15.11.14.18.31.29.34.53.13.73.43.44.86s-.1.6.27.73.74.26,1.27.44c0-.49,0-.81-.06-1l1.32.84-.52.56.66.2c.13-.78.69-.57,1.14-.61,0,.26.07.5.09.69l4.22-.38c.05-.29.12-.63.19-1l1,1.13c0-.24.06-.36.08-.5h.19c.63,0,1.3.15,1.83-.43a3.29,3.29,0,0,1,1-.8,5.49,5.49,0,0,0,2.6-2.16,2.29,2.29,0,0,1,1-.93c.64-.28.94-.56.41-1.23.72-.3,1.68-.19,1.78-1.24-.52.09-.52.09-.52-.61,0-.11-.09-.22-.08-.32s.09-.44.13-.63l1,.58-.34.22c.59.28.86.16.93-.39,0-.18,0-.42.13-.54a.75.75,0,0,0-.17-1.07l-.23-.09.1-.43a2.76,2.76,0,0,1,.65-.4,1.46,1.46,0,0,1,.54.09c0-.83.78-1.56,1.44-1.32l.33-.73.26,0c.1.38.22.76.3,1.15.11.55.16,1.12.29,1.66a7.34,7.34,0,0,0,.47,1.39,1.75,1.75,0,0,0,.61.81,3.19,3.19,0,0,0,1,.19,5.62,5.62,0,0,1,.16.82.77.77,0,0,1-.18.53.55.55,0,0,1-.53,0c-.14-.11-.29-.44-.22-.54.27-.42-.05-.52-.3-.69s-.34-.32-.53-.45a3.43,3.43,0,0,0-.65-.2,12.29,12.29,0,0,0,.29,1.29,8,8,0,0,0,.57,1c-.79.06-.83.48-.77,1a2.92,2.92,0,0,1,0,.72c-.24,1.24,0,2.4,1.25,2.83a7.37,7.37,0,0,1,.71-.57,3.44,3.44,0,0,1,.33.38c-.25.06-.51.07-.52.13a.82.82,0,0,0,.07.56.52.52,0,0,0,.43.14c.54-.07,1.1-.14,1.14-.91l.74.36C240,101.3,240.55,100.77,240.52,100.28Zm-12.31-5.4h0a1,1,0,0,1,.32-.07A1,1,0,0,0,228.21,94.88Z"/><path class="cls-2" d="M151,98.11h0Z"/><path class="cls-2" d="M150.43,98.1l-1.37.11c0-.08-.06-.3-.12-.56h.68c.24-.44-.77-1.46.63-1.31.18-.75.51-.86,1.14-.34l-1,.22a4.57,4.57,0,0,1,.65.3c.41.34.63.19.79-.24s.31-.88.47-1.31c.08-.2.17-.4.26-.6H152l0,.78c-.4-.75-.41-.75-1.14-.38a10.43,10.43,0,0,1-1.08.48c-.31.12-.48.27-.4.64a2.35,2.35,0,0,1-.06.64l-.19,0v-1l-.86.91a3.19,3.19,0,0,1-.53-.4c-.28-.3-.49-.24-.69.07a2.16,2.16,0,0,1-.29.43,1.26,1.26,0,0,1-.3.18,1.07,1.07,0,0,1-.14-.36c0-.1.1-.21.27-.52-.72-.11-1.3-.25-1.89-.3-.9-.06-1.73-.15-2.2-1.1a1.15,1.15,0,0,0-.77-.54c-.51,0-.48-.36-.55-.68a4.1,4.1,0,0,0-.29-1.17c-.54-.93-1.15-1.82-1.75-2.72a5.23,5.23,0,0,0-.55-.57v-1l.61.29-.42-1.38-.74-.76c.29-.27.87-.34.43-.85l-1.71,1c-.12-.23-.21-.42-.31-.6,0,.57,0,1-.53,1.2-.17-.21-.33-.54-.46-.53a.52.52,0,0,1-.58-.63c.12-.67-.33-.88-.79-1.21v.56c-.62-.07-.51-.56-.66-.94-.2-.53-.27-.51,0-.85l.5.48.69-.57c-.14.47-.23.74-.33,1.09l.81-.37a10,10,0,0,0,.18,1.13,1.49,1.49,0,0,0,.31.46c.33-.32,1.1-.13,1-.92a1.71,1.71,0,0,1,.14-.56l.92.5c0-.49,0-.81-.06-1.14h0c-.16-.48-.33-1-.54-1.59l.62-1.61c-.11-.28-1-.28-.65-1a1.32,1.32,0,0,0,0-.48l-.38.18-1.81-1.11.58-.81c-.13.46-.18.89.42,1.07s.69-.11.84-.62l-.61-.12c0-.08.07-.22.05-.24-.61-.37-.71-1.05-1-1.59-.15-.27-.37-.35-.07-.66s.19-.5.3-.75c0-.05.11-.07.17-.08l.9-.17c.5.53.5.53.73.46-.13-.23-.28-.48-.43-.72L137,73l.51.73.12,0L136.9,72l-.69.8c-.44-.56-.88-1.11-1.44-1.8l2.94-.17c.41-.58.41-.58-.28-1.16a.54.54,0,0,1-.21-.25c-.07-.44-.24-.68-.73-.5,0,0-.16-.25-.2-.31l-.57.11,0-.22.8-.29.5.42c.22-.32.41-.59.49-.72-.06-.92-.12-1.71-.15-2.49a8.48,8.48,0,0,0,.11-1c-.06-.55-.41-1.12.39-1.45a.69.69,0,0,0,.27-.5,1.44,1.44,0,0,0-.14-.55c-.16.05-.32.12-.48.16a2.76,2.76,0,0,1-.4.06c.14.66,0,.82-.69.81-.37,0-.74.06-1.11.08-.13,0-.33,0-.36-.1a4.63,4.63,0,0,1-.47-1.16c0-.1.35-.35.57-.4s.45.09.67.14l.87-.79c-.11-.32-.2-.61-.29-.89l-.54.44c-1-.39-.85-1.09-.6-1.82-1,.28-1.09.39-.62.93l-.63.19v.72l1,.8-.13.19-1.15-.69-.11.17.36,1c-.37.2-.37.2,0,1.09l-.49,0-.51,1c.07.41.23.74.14,1-.29.79-.22,1,.71,1.09l-.61,1c-.29.61.23.89.66,1.14s.8.43,1.15-.1c0-.06.22-.06.34-.05s.09.17.06.22a1.09,1.09,0,0,1-.27.33.73.73,0,0,1-.34.12c-.45,0-1.06.69-1.34-.27,0,0-.19,0-.3,0,.11.89,1,1.63.31,2.58l.68.2c-.06.25-.13.51-.18.76s-.15.48-.07.63c.32.57.27.73-.53.93a8.82,8.82,0,0,1,.12-1.1c.1-.38.2-.73-.25-1a2.09,2.09,0,0,0,.32,2.47l-1,.8a12,12,0,0,0,.69,1.1c.27.35.45.65.1,1.06-.07.07,0,.33.08.43a2,2,0,0,0,.43.33l-.45,1.07a.85.85,0,0,0-1.32.6,3.09,3.09,0,0,1-.36.63l-.14-.24c-.18,0-.41,0-.53.13-.75.64-1.44,1.34-2.21,1.95-1.35,1.05-2.75,2.05-4.12,3.09a1.36,1.36,0,0,0-.43.55c-.09.26,0,.63-.15.82s-.49,0-.86,0l.53-.47-.1-.12-1.43,1.12c.07.31.13.63.19.89l-.89.44c0-.35-.06-.67-.11-1.18l-.72.5.59.42-1,.5.17-1.11c-1.42,1-3.22.6-4.41,1.8.45.59.43,1-.11,1.22-.29.09-.69-.19-1-.3l0-.13.48-.11-.67-.76-.42.13,0-.6a3.29,3.29,0,0,0-1,0c-.21.07-.34.42-.45.66,0,0,.21.3.28.28.61-.16.64.26.75.66,0,.17.24.29.36.44s.16.24.25.35l-.11.09-.61-.4c-.13.3-.23.55-.33.8l.11.06.42-.37.12.08c-.1.25-.2.5-.23.59l-.85.15c0,.12,0,.23.07.35a5.71,5.71,0,0,0,.93-.21c.28-.12.42-.23.57.18a1,1,0,0,0,1.62.41l.27-.21c0,.58.45.6.83.68,1.34.27,2.41-.6,3.63-.86a15,15,0,0,0,3.19-1.14,5.24,5.24,0,0,0,2.09-1.11A5.26,5.26,0,0,1,128,88.33a6.67,6.67,0,0,0,2.07-1.39,6.81,6.81,0,0,1,1.75-1.48,1.33,1.33,0,0,1,1.77.23c.24.25.52.48,0,.77a.4.4,0,0,0-.14.34c.11.51.28,1,.39,1.51a2.39,2.39,0,0,1-.12.72l.89.56,0,.4a.74.74,0,0,1,.44,1.05,3,3,0,0,0-.14.73h.17c.24-.24.47-.48.71-.71l.23.06c0,.25.09.59,0,.75s-.48.18-.86.3c.62.62.2,2,1.57,2-.15.17-.37.32-.36.45a.87.87,0,0,0,.35.45c.06,0,.23,0,.34-.1.34-.19.68-.4,1-.58l.38,1,.31.06-1.19,1.25a12.85,12.85,0,0,0,1.64,1.14c.55.27.48,1.44,1.37,1l.63.63.16-.14c0-.13-.09-.25-.08-.24a6.34,6.34,0,0,1,.65-.73c.15-.13.47-.28.54-.22a.79.79,0,0,1,.27.6c0,.13-.35.22-.56.29a1.81,1.81,0,0,1-.48,0l.73.55-.11.16-.8-.31-.1.17a2.08,2.08,0,0,0,.5.44,6.38,6.38,0,0,0,1.07.35c.22.05.53.11.66,0s0-.43.06-.68a3.62,3.62,0,0,1,1.37.44,1.36,1.36,0,0,0,1.57.11,1.79,1.79,0,0,1,1.19-.12c.47.14,1.18.19,1.39-.37l.81.31.14-.26-.49-.37.31-1.18c.35.19.88.69,1.07-.23C150.79,98,150.49,97.68,150.43,98.1Z"/><path class="cls-2" d="M182.77,99.72h0c-.12-.17-.24-.35-.42-.63l.91,0,.09-.46-.49-.12,0-.08.65-.12c-.05-.23-.09-.43-.13-.64l-.13,0v.57a2.74,2.74,0,0,0-.56-.29,2.37,2.37,0,0,1-1.42-.92c-.33-.45-.84-1.07-1.66-.69a3.4,3.4,0,0,1-.83.16c.28-.75,1.29-.86,1.25-1.92-.56.47-.63,1.37-1.47,1.24V95l.53.23c.2-.45,0-1.11.68-1.31,0,0,0-.08,0-.13a2,2,0,0,1,.1-1.52,11.66,11.66,0,0,0,.58-3.13s0-.1-.1-.2l-.46.35c-.09-.52-.09-.52.33-.56s1-.85.8-1.09c-.36-.41.07-.68.06-1a3.5,3.5,0,0,1,.11-.73c.44,0,.63-.21.34-.76-.11-.2,0-.52-.05-.78a10.6,10.6,0,0,0-.28-1.11l.83.11a.56.56,0,0,0,.09-.14c.18-.43.24-1,.55-1.26a1.87,1.87,0,0,0,.62-1.75l-.91-.14c.18-.17.32-.35.37-.33.46.17.86.58,1.41.25,0,0,.15.16.3.31.47-.87.92-1.68,1.33-2.5,0-.08-.15-.27-.2-.41s-.25-.55-.18-.75.39-.33.62-.37c.44-.07.7-.44.39-.66a5.33,5.33,0,0,0-1.49-.56s-.09.16-.11.19l.84.56c-.67-.11-1.22-.22-1.78-.29-.22,0-.46.06-.67,0s-.13-.41-.07-.45a1.45,1.45,0,0,1,.57-.15c0-.56-.19-.91-.92-.78a5.31,5.31,0,0,0,.26-.47l.84.5c.23-.18.75-.39.8-.67.13-.8.74-.74,1.25-.9s1-.11.66-.82c0-.09.13-.26.13-.27.18.26.29.64.49.69.44.13.76-.09.77-.62a2.33,2.33,0,0,1,.21-.63l-.6-.39.57-.8-.84.1c.15-.25.21-.5.35-.56.61-.29.48-.84.33-1.21a1.2,1.2,0,0,1,.08-1.1c.24-.49.65-.9.47-1.54,0-.09.36-.45.5-.42a1.69,1.69,0,0,0,1.53-.66,3,3,0,0,1,2-1,6.53,6.53,0,0,0,.83-.14l.54.4a4.8,4.8,0,0,1,.29-.65c.4.12.78.3,1.18.44a3.57,3.57,0,0,0,.84.21c.28,0,.58-.12.86-.11,1.42.05,2.84.11,4.25.19a1.3,1.3,0,0,0,1.48-.87l.33.85c.4.06.87.55,1.23-.17-.08-.14-.18-.29-.28-.45l.18-.07.61-.27a4.67,4.67,0,0,1-.43-.3,4.14,4.14,0,0,1-.33-.4l.55-.09c0-.22,0-.43.09-.69l1.38.31c.33-.91-.51-1.36-.76-2.08l-.46.3,0-.16-1.38-.48c0,1-.52,1.34-1.54,1.22v-.43a.73.73,0,0,0,.07-1.18l-.71.82c-.1-.15-.2-.3-.31-.44s-.26-.36-.36-.34a2.89,2.89,0,0,0-1.91.92c-.07-.09-.21-.18-.2-.26.07-.6-.43-.5-.74-.56-.14,0-.32.15-.49.24a2.26,2.26,0,0,0,.26.42,2.66,2.66,0,0,0,.31.26l-.08.12-.54-.1c-.12-.23-.17-.52-.3-.57s-.41.07-.61.14l-.87.37-.21-.69h-2.84c-.27.47-.55.94-.93,1.57a4.79,4.79,0,0,0-.33-.65,1,1,0,0,0-.31-.21l-.07.06-1.26-.51c-.15.07-.3.2-.4.17-.54-.2-.81.12-1.06.5-.1.16-.27.31-.3.48-.05.4,0,.81,0,1.22,0,.16,0,.32,0,.56.35-.33.8-.55.85-.85s-.21-.76-.34-1.15c1,.2,1.18,1,1.45,1.85L188.4,63.6l-.25,0c-.16-.54-.31-1.09-.48-1.63a1,1,0,0,0-.2-.28.9.9,0,0,0-.25.22c-.46.83-.46.83-1.37.37l1.11-.33c-.81-.52-1-.45-1.27.23a3,3,0,0,0-1,.7,1,1,0,0,1-1.29.43,7.33,7.33,0,0,0-.95-.24l.06.2a4.59,4.59,0,0,1-.8.46c-.38.14-.68.27-.47.74-.9.07-1.1.87-1.57,1.43l-.25-.28-.43.69c-.07-.72-.14-1.3-.21-2l.27-.39-1,.2a2.67,2.67,0,0,1,.19.54c0,.21.12.6,0,.64-.42.21-.23.41-.07.67a2.58,2.58,0,0,1,.21.57l-.18.14-.76-.66c0,1,.48,1.32,1.36,1.16a6.19,6.19,0,0,1,1.41.11,5.51,5.51,0,0,0,.7,0c0,.74.78.13,1,.55l-.74.57-.18-.29s-.1.11-.16.16l.69.56-.26.38c-.19-.08-.39-.25-.48-.2a1,1,0,0,0-.46.46c-.21.5-.36,1-.54,1.55-.1.38-.21.79-.33,1.21.22.43.48.93.77,1.51a2.06,2.06,0,0,0,1.64-.65c.16-.16.49-.12.75-.18a2.71,2.71,0,0,1,.05.56c0,.3-.14.6-.21.92-.45-.13-.77,0-.52.45.35.61-.11.94-.41,1.43l-.29-.71-.5.29.21.11c-.49,1.09-1,2.17-1.46,3.25.78.36.78.36.75-.51.46.26.68,1.26.24,1.57a9.71,9.71,0,0,1,1.25.4c.2.09.5.34.48.47a16.68,16.68,0,0,1-.51,1.66l-.2,0c0-.56.06-1.11.09-1.74a1.44,1.44,0,0,0-.39.15,4,4,0,0,0-.52.47l-.21-.68-1.23.7-.22-.14c.55-.61.44-1-.51-1.21.08.44.14.82.2,1.13-.18.27-.34.72-.5.72-.61,0-.59.34-.65.76a1.1,1.1,0,0,1-.33.71,1.32,1.32,0,0,0-.41,1.68,1.23,1.23,0,0,0-1,1.57,9.22,9.22,0,0,1,.23,1c-.33,0-.68,0-.71,0-.22.62-.4,1.27-.61,2l1.71-.41c-.12.83.37,1.07,1,1.14-.13.38-.7.73,0,1l-.65.73-.13-.08c0-.12,0-.24,0-.39h-.38c-.2-.39-.34-.66-.49-.93l-.41.78-.67-.25-.07.16.37.28-.26.16.93.31c0-.08.14-.23.32-.52.23.58.37.93.5,1.29l-.18,0-.34,1c-.36-.17-.33-.12-.7.11a1.52,1.52,0,0,0-.6,1.33c0,.46.22.5.59.37a1.39,1.39,0,0,1,.45,0,1.66,1.66,0,0,1-.06.51,5.67,5.67,0,0,1-.52.69l-.43-.2c.05.81.07,1.54.8,2-.08-.9,0-1.22.42-1.12l.15.47,1-.18-.68,1,1.45.8c.32.33.3,1,.94,1.19v-.94l1.3.2c0-.33-.07-.76-.11-1.21l.56.27.49-.45.11.1-.18.3c.53.28,1,.79,1.7.4Z"/><path class="cls-2" d="M79.18,63.09a.87.87,0,0,1,.79-.16.66.66,0,0,0,.56-.33,2.05,2.05,0,0,0,0-.78h-.71l.49-.29c-.32-.78-.44.14-.77,0-.33-.29.09-1.18-.81-1.13.12-.26.21-.43.22-.45a5.65,5.65,0,0,1-.57-1c-.05-.16.14-.39.22-.59l.3.22.86,2,1.1-.15c0,.18.08.37.13.56s.06.52.19.61a3.79,3.79,0,0,0,1.11.41c.11,0,.27-.15.41-.23l-.08-.1H81.9c.07-.15.12-.25.17-.37l-.45.07-.12-.21a7.07,7.07,0,0,0,.63-.44,1.1,1.1,0,0,0,.37-.53c0-.11-.24-.28-.4-.39s-.43-.26-.64-.39l.54-.54-1-1.13c.48-.83.48-.83-.44-1.13a1.81,1.81,0,0,1-.37-.24l-.72.53-.15-.15c.13-.2.34-.38.38-.59a3.31,3.31,0,0,0,0-.88c.46,0,.62-.14.54-.66a3.22,3.22,0,0,1,.18-1.08s0,0,0,0a2.92,2.92,0,0,0-2.64-.12c-.69.55-1.27.34-1.47-.5,0-.18-.25-.31-.51-.61,0,.71-.27.89-.71,1a1.43,1.43,0,0,0-1.25,1.62c-.81.16-.84.22-.4.82l-1,.78.35.54a3.54,3.54,0,0,0-1,.43,1,1,0,0,0-.33.8c.08.36.4.4.73.14a.84.84,0,0,1,.66-.15,4,4,0,0,1,.85.54c-.26.42-1.38-.05-1.17.78L71.1,60.91l.65.23-.06.2-.93-.23-.54.38L69.94,61c-.07,0-.19,0-.22.09-.28.62-.56,1.25-.82,1.88a5.2,5.2,0,0,1-.24.73c-.47.76-1,1.46-1.45,2.26s-.36.89-1.08.39a.2.2,0,0,1-.06-.11l.31-.5-1-.16-.06.19.39.42-.14.15-.66-.61c.37-.53.7-1,1.07-1.56l-1.71.11c.12.31.36.63.34.93s-.37.57-.8.45c0,0-.18.26-.15.29.28.35.58.67.9,1l-.38.15c.06.35.12.63.16.86a3.88,3.88,0,0,0-1.22-.13c-.36.08-.57.58-1,.43l0,.08.34.24-.55.85h.69c-.88.43-.93.67-.5,1.39a3,3,0,0,1,.15.76c.15.53.31,1.06.49,1.7-.71,1-.76,1.26-.39,1.59,0,.6-.07,1.14.15,1.45a4.93,4.93,0,0,1,.55,2.75,18,18,0,0,1-.14,2.74l.29-.13c.16.13.44.24.46.38a13.68,13.68,0,0,1,0,1.57l1.12.51a3.39,3.39,0,0,1-.8.36,1.92,1.92,0,0,1-.64-.15l-.07.19.45.32c-.75.36-1.31.9-1.15,1.69.07.34.32,1,1.08.61-.29.46-.67.81-.73,1.2a4,4,0,0,0,.26,1.35c.44-.25.76-.27,1,.39.1.35.47.63.73,1,.51-.41.28-.79,0-.9-.49-.19-.45-.47-.33-1l1.22.18v-.81c.69.2.7.76.84,1.2l1-.55c-.06.29-.08.46-.12.64.53-.11.58-.52.23-1.09-.09-.16-.16-.53-.1-.56.48-.26.38-.81.63-1.18,0,0,0-.12,0-.23l-.46,0c-.06-.54,0-1.17-.82-1.27l.6-.12-.59-.36c1.5-.31,1.59-.44,1.81-1.66.07-.38-.49-.61-.13-1-.52-.41.1-.5.12-.73V79.11a1.25,1.25,0,0,1-.18,0c-.12-.07-.35-.2-.34-.23.17-.52.37-1,.56-1.53l.22.07-.06.51c.17-.12.32-.33.27-.42-.3-.57,0-1,.21-1.52.33-.93,0-1.3-1-1.27-.07,0-.14-.06-.21-.09l0-.19,1,.08c-.11-.27-.19-.48-.28-.69l-.53.22-.15-.1.36-.73.8.48c.95-.14.95-.14.83-1.1l-.62.27c-.13-.23-.35-.45-.37-.68a3.63,3.63,0,0,1,.19-1,1.81,1.81,0,0,0,.35.16c.21,0,.56.06.59,0a1.45,1.45,0,0,0,0-.72c0-.08-.11-.15-.14-.18l1.79-.88-1.68-1.09.62-.82.79,1.11.19,0a3.61,3.61,0,0,0-.13-1.1.75.75,0,0,1,.29-1v.59a4.59,4.59,0,0,0,1.43-2.74c0-.05.08-.15.12-.15.69,0,.44-.65.81-1l-.69,0-.14-.16L75,61.6s-.1-.14-.07-.09a8,8,0,0,1,.24-.79c0-.11.17-.27.27-.28a2.47,2.47,0,0,1,.59.12c.4-.69.4-.69,1.1-.62l-.44.49.53.47c.3-1,.61-1.19,1.42-.89l-.86.31c.51.42.3.62-.18.74.09.11.27.27.24.34-.36.91.32.57.8.72l-.42-.26c.19-.25.37-.49.55-.71l.68.72L78,63.13C78.38,63.13,78.88,63.27,79.18,63.09Z"/><path class="cls-2" d="M135.44,42.65l.4-1.13.86.85c.44-.87.93-.51,1.43-.35a.91.91,0,0,0,.61,0,12.25,12.25,0,0,0,1.1-.73c-.64.3-.41-.3-.56-.51l-.59.12c.12-.48.23-.9.34-1.32l.53,0c-.12-.14-.2-.25-.26-.33l1.36-.65-.23-.25c1-.59.42-1.77,1-2.47l-.47-.72a3.06,3.06,0,0,0,.31-.78c0-.33.06-.57.49-.4-.35.62-.37.89,0,1.31l1.21-3.64-1.15-.47.78-.86.5.69c.27-.52.53-1,.74-1.45s.4-1,.58-1.58c0-.09-.07-.21-.09-.31-.1-.39-.2-.77-.32-1.28-.15.18-.46.38-.49.62-.06.61-.36.5-.78.36.15-.46.41-1-.38-1-.15,0-.3-.08-.45-.1-.68-.07-.87-.51-.48-1.13.08.21.16.41.27.71l.92-1.2.35.55-.74.62c1.12.14,1.17.09,1.22-.89l.83-.2c0,.38,0,.74.06,1.16.79.21.43-1.05,1.13-.92l-.43-1.1.84.46c1.1-.6,1.5-1.46,1-2.11.8-.93-.18-1.25-.85-1.87l1-.11c0,.31,0,.48.05.66a3,3,0,0,0,.61-.12,3.66,3.66,0,0,0,.62-.36c-.7-.31-.3-.79-.05-1.35l-.94.15c.06-.63.1-1.17.15-1.75l1,.66-.33.37a2,2,0,0,0,.4.16c.31.06.63.1,1.18.17-.19-.87-.32-1.58-.51-2.27a4.51,4.51,0,0,0-.42-.89l.26,0,.77-.38.3.42c0-1.13.74-1.79,1.48-1.47.07-.23.14-.48.22-.73l.29.1c-.13.34-.29.68-.39,1a.69.69,0,0,0,.1.48c.43.05.44,0,.45.36s0,.44,0,.65c1.65.39,1.65.39,2.14.15a4.13,4.13,0,0,1-.25-.38,2.66,2.66,0,0,1-.16-.39,3.05,3.05,0,0,1,.41-.05c.33,0,.72.47.87.92.79,0,1,.94,1.74,1l-.21-.84c.32.13.64.18.66.28a3.86,3.86,0,0,1-.08.93l1.35.58.06.11c.07.56.37.69.88.47v-.61h0a1.3,1.3,0,0,1,.26-.31,7.39,7.39,0,0,1,.66-.42c.09.27.3.55.26.8a3.78,3.78,0,0,1-.44.93l.25.4h-1.06l.65.44h1.52c-.35.32-.62.56-.88.81a2.73,2.73,0,0,0-.27.31l-.38-.42c0,.3-.05.52-.07.73.87.36.75-.76,1.21-.81l.69.9-.6,1.06.92.67c-.14.49-.28,1-.42,1.43.35-.11.72-.29.76-.52a8.06,8.06,0,0,0-.08-1.59l1.1.13c-.21-.57-.39-1.11-.6-1.65A1,1,0,0,0,162,20.4l.51-.34-.57-.09.4-.28,0-.06-.32.13c-.08-.54.11-.74.68-.53a4.32,4.32,0,0,0,.5-1.45c0-.44-.41-.85-.74-1.44-.27.46-.41.71-.55,1l.24-.05.51.72-.18.17c-.31-.19-.71-.32-.89-.59a4.29,4.29,0,0,1-.39-1.24l1,.15c.45-1-.79-1.13-.76-1.86h-.26l-.08.46-.56-.22c.13-.27.22-.45.31-.62a2.34,2.34,0,0,0-.55-.27c-.34-.07-.73,0-.7-.58,0-.1-.29-.28-.46-.31a2.38,2.38,0,0,1-1.32-.63,4.73,4.73,0,0,0-.95-.39l-.08.16.25.38-.12.17c-.3-.18-.75-.29-.85-.55a.78.78,0,0,0-.91-.48c-.84.13-1.65-.24-2.53,0s-1.67-.11-2.47.29l-2,.93c0,.2-.06.48-.1.76-1-.1-1.27.12-1.46,1.17,0,.08-.14.22-.19.21-.59-.09-.85.38-1.13.73a4.94,4.94,0,0,0-.73,1.31,2.69,2.69,0,0,0,0,.9h-.12l-.35-.71-.35.3.28.68-.28.17.48.32.45-.66c.21.44.36.75.49,1l-1.09.05c-.41-.26-.38-.23-.64,0a4.64,4.64,0,0,1-.79.51c-.23.15-.44.32-.65.48l.24.15c-.17.63-.83,1.12-.3,1.84,0,0-.06.16-.05.24,0,.38,0,.77.07,1.16l.15,0-.46.86-.7-1-.7.47-.77,4.1-.49-.29c-.16.26-.24.58-.45.74-.63.5-.37,1.06-.15,1.65-.5,0-.63.31-.46.73.05.11.21.17.32.25l.08-.08-.17-.36.86-.11c.07.56,0,.92-.64.77a1.41,1.41,0,0,0-.59.1c-.51.14-.94.31-.59,1,.06.12-.11.35-.18.55l.36.26c-.31.18-.73.28-.79.48a8.45,8.45,0,0,0-.21,1.65l1.08.44-.57.59-.11-.11.06-.29-.55.09-.27-.47a2.22,2.22,0,0,0-.22.47,9.72,9.72,0,0,1-.57,2.67c-.28.63-.14.85.55.87v.56c-1,.09-1,.09-1,1,0,.2.1.42,0,.59C134.54,42.55,135.06,42.56,135.44,42.65Z"/><path class="cls-2" d="M211.44,79.27c.71-1.07,1.21-2.11.72-3.28.08-.27.26-.55.19-.69a1.75,1.75,0,0,1,.08-1.58c.29-.77.08-1.26-.76-1.24l.74-.68c-.1-1-.21-2.11-.31-3.22a3,3,0,0,1-.77.1c-.15,0-.28-.25-.41-.38.16-.11.4-.34.46-.3a.51.51,0,0,0,.85-.3c.16-.43.38-1.15.19-1.33a1.77,1.77,0,0,1-.46-1.12c-.16-.74-.49-1-1.35-1,.07-.37.13-.72.21-1.17l-.57.29c.08-.42-.84-.58-.16-1.17l-1.69-.77-.65.54c.48,0,.85.09.26.56-.09.07,0,.36,0,.53s.21.62.32.94l.1,0,.93.23c-.21.12-.42.26-.64.36a3.21,3.21,0,0,1-.67.26,1,1,0,0,1-.38,0c.1-.2.26-.42.22-.46-.22-.25-.36-.15-.45.14,0,.07-.22.08-.28.16a3,3,0,0,0-.58,1c-.08.57.37,1.08.28,1.71a6.52,6.52,0,0,0,.18,1.36c0,.83,0,1.66,0,2.49a2,2,0,0,0,.16.52l.18,0c-.29-.73.26-1,.67-1.27,0,0,.23.09.45.18l-.71.4.64.41-.8,1.15.32.56.15,0q.12-.65.24-1.32l.75.5c-.49.71-1.58,1-1.24,2.21-.28-.07-.45-.17-.6-.14s-.34.25-.32.28a4,4,0,0,0,.86,1.44c.43.32.41.47.05.8.88-.13.92-.24.56-.87-.08-.14-.08-.44,0-.51s.55-.3.63-.22a8,8,0,0,1,.83,1c.13-.07.13-.07.73.67l-1.52,1.66s-.05.11-.15.28l.19.4-.11,0-.57-.46c.5-1,.43-1.45-.3-1.63v.68l-.17,0-.15-.4L207,78c.39.33,1,.47.61,1.1-.24.35-.46.71-.73,1.13,0,.09.07.28.13.48-.79.08-1.64,3-1.24,3.68-.09.52-.15.89-.22,1.3-.51-.46-.89-.44-1,.37,0,0-.14,0-.17.1-.43.76-.84,1.54-1.29,2.3a3.27,3.27,0,0,1-.56.62c-.22.2-.5.34-.7.56a7.29,7.29,0,0,0-.73,1c-.27.44-.5.89-.7,1.26a5.68,5.68,0,0,0-.86.6c-.46.48-.87,1-1.28,1.51-.21.26-.4.54-.59.82l.12.09.31-.22c0,.37,0,.7,0,1.07-1.18.59-.32-.65-.69-.88L195.67,96l.07.19,1-.18.06.12-1,.66-.11-.55-.82.18v.17l.52.14,0,.19-.79.13a3.11,3.11,0,0,0,.52.95,5.92,5.92,0,0,0,1.22.74l-.14.21-.93-.66-.19.19a2.34,2.34,0,0,0,.44.45c.28.17.72.22.88.46a3.06,3.06,0,0,1,.19,1.15l.54-.4.45-.32.28.58L200,98.91c-.63-.61-.66-1-.1-1.51.26-.22.64-.53,1,0l-.55.69a.8.8,0,0,0,.17.14c.5.22.43-.51.7-.47a1,1,0,0,0,1.12-.63,3.84,3.84,0,0,1,1.4-1.43c.07,0,.07-.21.13-.3A7.19,7.19,0,0,1,205,94c.48-.4.95-.69,1.11-1.37a2.44,2.44,0,0,1,.45-1.14c.19-.21-.3-.77,0-1.18a2.42,2.42,0,0,1,.33-.31,1,1,0,0,1,.07.34c0,.29,0,.58,0,.89.06,0,.15,0,.18,0l1.17-1.5c.21-.28.35-.55-.14-.69,0,0-.06-.11-.1-.2l.48-.33c-.26-.29-.5-.52-.7-.78a.39.39,0,0,1,0-.33c0-.06.28,0,.28,0,.14.63.8.13,1,.5l.32-.27-1-.39.79-1.43c.22.39.35.64.56,1a20.24,20.24,0,0,0,1.11-1.93c.1-.25.06-.8-.1-.88-.72-.39-.21-.69,0-1.09l.52.42c.22-.84.44-1.6.62-2.38C212.06,80.26,212.42,79.57,211.44,79.27Z"/><path class="cls-2" d="M271.28,44.44l.4-.45.64,1.2-.14.09.69.26.2-.7c.48,0,1.12-.45,1.32.47l.9-.49-.2,0c0-.22-.11-.53,0-.62a.57.57,0,0,0,.2-.74c-.06-.16.14-.41.23-.62s-.09-.22-.07-.23c.17-.11.35-.2.5-.28.16.08.39.25.45.21.47-.36.72.06,1,.33.15-.52.27-1,.39-1.42s.23-1-.3-1.27q.15-.31.24-.54l.45.1c-.13-.81-.2-.85-.95-.57-.06,0-.18,0-.2,0s0-.18,0-.21.24-.11.35-.19c.56-.36,1.27-.58,1.23-1.47a13.67,13.67,0,0,1,.09-1.39l-.38-.28c.14-.46.26-.89.42-1.43l.42-.11-.74-.3,0-.11.37,0q-.25-1.18-.51-2.31l-.31.12c0-.32.07-.6.11-.87l.27-.07c.05-.39.06-.67.12-.95a10.08,10.08,0,0,0,.35-1.57c0-.23-.37-.47-.58-.69-.07-.07-.2-.08-.42-.15l.55-.18a11.21,11.21,0,0,1,.22-1.21c.22-.79-.29-1.4-.5-2.08a1.7,1.7,0,0,0-.58-.65c-.28-.23-.69-.35-.89-.62a2.16,2.16,0,0,0-2.66-.93l-.72,2.2s-.1.14-.13.13c-.62-.13-.68.42-.84.7.2.39.52,1,.39,1.14-.81.69-.26,1.26,0,1.88a.56.56,0,0,1,0,.38c-.32.68-.22,1,.44,1.26-.28.71-.13,1.06.8,1.83,1-.89.66.52.94.59q-.21.51-.39,1s.06,0,.12.09l.47-.35c0,1.09-1,.1-1.31.65l.27-.54c-.89-.19-.12-.56,0-.86-.61-.49-1-.39-1.33.32,0,.08-.09.21-.14.21-.53,0-.41.33-.37.64a2.92,2.92,0,0,1,0,.66c-.08.53.14,1.06-.13,1.63a3.52,3.52,0,0,0,0,1.35c.48,0,.78.4.87,1.22-.25-.19-.36-.29-.48-.37a4.28,4.28,0,0,0-.57-.37s-.22.17-.21.19a4,4,0,0,0,.32.46l-.57.7.37.36c-.73.24-.1.6-.22.84a2.05,2.05,0,0,0-.61.71c-.09.2,0,.46,0,.7h.23l.27-.46.18.08a4.38,4.38,0,0,0-.45,1.05c-.13.66.31,1.4-.34,2a.43.43,0,0,0-.05.38A4,4,0,0,0,271.28,44.44Zm4.9-14.55-.32,0Zm-3.73,8.66c.05-.24.21-.34.66,0h0c-.45-.3-.61-.2-.66,0a1.61,1.61,0,0,0,0,.33A1.61,1.61,0,0,1,272.45,38.55Z"/><polygon class="cls-2" points="288.2 56.3 288.2 56.3 288.2 56.3 288.2 56.3"/><path class="cls-2" d="M266.29,62.78c0-.21.08-.42.08-.46l1.95.91-.69.33,1.43.43c0-.26.08-.51.13-.77l-.54-.07a.49.49,0,0,0,0-.12l1-.32c0,.37.05.76.08,1.22l.77-.3c0,.49-.08.91-.11,1.3.6-.07.73-.29.57-1a1.46,1.46,0,0,1,.09-.64c.09-.35.19-.69.32-1.16l1.05-.11c.54,0,.8-.24.48-.81,0-.07,0-.19,0-.28l.14-.09.2.49c.42-.3.73-.91,1.08-.11,0,.07.19.11.3.12a1.68,1.68,0,0,0,1.72-1.13,4.9,4.9,0,0,1,.32-.58c.08.41.13.66.2,1l.91-.25-.53-.87c1.09-.09,1.09-.09.92-.55.93.37.45-.41.61-.83l.68,1.69,5-2-.62-1.24a1.6,1.6,0,0,0,.13-.27,1.06,1.06,0,0,0,0-.31c.12,0,.3,0,.36.07A2.83,2.83,0,0,1,285,57c.15.53.46.53.86.43s.66-.31.93-.25a.57.57,0,0,0,.73-.21,5,5,0,0,1,.67-.63,1.22,1.22,0,0,0-1.48.29c.07-.69.15-1.39.23-2.1-.65-.1-.9,0-.95.48a3.27,3.27,0,0,0-.8-.38c-.07,0-.24.37-.33.52L284.3,55a2.77,2.77,0,0,1-.41-.12c-.17-.07-.42-.26-.47-.21a1.76,1.76,0,0,0-.32.58l-.4,0a1.68,1.68,0,0,0-.45,0c-.67.21-.8.12-.74-.56,0-.14,0-.29.08-.55l-1.25.19c.68.77-.18,1-.18,1.51l-.28,0c0-.32.06-.64.1-1l-1.23.62c.07.22.12.39.18.6-1-.26-1.19-.17-1.49.49l.79-.06,0,.21-.46.07.34.56-.94.35v-.71c-.6.19-1.14.25-1.28-.54-.14,0-.34,0-.41.12-.21.26-.34.6-.56.84s-.54.52-.76-.09-.47-.78-1-.35a2.43,2.43,0,0,1-.77.22c.27-1.09.83-1.38,1.46-.85a2.31,2.31,0,0,0,.59-2.07l-1.28-.08a2.65,2.65,0,0,0,1.8-1c-.28-.34-.47-.58-.67-.81.25-.17.12-.73.7-.59.36.1.94-1,.68-1.22s-.17-.56.11-.81a1.09,1.09,0,0,0,.28-.49,5,5,0,0,0,.13-.74c-.49-.16-.34-.37,0-.79s.16-.85.21-1.29c0,0-.3-.12-.32-.09-.28.4-.57.11-.87,0a1.35,1.35,0,0,0-.49.14l.08.18c.79,0,.91.11.88.9,0,.46-.66.82-1.41.79l.41-.74c-.39-.31-.82-.52-1.1,0a3,3,0,0,0-.12,1.15l.51-.08c0,.24,0,.46,0,.72.75-.27.8.43.85.74s.53.5.1.83-1,.24-.74,1c0,0-.07.11-.13.14l-1.3.65a4.3,4.3,0,0,0,0-1.29c-.17-.51-.31-.93.42-1.34-.37-.06-.59,0-.67-.13a.62.62,0,0,1-.12-.51,5.44,5.44,0,0,1,.59-.82c-.85-.36-1.46-.38-1.94.09-.23.24-.21.73-.35,1.28-.12-.23-.2-.4-.35-.7-.25.54-.47,1-.77,1.67a2,2,0,0,1,0-.42c.06-.23.27-.55.2-.64a2.35,2.35,0,0,0-.73-.41c-.07.38-.1.66,0,.78.55.53.35,1.08.11,1.64s-.37,1,.17,1.46a.49.49,0,0,1,.17.33c0,.39,0,.78-.07,1.36.58-.12,1-.2,1.44-.31s.88.24.91.51a2.09,2.09,0,0,1-1,1.6l-.39-1.19-.15,0-.31.72a2,2,0,0,1-.48.1,4.67,4.67,0,0,1-.63-.08c0-.48.07-1,.11-1.51-1.26.46-1.25.46-1.09,1.64a1.22,1.22,0,0,1-.2.58c-.11.23-.26.43-.37.66s-.1.42-.23.56a.88.88,0,0,0,.25,1.49c.15-.22.3-.44.57-.81a4.25,4.25,0,0,1,.18.66c0,.28-.08.57-.05.84s0,.56-.41.3c-.23-.15-.58-.4-.75-.32a1.5,1.5,0,0,0-.72.75c-.14.33,0,.77-.14,1.12C265.75,62.74,265.7,62.73,266.29,62.78Z"/><path class="cls-2" d="M43.74,71.69c.38.19.78.55,1.15.54a.86.86,0,0,1,1,.67l-.31.4c.54,1.18,1.57.24,2.29.64-.12-.28-.21-.51-.3-.74l.15-.07.33.45c-.27-.89.18-.75.52-.63.13-.41.25-.78.4-1.23l.35,0a5,5,0,0,1-.11-.84,6.86,6.86,0,0,0,.12-1.09c-.09-.57-.18-1.1.27-1.4-.05-.26-.17-.53-.1-.61a3,3,0,0,0,.68-2.09c0-.58.08-1.16.13-1.74,0-.14.15-.2,0-.44A3,3,0,0,1,50.2,62c.11-1,.15-1-.71-1.36l-.28-.13c0,.52-.24.65-.68.34,0-.35.58-.89-.31-.93,0,0,0-.16,0-.24L48,58.8h1.1l-.26.51.81-.1-.17-.61c.2-.17.38-.33.67-.56l-.56-.16c-.05.19-.09.35-.16.65-.33-1.11-.19-1.61.47-2.1a.54.54,0,0,0,.19-.38c0-.1-.2-.19-.32-.25a2.05,2.05,0,0,0-.44-.09c.84-.33.77-1.09.48-1.93a1.12,1.12,0,0,0,.54-1.53,12,12,0,0,0-.83-1.69l-.55.36c0-.81-.08-1.52-.12-2.23a1.34,1.34,0,0,0-1.56.57l-.45-.85c-.1.36-.09.57-.18.63a2.39,2.39,0,0,0-.87,1.46.6.6,0,0,1-.74.51l-.31-.61a2,2,0,0,0-.26.59c0,.18.1.38.12.57a1.21,1.21,0,0,1,0,.6A2,2,0,0,0,44.47,54a1.07,1.07,0,0,1-.25,1.48c.72,1.57.7,2.2,0,2.7a8.19,8.19,0,0,1,.53,1.53,6.22,6.22,0,0,1-.18,1.47l1.3.13c-.53-1.13.59-1.34.93-2,.17.33.31.65.49.93.28.44,0,.66-.28.93a8.72,8.72,0,0,0-.63.82l-.35-.62h-.19c-.07.47-.15.95-.22,1.42l-.77-.31c0,.54-.07,1-.06,1.45,0,.14.18.27.32.45,0-.19,0-.29,0-.4l.88.18c.08-.54.38-.67.82-.44l.28-.54a1.88,1.88,0,0,1-.17,1,.61.61,0,0,1-.29.32,10.88,10.88,0,0,1-1.12.3c.06.63.07.6-.45.51-.13,0-.34.17-.45.31s-.1.31-.17.45A2.46,2.46,0,0,0,44.7,68a4.9,4.9,0,0,0-.06,1.13c.09.59,0,.82-.62.6-.06.41-.12.8-.17,1.2L44,71l.51-.52C44.87,71.24,44.67,71.66,43.74,71.69Z"/><path class="cls-2" d="M85.64,86.64c0-.64-.57-.12-.88-.2v-.79c-.51.15-.18,1.17-.88,1l-.13-1,.75-.85-.86-.39,0-.2.73-.2,0-.11-1.32-.12,0,.11.45.24c-.06.17-.11.35-.17.54l-.19,0c-.12-.31-.36-.64-.33-.93a1.13,1.13,0,0,0-1.1-1.4c.14-.3.26-.59.39-.88l.14.25,1.7-.12v-.57L85,82.31c.07-.58.15-1,.18-1.5,0-.63.11-1.3-.67-1.57.17-.19.43-.37.41-.49a16.05,16.05,0,0,0-.44-1.61c-.06-.22-.16-.43-.2-.66,0-.06.12-.14.19-.23.11.21.19.38.26.54l.17-.06a8,8,0,0,0-.32-.86c-.11-.22-.44-.44-.41-.6s.35-.39.57-.6l-.26-.24c0-.9.09-1.65.13-2.45l-.84.42c.09-.44.16-.74.22-1l-.2,0c-.11.45-.23.9-.31,1.36,0,.15.12.35.06.46-.27.57-.58,1.12-.89,1.72l-.33-.1c0-.18,0-.43-.09-.44-.52-.09-.21-.49-.26-.74,0-.06.3-.19.48-.3l-.59-.7.93-.39V71.6l.64.17a1.44,1.44,0,0,0-.58-.87c-.57-.28-.71-.48-.46-1.1l-.68-.36c0-.27.07-.55.1-.83l.13,0,.22.6.2,0c-.06-.27-.12-.53-.19-.82.82,0,.31,1.44,1.3,1.11.1-.37.19-.74.28-1.1l.18,0,.26.65a22.64,22.64,0,0,0,0-2.36c0-.31-.1-.8-.63-.83,0,0,0-.08,0-.18l.69-.25c-.33-.19-.51-.37-.69-.39a3,3,0,0,0-.79.19l.37.49-.14.14-.63-.62,1.13-1.53-.11-.17-1.16.43-.37-.17c0,.13.1.26.16.39-.06-.13-.11-.26-.16-.39h0l0,0h0c0-.14,0-.28.1-.54l-1.07.44c-.66-1-1.11.33-1.74.21l.47,1.23c1-.47.6.37.74.79l.69-.64h0c.29.41.58.82.89,1.24l-.31.11c.07.36.14.67.17.84a4.46,4.46,0,0,0-1.26-.1,3.66,3.66,0,0,0-1,.52c0,.11.28.39.22.48-.3.46-.68.86-1,1.25l.35.29-.45.44.89.62c-.58.42-.58.42.22,1l-.37.49.8,0,0,.18-1.32,1a.78.78,0,0,1,.38,1.08.91.91,0,0,0-.08.55c.25.69.56,1.36.86,2s0,.6-.46.67c.15.7.28,1.36.42,2l-.38.16.44.48-.19.07c.09.32.19.64.32,1.11l.52-.7.19,0c.06.66.12,1.32.18,2l.9.08s0,.16,0,.29L82,84a2.11,2.11,0,0,0-.55.07,2,2,0,0,0-.43.28c.17,0,.33.08.5.1h.61c-.81.87-.9.87-1.16.25l-.78-.06a1.13,1.13,0,0,0-.2.45A5.16,5.16,0,0,0,80,86.25c.07.39.3.64.77.45,0,0,.28.24.27.37,0,.44.16.92-.26,1.3-.09.08,0,.42.06.56.6.81,1.3,1.55,1.83,2.4.22.36.45.38.68.29.48-.18.9-.32,1.24.23a2.6,2.6,0,0,1,.31-.76c.12-.13.39-.13.6-.19l.06-.24c-1,.26-.95-.31-.94-.78l.93-.51-.49-.68C86,88.17,85.62,87.32,85.64,86.64Z"/><path class="cls-2" d="M64.3,63.78l-.94.39c-.28-.28-.61-.53-1-.11s-1.08.33-1.44-.36c.29,0,.68.11.86,0a1.1,1.1,0,0,1,.92-.23.63.63,0,0,0,.51-.31,2.42,2.42,0,0,0,0-.8l-.6.08.27-.54-.6.17-.59-1.18-.2.06.13-.39a6.77,6.77,0,0,1-.56-1c0-.07.26-.25.49-.46l.87,2.1,1.1-.17.39,1.48,1.43.08a3.92,3.92,0,0,1-1-.77c-.1-.15.19-.55.32-.86l.27.43c.67-1-.6-.92-.8-1.52l1-.21a10.71,10.71,0,0,1-1-.79c-.27-.26-.6-.57-.23-1s.06-.59-.3-.68a1.39,1.39,0,0,0-1.51.27L62.32,56a5.05,5.05,0,0,0,.48-.48c-.33-.45,0-.81.06-1.22a1.94,1.94,0,0,0-.09-.66c-.14.26-.2.49-.32.53s-.29-.13-.28-.12c-1,.06-1.9.39-2.84-.26,0,.33-.06.58-.07.69l-1.1-.4-.26-.25a3.58,3.58,0,0,1-.19.55c-.09.2-.23.54-.34.54a6.41,6.41,0,0,1-1.15-.17,9.48,9.48,0,0,0-.6,1,1.6,1.6,0,0,0-.07.66c0,.14.1.35,0,.42-.32.38-.69.73-1.06,1.11l.6.29-1.19,1c.27.27.62.59,1,.94l-1.72.25c.28.26.44.39.57.54a1.26,1.26,0,0,1,.22.45s-.17.21-.21.19a1,1,0,0,1-.35-.28,2,2,0,0,1-.18-.41c-.53.58-.49.71.3.94-.11.22-.17.55-.33.61a2.6,2.6,0,0,0-1.48,1.77,2.83,2.83,0,0,0-.11,1.33c0,.23.3.43.4.56-.45.31-.89.45-1.05.75s0,.73,0,1.2l-.32.25,1,.55L52,67.36l.84,1c.31-.49.51-.53,1.09-.27.19.09.45.29.58.23.57-.27,1.11-.6,1.66-.93a.62.62,0,0,0,.21-.32c.08-.28.12-.57.19-.92l-.85.51c.1.08.23.14.26.22a1.3,1.3,0,0,1,0,.44l-.46-.07c.08-.71-.45-.25-.72-.33l.38-1.25.59,0-.35-.31,1.1-.53,0,.18c.16,0,.38,0,.47-.1a2.44,2.44,0,0,0,.25-.59c.22-.48.46-1,.68-1.45l.19.06-.4-.47.82-.58c-.42-.56.15-.6.38-.73,0-.47,0-.86-.07-1.29l.65.49.15-.12c0,.24,0,.49-.06.81.51-.23.87-.86,1.5-.5,0,.06,0,.13,0,.14l-.61.19c0,.24.08.47.13.72H60l.48.34c-.38.59-.34.65.47.74-.45-.64.33-.59.31-.69l.61.63c-.71.82-.83.88-1.61.71a5,5,0,0,0,.3.64c.42.63,1.57.57,1.44,1.75,1.08-.58.7.3.85.73.32-.35.77-.52.54-1.11-.13-.32.39-.87.84-1l.19-.36Z"/><path class="cls-2" d="M64.21,64.28h0Z"/><path class="cls-2" d="M29.32,62.4l.91-.44c-.15-.18-.27-.32-.38-.47l.17,0c.13-.59.26-1.18.41-1.82l.29-.23,1.12.07a2,2,0,0,1,.23.26c.42.58.85.58,1.06-.09a6.72,6.72,0,0,0,.1-1.8c0-.06-.17-.11-.25-.17l-.52-.39.26-.66.55.27c-.12-.31-.17-.61-.27-.63a5.89,5.89,0,0,0-1,0l0-.14.67-.5L32,55.46l-.37,1.27.36.39a2.61,2.61,0,0,1-.56,0,3,3,0,0,1-.55-.29,1.9,1.9,0,0,0,.73-1.93h.54V54l1.18-2-.1-.32c-.82,1-.81-.36-1.35-.16.25-.88.83-.43,1.37-.39l-.35-.41c.57-.31.58-.6.06-1.09l-.18.06c.08.24.15.47.22.67-.65-.12-.75-.37-.38-1a.56.56,0,0,0,.06-.32,2.56,2.56,0,0,0,0-.39l.34.09c.08-1,.15-1.9.22-2.87h-.59c-.06-.21-.12-.4-.17-.59l-.14,0c0,.13,0,.26,0,.39-.84-.15-.9-.25-.6-1l.66.26c.32-.53.43-1,0-1.47a.85.85,0,0,0-.78-.15,2.64,2.64,0,0,0-.57.85l.11.07-.94.82V44c-.66.12-1.3.21-1,1.22l-.24,0c-.27-.36-.55-.72-.82-1.09,0,.05-.08.09-.08.12,0,1-.05,1.94-.06,2.91,0,.05.08.1.13.14.27.22.55.42.83.63,0,.12.07.11.13.06.37-.34.55-.34.62.24a2,2,0,0,1-.92,1.91V48.56c-.65-.53-1-.18-1.07.72l-.51-.06v3.17l.29,0c.08-.28.15-.56.23-.82.55.27.6.4.25.87.63.34.92-.12,1.26-.67.22,1.13-1,1.08-1,1.73l-.81-1-.37.82.21-.07c.24.38.49.75.74,1.13l-.19.17-.94-.67-.14.13.32.58a1.41,1.41,0,0,0-.31.21,1.9,1.9,0,0,0-.23.39l.15,0-.17.84.24.43-.81.07c-.14.48-.29,1-.43,1.46l.2.13.89-.74a1,1,0,0,1-.08.41,1.93,1.93,0,0,0-.27,1.73.69.69,0,0,1-.14.57c-.51.51-.38,1.08.37,1.39,0-.16,0-.31,0-.47.1.52,1,.63.66,1.38l.74.18c.05-.28.1-.51.15-.73C28.5,62.07,29.15,61.54,29.32,62.4Z"/><path class="cls-2" d="M53.4,72.21l-.75-.09.39.57-.13.15L52,72.15l-.89.91,1.19.12a11.73,11.73,0,0,1-.1,1.32c-.16.79-.75.31-1.38.47l.51-1.1c-.15-.06-.48-.09-.58-.26a5.79,5.79,0,0,1-.38-1.11l.83-.06-.52-.6-1.36.41c.12.31.18.48.24.65l-.41.08c.06.26.12.56.18.83l.68-.5c.05.51.09,1,.14,1.46a7.36,7.36,0,0,0-.82-.12,3.57,3.57,0,0,0-.55.06l-.47,1.14L47,75.55c.11.24.16.35.21.48-1.19-.1-2.87.91-2.92,1.76-.51-.22-1.06,1-1.51-.09l-.82.7a1,1,0,0,1-.21,1.65c-.46,0,.11-.86-.6-.58V80h-.58v.64c-.33-.63-.67-.51-1,0l-.13-.17.48-.94-2.13.19c-.14-.21-.22-.42-.36-.51a1.73,1.73,0,0,0-.62-.09c.23-.74,1.42-1.07.68-2a1.37,1.37,0,0,0-.3.22,5.12,5.12,0,0,1-1.79,1.61,5.65,5.65,0,0,1-.89.26l.15.09c-.08.14-.16.29-.25.43-.37.57-.21,1.24.38,1.29s1.09.54,1.62.93c.28-.48.56-.3.89,0a3.2,3.2,0,0,0,.81.37c.34-1.77,1.09-.31,1.62-.26-.1-.33-.19-.6-.33-1.05h1.38a1.17,1.17,0,0,1,1.35.89c0,.05.15.1.23.1a1.87,1.87,0,0,0,1.52-.63l-1-.4.64-.23c-.24-.83.51-1.37,1.7-1.16l-.49.46.37.64-.87.37a3.28,3.28,0,0,1,.45,1.15,4.3,4.3,0,0,1-.38,1.26,2.09,2.09,0,0,1,.26.25,2.75,2.75,0,0,1,.14.3c.11-.08.29-.14.32-.24a1,1,0,0,0,0-.54.72.72,0,0,1,.58-1h.83l.08.18L45.31,83v1.87c.92.23.17,1,.27,1.52a2,2,0,0,1,2.59.31c.12-.38.39-.79.28-1-.3-.5-.23-1.1-.57-1.47.25-.66,1.47-.33,1.06-1.43l.92.34L50,83c-.21-.43-.41-.87-.57-1.21l.86-.33-.63-.61c-.63,1-.89-.24-1.31,0a1.29,1.29,0,0,1-.6.62,9.14,9.14,0,0,1-1.37.35c.07-.17.33-.49.25-.65-.22-.46.09-.74.21-1.09.06-.18.13-.49,0-.57a3.7,3.7,0,0,0-.8-.46,1.22,1.22,0,0,1-.13-.18l.4-.44-1-.47c.12-.33.21-.6.31-.88H46l-.06.68c.8-.09.82.49.88,1l.15,0c.1-.33.21-.65.31-1l0,0c.43-.27.89-.56,1.28,0,.12.17,0,.47.06.74L48,78.34c.12.31.21.52.36.89l-.7-.64c-.18.44.16,1.09.35.94.51-.38,1.12.34,1.65-.35s.59-.43,0-.82l.25-.8H49l0-.67-.47.26c0-.33-.07-.62-.11-1,.32,0,.79-.23,1-.08a2.58,2.58,0,0,1,.47,1l.8-.37-.46-.33c.16-.37.31-.7.53-1.22.08,1.29.82,1.32,1.6,1.23.07-.34.14-.62.21-1a1.28,1.28,0,0,0,.46-.15c.16-.11.24-.34.39-.47a1.5,1.5,0,0,0,.36-1.53C53.63,72.94,53.54,72.64,53.4,72.21Z"/><path class="cls-2" d="M22,71.89l-1.22.29-.55-.31c.48,0,.5-.79,1.06-.36.11-.14.33-.35.3-.42-.2-.37.07-.53.22-.79a.73.73,0,0,0-.14-.72,4.6,4.6,0,0,0-1.11-.26l-.8.61c-.11-.44.61-.73-.06-1.06l-.4,1.6.26.21a4.65,4.65,0,0,0-.59.8,4.26,4.26,0,0,0-.22,1l-.56-.07c.07-.65-.92-1.18-.18-2a6.77,6.77,0,0,0-1.5,1.1c-.53.53-1,1.13-1.5,1.7l-.78.88a.72.72,0,0,1,.1.18c-.57.41-.17,1-.08,1.35a.89.89,0,0,1-.35,1.15h1l-.45.88c-.55-.36-.59-1.56-1.69-1,0,0-.16-.16-.28-.3h.41v-.63a6.52,6.52,0,0,0,.67.28s.15-.24.12-.26a5.22,5.22,0,0,0-.45-.33h0a1.12,1.12,0,0,0-.32,0,3,3,0,0,0-.93.35c-.33.26,0,.38.2.46a1.44,1.44,0,0,1-.15.38,2.25,2.25,0,0,1-.37.31l.09.17c.22-.1.45-.3.64-.26a2.27,2.27,0,0,1,.72.42L12,78l-1.71-1v0l.67.49a2.68,2.68,0,0,1-2.63.7c.05.61.08,1.12.12,1.62l-.32,0-.23-1.22H6.31c.11.36.21.64.36,1.1-.45-.3-.78-.41-.94-.65-.42-.64-.89-.59-1.49-.2a6.8,6.8,0,0,0,.5.71.65.65,0,0,1-.27,1.1,4.25,4.25,0,0,1-.9.11l.78.9c-.55-.17-.9-.22-.73.33l.81.1c-.21-.93.38-.93,1-.91.14.68.43,1.21,1.07,1,0-.48.09-.88.13-1.29-.14-.14-.38-.34-.59-.57a2.84,2.84,0,0,1,.28-.34v.25c.41.16,1,.57,1.2.43a.89.89,0,0,1,1.11.11L9,80.39l-.77-.27c.88-.23.53-1.14,1-1.4l.3.62-.11,0c-.07,1-.13,2-.2,3l-.34.23L7.48,82.4c.44.93,1.36.23,1.95.85-.32-.67-.32-.67.81-1.06.1.13.2.37.36.41a1.89,1.89,0,0,0,.69-.1,1.9,1.9,0,0,0-.31-.42c-.34-.25-.7-.47-1.05-.7l.09-.3,3,.29c0-.23,0-.42,0-.55.25,0,.53.08.7,0a5.17,5.17,0,0,0,.8-.76c-.43,0-.66-.32-.54-.83,0,0-.17-.13-.21-.11s-.25.18-.25.27a2.21,2.21,0,0,0,.2.55L12.5,80l0-.14.58-.32c0-.28,0-.55,0-.7l1.23-.48c.43.09.94,0,1.13.27.43.52.61.21.9-.1.1-.11.31-.14.46-.21l1-.43c-.08-.4-.2-.65-.14-.85s.34-.19.53-.27a2.75,2.75,0,0,0,.66-.26,13.24,13.24,0,0,1,1-1c.53-.32.76-.65.45-1.23,0-.08,0-.2.06-.41.18.2.29.34.4.47l.19,0c0-.34,0-.68-.06-1.17l.6.68a2.94,2.94,0,0,0,.36-1c0-.13-.42-.27-.67-.41L22,72Z"/><path class="cls-2" d="M152.33,47.7c-.3.4,0,.64.26.82a2.29,2.29,0,0,0,.71.24l.27-.53.23.12-.48.86.2.3-.2,0-.37.86c-.1-.16-.17-.26-.23-.37l-.13-.23c-.06.07-.17.13-.17.21,0,.35-.06.71-.09,1.17a4,4,0,0,0,.67-.17c-.08-.67.44-.42.75-.57,0,.23.06.39.08.55l.13-.15a2.1,2.1,0,0,0,.59.24c.37,0,.78.25,1.06-.29.15-.29.56-.43.89-.66.1.27.15.43.22.63l.31-.51c-.11-.44-.2-.8-.28-1.17h.79a2,2,0,0,0,.37-.46c.17-.44.29-.89.44-1.34s.23-.71.37-1.05.27-.54.46-.91c0-.07-.07-.3-.13-.56-.46-.09-1.21.06-1.09-.75,0-.36,0-1.1.7-1V44c.57.33.92.26,1.05-.39s.28-1.21.41-1.77l-.37-.14a2.53,2.53,0,0,1,.26-.55,8.07,8.07,0,0,1,.58-.59h0c.1-.27.22-.53.3-.8a13.08,13.08,0,0,0,.54-1.82c.11-.62-.17-1.34.51-1.82.06,0,0-.24,0-.56l-1,.72c-.5-.79-.2-1.62-.09-2.5.27.68.65.66,1.13.27-.11-.46-1.09-.46-.58-1.3a1.56,1.56,0,0,0-1.17,1.14c-.1.38-.17.8-.82.69.47-.61.38-1-.16-1.43-.1-.08-.07-.34-.1-.51l.16-.08-.3-.15c.24-.77.91-.65,1.5-.81l-.64-.39c.56,0,1-.14.71-.75l.64-.13V28.75c-.21,0-.53,0-.58-.07a1.29,1.29,0,0,0-1.94-.44c-.07-.31-.13-.59-.2-.92-.38.27-.48.52-.16.84s.45.55.73.66a2.54,2.54,0,0,1,1.48,1.58,6,6,0,0,0-.85,0c-.27,0-.65,0-.75.2a3.2,3.2,0,0,0-.28,1l-.11-.06-.47.88-.23-.61a3.82,3.82,0,0,0-.13,1.67c.13.68-.09,1-.78.92-.14,1-.28,1.88-.4,2.79,0,.17.09.44,0,.51-.45.41-.34.67-.05,1.19.37.67.54,1.37,1.37,1.21a7.36,7.36,0,0,0-.25.92,6,6,0,0,0,0,1l.51-.44.22.18c-.26.43-.53.86-.81,1.28,0,0-.19-.06-.32-.1l.23-.47-1-.41c.12.45.23.88.34,1.31l-.21.06-.39-.54a2.18,2.18,0,0,0-.05.67c.22.72.24.72-.36.74,0,0,0,0-.06,0-.32.43-.75.06-.86-.08s0-.56.4-.47a2.21,2.21,0,0,1,.05-.25,3,3,0,0,1,.38-1c.35-.37.32-.59-.06-.85l-.39.52-.63-.56c-.3.84-.54,1.64-.88,2.39a3.18,3.18,0,0,0,.33,2.48l-.78-.35C153,46.79,152.67,47.25,152.33,47.7Zm8.27-7.19-.88-.25h0l.88.25Zm-1.78.37c.29-.21.59-.41.89-.61h0l-.89.61h0a1.58,1.58,0,0,1,.56-1.24A1.58,1.58,0,0,0,158.82,40.88Z"/><path class="cls-2" d="M170.13,74.65c.1.13.17.3.3.38s.31-.07.34-.16c.11-.3.31-.68.21-.92a10,10,0,0,1-.32-3.08,10.79,10.79,0,0,1-1,.75.64.64,0,0,1-.54,0c-.36-.19-.7-.44-1.15-.74,0,.56.1,1.12-.61.77.06.26.11.45.15.64-.21,0-.43,0-.65,0s-.4-.07-.6-.11l-.81,1a5.12,5.12,0,0,1,1.43.25c.28.15.41.59.61.9l-.56.32a3.78,3.78,0,0,1,.12.56c0,.35.14.77,0,1s-.59.2-1,.3c0,.21.1.54.17.89h-.66v1.28c-.24-.32-.36-.46-.53-.68-.07.49-.32,1-.16,1.29.37.65-.38.61-.45,1-.15.73-.34,1.44-.52,2.16l-.09-.08-.42.71.18.12.23-.34.15.08-1.89,1.78c.14.46.23.75.36,1.14-.8-.3-1.07-.1-1.63,1.06l.56-.13.1.22-.95.31,0,.22a3.68,3.68,0,0,0,.92.19.56.56,0,0,0,.41-.39c0-.55.26-.59.56-.45l1.3-1.24-.34-.42.47-.24.47.5c-.1.06-.19.09-.26.14a.19.19,0,0,0,0,.12.57.57,0,0,1,.26.64s.1.09.16.1c.88.08,1,.88,1.47,1.48-.69-.31-1,.16-1.28.56-.13.19,0,.55,0,.83l.31.06c.1-.29.19-.58.29-.87.31.1,1.3-.58,1.21-1a2.28,2.28,0,0,1,1.16-2.38l-.7-.52c-.11.37-.23.74-.34,1.1l-.88-1.22c.16-.11.33-.22.43-.3l-.65-.48v-.21l1.9-.52c-.84,1.09.36,1.27.69,1.89l.44-.47h-.6l0-.19.9-.21-1-.81-.17.12c0-.25-.05-.69,0-.73.65-.26.33-.71.25-1.11l.62-.23c-.06.5-.12.89-.17,1.29.73-.47.74-.7.51-1.45-.11-.32-.3-.85.21-1.14l.87-.49c-.12-.36-.21-.64-.29-.91l-.51-.09,0-.18.32-.1c0-.72-.07-1.36-.09-1.84a4.35,4.35,0,0,1,.4-.33.39.39,0,0,1,.25-.08c.07,0,.2.11.19.16,0,.45,0,.9,0,1.35l.21,0c.57-.57.33-1.33.31-1.86a3.17,3.17,0,0,1-1,0c-.19-.06-.31-.37-.53-.67l.74,0-.3-.51.18-.13Z"/><path class="cls-2" d="M213.74,84.69a8.25,8.25,0,0,0,.94,1l-.38.32.09.16a3.4,3.4,0,0,0,.78-.48c.05,0-.18-.37-.23-.58s-.07-.4,0-.45.52-.29.64-.21a3.15,3.15,0,0,1,1.2,1c.24.52.54.54,1,.54l-.33-.21c.59-.67.6-.67.54-1.55,0-.42-.12-.84.22-1.2a.39.39,0,0,0,.06-.25,9.81,9.81,0,0,1,.35-2.74c.13-.38.46-.93-.27-1.17.09-.16.26-.32.23-.43a3.36,3.36,0,0,0-.3-.8c-.82.27-1-.4-1.39-.85.62-.43.9.28,1.36.37.18-.15.34-.39.56-.45.57-.16.55-.5.56-1a20,20,0,0,1,.36-2.28c.07-.45.43-1-.35-1.24a4.72,4.72,0,0,1-.53-.18c-.42-.18-.3-.7-.47-.89-.47-.54-.1-.63.1-.73l-.88-1,.55-.32h0l-.54-.1a1.33,1.33,0,0,0-.14,1.32,4.28,4.28,0,0,1-.11,1.31l-1,.15,0-.2.62-.3-.61-.45a5.24,5.24,0,0,0-.87-.21,3.1,3.1,0,0,0-.67.1l0,.21.67.06c.08.27.16.5.26.81l-.93-.5-.14,1.48,1.21.4,0,.23c-.21,0-.47,0-.61.16s-1,.06-.72.74a1.17,1.17,0,0,1-.24,1.21c-.31.45-1.08.85-.43,1.58,0,0,0,.09,0,.13-.12.47-.26.93-.34,1.4-.16,1-.28,2-.42,2.93l.14.06,1-1.08h0c.53.66,0,.83-.35,1.06.49.63.49.63.3,2.08L213,82.65c-.11.37-.23.8-.35,1.24C213.38,83.75,213.49,84.27,213.74,84.69Z"/><path class="cls-2" d="M257.68,87.39h0v0h0S257.68,87.38,257.68,87.39Z"/><path class="cls-2" d="M256.36,87.88l-.53.29c.06.51.13,1,.18,1.39l-1.52.18a2.82,2.82,0,0,1,1.28-1.9l-.44-.38.13,0-.16-.56c-.2.36-.42.77-.71,1.28-.27-.49-.42-.79-.64-.21-.06.14-.28.22-.57.43l.15-.86-.67-.07v-.21l.47-.13c-.18-.34-.34-.66-.51-1l-.16,0c-.14.61-.29,1.22-.44,1.86-1,.16-1.19,1.26-1.8,1.91a2.16,2.16,0,0,0-.29,2.43l.91-.35.19.07c-.58.66-.19,1.17.32,1.81l-.95-.08c-.08.24-.19.57-.29.91-.08-.59-1.42-.77-.34-1.69-.61.1-.91-.68-1.39-.16a6.09,6.09,0,0,0-.66,1.14l.45,1.22h-.32c.89.21,1.16.89,1.43,1.58l-.16.18-.81-.68.12.94c-1,.29,0,1.07-.18,1.46l-.93.29a17,17,0,0,0-1.07-1.59c-.1-.12-.5,0-.75,0-.07,0-.1.2-.15.31l.57.2a2.47,2.47,0,0,1,.31.22c-1.09-.1-.59,1-1.19,1.17l.86.68c-.14.44-.29,1-.46,1.52.93-.43.93-.47.83-1.09a1.37,1.37,0,0,1,.06-.44l.39.23c.16.12.39.38.46.35a1.67,1.67,0,0,0,.49-.53.93.93,0,0,0,.09-.32h.45c0-.15,0-.26,0-.41.5.14.8.06.89-.49a1.83,1.83,0,0,1,.35-.6l1,.56.14-.79.43.15c.51-.41.08-.86,0-1.28-.22-.8-.19-.86.68-.78a1.08,1.08,0,0,0-.15.22,3.32,3.32,0,0,0-.13.7s.3.16.35.12a2.35,2.35,0,0,0,.41-.52c0-.07,0-.17,0-.26s.08-.47.13-.71c-.18.06-.36.13-.55.18s-.12,0-.18-.06a.6.6,0,0,0-.34-1l-.62.42-.15-.17.77-.91a5.34,5.34,0,0,0,1.55.47,1,1,0,0,0,1-1.12l-.43.2a5.23,5.23,0,0,1-.55-.41,5.51,5.51,0,0,1-.44-.56,4.63,4.63,0,0,0,.91.2c.06,0,.18-.43.17-.44-.33-.16-.67-.29-1-.43l-.3.78c-.16-.17-.29-.44-.42-.44-.62,0-.59-.45-.61-.88l-.31,0-.15-.74,1.08.64c-.14-.43-.22-.7-.32-1l.76-.2c-.09.52-.16.93-.24,1.37.9-.53,1-1.12.37-1.59,0-.3.06-.6.1-.94l.69-.48c.08.53.14,1,.24,1.57l-.63-.33c.14.63.27,1.27.43,2l.44.06c.05-.25.22-.56.14-.77-.2-.53.08-.55.2-.56l.71,1-.66.16c.19.24.38.47.57.72l1.23-1-.51-.25c.62-.51.62-.51.11-1.18l1,0-.37-.82a1.54,1.54,0,0,0,1.55-1.69l-.95.76Z"/><path class="cls-2" d="M255.82,87.3l-.36.12,0,.12Z"/><path class="cls-2" d="M195,99.37c0-.22-.09-.45-.11-.68-.09-.75-.35-1-1.1-.83a7.43,7.43,0,0,0-1,.31l.37.49a1.6,1.6,0,0,1-.51-.08c-.32-.19-.59-.6-.9-.63a4.39,4.39,0,0,0-1.6.25c-.41.12-.76.63-1.15,0,0-.07-.24,0-.37-.06-.44,0-.88-.07-1.32-.12a1.35,1.35,0,0,0-1.22.75c0,.15-.28.24-.42.35-.08-.17-.23-.36-.2-.52a2.43,2.43,0,0,1,.33-.64l-1.37,1-.25-.59c-.13,1.38-.13,1.38-.29,1.47l-.8-.48-.07.13.36.13v.19l-.58,0a7,7,0,0,1-.66.56c-.27.19-.57.34-.93.55a3.7,3.7,0,0,0,.76.56,4.27,4.27,0,0,0,.81.09,5.42,5.42,0,0,0,1.25.16c.53-.06.53-.13.44.62l1.1-.59-.11.67,1,.32c0-.69.85-1.18.09-1.91L187.74,99c.11.16.14.29.09.35a2.13,2.13,0,0,0-.41,1.9c0,.18-.13.4-.17.6a3.64,3.64,0,0,0,0,.57l.11-.16a5.26,5.26,0,0,0,3.93.24c.26-.58.47-1.09.68-1.57.8.4,1.75.29,2,1.28l.84-.08-.35-.49h1.14v-1l.91.29.06-.21-1.31-.72A.83.83,0,0,1,195,99.37Z"/><path class="cls-2" d="M134.3,50.65s.12-.08.2-.14l-.49-.26.51-1c1.1,1.15,1.37,1.24,2.12.68l-.22-.48.84-.71c.4,1.13-.11,2-1.44,2.57l-.18-.39c0,.37-.54.84.26.77.06,0,.14.07.18.13.3.43.58.86.88,1.28,0,.08.2.08.26.1l.78-.62a6.6,6.6,0,0,0-.66-.63,12.56,12.56,0,0,0-1.13-.58l1-.23v-.61c.45,0,1-.21,1.24.48a6.14,6.14,0,0,0-.5-3.24l.88-.51-.29-.44A7.56,7.56,0,0,0,139,46c.16-.43-.08-.94.26-1.34l-.12-.1-.3.41c-.27-.55-.51-1.05-.82-1.67l.67.08c.14-.13.26-.31.42-.37.52-.19.56-.35.05-.88a5,5,0,0,1-.32.57,1.05,1.05,0,0,1-.28.22c-.2-.34-.57-.07-.76-.18-.87-.51-1.53.41-2.36.32-.19,0-.44.55-.7.9l-.44-.12c-.42.57-.13,1,.21,1.44a5,5,0,0,1,.31.49c-.93.24-1.09.57-.91,1.52.08.45.16,1.12-.09,1.37-.64.64-.32,1.23-.14,1.84C133.68,50.59,134.07,50.61,134.3,50.65Z"/><path class="cls-2" d="M237.44,68.5c-.12.09-.31.17-.32.27,0,.42,0,.84,0,1.31l.58.18-.12.14c.15.18.41.33.44.53a1.69,1.69,0,0,1-.18.7c-.31.15-.68.24-.68.34a12.49,12.49,0,0,0,.13,1.49l.12,0-.36.8c.47-.11.43-.62,1-.66.73,0,.44.67.84.84a12.09,12.09,0,0,0,.1-2.23c0-.45-.07-.66.41-.73.07,0,.11-.16.18-.23s.3-.29.45-.43l.25.62,1.13-.19,0,.09.91-.41-.19-.27a1.34,1.34,0,0,1-.13-.23c-.06-.2-.1-.4-.15-.59l-.74.48c0-.26,0-.56.1-.6a13.56,13.56,0,0,1,1.37-.51s-.07-.22,0-.29c.53-.6,0-1.36.3-2,.06-.12-.13-.42-.26-.58s-.48-.47-.69-.68l-2.24.44c.1-.38.18-.71.27-1.08l-.51-.44c-.26.33-.6.44-.35,1s0,1-.1,1.52l-.44.16c-.18-.28-.34-.55-.64-1l-.91,2,1.07-.15Z"/><path class="cls-2" d="M154.39,54l.11.5.73-.31c0-.36.36-1-.55-.51-.09,0-.32-.16-.49-.25l-.33-.19v.9h-.26c0-.34-.14-.83,0-1,.47-.43.1-.72,0-1.06s-.25-.55-.39-.84l-.25.35c-.69.07-1-.25-1-.91h-1s0,.06,0,.09a1.43,1.43,0,0,1-.45,1.69c.12.16.21.41.34.44s.39-.11.64-.2c.06.17.11.34.21.62l-1.79-.3c-.07.15-.38.51-.3.71.23.53-.1.69-.41.9a1.59,1.59,0,0,0-.56,1.6c.12.41.19.84.29,1.33h.48l.16,1.18-.51.22c.87.33.87.33.89.75h0c.43.26.8.78,1.38.47a1.35,1.35,0,0,0,.63-.73c0-.21-.25-.5-.42-.8l.39-.57c.54.39.79.29,1-.28-.39-.64-.74-1.21-1.14-1.88h-.75l1.09-.88a8.3,8.3,0,0,0,.69,1.1c.13.15.44.13.67.18a2.23,2.23,0,0,0,.05-.72c-.14-.44-.36-.86-.6-1.41l1.05.3C154.16,54.36,154.25,54.23,154.39,54Zm-3,3.62h0a1,1,0,0,1,.08.72A1,1,0,0,0,151.35,57.62Z"/><polygon class="cls-2" points="288.2 56.3 288.2 56.3 288.2 56.3 288.2 56.3"/><path class="cls-2" d="M293.36,51.52Z"/><path class="cls-2" d="M288.73,56.21l2-.29a.58.58,0,0,0,.3-.12,4.13,4.13,0,0,1,2.7-1.32c1.12-.15,1.41-.67,1-1.46a4.43,4.43,0,0,0-1-.52c-.61-.16-1.09-.3-.41-1h0l-1.16.23.33-.71c-.52-.47-.93-.14-1.37.07a2.29,2.29,0,0,1-.59.12c-1.25.29-.51,1.54-.95,2.3h-.19c-.08-.43-.16-.85-.23-1.28-.47.1-.84.83-.57,1.1a9.46,9.46,0,0,0,.8.68c-.87.08-1.67-.14-1.93.59.19.45.33.76.46,1.08s.16.41.24.61c.05-.19.11-.38.21-.74Z"/><path class="cls-2" d="M159.87,92.62c-.1.17-.48.22-.74.25a2,2,0,0,1-.62-.15c-.11-.56-.25-1.25-.38-2l-.93.22c.09.26.29.55.24.78-.12.5.07,1.12-.5,1.48-.07,0,.05.33,0,.48a1.42,1.42,0,0,1-.37.67c-.13.12-.51.18-.6.09a13.43,13.43,0,0,1-1.07-1.25c.49-.08.9-.1,1.08-.68.11-.34.73-.49.57-1-.23,0-.52.19-.68.1-.44-.25-.59,0-.74.32-.08.16-.12.4-.25.48-.42.27-.89.46-1.32.7a.83.83,0,0,0-.12,1.13l.43-.39.34,1.46.59-.49.14.07c-.17.55-.33,1.1-.5,1.65l-.49-.16c.06.32.11.55.18.91A2.6,2.6,0,0,0,155,97c.12-.11,0-.44,0-.82l.67-.17c.26.45.45.78.78,1.33.19-.3.44-.5.43-.68a1.21,1.21,0,0,1,.72-1.28c-.14-.43-.25-.79-.37-1.18l1-.63c.38.79.31,1-.37,1.24.06.25.13.5.19.77,1,0,.46-.87.68-1.27h1V93.17l.94.08.07.22,1-1.09C160.9,92.16,160.33,91.86,159.87,92.62Z"/><path class="cls-2" d="M29.05,68.72,30.1,69,30,68.82l1.26-.73c.18,1.08.24,1.13.94,1,0-.16,0-.31-.05-.47.08,0,.2-.06.24,0s.28.27.28.4a3.48,3.48,0,0,1-.22.72A1.8,1.8,0,0,0,34.1,68a1,1,0,0,0-.31-.74,1.2,1.2,0,0,1-.23-1.92,1.54,1.54,0,0,0,.23-.86c0-.1-.23-.21-.28-.25-.09.33-.13.82-.26.84-.78.14-1.58.19-2.44.27a3.33,3.33,0,0,0,.62-1,3,3,0,0,0-.2-1.11l-.18.2h-.88a5.25,5.25,0,0,0-.55.09l0,.25c.8-.16,1,.19.94.86,0,.47-.67.9-1.48.94.18-.29.35-.56.55-.9l-.71-.27c-.53.64-.41,1.11.36,1.48-.08.14-.16.28-.21.35a2.28,2.28,0,0,1,.51.42A1.41,1.41,0,0,1,29.05,68.72Z"/><path class="cls-2" d="M163,64.63c-.57.16-.77-.08-.87-.56-.52.1-.71.38-.68,1l-.83-.08-.88.85a5,5,0,0,1,1,1.45c.27,1.13,1.51.88,2,1.6,0,0,.12,0,.18,0a4.78,4.78,0,0,0,.84.08.7.7,0,0,0,.49-.26c.12-.18.24-.57.17-.63-.63-.48.16-1.1-.19-1.68-.14-.23-.14-.45-.46-.56-.11,0-.2-.33-.19-.49s.18-.29.28-.43C163.58,64.81,163.26,64.56,163,64.63Z"/><path class="cls-2" d="M144.8,70.75c.12-.2.33-.33.45-.52a.63.63,0,0,0,.12-.46c0-.11-.35-.24-.39-.2-.21.2-.75,0-.66.59,0,.07-.35.32-.41.28-.53-.33-.74-.06-.83.51l-.16-.08c-.06-.27-.11-.54-.18-.84l-.79.58c0-.19-.06-.33-.11-.59l-.47.74c.17.4.29.69.4,1l-.12,0-.54-.32-.22.08c.09.39.18.79.29,1.31-.18-.06-.34-.11-.5-.18a3.86,3.86,0,0,0-.41-.2c-.54-.08-1.07-.14-1.61-.17a.54.54,0,0,0-.4.23c-.06.09,0,.27.07.4l.39-.18c.11,0,.29-.14.32-.11s.2.3.15.38c-.25.49-.55,1-.86,1.49l.24.48.29,0v0h0l0,0c.1.07.21.2.31.19s.32-.13.48-.15a.48.48,0,0,0,.38-.75c-.05-.11-.07-.22-.11-.33h0l.78.36c0-.07.1-.21.11-.25l.89.34a2.5,2.5,0,0,1,.34-.73c.49-.46,1-.86,1.53-1.31a1.53,1.53,0,0,0,.26-.49l-.11-.11-.53.23v-.42A2.23,2.23,0,0,0,144.8,70.75Z"/><path class="cls-2" d="M245.22,102.32c.09-.33,0-1-.09-1-.39-.12-.89-.51-1.29.09-.24.35-.5.9-1.05.3,0,0-.12,0-.17,0l-.3.17a3.15,3.15,0,0,1,0-.43c0-.09.08-.18.09-.27.06-.45-.61-.8-.18-1.3-.07,0-.15-.15-.2-.13-.33.08-.65.18-1,.29.45.3.43.67.17,1.09,0,.06,0,.18,0,.27s.06.45,0,.49c-.67.37-.45.77-.1,1.26a4.41,4.41,0,0,1,.43-.22l.46-.23c.47.42.39.91-.29,1.28l.77.82.17-.12v-.91l1-.5-.35-1.1.19-.16a2.14,2.14,0,0,1,.75.39c.09.11-.09.44-.15.67l-.18.75.5,0,.07.53.66-.37a1.1,1.1,0,0,1,.28,0c.19,0,.54.08.55.16.08.58.43.51.79.45l.18-.25a5.36,5.36,0,0,0-1.29-1C245,103.05,245.1,102.78,245.22,102.32Z"/><path class="cls-2" d="M26.67,65.74c-.87,0-.86,0-.78.9,0,.1-.09.21-.14.32a1.29,1.29,0,0,1-.27-.25c0-.07,0-.18,0-.28l-.15,0-.67,1.42a.58.58,0,0,1,0-.45c.27-.57.06-.87-.54-.87a2.58,2.58,0,0,1-2-.81,1.78,1.78,0,0,0-.05.63,3.83,3.83,0,0,1,0,.47c-.06.71-.68.72-1.16.86s-.87.17-.39.7l-.41.37.1.17c.27-.1.75-.17.77-.31.17-1,1.05-.78,1.79-1.21-.53.88.16.7.39.9.22-.35.43-.66.76-1.17.22.48.38.82.54,1.15l-.22.14-.51-.54c-.19.23-.41.44-.58.68a.44.44,0,0,0,0,.4,1.87,1.87,0,0,0,.45.33c.07-.11.12-.23.19-.34s.25-.32.37-.48l.17.11c-.12.47-.65,1,0,1.35,1.13-.24.64-1.07.65-1.63.43-.05.85,0,1-.15s0-.58,0-.94c.6.1.81-.41,1-.87a3.9,3.9,0,0,0,.24-.73l-.54.17S26.69,65.74,26.67,65.74Z"/><path class="cls-2" d="M161.56,24.62c-.53-.05-1.14-.23-1.23-.09-.46.74-1.2.76-2.07.94l.57,1.28.88-.1-.39-1.33c.44.11.89.16.89.24a9.47,9.47,0,0,1-.06,1.49h.3c0,.25.08.43.11.61l.68-.43.57.6h-.16v1.28l.88-.09c-.21-.14-.34-.18-.39-.27a2.23,2.23,0,0,1-.18-.45,1.75,1.75,0,0,1,.44-.07.45.45,0,0,1,.27.19c.15.19.27.39.31.45l-.65.86c-.94.12-1.08.48-.44,1.42-.06-.29-.09-.46-.14-.68l.51.11c.05-.16.09-.32.14-.47l.75.38c.17-.88.33-1.64.49-2.47l-.73.18c0-.28,0-.57-.09-.69a2.84,2.84,0,0,0-1.09-.88c-.49-.14-.46-.42-.43-.73S161.46,25.08,161.56,24.62Z"/><path class="cls-2" d="M54.4,68.73a2.81,2.81,0,0,1-.67,0c-.69-.18-.9,0-1,.68-1.12-.36-1.69-.17-1.78.6-.85-.22-.87-.21-1.22.66.67.35,1.09,1.27,2.22.89l-.55-1.61.9-.22a1.89,1.89,0,0,0,.62.11c.46-.07.54.07.41.5-.07.24-.1.56.34.61a.5.5,0,0,1,.32.33c0,.12-.16.27-.26.39a2,2,0,0,1-.28.23l.88.43c.81-1,.33-1.95-.25-2.92h.77Z"/><path class="cls-2" d="M24.18,63.91l1.33-.49,0-.16-.84-.12c0-.13.11-.37.2-.64l.62-.06c-.11-.67-.2-1.29-.31-2,.4-.27.39-.54-.07-.85a1.92,1.92,0,0,0-.8,1.94c-.35.39-.86.7-.88,1a.71.71,0,0,1-.54.72c-.59.22-.31.61-.17.93s.29.6.79.4a3.51,3.51,0,0,1,1.59-.26c.43,0,.63,0,.79-.38l-1.69.15Z"/><path class="cls-2" d="M25.92,64h0v0h0Z"/><path class="cls-2" d="M169.55,63.07c.08-.55.67-1.38-.59-1.2,0,.21-.07.42-.13.78l-1.22-.35a1.14,1.14,0,0,0,0,.37,21.3,21.3,0,0,0,.94,2.06,7,7,0,0,0,1,1.27c.05.06.31-.09.36-.11-.12-.18-.25-.29-.25-.39,0-.35.1-.7.15-1-.8-.06-.8-.06-.81-.61.63.24,1.25.39,1.27-.6,0,0,.12-.13.14-.12.45.21.54-.28.83-.36l-.07-.21Z"/><path class="cls-2" d="M162.64,88.16c-.27,0-.54.08-.65,0-.44-.39-.7,0-.92.07l.93,1.06-.65,1.09,1,.65c-.05.27-.12.58-.18.89l.26.07a3.56,3.56,0,0,0,.17-.68,7.94,7.94,0,0,0-.12-1,8.43,8.43,0,0,1,.83.2c.52.16.92-.13.94-.73l-.49.19Z"/><path class="cls-2" d="M137.22,76.11l.52-.39a1.75,1.75,0,0,1,.27,1.59.81.81,0,0,0,.13.6,3.42,3.42,0,0,0,.58.56c.22-.33,0-.85-.57-1l1.1-.36a5.1,5.1,0,0,1,.24-.67,4.92,4.92,0,0,1,.44-.58c-.28-.15-.7-.49-.83-.41-.84.55-.46-.19-.53-.45l-1.9-.12C136.25,75.67,137.14,75.65,137.22,76.11Z"/><path class="cls-2" d="M138.57,75h0v0h0S138.56,75,138.57,75Z"/><path class="cls-2" d="M147.72,64.73c-.59,0-.09-.69-.6-.84l-.74.57.75.66-1,.36c-.33,1.34-.33,1.34.33,2.79-.07-.35-.11-.55-.12-.63.22-.3.45-.49.51-.74a4,4,0,0,0,0-1l1,.14L147.48,65l.86.09-.16-.45h.73l-.82-.32C148,64.47,147.85,64.73,147.72,64.73Z"/><path class="cls-2" d="M148.09,64.32h0l0,0h0v0Z"/><path class="cls-2" d="M166.28,70.76c.59-.46.94-.1,1.35.2l.42-.62-.82.08c.06-.18.11-.31.15-.45l-.45-.1.47-.6-1.4.22c-.31-.34-.29-.34-.21-1a.56.56,0,0,0-.28-.43.52.52,0,0,0-.44.07.82.82,0,0,0,.08.53c.06.12.24.18.41.29-.43.24-1-.36-1.33.39h1.11l.16.13c-.94.34-.51.63-.06.92l-.54.5C165.45,70.86,166,71,166.28,70.76Z"/><path class="cls-2" d="M151.06,98.12Z"/><path class="cls-2" d="M152.76,96.88c0,.19,0,.37,0,.38l-.93.43-.24-.33c-.4.13-.65.33-.57.76.21.16.43.32.63.5s0,.28.06.29c.37.13.84.42,1.1.29s1.09-.32.58-1c-.05-.06,0-.24.08-.35C153.85,97,153.7,96.82,152.76,96.88Z"/><path class="cls-2" d="M215.68,66.81l0,0h0A0,0,0,0,0,215.68,66.81Z"/><path class="cls-2" d="M216.43,65.55l1.65.82-1.22-1.85.9-.14-.31-.4c-.32.08-.62.25-.74.17a.56.56,0,0,0-.92.26c-.18.43-.43,1.1-.24,1.37a.91.91,0,0,1,.13,1C216,66.5,217,66.76,216.43,65.55Z"/><path class="cls-2" d="M31.13,72.48v-.94l-.85-.36-1,.6c.42.14.77.16.63.71,0,.12.22.32.34.48h0l0,0h0l1.13-.28v.94l.66-.06c0,.19,0,.34.08.56.64-.5.26-.93,0-1.29l.35-.38-.85-.29Z"/><path class="cls-2" d="M149,64.2c.28-.26.82-.37.6-1.06l-.62.22-.63.22c.35-1.08.32-1.23-.24-1.82l-.82.23c.4.83-.45.44-.64.66v.63l.82-.37c.11.33.19.63.31.92a2.65,2.65,0,0,0,.31.46c.06-.18.12-.36.17-.54h.61c0,.12-.15.23-.13.32S149,64.23,149,64.2Z"/><path class="cls-2" d="M136.1,54.4c-.11,0-.29.14-.43.23s-.14.24-.19.23c-.63-.07-.56.44-.65.72l-1,.32c.48.47.53,1.39,1.43,1a1.3,1.3,0,0,0,.63-.78,3,3,0,0,0-.06-1.06l.67-.21C136.32,54.66,136.24,54.44,136.1,54.4Z"/><path class="cls-2" d="M159.57,64.47c.42.43.75.12.9-.19s.23-.51.61-.25c.09.06.34-.11.52-.17,0-.13-.11-.25-.14-.38s0-.26,0-.39-.1-.39-.15-.57c-.18.44-.24.86-.49,1.06s-.6,0-.88-.11c-.46-.17-.9-.41-1.35-.63-.1.47-.18.78-.23,1.1s0,.39.31.21a4.73,4.73,0,0,0,.7-.56c-.06.28-.11.48-.16.71C159.35,64.36,159.49,64.38,159.57,64.47Z"/><path class="cls-2" d="M155.83,62.28c-.23-.22-.35-.42-.53-.49-.71-.26-1.13.11-1.15.91,0,.5-.11,1-.18,1.59l1.15.63q-.09-.87-.18-1.65h.23C154.88,62.63,155,62.41,155.83,62.28Z"/><path class="cls-2" d="M41.12,79.46v0h0Z"/><path class="cls-2" d="M41,78.29c-.57-.24-.82-1.3-1.73-.67-.4.9.51,1.36.67,2l1.14-.12,0-.8C41.08,78.53,41.1,78.31,41,78.29Z"/><path class="cls-2" d="M166.21,63c0,.08-.13.19-.22.27a.69.69,0,0,0-.08,1,1.91,1.91,0,0,0,.88.28s.09-.26.16-.27a4.58,4.58,0,0,1,.78,0l-1-1.73.86-.31c-.18,0-.36,0-.53,0C166.5,62.2,166.16,62.37,166.21,63Z"/><polygon class="cls-2" points="167.6 62.3 167.6 62.3 167.61 62.3 167.61 62.3 167.61 62.3 167.6 62.3"/><path class="cls-2" d="M216,69.32a5.88,5.88,0,0,0,.67-.84c-.14,0-.4,0-.48-.11a7.78,7.78,0,0,1-.68-1.19c0-.08.06-.22.11-.34-.43-.07-.65,0-.73.54a2.21,2.21,0,0,0,.5,2A.64.64,0,0,0,216,69.32Z"/><path class="cls-2" d="M215.65,66.83h0Z"/><path class="cls-2" d="M165.53,66.45c-.33.89-.11,1.4.64,1.65.06-.34.13-.69.19-1l.09,0c0-.22,0-.43,0-.64h0l.26-.94c-1-.32-1.23.57-1.79,1Z"/><path class="cls-2" d="M205.36,63.76c.58.06.4.49.45.82a.79.79,0,0,0,.28.54c.12.08.37-.07.56-.12-.19-.71-.34-1.35-.54-2-.13-.39-.42-.77.18-1.12l-.8,0c-.08.25-.15.46-.21.67l.4.07a2.52,2.52,0,0,0-.38.6C205.25,63.38,205.31,63.76,205.36,63.76Z"/><path class="cls-2" d="M176,66.67c.41.29.82.09,1.21-.33l-1-.35a9.12,9.12,0,0,0-.4-1.31c-.06-.14-.49-.3-.56-.24a4.89,4.89,0,0,0-.64.89l.56,0C175.13,66,175.61,66.37,176,66.67Z"/><path class="cls-2" d="M218.58,69c-.11.15-.23.29-.48.57l1.08.43-.25.24c.41.3.67.1.83-.23.07-.15.11-.45,0-.51-.68-.52-1.28-1.27-2.3-1l.71.62.22-.31C218.48,68.92,218.59,69,218.58,69Z"/><path class="cls-2" d="M218.88,65.92c.12,0,.32-.27.47-.44a.45.45,0,0,0,.17-.27,3.86,3.86,0,0,0-.06-.9c0-.1-.23-.16-.36-.24-.12.21-.25.42-.4.66l-.75.12a2.26,2.26,0,0,0,.28.6A1.47,1.47,0,0,0,218.88,65.92Z"/><path class="cls-2" d="M236.92,82.09c.07.07.15.12.25.21.09-.25.12-.58.21-.59.66-.12.54-.72.79-1.12l-.71,0c-.68,0-.85.55-1.09,1C236.34,81.6,236.73,81.9,236.92,82.09Z"/><path class="cls-2" d="M111.46,90.73c-.47-.12-.54.12-.61.58l1.67.38V90.15a4.1,4.1,0,0,1-.4.29C111.91,90.56,111.64,90.78,111.46,90.73Z"/><path class="cls-2" d="M137.44,57.39c.13-.19.25-.36.37-.55l-1.11-.94-.18.1.33,1.74L138,58Z"/><path class="cls-2" d="M35.13,77.93H34c-.67.95-.67.95-.59,1.37l.75-.69c.11.22.18.39.26.56h0Z"/><path class="cls-2" d="M166.94,67.38c.26.41.3.43-.12.58s-.46.38-.31.7c.46-.36.9-.69,1.46-1.11l-.73-.38.44-.31-.46-.67-.81.26.45.24C166.89,67,166.84,67.23,166.94,67.38Z"/><path class="cls-2" d="M158.5,61.7H158c-.2,0-.51,0-.59-.05-.4-.55-.84-.32-1.2-.18.11.31.2.59.32.94l.45-.13c0-.08,0-.16,0-.24l.48.22,1.12-.38Z"/><path class="cls-2" d="M32.58,64a2.28,2.28,0,0,1,.84-.13c0-.88-.89-.74-1.36-1.06l.27.36-.5.56C32.08,63.79,32.17,64.22,32.58,64Z"/><path class="cls-2" d="M31.64,70.58c-.05-.14-.2-.25-.3-.38a8.09,8.09,0,0,0-.57.74,1.15,1.15,0,0,0,.39.33,3.49,3.49,0,0,0,.65,0c.18,0,.42.12.51,0s.16-.35.23-.54l-.19-.08C32.05,71,31.8,71.08,31.64,70.58Z"/><path class="cls-2" d="M270.86,46.83l.34.13,1-.43c.17-.07.44-.11.48-.23s-.11-.35-.18-.52a2.75,2.75,0,0,1-1,.37C270.89,46.12,270.91,46.46,270.86,46.83Z"/><path class="cls-2" d="M157.39,64.16l-1.3,1.15,1.3.59Z"/><path class="cls-2" d="M134.26,57.34c-.15.25-.31.49-.47.74l.13.16c.17-.11.45-.18.5-.33a.89.89,0,0,0-.07-.7,8,8,0,0,0-.9-1,5,5,0,0,0-.45-.36C132.94,56.7,133.41,57.19,134.26,57.34Z"/><path class="cls-2" d="M59.89,53.17l-.6-.51-.36.82h-.12c0-.2,0-.4-.06-.71l-.85.61.09.23C58.57,53.19,59.34,54.16,59.89,53.17Z"/><path class="cls-2" d="M26.77,63.14c-.31.25-1.08.07-.83.86l.28.08c.34-.12.52-.16.68-.24a5,5,0,0,0,.76-.5s-.15-.29-.21-.4A2.42,2.42,0,0,0,26.77,63.14Z"/><path class="cls-2" d="M145.09,63.11l-.91.3.17.2-.41.22,0,.08.41,0-.12.17c.2.19.36.49.59.56s.71-.62.68-1.11l-.44-.4v0h0Z"/><path class="cls-2" d="M146.15,62.6l-.59.21.05-.17c-.28-.15-.59-.46-.83-.41s-.46.43-.69.67l.25.22.67-.84c0,.36.05.58.08.8a1.32,1.32,0,0,1,1.45.46C146.41,63.24,146.29,62.93,146.15,62.6Z"/><path class="cls-2" d="M145.19,61.88l1.42-.35c-.21-.89-.21-.89-.94-.87C146.08,61.31,145.25,61.46,145.19,61.88Z"/><path class="cls-2" d="M166.44,74l-1,.36c1,.23.78.87.74,1.49C167.23,75.3,166.61,74.65,166.44,74Z"/><path class="cls-2" d="M275.52,42.83h0Z"/><path class="cls-2" d="M276.68,44.52l-1.16-1.69.22,2.09Z"/><path class="cls-2" d="M169,70.55c.22.16.49.42.71.39s.5-.33.74-.51c-.12-.15-.24-.43-.36-.42a3.92,3.92,0,0,0-.86.23l.05.18-.26-.21C169,70.36,168.91,70.52,169,70.55Z"/><path class="cls-2" d="M30.58,62l1.13-.38-.94-1-.19.09Z"/><path class="cls-2" d="M22.45,70.64l.88-1.21-.64-.34C22.17,69.93,22.12,70.4,22.45,70.64Z"/><path class="cls-2" d="M156,51.4c-.66-.22-.9.18-1.11.69h1.27C156.08,51.8,156,51.59,156,51.4Z"/><path class="cls-2" d="M149.89,60.3l-.41,0c.11.59.22,1.12.34,1.78.1-.18.18-.34.27-.52l.34.1.09-.14-.6-.51c0-.48,0-.9.06-1.31h0Z"/><path class="cls-2" d="M179.51,64.48l.4-.88a2,2,0,0,0-.26-.18c-.26-.12-.52-.22-.78-.32l.23.77h0l0,0h0Z"/><path class="cls-2" d="M163.27,63.65l-.79-1.12-.24.06-.36.84Z"/><path class="cls-2" d="M33.85,77.14c.23.44.63.56,1.2.38-.12-.5-.33-.86-.83-.85C34.09,76.67,33.81,77.06,33.85,77.14Z"/><path class="cls-2" d="M151,15.12l-.67.83,1.09.29C151.25,15.8,151.79,15.24,151,15.12Z"/><path class="cls-2" d="M66.8,90.27l-.07-.18-1,0c0,.13,0,.25-.07.38.32.17.64.35,1,.51,0,0,.1-.07.21-.14l-.35-.2Z"/><path class="cls-2" d="M173,65.26c.2-.4.36-.74.58-1.17C172.45,64.17,172.4,64.27,173,65.26Z"/><path class="cls-2" d="M163,31.58c-.26-.43-.84-.25-1.17.41.42,0,.76,0,1.09,0A.5.5,0,0,0,163,31.58Z"/><path class="cls-2" d="M140.55,75.26l.16.31c.6.14.73-.48,1.07-.76l-.14-.22Z"/><path class="cls-2" d="M134.17,52l.58-.49L135,52v-.87Z"/><path class="cls-2" d="M135.11,52.4,135,52v.64Z"/><path class="cls-2" d="M133.84,52.59c-.62-.2-.38-.62-.21-1.1-.62.28-.72.74-.44,1.45Z"/><path class="cls-2" d="M31.38,76l.62.67.51-.48-.61-.51Z"/><path class="cls-2" d="M143.48,65.61c0,.15-.06.3-.09.47l1.16.48C144.42,66,144.42,66,143.48,65.61Z"/><path class="cls-2" d="M61.7,66.73c-.14-.26-.25-.54-.37-.81l-.27.15c.29.38-.09,1.34,1,1A1.8,1.8,0,0,1,61.7,66.73Z"/><path class="cls-2" d="M36.59,76.11c-.88-.49-.59.53-1.13.64C36.36,77.07,36.3,76.41,36.59,76.11Z"/><path class="cls-2" d="M51.1,77.52l-.86.51c.37.27.61.44.84.62l.14-.06c-.1-.21-.21-.42-.31-.64Z"/><path class="cls-2" d="M262.36,70.92l-.58.93.68.17C262.71,71.61,262.78,71.23,262.36,70.92Z"/><path class="cls-2" d="M79.45,66.62l-.63-1C78.55,66.36,78.83,66.66,79.45,66.62Z"/><path class="cls-2" d="M137.1,60.35c.74-.25.85-.42.63-1.06C137.64,59.77,136.86,59.7,137.1,60.35Z"/><path class="cls-2" d="M243.05,104.59a.67.67,0,0,0,.29.6c.14.06.37-.11.56-.18l-.12-.19Z"/><path class="cls-2" d="M273.67,108.36l-.58-1C273.4,108.44,273.4,108.44,273.67,108.36Z"/><path class="cls-2" d="M145.54,65.82a2,2,0,0,0,.25-.68l-.16-.06-.71.44a1.1,1.1,0,0,1,0,.18C145.15,65.75,145.46,65.9,145.54,65.82Z"/><path class="cls-2" d="M55.43,69.22l.07-.94-.26,0C54.82,68.53,54.78,68.81,55.43,69.22Z"/><path class="cls-2" d="M142.57,66.4l-.43.71.58.4v-1Z"/><path class="cls-2" d="M31.25,69.71l1.1.61.1-.2C32.08,70,32,69.18,31.25,69.71Z"/><path class="cls-2" d="M164.63,65.7c.13-.08.39-.19.38-.23a5.51,5.51,0,0,0-.33-.75l-.23.14c0,.16.08.33.11.5S164.61,65.59,164.63,65.7Z"/><path class="cls-2" d="M263.07,106.29c.21.24.43.48.7.8.16-.33.25-.52.34-.69l-1-.23Z"/><path class="cls-2" d="M21.62,66.24l-.24-.49-.73,1,.17.06Z"/><path class="cls-2" d="M173.38,65a4.83,4.83,0,0,0,.58.43s.2-.21.3-.33l-.7-.37Z"/><path class="cls-2" d="M30.84,73.07,30.28,73c-.06.19-.11.38-.17.6C30.61,73.66,31,73.69,30.84,73.07Z"/><path class="cls-2" d="M13.55,74.58l-.82.5.5.39.45-.75Z"/></g></g></g></svg>