<svg xmlns="http://www.w3.org/2000/svg" viewBox="0 0 322.56 103.34"><defs><style>.cls-1{fill:#fff;opacity:0.2;}</style></defs><g id="Calque_2" data-name="Calque 2"><g id="Contours"><path class="cls-1" d="M312.31,38.91c-5.87-4.31-13.76-6.65-21-7.17-6.76-.48-11.56,1.74-17.69,3.95-.87.31-3,1.38-4,1.14-1.38-.33-1.51-1.74-2.14-3.1a51.45,51.45,0,0,0-6.33-9.67c-4.26-5.5-8.24-11.64-13.91-15.8-12.54-9.19-29-1.74-34.93,11.61a67.86,67.86,0,0,0-3.12,8.31,13.14,13.14,0,0,0-1.69.41,56,56,0,0,1-7.52.93c-9,.56-17.91-.75-26.86-.28-2.11.11-4.22.29-6.34.34a18.64,18.64,0,0,1-2.32.08c.23-.09.13-.91.15-.82-.72-3.34.73-7.07,0-10.6-1.39-6.76-6-12.16-12-15.4a22.91,22.91,0,0,0-31.48,9.7c-1.36,2.58-1.51,6.63-3.26,8.84-1.87,2.37-6.47,1.79-9.22,1.81-8.21.06-16.21-.25-24.4-.94-9.33-.79-18.37.63-27.67.69-.15,0-.28,0-.42,0C57.68,14.23,52,4,42.9,2.48c-14-2.32-28,8.94-34.8,20.29S-1,49.24.35,62.26c1.4,13.79,8,24.67,19.1,32.82,5.57,4.08,12.11,7.24,19,8.09s12.78-1.67,18.4-5.76a52.32,52.32,0,0,0,8-7.28c.8-.9,2.67-4.06,3.82-4.48-.07,0,2.82,1.1,3.82,1.45,7.81,2.74,16.46,4.56,24.38,1.23a60.5,60.5,0,0,0,9.68-5,5.91,5.91,0,0,0,.71.57,13.68,13.68,0,0,0,4.42,1.86,26.63,26.63,0,0,0,8.95.19c4.24-.49,8.42-2.68,12.52-1.08,5.35,2.1,9.2,1,13.65-2.42,3.62-2.75,5.72-3.24,9.92-1,3.13,1.63,6.26,3.45,9.75,4.21a17.61,17.61,0,0,0,9.05-.53c1.55-.49,3.07-1.49,4.7-1.69,2.58-.33,4,1.34,5.83,2.82,5.29,4.27,11.19,4.17,17.62,2.66,8.52-2,17.09-4.92,26-4.33,3.63.24,7,2.18,10.63,2a20.57,20.57,0,0,0,4.51-1.07c2.48-.66,3.5-.35,5.68.94,12.82,7.64,27.72,10.81,42.47,8,11.5-2.22,22.76-8.84,27.31-20.12C324.88,62.73,322.75,46.59,312.31,38.91ZM209.8,28.27c.32,0,.5.08,0,0Z"/></g></g></svg>