<svg xmlns="http://www.w3.org/2000/svg" viewBox="0 0 316.5 126.03"><defs><style>.cls-1{fill:#fff;opacity:0.2;}</style></defs><g id="Calque_2" data-name="Calque 2"><g id="Contours"><path class="cls-1" d="M302.55,72.63c7.8-3.49,15.34-7.34,13.73-17.83-1.65-10.71-11.63-16.58-21.64-16.52.79-11.09,2.15-22.68-8.35-30-11.07-7.71-22.44,1.59-27.13,11.9-2.1,4.64-2.64,9.07-2.78,14.1-.1,3.37.52,12.67-2.88,14.86-2.62,1.69-9.78-1.41-12.47-2.16a110.82,110.82,0,0,0-15-3.58c-7.07-.94-14.87-2.54-22-1.49-2.26.34-4.48.89-6.72,1.35-1.1.23-2.22.4-3.31.65l-.66.14c-.55-3.43-1.8-7.35-2.35-10.93a66.18,66.18,0,0,0-4-15.44C182.41,6.74,170.31,1.07,159,.13a36.32,36.32,0,0,0-32.51,14.54c-3.94,5.41-6.33,11.66-9,17.76-2,4.78-5.52,15.59-12.19,14.78-6.34-.76-10.66-8.6-16-11.56-5.09-2.81-9.86-1.31-14.13,1.53C70.75,33,66.1,28.09,59.54,29.45c-1.77.36-3.42,2.06-5.07,2.33-1.4.23-3.12-.64-4.47-1-3.56-.83-7.15-2-10.82-2.2-8.29-.49-13.62,4-17.74,10.05a3.79,3.79,0,0,0-5.63,1.7C11.94,48.24,6.13,55,2.69,63.12a36.5,36.5,0,0,0-1.2,24.14c2,6.91,6.39,12.94,13.58,14.87a19.27,19.27,0,0,0,11.49-.6c2.73-1,7.59-4.69,10.49-3.26s4.53,5,7.72,6.49c3.78,1.74,8.26,1.55,12.26.76a19.41,19.41,0,0,0,5.67-2.07c1-.56,2.73-2.44,3.91-2.22s2.59,2.61,3.31,3.38a26,26,0,0,0,4.81,4.19c7.26,4.77,15.81,4.15,23.64,1.06,3.65-1.44,6.35-4,9.76-5.81s6.42,1.39,9.06,3.71c3.68,3.23,7.11,6.15,11.7,8a46.58,46.58,0,0,0,16,3.39c9.58.32,18.51-3.14,26.78-7.64,6.93,7.3,15.29,10.41,25.9,10.78,15.29.54,30.31.7,45.56,2.41,7.62.85,15.08,2,22.74.91a63.19,63.19,0,0,0,19.55-6.14c11.19-5.54,23-14.19,28.22-25.89,2.46-5.48,3.08-12.4-1.48-17C309.5,73.85,306.1,73,302.55,72.63ZM192.93,44.12c-.66.08-.36-.1,0,0Z"/></g></g></svg>