<svg xmlns="http://www.w3.org/2000/svg" viewBox="0 0 305 130.44"><defs><style>.cls-1,.cls-2{fill:#fe5f58;}.cls-1{opacity:0.2;}</style></defs><g id="Calque_2" data-name="Calque 2"><g id="Phrase_1" data-name="Phrase 1"><g id="P1_m4_2"><path class="cls-1" d="M301,39.82c-3.67-8-9.64-14.7-17.89-18-8-3.22-18.81-3.07-25.75,2.67-1.59,1.32-4,6-5.31,6.46-.75.28-1.59-.24-2.61-1-3.5-2.6-6.17-7-8.51-10.64-4.41-6.81-9-17.27-17.9-19-14-2.79-16.28,18.51-18.26,27.21-.43,1.85-1,3.65-1.4,5.51,0,.17-.12.44-.19.72-3.06.23-11.63.85-12.46.86-10.26.21-20.54-.17-30.72,1.36A88.54,88.54,0,0,0,147.26,39c-1,.31-2,.2-1.92.47a25.94,25.94,0,0,1-1.54-2.88c-4.46-7.85-9.16-15.91-16.44-21.5-4.41-3.38-10.25-5.83-15.6-3-4.54,2.37-6.89,7.27-8.33,12-2.79,9.05-3.05,19-2.87,28.52-5,.08-10.06-1-15.08-.62a21.14,21.14,0,0,0-13.12,5.29c-3.85-3.08-7-7-11.65-9.06-5.26-2.3-10.11-.8-14.1,2.5C33,42.47,12,43.94,1.33,55.92a5.24,5.24,0,0,0,1.12,7.87A63,63,0,0,0,1.23,76c-.17,7.35,1.19,14.39,2.91,21.49,2.49,10.26,5.64,21.72,14.51,28.36,8.17,6.13,21.11,6.56,27.47-1.18,4.06,2.95,8.68,3.87,14.3,2.09,5.3-1.67,10-5.33,14.13-9.1,9.32,12.18,29.44.29,39.26-8.88,11.35,10,28.84,5.24,41.7.24a125.21,125.21,0,0,1,26.3-6.71c8.79-1.39,17.8-3,25.34-7.92,15.12,9.81,37.06,4.82,51-6.05,12.09,7.54,26.42,5.78,36.64-5.14C306.07,71.07,307.81,54.67,301,39.82Z"/><path class="cls-2" d="M254.91,71.76c-.1-.24-.16-.5-.26-.74-.25-.54-.72-1.06-.71-1.59,0-.93-.7-1.76-.3-2.71,0-.09-.09-.24-.15-.37a3.38,3.38,0,0,1-.22-.52c-.16-.65-.27-1.31-.44-2-.27-1-.67-2-.84-3.08a9,9,0,0,0-.34-1.88c-.18-.48-.28-.83-.68-.92a5.27,5.27,0,0,0,0-1.33,7.94,7.94,0,0,0-.51-1.92,8.64,8.64,0,0,1-.56-2.89,9.85,9.85,0,0,1-.12-1.43,1.82,1.82,0,0,0-1-1.59c-.49-.22-.85-.26-.87.19-.37.08-.67,0-.84.19a6.2,6.2,0,0,0-2.34,4.38,15.8,15.8,0,0,1-.71,3c-.52,1.52-1.16,3-1.73,4.51a7.57,7.57,0,0,1-.47,1.39,2.56,2.56,0,0,0-.61,2.12c0,.14-.14.38-.28.49-1.07.84-1.18,2.26-2,3.26,0,.06,0,.18,0,.27,0,.56.11,1.11.16,1.66-.23-.19-.76-.69-.78-.13,0,.79-.18,1.21-.89,1.46-.08,0-.14.18-.17.29-.16.47-.26,1-.45,1.43-.41,1-.85,1.94-1.28,2.91l-.23-.07a3.78,3.78,0,0,0-.32-1.47c-.62-.88-.15-1.93-.57-2.83a9.07,9.07,0,0,1-.47-1.56,2.4,2.4,0,0,1-.06-.6c0-.76,0-1.53,0-2.3,0-.33-.22-.75-.09-1,.47-.76-.12-1.43-.08-2.16,0-.52-.26-1.09-.26-1.69,0-1.44-.06-2.88-.1-4.32,0-.49,0-1,0-1.46s0-.82-.06-1.23-.13-.75-.13-1.12c0-.87.07-1.73,0-2.6,0-1-.11-2.07-.17-3.11,0-.08-.09-.16-.12-.24a5.48,5.48,0,0,1-.3-.86c-.11-.71.1-1.48-.37-2.14-.06-.09,0-.27,0-.41a17.18,17.18,0,0,0-.09-2.15c-.1-.68-.36-1.33-.52-2,0-.14.05-.31.08-.46a1.27,1.27,0,0,0,.1-.37c-.09-.85-.16-1.71-.31-2.56s-.39-1.69-.56-2.54a7.62,7.62,0,0,1-.05-1c0-.32-.07-.64-.12-1-.08-.64-.65-1.1-.55-1.87a4.57,4.57,0,0,0-.37-2c-.13-.35-.22-.69-.33-1s.59-1.41-.6-1.3a2.53,2.53,0,0,0,.17-.73c-.06-.66-.54-1.3-.09-2,0-.05,0-.17-.06-.26-.26-1-.52-2.07-.77-3.11,0-.1,0-.22,0-.33a11,11,0,0,0-.09-1.91c-.12-.53-.6-1-.66-1.51-.08-.73-.54-.93-1.06-1.14a4.71,4.71,0,0,0-.48-.14l-.36.6-.12-.19c-.25.07-.58.07-.74.24s-.45.62-.38.85c.27.88.67,1.72,1,2.58a4.05,4.05,0,0,1,.1.92c0,.31,0,.63.08.93s.18.36.13.45c-.34.55.07.95.2,1.43.3,1.13.49,2.3.72,3.45a.66.66,0,0,1,0,.27,2,2,0,0,0,.39,2c.39.43.4,1.18.65,1.78a9.16,9.16,0,0,1,.17,2.54c.06.76.22,1.51.35,2.27.19,1.13.45,2.26.59,3.4.11.85-.11,1.74.5,2.49.06.07,0,.22,0,.33a9.63,9.63,0,0,0,0,1.61c.14,1.06.37,2.11.55,3.17a1.93,1.93,0,0,1,0,.34c0,.67,0,1.34.06,2,0,.2.22.38.29.58a2,2,0,0,1,.15.71c0,.95-.16,1.89-.15,2.83s.16,1.79.18,2.68c0,.63-.08,1.25-.08,1.88a4.19,4.19,0,0,0,.33,2.26,1.23,1.23,0,0,1,0,.67c0,.57-.09,1.13-.14,1.69l.54.33a6.89,6.89,0,0,0-.29,1.26c0,.71.11,1.43.11,2.14a20.45,20.45,0,0,0,.49,3.41,17.51,17.51,0,0,1,.42,2.85,5.05,5.05,0,0,1-.49,2.24c-.6,1.12-1.27,2.2-1.77,3.39a8.6,8.6,0,0,1-2.46,3.19,3.26,3.26,0,0,1-1.65.59c-.67.09-1.37-.1-2,0a7.93,7.93,0,0,1-4.92-1.06A6.9,6.9,0,0,0,216,80a2.65,2.65,0,0,1-1.06-.42,21.12,21.12,0,0,1-1.65-1.35A7.14,7.14,0,0,1,211,75.51c-.08-.23-.32-.39-.43-.61-.28-.58-1-.81-1.08-1.57a5.76,5.76,0,0,0-.34-1.12c-.1-.7.4-1.49-.37-2a9.88,9.88,0,0,0,.35-2.16,10.32,10.32,0,0,1,1-4.29A25,25,0,0,1,212,60.15,29.35,29.35,0,0,1,214,57.26c.69-.89,1.43-1.73,2.14-2.59A15.3,15.3,0,0,1,218.71,52a4.49,4.49,0,0,1,2.45-1.14c.64-.07,1.35-.2,2-.33a2.45,2.45,0,0,0,1.26-.42c.25-.26.2-.81.3-1.34l-.27-.3.62-.48h-.92a12.7,12.7,0,0,0-1.51,0,26.89,26.89,0,0,1-3.44.34c-.81,0-1.25.58-1.91.73-.06,0-.06.24-.09.36s0,.23,0,.28c-.63.62-1.3,1.19-1.9,1.83s-1.82,1.22-2,2.42c0,.12-.2.26-.34.31-.68.22-1,.8-1.29,1.35-.12.2-.25.38-.38.57-.46.63-1,1.24-1.36,1.9a12.8,12.8,0,0,1-1.07,2,2.15,2.15,0,0,0-.5,2.42c-.67.05-.92.5-1.11,1.05s-.56,1.34-.83,2a.91.91,0,0,0,0,.33c0,.44,0,.88,0,1.31,0,.62-.39,1.38.61,1.62,0,0,.06.13.12.33l-.71-.43c0,.19-.13.35-.08.43.31.51-.06.89-.2,1.32-.05.14-.15.35-.09.42.31.35,0,1.08.74,1.19,0,0,.1.2.07.23-.41.46-.18.87-.05,1.36a8.16,8.16,0,0,1,.06,1.57c0,.15.17.3.28.44.46.57.92,1.15,1.4,1.71.7.82,1.36,1.69,2.13,2.44a15,15,0,0,0,2.12,1.58,4.57,4.57,0,0,0,2.82,1.25c.26,0,.54.22.79.37a18.69,18.69,0,0,0,1.9,1.06,6.89,6.89,0,0,0,1.87.36c1.55.13,3.11.16,4.66.3a5.61,5.61,0,0,0,3.56-.69l-.45-.28a7.27,7.27,0,0,0,1.08-.59,7.74,7.74,0,0,0,1-1.1,7.48,7.48,0,0,0,1.31-1.75c.19-.45.3-.82.79-1a2.51,2.51,0,0,1,.55,0l-.13.55.12,0a7.71,7.71,0,0,0,.21.86c.15.4.26,1,.55,1.13a8.56,8.56,0,0,0,2,.87,1.14,1.14,0,0,0,1.29-.47,3.59,3.59,0,0,0,.62-1.29c.29-1,.49-2.06.78-3.07.2-.66.49-1.3.75-2s.49-1.15.71-1.73c.41-1,.77-2.09,1.23-3.1s.94-1.73,1.39-2.61c.18-.34.23-.74.38-1.08.58-1.28,1.2-2.54,1.77-3.82.18-.43.18-.93.36-1.35.53-1.22,1.21-2.38,1.62-3.64.29-.92.91-1.81.6-2.89,0-.13.26-.36.41-.54.12.15.33.29.36.46.08.45.08.91.13,1.36a.57.57,0,0,0,.15.37c.69.6.62,1.52.89,2.27s.83,1.64.36,2.59c-.05.1.13.32.19.49a3.06,3.06,0,0,1,.13.43c.18.86.32,1.73.54,2.58a8.3,8.3,0,0,1,.68,2.44c-.1,1.3.83,2.24.86,3.45,0,.27.38.51.5.79a8.57,8.57,0,0,0,.92,2.16,2.5,2.5,0,0,1,.21.5c.16.33.33.65.59,1.14.11.59.9.17,1.23.56.17-.47.31-.86.47-1.28l.49.84c.14-.21.42-.43.39-.63a4.46,4.46,0,0,0-.38-1.26C255.69,73.57,255.29,72.67,254.91,71.76Z"/><path class="cls-2" d="M39.14,104.75a6.61,6.61,0,0,0-.36-1.55,5.3,5.3,0,0,1-.34-3c.19-1.17.52-2.32.69-3.5s.14-2.12.22-3.18c.06-.84.16-1.68.19-2.52,0-1.2,0-2.39,0-3.58a4.66,4.66,0,0,0-.12-1.72,1.49,1.49,0,0,1,0-1.42,2.52,2.52,0,0,0,.25-1.12c0-.71-.07-1.43-.12-2.14a9,9,0,0,0-.13-1.87c-.23-.88-.18-1.9-1-2.58,0,0,0-.08,0-.13-.24-.74-.48-1.49-.74-2.23a1.64,1.64,0,0,0-.35-.58c-.5-.55-1-1.08-1.54-1.62a.64.64,0,0,1-.1-.24c-.34-.78-.68-1.57-1-2.34a.68.68,0,0,0-.39-.22,2.43,2.43,0,0,0-1.92.06c-.6.31-.85.62-.86,1.19s0,1.45,0,2.18,0,1.39,0,2.08c0,.44-.2,1,0,1.31.45.84,0,1.88.72,2.63,0,0,0,0,0,.07.25.84-.15,1.76.45,2.61A4.06,4.06,0,0,1,33,83.09c.07.7.13,1.4.14,2.1,0,1.64,1.17,3.06.94,4.75a.07.07,0,0,0,0,.06,2.52,2.52,0,0,1,.21,1.65,4.35,4.35,0,0,0,.15,1.5c.09.62.22,1.23.3,1.85s.13,1.31.19,2a25,25,0,0,1,.25,2.84,17,17,0,0,1-1.06,5.28,12.39,12.39,0,0,1-3.47,5.08,2.19,2.19,0,0,1-1.42.44c-.59,0-1.19-.36-1.78-.34-1.26,0-2.1-.76-3-1.41s-1.59-1.42-2.39-2.12a5.25,5.25,0,0,1-1.9-2.32c-.05-.17-.26-.3-.41-.44a4,4,0,0,1-.75-.64c-.54-.86-1-1.76-1.54-2.63-.4-.66-.89-1.27-1.25-2-.53-1-1-2-1.47-3a.23.23,0,0,1,0-.14c.29-.56-.16-.88-.43-1.26a3.08,3.08,0,0,1-.43-.61c-.3-.82-.56-1.66-.84-2.5-.11-.36-.21-.73-.35-1.08s-.42-.87-.56-1.32c-.22-.71-.34-1.45-.56-2.15s-.51-1.4-.8-2.08-.51-1.1-.78-1.65a2.4,2.4,0,0,1-.37-2.19,1.2,1.2,0,0,0-.5-1.29c-.13-.45-.23-.8-.32-1.14a2.6,2.6,0,0,1-.1-.4,15.55,15.55,0,0,0-.49-2.48,3.62,3.62,0,0,1-.32-2,3.87,3.87,0,0,0,0-1.76,7.44,7.44,0,0,1-.1-2.74c0-.45.51-1.27-.27-1.46a8.37,8.37,0,0,0,.3-1.4c0-.38-.52-.69-.2-1.14-.27-.09-.58-.31-.82-.25a5.83,5.83,0,0,0-1.23.61v.35l-.48-.45a3.54,3.54,0,0,0-.27,2.3,6.65,6.65,0,0,1,.06,2c0,.4-.07.81-.06,1.21,0,.74.09,1.47.1,2.21s0,1.49-.06,2.23a.84.84,0,0,0,.1.33c.14.4.31.79.41,1.2.2.9.31,1.82.56,2.71a27.2,27.2,0,0,0,1,2.61c.09.22.35.36.44.44-.1.4-.37,1-.23,1.1A2.8,2.8,0,0,1,7.67,85c.17.81.55,1.57.79,2.36s.51,1.83.78,2.73a9.18,9.18,0,0,0,.53,1.47c.56,1.1,1.17,2.18,1.76,3.28a.6.6,0,0,1,0,.27A2.45,2.45,0,0,0,12,96.6a30.38,30.38,0,0,1,1.66,3.33c.36.77.64,1.59,1,2.36s1.45,1.17,1.57,2.18l.05,0a22,22,0,0,1,2.55,3.12c.55,1,1.59,1.37,2.15,2.34a5.87,5.87,0,0,0,2.18,1.74,14.35,14.35,0,0,0,2.42,1c.56.21,1.14.36,1.72.52a2.51,2.51,0,0,0,.66.1,14.29,14.29,0,0,1,1.84-.07c1.44.16,2.33-.69,3.2-1.61.14-.14.23-.38.4-.46A6.9,6.9,0,0,0,36,107.9a6.81,6.81,0,0,1,.7-.93,7.76,7.76,0,0,1,.54,1.46c.11,1,1.1.39,1.48.89.06.08.48,0,.68-.17s.23-.34.38-.48c.7-.63.77-1,.17-1.65A4.24,4.24,0,0,1,39.14,104.75Z"/><path class="cls-2" d="M67.15,105.46a15,15,0,0,1-.64-2.54c-.15-.68-.28-1.37-.43-2a4.2,4.2,0,0,1-.26-1,11.92,11.92,0,0,0-.78-4c0-.08,0-.19,0-.27-.11-.39-.24-.77-.37-1.15A7.37,7.37,0,0,1,64,92.61a5,5,0,0,0-.53-1.77,20.72,20.72,0,0,1-.72-2c-.17-.53-.28-1.08-.43-1.62-.09-.33-.22-.65-.32-1a3.39,3.39,0,0,0-.18-.73c-.57-.91-1.17-1.81-1.77-2.73l-.55.37c.14-.36.21-.54.27-.71S60,82,60,81.9c-.47-.47-.31-1.1-.47-1.65a2.83,2.83,0,0,0-1.61-2c-.49-.2-.91-.37-1.33.14a1.3,1.3,0,0,1-.72.46c-1.16.18-1.32,1.17-1.61,2s-.07,1.58-.65,2.26c-.16.18,0,.6-.06.91a4.25,4.25,0,0,1-.12,1.25,1.54,1.54,0,0,0,0,1.46s0,.12,0,.17l-.48.07c-.08.6-.19,1.1-.21,1.61s-.6,1.13-.19,1.79c.06.11-.18.4-.33.73-.17-.26-.31-.38-.32-.51,0-.61-.07-1.23-.1-1.84,0-.29,0-.57,0-.85-.11-.94-.22-1.88-.34-2.82,0-.22,0-.44-.1-.66a30,30,0,0,1-.69-3.06c-.08-.58.2-1.2-.41-1.64,0,0,0-.17,0-.26a6.73,6.73,0,0,0,.15-2c-.27-1.23-.21-2.55-1-3.68a3.52,3.52,0,0,0-1.44-1.26c-.57-.27-.64.22-.93.36-.91.43-1,.76-.56,1.64a8.93,8.93,0,0,1,.66,2c.12.64,0,1.31.14,2s.28,1.48.39,2.22c.18,1.21.31,2.42.49,3.63.23,1.53.57,3,.73,4.59.13,1.26.06,2.54.09,3.81,0,.4.1.8.11,1.21,0,.88.07,1.77.1,2.66,0,.3,0,.6,0,.9a8.09,8.09,0,0,0,.12.86c0,.15.14.3.14.45,0,.72-.14,1.44-.15,2.16a11,11,0,0,0,.18,1.37,2,2,0,0,1,0,1.2c-.16.42.11,1,.17,1.54a4.09,4.09,0,0,1,.1,1.29c-.07.36-.1.57.16.85s.43.66.35.75c-.49.56,0,1,.1,1.49,0,.11.05.21.06.32l.09.86.19,0c-.07.17-.25.38-.21.52.4,1.45,1.62,2.77,3.35,2a1.33,1.33,0,0,0,.87-1.87,3.75,3.75,0,0,1,0-1c0-1.15.05-2.31.11-3.46,0-.52-.34-1.08.18-1.54a.25.25,0,0,0,.05-.19c-.05-.72-.11-1.44-.17-2.15a4.74,4.74,0,0,1,0-.65c0-.38,0-.76,0-1.15s-.06-1,0-1.53.41-1.21.27-1.72c-.32-1.2,0-2.37,0-3.55a12.48,12.48,0,0,1,.34-2.76c.06-.42.27-.82.3-1.23a6.22,6.22,0,0,0-.13-1.21,1.74,1.74,0,0,1-.06-.59c.25-.84.6-1.65.79-2.5s.26-1.9.39-2.85a3.24,3.24,0,0,1,.19-.54c.18.15.34.2.38.31.29.62.56,1.24.82,1.87.66,1.63,1.34,3.26,2,4.91.4,1.06.75,2.14,1.08,3.22.41,1.35.8,2.7,1.16,4.05.15.54.21,1.1.33,1.65a24.77,24.77,0,0,1,.54,2.56,6.43,6.43,0,0,0,1,3.39.9.9,0,0,1,0,.38,6.31,6.31,0,0,0,.1,1.58c.46,1.32.65,1.4,2,1.32h.13c1.24.09,1.6-.42,1.2-1.6A9.42,9.42,0,0,0,67.15,105.46Z"/><path class="cls-2" d="M174.41,85.07a13.58,13.58,0,0,1-.43-1.32c-.12-.36-.17-.82-.42-1a1.66,1.66,0,0,1-.52-1.22,10.59,10.59,0,0,0-.54-1.65,16.64,16.64,0,0,0-.93-3.27c-.46-.87-.34-1.83-.79-2.65a5.68,5.68,0,0,1-.43-.9c-.25-.82-.46-1.66-.7-2.49A24.42,24.42,0,0,1,169,68a18.51,18.51,0,0,1-.17-2.69c0-.6.15-1.21.11-1.81s0-1.5-.75-1.87c-.49-.24-.46-.45-.18-.84-.54-.28-1-.71-1.46-.73-1.14-.06-2.09-1-3.3-.62-.08,0-.18,0-.27,0a8.14,8.14,0,0,0-1.51-.32c-.58,0-1.36,0-1.69.32-.7.72-1.64,1.28-2,2.32a2.33,2.33,0,0,1-.36.63c-1,1.23-2.14,2.34-2.49,4,0,.1-.18.16-.27.24a4.33,4.33,0,0,0-.89.8,11.9,11.9,0,0,1-.82,1.68A9,9,0,0,0,151.22,72c-.45,1.2-1,2.36-1.5,3.55-.17.43-.05,1-.28,1.39a3.8,3.8,0,0,0-.63,2.7,2,2,0,0,1-.08.73,10.87,10.87,0,0,0-.28,1.47c0,.87,0,1.75.07,2.63,0,1.49,0,3,.11,4.47,0,.58.07,1.27.87,1.46.07,0,.13.12.19.19a7.27,7.27,0,0,0,2.8,2.59,17.93,17.93,0,0,0,2.13.91,6.48,6.48,0,0,0,4.07-.43,11,11,0,0,0,1.56-1c1.45-.92,1.86-2.63,2.93-3.85a13.86,13.86,0,0,0,1.5-2.38c1-1.79,2.14-3.54,2.42-5.66a2.92,2.92,0,0,1,.32-.67,1.91,1.91,0,0,0,.19-.5c.15-.88.29-1.77.44-2.7a2.33,2.33,0,0,1,1.23,1.84,7.68,7.68,0,0,0,.39,2c.25.7.31,1.5.58,2.1.43.95.7,1.92,1.06,2.88a10.74,10.74,0,0,0,1.09,2c.21.32.58.72.9.74a14.9,14.9,0,0,0,2.31-.2,2.82,2.82,0,0,0,0-1C175.24,86.53,174.78,85.83,174.41,85.07Zm-8.53-12.3a22.2,22.2,0,0,0-.74,4.59c0,.17-.27.34-.33.53a12.66,12.66,0,0,0-.42,1.9c0,.2.31.44.47.65-.25,0-.71-.08-.51.55.05.16-.29.43-.41.66q-1,2-2.08,3.94c-.05.1-.05.23-.12.32A35.16,35.16,0,0,0,159.55,89,5,5,0,0,1,158,90.73a2.07,2.07,0,0,1-1.12.48,6.09,6.09,0,0,1-2.62-.38,15.37,15.37,0,0,1-2.71-2.23c-.12-.11-.11-.39-.11-.59,0-1.57-.07-3.14,0-4.71a23.21,23.21,0,0,1,.21-3.54,12.75,12.75,0,0,1,1-3.58,21.34,21.34,0,0,0,.82-2.41,5.73,5.73,0,0,1,.52-.89,8.29,8.29,0,0,0,.63-1.17,13.05,13.05,0,0,1,2.14-3.61,26.46,26.46,0,0,0,2.32-3.19c.48-.86,1.45-1.53,1.28-2.58.39-.14.73-.39,1-.35,1.17.16,2.32.39,3.47.64.17,0,.36.35.39.56a7.83,7.83,0,0,1,.19,2.23,12.68,12.68,0,0,0,.2,2.51c.07,1,.1,2,.15,3.07,0,.27.11.53.12.8A5.33,5.33,0,0,1,165.88,72.77Z"/><path class="cls-2" d="M203.32,83.17a3.8,3.8,0,0,1-.39-2.5c0-.14-.12-.33-.16-.51a16.33,16.33,0,0,1-.44-2c-.08-.62,0-1.27,0-1.9a6.83,6.83,0,0,0-.16-1.18c-.21-.81-.45-1.62-.67-2.43,0-.06,0-.14,0-.2-.15-.57-.3-1.14-.44-1.72a2.72,2.72,0,0,1-.2-1,1.84,1.84,0,0,0-.31-1.51,1.31,1.31,0,0,1-.26-.75c0-1.25-.13-2.4-1.45-3.09l.51-.33c-.14-.57-.25-1-.38-1.5-.05-.17-.16-.32-.2-.5a20.65,20.65,0,0,1-.41-2,7.83,7.83,0,0,1,0-1.53c.07-1-.83-1.55-1.2-2.34-.07-.14-.39-.22-.6-.22a6,6,0,0,0-1.47.12c-.75.19-1.54.26-1.89,1.22a11.64,11.64,0,0,1-1.2,2,2.39,2.39,0,0,0-.18.44c-.12.4-.11.91-.37,1.17a.92.92,0,0,0-.34,1,.88.88,0,0,1-.2.56,4.12,4.12,0,0,0-1.11,3.11c0,.1-.06.22-.11.32-.43.93-.87,1.85-1.28,2.78A5.42,5.42,0,0,1,188,69.8a8.23,8.23,0,0,0-1,2.71c-.25.73.37,1.89-.88,2.24a.47.47,0,0,0-.22.33c-.09.66-.15,1.33-.22,2a15.72,15.72,0,0,1-.73,1.58,2.15,2.15,0,0,0-.26,1.17,2.5,2.5,0,0,1-.79,2.16,4.28,4.28,0,0,1-.48-.86,8.56,8.56,0,0,1-.48-2.24c0-1.27-.39-2.58.2-3.83a.37.37,0,0,0-.05-.32c-.54-.7-.16-1.5-.24-2.24-.14-1.34-.18-2.69-.26-4,0-.31,0-.61-.09-.92s-.09-.43-.14-.65-.33-.74-.22-1c.45-1.16-.46-2.27,0-3.41-.63-.7.47-1.57-.21-2.27,0-1.56,0-3.12,0-4.68,0-.9-.19-1.14-1-1-.08-.22-.16-.46-.25-.69,0-.07-.15-.16-.2-.15s-.25.14-.24.19c.1.54-.34.61-.67.78a.86.86,0,0,0-.37,1.25.72.72,0,0,1,0,.41c0,.33-.11.65-.15,1s-.07.91-.11,1.36a4.72,4.72,0,0,0,0,.91c.06.53.4,1.14.23,1.56-.4,1,.12,2,0,3.06a26.09,26.09,0,0,0,.36,4c0,.45-.13.92-.05,1.35a8.38,8.38,0,0,1,.21,1.75c0,1.11.23,2.2.18,3.34,0,1,.14,2,.1,2.94,0,.43.29.86.32,1.3.05,1,0,2,.05,3a2.06,2.06,0,0,0,.3.87c.18.31.48.57.63.89a.72.72,0,0,1,0,.66c-.28.32-.37.54,0,.86.11.1.11.34.14.51.12.58.2,1.17.37,1.73a2.78,2.78,0,0,0,.48.76c.13.2.24.48.42.56a4.83,4.83,0,0,0,1.19.3,1.64,1.64,0,0,0,1.89-1.88,6.15,6.15,0,0,1,.31-1.82,10.22,10.22,0,0,1,.43-1.46c.31-.75.08-1.68.83-2.29.13-.1.11-.41.15-.63.07-.39.12-.79.19-1.18.17-.83.35-1.66.53-2.49a4.37,4.37,0,0,1,.25-.8c.24-.51.53-1,.75-1.51.81-2,1.59-4,2.4-5.93.14-.35.41-.66.53-1,.29-.91.49-1.84.81-2.74s.73-1.84,1.12-2.75c.3-.69.69-1.33.94-2,.16-.45.34-.58.84-.42-.67.61.19.75.24,1.13a2,2,0,0,0-.09.73c.09.6.21,1.21.35,1.8s.35,1.21.54,1.81c0,.1.13.21.12.3a4.42,4.42,0,0,0,.35,2.11c.48,1.22.71,2.53,1.07,3.8a4.47,4.47,0,0,0,.42.79,2.42,2.42,0,0,0,.15,1.9c0,.13.12.29.07.39a1.5,1.5,0,0,0,.14,1.42,2.76,2.76,0,0,1,.26.78c.23,1.53.43,3.06.66,4.59.08.53.27,1,.33,1.56a8.16,8.16,0,0,0,1.46,3.71c.22.34.51.36.89.18a4.15,4.15,0,0,1,1-.25,5,5,0,0,0,.44-.94c.1-.43.41-.86-.08-1.34A3.51,3.51,0,0,1,203.32,83.17Z"/><path class="cls-2" d="M96.36,94.32a1.18,1.18,0,0,1-1.48.71c-.41-.21-.55,0-.61.32-.19,1,.12,2.19-.74,3.06,0,0,0,.17,0,.22-.21.08-.54.16-.53.21,0,.47-.33.39-.58.5a3.19,3.19,0,0,0-.6.44,10.55,10.55,0,0,1-1.41,1.2,25.48,25.48,0,0,1-4,2.38,12.44,12.44,0,0,0-1.58.89,2.14,2.14,0,0,1-.87.34q-1.44,0-2.88,0a2.34,2.34,0,0,1-1.8-.7,1.64,1.64,0,0,0-.77-.44,8.11,8.11,0,0,1-3-2c-.72-.65-1.33-1.42-2-2.13a6.13,6.13,0,0,1-.62-.63c-.54-.84-1-1.69-1.55-2.55a1,1,0,0,1-.18-.65c.24-.88-.48-1.73-.06-2.6,0,0,0-.09,0-.13-.41-.57,0-.87.41-1.09.86-.48,1.74-.92,2.63-1.33a8.24,8.24,0,0,1,1.78-.64A7.56,7.56,0,0,0,78.14,89c.54-.3,1.07-.62,1.65-1,.13,0,.43.24.62.16A10.71,10.71,0,0,0,82,87.34c.41-.26.77-.59,1.17-.85a11.06,11.06,0,0,0,1.73-1c.72-.67,1.28-1.51,2-2.22a3.83,3.83,0,0,0,1.14-2c.16-.94.28-1.88.39-2.83a7.85,7.85,0,0,0,0-1l-.21,0c.3-.35.62-.7.25-1.19,0-.06,0-.21,0-.33a5.08,5.08,0,0,0,.12-1.16,2.39,2.39,0,0,0-.32-1.12A7,7,0,0,0,86.92,72a4.55,4.55,0,0,0-1.46-.48c0-.42-.39-.57-.91-.63A11.17,11.17,0,0,1,83,70.46a4.16,4.16,0,0,0-1.57-.32,8.44,8.44,0,0,1-1.94.09,28.08,28.08,0,0,0-3.53.26c-.15,0-.39,0-.43.13-.36.84-1.51.79-1.81,1.79a10.72,10.72,0,0,1-1.34,2.07,17,17,0,0,0-.89,1.82c-.31.68-.23,1.57-1,2-.06,0,0,.24-.06.37a1.4,1.4,0,0,1-.13.41,2.79,2.79,0,0,0-.59,2.42.6.6,0,0,1-.06.39c-.34.62-.82,1.19-.53,2,.06.17-.11.43-.2.63a4.41,4.41,0,0,0-.5,1.09c-.09,1-.08,1.93-.1,2.89,0,1.79-.06,3.58-.07,5.37a5.62,5.62,0,0,0,.13,2.22,10,10,0,0,0,1.81,3.43c1.05,1.06,2,2.28,3,3.34A37.79,37.79,0,0,0,76,105.43a3.65,3.65,0,0,0,1,.42,3.94,3.94,0,0,1,.61.19c.47.26.88.73,1.37.82a16.26,16.26,0,0,0,3.14.41,14.58,14.58,0,0,0,3.24-.27,11.23,11.23,0,0,0,2.18-.86c.42-.2.78-.52,1.19-.75.7-.41,1.4-.79,2.11-1.18a.19.19,0,0,0,.07-.12c0-.55.41-.66.83-.88a7.33,7.33,0,0,0,2.31-1.6c.59-.67,1.52-1,1.73-2,0,0,0,0,0,0,.5-.28.75-.63.28-1.26.72.18.95,0,.86-.64a.66.66,0,0,1,.2-.53.91.91,0,0,0,.19-1.19A16,16,0,0,0,96.36,94.32Zm-24.28-11a3,3,0,0,1,.53-1.47c.28-.37.24-1,.38-1.49a7,7,0,0,1,.38-.87l-.16-.18a4.49,4.49,0,0,0,.7-.9A22.55,22.55,0,0,1,75,75.49,18.64,18.64,0,0,1,77,73c.65.21,1.33-.4,2,0a.23.23,0,0,0,.18,0c1.09-.52,2.2,0,3.3,0a3.42,3.42,0,0,1,2.37,1,3.35,3.35,0,0,1,1,2.7,4.56,4.56,0,0,1-.55,2.62c-.17.28-.09.7-.16,1a7.19,7.19,0,0,1-.27.78,3.79,3.79,0,0,1-1.37,1.57c-.05,0-.13.11-.12.15.15.88-.57.83-1.08,1.09-.81.41-1.54,1-2.34,1.42a6.24,6.24,0,0,1-1.24.42c-.32.1-.65.17-1,.27-.87.27-1.74.52-2.6.82s-1.92.71-2.88,1.07a1.48,1.48,0,0,1-.62.17c-.13,0-.35-.31-.32-.44C71.49,86.29,71.81,84.79,72.08,83.29Z"/><path class="cls-2" d="M298.6,66.65c-.07-.17-.46-.41-.55-.35-.48.28-1.18,0-1.53.72-.19.39-.79.58-1.19.87s-.62.47-.93.71c-.11.12-.35.08-.53.16a20.56,20.56,0,0,0-2.1,1c-1.39.85-2.49,2.1-4,2.78-.88.39-1.63,1-2.59,1.4a13.05,13.05,0,0,1-4.43.82c-1.49,0-3-.08-4.49-.12a11.08,11.08,0,0,1-1.73-.08,6.91,6.91,0,0,1-1.44-.56,4.15,4.15,0,0,1-.83-.45c-.92-.69-1.82-1.41-2.72-2.12a.66.66,0,0,1-.21-.26c-.18-.63-.38-1.26-.5-1.91a16.88,16.88,0,0,1-.19-2,17.7,17.7,0,0,1,0-2.06c0-.76.16-1.51.22-2.27s0-1.63.13-2.43c.05-.39.42-.76.41-1.14,0-1.28,1-2.1,1.29-3.26.11-.52.58-1,.8-1.46a1.56,1.56,0,0,1,1.23-.94,35.9,35.9,0,0,0,4-1.07c1.22-.42,2.4-.94,3.63-1.34a16,16,0,0,0,2.26-1.06c.41-.21.78-.52,1.2-.73a3,3,0,0,0,1.54-2,8.73,8.73,0,0,0,.19-2.17,1.72,1.72,0,0,0-.69-1.56l-.12.49a6.89,6.89,0,0,0-1.45-1.58,34.59,34.59,0,0,0-3.6-1.66c-.3-.14-.63-.23-.93-.36-.69-.31-1.26.06-1.82.33-.31.14-.63-.08-1,.35-1,1.25-1.27,2.88-2.45,4-.06.06-.07.17-.11.25-.31.57-.6,1.16-.94,1.71a19.21,19.21,0,0,0-1.29,2c-.46,1-.95,1.87-2.21,2-.72.1-1.39.49-2.11.59-.95.13-.85,1.12-1.4,1.55,0,0,.07.23.11.35a1.73,1.73,0,0,1,.15.51c0,.42.17.56.53.51l2.08-.36a5.17,5.17,0,0,1-.45,1.1c-.77,1.12-1.43,2.25-1,3.67-.21.12-.5.19-.54.33a28.26,28.26,0,0,0-.64,3c-.17,1.27.44,2.56-.1,3.83,0,0,0,.13,0,.2,0,.72.09,1.45.09,2.17s-.27,1.55.35,2.25a6.65,6.65,0,0,1,1.23,1.76c.46,1.08,1.43,1.6,2.23,2.29A12.58,12.58,0,0,0,271,76a11.22,11.22,0,0,0,5.14,1.48,35.27,35.27,0,0,0,5.24-.06,28.3,28.3,0,0,0,2.89-.41c.33-.06.64-.22,1-.26A5.49,5.49,0,0,0,288,75.61a4.29,4.29,0,0,1,.48-.36c1.12-.6,2.42-.87,3.35-1.83.19-.2.53-.24.73-.43.48-.44.86-1,1.36-1.38a12,12,0,0,1,1.69-1c.33-.17.76-.18,1-.4A17.91,17.91,0,0,0,298,68.83c-.26-.29-.27-.58.17-.84a.85.85,0,0,0,.43-.47A1.52,1.52,0,0,0,298.6,66.65ZM274.89,48.77a2.53,2.53,0,0,0,.89-1.82.85.85,0,0,1,.24-.47c.7-.9,1.41-1.8,2.14-2.71l2.68,1a7.72,7.72,0,0,0,1,.32c.8.2.89.3.69,1.08a3.08,3.08,0,0,1-.47,1.13,2.66,2.66,0,0,1-.92.52c-.64.31-1.28.6-1.93.88s-1.58.67-2.36,1a5.47,5.47,0,0,1-3,.56A13,13,0,0,1,274.89,48.77Z"/><path class="cls-2" d="M126,69.44c.06,0,.1-.09.16-.12a15.28,15.28,0,0,1,1.52-.87,2.39,2.39,0,0,1,.81-.06c.91-.07,1.23-.63.87-1.44a7.34,7.34,0,0,1-.35-1.28,5,5,0,0,0-3,.39c-1.34.47-1.41.55-2.12-.63,0,0,0-.09,0-.14h.2a11.27,11.27,0,0,0,0-1.16c0-.31-.18-.61-.18-.91a9.42,9.42,0,0,0-.47-2.86,2.48,2.48,0,0,0,.12-1c-.05-.68-.19-1.37-.22-2-.05-1,0-2-.05-3.07a.7.7,0,0,0-.06-.19,6.57,6.57,0,0,1-.37-1.11c-.23-1.53-.42-3.07-.65-4.6-.16-1-.35-2.06-.52-3.1,0-.24,0-.5-.07-.73-.27-1-.57-1.93-.86-2.89l-.33-1.08a14.81,14.81,0,0,1-.5-1.69c-.19-1-.3-2-.45-3,0-.06-.05-.16-.1-.17-.49-.18-.43-.64-.41-1,0-.78-.67-1.5-.2-2.31-.47-.66-.14-1.39-.18-2.09-.1-1.71-.55-2.4-2.07-2.9l-.35.88c-.37-.18-.84-.46-.86.24,0,1.32,0,2.64.07,4,0,.27.31.52.35.8.13.8.13,1.63.31,2.42a11.35,11.35,0,0,1,.75,2.44c0,1,.54,1.78.6,2.7a3.78,3.78,0,0,0,.25,1.2,4.39,4.39,0,0,1,.58,2c0,.44.39.89.49,1.36.17.76.22,1.54.35,2.3s.28,1.63.43,2.45a1.11,1.11,0,0,1,0,.4c-.16.63.16.88.68.9a3.83,3.83,0,0,0-.29,1c0,.74.12,1.47.15,2.21a5.32,5.32,0,0,0,.39,2.67c0,.06,0,.17,0,.26,0,1,0,2,.08,2.93a.43.43,0,0,0,0,.13,6,6,0,0,1,.56,1.67c0,.53-.34,1,0,1.63.11.21,0,.52,0,.78.1.93.24,1.85.29,2.77a.82.82,0,0,1-.44.58c-.67.32-1.36.58-2.06.85a8.29,8.29,0,0,1-1.43.48c-.95.19-1.94.21-2.86.48a6.29,6.29,0,0,1-2.64.39c-.13,0-.28.14-.42.21s-.56.28-.84.4-.76.31-1.14.45-.49.14-.73.24a2.69,2.69,0,0,0-.76.42c-.06.06.13.37.19.58s0,.3.06.4a3.82,3.82,0,0,0,1,1.23c.46.28,1.91-.55,2.13-1.07.69,0,1.38,0,2.06,0,.06,0,.12-.07.18-.09a18,18,0,0,1,2.55-.66,13.78,13.78,0,0,0,3.31-.86,3.67,3.67,0,0,0,.81-.66c.28,0,.72,0,1.15,0,.14,0,.37.06.4.15.28.78.57,1.56.77,2.36.11.49-.1,1.11.13,1.51s.76.81.37,1.54c-.16.3.18.85.25,1.29s-.07.63,0,.88c.44,1,.93,2.06,1.34,3a5,5,0,0,0-.3,1.11,3.1,3.1,0,0,0,.21,1c.18.63.38,1.24.57,1.86a4,4,0,0,1,.42,1.47,9.38,9.38,0,0,0,.07,2.37c.07.54.45,1,.43,1.58a13.92,13.92,0,0,0,.22,1.54c0,.41-.11.84-.06,1.25a21.08,21.08,0,0,0,.46,2.06.68.68,0,0,0,1,.5c.37-.1.73-.26,1.09-.39a.93.93,0,0,0,.5-1.34,1.16,1.16,0,0,1-.1-.49c0-.38-.05-.77-.1-1.14a4.56,4.56,0,0,1-.18-1.38c.1-.46.16-.78-.43-1.08,1-.33.36-1,.42-1.48.11-.76-.53-.86-1.28-.94l.95-.27c-.09-.51,0-1-.24-1.28a5.15,5.15,0,0,1-.61-2.89,10.83,10.83,0,0,0-.3-1.4c.48-1.15-.8,0-.87-.49.61-.16.5-.62.39-1.08-.22-1,0-2.09-.56-3-.13-.25,0-.62,0-.94l-.17,0-.2-1.05c0-.27-.09-.54-.16-.81a3.09,3.09,0,0,1-.26-.89,3.24,3.24,0,0,0-.3-2.07C124.59,70.77,124.79,70.08,126,69.44Z"/><path class="cls-2" d="M151.6,63.05c.69-.35,1.25-.59,1.39-1.48.11-.73.2-.74-.53-.61-.12-.31-.24-.63-.44-1.13a23.67,23.67,0,0,0-2.82,1.32,21.14,21.14,0,0,0-2.55,2.09c-.32.28-.77.58-.52,1a9.9,9.9,0,0,0-1.44,1.46,15,15,0,0,0-.74,1.84c-.31.65-.7,1.26-1,1.91a1.05,1.05,0,0,0-.09.47c-.29.3-.56.46-.63.68a18.21,18.21,0,0,0-.75,2.76c-.12.84-.5,1.61-.6,2.39a14.59,14.59,0,0,0-.51,3.14,6,6,0,0,1-.14,1.32,3.07,3.07,0,0,1-.22.48,12.32,12.32,0,0,1-.64-4.12c0-1.12-.18-2.24-.3-3.36,0-.23-.32-.47-.28-.66.28-1.22-.2-2.38-.35-3.54a37.61,37.61,0,0,1-.82-4.28c0-1.25-.29-2.49-.3-3.73a3.15,3.15,0,0,0-.53-2.06.53.53,0,0,1-.06-.39,3.36,3.36,0,0,0-.3-2.15c-.23.12-.49.33-.57.27a10.84,10.84,0,0,1-1.12-1c-.15.2-.52.48-.54.79a19.7,19.7,0,0,0,0,2.77,9.49,9.49,0,0,1,.23,2.28,9,9,0,0,0,0,3.55c.17.81.53,1.59.7,2.41s.25,1.78.38,2.67.36,2,.47,3,.11,1.86.13,2.79c0,1.41.63,2.72.64,4.15a27.38,27.38,0,0,0,.42,3c.05.41-.1.86,0,1.26.15.7.43,1.36.62,2s.2,1.31.42,1.93A19.25,19.25,0,0,0,140,92.63a.61.61,0,0,0,.43.28,4.25,4.25,0,0,0,1.43-.31,2,2,0,0,0,.72-2.18,6.1,6.1,0,0,1-.07-1.21c0-.41.08-.81.1-1.22.09-1.64.13-3.28.25-4.92.06-.77.27-1.54.37-2.32s.08-1.43.23-2.13c.3-1.38.67-2.75,1-4.12.2-.77.41-1.53.63-2.29a4.52,4.52,0,0,0,.34-.95c0-.35,0-.6.42-.73.15,0,.37-.3.34-.4-.15-.6.39-.86.58-1.29a7.91,7.91,0,0,1,.6-1.36,24.4,24.4,0,0,1,2.13-2.81A7.47,7.47,0,0,1,151.6,63.05Z"/></g></g></g></svg>