<svg xmlns="http://www.w3.org/2000/svg" viewBox="0 0 320.44 128.65"><defs><style>.cls-1{fill:#fff;opacity:0.2;}</style></defs><g id="Calque_2" data-name="Calque 2"><g id="Contours"><path class="cls-1" d="M296.9,57.5a39.88,39.88,0,0,0-10.41.15c-3.13.43-6.17,2.69-9.23,2.84s-5.88-2.27-9.15-2.32a22.55,22.55,0,0,0-7.3,1.33A9.61,9.61,0,0,0,253,54.73c-3.47-.17-8.31,2.85-11.26.69-2.79-2-3.64-6.65-6.16-9.13a10,10,0,0,0-5.19-2.74c2.09-4.47,4.23-8.85,5.07-13.88a23.79,23.79,0,0,0-4.91-19.05C223.19,1.2,210.49-3.75,200,3.4c-1.49,1-3.56,3.2-5.43,3.26-2.8.08-5.8-2.64-8.78-2.85-6.08-.43-12.15,3.26-16.66,7-9.22,7.67-10.4,18.85-13.81,29.43-6.62-1.81-12.42-4-19-2.07A29.36,29.36,0,0,0,123,28.92c-5.85-1.87-12.78-2.18-18.89-2s-13.74,3.87-19.12-.05c-4.18-3.06-8-4.56-11.89-2.61-4.18-4.14-8.14-6.71-14-5.29-7.26-10.27-22.72-4.56-31.58,1.62A49.91,49.91,0,0,0,15,33.15a4.12,4.12,0,0,0-2.07,1.27C-1.71,50.52-7,83.14,13.66,96.75c5.67,3.73,11.48,4,18,4.18,3.19.09,6.62.59,9.44-1.28a12.36,12.36,0,0,0,2.62-2.42,9.62,9.62,0,0,1,1.08.62c5.51,3.48,8.72,7.52,15.93,7.33C66.49,105,71,101.93,75.56,99c3.65,3.32,7.54,6.45,12.52,7.28a20.29,20.29,0,0,0,10.09-1.06c1.21-.44,2.34-1.34,3.53-1.73a.89.89,0,0,0,.35-.15,6.73,6.73,0,0,1,2.06.67c3.31,1.49,5.58,3.38,9.4,3.7,3.67.3,7.15-.69,10.6-1.82s5.88-1.75,9.31-.45a31.52,31.52,0,0,0,9.84,2.09c6.22.36,13.51.23,19.43-2l.19-.08a21.3,21.3,0,0,0,4.18,1.75c3.27,1.36,6.52,2.79,9.88,3.89,7.86,2.59,15.19,1.54,23.22,2.15,2.78.22,3.32.2,5.23,2.39s3.14,4.14,6.07,4.93a9.63,9.63,0,0,0,4.65,0c1.29-.34,2.92-1.77,4.16-1.86,2.36-.17,5.2,3.74,7.67,4.71A16,16,0,0,0,244.05,121c7.6,5.53,16.22,8.34,23.45,2.26,7.58,4.89,16.38,6.92,25.43,4.13,9.67-3,17.62-10.4,22.48-19.14C325.42,90.23,321.08,60.56,296.9,57.5Zm-252.64,39a2.76,2.76,0,0,0,.2-.43A2.17,2.17,0,0,1,44.26,96.46Z"/></g></g></svg>