<svg xmlns="http://www.w3.org/2000/svg" viewBox="0 0 305.06 181.41"><defs><style>.cls-1,.cls-2{fill:#fe5f58;}.cls-1{opacity:0.2;}</style></defs><g id="Calque_2" data-name="Calque 2"><g id="Phrase_1" data-name="Phrase 1"><g id="P1_m3_2"><path class="cls-1" d="M301.21,123.72c-1.61-2.14-4.24-3.75-5.64-6-.74-1.18-.19-2.4.43-4.75a40.84,40.84,0,0,0-1.41-25.65c-1.81-4.83-4.4-9.69-9.23-12-3.87-1.89-8.32-1.62-12.49-.73-1.34-5.23.18-11.07-.31-16.37a17.3,17.3,0,0,0-8.45-13.84c-9.75-5.84-16.26,2.09-20.59,10.09-1.11,2-2.17,4.13-3.39,6.12a17.67,17.67,0,0,1-1.9,2.72,18.61,18.61,0,0,1-2.45,2c-.81-1.93-.82-4.57-1.56-6.53a18.4,18.4,0,0,0-3.76-6.42c-10.24-10.61-22.88,2.83-34.41,1.56,6.88-10.37,21.43-25.59,9.82-36.06-8.22-7.41-20.58-4.48-29.31.1a96.86,96.86,0,0,0-14.78,9.88,30.33,30.33,0,0,0-6,5.9,18.08,18.08,0,0,0-1.2,2c-4.45-8.49-13.5-13.54-24.07-10.64a23.41,23.41,0,0,0-15.4,13.28c-1.55,3.38-2.67,7-4.63,10.15a28.15,28.15,0,0,1-4.13,5C99.94,42.13,92.22,29.34,79,30.57c1-8.59-.2-17.82-6.3-24.09C63.83-2.66,48.13-.7,37.44,3.64,24.78,8.79,16,20.32,10.5,32.47c-1.22,2.69-2.31,5.44-3.36,8.21a3.78,3.78,0,0,0-2.28,2.15C-1,56.06-.95,70.2,2.63,84.11c1.42,5.49,4.83,9.48,7.54,14.31,3.21,5.72,1,9.46-1.88,14.85A73.54,73.54,0,0,0,0,150.13c.35,10.61,3.56,22.26,13.08,28.22,9.93,6.21,21.94,2.05,30.76-4.15S60.74,158.63,64,148c2.33-7.66,2.87-15.81,4.94-23.54a31.36,31.36,0,0,1,3-7.4c.68.37,1.45.7,2,1a26.15,26.15,0,0,0,6.92,3.08,24.62,24.62,0,0,0,18.06-2.44c2.25-1.2,4.37-2.8,6.83-3.56,3.25-1,6.76-.27,10.07,0a42.52,42.52,0,0,1,11.57,2.13c3.4,1.29,6.4,3.44,9.71,4.93a16.15,16.15,0,0,0,13.79.27c5.47,7.11,12.26,13.82,21.79,14a17.31,17.31,0,0,0,10.51-3.42c2.71-1.94,5-4.37,7.94-5.84,5.57,6.38,12.56,11.41,21.17,12.6,8.2,1.13,16.15-1.33,23.44-4.92,6.19,9.45,18.36,20.74,28.1,12.46,3.38,3.75,5.13,9,10,11.43,6.22,3.13,14.54.12,20-3.26C304.33,149.17,308.93,134,301.21,123.72Z"/><path class="cls-2" d="M81.43,103.85c-1-.1-2-.23-3.07-.24a5.47,5.47,0,0,1-4.34-2.3,15,15,0,0,1-1.9-3.17A42.07,42.07,0,0,1,68.69,81a3.08,3.08,0,0,1,.48-1.47c1.5-2.56,3.16-5,4.54-7.66a67.5,67.5,0,0,0,3.13-7.07,7.28,7.28,0,0,0,0-5.2A3.34,3.34,0,0,0,75.74,58a5.74,5.74,0,0,0-7.39,1.52,44.17,44.17,0,0,0-6.84,19.54A3.36,3.36,0,0,1,61,80.64Q54.32,90,47.56,99.34c-.85,1.17-1.83,2.25-2.92,3.56.06-.49.08-.7.11-.91,1.3-8.45,2.78-16.89,3.86-25.37a120,120,0,0,0,.77-25.42,26.92,26.92,0,0,0-2.22-9.46A8.26,8.26,0,0,0,42,37a12.22,12.22,0,0,0-6-.2,17.18,17.18,0,0,0-8.36,4.79C17.75,51,10.68,62.38,5.52,75a18.8,18.8,0,0,0-.87,3.91,1.39,1.39,0,0,0,1,1.57,6.53,6.53,0,0,0,5.25,0,1.93,1.93,0,0,0,.9-1.16c.4-1.41.48-2.94,1-4.29a96.38,96.38,0,0,1,11-20A62.33,62.33,0,0,1,35.52,41.8c3-2.41,3-2.8,4.91,1.34,1.44,3.12,1.72,6.55,1.93,10a136,136,0,0,1-.89,23.52,324.45,324.45,0,0,1-6.36,36.88,4,4,0,0,1-.74,1.48c-3.08,4-6.31,7.92-9.25,12a87.32,87.32,0,0,0-12.75,25.17,31.43,31.43,0,0,0-1.59,11.18c.16,2.45.84,4.61,3.49,5.52a8.62,8.62,0,0,0,9.25-2.52,13.44,13.44,0,0,0,1.9-2.68c1.9-3.91,3.89-7.78,5.5-11.81,4.62-11.63,7.9-23.67,10.85-35.82a4.43,4.43,0,0,1,.87-1.75c4.25-5.12,8.58-10.17,12.78-15.33,2.36-2.9,4.51-6,6.87-9.1.11.44.18.75.26,1.06a33.79,33.79,0,0,0,3.5,9.74,11.36,11.36,0,0,0,8.38,5.72,58.4,58.4,0,0,0,5.91.51,6.81,6.81,0,0,0,2.51-.28,6.08,6.08,0,0,0,1.56-1.22,10.82,10.82,0,0,0-1.54-1.27A3.73,3.73,0,0,0,81.43,103.85ZM18.15,163.37a22.25,22.25,0,0,1,.84-8.94A81.31,81.31,0,0,1,29.08,132.2a20.23,20.23,0,0,1,1.78-2.49C27.58,141.3,24.1,152.8,18.15,163.37Z"/><path class="cls-2" d="M170.24,112.13a50.52,50.52,0,0,1-7.42-13.06,1.5,1.5,0,0,1,.33-1.69c1.08-1.3,2.14-2.64,3.11-4A32.51,32.51,0,0,0,172.18,80,13.9,13.9,0,0,0,171,71.11c-2.53-5-11.57-5.38-14.16-.06a30.69,30.69,0,0,0-1.73,4.1c-2.3,7.22-2.06,14.49-.23,21.77.09.36.12.93-.09,1.14a24.91,24.91,0,0,1-8.91,6.18,1.18,1.18,0,0,1-1.58-.41,21.16,21.16,0,0,1-2.12-4,33.45,33.45,0,0,1-1.37-12.17c.52-12.16,1.23-24.31,1.84-36.47.14-2.82.27-5.65.19-8.48-.06-2-.78-2.56-2.7-2.93-3.46-.68-5.32.41-6.26,3.81-.58,2.12-1.07,4.26-1.5,6.4-1,5.27-2,10.56-3.06,15.93a17.45,17.45,0,0,0-11.62,5.4,32.72,32.72,0,0,0-8.18,13.85,19.49,19.49,0,0,0-.28,10.89,7.66,7.66,0,0,0,7.78,6.1,10.43,10.43,0,0,0,8.65-3.94c3.06-3.65,4.81-8,6.27-12.42.65-2,1.19-4,1.73-5.81,0,3.58-.07,7.33,0,11.08a31.71,31.71,0,0,0,1.67,10.21,8.66,8.66,0,0,0,6.91,6,15.1,15.1,0,0,0,9-1c2-.89,3.93-2,5.93-3.12l.54,1a72.59,72.59,0,0,0,11,15.41,5.9,5.9,0,0,0,6.6.82c.87-.51.92-1,.28-1.77C173.83,116.5,171.93,114.39,170.24,112.13ZM127.71,74.28c-1.17,5.43-2.41,10.86-4.72,15.93a70.5,70.5,0,0,1-3.84,6.69,13.46,13.46,0,0,1-1.54,1.71c-.45-1-.88-1.83-1.15-2.68a16.16,16.16,0,0,1-.17-8.91,29.55,29.55,0,0,1,9.22-15.53,17.92,17.92,0,0,1,2.09-1.43,8.81,8.81,0,0,1,1.07-.5C128.32,71.26,128,72.78,127.71,74.28ZM160.85,90a33.52,33.52,0,0,1,3-18.4,11,11,0,0,1,1.39,6.56,27.38,27.38,0,0,1-4.06,11.59C161.13,89.78,161,89.83,160.85,90Z"/><path class="cls-2" d="M298,141.91c-3.08-1.88-6.26-3.6-9.29-5.54a20.26,20.26,0,0,1-8.3-10.45,1.62,1.62,0,0,1,.37-2,43.41,43.41,0,0,0,9.45-14.48,17.48,17.48,0,0,0,1.37-7.35c-.19-2.6-1.16-4.75-3.76-5.79a9.84,9.84,0,0,0-10.91,2.75,22,22,0,0,0-2.83,4.7,30.34,30.34,0,0,0-1.69,19.53,1.59,1.59,0,0,1-.19,1.31c-3.39,3.1-7.05,5.81-11.49,7.22-1.88.6-2.82.19-3.72-1.57a4.82,4.82,0,0,1-.62-1.68,40.43,40.43,0,0,1-.32-6.11c.32-4.48.86-8.94,1.33-13.41a238.27,238.27,0,0,1,7.15-39.21,62,62,0,0,0,1.41-6.63,2.19,2.19,0,0,0-.62-1.75c-2.25-1.8-6.5-.81-7.63,1.81-.86,2-1.52,4-2.2,6.08-2.45,7.27-4.87,14.55-7.31,21.83-.19.55-.33,1.07-1.15,1.15a21.81,21.81,0,0,0-8.63,2.76c-7.67,4.32-12.66,11-16,18.94a12.66,12.66,0,0,0-.79,4.46c0,3.28,1.53,5.22,4.74,5.79a13.78,13.78,0,0,0,4.62,0c3.56-.58,6.2-2.83,8.56-5.36a68.82,68.82,0,0,0,10.37-15.35l1-1.94a3.48,3.48,0,0,1,.07.55c-.59,5.24-1.27,10.47-1.74,15.72a64.44,64.44,0,0,0-.29,9.62c.22,3.92,2.72,6.49,6.52,7.36a17.79,17.79,0,0,0,11.31-1.2c2.68-1.16,5.2-2.68,7.91-4.1a24.3,24.3,0,0,0,8.75,9c3.06,1.84,6.15,3.63,9.25,5.4a6,6,0,0,0,4.83.48,7.34,7.34,0,0,0,1.77-1.17A7.37,7.37,0,0,0,298,141.91ZM229.37,121a6.72,6.72,0,0,1-.27-5.05,29.35,29.35,0,0,1,2.07-5.09c2.92-5.29,6.55-10,11.81-13.21a15.47,15.47,0,0,1,3-1.37C241.83,105.43,237.42,114.32,229.37,121Zm49.28-4a28.25,28.25,0,0,1,5.11-17.22,9.28,9.28,0,0,1,.31,5.92,31.42,31.42,0,0,1-5,11A2.62,2.62,0,0,1,278.65,117Z"/><path class="cls-2" d="M216.69,123.27a6.3,6.3,0,0,0-2.06-.42,4.21,4.21,0,0,1-4.21-3.2,12.64,12.64,0,0,1-.56-3.54c0-2.83.19-5.66.3-8.49.1-2.4.22-4.81.28-7.21a2.86,2.86,0,0,0-2-3.14c-2.7-.81-5.27-.64-7.46,1.33a38.22,38.22,0,0,0-2.77,2.92c-3.6,4-7.18,8.12-11.64,11.26-1.12.79-2.33,1.44-3.61,2.22a9.41,9.41,0,0,1-.69-1.85,26.18,26.18,0,0,1-.44-5.05,53.51,53.51,0,0,1,7.4-23.68,32.87,32.87,0,0,1,6.8-8.76.8.8,0,0,0-.06-1.41,3.34,3.34,0,0,0-1.14-.55A6.36,6.36,0,0,0,188,75.76c-6.78,7.74-10.72,16.81-12.7,26.81a25.47,25.47,0,0,0-.21,10.75,5.85,5.85,0,0,0,5,4.77c3.91.73,7.42-.38,10.72-2.37a50.81,50.81,0,0,0,11.09-9.65c.36-.39.68-.83,1-1.25a3.07,3.07,0,0,1,.25,1.39c-.14,3.46-.39,6.93-.38,10.39,0,3.16,1,5.91,4,7.58a12.73,12.73,0,0,0,5.91,1.88,16.83,16.83,0,0,0,4.15-.59c.44-.1,1.06-.75,1-1.11S217.15,123.47,216.69,123.27Z"/><path class="cls-2" d="M166.16,56.6a7.18,7.18,0,0,0,2.05.46,5.6,5.6,0,0,0,4.46-1.52c6.82-6.22,13.7-12.36,20.5-18.6a29.13,29.13,0,0,0,3.28-3.88c.67-.88.47-1.47-.57-1.87a17.18,17.18,0,0,0-2.28-.59c-1.59.17-2.92.14-3.86,1.31a41.9,41.9,0,0,1-3.19,3.82c-2.54,2.5-5.16,4.94-7.81,7.32-4.29,3.86-8.63,7.65-12.94,11.47C164.78,55.42,164.88,56.09,166.16,56.6Z"/><path class="cls-2" d="M38.77,20.83a6.48,6.48,0,0,0,1.72.48c3.16.52,5.28-1.48,7.63-3.13l-2.53-4.35c-.52.4-.92.74-1.34,1l-5.62,4C37.57,19.57,37.59,20.3,38.77,20.83Z"/><path class="cls-2" d="M225.72,71.85c.89-.43.84-1.16,0-1.72a6.74,6.74,0,0,0-5.91,0c-.82.56-.87,1.3,0,1.72a21.06,21.06,0,0,0,2.94.92A22.48,22.48,0,0,0,225.72,71.85Z"/></g></g></g></svg>