<svg xmlns="http://www.w3.org/2000/svg" viewBox="0 0 305.99 195.26"><defs><style>.cls-1,.cls-2{fill:#fe5f58;}.cls-1{opacity:0.2;}</style></defs><g id="Calque_2" data-name="Calque 2"><g id="Phrase_1" data-name="Phrase 1"><g id="P1_m6_2"><path class="cls-1" d="M306,135.61c-.39-12.09-5.75-22.93-17.55-27.36a35.1,35.1,0,0,0-17.19-1.57,23.33,23.33,0,0,0-7.5,1.85l-.05,0c-.27-.82-1.94-2.47-2.35-3.18-3.32-5.76-5.66-11.06-10.24-16A44.34,44.34,0,0,0,235.44,78a35.76,35.76,0,0,0-15.24-2.7l.13-.34c1-2.34,2-4.52,2-7.12,0-13.82-12.67-28.3-26.14-30.36-13.7-2.1-24.64,6-31.69,16.89-7.58-3.56-15.79-4.63-24.28-4.82-4.65-.1-9.42.12-13.8,1.83-3.26,1.28-5.28,3.56-7.57,5.69-2.74-3.54-5-7.43-8.48-10.4A65.47,65.47,0,0,0,94.88,37c-4.07-1.84-4.56-5.18-5.79-9.29-1.15-3.84-2.54-7.18-5.3-9.8C80.39,8.66,73,.58,63.58,0a20.18,20.18,0,0,0-19,11.72c-3.41,7.51-2.2,15.69-3.39,23.61-.51,3.39-1.52,6.71-4.34,8.89-4.46,3.46-10.65,4-15.32,7.22-8.19,5.67-15,16-18.45,25.21C-2.43,91.26-.06,109,6.33,122.91c3.06,6.66,8,13.12,15.13,15.63,6.26,2.21,12.47.62,17.74-2.73,1.85,3.12,4.45,5.53,8.58,5.93,4.64.45,9.08-1.54,13.32-3.39a32.37,32.37,0,0,0,25.49,10.77A43,43,0,0,0,103.1,145c1.26-.58,2.43-1.33,3.67-1.94.22-.11,2.26-.7,1.79-1,1.15.56,3.48,3.81,4.61,4.87,8.09,7.61,20.93,13,32.05,13.68,5.92.36,11.53-2.27,17.39-2.05,6.34.24,11.08,4.5,16.36,7.46,11.37,6.36,23,7.15,35.26,5.13.59,3.42,1.6,6.69,4.05,9.42,5.05,5.64,11.85,6.48,18.85,4.92,1.47-.33,3.18-.33,4.6-.75,1.7,1.76,6.12,4.42,7.06,5a32.07,32.07,0,0,0,20,5.33C295.12,192.75,306.68,158.08,306,135.61Zm-43.57-26.53.23,0-4.05,2.09,0,0C260.44,110.16,262.4,109.12,262.39,109.08Zm-21.3,74.78a.48.48,0,0,1,0-.18A1.49,1.49,0,0,0,241.09,183.86Z"/><path class="cls-2" d="M193.55,142.32h0a.08.08,0,0,1,0,0Z"/><path class="cls-2" d="M164.35,132.67h0v0Z"/><path class="cls-2" d="M196.38,141.69v0h0Z"/><path class="cls-2" d="M290.08,156.91a14,14,0,0,1,.87-1.52c.14-.21.47-.29.73-.41,0,0,.09.05.07,0,0,.24-.05.45-.08.66l.43,0a73.83,73.83,0,0,0,.46-12,16.5,16.5,0,0,0-.46-2.53c0-.06,0-.38.07-.69-.29.06-.57.13-.86.17-.61.08-1.35.8-1.89-.59l1.95-.16.91-.07a3.72,3.72,0,0,0-.2-1,9.23,9.23,0,0,0-.76-1.19l-.19.06c.06.37.12.74.19,1.19l-1.94.24c-.07.24-.18.66-.3,1.08l-.86-.47.36-.61c-.88,0-1.64,0-2.4,0-.13,0-.23.38-.39.67h1.39l-1.35.81,1.34.19c0,.25-.09.5-.15.85-.59-.54-.69-.5-1.82.47-.05-.84-.1-1.63-.16-2.6l.49-.86c2.1,0,4.24.07,5.73-1.91-1.05-.64-1.26-.62-2.93.16a2.69,2.69,0,0,1-.43-1.88c.13-1.13.78-.93,1.3-1.18.14-.06.4.16.6.25l.14-.39-4.25-1.4c.14.85.14.85-1.19,1.14,0-.73-.08-1.44-.12-2.23a4.85,4.85,0,0,0-.86-.1c-1.56,0-3.13.07-4.69.15-.79,0-1.58.14-2.37.26a10.23,10.23,0,0,1-3,.48,7.66,7.66,0,0,0-3.48.54,1.27,1.27,0,0,0-.25.16l.57.53a4.77,4.77,0,0,0-.83.36,11.47,11.47,0,0,1-1,.84c-.64.36-1.34.59-2,1a5,5,0,0,0-.92.91l-.17-.13c-.09.46-.17.92-.25,1.39l1.95-1c.53.61,1.06.73,1.69.07a1.06,1.06,0,0,1,.79-.2c1,.16,1.26,0,1.13-1.1l2.2-.3,0-.27c-.17-.12-.37-.37-.5-.34-.85.23-1.68.51-2.52.78,0,.12-.06.32-.1.53l-.82-.66-.45.08-.05-.14c.59-.36,1.17-.73,1.75-1.1.31,0,.63,0,.73-.13.39-.57.72-.92,1.39-.33a10.05,10.05,0,0,0,1.38.88c0,.36,0,.75.07,1.34.48-.45,1.21-.29.94-1.17-.07-.24.47-.76.82-1,.18-.11.58.1.88.17l0,.24-.94.36.6.85h0c0,.11.08.23.13.34l-1.24.62a8,8,0,0,1,1.22.5c-.15.7.48.67.78.93a6.54,6.54,0,0,1,1.07,1c.1.14-.06.66-.24.79a11.78,11.78,0,0,1-1.5.77l-.2-.07c.18-.25.36-.5.56-.76l-.69-.18v-1.56l-2.35,1.87-.27-.34.84-.62c0-.06,0-.11,0-.17l-1.41.18c-.12.22-.2.53-.38.61-1.29.61-2.85.69-3.76,2.08-.17.27-.85.22-1.29.31-.15,0-.36,0-.43.09-.68.84-1.33,1.69-2.05,2.63-.9-.41-1.46.22-2,1.05a7.59,7.59,0,0,1-1.07,1.13l-.23-.16c.2-.75.4-1.5.57-2.17h-1l-.46-.41c.85-.13,1.73-.19,2.11-.9-.25-.48-.63-.88-.55-1.16a4.9,4.9,0,0,1,.89-1.33c-.89-1,.73-1,.95-1.92l-1.49.59c.23-.53.94-1.15-.33-1.09l.45-.66c-.19-.48-.3-.84-.46-1.17s-.37-.62-.56-.93h0a4.12,4.12,0,0,0,.24-3.54c0-.05-.16,0-.25-.06a3,3,0,0,0,0-2.54,3.65,3.65,0,0,1-.4-.85c-.15-.93-.16-.94-1-.38,1,2.08,1.06,2.42.45,3l-.54-1.41-.52.84c-.28-1.27-.54-2.41-.81-3.6h1.59c-.05.24-.09.39-.14.64l.89-.43c-.75-.74.47-2.07-.94-2.52a5.46,5.46,0,0,0-.32-3,6.94,6.94,0,0,1-.22-.78c-.29.09-.58.19-.87.27l-1,.25a4.63,4.63,0,0,1-.09-1.1c0-.21.31-.38.48-.56l-2.74-.83c-.2.13-.44.43-.65.42-.83-.07-1.65-.23-2.53-.36l.57-.82a8.59,8.59,0,0,0-1.77-.3c-1.24.07-2.47.23-3.69.41a3.73,3.73,0,0,0-.92.45c-.42-.19-1-.27-1.13-.09a4.8,4.8,0,0,0-.2,1.51l1.71-.38c-.48.89-.84,1.56-1.21,2.23l.33.22,3.1-1.58c0,.09,0,.33,0,.38a9.15,9.15,0,0,1,.93.71,1.11,1.11,0,0,1-.34.48c-.65.39-1.32.73-2,1.1a3.28,3.28,0,0,0-.81-.36c-.58-.12-1.18-.17-1.84-.26-.08.18-.33.91-.4.89-1.1-.24-1.28,1.2-2.37,1.18,1.61-.29.95,1.11,1.3,1.66.23.35-.41,1.27-.65,1.92.68,0,1-.34,1-1.2s.11-1.65.18-2.62c1.52,1,.64-.7,1.25-.59a13.81,13.81,0,0,1,1.82,0,7.9,7.9,0,0,1,1.69.71,18.77,18.77,0,0,0-2.33.94,11.39,11.39,0,0,0-1.55,1.24c-.13.1-.37.24-.35.31.26,1-.44,1.24-1.19,1.48-.18,0-.31.32-.42.52a8.67,8.67,0,0,1-.9,1.71,18.15,18.15,0,0,1-1.93,1.73l.32,1.12-.22.08-.48-.63c-.27.62-.51,1.17-.69,1.6a4.86,4.86,0,0,0-1.59.75c-.46.47-.72,1.11-1.54,1.05-.08,0-.18.32-.3.53l1.43-.36.18.3-.86.81c.3.76.14,1.33-.42,1.59-.28-.73-.56-1.48-.9-2.36,0,0,.09-.13.23-.33-.81-.11-1.1-.93-2.06-.89-1.23,0-1.53-.15-2.08.34,3.84,1,3.84,1,3.07,4.23-.89-.31-1.07-1-.79-2-.42.27-.66.53-.91.54a5.22,5.22,0,0,1-1.23-.18c.07-.26.15-.51.2-.77s.11-.55.18-.93l-.63.52c-.53-.64-1.08-1-1.77-.24-.42.44-.85.88-1.3,1.3s-.62,1.08-1.4.6c-.09-.05-.35.2-.37.21l1.93,1.39-2.33-.52a10.35,10.35,0,0,1,.53,2.77,6.24,6.24,0,0,1-1.07,2l-.8-1.26c1.41-1.46,1.41-1.46.76-2.58-1.19.23-.33,1-.37,1.65l-.85-.27c0,1.44-.18,1.58-1.76,1.13.53,1.64.19,2.88-1.76,3.56a1.66,1.66,0,0,1-1-.17,2.93,2.93,0,0,1-.68-.55l-1,1.22a6.79,6.79,0,0,0-1.38-.35c-1.22-.08-2.43.33-3.7-.21-.86-.37-1.21-.48-1.09-1.52a3.59,3.59,0,0,0-.13-1l-.58,1.1a9.41,9.41,0,0,1-.79-.71,1.38,1.38,0,0,1-.2-.5c-.16-.64-.3-1.28-.47-1.92s-.31-1.18-.5-1.76c-.15-.42-.37-.82-.62-1.37.82-.26.37-1.22.52-2s.11-1.15-.83-.85c-.15,0-.58-.39-.66-.66s-.22-1,.48-.79c0,.35-.06.64-.09.94l1,.1c.05-1.1.11-2.06.13-3a1.32,1.32,0,0,1,1.42-1.42,21.89,21.89,0,0,0,8.72-1.82l-.54-.34c.47-.33.79-.67,1.47-.2a1.67,1.67,0,0,0,2.48-.58c.15.11.29.21.22.15l2.11-1.31,3.21-2h0c.3-.72.61-1.44.84-2,.63-.07,1.27,0,1.67-.22a19.42,19.42,0,0,0,2.19-1.92c-.6-1-.07-2.08,1.59-2.83-.25.61-.47,1.13-.74,1.77l.85-.56c-.09.4-.15.7-.21,1l.31.11,1.35-2.44-.57-.21c.24-1.17.47-2.33.71-3.51-.76.28-.17-.68-.52-.92l1.35-1.2.18.16-.41,1c.83-.67,1.7-1.09,2.1-1.78a7.74,7.74,0,0,0,.44-2.63l-1.18,1c-.82-.62-.89-1.12-.24-2.09v1l1.53-.71c0-1,0-2,0-3-.05-1.33-.13-2.65-.23-4a1,1,0,0,0-.27-.59c-.48-.51-1.05-.94-1.47-1.48s-.82-.49-1.15.09c-.39-.1-.64-.86-1.22-.28a1.52,1.52,0,0,1-.58-.42,13.53,13.53,0,0,1-.7-1.19h1c.1.47.18.86.27,1.3,1.05-.62,1.16-1.41.45-2.42-.85.62-1.26-.25-1.77-.51l-1,.87-.18-.21c.47-1.34.36-1.54-1-1.7h-.1v0l-.86-.19-2.8-.43c-.28-1.64-.28-1.63-2.08-.81a13,13,0,0,1-1.38.49,3.74,3.74,0,0,0,0-.88.63.63,0,0,0-.54-.12,12.66,12.66,0,0,0-1.25.88c-.15-.39-.35-1-.57-1.55-.47.61-.94.77-1.57.13-.2-.2-.75-.08-1.14-.07a5.36,5.36,0,0,1-1,.12,24.56,24.56,0,0,0-10,1.08c-.16,0-.27.28-.51.55a3.54,3.54,0,0,1,.56,0c.29.1.58.22.87.34a3.13,3.13,0,0,1-.4.82c-.4.42-.86.78-1.31,1.18L207.1,96c-.12.37-.28.59-.24.77.21,1-.43,1.43-1.2,1.55a1.22,1.22,0,0,0-1.15,1.62,2.42,2.42,0,0,1,.86,1c.09.26-.12.62-.2.94l-.23-.08-.12-.37L202,104c.75.74.75.9.06,1.72a2.2,2.2,0,0,0-.25,2.61l1.25-3.4,1.25.24c-.14-.23-.22-.36-.29-.5s-.17-.39-.26-.59c.24,0,.49.07.72.13a3,3,0,0,1,.41.18c-.06,1.06-.11,2.12-.17,3.23l-.61-.56-.2.15.67,1.15a6,6,0,0,0,.72-1.26c.11-.39-.13-.91.05-1.23.57-1.06,1.3-2,2.69-2,.07,0,.14-.1.3-.22l-1.09-.16a9.53,9.53,0,0,1,1-.86c.57-.38.59-.7,0-1a13.25,13.25,0,0,0,.49-1.27c.17-.6.3-1.09,1.12-1.11.5,0,1-.39,1.47-.53a10.37,10.37,0,0,1,1.36-.2l.05.25-.86.55,1.23-.19.15.38-1.63.85,1.54.47c-.68.14-1.08.21-1.48.31s-.74.25-1.11.37l.09.25,1.64-.11.06.29a3.33,3.33,0,0,0-1,.45c-.28.29-.37.77-.62,1.1-.11.15-.41.16-.62.24l-.76.32c.57,1-.43,3.71-1.62,4.57a3.51,3.51,0,0,1,.37-3.83l-2,.48c1.6,1.9-.16,3-.83,4.35l.71-.12h0l-1.68.55-.1-.22.35-.4-.86-.42c-.33.54-.65,1-1,1.65.85.53,1.48.11,2.14-.41,0,.28-.08.53-.11.79,1.17,0,1.45-.39,1.25-1.52.52-.26.79-.11.68.48-.17.89-.39,1.78-.58,2.64l-2.72-.47c0,.12-.07.24-.1.37l1.17.42-.29.22-.18.21h1.21l0,.25-3.55,1.11c-.06.48-.16,1.17-.24,1.79l1.2.28c-.57.62-1,1.08-1.62,1.75.51-.05.81,0,.91-.11.34-.39.58-.86.91-1.26a.86.86,0,0,1,.65-.27.76.76,0,0,1,.51.49,15.52,15.52,0,0,1,0,1.82c-.51,0-1.39-.7-1.52.6h.72a2.62,2.62,0,0,1,0,.28,6.1,6.1,0,0,0-1.13,0,6.57,6.57,0,0,0-1.11.37l0,0v.07a4.6,4.6,0,0,0-.52.56c-.3.41-.49,1-.87,1.22a4.34,4.34,0,0,1-1.45.39l.52.57,1.94-1v0h0c0,1.22,1.19,0,1.47.74-1.19.31-.3,1.21-.44,1.9-.23,0-.55,0-.59,0a13.91,13.91,0,0,1-.55-1.39c-.43.27-.8.52-1.18.77l.13.19.69-.33.19.33-1.16.73c-.15-.6-.26-1-.31-1.2a7.63,7.63,0,0,0-1.17.07,1.08,1.08,0,0,0-.63.39,7.62,7.62,0,0,0-.5,1.2l1.18.19-.48,1.16.36.15.5-1.17.3.15-1.11,2.32.34.48h-.29c-.09.39-.16.79-.29,1.18a1.28,1.28,0,0,1-.37.63.71.71,0,0,1-.62-.14,3.57,3.57,0,0,1-.47-.72l-2.1,1c-.16-1.08-.82-1.39-1.62-.95l.35.31-1.67.87L190,131c-.31.51-.49,1.09-.71,1.11-.67.05-.79,1.2-1.63.75,0,.22-.19.51-.1.63a3.28,3.28,0,0,0,.71.55c-.05.1-.11.21-.16.32l-1.82-.82-.35,1.74.76.34a2.17,2.17,0,0,1,0,.26l-2.13.66a2.12,2.12,0,0,1-.11-.21l.46-.52c-1.58-.33-1.47-1.65-1.68-2.81l-.68.29c0-.29,0-.56.08-.64.93-.75.82-1.78.81-2.79a11.84,11.84,0,0,0,0-1.46,5.38,5.38,0,0,0-.4-1.13c.76-.39.6-1.32.49-2.56l-1.11,1c0-.08,0-.29-.05-.44l-1.89.47v-1.31l-.27,0c-.17.72-.35,1.44-.57,2.34.8-.8.8-.8,1.2-.22-.42.32-.82.65-1.26.94-.22.14-.64.33-.72.25a6.28,6.28,0,0,1-.79-1.1l.73-.48.38-.28-.53-.35c.23-.49.74-1.07.62-1.44-.21-.64.09-1,.35-1.37.13-.22.21-.48.32-.71l.58-1.1.25.14v.73c.51.27.89-1.08,1.33,0l.91-.34.21.27-1.17,1.74.28.33a5.61,5.61,0,0,0,1.45-.79,4.13,4.13,0,0,0,.65-1.35c.07-.15.2-.34.15-.45a1.22,1.22,0,0,1,.55-1.62c.21-.15.18-.63.26-.95.63-.78,3.08-9.37,2.73-10.44.31-.28.76-.49.88-.82.36-1,.59-2,.85-3l-.94-.77,1.15-1.33c-.53-.84,0-4.44.69-5.22l-.52-1.34c-.36.9-.65,1.66-1,2.55L188,96.2c-.05.18-.16.5-.26.82l-.25,0c0-.36,0-.73-.07-1.1l-1.27.43c.77-1.18,2.21-1.67,1.79-3.15l-.59.1a13.38,13.38,0,0,0,0-1.8c0-.24-.37-.44-.6-.63s-.28-.1-.41-.17c-.89-.42-1.75-.87-2.65-1.24a.81.81,0,0,0-.77.2,5,5,0,0,1-1.94,2.77c-.07,0,0,.19-.09.27a.91.91,0,0,1-.17.17l-.63-.61-.26.07v1.51c-.34.3-.8.54-1,.91-.45,1-.77,2-1.14,2.94-.73,1.93-1.45,3.85-2.17,5.78a23.19,23.19,0,0,1-1,2.75c-.95,1.83-2,3.6-3,5.4-.14.26-.17.57-.29.84-.25.49-.35,1.19-1.13,1,0,.48.17,1.07,0,1.43a19.33,19.33,0,0,1-1.82,2.34c-.06.08-.3.09-.42,0-.31-.1-.6-.26-.9-.39l-.05.14.78.73-1.42.07v.18l1.16.35c-.63.27-1.12.45-1.57.69-.81.44-2,.2-2.43,1.35-.06.16-.46.19-.7.28-.29-.57.59-1.37-.36-1.46a27,27,0,0,0,1.42-2.6c.76-1.83.88-3.86,1.87-5.65a21.43,21.43,0,0,0,1.48-4.21c.18-.57,0-1.29.3-1.79s.88-.77.49-1.46c0,0,.13-.15.17-.23l.53-1.26-.23-.18-1.49.55-.05-.16.68-.38-.23-.28-.79.06c-.08,2.33-.13,2.58-.39,2.77l.23,2-.71-.64-.24.09c.07.6.15,1.2.2,1.62-.26.61-.47,1.09-.79,1.81l-.93-1.48-.51,1.93.59.19c-.22.32-.63.64-.59.9.13.94-.34.62-.81.51-.66-.17-1.32-.29-1.92-.42.28.51.49.91.71,1.32.53-1,1.33,0,2-.27l-.66,1,.24.17.79-.58c-.06.5-.11.84-.16,1.26l-.56-.29c-.74,1.19-1.43,2.31-2.15,3.49l1-.24c-.12.65-.19,1.23-.34,1.8a1.49,1.49,0,0,1-1.1,1.22,5.87,5.87,0,0,1,.23-.82,10,10,0,0,1,.56-.93l-.2-.08-2.69,1.84-.24-.22c.13-1,.74-2.09-.22-3a.36.36,0,0,1,0-.29,7.39,7.39,0,0,1,.46-1.78,5.36,5.36,0,0,1,1.05-1.17c-1.09-.4-1.13-.64-.18-1.68a6,6,0,0,0,.56-.9l-.44,0a15.42,15.42,0,0,0,.9-1.7c.34-1,.58-2,.81-2.75a5,5,0,0,0,1.56.52c.48,0,1.21-.3,1.36-.66a34,34,0,0,0,1.1-3.68l-.83-.76.21-1.23.22,0,.21,1.19c.81-1,.77-2.49,2.37-2.63-.18-.36-.3-.6-.43-.84.57,0,1.37-.25,1.05.88a.32.32,0,0,0,.11.24c.67.44.47.78-.07,1.17-.15.12-.16.44-.23.66.78.31,1.12.08,1.31-.61.28-1,.62-2,1-3,.09-.27.44-.57.37-.75a2.12,2.12,0,0,1,.87-2.71,6.31,6.31,0,0,0-.29-1,3.54,3.54,0,0,0-.38-.59L171.57,90l-.31,0a3,3,0,0,1-.31-.83c0-.66.64-1,.76-1.52a11,11,0,0,0,.07-2.81h-.25c-.06.31-.12.62-.2,1l-1.21-.27.65-.39-.46-.36h0c.49-.47,1.29-.88,1.4-1.43a15.17,15.17,0,0,0,0-3.37c0-.07-.16-.14-.18-.15l-.55,1,.19,0c.09.55.18,1.1.28,1.67-1.22.26-1.43-.64-1.29-1.13.31-1.06.17-1.79-.93-2.28l.16-.2,1.93.42v-1.8l-.26,0c-.13.38-.27.76-.44,1.21L169.2,77a.43.43,0,0,0,0,0h0l0,0a2.65,2.65,0,0,0-.68-.54c-.64-.26-1.1-.57-.86-1.37.11-.39.32-.86.19-1.16a10.22,10.22,0,0,0-1.09-1.62c-.54.36.34,1.46-1,1.27a4.26,4.26,0,0,1,.11-1.3c.15-.35.56-.58.91-.92h-1.47l.65-1.53-.7-.19,1.18-.45a14.38,14.38,0,0,0-1.26-.86c-1.41-.73-2.84-1.41-4.24-2.15-1-.51-1.63-.33-2,.68-.46-.55-.82-1.22-1.76-.88a3,3,0,0,1-1.52.11c-1.59-.32-1.59-.35-2.62,1.1l1.63,1.08c.48-.76,1.4-1.07,1.69-.54.53,1,1.29.66,2.09.58,0-.31.08-.59.14-1.08.62.18,1.41.17,1.66.54.54.75.94.71,1.63.29.21-.13.64.1,1,.17a7.94,7.94,0,0,1-.38.89,2.06,2.06,0,0,1-.46.42c-.85-.37-1.67-.94-2.69-.5l1.33.52v.34l-1.08.24c-.06-.78-1.11-.51-1.18-1.22-1.18.94-2.2-.17-3-.06-.3.25-.54.56-.66.52s-.45-.36-.82-.68l-1,.87.14.26,2,.16c0,.25-.05.58-.09.91a3.85,3.85,0,0,0-.69-.31,2.09,2.09,0,0,0-.66,0l-1.12.16c.5-.81.58-1.36-.54-1.36l1.47-1.15-.22-.33L151,68c.84-1,.15-1.61-.48-2a1.25,1.25,0,0,0-2,.57c-1.87-1-3.68-1.94-5.79-.68l1.27.17,0,.21-1.88.47a3.44,3.44,0,0,1-2.52,2c-.13.67-.23,1.16-.33,1.67l.93.33c-2.63.29-2.63.29-2.41,3.44h.87a.88.88,0,0,0,0,.16l-1.35.66c1.07,0,2,0,2.84,0a1.24,1.24,0,0,1,1.43,1.2c0,.1.15.17.23.26l1.31-1.75c.6,1.14-.69,1.26-.85,2l1-.13-.38.72,1.24.08-1.34,3,.83.06-.2.54,1.58-.16.1.21-.66.3.16.17,1.24.11c-.62.37-1.23.8-1.82.09,0,0-.43.19-.63.34s-.09.25-.17.36-.32.41-.49.61l.16.15-.42,0v.11l1,.21a1.2,1.2,0,0,1-.1.25c0,.05-.12.13-.16.11-1-.38-1.3.09-1.15,1a.75.75,0,0,1-.08.38c-.61,1.45-1.23,2.89-1.81,4.36a1.67,1.67,0,0,0,0,.74c-.39.62-.71,1.1-1,1.61s-.4.87-.59,1.32c-.44,1.06-.9,2.11-1.3,3.18-.18.45-.18,1-.38,1.4-.1.21-.63.26-.69.46a6.62,6.62,0,0,0-.16,1.36,4.79,4.79,0,0,0-.81.84c-.37.61-.67,1.26-1,1.94l.42.44-.94,0c-.08.47-.17,1-.26,1.56l-.17,0v-.84c-.52.84-1.08,1.61-1.49,2.45s-1.3,1.48-1,2.58c-1.16,0-1.13,1.14-1.61,1.79s-1.13,1.41-.14,2.31c-1.2,0-2.07.53-1.83,1,.38.79-.23.73-.56,1s-.9.84-.82,1c.46.94-.18,1-.77,1.09l.41.52-1,.26c.48.88-.59.53-.85.9l.27.13-1.69,3.54-.76-.56a3.66,3.66,0,0,0-.6,1.07,3.05,3.05,0,0,0,.16,1c-.36.06-.81,0-.89.16a3.14,3.14,0,0,0-.14,1.13l-1.27.87,1.37.1,2.77-3.34c1.08.1,1.19,0,1-.86l1.1-.4-1.72-.11,0-.21.8-.43-.11-.15.85-.22,1.16.4.74.23.47-.27c.11-.12.21-.29.35-.35.88-.35,2-.42,2.16-1.67,0-.07.17-.1.24-.16a8.15,8.15,0,0,0,.86-.91,9.21,9.21,0,0,0,.57-1.08l-.32-.12c.18-.43.36-.84.44-1a11,11,0,0,0,1.2-.48,7.48,7.48,0,0,0,.87-.73c.08.09.16.19.25.28.14-1.4.83-2.06,2.31-1.65-.08.36-.17.79-.26,1.21l1.62,1.79c.58-1,1-1.77,1.43-2.48a2.43,2.43,0,0,1,.65-.53c.08.22.16.43.25.65s.22.5.38.87l-1.74.94.89.35-1.76,2.68-.28-.15c.14-.41.27-.82.47-1.41-.61.42-1.55-.28-1.69.88,0,0,.07.09.12.13l.75-.43c0,.8-.07,1.44-.11,2.08h-.35l-.1-.47-1.4,1.37-.32-.21c.29-.73.58-1.45.86-2.17a34.35,34.35,0,0,0-2.17,2.68,11.1,11.1,0,0,1-1,1l-.2.18.62.54c-.63.67-1.2,1.28-1.86,2l1,.23c-.16.3-.29.52-.43.77l-1.11-.49-2.05,2.19.45.2-1.25.89c.46,0,.69.07.81,0q2.45-1.86,4.87-3.74l-.36-.25c.12-.55.24-1.1.38-1.72h1.32a2.87,2.87,0,0,1-.24,1.07c-.57.76-1.24,1.44-1.83,2.19-.14.16-.09.47-.16.92a19,19,0,0,0,2.1-1.82c.78-.9,1.45-1.91,2.17-2.88a9,9,0,0,0,.76-1q1.47-2.61,2.87-5.26a6.34,6.34,0,0,0,.33-1.35c.1-.06.5-.13.63-.37.65-1.12,1.24-2.28,1.84-3.42.1-.18.15-.42.3-.52.63-.43.95-.94.68-1.36.33-.55.52-.89.73-1.23.09-.16.21-.3.31-.46l1.26-2-.15-.11-.59.37c.66-1,1.45-2.09,2.06-3.25s1-2.37,1.53-3.6h-1.28l-.19-.23a3.55,3.55,0,0,0,3-2.87l-2.39-.39c.37.91-.28.93-.72,1l1.11.83c-1.36.24-2.4,0-3.15.86s-.67.94-.38,1.51l1-.78-.65-.29c.23-.16.42-.21.48-.33.28-.57.77-.74,1.16-.31a1.6,1.6,0,0,1,.18,1.27,11.7,11.7,0,0,1-.77,2,8.57,8.57,0,0,0-.7,1.29c-.16.68-.9,1.33-.21,2.16l-1.09.77.66.75-1.67,1.09,1,.15a1.77,1.77,0,0,1-1,.25,2.9,2.9,0,0,0-.54.19c.38.93-.53.6-.84.86a2.77,2.77,0,0,0-.1-.26l-.37-.62,1.4-1-.06-.22-2.46.77c-.34-.74.37-1,1.1-1.47-1,.1-1.61.48-1.72,1.16a2,2,0,0,1-1.82,1.84l-1-2.42c-.91-.18-1.16-.73-.84-1.62l2.06-.52c0,.31.06.59.1.9l-1.11.12c.27.43.46.75.61,1,1.27-.35,2-1.06,1.75-2.42l-.55,0c.21-.38.37-.69.51-1l-.51-1h1.34c0-.14,0-.27,0-.41l-2,.09a1.92,1.92,0,0,1,2.72-1.06,3.57,3.57,0,0,0,.74.1l-.31-.42c.48-.9.91-1.71,1.35-2.51.06-.09.17-.21.27-.22,1.1-.14.26-.61.17-.8l.85-.78-.18-.2a2.3,2.3,0,0,1-.33.21c-.84.35-1.78.49-2.28,1.47a1,1,0,0,1-1.55,0c-.14-.21-.67-.16-1-.24,0,.07,0,.13,0,.19l.57.43h-1.57a1.89,1.89,0,0,1,1.43-1.11,2.66,2.66,0,0,0,2.2-1.41c.41-.83.17-1.59.47-2.32l1-.32c0-.14,0-.26-.08-.32s-.25-.18-.21-.15c.65-1,1.29-2,1.89-3l1.34,1.52a1.41,1.41,0,0,0,1-1.71c0-.16.13-.34.2-.51h0l1-1.58-.62-.55-1.12.43-.18-.29c.7-.83,2.29-.77,2.37-2.21l-.57-.44-1.05.59-.89-1.2a10.25,10.25,0,0,0,1.3.22c.82,0,1.06-.55.5-1.32l-1.17.77c.35-1.06,0-2.52,1.62-2.61,0-.35-.07-.63-.11-.93l1.35-.28c-.18.46-.31.78-.43,1.1a5,5,0,0,0,1.11.28,9.7,9.7,0,0,0,1.42-.14c-.06.4-.1.63-.19,1.14.37-.43.56-.64.79-.92-.05.89,1.29,1.68.2,2.52-.11.52-.22,1-.27,1.26V86h-1.69c0,.11,0,.22,0,.34.9-.44,1.37,0,1.62.71l-1.11.83c.09.47.36,1.09.2,1.25-.79.76.09,1,.31,1.27l-.22,2-1.45.89.86,1.44c.67,0,.71-.62.88-1.12.05-.16-.15-.41-.17-.48.4-.75.88-1.48,1.21-2.28.44-1.08.71-2.22,1.15-3.3a15.17,15.17,0,0,0,1.38-5.9,11.27,11.27,0,0,1,.51-3.14c.36-1.21,1.35-1.4,2.23-.5a3.2,3.2,0,0,1,.43.87c.6-1.71.91-2.43,1.77-1.76L159,78l1,.76c-.14.3-.29.61-.47,1h.77c-.06.57-.77,1.17.07,1.58l1.48-.7c-.35,1.27-.93,1.36-1.71.92l-.45-.22c-.53-.23-.89-.06-.85.53a2.51,2.51,0,0,0,.42,1.52c.25.23,1,0,1.46-.08.29,0,.58,0,.88,0-.12.31-.15.78-.36.88a3.57,3.57,0,0,1-1.15.23c-.31,1.47-.63,2.86-.89,4.25a5.23,5.23,0,0,0,.07,1.18,9,9,0,0,1,0,1.37c-.13,1-.31,2-.48,3a2.09,2.09,0,0,1-.14.56,15,15,0,0,0-.89,1.85c-1,3.41-2,6.85-3,10.13l.69.47c.1-.64.21-1.36,1.17-1.27.44,1.72-.1,2.2-2.29,2l-2,4.7c.23.13.48.27.75.44l-.85.91h0c-.14.13-.36.24-.41.39-.43,1.37-.82,2.76-1.22,4.13-.26.86-.53,1.71-.8,2.6a.68.68,0,0,1,.24,1.1,3.11,3.11,0,0,0-.59,2.66l1.18.26c-.24.42-.43.75-.61,1.08l-.23-.13c0-.19-.07-.38-.1-.57h-.25c-.06.39-.13.77-.2,1.23l1.13-.23.07.16-.9.81c.33.13.71.39.82.3a1.88,1.88,0,0,0,.79-1,14.89,14.89,0,0,0-.17-1.73,10.88,10.88,0,0,1,.27-1.68l.32.06c.07.31.14.61.2.94l.73,0,.08.24c-.27.16-.54.31-.86.51l.66.29-.31,0a11,11,0,0,0-.33,1.77c0,1.37-.35,1.66-1.67,1.2-.23-.08-.45-.2-.67-.3l-.15.2a2.48,2.48,0,0,0,.49.38,4.06,4.06,0,0,0,.78.2c-1,.07-1.05.63-.93,1.12a4.47,4.47,0,0,1,1.68-.12c1.06.34.48,1.37.62,2.11h2.38c0,.11,0,.21,0,.32l-3,.55c-.68-.42.74-2.12-1.12-1.86l-.47.65.23,0c0,.77.08,1.55.12,2.4,1.09.11,2-1.18,3.1-.35l-1.08,1.17c0,.77.06,1.28.08,1.63a8.2,8.2,0,0,0,1.67-1.14c.5-.56.86-1.21,2.05-.94l-.81-.47,1.63-2,.36.63a1.88,1.88,0,0,0-.88,2,1,1,0,0,0,1.45.25c.35-.31.76-.56,1.14-.84l.26.23c-.09.36-.06.88-.29,1.06a.81.81,0,0,0-.07,1.28c.62.77.22,1.11-.4,1.54a1.31,1.31,0,0,0-.4.92c0,.19.35.42.58.55a5.58,5.58,0,0,0,.92.33c.36-.22.79-.18,1.1-.36s.91-.51.34-.87a14.37,14.37,0,0,0,.57-1.41c0-.08-.29-.39-.36-.37a3.71,3.71,0,0,0-.69.45c0-.31.12-.72.32-.77,1-.25,1-.68.42-1.18l.49-2c.19.28.27.41.32.47l1.17-.89c.52.74.85,0,1.26-.16.13-.29.26-.59.4-.93,0-.53-.07-1.11-.1-1.68-.46.49-1,1.29-1.17,1.22-1.13-.36-.84-1.49-1.06-2.51,1.18.33.57-1.64,1.95-1.3v1.92c.48-1.4.45-2.93,1.26-3.88-.35-.69-.59-1.15-.83-1.61l1.14-.55c.05.1.09.2.13.29l-.81.6c1.25.62,1.22.59,2.16-.37a2,2,0,0,1,1.29-.68,6.68,6.68,0,0,1,1.85.61l2.39-3.15a.92.92,0,0,1,.61,1.43,6.58,6.58,0,0,0-1.41.3c-.11.05,0,.57,0,1-.35.08-.93.18-.43.88-.35.21-.73.63-1,.58A6.41,6.41,0,0,1,169,124L166.52,126c0,.35,0,.78.07,1.33l1.06-1.46c.29,1.68-1.72,1.73-1.53,3.15.92-1.68,2.8-1.9,4-2.91,0,.75.07,1.49.1,2.23l-1-.25c-.09.43-.16.77-.21,1,.36,0,.66-.06,1-.11s.81-.07.4-.62l1.42-.7a3.45,3.45,0,0,1-1.54,2.66c-.83.6-.63,1,.06,1.5l-.56,1,1.16.75-.29.05c0,1.19-.07,2.39-.1,3.58s-.05,2.47,0,3.7c0,.25.27.5.46.84-.08.32-.23.86-.37,1.4l.32.1c.64-1.1,1.28-2.19,1.8-3.1-.21-.33-.53-.6-.56-.9a21.11,21.11,0,0,1-.07-2.64c0-1.11.09-2.22.15-3.33s.15-2.51.23-3.84c.61.09,1.16.35,1.51.18s.48-.77.71-1.18l.16.06c0,.36-.08.71-.13,1.2l1.92-.72-1-.32c.53-.45-.08-1.43,1-1.53,0,.3.08.56.15,1l.61-1.21a8.82,8.82,0,0,0,.86.75c.68.44.44.9,0,1.3s-.7.6-1,.56a2.19,2.19,0,0,0-1.83.62c-.66.49-.48.63-.22,1.18.46,1,1,2,.47,3.09-.2.41-.68.68-.88.87-.58-.3-1.25-.82-1.4-.7-.6.49-.58,1.23-.29,2.07a1.23,1.23,0,0,1,2,.26l.94-1.19.76.4c0-.19,0-.38-.05-.57s0-.48,0-.72a6.23,6.23,0,0,1,.72.39,6,6,0,0,1,.54.48l-1.14.92.41.35H175.9l-.06.17,3.3,1.64c-.08.62,0,1.5-1.26,1.6.06-.57.11-1.06.16-1.63l-1.64.54-.08-.19,1-.92-1.81-.13-.53-.63c.15.84.28,1.58-.73,2l.28.22.94-.81c.49.64,1.08,1.19,2.07.81a3.45,3.45,0,0,1-1.16.56c-.29.1-.72.18-.79.37a.93.93,0,0,0,.23.88,19.29,19.29,0,0,0,2.11,1l.06-.14-1.11-.74.12-.22,2.17.86-.77,2.09c.86.41,1.12.15,1.19-.56A2.84,2.84,0,0,1,180,143a2.8,2.8,0,0,1,.33,1,12.84,12.84,0,0,1-.32,1.75l-1.25.65.12.24,2,.62a4.83,4.83,0,0,1,3.76-.48c.12.06.27.15.3.25.23.72.76.71,1.35.62s1,.2,1.39-.58c.19-.43,1-.89,1.84.07l-.4-1.51.22-.13.84,1.35,1.08-.54a6,6,0,0,1-.48-1.19c0-.1.35-.29.55-.43l.14.21c-.13.17-.25.35-.41.58l4.07-1.39c-.55-.63-1-1.19-1.52-1.76-.34,1.76-1.18,2.25-3,2a4.12,4.12,0,0,0-1.55.29c-.43.11-.84.27-1.25.41a7.26,7.26,0,0,1-.1-1.22,1,1,0,0,1,.4-.6c.41-.32.85-.58,1.32-.89-.78-.28-1.41,1-2.16.18-.11,1.46-.76,2.08-2.64,2.59a1.09,1.09,0,0,1-1.47-.65,3.48,3.48,0,0,0,2.63-.62l-2-2,.48-1.12-1.26-.41c.22-.51.35-.83.57-1.36.65,1.11,1.76.56,2.77.72a2,2,0,0,0,2.07-.86,3.51,3.51,0,0,1,2.56-1.46,1.13,1.13,0,0,0,.7-.41c.75-1.28,1.4-2.62,2.82-3.33.08,0,.1-.21.18-.4L193,133a1.53,1.53,0,0,1,2.17-.28,3.5,3.5,0,0,0,1,.23l.29-.53-.86-.13,1.91-1.46c-.06.77-.35,1.57-.09,1.87a2.06,2.06,0,0,1,.35,1.68c0,.19-.31.42-.52.54a3.38,3.38,0,0,1-.91.2l.84.87c.53-.32.93-1,1.52-.25-.48.43-1.24.77-1.34,1.25a1.8,1.8,0,0,1-1.61,1.62l2,.47c-.42.83-.88,1.72-1.34,2.61l.91.12,1.22.19-.33.79.29.14.75-1.52c.26.36.45.61.62.83,1.11.08,1.69-.55,1.92-1.69.13.61.21,1,.27,1.29-.17.28-.54.7-.47.79.49.63-.19.76-.4,1.07,0-.36.06-.72.09-1.12a5,5,0,0,0-.91.13,6,6,0,0,0-.74.41l.8.47-1.86,1.13a9.29,9.29,0,0,1,1.91-.26,4.77,4.77,0,0,1,1.57.49c.84.4,1.27.29,1.35-.75,0-.72.37-.84.9-.55-.21.22-.64.52-.59.67.24.81-.25,1.11-.81,1.37s-1,.08-1.41-.43c-.18-.21-.84-.06-1.27,0-.09,0-.23.52-.18.56.3.23.89.59,1,.52.59-.63,1,0,1.45.15a3.56,3.56,0,0,1,.65.47c-.25.19-.47.49-.74.53a4.39,4.39,0,0,1-1.28-.34c.39.53.58,1.08.89,1.16.9.22,1,.92,1.19,1.6s.3,1.09.45,1.63l.29,0a8.17,8.17,0,0,1,.2-1.22,2.21,2.21,0,0,1,.54-1.08,1.58,1.58,0,0,0,.54-2.18l.82-.16c0,.27.07.54.09.81s.06.76.08,1l-.71.63,1,.43.54.85a5.92,5.92,0,0,0,.58-.92,5.78,5.78,0,0,0,.19-1.13c.44.39.85.6,1,.92.5,1.15-1.18.68-1.21,1.62,1.26.24,1,1.51,1.54,2.55.26-.51.43-.82.52-1l-.87-1.38,3.62-.79c-.21.32-.33.46-.42.63-.18.36-.35.73-.52,1.1.46,0,.91.08,1.37.09a6.09,6.09,0,0,0,.73-.1l.06.23-.45.39c.83.24,1.65.51,2.49.69a1.4,1.4,0,0,0,1-.11,7.57,7.57,0,0,0,1.21-1.08l.72.31c.12-.28.21-.73.34-.75.92-.1.36.73.62,1.13,1.08-.32.5-1.24.77-2.21l1.27,1.61,2.15.93a2.48,2.48,0,0,1-2,1.39c-.77-.13-1,.26-1.3,1,.63-.24,1.08-.42,1.54-.57s.89-.24,1.33-.35a2.68,2.68,0,0,1,.07.27l-3.48,2.53c0-.22-.1-.51-.17-.84l-.84.32c.17.23.29.4.42.56a2.15,2.15,0,0,1-.54.14c-1.11,0-2.21,0-3.31,0a5.35,5.35,0,0,0-1.31.57l-1.44-.82c0,.07-.07.15-.11.22l.39.24c-.67.53-2.05-.24-2.19,1.43h1.35c1.45,0,2.89,0,4.34,0,1,0,2-.1,3-.2.15,0,.25-.3.4-.43.43-.35.87-.68,1.31-1l.14.18-.71,1,.19.31,2.54-1-.75-1.29a2,2,0,0,1,.36-1.22,1.06,1.06,0,0,1,.33.09,5.66,5.66,0,0,1-.12.68l1.14,1.06c-.23-2.06,1.82-1.82,2.71-2.8-1.52.44-1.52.44-1.73,0,1.2-.77,2.68-1,3.74-2l-.12-.23-.84.21c.93-1.11,2.82-2,3.59-1.79l1.08-1c-.1-.82-.18-1.54-.27-2.26l-.18-.06c-.14.54-.29,1.08-.48,1.75-.19-.56-.33-1-.45-1.31a8.43,8.43,0,0,1,.8-.56,1.24,1.24,0,0,1,.67-.2c.94.15,1.84.36,2.41-.75.12-.24.57-.31.91-.48-.07-.61-.15-1.26-.23-1.92a1.7,1.7,0,0,0,2-1.22c.06-.29.34-.75.51-.75,1.49,0,2.32-1,3.24-1.89a2.54,2.54,0,0,0,.36-.76c.14-.3.28-.61.51-1.08,0-.15-.11-.53-.23-1.08l.81.52,1-1.2a8.91,8.91,0,0,1-1,0c-.2,0-.49-.12-.55-.26a.6.6,0,0,1,.22-.56.75.75,0,0,1,.65,0,5.79,5.79,0,0,1,.9.74l3.31-4-.15-.18-.73.23c.08-.34.31-.65.46-.61.93.21,1.12-.5,1.41-1.13l-1,.47c.36-1.21,1.48-1.18,2.17-1.69.68.74,1.35.62,1.68-.35l1,1c-.17.41-.24,1-.56,1.21s-.93.1-1.46.13l.55,1.07c.25-.85.78-.89,1.36-.57v4l.68-.12c-1.58.59.08,2.3-1.2,3.17,0-.58-.07-1-.09-1.44-1.1.67,0,1.57-.27,2.34-.08.25.32.67.49,1l-1.22,1.51.67.24c.25,1-.53,2.12.43,3h0a3.46,3.46,0,0,1-2.2,2.36h.84a4.83,4.83,0,0,1-.46,3.66l.89.56-1.51.55c-.23-.17-.5-.39-.88-.69l1.3-.92-2-.28c.08.46.28.9.16,1.22s-.57.43-.87.64l.15.25H248l.14.23-1.12.93c.79.56.85.74.58,1.66-.08.28-.33.59-.26.82a3.48,3.48,0,0,1-.77,3.33l.94.38-1.06.05c-.11-.36-.21-.66-.3-1a3.46,3.46,0,0,0-2.13,2.06c0,.36-.07.72-.12,1.24.21.09,1.13-.11.59.84l1-.15c-.19,1-.57,1.92.12,2.88a2.13,2.13,0,0,0,.3-.4,1.83,1.83,0,0,0,.14-.47c.25-1.43.24-1.43,1.66-.91.23.09.47.15.87.27l-1,1,.9.23-.66.42c.18.6.34,1.11.5,1.61l-.29.1-.5-1c-.68.32-1.07.65,0,1.09l-.48.2.37.49-1.36,1,1,.12-.76,1.11.39.24,1.21-1.93a2,2,0,0,1-.72,2.32l.43.24-2.08,1.92c.94.86,1.45-.09,1.92-.43l1,1.14,1.08-1.51-.61-.29c.13-.18.31-.52.38-.5.69.2.82-.39,1.07-.74.37-.51.66-1.09,1-1.71l.64,1.78,1.45-.66-1-1.56c.42-.39.86-.82,1.34-1.22s.75-.35.91.52L254,169c.26.3.41.45.54.62a4.8,4.8,0,0,1,.3.48c.15-.13.36-.24.45-.41a1.92,1.92,0,0,0,.22-.74c0-.36-.15-.76,0-1.06a17.49,17.49,0,0,1,.93-1.69c.07-.13.14-.39.09-.43-.56-.47,0-.94.1-1.28a28.42,28.42,0,0,1,1.38-3.17,5.87,5.87,0,0,1,.42-1c.78-1.13,1.62-2.21,2.38-3.36a14.23,14.23,0,0,1,1-1.86c.45-.49.44-.85.07-1.63a6.2,6.2,0,0,0,.89.42c.29.07.77.2.87.08a4.61,4.61,0,0,0,.59-1.27c.12-.32.07-.75.27-1a.9.9,0,0,0-.22-1.41c-.93-.35-.49-1.08-.54-1.73l1.52,1.63a14.91,14.91,0,0,0,4.49-3.43l4.37-3.24c-.05.39-.11.88-.19,1.45l1.94-.89c.06-.09.17-.3.29-.5.65.79.89.08,1.24-.25a2.9,2.9,0,0,0,1.22.13,11,11,0,0,1,1.86-.24c.34,0,.66.42,1,.65-.46.6,0,1.16.05,1.72,0,1.19.47,2.53-.7,3.52.93.44,1,2.22.16,3.5,1.27.31.37,1.35.61,2a1.57,1.57,0,0,1-1,2l-.82-1-1,2.53.32.27,1.35-1.24a1.51,1.51,0,0,1-.21,1.24c-.26.26-.78.28-1.45.49l2.15,1.24L278.8,162l1.05.32c-.5.4-1.11.67-1.29,1.1-.38.92-.95,1.38-2.48,1.23a2.91,2.91,0,0,0,.63.54,8.18,8.18,0,0,1,.63.68,3.69,3.69,0,0,1-.58.48c-.48.24-1,1.2-.76,1.68l1.08-1.38.35.23c-.51.87-1,1.73-1.54,2.61a22.24,22.24,0,0,0-1.12,2.17c-.1.23.07.58.11.87h.34c.15-.43.31-.87.38-1.08l1.35-.86-.45-.37c.54-1,1.07-1.94,1.7-3.09-.08,1.12-.14,2-.2,2.83v0l-.67,1.37-1.08.41.09.27.56.07c-.23.37-.41.69-.51.86l1.57.45-.45,1.06.73-.07c-.41,1.13-.77,2.14-1.14,3.15l.2.17,1.45-1.52a6.49,6.49,0,0,1-.25,2.69c-.2.48-.49.83-.33,1.41,0,.17-.38.51-.64.7s-.79.43-1.18.64l.06.26,1.13.18c.58-.66,1.1-1.25,1.66-1.87l-.68-.59,2.2-2.26c.54.47,1,.91,1.71,1.5.81-1.3,1.62-2.56,2.37-3.85.31-.53.81-1.51.66-1.65-.8-.71-.08-1.22,0-1.8l.26-.18.41.92.43,0,2-4.61c.26-.61.53-1.22.76-1.84a.67.67,0,0,0,0-.54c-.65-.87-.1-1.44.43-2.06.37-.43.68-.92,1-1.38l-.25-.15a3.64,3.64,0,0,1-.61.73c-.13.1-.42,0-.63,0a.41.41,0,0,1-.06-.35c.37-.56.77-1.1,1.19-1.69l-.74-.51c.59.5,1.39-1.28,1.86.3l.26-.1.46-2.47-.92-.87ZM204.93,104.4h0l.66.48Zm4.47,16.44,1,.17-1-.17Zm24.92-9h0c.07-.19.16-.38.24-.57C234.48,111.51,234.39,111.7,234.32,111.89Zm-7,4.9h0c0-.21,0-.51.13-.6C227.28,116.28,227.3,116.57,227.27,116.79Zm0,0a2.18,2.18,0,0,0-1.59.39,2.18,2.18,0,0,1,1.59-.39Zm7.1-4.85h0a.64.64,0,0,1,.41.54A.64.64,0,0,0,234.33,112Zm-16.58-11h0l-.44-.17Zm0,0h0l-.71,1.15Zm-7.58,10.78,1.06-.52-1.17-.55-.76-.34.13-.25a10.31,10.31,0,0,0,1.73.2c.21,0,.48-.33.6-.58.63-1.22,1.14-2.51,1.87-3.66a2.86,2.86,0,0,1,1.72-1.17,22,22,0,0,1,3.25,0c.79,0,1.58-.12,2.52-.2.27.61,1,.57,1.79.76a5.27,5.27,0,0,0,3.44.08c.2-.08.74-.27.82.47s.68.49,1,.16a6.73,6.73,0,0,0,.77-1c-.9-.41.06-.84.14-1.32l.27-.06c.07.28.28.65.17.84-.42.78-.07,1.15.69,1.48a6.38,6.38,0,0,0-3.39,1.53h1.84l-1.27,1.19c.26.09.65.1.74.27a1.1,1.1,0,0,1,0,.87,8.49,8.49,0,0,1-1.37,1.83c-.11-.4-.22-.8-.34-1.2l-.39.35.92,1.27-1.16.8.78-.1c-.44.83-3.34,2-4.07,1.49a2.68,2.68,0,0,1-.08,1c-.13.25-.44.42-.68.62l-.22-.14c.08-.23.17-.45.31-.85-4.15,2.1-8,4.65-12.88,4.62.49-2.58,1-5.16,1.46-7.74ZM147,88,146,87.74,147,88Zm14.4,15.27c0-.09-.05-.19-.08-.28,0,.09.06.19.08.28l.28-.11Zm-3.17,5.39a2.94,2.94,0,0,0-2.45,1.63h0A3,3,0,0,1,158.27,108.64Zm99.63,24.82c-.46,0-.88.32-1.2,0C257,133.78,257.44,133.51,257.9,133.46ZM286,153.31l-1.45-.51h0Zm-2.74-4.4h0v0Zm0,0h0l-.93-.2Zm4.06-6.83c-.17.22-.35.43-.51.65.16-.22.34-.43.51-.65l-.23-.08Z"/><path class="cls-2" d="M92.57,121.87l-.45-.29-.23-1.34-2.51,1.49c-.49-.35-.47-.67.07-1s1.31-.86,1.94-1.34a.9.9,0,0,0,.23-.6c0-.46,0-.92,0-1.55l-.39-.23.46-.42c-.42-.23-.81-.46-1.29-.74-.9-.27-.37,1.73-1.62,1.23l.22-1.24-.26-.13c-.48.7-1,1.39-1.43,2.09l.23.2-1.6.7.3-.61c-.82-.07-1.29,1.3-2.21.33l1.36-.7c0-.12-.07-.24-.1-.35l-1.64.29-.2-.67-1.07.62c-.1-.34-.21-.68-.34-1.13l-2.1.22c-.08.57,0,1-.19,1.12a9.32,9.32,0,0,1-1.31.92l-.08-.21.94-1.75c-1.84.09-3.57-.34-5,1l-.13-.29,1-.67c-.61-.09-1.45-1.38-1.5-1.9a5.83,5.83,0,0,0-.6-1.68c-.22-.49-.67-.93-.71-1.41a40.79,40.79,0,0,1-.14-4.42,1.14,1.14,0,0,1,.56-.87,6.72,6.72,0,0,0,2.73-2.5c.8-1.09,1.64-2.14,2.61-3.39l-1.06.15-.12-.24,2.64-1.73-2.48-.61c.64-.69,1-1.24,1.83-1a1.85,1.85,0,0,0,1.39-.33c.22-.17.12-.76.17-1.21,1.31.42.49-2,1.86-1.57v-2.6c-.28.36-.67.65-.66.9.06.79-.35,1-1.27,1.26.19-.55.32-.93.49-1.39l-1.27-.34c.71-.25,1.21-.44,1.72-.61a3.08,3.08,0,0,0,.63-.19c.52-.31,1-.67,1.52-1s1-.62.5-1.36a.72.72,0,0,1,.08-.63c.24-.33.64-.55.83-.89.64-1.17,1.22-2.37,1.9-3.69l-1.46.25c.2-.37.33-.75.42-.74,1,.11.69-1.31,1.58-1.26.46-1.41,1-2.79.68-4.28a2.52,2.52,0,0,0,.5-1.14,39.59,39.59,0,0,0,.69-5.17c0-3.23-.11-6.46-.19-9.69a1.33,1.33,0,0,0-.15-.55c-.14-.29-.3-.56-.5-.92-.51.16-1.41-.63-1.86.8-.34-1-.56-1.81-.85-2.57-.09-.26-.3-.63-.5-.66-.44-.06-1.11-.11-1.32.14-.57.68-.85.35-1.11,0L81.4,58c.13-.5.19-.75.26-1l-.75.21-2.41.68,0-.14.79-.56-.14-.26a15.61,15.61,0,0,0-3.16,1.6c-1,.79-1.38,1.1-2.4.6,0,.31-.05.62-.07.85h4.37v.13l-1.77.29.91.81-1.52,1.09.14,0-1.2,2.15c.91,0,1.08-.73,1.48-1.25s1.72-.37,1.31-1.74l1.24.25c.31-.6.6-1.23,1.39-.44l1.25-1.81A3.73,3.73,0,0,1,80,62.7c0-.29-.09-.57-.14-.91l-.78.29.25.1a4,4,0,0,1-.27,1.22c-.19.31-.65.45-.89.75a7.26,7.26,0,0,0-.85,1.32,13.53,13.53,0,0,0-.5,1.29h1.62l-.3-.93,1.47.35-1.2.93.66.6-1.71,1.06c.39-1.43-.68-1.26-1.17-1.25a13.39,13.39,0,0,0-3.06.55c-.3.08-.51.51-.79.81l.79-.32.55.87-1.3.74-.75-.51c-.09.69-.16,1.25-.23,1.81l1.19.35c-.81.31-1.47.46-1.58-.37a9.8,9.8,0,0,1,.23-2.26l.3,0a3.56,3.56,0,0,0-.3-.81c-.12-.16-.4-.22-.6-.33-.06.19-.1.39-.18.58a1.38,1.38,0,0,1-.27.51c-.41.37-1,.63-1.24,1.08s0,1,0,1.55l-.7-.15c-.16.37-.31.69-.45,1a3.55,3.55,0,0,1,0-1.52A4.84,4.84,0,0,1,68.34,70a4.25,4.25,0,0,1,.27-.46c.23-.27.48-.52.71-.78a3.32,3.32,0,0,0,.89-2.6s.1-.07.15-.11l.09.27,2-.49c0,.39,0,.72-.07,1.06h-1c.22.47.4.84.52,1.08l1.63-.59c.25-.63-.48-1.81,1-2,.08,0,.13-.31.2-.47-.23,0-.5-.14-.68-.06a2.51,2.51,0,0,0-.63.51c-.21-.82-.4-1.55-.65-2.54l1.9-1L74,61.31l.22-.61c-1.53.16-1.71.34-1.35,1.3-.73-.09-1.87.91-2.6,2.27l1.68-1.34-.17.88,1.29.25c-.22.46-.35.75-.49,1.06-.79-1.14-1.19.53-1.93.14.29-.35.57-.69.86-1a2.52,2.52,0,0,0-1.66,2.63L69,66.82c0,.31,0,.61.09,1.19l-2.18-1-.33.21.31,0c-.09.75-.19,1.51-.31,2.45-2.06.34-1.61,2.76-2.82,4l.6.57-1.4,1.32c1,1.15-.39,1.88-.33,2.84l-1.29.28L63,80.1c-.07.19-.21.54-.32.9-.17.54-.31,1.08-.46,1.62h0c-.15.55-.29,1.1-.45,1.7l1,.28,0,.21-1.54.65,1.75.39c-.07.91-.13,1.75-.2,2.59h-.42l-.17-2.31-.32,0c-.07.28-.14.56-.24.93l-1.08-.57c-.07.37-.12.66-.18.94s-.21.86-.31,1.29l-1-.56c0,.41.05.79.06,1,.42.19,1,.36.94.44-.09.61-.12,1.56-.49,1.74-1,.49-.69,1-.37,1.38-.79,1.89-.19,3.7-.29,5.45,0,.36.52.76.68,1-.19,1-.38,1.86-.52,2.74-.08.5-.11.92-.71,1.16-.25.1-.33.73-.38,1.14s.1.91,0,1.34c0,.19-.39.37-.63.45s-.34-.15-.52-.23v.85l-1,.19.05.36c-.62.3-1.15.6-1.71.81a2.75,2.75,0,0,1-1.39.31c-1-.22-1.18.36-1.4,1.06a2.31,2.31,0,0,1-.37.55c-.13-.2-.26-.39-.43-.62l-1.31,1.16a6.76,6.76,0,0,1-.63-1.63,26.62,26.62,0,0,1,0-2.68Q49,99.4,49,92.68c0-1.05,0-2.11,0-3.21a5.2,5.2,0,0,0,.44-1.07c.27-1.4.45-2.81.71-4.2.24-1.22.58-2.42.79-3.65.13-.78.69-1.65-.27-2.31,1.05-.92,2.38-7,1.69-7.65h-.8l-.07-.2.77-.39c-.47-.74.14-.84.56-.89,0-.73-.07-1.36-.09-1.87.55-.28,1.21-.4,1.37-.74.55-1.23.92-2.53,1.36-3.77l-1.3-.55.07-.2h1.16c.56-2.17,1.1-4.29,1.67-6.48l-.46.16-.16-.15L57.53,54c-.23-.18-.47-.37-.58-.44L58,52,55.9,50.84l2.18-.14c.11-.77.21-1.46.31-2.14l-.5-.12c.15-.35.29-.67.41-1A10.27,10.27,0,0,0,58.85,46c.23-.93.41-1.86.56-2.8.11-.63-.07-1.39.23-1.88a2,2,0,0,0-.14-2.43c.36-.39.85-.68.91-1a42.11,42.11,0,0,0,.52-5c.13-4.07.18-8.14.21-12.21,0-1.53-.11-3.06-.18-4.74l-.93.61-.9-.49c-.13.88-.24,1.64-.37,2.56l-.8-1c.27,2-.56,2.72-2.42,2.74l.9-1c-.09-.13-.21-.31-.38-.54l.76-.36.51.82c.15-.63,0-1.23.05-1.78a1.81,1.81,0,0,0-.92-2.24l-.48.57.92.25c-.42.71-1,.62-1.24.18-.38-.73-1-.72-1.61-1-.25-.11-.48-.28-.79-.46-.44.53-.92,1.13-1.86.61-.29-.16-.78.06-1.42.14l1.35.45c0,.1,0,.2,0,.29l-1.67.26c0,.12,0,.28,0,.32l1.55-.23A5.27,5.27,0,0,1,51,18.33c-.19.37-.71.59-1.08.87L49.71,19l-.12,1.52h.76c-.15,1.87-.24,3.68-.46,5.47-.14,1.13.78,2.31-.18,3.39,0,0,.06.13,0,.19-.09.49-.19,1-.28,1.46.13.52.28,1.1.43,1.68l-.27-.19c-.39.28-1,.51-1.12.86-.32,1.48-.27,3-1.15,4.4-.44.69-.23,1.77-.46,2.63-.4,1.44-.92,2.85-1.46,4.48l1.72-.48.16.26c-.36.61-1.75.18-1.56,1.5a10.87,10.87,0,0,1,.35,2.07l-1.18.47c-.12.7-.25,1.32-.33,1.94a3.78,3.78,0,0,0,0,1c0,.26.25.61.15.76a19.14,19.14,0,0,1-1.25,1.54l.88,1.17-1,0c-.14.62-.26,1.18-.37,1.66l-1.19-1.92A3.17,3.17,0,0,1,39,56c-.29,0-.66.11-.87,0-.46-.29-.8-.39-1.12.17a.8.8,0,0,1-.51.21c-1.07.12-2.15.2-3.22.33-.2,0-.38.26-.68.47l2.45.66c0,.12-.05.25-.08.37l-2.51-.48-.17-.53-1.51.19c-.09.39.57,1.07-.52.88a1,1,0,0,0-1.24,1c0,.24-.4.5-.61.75l-.16-.12c0-.16.06-.32.06-.33-.37-.06-.71-.1-1-.17-.93-.19-1.39.57-2,1-1.73,1.14-3.45,2.31-5.17,3.47a2.56,2.56,0,0,1,.4,1.27c0,.08-.4.26-.57.21s-.25-.32-.4-.55l-.48.52.27.25c.39.3.77.61,1.15.92l-1.14.41a.45.45,0,0,1-.19,0c-.86-.1-1.28.67-1.93.94-1,.41-1.3.63-1.36,1.49a17.21,17.21,0,0,0,1.8-1.18c.94-.77.91-.8,1.48.15l-2.34,3.31h1.75c-.18-.43-1.18-.82-.06-1.22.81-.28,1.6-.62,2.71-1.06l-1.72,2.37c0,.09.07.38.07.43l-1.79,2,.4.56-2.61,2.66-1,2.14-.38-.14c.2-.82.44-1.62.58-2.45s.75-1.48-.07-2.17c1.1.07,1.58-.5,1.65-1.91l-2.68,1.8c-.24-.5-.42-.88-.6-1.24-1.78,2.86-1.78,2.86-1.51,3.89A7.5,7.5,0,0,0,12.27,76c.35-1,.63-1.15,1.58-.41l.64-.57-1,2,.9.29c-.73.76-2.73.47-1.77,2.14-1.3,1.3-2.16,3-4.24,3.31l.18.28.82-.2c.1.36.19.7.27,1l-1.36.86.12.2.87-.34c-.1,1.59-1.07,3-.59,4.63l-.57.68.54.1c-.17.89-.33,1.71-.49,2.53-.43.37-.92.83-1,1.32a7.06,7.06,0,0,0,.44,2s.11,0,.17.06c.49-.75,1-.81,1.62-.24a8.48,8.48,0,0,0,1.14.82l-1.71.88,1.59.63-2,1.41c0,.11,0,.23,0,.34a13.54,13.54,0,0,0,1.44.58c1.09.33,1.37.87.8,1.85-.46.8.49.88.6,1.36.25-.2.52-.4.77-.62.41-.36.81-.74,1.1-1,1.39,1.4-.73,1.75-.54,2.84h1c0,1.36,0,2.65,0,3.94s.06,1.28-1.36,1.3c-.11,0-.21.12-.51.31.63.41,1.35.63,1.6,1.1a6.5,6.5,0,0,1,.28,2.14l.78-.06a6.93,6.93,0,0,0,.08-1.37,7.25,7.25,0,0,0-.47-1.35c1.49,0,1.88.6,1.34,1.76a6.51,6.51,0,0,0-.31,1.22c2.51,0,4.86,0,7.2,0a40.84,40.84,0,0,0,4.1-.47,2.45,2.45,0,0,0,.84-.28,14.39,14.39,0,0,0,1.38-.92c1-.71,1.9-1.45,2.84-2.19,0,0,0-.16-.11-.54l-2.74,2.34c.64-1.65-.85-1.91-1.48-2.58-.5.2-1,.34-1.38.56a2.45,2.45,0,0,0-1,.69,1.49,1.49,0,0,1-2,.76l-1.06,1.53L21,112l-1.77.23c0,.21-.07.47-.1.72l-.29,0c-.06-.74-.14-1.48-.19-2.21a4.57,4.57,0,0,1,.1-.73,2.77,2.77,0,0,0-.66.09c-.82.37-1.32.12-1.57-.75-.06-.21-.31-.36-.5-.56a1,1,0,0,0-.13.27c-.11.82-.82.71-1.35.89-.12-.42-.44-.91-.31-1.24.51-1.34,0-2.62-.23-3.87a2.79,2.79,0,0,1,1.12-2.71c.07.37.11.59.16.84l1.45-.44-2.37,1.9.62.8.42-1.21.41.84a5,5,0,0,1,1-.43,7.33,7.33,0,0,1,1.15,0l-.28,1.14c.4.13.95.52,1.4.42.94-.2.86.26.71.88l1.22-.63-.08.35.72.53c.32-.74.95-.33,1.46-.39a10.73,10.73,0,0,0,1.57-.34c.89-.26,1.77-.55,2.83-.88l.43-.54.18.09-.42,1.17.51,1,3,.16c.14-.37.32-.89.45-1.27L33,106c-.59.7-.59.7-.6,2.72l.78-1.17.93-.48-.54-.91,1-1.23v1.3a2.91,2.91,0,0,0,1.47-2.58c0-.62.12-1.13.9-1.1.08,0,.15.09.19.12-.14.23-.27.43-.46.75h.84c0,.56-.07,1-.07,1.53a6.5,6.5,0,0,0,.12.87c.29-.15.6-.28.88-.44a10.94,10.94,0,0,1,1.25-.69,7.53,7.53,0,0,1,1.35-.26s.13.12.27.25c.14-.28.1-.6,0-.61a5.78,5.78,0,0,0-1.1,0c-.51,0-1,.07-1.56.11L41.86,102c0,.31,0,.65-.1,1.32.66-.79,1.13-1,1.78-.2-1.24.18-1.24,1.11-1.59,1.88s-.84,1.61-1.9,1.62c-.69,0-1.38-.05-2.08-.08a2.17,2.17,0,0,0-.22.65c0,.84-.65,1.83.53,2.41h0c.35.23.84.7,1,.61.95-.59,1.18.25,1.42.45-.19.62-.31,1-.43,1.46l.89.2c.08.18.37.52.36.86,0,.83-.25,1.65-.31,2.48s0,1.48,0,2.22h-.83c1,.76,1.69,2,3.24,1.42l0,.27-.86.49.88.6,1.28-.77.26.25a4.82,4.82,0,0,0-.41.51,4.66,4.66,0,0,0-.59,1.18c0,.1.41.47.66.48a24.08,24.08,0,0,0,3.18.08c1.12-.06,2.23-.26,3.49-.42l0,.07c.82,0,1.49,0,2.15,0,.48,0,1,.18,1.19-.54.09-.33.58-.53.83-.83s1.39-.43,1-1.3l3-1.37c.67.61,1.17.51,2.14-.42.71-.66.87-.59,1.34.22s.33,1.15-.57,1.27a4.4,4.4,0,0,0-.77.3l.94.31-.36.42.27-.13,1.92,3v-1.64a.57.57,0,0,1,.39.31,1,1,0,0,0,1.42.46c.62-.25.58-.69.35-1.22s-.33-1-.49-1.53l.32-.16,1.07,1.75,1-.81-1-.65.5-.94,1.33.38-.59-.76,1.16.06c-.35,1-.25,1.87.75,2.42.14.08.13.44.19.66a1.67,1.67,0,0,1-.64.1c-.19-.05-.35-.26-.46-.34l-.92,1c.07.29.17.68.25,1l1.48-.65c.58,1.33-.9,1.1-1.06,1.85a1.94,1.94,0,0,1,.27.23c.15.17.29.35.43.52a2.34,2.34,0,0,1-.67.16c-.23,0-.45-.16-.69-.19a2.4,2.4,0,0,0-.53,0,6.32,6.32,0,0,1,.39,2,6.9,6.9,0,0,1-1,1.88c3.11,0,5.9.05,8.69,0,2.46-.05,4.92-.23,7.37-.34.69,0,1-.32.85-1.11h-.77l0-.2,3.24-1c0-.09,0-.18,0-.28l-1.13-.24c.69-.67,1.61-.21,2,1l1.65-1.57-.84,0-.16-.33,1.9-1.21.21.26c-.06.24-.11.47-.22.93l1-.81-.7-.79.36.27Zm-66-56.43h0l1.12.78Zm-5.88,8.08a1.15,1.15,0,0,1-.43,1.41,1.15,1.15,0,0,0,.43-1.41Zm-5.86,7.35a7.8,7.8,0,0,1,2.47-1c.11,0,.3.1.6.22l-.43.51c1.26,1.18-.68,1.6-.39,2.54l-.27-.05a7.94,7.94,0,0,0,.28-.77,2.24,2.24,0,0,0,.09-.92,3,3,0,0,0-.43-.8c-.54.39-1.27.68-1.56,1.22s-.06,1.21-.06,2.14c-.44-.48-1-.81-1-1.08A3.19,3.19,0,0,1,14.83,80.87Zm22,20.88.18-.26-.26-.19.26.19Zm.82-9.11c-.09.65-.19,1.28-.28,1.91l-.36.06a4.78,4.78,0,0,0-.38-.71,2.54,2.54,0,0,0-.8-.8c-.19-.09-.56.18-.81.34s-.24.37-.38.38a2.52,2.52,0,0,0-2.22,1.65c-.05.13-.24.21-.32.27l-1.38-.45a1.61,1.61,0,0,0,.91-2.19l-.93,1.16c0-.23-.08-.49-.18-1.1-.38,1.13-.9,1.52-1.8,1.17-.12,0-.39.17-.56.31-.32.28-.61.58-1.05,1,0,0,.23.37.3.34a5.1,5.1,0,0,0,.84-.53l1,.79-1.49,1.63v-1l-.22-.08c-.11.2-.36.43-.32.59a2,2,0,0,1-1.64,2.41c-1,.22-1.46,1-2.23,1.23-1.32.34-2.66,1-4.13.33-.88-.37-.71-1.1-.72-1.65a71.43,71.43,0,0,1,.14-8.28,13.86,13.86,0,0,1,1.56-4.85c.34-.66.32-1.41.81-2a9.18,9.18,0,0,0,1-2.12l-.21-.14-.58.72-.26,0,.3-1.29,1.31.25c0-.11.06-.22.1-.33l-.86-.48c1.64-.33,2-.68,2.19-2l.1-.3c-.35-1.12-.35-1.12.82-1.24a2.16,2.16,0,0,0,1.78-2.26c-.07-.72-.09-1.55,1-1.7a1.88,1.88,0,0,0,.88-.41,2.37,2.37,0,0,1,1.85-.64c.25,0,.53-.21.89-.37l-.59-.66,1.73-1.15-.81-.29-.05-.19c.8-.2,1.61-.36,2.4-.6,1.08-.32,2.14-.72,3.22-1,.33-.1.87-.75,1,.22l1.37-.17c0,.77-.1,1.51-.15,2.25,0,.12,0,.1-.49.51a.62.62,0,0,0,0,.62c.76.85.43,1.47-.37,2a1.51,1.51,0,0,0-.33.4c.22.53.69,1.23.55,1.38-.56.62-.43,2.07-1.69,1.72a11,11,0,0,1,.4,1.72,17.44,17.44,0,0,1-.09,1.76A11.74,11.74,0,0,1,36.89,85c.85,0,.91.33.71,1.11a18.11,18.11,0,0,0-.19,2.78,15.12,15.12,0,0,1-.27,1.54l-1.49-.31-.13.32c.23.36.47.72.73,1.11a1.64,1.64,0,0,0-.26.37,1.14,1.14,0,0,0,0,.52s.21.11.25.07.34-.28.32-.41a1.25,1.25,0,0,1,.84-1.31,1.85,1.85,0,0,1,.63-.1c0,.23,0,.47,0,.7s-.1.72-.16,1.08l.3.12ZM77.4,122.2h0l.17-.22Zm-1.68-1.87h0c-.62,0-1.35-.3-1.88-.1C74.37,120,75.1,120.31,75.72,120.33ZM69.31,75.55h0l.28.1Zm-4.2,4.61h0c.11-.26.23-.52.34-.77C65.34,79.65,65.22,79.9,65.11,80.16Zm13.23-6.8h0l1.42.72Zm0,0c0,.3.08.6.08.9,0-.3,0-.6-.08-.9Zm-.55,2h0l-.84-.22ZM65,80.28h0c-.17.09-.36.28-.53.35A5.52,5.52,0,0,0,65,80.28Z"/><path class="cls-2" d="M193.31,66.69l1.41-.13c.05.09.1.17.14.26l-.88.72.69.31a3.62,3.62,0,0,0,0,1,4.87,4.87,0,0,0,.51.94c.16-.25.29-.47.45-.71l1.06.36c-.42.26-.71.44-1,.61l.23.27a8.13,8.13,0,0,1,1.1-.7,1.69,1.69,0,0,1,1.06-.16c.77.32,1.44.5,2.14-.17.19-.19.61-.14,1.21-.27l-1.19,2.66.2.24,4-2.91-.09-.13-1.2.31c1.7-2.43,3.21-4.59,4.72-6.73-.17-.15-.21-.22-.27-.22-1.25-.18-.75.94-1.07,1.45l-.42.66a5.17,5.17,0,0,1-.5-.84c-.05-.14.1-.35.16-.53l-.15,0-.7,1.17-.21-.1v-.8l-1.14.64c0-.94,1.27-1,1-2.09-.43,1.07-1.11.59-1.73.45.16.84.32,1.68.49,2.55l-1.41-.85c.45.84.47,1.41-.26,1.49-1,.1-.64.87-.86,1.45l.48-.41.4,1L198.3,68.9c0,.07,0,0,0-.06,0-.32,0-.65,0-1l-.83.6-.69.46c.11-.74.18-1.28.26-1.83l-.74.66c-.57-1.69,1-1.16,1.45-1.61l-1.68-.49c-.1.39-.19.77-.32,1.26A1.52,1.52,0,0,0,193.31,66.69Z"/><path class="cls-2" d="M202.76,62.17h0v0Z"/><path class="cls-2" d="M238.62,124.72c-.14.5-.5,1.12-.34,1.33.45.58.06,1-.17,1.31-.63.8-1.39,1.49-2.08,2.25a10.93,10.93,0,0,0-.76,1l.21.17.93-.56-.2.76a2.6,2.6,0,0,0,.93-1,4.21,4.21,0,0,1,1.41-1.71c.6-.41.91.26,1.35,0,.07.23.13.47.23.81l-1-.15c.25,1.48-.71,1.65-1.81,1.68.33.91,0,1.27-.84,1.36-.18,0-.31.4-.5.66-.33.1-1,.11-1.28.44a6.63,6.63,0,0,0-.76,1.91c.71-.12,1.37-.49,2.05,0a.66.66,0,0,0,.61-.1c.72-.7,1.39-1.43,2.08-2.14l-.24-.3c-.87.71-1.73,1.43-2.59,2.15l-.22-.2c.05-.25,0-.59.17-.73a21.4,21.4,0,0,1,2.27-1.78,5.51,5.51,0,0,1,1.33-.31,2.54,2.54,0,0,0,1.17-.48,20.77,20.77,0,0,0,1.34-2.1c-.25-.26-.56-.49-.52-.57.39-.88-.32-1.48-.51-2.21l.58-.31a1.22,1.22,0,0,1,0-1.72,16.44,16.44,0,0,0,1.56-1.43,6.32,6.32,0,0,0,.77-1.51,4.55,4.55,0,0,0,.17-.66l-.12-.12-3.2,3.43c.52-1.26-.24-1.55-.85-2l-1.66,2.41Z"/><path class="cls-2" d="M207.57,156.79c1.68-.41,1.68-.41,1.83-1.57-.06,0-.14,0-.18,0-.84.77-1.66,1.56-2.82.45-.13-.12-.56.07-1,.14.43-1-.05-1.71-.42-2.51a3.33,3.33,0,0,0-1.95-1.15l.64.93-.21.18-2.6-1-.2.13,2.24,2.27-.56.79.14.11,1.74-1.54.33.26c-.26.45-.51.91-.77,1.35.7.38.8,1.26.37,2.59.64,1.48,1.85,1.07,2.93,1.06a8.35,8.35,0,0,1,2.06,0c1,.27,1.11.3,1.26-.94C208.79,159,207.85,158.43,207.57,156.79Z"/><path class="cls-2" d="M164.35,132.67l0,0h0S164.35,132.68,164.35,132.67Z"/><path class="cls-2" d="M162.57,136.33l-.41-.12-.09.17,1,.84-1.4,1.23v.3h2.27c.62,0,.84-.32.68-.9a1.32,1.32,0,0,1,.26-1.52l1.16.35.87-1.13-1.15.1c.63-.79,1.16-.86,1.94-.23.27-.78.51-1.51.78-2.29-1-.25-1.12.48-1.22.88l-1.08.4c-.39.16-.67.27-.89-.31a6.65,6.65,0,0,0-.95-1.4c-.25.52-.27,1.09-.84,1.56S162.86,135.62,162.57,136.33Z"/><path class="cls-2" d="M165,132.44l1.46.72c2.11-1.5,2.81-2.92,1.91-3.76A5.17,5.17,0,0,0,165,132.44Z"/><path class="cls-2" d="M194.36,62.79l.3-.09c.09.79.19,1.57.27,2.26l1-2.34-.92.14c0-.29,0-.52.07-1L192.93,63v-.52c-1.43,0-1.47,1.12-1.6,2.24l2.75-.55C194.15,63.85,194.25,63.32,194.36,62.79Z"/><path class="cls-2" d="M88.68,115.24a1.48,1.48,0,0,0,.54-1,16.92,16.92,0,0,0-.42-2.38l-1,.89.68.83c-.76.31-.81,1.61-2,1.43a3.76,3.76,0,0,0-.81.1l.87.31,0,.17h-1v.1l1.27.31c0,.19-.09.35-.16.58A20.11,20.11,0,0,0,88.68,115.24Z"/><path class="cls-2" d="M203.77,58.82c-.94-.59-1.79.85-2.84,0l.62-.58c-.76,0-1.31,1.25-1.17,2.47l2.33-1.33.17.21c-.46.82-.93,1.63-1.44,2.54h1.31A4.51,4.51,0,0,1,203.77,58.82Z"/><path class="cls-2" d="M202.76,62.17l0,0h0Z"/><path class="cls-2" d="M129.8,128.11c-.57.5-.52.9.16,1.31l.58-.92.38.94c-.23.17-.42.31-.62.44l.29.21c1-.76,1.16-2,1.57-3.24l-.53-.43C131,127,130.39,127.59,129.8,128.11Z"/><path class="cls-2" d="M206.9,154.88c.4-.34.74-.5.9-.77a1.35,1.35,0,0,0,0-.82c0-.23-.18-.45-.24-.68-.12-.48-.22-1-.29-1.26l-2.18,1.74,1.51.18C206.69,153.77,206.78,154.27,206.9,154.88Z"/><path class="cls-2" d="M266.44,140.28c-.84-1.12.61-.56.6-1.2-.18-.4-.42-1-.65-1.51h-.27a10.34,10.34,0,0,1-.48,1.39,7.9,7.9,0,0,1-.76,1c-.14.17-.27.35-.4.53.19.08.4.26.56.23C265.5,140.62,266,140.44,266.44,140.28Z"/><path class="cls-2" d="M195.35,126.09l.33,1-.9.19.76.53h-1.15l0,.17,1.46.35-1.25.9c0,.1,0,.2,0,.3.25,0,.59,0,.73-.12.67-.67,1.22-1.42.75-2.32l.59-.63Z"/><path class="cls-2" d="M144.49,94.35c.6-1,.58-2.34-.09-2.76-.06.21-.11.41-.16.62l-.9-.09c.69,1,.63,1.55-.2,2.5C143.8,94.92,144.2,94.84,144.49,94.35Z"/><path class="cls-2" d="M274.12,137.51l-.07-.17-1.4.6.22-.82c-1.08.29-1.08.29-2.65,2l1.58-.37,1-.2,0,0h0Zm-1.33,1Z"/><path class="cls-2" d="M148.07,89.07c-.58.3-.59.33-.38.64l1.86-.12c.07-.16.19-.46.32-.75l.4-.82-.68-.38c-.34.25-.91.52-.88.65C148.85,88.92,148.39,88.91,148.07,89.07Z"/><path class="cls-2" d="M128.25,122.12c1.83.46,2.1-1,2.85-1.89l-.31-.35Z"/><path class="cls-2" d="M193.82,137.9a3.27,3.27,0,0,0,1.12-.34l-.14-.3a5.22,5.22,0,0,1-1.1.12c-1.81-.23-1.83-.22-2.15,1.57a2,2,0,0,1-.16.37c.15.06.23.12.26.1s.22-.14.25-.24C192.32,137.88,192.55,137.76,193.82,137.9Z"/><path class="cls-2" d="M128.66,123.63c.76-.26,1.48-.3,1.77-.67.43-.57,1.56-.54,1.41-1.59l-.56-.39C130.54,121.73,129.71,122.58,128.66,123.63Z"/><path class="cls-2" d="M131.84,121.37h0l0,0Z"/><path class="cls-2" d="M193.55,142.31l0,0v0A.05.05,0,0,1,193.55,142.31Z"/><path class="cls-2" d="M196.55,139.81c.1-.07.14-.25.28-.53-.38,0-.71,0-.82.1-.64.78-.63.77-1.36.77-.92,0-1,.82-1.23,1.39-.08.19.09.48.15.73a3.17,3.17,0,0,1,.63-1C194.94,140.73,195.77,140.3,196.55,139.81Z"/><path class="cls-2" d="M279.48,181.31c.35-.26.83-.91,1.22-.86,1.18.17,1.15-.77,1.51-1.42a7.25,7.25,0,0,1-1.21.48C279.82,179.74,279.33,180.36,279.48,181.31Z"/><path class="cls-2" d="M192.25,141.94l-1.7-.8c-.21.79-.39,1.48-.56,2.1.29.11.57.23.85.32.1,0,.26.06.3,0s.1-.26.05-.32a2.69,2.69,0,0,0-.47-.34l-.06-.39,1.62-.36Z"/><path class="cls-2" d="M193.21,69.15c-.07-.45-.13-.8-.19-1.14l-.24-.17c-.53,1.19-1.07.3-1.76,0a6.81,6.81,0,0,0,.14,1.31A14.46,14.46,0,0,0,193.21,69.15Z"/><path class="cls-2" d="M201.21,63.89l-.18-.2-.8.52-.18-.19,1.31-1.39c-.45.06-.78,0-.84.14a21.47,21.47,0,0,0-1,2,2.94,2.94,0,0,0-.13.73l.23,0Z"/><path class="cls-2" d="M233.7,131.9a3.59,3.59,0,0,1-1.57,1.73c.68-.06,1.09-.07,1.48-.13a3,3,0,0,0,.58-.27c-.58-.63.45-.7.36-1.39C234.26,131.86,233.76,131.78,233.7,131.9Z"/><path class="cls-2" d="M196.38,141.69l0,0v0Z"/><path class="cls-2" d="M194.82,143.52a2,2,0,0,0,1.52-1.83l-1.74.41C194.69,142.63,194.74,143,194.82,143.52Z"/><path class="cls-2" d="M272.66,171.23l-.16.24c.55.06,1.26.36,1.62.13s.58-1,.92-1.67Z"/><path class="cls-2" d="M29.4,109.28a2.37,2.37,0,0,1,.13.73,2.9,2.9,0,0,0,.7-.45c.64-.74-.36-1.23-.32-1.91C29.71,108.2,29,108.55,29.4,109.28Z"/><path class="cls-2" d="M174.17,132.58c-.1-.83-.16-1.57-.29-2.3,0-.07-.45-.07-.44-.07a4.93,4.93,0,0,0-.24,1.12C173.23,131.8,173,132.46,174.17,132.58Z"/><path class="cls-2" d="M160.49,115l-2.35,1.79C160.39,116.44,160.39,116.44,160.49,115Z"/><path class="cls-2" d="M197,64.1c1-.06.82-.77.88-1.35l-.23-.13c-.18.24-.32.59-.55.68-1,.37-1.07.52-.68,1.35C196.61,64.47,196.8,64.11,197,64.1Z"/><path class="cls-2" d="M93.27,114.15l-1.79,1.13,2,.52C93.38,115.11,93.32,114.63,93.27,114.15Z"/><path class="cls-2" d="M214.15,155.69l-2.29-.37-.11.18a8.85,8.85,0,0,1,.85.76C213,156.67,213.88,156.39,214.15,155.69Z"/><path class="cls-2" d="M288.51,135.66l1.22.39c.35-.8.35-.8-1.13-1.54C288.57,134.91,288.53,135.33,288.51,135.66Z"/><path class="cls-2" d="M170.65,76.15c0-.16,0-.46,0-.47-.42-.13-.86-.21-1.28-.3-.07.34-.15.67-.19,1a2.3,2.3,0,0,0,0,.52C169.72,76.73,169.88,75.85,170.65,76.15Z"/><path class="cls-2" d="M200.57,111.28c.13-.59.22-1.2.32-1.8l-.2-.09-1.16,2.32C200,112,200.41,112,200.57,111.28Z"/><path class="cls-2" d="M191.73,66.62l1.2.11c0-.31.08-.63.13-1h.64C192.37,64.59,192.44,66.36,191.73,66.62Z"/><path class="cls-2" d="M131.84,121.37l0,0,0-.06Z"/><path class="cls-2" d="M134,118.64a4.9,4.9,0,0,0-2.11,2.69A6.19,6.19,0,0,0,134,118.64Z"/><path class="cls-2" d="M197.8,119.12l.36.13,1-1.87-.94-.22C198.1,117.84,198,118.48,197.8,119.12Z"/><path class="cls-2" d="M153.1,137.22c.74.14,2-.64,1.85-1.21l-1.24.33Z"/><path class="cls-2" d="M18.5,108l.18-.17c-.09-.4-.18-.8-.27-1.22l-1.3.16Z"/><path class="cls-2" d="M9.36,106.45l2.08-.16C10.57,105.43,10.14,105.46,9.36,106.45Z"/><path class="cls-2" d="M67.26,125.51c-.32.27-.43.38-.56.48s-.26.14-.41.22c1.17,1.09,1.17,1.09,1.54.23C66.91,126.76,67,126.28,67.26,125.51Z"/><path class="cls-2" d="M161.2,112.78c-.19.06-.48.07-.55.2-.28.56-.5,1.15-.74,1.73l.21.13c.37-.52.75-1,1.09-1.57C161.29,113.16,161.21,112.94,161.2,112.78Z"/><path class="cls-2" d="M95.22,116.64l-2.38,1A1.92,1.92,0,0,0,95.22,116.64Z"/><path class="cls-2" d="M162.34,109l1.22-1.61C162.36,107.48,162,107.91,162.34,109Z"/><path class="cls-2" d="M243.19,119.26c-1.18-.09-1.52.63-1.89,1.29l.17.19Z"/><path class="cls-2" d="M266,141.73l-.19-.25-1.87,1.46C265.19,143.12,265.44,142.21,266,141.73Z"/><path class="cls-2" d="M91.28,112.87c-.8,0-1.47.15-1.45,1l.32.3Z"/><path class="cls-2" d="M145,102.74l1.06-1.88C145.29,100.91,145,101.42,145,102.74Z"/><path class="cls-2" d="M201.93,149c0,.74-.06,1.31-.09,1.88l.2.07.67-1.79Z"/><path class="cls-2" d="M251.89,136.88c0-.53-.08-1.07-.13-1.78-.47.31-.7.47-.87.57l.76,1.11Z"/><path class="cls-2" d="M247,157.54l-1.44-.14c.09.51.15.85.22,1.19l.39,0c-.06-.22-.11-.45-.18-.73h1Z"/><path class="cls-2" d="M275.09,175.61l.84,1,.54-1.49Z"/><path class="cls-2" d="M78.39,62.06l-1.08,1.18C78.6,63.26,78.71,63.13,78.39,62.06Z"/><path class="cls-2" d="M175.76,143.53c2,.2,2,.2,2-.59Z"/><path class="cls-2" d="M230.09,124.67l-2,.75C229.67,125.69,230.13,125.54,230.09,124.67Z"/><path class="cls-2" d="M198.94,67.08c-.06-.58-.1-1-.13-1.41l-.38,0C198.05,66.17,198,66.6,198.94,67.08Z"/><path class="cls-2" d="M66.92,125.17c-.5-.37-1-.73-1.47-1.08C66.15,125.4,66.31,125.49,66.92,125.17Z"/><path class="cls-2" d="M207.39,94.65l-1.36.72C207.34,95.55,207.34,95.55,207.39,94.65Z"/><path class="cls-2" d="M158.19,136.06c-.94.87-.94,1.15,0,1.48Z"/><path class="cls-2" d="M36.34,84.74l-.77.85c1.28,1.06-.67,2,0,2.9a9.11,9.11,0,0,0-1.27,1.15c-.72.92-1.28,2-2.53,2.37l1.16.93.84-1.4,1-.74a4.54,4.54,0,0,1-.18-1.09,16.47,16.47,0,0,1,1.89-.6A7.09,7.09,0,0,0,36.34,84.74Z"/></g></g></g></svg>