<svg xmlns="http://www.w3.org/2000/svg" viewBox="0 0 306.12 114.59"><defs><style>.cls-1,.cls-2{fill:#fe5f58;}.cls-1{opacity:0.2;}</style></defs><g id="Calque_2" data-name="Calque 2"><g id="Phrase_1" data-name="Phrase 1"><g id="P1_m4_1"><path class="cls-1" d="M301.14,43.1c1.77-9.36,1.4-19-7.44-25.07-4.39-3-9.36-3.17-14.48-3.44-1.92-.1-3.88-.11-5.37-1.46-1.67-1.51-2.62-4.16-3.93-6A16.77,16.77,0,0,0,245.67,3.7c-6.66,5.21-6.29,13.57-7.26,21.24-3.66-1.37-6.44-2-10,2.3-5.89,7.2-12.52,5.76-19.68,1.2C203.51,25.11,198.26,21,192,20c-5.45-.88-9.81,1.18-13.31,4.71-6.53-2.92-13.88-1.31-20.35,2-1.19.6-5.63,2.48-7.53,4-.39-1.28-.93-2.92-1-3.07-2.36-9.87-5.47-28.75-20-25.39C118.08,4.94,115.08,20.9,112.9,30.8,111.83,35.65,111.83,43.69,106,45,97.43,47,92.11,38,84,36.65c-4.2-.67-8,.54-11.69,2.38-2.16,1.07-5,2.17-6.88,3.63-.12.09-.62.26-1,.43a26.86,26.86,0,0,0-8.84-1.63,6.71,6.71,0,0,0-5.33,2.43,13.1,13.1,0,0,0-3.8-2.48c-2.82-1.07-4.53.21-7.2.68-2.94.51-5.28-1.66-8.15-2a14,14,0,0,0-8.28,1.83c-5,2.79-7.4,8-9,13.22-.52,1.64-1,3.25-1.5,4.84a3.81,3.81,0,0,0-2,2C6,72.21-4.58,83.82,2.22,95.47c3.63,6.2,11.49,9.13,18.35,7.35,7.52-2,12-7.93,17.42-12.89,5.14-4.68,10.93-3.42,17.08-1.79C62,90,68.82,91.74,76,90.93s12.16-3.52,17.71-7.69l.3-.19c.68.84,1.57,1.86,1.65,2,1.87,2.53,3.67,4.86,6.59,6.23C115.44,97.44,124.79,85,132,75.41c5.77,3.71,11.78,1.18,18-1.82,5,6.2,16.42,6.77,25.58,4.55-2.95,15.15-4.63,37.6,13.19,36.4,8.91-.6,13.25-10.22,15.82-17.51a90.76,90.76,0,0,0,3.93-14.56c.45-2.61.62-5.24,1.08-7.83,7.58,2.8,15.62,1.17,20.52-5.13,3.13,2.86,5.88,5.94,10.75,5.33a29.49,29.49,0,0,0,10.75-3.26A14.09,14.09,0,0,0,263,75.67a38.83,38.83,0,0,0,12.53-3.24C291.54,90.79,316.93,54.34,301.14,43.1Z"/><path class="cls-2" d="M297,57.89c-.32-.42-.93-.6-1.32-1s-.47-.55-1-.51c.15.33.21.81.48,1,.83.61-.64.5-.4.76.46,0,.95,0,1,.1.17.4.37,1.15.21,1.25-.49.34-.3.64-.14.95-.4.38-1.44.23-.74,1.35L294,61.53c-.2.15-.51.52-.74.48a4.46,4.46,0,0,1-2.68-1.12,2.78,2.78,0,0,0-1-.5,5.19,5.19,0,0,1-1-.38c-.73-.55-1.4-1.17-2.09-1.76l-.9-.76c-.16-.21-.43-.31-.62-.5a7.33,7.33,0,0,1-.6-.83,2.71,2.71,0,0,1-.24-.35c-.28-.51-.56-1-.82-1.56-.53-1.11-.86-2.3.27-3.33a5,5,0,0,0,.76-1.05c.58-1,1.15-1.94,1.72-2.91.65-1.13,1.29-2.25,1.92-3.39.1-.19.06-.44.14-.64.3-.72.69-1.41.94-2.14A32.74,32.74,0,0,0,289.6,37c.32-1.39-.58-2.28-.86-3.42,0-.06-.18-.14-.23-.12a.89.89,0,0,1-.66,0,2.23,2.23,0,0,0-2.4.86,13.66,13.66,0,0,1-1.07,1.58c-.78.79-.91,1.13-.39,2.13l-.67-.62c-.05.39-.09.65-.14,1A2.74,2.74,0,0,0,282,40.44l.45.05.07.19-.65.34-.14-.16c-.59,1.61-1.18,3.22-1.78,4.88.89,0,.73.51.6,1l-.47-.5a6.53,6.53,0,0,0-.38,1.13,5.72,5.72,0,0,0,.05,1.13c-.4.18-.38.69-.27,1.23a1.62,1.62,0,0,1-.8,1.87,1,1,0,0,0-.22.19,16.54,16.54,0,0,1-1.39,1.9c-.62.65-1.39,1.16-2.05,1.77-.33.31-.52.78-.87,1-.68.51-1.44.93-2.17,1.38-.49.3-1,.6-1.5.88a.91.91,0,0,1-1.3-.25,8.38,8.38,0,0,1-.73-2.29,15.24,15.24,0,0,1-.18-2.44c-.09-3-.15-6-.25-9a7.81,7.81,0,0,0-.31-1.47,5.69,5.69,0,0,0,.2-1c0-1.28-.07-2.55-.08-3.83,0-1,.05-2,0-2.94,0-1.33-.06-2.66-.13-4a1.23,1.23,0,0,1,.72-1.22,10.23,10.23,0,0,1,1.85-.47.82.82,0,0,1,.45-.48c.28-.08.65.05.88-.08A20.78,20.78,0,0,0,276,26.45a7.29,7.29,0,0,0,.71-1,29.31,29.31,0,0,0-9,2c-.3-2.24.23-4.54-1.55-6.45l-2.24.47.39.88-.16.09-.3-.32c-.1.42-.18.78-.29,1.27l.79-.14.13.17c-.24.2-.49.39-.73.6s-.52.4-.48.51a3.62,3.62,0,0,0,.59.9c-.08.32-.19.79-.28,1.2l-.69-.19-.23.27,1,.4-.12.28c-.92-.27-.92.25-.9.85,0,.94-.29,1.51-.9,1.74-1.35.51-2.69,1-4,1.55-.78.32-1.54.7-2.32,1.05a5.57,5.57,0,0,1-.44-1.19,14.66,14.66,0,0,1,0-1.48c0-1.23-.05-2.47-.08-3.7l-.12-3.8c0-1.25,0-2.52-.13-3.76s.31-2.88-.79-4.13c-.27-.31-.48-.55-.83-.5a14.62,14.62,0,0,0-1.5.39,10.41,10.41,0,0,0,.07,3c.28.89-.16,1.85.32,2.72l-.09.68.28.1-.56.28,1,1.15c-.29.28-.59.44-.68.68s.17.44.25.62a2.62,2.62,0,0,0-.27.95c0,.26.31.51.55.86l-.42,0c-.52.93.38,1.73,0,2.67-.25.66.14,1.46-.33,2.13,0,.05,0,.19.05.29l.16.84.24.06-.62.7.16.15.59.53-.16.14-.27-.26L250.3,34l.93.26-.17,3.32.62-.15c.09.25.2.53.3.79l-1.23.33.37.51a9.61,9.61,0,0,0-.55,1.31.68.68,0,0,0,.33.57c.5.15.39.26,0,.46a.62.62,0,0,0-.23.33c-.21.73-.44,1.47-.6,2.22-.08.37.06.78,0,1.15a10.72,10.72,0,0,1-.51,1.33l.7.37c0,.34,0,.64.08.94h-.09l-.44-.88-.26,0v1.29l-.58.55,1,.14c-.24.16-.38.3-.44.28-.57-.26-.67.1-.77.52-.21.88,0,1.88-.77,2.59,0,0,0,.06.09.12l.61-.54.24,1-1.22.28c-.12.43-1.15.9,0,1.73l-1.1-.09,1.44.93L246.9,56l-.34-.74-.4.57.38.35-.92.3.62.73c-.26.31-1.28-.76-1,.54a4.81,4.81,0,0,0-1.27.74,6.4,6.4,0,0,1-2.81,1.82,3,3,0,0,1-1.85.07A13.78,13.78,0,0,1,235,55.93c-.21-.35-.35-1.09-.16-1.29a27.67,27.67,0,0,1,2.51-2c.19-.14.47-.2.6-.37a48.36,48.36,0,0,0,3.14-4.17,25.8,25.8,0,0,0,1.73-3.86,7.09,7.09,0,0,0-.57-6.44,3.91,3.91,0,0,0-1.3-1.35,3.71,3.71,0,0,0-3.74.22,16.52,16.52,0,0,0-2.62,2.08l1.17.43c-.41.61-1.78-.7-1.64.6l-1,1.22.85.19,0,.22-1.18.26.2.59.83-.44a1.64,1.64,0,0,1-.19.71c-.21.48-.41,1-.62,1.46,0,0-.11,0-.18.05l0,0c-.08.52-.14.55-.64.48a1.58,1.58,0,0,0-.42.06v.15l.87.29-.38.35c0,.38.09.7,0,.83-.34.37-.77.65-1.14,1-.06.05-.06.18-.09.29,1.9.12.14,1.24.61,1.78l-.73.12.66.27-.88.57,1.11.18,0,.16H231c.08.34.12.62.2.88.25.72-.16,1.28-.88,1.11a6.43,6.43,0,0,1-1.72-.62c-1.25-.72-2.46-1.52-3.8-2.35-.36.31-.63,0-.79-.42-1.61-.11-3.06.08-4.09,1.4l.37.51-.58-.2c-.21.37-.4.71-.57,1l.49-.06c-.11.38-.2.68-.31,1.09l-.42-.69-.65.91,1.1.06,0,.12-1.09.38.54.48-1.79,1.07.69.23-.31.75a1,1,0,0,0-.48,0c-.2.07-.47.21-.5.37s.11.45.19.68l.19-.06,0-.66.78.17c-.51.54-.31,1.54-1.32,1.49.05.27.08.47.08.46-.33.35-.52.57-.73.77a1.39,1.39,0,0,1-.58.38c-.49.07-.67.3-.44.71a4.68,4.68,0,0,0,.29.42c-.47,0-1.08-.37-.88.52,0,0-.11.12-.18.18-.57.4-.52,1-.33,1.55-1.1-.31-1,1-1.74,1.32-.38-.85-.82-1.64-1.11-2.5-.46-1.38-.88-2.79-1.22-4.21-.49-2-.88-4.12-1.34-6.18-.39-1.73-.35-3.59-1.63-5a2.5,2.5,0,0,0-2.44-.73c-1,.36-1.35,1.34-1.92,2.1-.15.2,0,.61,0,.92l-.14-.15c-.22.19-.55.34-.66.58-.32.72-.56,1.47-.83,2.21a.73.73,0,0,1-.16.23l-.82,1,.67.23a2.79,2.79,0,0,0-.17.74c0,.45-.24.59-.54.48s-.6.09-.73.37a13.66,13.66,0,0,0-1.11,2.59c-.07.29-.26.44-.33.68s-.22.6-.34.9l-.63,1.55.43.64c-.91-.57-1-.06-1,.45s0,1.07,0,1.61l-.21,0c-.1-.56-.21-1.12-.29-1.68a5.87,5.87,0,0,1-.09-1.18c0-1,.12-2,.14-3,0-.62-.07-1.23-.09-1.85,0-.37,0-.75,0-1.12,0-.53,0-1,0-1.58-.08-.79-.21-1.58-.32-2.37-.07-.21.05-.46,0-.71,0-.46-.17-.91-.23-1.37s-.09-1-.14-1.46a1.36,1.36,0,0,0,.1-.51,8.4,8.4,0,0,1-.47-2.5c.12-.89-.86-1.27-.66-2.07-.89-.65-.88-1.78-1.4-2.63A7.05,7.05,0,0,0,191,37.6c-.12-.12-.49,0-.72,0s-.27-.25-.4-.39L190,37c-1,0-1.92,0-2.88,0a3.68,3.68,0,0,0-1.3.34c-.36.18-.64.73-1,.74-1,0-1.34.8-1.79,1.32a11.39,11.39,0,0,0-2.33,3.8,17.52,17.52,0,0,1-.78,1.64c-.13.3-.21.63-.34,1l.65-.11,0,.82-.75-.52a6.67,6.67,0,0,0-.48,1.64,6.78,6.78,0,0,1-.44,2.2c-.17.51-.13,1,.64,1l.21.35-1.2.44.23.25.7.07c.2.77.38,1.46.56,2.17l-.79-.12c.06.18.17.21.25.27a7,7,0,0,1,1.11.91,12.47,12.47,0,0,1,.7,1.17c.29.41.64.78.94,1.15-.29.43-.55.8-.83,1.19l.73.19c-.16.11-.33.09-.47.15-.45.21-1,.33-1.29.69a4,4,0,0,1-1.28,1,1.16,1.16,0,0,1-1.63-.1,3.56,3.56,0,0,1-.43-.59,13.69,13.69,0,0,1-1.48-2.66,33.43,33.43,0,0,1-1.21-6.38c-.08-.84.3-1.94-.72-2.58,0,0,0-.13,0-.2.2-1.12-.55-2-.81-3a6.84,6.84,0,0,0-1.68-2.67,6.38,6.38,0,0,0-3.35-1.89c-2-.49-3.82.3-5.64,1-.5.18-1,.46-.42,1.28l-1.23-.26c.16.58-.07.79-.61.88-.36.07-.84.27-.51.91-1.14-.32-.48,1.12-1.19,1.14l.75.59-1.38.12,0,.16,1.47.46,0,.2h-1.41c.67.14.31.61.4,1l-1.11-.41.62,1-1,.56c.14.35,1,.06.65.68-.31.12-.64.14-.72.29s0,.5,0,.76h.25l.2-.71.66.48-.77.39.2,0v1.44c-.41-.73-.74-1.26-1-1.8a14,14,0,0,0-1.42-2.69,6.38,6.38,0,0,0-2.44-1.73,5.71,5.71,0,0,0-2.73-.17c-3.18.44-6.35,1-9.52,1.53-1.63.28-3.24.65-4.86,1-.5.11-1.07,1.35-.72,1.47.66.25.64.94,1.12,1.28a17.42,17.42,0,0,1,1.41,1.24l.74,3.35c.06-.36.19-.63.11-.71-.41-.49-.21-.84.18-1.17a1.65,1.65,0,0,1-.1,2.1,13,13,0,0,0-.74,1.26c-.38.65-.77,1.29-1.23,2a13.38,13.38,0,0,1-.83-1.23c-.51-1-1-2-1.45-3.1s-.79-2.18-1.14-3.29a16,16,0,0,0-.75-2.55,5.41,5.41,0,0,1-.43-1.62c0-.17,0-.34-.08-.5a43.93,43.93,0,0,1-1-4.41c-.21-1.74-.85-3.41-.93-5.17a5.25,5.25,0,0,1,0-1.25c.17-.78.46-1.54.64-2.32.05-.16-.11-.38-.17-.57.11-.16.38-.38.42-.64.19-1.38.39-2.77.45-4.16a54.55,54.55,0,0,0,0-5.86,5.34,5.34,0,0,0-1.41-3.72c-.29-.29-.44-.57-.86-.49-.64.13-1.27.29-1.93.44l.83.81a.76.76,0,0,1-.4.1c-.14.67-.52,1.43-.32,2a1.94,1.94,0,0,1,0,1.55l-.63-.07,0,.09,1.23.66-.76.37-.25.23.53.34c-.12.22-.31.53-.52.89l-.39.11,1.18,1.26-.75.2c-.19.58-.35,1.08-.54,1.68l1.45,1.56a1.08,1.08,0,0,0-.57,1.45c.52.63.19,1-.22,1.49a2.86,2.86,0,0,0-.36.67l.22.11.37-.4.16,0c-.18.82-.35,1.64-.53,2.49h.5l0,.12-.58.17.17,1.84-.79.39c0,.21.06.44.09.68s-.07.25-.1.38c.25.33.62.65.09,1.07.79.11.79.11.69.56a1.26,1.26,0,0,0-.48,0c-.14.08-.34.28-.32.38.21.91-.44,1.24-1,1.66l-.18-.71c-.12.44-.2.71-.31,1.08l1.06-.07-.39.66-1-.17-.1.19.49.63-1.05.5,1.52.55c-.56.91-.94-.39-1.4,0a3.86,3.86,0,0,1-.38.93c-.42.57-.25.91.35,1.14a3.29,3.29,0,0,0,.44.11c-1.61.53-1.61.53-1.74,1.33l.84.46,0,.15-1.23-.13.89.75a4.08,4.08,0,0,1-.8.28c-.14.07-.2.3-.29.47l.44,0,.79-.14-1,.81.43.23L120,55l.75.42c-.7.78-1.45,1.3-1.53,2.29a1,1,0,0,1-.16.41l-1.85,2.74.59.07,0,.14-.93.47c-.08.79-.12.83-.66.74l.37-1.19.3.05.24-.28a1.4,1.4,0,0,0-.53-.16.54.54,0,0,0-.36.29,10.93,10.93,0,0,1-1.56,2.52c-.15.19-.13.51-.27.7-.46.61-1,1.18-1.43,1.78-.85,1.11-1.66,2.24-2.53,3.33a15.71,15.71,0,0,1-1.87,2c-.65.57-.85,1.45-1.77,1.9a15.87,15.87,0,0,0-2.67,2.17,4.69,4.69,0,0,1-1,.55c-.59.26-1.2.49-1.85.75.33.37.79.71.22,1.06a5.41,5.41,0,0,0,.75.76c.37.25.84.65,1.19.58a13.37,13.37,0,0,0,4-2,18.5,18.5,0,0,0,1.46-1.22,18.3,18.3,0,0,0,3.54-3.76c.48-.62,1-1.21,1.5-1.83.62-.79,1.26-1.58,1.85-2.39.45-.62.83-1.29,1.25-1.93s1-1.38,1.39-2.11.89-1.68,1.34-2.52c.19-.35.58-.67.6-1a3.33,3.33,0,0,1,.59-1.39c.31-.64.72-1.23,1-1.86.15-.3.15-.66.29-1,.62-1.36,1.32-2.69,1.87-4.07s.93-2.77,1.4-4.15c.38-1.1.76-2.21,1.22-3.28.19-.45.06-1.23,1-1.14a3.81,3.81,0,0,1,.42.61c.27.59.2.67-.48.75-.12,0-.22.14-.33.21.07.11.13.26.23.32s.34,0,.47.13.48.28.52.46c.14.77.21,1.55.3,2.25l-.56.34c.94,0,1.14.51,1.15,1.33l-.5-.31-.12.14.63.58-.77.63.25.36,1.1.37-.65.37a4.86,4.86,0,0,1,.5,1.39c0,1,0,1,1.09.84a5.2,5.2,0,0,0-.33,1.53,4.13,4.13,0,0,0,.56,1.28l.64-.2c0,.48.22,1,.05,1.2-.4.49,0,.67.24.71.53.1.62.44.75.84a1.9,1.9,0,0,0,.5.75,11.38,11.38,0,0,1,1.36,1.21c1.16,1.56,2.95,1.21,3.88-.37a9,9,0,0,0,1.25-3.75,6.79,6.79,0,0,0-1.36-4.88c-.27-.35-.6-.86-.52-1.2s.69-.49,1.1-.61.85-.06,1.27-.15c1-.22,2.07-.5,3.11-.71.62-.12,1.25-.16,1.88-.24a4.28,4.28,0,0,0,1.67-.24,2.18,2.18,0,0,1,1.2-.33c.86,0,1.72-.13,2.58-.17a2.79,2.79,0,0,1,.7.22c.24-.52.56,0,.72.16s.08.37.45.34.54.6.29.95c.76.37,1.47.75,1.39,1.8,0,.3.3.62.42.85a6.83,6.83,0,0,0-.34,1,5.7,5.7,0,0,0,0,1h.86l-.07.88h-.17c-.06-.23-.12-.47-.21-.8a4.37,4.37,0,0,0-.29,1,2.14,2.14,0,0,0,.25.72l.55-.21.48,1-.19.1-.47-.66c-.3.28-.3.28.17,1.14l.46-.17c0,.2,0,.4-.05.6l.53.27-.51.32a2.61,2.61,0,0,0,.23.24,4.12,4.12,0,0,1,.69.54c.5.6.95,1.26,1.45,1.87.14.16.47.21.54.38.24.57.21.57.77.71.34.09.67.23,1.09.37l.6-.4a1.24,1.24,0,0,0,1.38.46c.56-.3,1.12-.6,1.65-1s.8-.79,1.28-.94a4.86,4.86,0,0,0,2.31-1.91c1.32-1.66,2.4-3.52,3.6-5.27a8.16,8.16,0,0,1,1-1l.25,1.37-.21,0-.24-.4c-.6.84.17.78.61.93l-.92.44,1.48,1.43-.78.46c.86.59.56,1.91,1.66,2.25a3.26,3.26,0,0,0,.64.94c.14.15.41.17.56.32.68.67,1.29,1.42,2,2a2.67,2.67,0,0,0,1.65.73,4.62,4.62,0,0,0,2.19-1,29.56,29.56,0,0,0,2.84-2.76,10.12,10.12,0,0,0,1-1.47c.07-.1.66-1,.74-1,.67-.52,1.33-1.07,2-1.58,1.21-.9,1.63-2.36,2.49-3.51A14.6,14.6,0,0,0,191.77,50c.34-.76.8-.87,1.61-.24l-1.21.7,0,.11.92-.16c0,.51-.39,1.17.5,1.26-.34.4-.68.78-1,1.15l.81.16c-.31.85-.74,1.66-.22,2.58a1.67,1.67,0,0,1,.15.71c0,.39-.05.78-.08,1.24.93.15,0,1.11.49,1.58l-.64.35v1.1l.51-.08a4.39,4.39,0,0,0-.35,1.25c.05.75-.51.69-1,.85l.08.76.23,0,.19-.65H193c0,.42.06.84.1,1.35l.6.3c-.51.31-.81.46-.84.63-.08.67.11,1.37-.29,2a3.07,3.07,0,0,0-.37.72,10.72,10.72,0,0,0-.2,1.07h.73c-.16.41-.27.77-.43,1.1s-.36.62-.54.94l.62-.09a2.49,2.49,0,0,0-1,2.21c0,.45.12.81-.27,1.2-.21.21-.13.7-.18,1.09l.7-.07.05.17-.87.37.17.08a7,7,0,0,1-.44,1.41c-.24.45.39,1.2-.54,1.37l.32.6-.28-.24-.57.75,1.62.72,0,.1h-1.27l-.24.64.31.11v1.42c-.74-.27-.77.36-.89.74-.06.17.27.44.35.69a3.77,3.77,0,0,1,.09.83l-.23,0-.45-.67c-.1.49-.17.82-.22,1l.49.39-.66.55.7,1a3.79,3.79,0,0,0-.47.31c-.22.21-.54.42-.57.67a11.21,11.21,0,0,0,0,1.75l.31,0c-.81.3-.87.94-.9,1.82l.63-1c.17.46.36.93.53,1.37l-1-.1.64.94c-.37.24-.35.76,0,1.14-.45.69-.9,1.38-1.41,2.14l.3.11-.72.3.06.14.75,0a4.5,4.5,0,0,1-.32,1,4.61,4.61,0,0,1-.65.68l.17.18.72-.57a5.84,5.84,0,0,1-.82,1.9c-.55.55-.37,1-.26,1.55.65-.12,1.85.61,1.82,1.21,0,.79.35.74.81.7.09-.27.09-.57.24-.69a2.2,2.2,0,0,0,.64-1.64c.07-.58.21-1.16.33-1.74.29-1.41.6-2.8.89-4.21.12-.6.14-1.22.29-1.81.3-1.21.73-2.38,1-3.6.43-2.35.77-4.72,1.11-7.09a6.35,6.35,0,0,0-.06-1.22c.08-.07.31-.18.34-.33.11-.59.15-1.18.21-1.77A24.73,24.73,0,0,1,194.1,76a37.55,37.55,0,0,1,1.22-4.42,3.91,3.91,0,0,0,.08-1s.3-.13.35-.29c.23-.63.35-1.31.58-1.94.48-1.29,1-2.57,1.51-3.85.43-1.06.86-2.12,1.34-3.16s1.13-2.32,1.66-3.49c.22-.48.29-1,.54-1.51.38-.76.88-1.47,1.29-2.22.21-.4.31-.87.53-1.27.42-.79.89-1.55,1.36-2.3a4.84,4.84,0,0,1,.57-.63l.31.1a5.86,5.86,0,0,0,.63,4.19l.46-.5.41,1.59c-.27-.25-1.32,0-.62-.79-.48.42-.28.74,0,1.18s.05.8.17,1.17a9.38,9.38,0,0,0,.66,1.3l.22-.47.45,1.27-.78.21v.12l.77.19-.51.31c.14.22.36.4.36.58,0,1.38.27,1.8,1.36,2.18l-.47.51.55.85.28-.08c-.05.36-.25.84-.1,1a2.66,2.66,0,0,1,.44,1s.09,0,.12.06c.55.48,1.1,1,1.63,1.45.35.32.6.81,1,1,1,.45,1.45-.55,1.85-1a24.47,24.47,0,0,0,2.06-3.37c.25-.44.5-.88.7-1.33s.3-1,.55-1.42c.37-.66.87-1.24,1.24-1.9a5.81,5.81,0,0,0,.35-1.26c.88-.33.84-1.44,1.36-2.17s1.26-1.42,1.35-2.22c.37-.44.7-.76,1-1.13a1.74,1.74,0,0,1,2.39-.57c.19.13.28.42.47.53.68.39,1.38.72,2.07,1.09a.74.74,0,0,1,.26.34c.24.71.43.77.94.33.46.35.89.94,1.36,1,1.23.08,2.09.81,3.18,1.4l-.75.25a9.51,9.51,0,0,0,1,1.24c.8.69,1.39,1.57,2.14,2.3a14.4,14.4,0,0,0,1.8,1.7,10.31,10.31,0,0,0,2,.89c.36.15.76.45,1.09.4,1.32-.2,2.72-.19,3.8-1.19.67-.63,1.43-1.16,2.1-1.79.41-.4.62-1.07,1.08-1.32.91-.49,1-1.47,1.54-2.15.07-.08-.08-.35-.11-.5s.34,0,.41-.16a11.85,11.85,0,0,0,.9-1.73c.46-1.16.89-2.33,1.26-3.52s.59-2.3.88-3.43l.69.22v1.11l.53.24-.42.25-.09,1-.38-.51-.3.54c.19.64.34,1.14.48,1.64l0,0c-.09.2-.27.41-.25.59s.32.22.5.32l.66.31-1,.5.86.11-.39.45A2.62,2.62,0,0,1,255.18,56c.08.19.32.48.44.46a4.86,4.86,0,0,0,1.08-.4c1-.42,1-1.52,1.63-2.21a7.23,7.23,0,0,0,.86-1.84c.47-1,1-2,1.38-3.1.59-1.58,1.13-3.18,1.64-4.79.39-1.22.71-2.47,1-3.72a.79.79,0,0,0-.09-.42,5,5,0,0,0,.38-.88c.34-1.59.65-3.19,1-4.78,0-.13.25-.22.39-.33a1.71,1.71,0,0,1,.12.41c0,.41,0,.82,0,1.23h0c.07.28.14.56.21.82l.62.2-.33,1.4-.16,0,.05-.68-.26,0a4.73,4.73,0,0,0-.11,1.53,8.49,8.49,0,0,0,.88,1.65l-.47.25a2.46,2.46,0,0,1,.45.65,4.37,4.37,0,0,1,0,.89c0,.35.11.7.15,1l.51.23-.48.54c.45.82-.61.33-.83.65l.69.3c-.24,1,.53,2.2-.38,2.92.14.43.25.76.35,1.09l-.18.06c-.1-.11-.19-.23-.28-.35l-.15,0c0,.29.06.58.08.89-.25,0-.58.21-.16.56s.15.62,0,.92c.09.24,0,.49.06.7s-.5.79.31.68c-.69.64-.06,1.2.19,1.85l.28-.5c0,.33,0,.76-.14,1-.75.87.08,1.58.16,2.36a3.79,3.79,0,0,0,.44,1h0l.39.78a1.39,1.39,0,0,1,.42.45c.05.07.14.1.2.16a11.46,11.46,0,0,0,.83.87c.58.49,1.16,1.25,1.8,1.32a4.77,4.77,0,0,0,3.27-.83,16.66,16.66,0,0,0,3.26-2.45c1.2-1.39,2.61-2.61,3.91-3.87l1.21.18c0,.12.1.36.17.6h-.41c0,.1,0,.26.11.29a2.34,2.34,0,0,1,1.16,1.18,4.61,4.61,0,0,0,.91,1l-.07.43.16-.09c.27.3.54.61.82.91.08.09.19.16.27.25.7.79,1.72,1.15,2.46,2a7.26,7.26,0,0,0,2.05,1.12c.07.11.12.29.23.35.56.31,1.15.58,1.72.86s1.17,1.06,2.05.57c.06,0,.19,0,.28.06a2.28,2.28,0,0,0,2.31-.31,9.21,9.21,0,0,0,1.09-1.23C298.49,61.34,298,59.16,297,57.89Zm-127.68-7.5c-1,.14-1.3.66-1,1.55,0,0,0,.12,0,.13-.81.47-.4,1.49-.87,2-1.29,1.47-1.89,3.47-3.61,4.61-.43.29-.83.82-1.32.5s-1.08-.18-1.24-.9c-.07-.27-.53-.44-.72-.71a14.1,14.1,0,0,1-1-1.57c-.86-1.58-.42-3.31-.53-5,0-.31.25-.65.39-1,.5-1.12.93-2.28,1.52-3.35.28-.49.89-.79,1.31-1.21a10.29,10.29,0,0,0,.67-.89l.43.19.37-1.05c.31.13.49.52.91,0a4.38,4.38,0,0,1,1.9-.91c.21-.08.5,0,.74.12.82.21,1.62.43,2.45.66.08.65.18,1.42.3,2.37l.56-.37c-.61,1.35-1.27,2.8-1.95,4.28Zm17.51.36a.55.55,0,0,0,.41-.31A.55.55,0,0,1,186.83,50.75Zm3-10.13c-.14.05-.34.17-.36.28-.08.52.17,1.11-.32,1.56a1.11,1.11,0,0,0,.3.34,5.06,5.06,0,0,1,.49.27c-.52.17-1.11.21-1.06,1a1.39,1.39,0,0,1,0,.67c-.29.61-.67,1.18-1,1.79-.07.15,0,.39.09.67l-.47.61.72.38-.75,1.64-.09-.59c-.22.15-.6.28-.62.44,0,.34,0,.64-.34.84,0,0,.09.19.13.29-.77,0-.27.67-.53,1l.71.22v.14h-.71c0,.23-.05.45-.09.83l-.41-.62-.33.65.65.31c.08.45-1.46-.17-.57.89-.8.49-1.56,1-2.35,1.43-.15.08-.54.07-.57,0a7.57,7.57,0,0,1-.88-1.78c-.39-2,.37-3.75.9-5.53a39.12,39.12,0,0,1,2-5.23A9.27,9.27,0,0,1,186.12,41c.45-.49.94-.92,1.33-1.3l2-.15c-.21.67.58.58,1.14.9A6,6,0,0,0,189.82,40.62ZM234.2,51.05l-.21-.14a10.3,10.3,0,0,1,0-2.08c.3-1.37.7-2.72,1.13-4.06a8.46,8.46,0,0,1,1.1-2.55A10.42,10.42,0,0,1,239.49,39a3.59,3.59,0,0,1,.86-.2c0,.51,1.42.3.74,1.33l-.32-.37s-.1.05-.11.08c-.23.82-.47,1.64-.67,2.46-.07.29,0,.63-.11.88a6.46,6.46,0,0,1-1.08,2,2.71,2.71,0,0,0-.44.69,16.16,16.16,0,0,1-2.86,3.78C235.06,50.16,234.64,50.6,234.2,51.05Zm27-16.1c.67-.15,1.26-.19,1.16.71l-.66.29.63.3c-.23.36-.69.79-.61,1,.29.7-.17.77-.68,1l.2-.73-.71.77.75.62.27-.24.14.14-1.13,1.24c.11.17.35.51.53.77l-1.19.56.75.68-.44.32.46.12,0,.1-1.24-.18,0,.23,1.23.49v.23l-.9.25a5.77,5.77,0,0,0-.58.22l.44.71-.84.58c-.29.2-.5.33-.15.72a5.32,5.32,0,0,1,.61,1.31h-1.46l.59,1h-1l-.1.16.42.31-1,.68.65.62-1.18.45a14.48,14.48,0,0,1,.69,1.32s-.34.23-.47.33a4.53,4.53,0,0,1-.34-.74,11.15,11.15,0,0,1-.33-2c-.07-2-.06-4-.11-6-.06-2.28-.17-4.56-.23-6.84a3.42,3.42,0,0,1,.14-.82l1-.36c.09,0,.2-.16.25-.14,1,.43,1.54-.49,2.31-.71s1.49-.6,2.26-.75a9.14,9.14,0,0,1,1.92.07l-2,.95Z"/><path class="cls-2" d="M97.37,62.45c-1.7.51-3.42,1-5.11,1.53-2,.66-4,1.41-6,2.11-2.27.8-4.55,1.58-6.81,2.4a7,7,0,0,1-4.94.19c-.61-.22-.76-.58-.33-1.09a1.33,1.33,0,0,0,.2-.22c.79-1.68,1.59-3.35,2.36-5,.24-.54.38-1.13.59-1.69a11.34,11.34,0,0,0,.78-4.72,7.26,7.26,0,0,0-1-3.52A2.64,2.64,0,0,0,74,51.89s0,0-.05,0a3.44,3.44,0,0,0-1.56,3.46l-.55-.06v.75l1-.23-1.12,1.23-.42-.31a3.24,3.24,0,0,0-.07.74c0,.21.24.41.23.61,0,.68-.13,1.36-.16,2s.06,1.52-.83,2l1,.39c-.87.63.06,2-1.06,2.38.16.15.39.26.39.37a5.72,5.72,0,0,1-.19,1.23c-.14.45-.36.89-.57,1.39l.71.49-.93.22.09.58c-.64-.3-.87-.23-1.35.41l.4.22-1.06.49.34.68s0,.08-.06.08S68,71,67.92,71s-.36-.06-.46,0c-.53.42-1.06.86-1.56,1.32-.21.2-.32.54-.55.66-.53.27-1.15.37-1.66.68a1.24,1.24,0,0,1-1.42.09,3.65,3.65,0,0,1-1.1-.92C60.58,72,60.1,71,59.55,70.16c-.19-.29-.53-.5-.66-.81-.31-.77-.5-1.6-.81-2.37-.66-1.58-1.36-3.13-2-4.69a2.11,2.11,0,0,0-2.15-1.43c-1,.08-2,.15-2.34,1.39-.11.42-.1,1-.37,1.21-.63.55-.67,1.33-1,2-.14.26,0,.7-.12.93-.37.51-.75.93,0,1.44.06,0,0,.28,0,.42a1.76,1.76,0,0,1-.34-.25,1,1,0,0,1-.13-.34l-.5.54c-.1-.58-.17-1.05-.27-1.52a12.4,12.4,0,0,0-1.89-5c-.47-.64-1-1.14-1.91-.87-.21.06-.48-.05-.69,0a4.2,4.2,0,0,0-1.28.55c-.2.15-.21.56-.31.85l.55-.07c-.09.22-.16.37-.23.53l.75.44a6,6,0,0,1-1.32.55c-.62.09-.85.56-1.15,1-.06.08.12.32.17.49a1.27,1.27,0,0,1,0,.22l-.64.11c-.3,1-1.09,1.84-.43,3l-.84.1-1.13,2.4a6.13,6.13,0,0,1-.71-1c-.56-1.37-1.08-2.75-1.61-4.13a15.35,15.35,0,0,1-.62-1.72,38.25,38.25,0,0,0-.9-3.73c-.37-1-.89-2.15-2.41-1.57,0,0-.09,0-.14,0-.34,0-.62-.12-.71.44a3.13,3.13,0,0,1-.67,1.1,3.48,3.48,0,0,0,.26.64,2.8,2.8,0,0,0,.54.45c-.06-.41-.09-.62-.12-.84l.25-.07c.07.22.24.47.18.65a3.31,3.31,0,0,1-.58.8l-.38-.77a3.8,3.8,0,0,0-.62.81c-.08.21,0,.49.09.74h0c-.29.64-.58,1.27-.84,1.92a6.65,6.65,0,0,0-.21.93c-.23.41-.48.84-.75,1.33L29,67l-.18.45-.5-.2c0,.79-.81,1.45-.13,2.09-.45.2-1.17.34-1.21.59-.1.65-.73.67-1,1.37-.17-.3-.26-.44-.33-.59a37.54,37.54,0,0,1-1.74-3.83,56.85,56.85,0,0,1-1.75-6.51c-.25-1.25-.12-2.52-.92-3.68-.54-.78-.95-1.2-1.9-1-1.15.26-1.39.5-1.4,1.52a3.54,3.54,0,0,1,.51-.3,3.53,3.53,0,0,1,.46-.15l.09.28-1,.36c-.49.17-.47.51-.33.9-.05,0-.12,0-.14,0a6.1,6.1,0,0,0-.35.53L18,59l-1.05.55,1,.25c-.51.57-1.66.49-1.22,1.57h.6c-.23.2-.53.22-.68.38a1.59,1.59,0,0,0-.3.73c0,.05.21.15.32.23l.32-.57s.07-.06.1-.09l.2,0a4.41,4.41,0,0,1-.31,1c0,.07-.53-.11-.78-.16a6.38,6.38,0,0,0-.5,1.51c0,.41-.7.92-.11,1.18a6.1,6.1,0,0,0-1,2.34c-.19.89-1,1.65-.7,2.58a3.26,3.26,0,0,0-.41.56,16.72,16.72,0,0,1-.81,2c-.29.49-.26.7.21.8-.3.21-.71.36-.88.65-.36.62-.58,1.32-.88,2a22.15,22.15,0,0,1-1.64,3.08c-.24.36-.74.79-.28,1.35-.9.47-1.28,1.07-1,1.62.22-.16.44-.32.65-.49L9,82.4l-1.46.88L7.8,84l-.19,0-.34-.54-.33.51.52.3a.76.76,0,0,0-1.1.49,6,6,0,0,1-1.48,2,1.77,1.77,0,0,1-.57.49c-.52.24-.47.48-.11.73l.28-.33c.08.16.23.31.23.46a1.91,1.91,0,0,0,1.43,1.75c.35,0,.76-.53,1.13-.83a1.81,1.81,0,0,0,.28-.33c.8-1,1.64-2,2.38-3.11.61-.89,1.08-1.87,1.62-2.8.74-1.31,1.53-2.6,2.22-3.94.51-1,.91-2,1.34-3,.3-.7.61-1.41.86-2.14.35-1,.63-2.09,1-3.13.49-1.43,1-2.84,1.53-4.27.44-1.27.84-2.57,1.3-3.84.06-.18.28-.29.43-.43l.14.14c-.68.61-.67,1,0,1.64-.18.25,0,1.51.25,1.57.7.18.57.82.78,1.28l.38-.23.6,1.43c-.65.51-.62.68,0,1.24a3.36,3.36,0,0,1,.51,1l-.15.19.85,0c-.26.88.63,1.19,1,1.68s.69,1.52,1.74,1.33l-.18.55c.38-.35,1.12.63,1.19-.18.3,0,.63.1.77,0a5.13,5.13,0,0,0,1.2-1.31c.88-1.61,1.68-3.26,2.46-4.91.13-.27-.07-.8.1-.93.57-.44.45-1.09.7-1.62.06-.13.35-.15.54-.22l.1.2.64-.6v1.3c.31.27.67.44.79.71a9.5,9.5,0,0,1,.39,1.55l-.19.11.73,1.07-.36.29.86.72-.57.19c.08.15.13.34.26.42a8.72,8.72,0,0,0,.92.47l-.47.37c.27.3.45.68.73.79a2,2,0,0,1,1.16,1.34c.24.68.77.64,1.23.7a1.12,1.12,0,0,0,.91-.36c.72-1,1.38-2.13,2-3.22.16-.28.11-.67.24-1,.67-1.56,1.32-3.13,2.08-4.64.23-.45.28-1.33,1.21-1l.05-.52.26.07c-.13.45-.26.9-.42,1.42l.77,0c.38.69.59,1.44-.41,2.07l.23.06.46-.38c.07.19.13.39.19.58.19.52.35,1-.34,1.35-.46.22-.26.63-.14,1a3.79,3.79,0,0,1,.43,2.46c-.1.34.16.71.66.64l.58-.09c.28.64.52,1.28.85,1.87a1.11,1.11,0,0,0,.74.36c.13,0,.37-.17.45-.33a12.72,12.72,0,0,0,.62-1.42c.54-1.4,1.07-2.81,1.6-4.21s1.17-3.08,1.76-4.61l1.69,1.33-.12.14-.45,0,0,.12c.33.22.67.43,1.08.71l-.65.19c.07.13.13.37.22.38.47,0,.46.38.54.71s.25.71.35,1.06c.18.6.33,1.2.51,1.84l.76-.2-.17.43c.45.17.88.4.57,1.06,0,.07.11.25.21.34.39.38.8.74,1.2,1.11l-.21.12a1.65,1.65,0,0,0,.22.44c.11.11.31.15.43.26.9.8,1.48,2,2.9,2.15l1.41.15.19-.39.1.21a9.23,9.23,0,0,0,1.73-.66c.69-.41,1.26-1,2-1.44.45-.26.53-.49.39-.77A4,4,0,0,0,70,73c.79-.9,1.49-1.87,2.28-2.77a.92.92,0,0,1,.83-.2c.36.2.58.65.93.88a17.14,17.14,0,0,0,1.77.88s.09,0,.14,0c.61,0,1.23.06,1.84,0a7.69,7.69,0,0,0,1.86-.2c.88-.24,1.71-.66,2.58-.93,1.06-.32,2.18-.46,3.2-.86s2.24-1.1,3.35-1.66c.67-.33,1.33-.69,2-1s1.64-.67,2.41-1.08c1.17-.63,2.31-1.31,3.43-2a7.38,7.38,0,0,0,1-.95c-.08-.18-.16-.4-.27-.65C97.46,62.47,97.41,62.44,97.37,62.45Z"/><path class="cls-2" d="M119.48,55.54h-.34l-.39.89C119.3,56.58,119.49,56.38,119.48,55.54Z"/></g></g></g></svg>