<svg xmlns="http://www.w3.org/2000/svg" viewBox="0 0 306.12 164.78"><defs><style>.cls-1,.cls-2{fill:#fe5f58;}.cls-1{opacity:0.2;}</style></defs><g id="Calque_2" data-name="Calque 2"><g id="Phrase_1" data-name="Phrase 1"><g id="P1_m1_2"><path class="cls-1" d="M304.74,140.62a15.93,15.93,0,0,0-5-6.89c-1.55-1.21-3.3-1.91-4.53-3.5-1.67-2.17-1.83-4.9-1.9-7.53-.19-7.7.25-14.28-4.49-20.83a28.38,28.38,0,0,0-16.58-10.75,31.39,31.39,0,0,0-8.95-.85c-.21,0-.81,0-1.5,0,4.37-13.51-6.86-25.79-20.36-25a28.5,28.5,0,0,0-16.81,6.66A18.26,18.26,0,0,0,221.77,75c-.88,1.2-1.35,3.16-2.26,4.21-2.23,2.56-7-.42-9.78-1.61-7.33-3.19-15.42-6.26-23.48-6.71-4.45-.25-7.72,1.15-11.88,2.14-2.14.51-1.65.78-3.72-.67a28.63,28.63,0,0,0-4.69-3.1c-3.54-1.61-7.68-2.16-11.5-2.66s-6.64.39-10.37,1.29c-3.88.93-4.81-2.15-7.71-4.16C133.09,61.46,129,60.6,125.13,60c-8.59-1.28-17.42-2.41-26.07-1.2-1.25.17-6.91,2.25-8.83,2.16.25-.34-1.25-2.48-1.41-2.65a12.68,12.68,0,0,0-4.09-3c-1-.49-2.91-.8-3.71-1.57s-.34-1.88-.11-3.71a118.91,118.91,0,0,0,1.24-12.07,36.48,36.48,0,0,0-6.48-22C67.47,4.32,50.83-1.56,37,.36A32.47,32.47,0,0,0,16.78,11.84a4.56,4.56,0,0,0-.94,4.28c-4.77,4.23-8,9.93-7.82,16.66C8.35,44,17.3,46.45,26.52,46.59c2.33,7.21.78,16,1.38,23.39.75,9.39.56,18.85,1.5,28.22.61,6,1.53,12.51-.1,18.41-2,7.07-10.95,6.19-16.89,7.77C6.05,126.08.05,130,0,137.28c0,6.68,4.74,13.54,10.32,16.9,11.3,6.79,27.6.2,38.46-4.68,6.89-3.09,14-5.63,20.88-8.74,4.2-1.9,7.82-3.48,12.28-1.48,3.29,1.46,6.18,3.34,9.86,3.71,8.45.86,16.94-2.9,23.62-7.75,1.42-1,3.33-3.09,5-2.65,1.06.26,2.27,1.72,3.31,2.26,3.87,2,8,1.17,12,.09a23.43,23.43,0,0,0,3.15-.84,3.21,3.21,0,0,1,.81-.25,17.71,17.71,0,0,0,1.34,2.81,16.62,16.62,0,0,0,7.36,6.29c8,3.67,14.67.9,22.52-1.22,4.68-1.26,7.37.91,11.21,3.3a25.63,25.63,0,0,0,11.48,4.16c7.76.7,17-2.15,23.64-6.1.95-.57,2.79-2.42,3.87-2.52l.4,0c.32.43.85,1.33,1,1.57a21,21,0,0,0,8.06,6.49c5.44,2.66,12.79,4.72,18.6,1.92,1.21-.59,2.19-1.89,3.41-2.35,1.84-.7.95-.17,2.19,1.63a32.73,32.73,0,0,0,6.64,7.06,37,37,0,0,0,20.34,7.78c6.62.55,15.12-.17,20-5.24C306.57,154.48,307.13,146.7,304.74,140.62ZM140,133.83c.67,0,.46.53,0,0Z"/><path class="cls-2" d="M242.68,88.7h.19a4.74,4.74,0,0,0,3.9-.19l.15-.21,1.21-.37,0-.09h0v.09l.57-.21a1.11,1.11,0,0,0,1-.38c.25-.47,1.06-.09,1.18-.77.51-.16,1.08-.21,1.35-.79.52.07.83-.26,1.15-.58a1.06,1.06,0,0,0,1-.43h0l.18-.17a.67.67,0,0,0,.65-.69c0-.33-.53-.42-.69-.36-.82.29-1.07-.36-1.43-.8-.19-.22-.32-.48-.66-.47v-.2c.33-.49-.25-.64-.37-1h0l-.22-.57h0c-.38-.38-.73-.24-1.11,0s-.89.59-1.32.88c-1.27.85-2.84,1.12-4,2.17l-.39.2a2.37,2.37,0,0,0-1.93.56l-.22,0c-.39-.34-.59-.09-.76.25h0a.42.42,0,0,0,0,.55.15.15,0,0,1-.13,0h0C241.11,86,241.5,87.91,242.68,88.7Zm6.62-5.63ZM244.45,85h0l0,0Zm4.85-2h0v0h0Zm-.06,4.14,0,0,0,0Z"/><path class="cls-2" d="M301.21,149.05a1.67,1.67,0,0,0-1.11-.25h0a1,1,0,0,0,0-.17,1.15,1.15,0,0,0-1-.59l-.38-.2a.39.39,0,0,1,0-.15,1.94,1.94,0,0,0-.6-1.79h0c-.46-.3-.89-.7-1.51-.57l-.6-.21-.2-.22c-.28-.3-.64-.13-1-.17h-.19a2.47,2.47,0,0,0-1.36-.62h0c-.32-.47-.91-.29-1.36-.56a8.42,8.42,0,0,0-3.14-1.15l-.58-.16h0a.26.26,0,0,0-.15,0l-.22-.21h0a1.29,1.29,0,0,0-1.43-.58h0l-.52-.4-.21-1.42h0c-.35-.46,0-.89.07-1.33.26-.31.11-.67.12-1h0a.08.08,0,0,1,0-.1h0c0-.37.28-.7.18-1.09h0c0-.16,0-.31,0-.47a.68.68,0,0,0,0-.83l0-.19c0-.2,0-.4.07-.6s.11-.25.17-.37a.63.63,0,0,0,.08-.23,4.28,4.28,0,0,0,.11-1.71h0c.35-.33.12-.77.21-1.15.29-.3.14-.68.17-1h0a.17.17,0,0,1,0-.17c.33-.45.12-.94.14-1.42l0-.5c.36-.55.17-1.17.23-1.76.39,0,.41-.32.41-.63s0-.88,0-1.32l.06-.43h0c.12-.91.41-1.83-.18-2.69h0c0-.13-.07-.26-.11-.4.34-.26.06-.51,0-.77l-.17-.38c-.12-.33,0-.8-.55-.89h0l.14-.21h0c-.18-.42-.18-1-.93-.72a.31.31,0,0,0,0,.1h0a.08.08,0,0,0,0-.1l-.21.06a.45.45,0,0,0,0-.16c0-.08,0-.16,0-.23h0c-.17-.87-.92-.64-1.47-.78.05-.27-.12-.47-.23-.69,0-.38-.06-.74-.51-.86l0-.2h0a2,2,0,0,0-.59-1h0a1.53,1.53,0,0,0-1.17-.58h0c-.29-.33-.66-.15-1-.18h0l-.3-.19c-.28-.2-.56,0-.85,0h0a.19.19,0,0,1-.15,0h0c-.29-.11-.58-.38-.83,0h0l-.51,0h-.89a14,14,0,0,1-3.23,0h0c-.41-.39-.91-.12-1.36-.21h-1a2.12,2.12,0,0,0-1.36-.36l-.19-.21c-.47-.33-.79-.85-1.33-1.09a.35.35,0,0,0-.12-.07h0l-.68-.23-.2-.24a1.28,1.28,0,0,0-.82-.9.5.5,0,0,1-.35-.41,2,2,0,0,0-.77-1.16h0a1.13,1.13,0,0,0-1.3-.85.87.87,0,0,0-.84.87V108c-.17.16-.39.29-.32.58s-.33.64-.15,1l-.12,2.88c-.33.31-.15.7-.17,1.06h0v0h0c-.07.32-.13.63-.2.94h0c-.1.44-.19.88-.29,1.32-.09.18-.17.35-.25.53s-.13.56-.2.84a1.06,1.06,0,0,0-.24.77c-.08.06-.11.12-.1.17a4.14,4.14,0,0,0-.71,1.55.67.67,0,0,0-.37.75l-.18.43a1.25,1.25,0,0,0-.41.65l-.78,1.28a.58.58,0,0,0-.38.56c-.18.51-.76.78-.79,1.38-.39,0-.54.25-.55.61a.92.92,0,0,0-.61.71s.05,0,.08.06l-.08,0V126l-.2,0a.61.61,0,0,0-.39.59h0l-.34.4h0c-.28.1-.59.18-.64.55l0,0h0l0,0c-.48,0-.58.37-.58.78-.47,0-.68.34-1,.59a1.63,1.63,0,0,0-1.36.55l-.35.25c-.37.05-.79-.16-1.12.13l-.08.08h0l-.4.17c-.12,0-.17,0-.19.15h0l-.19,0c-.16-.52-.79-.65-.95-1.16l-.21-.2h0a4.35,4.35,0,0,0-.28-1.56h0l-.12-.77,0-.19c0-.25,0-.51,0-.76h0c.56-.47,0-1,0-1.44a7.22,7.22,0,0,0-.13-2.66l-.1,0s0,0,0,0h.05l0,0-.11-.23a.48.48,0,0,0,.05-.17h0l.19-.15h0a14.47,14.47,0,0,0-.14-3.54l0-.22h0c.22-.22.12-.5.14-.76s0-.43-.2-.57l0-1.16h0c.34-.32,0-.7.08-1h0c-.22-.3,0-.63-.08-.94h0c0-.32,0-.64,0-1l.2-.17h0c0-.79,0-1.57,0-2.36h0c.38-.36.1-.69,0-1h0l0-2.45c0-.9.15-1.83-.63-2.54h0c-.35-.12-.46-.65-.94-.56l-.58-.27a1.57,1.57,0,0,0-1-.72l-.17-.21-.16-.79a1.2,1.2,0,0,0-.35-.75h0l-.45-.52h0c-.14-.38-.41-.41-.74-.29h0a.7.7,0,0,0-1,0c-.39.14-.83.11-1.17.38l-.38.2a1.2,1.2,0,0,0-1,.36h0l-.19,0c-.27-.25-.29,0-.39.18a7.05,7.05,0,0,0-1.76,1.13l-1,.63h0c-.47-.06-.6.46-1,.57a.59.59,0,0,0-.57.35h0c-.45.43-1.15.37-1.59.83-.39.22-.68.27-.83-.29-.08-.32-.11-.71-.47-.89-.1-.17-.34-.27-.26-.53s.07-.58-.33-.63h0c-.14-.33-.28-.66-.43-1s-.25-.39-.37-.58h0a.66.66,0,0,0-.4-.58l0,0h0l0,0c-.19-.31-.4-.58-.81-.57h-.17a.75.75,0,0,0-.38-.65h0c-.18-.29-.51-.36-.78-.52l-.2-.15c0-.27-.3-.27-.39-.45s.3-.36.38-.59h0a1,1,0,0,1,0-.17c.19-.15.59-.25.15-.57h0l-1.13-.27a7.15,7.15,0,0,1-2-2.86h0c-1.11-.76-2.29-.17-3.44-.17-.76.19-1.53.33-2.27.59s-1.83.49-2.26,1.48l.05,0,0,0,0-.07c-.37.23-.92.15-1.17.62h0a1.93,1.93,0,0,0-1,.8l-1.11,1.4a.48.48,0,0,0-.42.55c-.23.13-.29.38-.4.59-.12.41-.68.7-.36,1.25a6.18,6.18,0,0,0-1.39,3.4c-.24.13-.5.25-.21.58-.5.19-.4.58-.33,1-.81.49-.77,1.32-.82,2.11h0c-.09.06-.18.13-.13.26h0c0,.12,0,.25-.08.37A5.5,5.5,0,0,0,209,110l.1-.17a.27.27,0,0,1-.1.17c-.26.16-.06.42-.13.61a2.87,2.87,0,0,0-.43,1.66h0l-.13,1.89-.1.37c-.38.62-.1,1.3-.18,2h0c.07.26.13.52.2.77a.8.8,0,0,0,0,1c0,.38,0,.76,0,1.14,0,.22-.05.44.15.61s-.17.29,0,.41c.05.32-.12.68.19,1l.09.39a3.52,3.52,0,0,0,.7,1.81,2.94,2.94,0,0,0,1.88,2.86c.22.28.58.22.87.35h0c.23.19.43.43.77.27l.56.17a2.77,2.77,0,0,0,2.55.15h.17a9.1,9.1,0,0,0,4.48-.77c.06-.19.21-.21.38-.19.32.26.45,0,.62-.21l.59-.33a.94.94,0,0,1,.74-.21c.41-.08.82-.17,1-.64,0-.21.37-.09.36-.34l.31-.35.07,0,.05,0h0l.2,0a1,1,0,0,0,.79-.72c.44.19.51-.26.75-.42a.62.62,0,0,0,.43-.37c.25-.12.15-.38.22-.57.43,0,.6-.18.58-.59.45.1.4-.33.57-.53h0c.37-.14.67-.3.26-.74a.3.3,0,0,1,.09-.48.17.17,0,0,0,.15,0c.59.39.58-.06.62-.43h0l0-.27h0c0-.1,0-.19,0-.28h0l.05-.24h0c.18-.12.31.35.52,0a1.1,1.1,0,0,0,.37-.65c.34-.18.61-.39.21-.77,0-.28.42-.1.38-.39.17-.16.4-.3.2-.59v-.19a.77.77,0,0,0,.39-.59.61.61,0,0,0,0-.81h0a.18.18,0,0,0,.09-.12c.66-.11.63-.53.47-1l.16-.41c.32-.25.13-.62.21-.92h0l0,0v0a.68.68,0,0,0,0-1h0c0-.1,0-.2,0-.3.62-.07.59-.42.37-.85a.47.47,0,0,0-.17,0h0v0a.22.22,0,0,0,.18,0,1.62,1.62,0,0,1,1-.79,1.47,1.47,0,0,0,1-.36c.33-.06.34-.43.58-.58a1.38,1.38,0,0,0,1.74-.75l-.05-.08.09,0,0,.07-.06,0a1.46,1.46,0,0,0,1.22-.6c.15,0,.3,0,.37-.15s.61-.18.61-.58c.28.15.49.15.55-.24.64.06.95-.46,1.37-.77l.36-.23c.49-.06.75-.44,1.08-.73h0c.18,0,.29,0,.32-.2a.47.47,0,0,1,.51,0c0,.24-.08.49-.13.73s-.12.71.15,1c0,.12,0,.24,0,.37a6.37,6.37,0,0,0,0,2v.19c-.06.14,0,.19.13.22a2.12,2.12,0,0,0,.22,1.52c-.26.12,0,.23,0,.35-.76.58-.29,1.3-.22,2-.52.2-.16.41,0,.62,0,0,0,.07,0,.1a2,2,0,0,0,0,2.26c-.12.13-.27.26-.18.47-.29.39,0,.82-.12,1.23s-.16.67.1,1c0,.75,0,1.5,0,2.25,0,0,.14.07.22.11a.32.32,0,0,0,0,.16l-.17.2c-.21.2-.33.39.11.41-.28.34-.13.78-.25,1.16.08.25.26.48.14.77a1.17,1.17,0,0,0,0,1.37l.25.38c.11.78-.19,1.63.41,2.32a1.69,1.69,0,0,0,.35,1.39c-.06.52-.09,1,.59,1.18a.11.11,0,0,1,0-.13h0a.73.73,0,0,1,.08.09l-.07,0a2.59,2.59,0,0,0,1.51,2.33.28.28,0,0,0,.11-.13.24.24,0,0,1,0,.09.12.12,0,0,1-.13,0,.29.29,0,0,0,.07.18.6.6,0,0,0,.19.06.35.35,0,0,1-.19-.06c-.39.5,0,.51.36.59h0c-.06.74.55.77,1,.94.21.38.62.3,1,.4s.51.21.77,0c.75.42,1.56-.07,2.33.15a2.09,2.09,0,0,0,1.76-.16,2.08,2.08,0,0,1,.85-.55h.05c.71.31,1.07-.18,1.43-.64.05.21.12.1.2,0,.33.09.44-.17.58-.37a2.57,2.57,0,0,0,1.17-.79.57.57,0,0,0,.56-.42h0l.4-.56c.43-.08.56-.5.85-.75l.17-.2h0l.38-.57a1.52,1.52,0,0,0,.57-.61l.27-.55c.11,0,.16,0,.14-.15a1.8,1.8,0,0,0,.76-.83l.53-.62,0-.19c.16-.35.55-.54.62-1a1,1,0,0,0,.46-1c.36-.14.44-.45.52-.77.27-.21.2-.57.37-.82a4.71,4.71,0,0,0,1-2,1.23,1.23,0,0,0,.41-1,.92.92,0,0,0,.16-.77,1.18,1.18,0,0,0,.44-1,.85.85,0,0,0,.15-.8,4.51,4.51,0,0,0,.4-2.53l.55-.19a6.45,6.45,0,0,0,1.73,1,.27.27,0,0,0,.05.15.83.83,0,0,0,.62.35l1,.19a7.91,7.91,0,0,0,1.93.24l0-.09h0l0,.08a2.15,2.15,0,0,0,1.74,0,2.13,2.13,0,0,0,2,0l.06,0,0,0c.45.07.91.4,1.37,0,.47.52,1.06.07,1.58.19.41.35.9.16,1.36.17a1.45,1.45,0,0,1,1.32.91,4,4,0,0,1,.29,1c0,.28-.13.57.13.81-.35.33.43.64,0,1s-.27,1-.37,1.53l0,1h0c0,.64,0,1.28,0,1.92-.16.18-.39.33-.2.62a.09.09,0,0,0,0,.12l-.16.25c-.22.17-.15.4-.15.62v.36a1.58,1.58,0,0,0-.11,1.34,1.15,1.15,0,0,0-.29,1l0,.2c-.08,1-.17,1.94-.25,2.91a6.13,6.13,0,0,0-.35,2.91c-.09.23-.18.46.1.63-1,.55-.27,1.25-.18,1.9,0,.13,0,.26,0,.39a.49.49,0,0,0,0,.78,1,1,0,0,1,0,.17c0,.55-.18,1.17.57,1.43a.34.34,0,0,0,.07.15c-.2.53.08.81.52,1a5.37,5.37,0,0,0,1,1.82c0,.37.43.24.52.48h0a1.23,1.23,0,0,0,.63.39l.19.2h0a2.15,2.15,0,0,0,1.57.57c.2.47.73.06,1,.36a.47.47,0,0,0,.56.22l.15,0c.71.88,1.77.94,2.76,1.17a.82.82,0,0,0,1,.53,10,10,0,0,0,3.11,1l.58.21c.13.19.26.05.39,0l.19.19c.26.41.61.31,1,.2-.06.31.08.44.39.41.17.15.27.58.59.16h0l1.14-.16c0,.37.25.18.41.2.21.27.42.57.6,0h0c.27,0,.58.07.78-.21S301.58,149.51,301.21,149.05Zm-52.91-16,0,0h.05v0Zm16.52-25.41.05-.09h0a.13.13,0,0,1,0,.1Zm-18.06,1.48Zm0,1v0h0l0,0s0,0,0,0v0Zm.77,9.27Zm-.19.2v0Zm-.58,3.32h-.06l.06,0ZM247,120l0,0H247l0,0Zm0,0Zm-.45-5.35v0a.05.05,0,0,0,0,0Zm-.52,4.42s0,0,0,0,0,0,0,0Zm.28,5.79-.08,0s0-.08,0-.11Zm.44-2.44v-.06h0l0,0Zm0-.63-.05,0v0Zm.55-1.94h0Zm.2-1v0h0Zm-.48-3.76,0-.09v0Zm0,5.23h0Zm.25-.72Zm.19-.19Zm-.21,9.92h0v0h0Zm.16-6.05h0v0h0Zm-.36-2.1s0,0,0,0h0Zm.23-10.3.06,0h-.07Zm.3,0h0Zm9.06,16.56.09.08h0a.34.34,0,0,0-.09-.08Zm-1,3.31h0l.07.07h0Zm-.26-.05s0,0,0,.06l0,0ZM259,128v0h0Zm-8.17,3.69Zm3.49-1h0Zm8.24-6.36h0l.07.07h0A.23.23,0,0,0,262.59,124.37Zm1.28-2.78h0ZM261,121a1.35,1.35,0,0,0,.32.09A.62.62,0,0,1,261,121Zm-14.43-13.44a0,0,0,0,1,0,0h0l-.07,0A.17.17,0,0,1,246.55,107.53Zm16.54,17v0h.05v0Zm1-2.15h.05l-.05,0Zm2-5.1h0a.45.45,0,0,1,.11,0h0Zm5.79-2.87Zm2.41-.64h0l0,0Zm-7.07-3.46ZM255.73,128h-.06s0,0,.06,0Zm-9.37-23.95Zm-1-1.54-.05-.06h0l.06,0h.05S245.38,102.52,245.37,102.55Zm-16.78,16.53-.11,0h0a.27.27,0,0,0,.12,0Zm13.59-17.26Zm-19.62-4.13c.63.13,1.12.63,1.79.65,0,0,0,0,.07,0a.37.37,0,0,0,.15.22.38.38,0,0,0,.1,0c.46.52.8,1.19,1.61,1.27a7.2,7.2,0,0,0,1.67,3s.05,0,.08,0c0,.91.41,1.78.28,2.7,0,.26,0,.52,0,.79l0,0a5.88,5.88,0,0,0-1.53.41l-1,.2a.8.8,0,0,0-.15,0c-.23,0-.47-.09-.62.16-.48-.1-.9.2-1.36.22-.38-.37-.57,0-.79.21h0c-.79,0-1.54-.58-2.36-.2a.16.16,0,0,0-.16,0l-.2-.06c-.1-.77-.71-.56-1.18-.61h0a1.7,1.7,0,0,0-1.74-.4H217c-.16-.33-.16-.9-.8-.57-.18-.26-.26-.59-.59-.72.35-.15.28-.51.39-.78l.3-.65,0-.19a.58.58,0,0,0,.26-.58l.17-.37a1.18,1.18,0,0,0,.67-.82,1.31,1.31,0,0,0,.21-.2,1,1,0,0,0,.07-.68s.06,0,.08,0l0,0c.24.22.38,0,.49-.23a.45.45,0,0,0,.12.06c.65-.31,1-.93,1.62-1.33a.28.28,0,0,0,.06-.37l.1,0A3.77,3.77,0,0,0,222.56,97.69Zm3.73,2.12,0,0h0S226.29,99.79,226.29,99.81Zm12.88,3.48h0Zm-2.74,2.35h0l0,0h0l0,0Zm-1.34.17h0l0,0Zm-5.68,11.08h0v0l0,0Zm-2.49.38,0,0h0Zm-1.59,2.19h0l-.1.1h0A.32.32,0,0,0,225.33,119.46Zm-3.07,2.32h0v0h0Zm1.88,0h0Zm-.35.16h0v0Zm7-16.74Zm.59-.56Zm-6.2,3.26h0v0Zm1,.8h0v0l0,0h0Zm4.49,3.16h0l0,0h0l0,0Zm-5.3-4.1-.06,0,.05-.06s0,0,0,0Zm-13.18,6.38h0l0,0A0,0,0,0,1,212.16,114.17Zm-.82,4.1Zm.38-8.16Zm-.2,7.77h0v0h-.12a.21.21,0,0,0,.11,0Zm0-.19h0v0h0Zm.81-6v0l0,0h0l.09-.12h0S212.39,111.58,212.38,111.64Zm-1,7.8h0s0,0,0,0S211.34,119.45,211.34,119.44Zm.68-10.81h0Zm18.07-7.55,0,.08s0,0,0-.07h0Zm-10.56,6.76h0Zm-3.89-2h0Zm.19-1.77h0l0,0,0,0s0,0,0-.06Zm-2.89,10.31a.35.35,0,0,0-.07-.12l.07,0A.17.17,0,0,1,212.94,114.37Zm13.86,6,0,0s0,0,0,0ZM230.24,102h0Zm-9-7.61h0Zm-5,29.05c0-.26-.16-.29-.38-.22a.28.28,0,0,0,0-.09.75.75,0,0,0-1.15.08s0-.08-.08-.1l-.22,0c-.09-.19-.19-.32-.41-.15l0,0a1.21,1.21,0,0,0-.56-.19l-.07,0a1.14,1.14,0,0,0-.36-1.41l0-.68a.26.26,0,0,0,.07-.17c0-.09-.06-.16-.09-.23,0-1-.07-1.94-.1-2.91.27-.21-.06-.38,0-.58h0a1.06,1.06,0,0,0,0-1.18h0l.2-.54h0c.2-.25.08-.54.12-.81h0l.07-.19c.22-.37.61-.71.19-1.18l0-.19.18-.19c0-.38,0-.76,0-1.14h0a.91.91,0,0,0,.33-1.39h0l.26-.37h0a.73.73,0,0,1,1.13-.4c.06.2.24.15.39.19.36.71,1.1.76,1.74,1l.79.23a1.45,1.45,0,0,0,1.12.36c.07.36.26.26.46.13l.54.08h0c.12.56.74.77,1.58.55l.57,0c.46-.08.93.21,1.4,0a1.61,1.61,0,0,0,1.34-.07,5.62,5.62,0,0,0,2-.14c.35,0,.75-.17.5.44a.64.64,0,0,0-.08.52c-.31.4-.7.77-.47,1.36l-.36.35a1.62,1.62,0,0,0-.53,1l-.81,1.54c-.36.12-.34.48-.44.76-.37.12,0,.26,0,.38a.1.1,0,0,0-.14,0c-.42,0-.63.15-.56.59-.11.17.1.47-.22.56-.08-.17-.24-.14-.38-.15a2.07,2.07,0,0,0-1.57,1.51.58.58,0,0,0,0,.19c-.35.17-.81,0-1.08.4h0a24.38,24.38,0,0,1-3.05,1.35c-.21.07-.26.27-.32.44-.49-.14-.36.23-.41.45a.52.52,0,0,0-.3.16l-.06.08s0,0,0,0A.73.73,0,0,0,216.23,123.39Zm9-25.81h0s0,0,0,0Zm-9.46,26.54h0Zm5.13,1.46h0Zm8.34-8.36v0h0ZM233.5,107v0l0,0h0Zm6-2.29h0Zm2-3.91h0l0,0h0l.05,0,0,0Zm-5.64,2.37h0ZM224,93.21Zm-9,4.21s0,0-.06,0Zm-2.77,9.35s0,0,0,0,0,0,0,.07Zm15.83,12.76a.2.2,0,0,0,0-.11h0v.1Zm3.14-6.07Zm2.71-5.12h0v0h0Zm7-3.85,0,0c0-.2,0-.28.06-.28s0,.21,0,.32l.1.09h0S241,104.5,241,104.49Zm-3.65-1.95Zm0,0-.06,0,0-.08-.06,0,.07,0v0Zm-8.6-3.92h0ZM209,118.28v0h0l0,0Zm21.62-3.49h0Zm13.69,1.11V116h0A.26.26,0,0,0,244.29,115.9Zm-.07,5.11h0a.25.25,0,0,0,0,.08h0V121Zm38.18-6.86h0l0,0h0A.08.08,0,0,0,282.4,114.15Zm1.74,24.74v0c-.07,0-.11,0-.12-.07Zm.75-.39Zm-.65-3Zm1.87-9.58,0,0h0Zm-.92,5,.1,0h0a.2.2,0,0,0-.11,0Zm.69-5.22,0,0h0ZM284,126.75l-.06.06S284,126.75,284,126.75Zm2.22,3.17Zm.17-10.27h0Zm-4.15,15.49s.07,0,.08,0,0,.25.06.34l0,.05c0-.31,0-.4-.13-.41Zm9.25,9.35h0s0,0,0,0Zm3.53,1Zm-9-26.84h0a0,0,0,0,1,0,0v0Zm0-.19h0l0,0Zm0,0,0,0h0Zm12.11,28.89v0h0l0,0ZM288,142.45h0l0,0Zm-1.52-.85h0Zm-.23-8.93h0Zm.16-1h0l0,0Zm-4.84-18.82h0l0,0Zm-16-5.24h0l.06-.05ZM260.73,120h0v-.06S260.71,120,260.73,120ZM259,123.26h0Zm-1.09,2-.05,0h0v0Zm-.62.43ZM249,129.92h0v0Zm-.66-20.61h0l0,0Zm-.68-5.83h0a.16.16,0,0,1-.09,0Zm-3.37-2.32h0Zm-.58-1.75h0Zm-3.25,1h-.06l0,0,0,0h0s0,0,0,0l0,0S240.4,100.34,240.41,100.37Zm-1.1.23h0Zm-2.05,1.54h0Zm-4.43,2.54a.14.14,0,0,0,0,.07l-.06,0Zm-7.06-10h0Zm-14.25,8.55v0h0l0,0Zm-1.47,4h0a0,0,0,0,1,0,0v0Zm16.26,15.67h0Zm6.25-10.66Zm14.28,19.83Zm16.47-7.57Zm1.32-1.76h0v0Zm3.58-8v0h0A0,0,0,0,1,268.21,114.74Zm8.16,1.93s0,0,0,0v0Zm8.55,27.89h0l0,0Zm6,2.4s0,0,0,0h0v0h0s0,0,0,0l0,0Z"/><path class="cls-2" d="M200.82,108.52h0V108h0c-.06-.59.2-1.21-.17-1.77h0l0-1.34c0-.33.12-.69-.14-1h0c-.08-.13-.15-.27-.23-.41.09-.41.57-.9-.23-1.14h0c.23-.36.08-.8.22-1.18a5.65,5.65,0,0,0-.17-2.55l0,0,0,0a4,4,0,0,0-.18-1.72l-.22-.41c0-.25,0-.5-.05-.75a5.55,5.55,0,0,0-.37-3.36c0-.2,0-.41-.17-.56s.09-.57-.21-.77v-.55h0a2.08,2.08,0,0,0-.37-1.41h0c0-.41,0-.84-.58-1-.27-.38-.36-.94-1-.94-.18-.3-.58-.14-.79-.38a.82.82,0,0,0-.64-.4l-.33-.41a1.35,1.35,0,0,0-.37-.8c-.18-.53-.23-1.19-1-1.23h0c0-.23-.17-.29-.36-.33-.66-.21-1.33-.48-1.74.4-.34,0-.48.3-.74.41-.86.24-.9,1.07-1.21,1.7l-.19,0c-.49-.33-.4.24-.59.38s-.4.46-.55.72h0L187,89.48a.71.71,0,0,0-.41.58,2.48,2.48,0,0,0-.57,1.13l.09,0h.08v0a.37.37,0,0,0-.18,0l-.78,1.2-.38.58c-.13.29-.26.57-.38.86h0c-.34.12-.38.41-.38.71a1.86,1.86,0,0,0-.59.8h0l-.6.94-.38.55h0c-.27.15-.17.4-.17.63h0c-.27.09-.3.37-.43.57h0l-.2.19a.89.89,0,0,0-.39,1.15l-.35.23c-.3.26-.68.48-.6,1-.36.12-.41.41-.4.74-.3,0-.37.23-.47.43h0a10.45,10.45,0,0,0-1.28,2.25l-.26.27a.63.63,0,0,0-.33.58c-.16.17-.38.3-.36.57-.29.19-.63.34-.61.78a1,1,0,0,0-.38.8c-.42.11-.53.52-.76.81a1.75,1.75,0,0,0-.89-.6l-.31-.42c-.07-.12-.15-.24-.23-.36s-.15-.42-.22-.62h0a.46.46,0,0,0-.33-.57h0v-.18c-.38-.2-.83-.72-1,.22h0a.17.17,0,0,1,0,.14h0a1.3,1.3,0,0,0-.58,1.41h0c.29.7.16,1.61,1,2.08l0,.2c-.47.57.42.45.4.79l0,1-.2.33-.6.77h0l-.39.79a1,1,0,0,0-.58.73h0c-.22.34-.43.69-.65,1a1.46,1.46,0,0,0-.54.93l.05,0h0l-.05,0a.58.58,0,0,0-.56.58l-.6.81c-.26.39-.51.78-.77,1.16h0a2.08,2.08,0,0,0-.55.86c-.05.11-.09.22-.13.33h0l-.09.17-.35.24h-.49c-.09-.07-.12-.15,0-.24a.08.08,0,0,0-.1,0s0,0,0,0a.16.16,0,0,0,.09,0c.53-.35.08-.8.08-1.19a6,6,0,0,0-.18-2.73.07.07,0,0,1,0-.1h0c0-.47.15-1-.11-1.4h0l0-.22a.32.32,0,0,0-.17,0v0l.16,0a10.19,10.19,0,0,0-.21-3.3h0a8.27,8.27,0,0,0-.11-2.63c-.1-.47.17-1.06-.34-1.43h0l-.13-.19c.31-.2.11-.51.17-.76h0a5.92,5.92,0,0,0-.17-2.37h0c-.26-.42-.07-1-.4-1.37l-.08-.26h0c.16-.31,0-.61-.05-.92.65-.57.09-1-.11-1.56h0l0-.32c0-.38.09-.76-.29-1,0-.14-.07-.27-.1-.41s0-.43-.16-.58h0l0-.73c0-.34.13-.7-.15-1h0c-.21-.66-.41-1.31-.62-2h0a1.11,1.11,0,0,0-.36-1.22s0-.07-.12-.13h0l-.29-.79c-.13-.48,0-1.06-.54-1.36h0a.25.25,0,0,1,0-.18h0a1.48,1.48,0,0,0-.62-1h0l-.14-.26c-.08-.28-.15-.57-.44-.71l-.37-.21a.46.46,0,0,0-.37-.38l-.2-.24c-.12-.38-.34-.57-.75-.42h0l-.21.06c-.12-.36-.76-.35-.62-.88s-.47-.86-.79-1.25h0l-.75-.73h0a1.52,1.52,0,0,0-1.17-.8c-.28-.38-.67-.17-1-.2h0a.09.09,0,0,1-.12,0c-.93-.39-1.63.12-2.35.57l0,0h0l0,0c-.75,0-1.19.6-1.74,1h0c-1.09.46-1.68,1.51-2.59,2.18l-.12.16a.89.89,0,0,0-.6.94l-.23.22c-.85,0-1.05.73-1.36,1.32h0c-.23.3-.82.3-.72.87l-.19.35-.61.38a5.93,5.93,0,0,0-1.58,1.94h0a1.73,1.73,0,0,0-.75.85h0c-.1.2-.27.39-.2.64h0c-.3,0-.28.39-.52.47-.33.29-.85.43-.83,1a.25.25,0,0,1-.05.15h0c-.42.37-.89.7-.74,1.37l0,.18a.52.52,0,0,0-.16.06l-.8.73c-.32.53-.64,1.06-1,1.59a.16.16,0,0,1,0,.16c-.59.16-.62.71-.77,1.17l-.15.4c-.27,0-.23.2-.18.38-.3.25-.72.45-.48,1a.5.5,0,0,0-.53.48h0c.15.27-.18.31-.23.49-.48-1.12-.29-2.35-.57-3.5v-.38c0-.34.12-.71-.17-1h0c-.1-.64.14-1.31-.17-1.93-.1-.28,0-.65-.42-.78,0-.06,0-.12,0-.18h0c.2-.08.2-.25.17-.42h0c0-.3,0-.59,0-.89h0c0-.41.17-.84-.15-1.21h0l-.21-.4h0a8.4,8.4,0,0,0-.6-3.9,1.09,1.09,0,0,1,0-.18h0c0-.29.15-.69-.35-.78h0l0-.43h0a2.1,2.1,0,0,0-.7-1.71h0l-.28-.2V85.2c.3-.21.11-.53.19-.78-.34-.57-.25-1.36-.93-1.74h0c0-.21-.62-.17-.25-.55h0c0-.4-.24-.61-.53-.81h0l-.4-.41-.63-.62A.33.33,0,0,0,129,80l-.43-.38c-.05-.21-.19-.25-.38-.18l-.38-.21-.38-.58a.63.63,0,0,0-.38-.62h0c-.12-.14-.48,0-.39-.39h0c.06-.35-.43-.42-.39-.76a1.47,1.47,0,0,0-1.49-.78h0c-.28-.64-1.16-.18-1.44-.81h0a1,1,0,0,0-1.15,0h0l-.19.06-.54-.2c-.83,0-1.69-.17-2.38.51,0,0,0,.06.05.09l-.06,0,0,0,0-.06-.37.12h0a2.72,2.72,0,0,0-2,.7.37.37,0,0,0-.4.37l-.2.07L116,77c-.69.13-1.1.77-1.75,1h0a5.91,5.91,0,0,0-1.35,1,.85.85,0,0,1-1,.34h0L111.1,79l-.39-.38c-.86-.21-1.24-.93-1.67-1.59,0,0-.05,0-.08,0v0H109c0-.13,0-.26-.07-.39a1.1,1.1,0,0,0-.38-.77h0l-.2,0c-.06-.61-.52-.57-1-.57A2.51,2.51,0,0,0,106,74.9a.48.48,0,0,1-.18-.06c-.27-.1-.45-.41-.79-.31h0l-1,0a.23.23,0,0,1,0-.14,3.28,3.28,0,0,0-3.29-.07h0c-.41,0-.85-.23-1.13.28h0a.23.23,0,0,1,0,.14h0c-.48,0-1-.22-1.38.35l-.17,0a2.78,2.78,0,0,0-1.73,1,.55.55,0,0,0-.61.32h0a20.81,20.81,0,0,0-3.84,3.42h0c-.21.23-.61.28-.65.67h0l-.41.43c-.27.27-.82.38-.56,1a9.1,9.1,0,0,0-1.68,2,.5.5,0,0,0-.45.59c0,.11-.09.23-.14.34-.26.41-.76.64-.88,1.16-.23.22-.52.4-.57.77-.49.15-.32.69-.58,1a.29.29,0,0,0-.13.41c-.2.27-.39.55-.58.82-.5-.17-.39-.81-.8-1,0,0,0,0-.07.07h0l.07-.07L84.25,87h0l-.8-1.18h0l-.36-.39-.19-.2L82.7,85a.11.11,0,0,1,0,.11l-.06,0L82.7,85c0-.2,0-.43-.21-.54-.11-.4-.27-.76-.75-.8l0-.16a1.26,1.26,0,0,0-.57-1.18l-.22-.38c-.13-.42-.57-.6-.76-1h0a4.45,4.45,0,0,0-1.35-1.57L78.4,79a6,6,0,0,0-1.93-2,4.1,4.1,0,0,0-1-1l0,.07h0l.06-.06-.59-.76a4.1,4.1,0,0,1-.79-1.1.32.32,0,0,0-.1-.1.19.19,0,0,1,.1.1c-.16-.36-.52-.49-.81-.69h0l-.16-.2h0c-.26-.26-.44-.69-.94-.56a.22.22,0,0,1,0-.16,1.78,1.78,0,0,0-.77-.81h0a1.1,1.1,0,0,0-.93-.39h0l-.22-.15c-.19-.34-.26-.81-.81-.82l-.38-.2h0c-.52-.32-.83-1-1.56-1h0l-.38-.19h0c-.17-.46-.67-.38-1-.59-.14,0-.3,0-.38-.16h0a3.24,3.24,0,0,0-1.45-.8h0l-.49,0c-.63-.87-1.77-.61-2.54-1.15H60.9l-.19-.19a.34.34,0,0,0-.42-.16l-.19,0-.17-.21A5.28,5.28,0,0,0,57.56,65c-.2-.32-.46-.26-.73-.09h0l-.2.09c0-.41-.31-.43-.61-.41h-.38c-.4-.37-.89-.11-1.33-.2h0c-.4-.37-1-.05-1.39-.38s-.54.09-.82,0H51a.41.41,0,0,0-.41-.19h0c-.17-.09-.19-.25-.2-.42a.25.25,0,0,0,0-.17.58.58,0,0,0,.44-.55h0c.18-.11.12-.3.16-.46a2.57,2.57,0,0,0,.75-.72,2.1,2.1,0,0,0,.6-.86l.14-.53.18-.21c.27-.1.47-.24.27-.56l.6-.77c.27-.19.26-.52.38-.79a2.48,2.48,0,0,0,.71-1c.23-.28.51-.54.45-1h0v0c.54-.09.5-.55.6-.93.53-.15.54-.57.53-1l0-.19.2,0c.3-.11.09-.39.2-.56s.53-.41.51-.79c.15-.26.31-.51.46-.76s.17-.38.21-.58l.36-.61L58.9,49l.27-.37a1.06,1.06,0,0,0,.35-.84c-.12-.29.24-.45.21-.72l.21-.19a1.14,1.14,0,0,0,.37-1c0-.19,0-.38,0-.56a2.47,2.47,0,0,0,.57-1.58,2.36,2.36,0,0,0,.42-1.14c.28-.14.17-.38.15-.59a1.62,1.62,0,0,0,.29-.8c.5-.15.49-.57.5-1v-.55c.44-.51.22-1.09.18-1.64h0a.3.3,0,0,0-.1-.07h0c.09-.22.19-.44.29-.66l0-.55v-.41h0c.4-.43.18-1,.42-1.52a2.91,2.91,0,0,0,0-2.17.19.19,0,0,0-.19,0,.64.64,0,0,1,0-.07h0l.21,0c-.1-.32.15-.7-.19-1l.06-.59c.22-.27-.18-.5-.05-.77a1.41,1.41,0,0,0-.23-1.19.42.42,0,0,0,0-.16h0a6.28,6.28,0,0,0-.56-2.37h0c-.1-.38-.19-.77-.62-.95h-.17v0h0a.27.27,0,0,1,.18-.29,1.42,1.42,0,0,0-.77-1.43,1.8,1.8,0,0,0-.8-1.37c-.51-.14-.47-.8-.94-1l-.58-.71h0c-.26-.21-.26-.71-.74-.67-.06-.25-.52-.15-.45-.51a7.59,7.59,0,0,0-1.76-2l-.18-.16c0-.5-.48-.46-.76-.63h0a.83.83,0,0,0-.64-.75h0l-.53-.41h0c-.18-.24-.28-.63-.72-.4h0a.16.16,0,0,1-.07-.14c-.12-.43-.46-.45-.82-.41h0l-.55-.32c-.2-.46-.6-.48-1-.46h0l-.42.17h0c.08-.43-.42-.26-.52-.5h0a7.06,7.06,0,0,0-4.1-1H45a5.78,5.78,0,0,0-2.95,0c-.28,0-.57-.07-.78.19h0a9.11,9.11,0,0,0-1.05.06c-.43.09-.52-.09-.46-.46a.93.93,0,0,0,0-1.15h0c-.45-.72-1.31-.63-1.94-1l0,0h0l0,0a.39.39,0,0,0-.38-.39h0A.63.63,0,0,0,37,9.34a1.7,1.7,0,0,1-.45-.92c.1-.51,0-1-.61-.9a.9.9,0,0,0-.74,1.21h0c-.42,0-.38.34-.36.64h0v.7c0,.33-.14.71.18,1l.08.19-.12.2a2,2,0,0,0,0,1.75.51.51,0,0,0,0,.59,2.37,2.37,0,0,1-1,.64,7.78,7.78,0,0,0-2.48,1.1l0,0v0l0,0A15.63,15.63,0,0,0,27,17.67h0a2.48,2.48,0,0,0-1.54.79c-.49,0-.66.61-1.15.61h0A25.63,25.63,0,0,0,18.89,23h0a4.56,4.56,0,0,0-1.34,1.32h0A3.87,3.87,0,0,0,16,26.48a1,1,0,0,0-.23.75c-.39.17-.48.42-.21.77-.31.26-.14.61-.17.92l.1,0h.09a2.79,2.79,0,0,0,1,1.22h0c.08.6.38.54.75.25.18.33.39.57.79.31h0c.27,0,.57.16.77-.16.37-.05.91.36,1-.38.28-.13.09-.38.15-.57l.17-.09a1.72,1.72,0,0,0,.6-.93l.2-.18c.16-.16.39-.28.42-.55l-.08-.07h0s.05.07.08.08l1.14-1c.42,0,.42-.51.75-.63s.49-.06.55-.36l.29-.36c.45,0,.69-.32,1-.58l.17-.16c.84-.18,1.35-.94,2.14-1.21a1.61,1.61,0,0,0,.78-.58c.19-.12.43-.18.52-.42.07,0,.09-.05.08-.12a3.58,3.58,0,0,0,1.69-.65.5.5,0,0,0,.44-.31l.54-.31,1.19-.53-.07-.09h0a.42.42,0,0,1,0,.1c.41-.24,1-.19,1.21-.76a.42.42,0,0,0,.51-.05l.76,0c.14.32-.28.65,0,1a20.55,20.55,0,0,0,.14,3.92.17.17,0,0,0,0,.14c-.38.34,0,.67,0,1a17.24,17.24,0,0,0,.16,3.93,3.56,3.56,0,0,0,0,2.12l.1-.05h0l-.11.05a1.89,1.89,0,0,0,0,.75c.06,1.36.08,2.71.11,4.07a3.71,3.71,0,0,0,.11,2h0a4.11,4.11,0,0,0,0,1.91l.06,1a3.13,3.13,0,0,0,.08,1.06.31.31,0,0,0,0,.15c.06.83-.28,1.66,0,2.48a23.08,23.08,0,0,0,.18,3.11,2.35,2.35,0,0,0,0,1.39.24.24,0,0,1,.08-.06h0l-.09.05.21,1.53a1.51,1.51,0,0,0,0,1.56.14.14,0,0,0,0,.17.17.17,0,0,0,0,.19A9.35,9.35,0,0,0,36.55,57c-.11.17-.26.32-.14.55s.11.65.16,1a1.2,1.2,0,0,0,0,1.37c.09.21-.25.38,0,.6a4.31,4.31,0,0,0,0,1.34l0,.61c0,.84.09,1.68.14,2.51.16,1-.23,2.09.22,3.1a5.72,5.72,0,0,0,0,2.33c0,.25-.38.67.2.78h0c-.26.49-.08,1-.15,1.54a2.73,2.73,0,0,0,.16,1.57l0,2.91-.06.59c.31.53-.28,1,0,1.58,0,.39.09.78.13,1.17l-.08.28c0,.67-.21,1.37.15,2-.19.82.21,1.62.05,2.44,0,.62-.19,1.25.14,1.84,0,.21-.27.34-.14.57l.21,1,0,1.12a10.08,10.08,0,0,0,.15,3l.08.39,0,1.88a11.69,11.69,0,0,0,.14,3.18l.14,1.93h0a2.72,2.72,0,0,0-.07,1.1c0,.55-.2,1.12.15,1.64.19.16-.2.44.11.58-.47.59,0,1.19,0,1.78a.27.27,0,0,0,.13.21h0s0,0,0,.05h0l-.15-.25c0,.24,0,.48-.07.72.08.85-.24,1.74.2,2.57a1.17,1.17,0,0,0,.07,1.13c0,.78,0,1.56-.08,2.34s-.2,1.46.17,2.16l.22.2c-.27.4-.11.87-.19,1.31.08,1.31-.24,2.64.18,3.94a.94.94,0,0,0,.07.77c0,.69,0,1.38,0,2.06,0,.36-.15.74.14,1.06l.06,1.16c0,.69,0,1.37,0,2.06h0a15,15,0,0,0,.15,3.78l.15.75,0,0s0,0,0,0l-.11.95c0,.35-.08.59-.51.67s-.84.11-1.08.54l0,0h0l0,0a2.7,2.7,0,0,0-1.75.43h0l-.52.2c-.43-.12-.8.22-1.22.16l-.58.38h0a2.21,2.21,0,0,0-1.4.4h0c-1.82.22-3.48,1.05-5.27,1.42-.31.07-.73,0-.94.39h0a.12.12,0,0,1-.11,0,.85.85,0,0,0-.83.4,6.8,6.8,0,0,0-2.55.56h0a.48.48,0,0,1-.17,0h0c-.68-.09-1.18.37-1.77.57h0l-.76.29-.53.13a2,2,0,0,0-1.44.35h0a8.62,8.62,0,0,0-2.54.59h0c-.34,0-.72,0-.94.33h0l-.21.1h0c-1.06-.34-2,.26-2.92.52h0l-.2.23-.54,0c-1.51-.17-1.95.1-2.77,1.72h0a1.77,1.77,0,0,0,.4,2H8c.08,1,.71,1.39,1.75,1.18l.38,0c.76.4,1.44,0,2.14-.19.32,0,.54-.4.9-.23a6.05,6.05,0,0,0,2.61-.57l.05,0,.06,0h0a6,6,0,0,0,2.22-.55,5.57,5.57,0,0,1,1.55-.42c.32.21.55,0,.79-.16l1.16-.45c.21,0,.44.11.59-.15A36.8,36.8,0,0,0,26,142h0c.29,0,.62.11.84-.22l1-.22,1.78-.71a2.22,2.22,0,0,0,1.92-.43l.35-.17a2.72,2.72,0,0,0,1.78-.4l.15-.19c.13-.28.44-.11.63-.24l1-.23,1.52-.31a2.8,2.8,0,0,0,1.23-.37c.21-.19.42-.35.72-.22a.86.86,0,0,1,.83.78c0,.25.08.5.4.21l.17,0h0l0,.55c.3.67.76.75,1.34.39.62.23,1.18-.07,1.77-.17.23-.31.93-.34.59-1,.05-.18.11-.36.17-.54h0c.18-.59-.07-1.18,0-1.77l.19-.22.59-.19a2,2,0,0,0,1.17-.37l.39-.25c.22-.05.6.23.57-.29a.49.49,0,0,0,.76-.07c.2-.07.45,0,.61-.19l.32,0c.6-.2,1.31,0,1.82-.54.25,0,.42-.35.72-.24a1.12,1.12,0,0,0,1-.33.54.54,0,0,1,.52-.05c.29-.13.65-.09.85-.4l1.35-.56a.18.18,0,0,0,.05-.16h0a.48.48,0,0,1-.08.16c.29,0,.62.1.82-.23a3,3,0,0,1,1.24-.38c.3-.11.68-.07.86-.42l1-.52.35,0h0c.24,0,.49.05.64-.23s.47-.08.55-.36h.32a1.84,1.84,0,0,0,1.25-.56l0,0h.07a.85.85,0,0,0,.84-.39,1.12,1.12,0,0,1,.79-.36,2,2,0,0,0,1.36-.58c.26-.2.64-.24.78-.59.16,0,.32,0,.39-.19.24.07.38-.15.58-.2.39,0,.77,0,.95-.46,0-.06,0-.11,0-.16l1.17-.59.77-.45a.28.28,0,0,0,.17-.1l.44-.38c.41-.13.9-.1,1.13-.6.54,0,.76-.57,1.19-.78l.42-.36a1,1,0,0,0,.76-.38c.44-.6,1.39-.69,1.56-1.56.49.07.74-.25,1-.59l.57-.43a2.24,2.24,0,0,0,.77-.76,2.11,2.11,0,0,0,.79-.78c.51-.22.62-.78,1-1.15l.72-.6h0l.65-.18a.56.56,0,0,0,.2.45h0a2.67,2.67,0,0,0,.94,2.09c.13.61.75,1,.82,1.61a1,1,0,0,0,1,.91l.19.26c.16.32,0,.79.54.91h0l.64.55c0,.41.27.43.56.43l.24,0,.18.19c.13.59.56.76,1.09.82a5,5,0,0,0,1.61.75,2.2,2.2,0,0,0,1.75.42h0c.25.58.67.18,1,.17l.07,0h.07c.83.6,1.73.19,2.6.21h.07a.35.35,0,0,1,.14-.06.25.25,0,0,0-.14.06c.36,0,.76.17,1-.2h.19c.33.37.53,0,.77-.14a5.21,5.21,0,0,0,1.56-.46h0l.75-.17h0a1.14,1.14,0,0,0,1-.37l.54-.41c.44,0,.67-.41,1-.58a2.87,2.87,0,0,0,1.13-.85c.41-.07.58-.4.77-.71l0-.18.38-.26c.35,0,.45-.32.58-.57a.91.91,0,0,0,.56-.54,1.36,1.36,0,0,0,0-.17,1.22,1.22,0,0,0,.79-1.18,1.52,1.52,0,0,0,.95-1.37h0c.7-.21.6-.86.76-1.37a.2.2,0,0,0,.23-.17l.41-.4a6.56,6.56,0,0,0,.94-2,.86.86,0,0,1,.18-.77,1.55,1.55,0,0,0,.39-1.2l0-.55.23-.2a1.9,1.9,0,0,0,.38-1.4v-.35c.27-.27.15-.63.22-1h0c.25-.24.13-.54.12-.82h0c.36-.39.18-.91.29-1.36a3.43,3.43,0,0,0,.14-1.74c0-.26-.17-.42-.28-.62l.1-.14h.18a3.49,3.49,0,0,0,0-2.6v0c0-.43,0-.86,0-1.29h0a1.38,1.38,0,0,1-.19-1.27h0a2,2,0,0,0-.4-1.6l-.19-.2c.1-.48-.21-.9-.2-1.37v-.49c-.25-.81-.11-1.75-.82-2.4h0c-.19-.15-.12-.37-.15-.56h0c-.27-.6-.13-1.39-.85-1.77h0l-.33-.81c.32-.39.85-.61,1-1.17.14-.27.61-.18.63-.58.49,0,.62-.55,1-.78a5,5,0,0,0,1.17-1.16,1.17,1.17,0,0,0,.59-.57c.21-.06.39-.14.37-.41h0c.33-.25.75-.4.94-.82a4,4,0,0,0,1-.72c.13-.12.36-.15.38-.39l.3,0a1.3,1.3,0,0,0,.86-.8.81.81,0,0,1,0-.16,1.26,1.26,0,0,0,.8-.38.51.51,0,0,0,.38-.39c.22-.1.5-.11.58-.41a6.5,6.5,0,0,0,1.74-1.15c.31-.13.74-.1.76-.6l.2,0c.22,0,.48.17.62-.15l1.73-.45c.47,0,.86.45,1.37.23a.57.57,0,0,0,.48.4h0l.31.22c1.53,1.38,2.23,3.27,3.1,5a.64.64,0,0,1,.06.18l.34,1.19c0,.32-.13.69.2,1h0a5,5,0,0,0,.36,1.76l0,.59c0,.42-.15.91.39,1.16.23.21-.31.4,0,.61l0,.75.06.19c0,.19.07.38.11.57-.49.28.28.5,0,.76a.83.83,0,0,1,.06.21l-.06-.21c.06.36-.24.84.33,1l.07,0a1.16,1.16,0,0,0-.2.92c-.09.39.15.72.19,1.09-.28.35.13.7,0,1,0,.36-.15.74.16,1l0,.75c.07.66-.23,1.35.18,2,0,.27,0,.55.36.58l.06.21-.09,0c-.37.12-.44.31-.15.6.12.23-.12.37-.13.57a2.6,2.6,0,0,1,.15,1.38c0,.32-.12.68.15,1a.54.54,0,0,0,.06.75h0c-.18.39-.39.79,0,1.2h0c.2.44-.32,1,.2,1.38a1,1,0,0,1,0,.16c-.06.21-.32.43,0,.62l-.05.18a1.3,1.3,0,0,0,.17,1.58s0,0,.06-.06a0,0,0,0,1,0,0l0,0a.85.85,0,0,0,.23,1.14l0,0h0l-.05,0c0,.33.37.43.44.7.26,1,.78,1.11,1.53.46a.26.26,0,0,0,.17,0l.19,0,.21.21h.56c.32-.12.78.4,1-.23h0l.21-.33c.19-.07.19-.25.24-.41.47-.1.35-.56.52-.85h0l.61-1.66a.14.14,0,0,1,.12,0,.82.82,0,0,0,.44-.79c.06-.19.11-.38.17-.56.34-.2.22-.51.2-.8a.44.44,0,0,0,0-.16h0c.24,0,.3-.22.41-.38a5.22,5.22,0,0,0,.71-1.39,1.81,1.81,0,0,0,.58-1,.51.51,0,0,0,.07-.17c.25-.14.26-.38.3-.62h0c.3-.07.24-.34.3-.55h0a1.14,1.14,0,0,0,.56-1c.46-.17.5-.59.6-1,.58,0,.31-.47.38-.75.5-.06.43-.63.76-.84a4.33,4.33,0,0,0,1.14-1.72,1.21,1.21,0,0,0,0-.18l.76-.84a1,1,0,0,0,.4-.72c.47-.07.5-.52.72-.81a.3.3,0,0,0,.07-.15,14.47,14.47,0,0,0,2.15-2.54.56.56,0,0,0,.32-.41.23.23,0,0,0,.06-.16.6.6,0,0,0,.39-.58c.27,0,.43-.08.38-.39a1.22,1.22,0,0,0,.77-.61c.29-.32.73-.55.76-1h0c.26-.11.58-.13.61-.51l.59-.58c.36-.15.54-.49.78-.77l.58-.58c.28-.31.82-.31,1-.79a1.52,1.52,0,0,0,.79-.57l1-.27c.26.06.58-.07.76.24.56,1.27,1.61,2.26,2,3.62,0,0,.1,0,.16.08a1.55,1.55,0,0,0,.38,1.18c.07.25,0,.55.23.73l.39,2c.06.11.13.22.2.33a4.14,4.14,0,0,0,.34,1.77c0,.14-.1.37.2.39-.05.18-.09.36-.14.54.12.9.23,1.8.35,2.7h0c0,.35-.17.74.17,1l.12.24-.11.29c.05.48-.18,1,.17,1.42l.11.19c0,.1,0,.2-.08.3a.45.45,0,0,1,.07.28l-.07-.28c0,.42-.16.86.14,1.25.08.18.15.36.22.55h0c0,.19-.11.38-.17.58h0c0,.6-.19,1.22.17,1.79a1.69,1.69,0,0,1,0,.92c0,.54-.18,1.1.14,1.61.14.11-.33.33.07.39,0,.11,0,.22,0,.34v1.3h0l.21.31,0,1.86c0,.55-.23,1.14.19,1.65V118h0a15.3,15.3,0,0,0,.12,3.58c.05.72-.23,1.46.09,2.17a.87.87,0,0,1-.07.17,12.82,12.82,0,0,0-.16,3.33.33.33,0,0,1,0,.17c-.47.34-.5,1-.83,1.38a.58.58,0,0,0-.13.75h0c-.18.15,0,.25,0,.38-.28.65.36.92.56,1.37h0a1.72,1.72,0,0,0,.37,1h0c0,.38.34.43.58.58h0c.37.16.67.84,1.17.18H164c.33.12.67.43,1,0h0l.2-.21h0l.2.08c.63.24.78-.22,1-.65-.33-.72.34-1.27.35-1.92a.2.2,0,0,0-.17,0v0h.08l.08,0a.1.1,0,0,0,0-.16l.24-.42c.31-.5.77-.91.81-1.55.61,0,.71-.36.73-.83l.42-.52a4.33,4.33,0,0,0,.78-1.35,1.62,1.62,0,0,0,.61-1h0l.34-.23c.24,0,.15-.24.22-.35l.58-.79h0a1.33,1.33,0,0,0,.37-.78h0l.2-.2a3.55,3.55,0,0,0,1.18-1.74.28.28,0,0,0,.18-.06,1.63,1.63,0,0,0,.54-.75.65.65,0,0,0,.25-.56c.15-.1.34-.17.35-.4.31-.09.22-.34.2-.56a.33.33,0,0,0,0-.17,1.14,1.14,0,0,0,.79-.8,1.12,1.12,0,0,0,.57-1.17l.76-.25h0c.17.28.45.42.55.82.23.85,1.23,1.16,1.6,1.95l.2.21h0a4.66,4.66,0,0,0,1.53,2.13l.05,0h0l-.05,0c.5.84.74,1.87,1.75,2.32a.89.89,0,0,0,.42.58.83.83,0,0,0,1,.78.33.33,0,0,1,.1.14c.16.68.85.77,1.28,1.14.5,0,.63.72,1.18.64.22,0,.44,0,.57.25a.89.89,0,0,0,.51.42,8.25,8.25,0,0,0,5.71,0,.49.49,0,0,1,.17-.06c.24,0,.51.08.7-.17h0a1.19,1.19,0,0,0,1.08-.39,3.07,3.07,0,0,0,1.19-1,1.43,1.43,0,0,0,.56-.61l.39-.39c.37-.15.3-.61.58-.83a.87.87,0,0,0,.36-.73c.08-.13.16-.25.25-.37a1,1,0,0,0,.31-.81h0a2.24,2.24,0,0,0,.42-1l.19-.37c.33-.22.2-.55.21-.85h0V119c.07-.13.14-.26.22-.39a2.19,2.19,0,0,0,.38-1.34h0a4.69,4.69,0,0,0,.36-2.22h0c-.08-.17,0-.39-.19-.51l.21-.59a.66.66,0,0,0,.1-.32,1.69,1.69,0,0,0-.25-1.82h0a.37.37,0,0,1,0-.18h0l.13-.23.2-.36c.21-.33-.07-.67,0-1h0c0-.31,0-.62,0-.93h0c.36-.19.11-.42,0-.63ZM111.92,80h0l0,0Zm22,15.59Zm7.36-.86,0,0h0Zm-3.86,14.44ZM113.05,84.34h0v-.08h0ZM11.87,141.28h0a.07.07,0,0,0,0,0h0l-.2-.09h0A.29.29,0,0,0,11.87,141.28ZM16.18,140h0ZM46.28,13.66l.09.07-.09,0h0ZM62.54,31.42h0s0-.05-.06-.07h0ZM75.47,80.2a1.62,1.62,0,0,0,.53.87l.18.2a1.33,1.33,0,0,0,.54.7s0,.09,0,.14a.7.7,0,0,0,.18.34l.09.09a.63.63,0,0,0,.43.69l.37.21c.46.51.64,1.22,1.14,1.7a1.43,1.43,0,0,1,.08.22,1,1,0,0,0,.23.32.78.78,0,0,1,.2.16,6.1,6.1,0,0,0,.83,1.84s0,.07,0,.11,0,.09.07.13a1.82,1.82,0,0,0,.2.61,1.33,1.33,0,0,1,0,.21c.24.55.1,1.23.59,1.69a1.81,1.81,0,0,1,.24.24l.42,1.25a.62.62,0,0,0-.1.16,6.57,6.57,0,0,0,.69,2.79h0c-.4.84-1.12,1.57-.88,2.63a.31.31,0,0,1,0,.12c-.17.32-.56.55-.46,1a9.89,9.89,0,0,0-.44,1.68s0,.09-.08.12c-.58.48-.39,1.14-.4,1.75a1.31,1.31,0,0,0,.06.27c-.11.52-.23,1-.34,1.56a.77.77,0,0,1-.07.16,1,1,0,0,0-.05.25.45.45,0,0,0,.06.14,19.62,19.62,0,0,0-.18,2.29,1.74,1.74,0,0,1-.11.18.82.82,0,0,0,0,.76c0,.06,0,.12.05.17a.82.82,0,0,0-.11.59s0,.11-.08.17a.7.7,0,0,0,0,.38s0,.09.07.14-.2.31.06.48l-.82,2.11c-.26,0-.61-.07-.6.38l-.33.44h0a10.63,10.63,0,0,0-2,2.52,1.29,1.29,0,0,0-1,1h0a1.67,1.67,0,0,0-.78.4.49.49,0,0,0-.36.61h0l-.26.53c-.52-.07-1.07-.18-1.12.61a.29.29,0,0,0,0,.16l-.17,0c-.48-.12-.54.35-.79.56h0c-.74.54-1.8.7-2.15,1.73l-.37.42c-.48,0-.69.32-1,.59-.46-.2-.58.41-1,.39-.46.34-1.2.22-1.51.82h-.07a.67.67,0,0,0-.23.1s0,0,0,.08a.86.86,0,0,0-.76.39l-.06,0c-.35.19-.66.41-.68.86,0,0,0,0,0,0h0l0,0a.41.41,0,0,0-.16,0c-.38-.32-.52.11-.76.25s-.33,0-.43.14a2.22,2.22,0,0,0-2.07,1.74c-.09-.21-.25-.19-.42-.12l-.78.17h0c-.16-.43-.39-.22-.61-.07s-.7-.07-.75.43c-.53.13-1.36-.24-1.33.81l-.19.15c-.35-.34-.68-.2-1,0a.42.42,0,0,1-.15,0,.33.33,0,0,0-.43.15c-.15,0-.32,0-.38.21-.33.07-.69,0-1,.22a.14.14,0,0,0-.2.12h0l-.37.06-.22,0h0c-.58-.07-.76.36-1,.77h0l-.2.19a.43.43,0,0,0-.16.05,1.3,1.3,0,0,0-1.54.19.33.33,0,0,0-.07.13.3.3,0,0,0-.16,0h0c-.22,0-.44,0-.56.17a.84.84,0,0,0-.7.23c-.44-.51-.61-.44-1.16.35l0,0a.37.37,0,0,0-.37.26v0a2,2,0,0,0-.67.14l-.11.06c-.1-.28-.31-.24-.54-.08-.22,0-.46-.12-.62.15l-.37.2h0c-.42,0-.32-.34-.41-.56h0a7.78,7.78,0,0,0-.14-2.72c.27-.34-.08-.65,0-1l0-.39c.1-.43,0-.75-.49-.81l.14-.12c.75,0,.33-.5.37-.81s.12-.77-.32-1a1.07,1.07,0,0,0,.18-1.16c-.16-.33-.39.09-.57,0a.93.93,0,0,1,0-.13l.17-.19c.63-.17.36-.62.32-1s.22-.89-.15-1.28a.58.58,0,0,0,0-.82,3.57,3.57,0,0,0,0-2.35c0-.33,0-.66,0-1l0-.57,0-.59c0-.75.21-1.53-.34-2.18a.27.27,0,0,0-.06-.17c.38-.17.23-.49.23-.77a.16.16,0,0,0,0-.15c.22-.32.08-.56-.15-.79.38-.41-.13-.57-.25-.84a.23.23,0,0,0,0-.14c.63-.06.24-.52.32-.79h0c-.1-.53.4-1.2-.37-1.57a.08.08,0,0,0-.12,0,.38.38,0,0,0-.06-.54c1.06-.16.34-.65.19-1s.27-.74.13-1.14.2-.59-.14-.81h0a2.33,2.33,0,0,0,.06-1.74h0c0-.26-.06-.51-.08-.76h0a2,2,0,0,0,0-1.15l0-.21a3.13,3.13,0,0,0-.08-1.22.89.89,0,0,0,.13-.14,1.5,1.5,0,0,0,.1-1.24.33.33,0,0,0-.17-.16,3.08,3.08,0,0,0-.12-1.35l0-.36a19.13,19.13,0,0,0-.07-3.12,2.68,2.68,0,0,0-.2-1.72s-.09,0-.13,0,0,0,0,0L42,91h0l.06,0h.12a7.28,7.28,0,0,0,0-2.55.32.32,0,0,0-.13,0h.13A1.47,1.47,0,0,0,42,87.34c.25-.29.15-.48-.18-.6a.23.23,0,0,0,0-.14.93.93,0,0,0,.1-1.21c.08-.4.21-.81-.09-1.18l0-.38c.52-.24.21-.63.16-1a4.28,4.28,0,0,0-.14-1.78l-.05-.36,0-.78a1.33,1.33,0,0,0-.21-1c.25-.29.14-.39-.19-.39h0l-.15.06a.08.08,0,0,0,0-.07s0,0,0,0l.12,0h0c.23-.34.67-.73-.19-.83a.08.08,0,0,1,0,.1h0l0-.09a.87.87,0,0,0,.18-1.49.24.24,0,0,0-.14-.05c0-.32.32-.59.14-.94l0-1a.27.27,0,0,0,.12-.44c-.13-.17-.25,0-.37.09h0a.43.43,0,0,0-.15-.44h0a1,1,0,0,0,0-.17c.84.1.52-.42.43-.81h0a1.62,1.62,0,0,0,0-1h0c0-.19,0-.38,0-.58s-.05-.69-.07-1a.54.54,0,0,0,.14-.18.76.76,0,0,0-.14-.65.1.1,0,0,0,0,0c.18-.38-.08-.77-.06-1.16.32-.41-.08-.82,0-1.24-.09-.37.12-.79-.16-1.13h0c.18-.58.44-1.17-.26-1.6a.29.29,0,0,0,0-.16l.22-.19c.35-.29,0-.53,0-.79.22-.39,0-.56-.34-.65h0a.16.16,0,0,0,0-.09c.38-.07.38-.33.31-.63h0a.64.64,0,0,0-.32-.94.34.34,0,0,0,.33-.4c0-.46.35-.92,0-1.38-.41-1.15,0-2.34-.19-3.5a1.62,1.62,0,0,0-.12-1h0c0-.3.26-.62-.08-.89h0l-.17-.17c.22,0,.51-.07.25-.37a2.06,2.06,0,0,1-.29-.84c.23-.39.66-.77,0-1.17-.11-.29.41-.48.13-.8h0c0-.27,0-.57-.27-.73h0l0-.22c.83-.73.21-1.58.22-2.38l-.12-1.3a.3.3,0,0,0,.07-.4A3.66,3.66,0,0,0,40.31,43h0c-.13-.46.7-1.2-.4-1.39a.19.19,0,0,0,0-.13l.15-.18-.16-.08s0,0,0,0c.28-.17.49-.37.37-.74s.17-.74-.16-1.05h0l0,0a1.44,1.44,0,0,0-.19-1.82c.61,0,.29-.48.33-.77s.11-.7-.18-1l-.05,0a.06.06,0,0,0,0,0h.06l0-.58a13.37,13.37,0,0,0,0-2.53l0-.58c0-.27.26-.68-.3-.75h0l0-.95c.37-.21.31-.51.18-.83.32-.22.05-.39,0-.58a7,7,0,0,0,0-2.92c0-.36.29-.82-.3-1a.14.14,0,0,0,0-.11h0a.46.46,0,0,0,.34-.44v-.38l0-.2-.07-.57a11.91,11.91,0,0,0-.19-2.86c.12-.28.39-.55.07-.86v-.36c.34-.39,0-.78,0-1.17A8.67,8.67,0,0,1,42,17.35l.19-.06a10.63,10.63,0,0,0,2.32-.18,6.09,6.09,0,0,1,.74,0h.22c.86.08,1.7.31,2.56.37a.75.75,0,0,0,.55.22l.88.48c.29.17.4,0,.47-.17a.9.9,0,0,0,.28.18h0a.54.54,0,0,0,.71.25c.13.25.31.35.58.2l.19.05c-.17.84.4.79.94.77a2.07,2.07,0,0,0,1.4,1.11c.22,0,.19.23.24.37A2.21,2.21,0,0,0,55.8,22.4l.22.2c-.35.31,0,.42.17.56.09.67.75,1,1,1.6l.24.51,0,.38a3.5,3.5,0,0,1,.46,1.51s-.08,0-.11.05c-.13.54-.26,1.08.24,1.47l0,.12c.14.6,0,1.22.18,1.82a1,1,0,0,0,.07.15,3.33,3.33,0,0,0,.14.93.31.31,0,0,1-.05.18,5.4,5.4,0,0,0,0,2.93.29.29,0,0,1,0,.16c-.78.72-.32,1.72-.55,2.56-.1.19-.35.32-.2.59a.09.09,0,0,0,0,.13.19.19,0,0,0,0,.12A7.12,7.12,0,0,0,57,40.25l0,0,0,.06a4.72,4.72,0,0,0-.55,1.45c-.28.18-.18.5-.28.75l-.27.61c-.45.58-.3,1.4-.81,1.95-.47.74-.58,1.64-1.09,2.37a.45.45,0,0,0,.09.6v.07c-.59,0-.68.34-.6.82a.11.11,0,0,0-.13.07.6.6,0,0,0-.42.73l0,.1c-.1.22-.37.4-.16.69l-.34.21a.73.73,0,0,0-.59.79l-1,1.91a10.62,10.62,0,0,0-1.38,2.31c-.4,0-.53.26-.58.6a.76.76,0,0,0-.42.72h0a2.84,2.84,0,0,0-1.08,1.63c-.18.24-.77.23-.46.76l-.18.38c-.32.06-.36.33-.44.57l-.14.23,0,0,.05,0h0a.14.14,0,0,1,0,.06l-.08-.08c-.16,0-.41,0-.45.09-.32.81-1.12,1.26-1.5,2l-.22.15c-.5.08-.34.71-.74.88s-.44.24-.4.55c-.5.34-.43.86-.41,1.36-.65.29.27.5,0,.77h0c.19.43-.21,1.23.74,1.2h0c.4.64,1,.56,1.6.41,1,0,2,.36,2.92,0h.09l.09,0c.27,0,.52.23.79,0,.51,0,1,.3,1.52,0a3.35,3.35,0,0,0,1.75,0c.37.67,1.13.09,1.59.48a19.83,19.83,0,0,1,2.86.47c.39.18.79.39,1.23.12.37.18.68.5,1.15.42.08.2.26.14.41.16.22.36.72.08,1,.4.63,0,1.06.7,1.75.56a.34.34,0,0,0,.17,0c.2.62.83.34,1.21.56l.53.36a.41.41,0,0,0,.57,0h0c.18.58.68.58,1.15.62h0a1.55,1.55,0,0,0,1.21.76,3.4,3.4,0,0,0,1.77.94s0,0,.06-.07h0l-.06.07c.14.57.56.49,1,.41a.41.41,0,0,0,0,.16,1.78,1.78,0,0,0,1.71,1.21c0,.21.13.35.37.21.05.35.35.44.59.59,0,.11.09.18.22.12.07.46.5.66.73,1s.24.07.32-.08l.12.09a.94.94,0,0,1,.1.1c.08.29.12.61.49.66l0,0,.19.15a1.74,1.74,0,0,0,1,1.27ZM62.31,31.73l-.05,0h.06ZM56.62,65.55h0ZM68.91,71h0a.14.14,0,0,0,0,.11h0A.24.24,0,0,0,68.91,71ZM49.19,56.39h0ZM51,54.24h0Zm2.73,1.12h0a.24.24,0,0,0,.09-.11h0Zm-5.55,7.69-.12,0v0C48.16,63,48.2,63,48.21,63.05Zm1-.64,0,0h0Zm4.31-8.15Zm7-20.64Zm.2,5.64.16-.13h0l-.16.13h0Zm-1.94,2.35h0Zm.17,4.12Zm2.47-13.48h0v0h0s0,0,0,0ZM58.76,36ZM48.81,65h0Zm7-13.64v0h0Zm5.65-12.86v0h0l.07,0Zm0-.18h0a.09.09,0,0,0,0,0Zm0-.17h0v-.05l0,0h0Zm-3,30-.08-.06s0,0,0,0h0s0,0,0,0l.07,0ZM52.35,58l0,0-.07,0h0Zm.19-.67v0h0v0Zm3.67-6.92h0v0h0Zm2.94-5.25Zm2.53-12.65h0s0,0,0,0Zm-3.16-.82h0l0,0h0l-.05,0Zm.19,2.92h0ZM42.79,66Zm.38,1.16Zm13.66,1.58,0,0h0Zm.36,0Zm-7.58-6h0v0ZM60.12,43.76h0v0Zm1-7.39h0Zm.36-1.52h0Zm.21-2.17h0a.57.57,0,0,1,0-.13.22.22,0,0,0,.06.14Zm-.08-2.32h0l.08-.07a.19.19,0,0,0-.06.1ZM34.05,15.73h0ZM45.33,13.8h0Zm-6,25.13h0s0,0,0,0Zm6-24.74ZM39.86,61.83ZM38.34,24.69h0v0l0,0h0S38.33,24.7,38.34,24.69Zm.39-1.56h0Zm.18,1.54Zm-.58,1.42h0ZM37.94,22h-.07l.07,0v0Zm-.76-.36Zm1.93,1.73ZM39,42v0l0,0Zm.09,3.12h0v0Zm.21.19ZM38.81,49s-.06,0-.07.07h0l.07-.07Zm.4-4.46v-.08l.12,0ZM38.8,42Zm-.07,7h0l0,0Zm2.9,61.09Zm1.08,10,0,0h0l0,0Zm-2.22-39Zm1.17,28.61s0,0,0,0a0,0,0,0,1,0,0h0Zm.18,13.62h0Zm0-.41h0l0,0Zm-.37-.61v0h0Zm.18-12.42,0,0h0l0,0Zm.21-.37v0h0Zm-.58-.8h0Zm0-8.18h0a.14.14,0,0,1,0-.06A.13.13,0,0,0,41.25,100.55Zm0-10.46v0l0,0Zm-.78-.23h0Zm1.35,33.85,0,0s0,0,0,0h0Zm.35-.76h0Zm-1-17.12h0Zm.2-4.3h0v0S41.44,101.54,41.43,101.53ZM40.07,79.45a.81.81,0,0,0-.09-.1h0ZM38.44,56.09h0a.94.94,0,0,0-.1.1h0ZM40.1,66.33Zm-.06,5h0v0h0Zm.06-5h0s0,0,0,0,0,0,0,0Zm-1.38-7.92v-.07l.09,0Zm1.56,31.46h0Zm2.17,34.49-.05,0a0,0,0,0,1,0,0h.05Zm-1-32.91h0ZM40.1,71.6l0,0v0h0l.06,0Zm.39-5.09h0ZM38.9,30.32h0Zm0-1.74h.06v0h-.06Zm.44-5.25ZM37.57,12.65h0Zm6.6,120ZM42.39,127v0h0ZM39.71,48.41a.13.13,0,0,0,0,0,.43.43,0,0,0,0,0ZM39.1,25.09h0Zm4.72,107.33h0l.07-.06h0ZM42,102.32h0Zm.17-3.07h0v0h0l0,0ZM41.05,79h0l.08,0v0S41.07,79,41.05,79Zm-.4-14.77h0l0,0Zm0-.55h0Zm-.93-15.22h0l.12,0v0ZM39.3,32.47v-.06h0l.07,0Zm.18-8.5v0h0l0,0Zm5.86-10,0,.07h0l0-.07h0Zm-6.82-.5-.09,0,.08,0h0ZM59.34,128.57h0Zm-1.75-.8Zm2.33,1h0Zm-1-1.67s0,.07,0,.1h0s0-.06,0-.09Zm0,.09Zm-10.33,4.53a1.39,1.39,0,0,0,.22.15h0A.47.47,0,0,1,48.62,131.74Zm3.29-.84.05,0,0,0Zm3.36-.22Zm3.48-1.36h0Zm.2-2.11h0Zm-5.86,1.94,0,0h0ZM44,132.3Zm-1.64-29.74v0h0S42.36,102.55,42.36,102.56Zm-1.71-27h0v-.13h0A.27.27,0,0,0,40.65,75.6ZM39.47,24.53v0h0Zm-.2-3.91h0A0,0,0,0,1,39.27,20.62Zm-9.72-2.17h0Zm4.86-1.15h0Zm9.17,116.93h0Zm4.29-.43v0h0Zm16-5.82h0Zm3.06-5.48h0v0h0Zm54.34-44.9h0Zm-.4-.21v0s0,0,0,0h0v.06h0Zm-.36-.37h0Zm.76.59h0Zm-.8.18h0Zm-12.24,9.9h0l.14,0h0A.22.22,0,0,0,108.19,87.69Zm0,9.18Zm-25.1-9.69a.08.08,0,0,0,0,0h0v0Zm.37.75h0Zm23.38-1.18Zm.75-2.36h0v0S107.59,84.4,107.59,84.39ZM95.36,122.94h0Zm4.76-3.51a2,2,0,0,0-1.68,1.32c0,.08.11.14.2.17v0a.22.22,0,0,0-.09-.07.64.64,0,0,0-.73.44.17.17,0,0,1,0,.07l-.17.09h0a.9.9,0,0,1-1,.47.49.49,0,0,0-.34.37l-.07,0a.32.32,0,0,0-.2.08,1.72,1.72,0,0,0-1.31.17c-.37,0-1-.41-.8.54a1,1,0,0,0-.72.24l-.09-.08a.4.4,0,0,0-.45.17l0,.08-.23,0c0-.07,0-.13,0-.2.43-.38,0-.49-.23-.54s-.76-.07-.76.45a.67.67,0,0,0-.19,0c.07-.37-.25-.49-.59-.56s-.62,0-.93,0c-.37.16-.56-.66-1-.18h0c-.53,0-.8-.64-1.36-.61l-.77-.83c.07-.24-.13-.36-.22-.52s0-.44-.18-.59a.51.51,0,0,0-.41-.57h0l-.21-.22c.07-.47.11-.92-.53-1h0c.18-.19.09-.36,0-.53h0l-.16-.78h0c0-.13,0-.26,0-.39a3.32,3.32,0,0,0-.36-1.57,1,1,0,0,1-.07-.15,1.22,1.22,0,0,0-.24-1.12s.06-.06.07-.1c.11-.64.56-1.19.49-1.88l0,0c.25-.73.89-1.3.92-2.13l0-.39c.21-.15.45-.29.22-.59h0l.35-.94c0-.09.1-.17.14-.26a1,1,0,0,0,.15-1.11,2.27,2.27,0,0,0,.9,0c-.21.41.22.39.51.47l0,0c.24.36.49.25.74,0,0,0,0,0,0,.07a1,1,0,0,0,.76.09,1.75,1.75,0,0,1,.65-.12.94.94,0,0,0,.61-.21.61.61,0,0,0,.2.09,1.89,1.89,0,0,0,1-.37,1.14,1.14,0,0,0,.19-.19,6.08,6.08,0,0,0,2.18-1.14l.78-.57h0l.6-.57a1.52,1.52,0,0,0,.77-.77c.28-.13.57-.23.62-.59.3,0,.42-.19.54-.4s.62-.33.55-.77a.22.22,0,0,0,0-.17,1,1,0,0,0,1-.8,3.88,3.88,0,0,0,1.33-1.37l.24-.37c.49-.06.64-.51.92-.81h0l1-1.34h0a4.76,4.76,0,0,0,1.35-1.37.58.58,0,0,0,.35-.37h0c.56.55.31,1.49,1,2h0a2.59,2.59,0,0,0,.22,1.23,1,1,0,0,1,0,.46,1.42,1.42,0,0,0,.08.41c.08.12.14.26.23.38.11.83.23,1.67.34,2.5-.26.32,0,.65,0,1,0,.15-.3.39,0,.44a.58.58,0,0,0,0,.19v0c-.18.24,0,.47.07.71l0,0c-.59.42-.34.91-.13,1.41,0,.71-.5,1.39-.19,2.13h0a3.27,3.27,0,0,0-.46,2.1,1.31,1.31,0,0,1-.09.28l-.08.17c-.41.16-.05.74-.33,1a1.69,1.69,0,0,0-.4,1.14.19.19,0,0,0,0,.19h0c-.19.58-.72,1-.61,1.74a.13.13,0,0,0-.15,0c-.29.16-.32.46-.39.74h0a.89.89,0,0,1-.08.17c-.14.29-.52.42-.52.8a.91.91,0,0,0-.37.6c0,.06,0,.12,0,.18a.67.67,0,0,0-.35.64h0a.66.66,0,0,0-.11.24.2.2,0,0,1,0,.07c-.22.11-.49.19-.32.55a.42.42,0,0,0,0,.1,5.93,5.93,0,0,0-1.22,1.28l-.15.06A.74.74,0,0,0,100.12,119.43Zm8.36-20.52h0Zm-5.39,17h0s0,0,0,0l0,0Zm1.6.23Zm2.68-3.33h0ZM99.64,86.56ZM89.13,96.11h0Zm.58-.61h0l0,0Zm.22-1.16Zm.17.38v.06l0,0h0a0,0,0,0,1,0,0v0h0Zm-.4.6h0v.09a.42.42,0,0,0,0-.1h0Zm-1.21,2.81a.36.36,0,0,0,0,.11h0a.76.76,0,0,1,0-.11Zm-.71,2.79Zm5.81.62Zm8.74-10.36s0-.08,0-.12h0a.5.5,0,0,0,0,.12Zm-6.59,8.41v0s0,0,0,0ZM87.66,98.4h.1a.2.2,0,0,0-.11,0Zm5.76-7.93c.3,0,.63,0,.72-.43l.24-.35h0l.41-.36a.81.81,0,0,0,.51-.45l.27-.37c.27,0,.5-.09.57-.4l0,0,0,0v0a.29.29,0,0,0,.25-.09h0A21.64,21.64,0,0,1,99.21,87h0a6.74,6.74,0,0,1,2.1,1c1.12.7,1.09.78.24,1.84a2.14,2.14,0,0,0-.21.43l-.38.2a5.9,5.9,0,0,0-1.58,1.72c-.54,1-1.58,1.71-2.13,2.75a19.07,19.07,0,0,0-3.51,3.67c-.35,0-.6.12-.41.54-.42,0-.55.44-.91.5a2.26,2.26,0,0,0-1.79,1.51l-.19.2c-.5-.11-.72.26-1,.57l-.37-.39L89.2,100h0c.33-.37.09-.79.1-1.18.24-.19.28-.38,0-.58.35-.31.35-.78.52-1.17l.06-.39a2.93,2.93,0,0,0,.64-1.34l.33-.8c.07-.19.14-.38.22-.57a.47.47,0,0,0,.38-.56,1.42,1.42,0,0,0,.57-1h0c.33,0,.45-.32.59-.57.22-.41.8-.59.74-1.18A.84.84,0,0,0,93.42,90.47Zm-9.8,25.63h0v0s0,0,0,0v0h0Zm10.54-12v0h0Zm6.45-19.85h0Zm-1.76,1.93ZM85.23,119h0v0h0Zm21-3.47h0Zm1-.16h0Zm1-5.07h0v0h0Zm.45-5.55a.21.21,0,0,1,.06-.1A.33.33,0,0,0,108.62,104.76ZM96.4,82.14h0v0Zm7.45,37.49c-.08-.1-.09-.29,0-.29h0A1.32,1.32,0,0,0,103.85,119.63Zm4.32-8.13,0-.11h0l0,0,.11,0A.18.18,0,0,0,108.17,111.5Zm-.59-16.17ZM97.5,80.91v0h0Zm-2.74,1.68H94.7c0,.13-.11,0,0,0h.11ZM91.3,86.94l.11-.08a.43.43,0,0,1,0,.16A.31.31,0,0,0,91.3,86.94Zm-9.52,13.68a.59.59,0,0,0-.14.06l.06-.19A.91.91,0,0,0,81.78,100.62ZM108.9,100Zm8.81-22.27h0Zm-.16,3.15h0a.23.23,0,0,0,.12-.12h0ZM109,82.29l-.58.78-.08.37c-.86-.48-.85.33-1.11.74-.34-.05-.32.36-.56.45s-1,.27-.79,1l0,.33c-.26.57-.9.66-1.33,1-.1-.23-.31-.26-.51-.32,0,0,0-.07,0-.11a.82.82,0,0,0-.62-.62.07.07,0,0,0-.06,0c-.42-.58-.59-1.39-1.48-1.51-.06-.29.07-.69-.43-.72h0c-.2-.12-.29-.42-.59-.41h0c-.18-.26-.37,0-.56,0-.22-.24-.4-.79-.74-.22h0a.36.36,0,0,0-.25,0h0c-.32-.6-.84-.44-1.35-.34l-.78-.17h0v-.22l.17,0a.7.7,0,0,0,.55-.66c.33.08.56,0,.6-.36l.08,0c1.11-.93,2.59-1.27,3.64-2.29a.43.43,0,0,0,.06-.18l.89,0a1.2,1.2,0,0,0,.84-.2,14.43,14.43,0,0,1,4.45,1.58c.18.26.49.16.73.24h0c.41.55,1,.29,1.51.34h0C110.25,81.41,109.31,81.55,109,82.29Zm-8.57-5.65Zm2.7,1.72a0,0,0,0,1,0,0s0,0,0,0l0,0h0Zm-2.7-1.72h0s0,0,0,0l0,0Zm-.59.38h0ZM83.48,87.55Zm-1.56-1.77ZM70.78,120l0,0h0l0,0Zm4.83.18h0l0,0h0ZM109,100v0l-.08,0,0-.09,0,.06h0Zm-1.54-5.63v0h0Zm5.4-12.08h0c0,.06,0,.09.06.14A.74.74,0,0,1,112.84,82.29Zm.79-2.73h0ZM82.9,87.13h0Zm-1.14-1.89a.91.91,0,0,0-.06.16l0-.05A.35.35,0,0,1,81.76,85.24Zm-12.93-14h0v0s0,0,0,0ZM56.61,65.52s0,0,0,0h0ZM54.09,56h0Zm2.13-3.88a0,0,0,0,0,0,0h0Zm4.07-25.83Zm-.95-2.36h0l0,0h0Zm-11.5-9.76h0v0Zm0-.05Zm-21.44,6h0s0,0,0-.05v0h0a.1.1,0,0,0,0,0,0,0,0,0,1,0,0Zm-.15-.61Zm-7.42,9.74h0v-.05h0Zm.53-2.46,0,0S19.37,26.69,19.37,26.72ZM18.67,29h0Zm.19-3.51Zm0,3.52Zm0,0h0Zm5.92-5a.26.26,0,0,0,.1,0s-.06,0-.11,0Zm-5.9,1.53,0,0v0Zm5.47,113Zm5.82-.79h0Zm2.15.39h0ZM22,140.26h0Zm.17,0Zm15.78-3.9h0l0,0h0Zm.79-2.49Zm13.42-2v0h0Zm4.86-.22Zm7-3.12h0Zm2.75-3.87h0v0ZM75.7,120h0s0,0,0,0a.28.28,0,0,0,.13,0H75.7Zm14.2,6v0l0,0Zm11.5-2.52v0h0a0,0,0,0,0,0,0ZM110,107l-.09.15a.52.52,0,0,1,0-.17l.07,0Zm.14-5.4h0s0,0,0,0v.06Zm1.52-16.37h0l0-.06,0,0Zm3.49-2.73h0Zm12.6.86,0,.06,0,0ZM141,95.5h0l0,0h.06v0A.16.16,0,0,0,141,95.5ZM131.16,86Zm5.65,23.54h0Zm-2.11-3.33h0s0,0,0,0Zm-1.82-9.69h0v0A0,0,0,0,0,132.88,96.49Zm3,10.31h0v0Zm-2.39-2.73h0Zm.18-1.39s0,0,0,0a0,0,0,0,0,0,0Zm2.22,4.33Zm.2.2h0Zm-2.42-5h0v0h0v0Zm-.35-.82Zm-.39-.75Zm6.84,0h0Zm-2,3.69a.19.19,0,0,0,0,.07l0-.08Zm1.17-3.5h0l0,0Zm2.57-3.47a.2.2,0,0,1-.08,0h.08Zm-9.39-6.19h0v0h0ZM132,92.39Zm6.17,12.84v0h0Zm.77-1.37Zm0,0h0Zm1.58-1.94h0v0Zm-7-1.18Zm-.75-4.51s0,0,0,0h0Zm-.82-9.86a.2.2,0,0,0-.13,0v0A.23.23,0,0,0,131.9,86.38Zm.24,15.74Zm.41,10.13s0,0,0,0,0-.1,0-.14A.38.38,0,0,1,132.55,112.25ZM137,108h0Zm4.11-7.37h0s0,0,0,0v0Zm.08-.35Zm7.12-12.68h0Zm-10.5,14.92s0,0,0,0h0v0h0ZM132,87.54h-.09v0a.19.19,0,0,0,.1,0Zm-.12-1.16h0s0,0,0,0Zm-.77,14.89s0,0,0,.06S131.13,101.28,131.14,101.27Zm6,7.46h0v0s0,0,0,0Zm3.11-6.18h0v0l0,0h0Zm-9.92-18.67.06,0,0,0Zm4.31,30.33h0A0,0,0,0,0,134.68,114.21Zm2.71-5.47h0Zm0,0h0a0,0,0,0,0,0,0Zm11.32-16.94h0l.14-.14h0A.27.27,0,0,0,148.71,91.79ZM141,95.49a0,0,0,0,1,0,0h0Zm-5.73,8.38h-.05l.05,0Zm-8.37-24.51Zm.19-1H127l.06,0Zm-8.54-1.72h0ZM70.62,72h0v0Zm-3.69-2.4h0v0ZM52,59.5h0Zm5.24-9.34Zm4.42-13.38h0ZM62.13,35l.14.13-.15-.1Zm-31-18.62h0Zm-5.85,7.37h0Zm2.28-1,.08-.12a.11.11,0,0,0,0,.06Zm5.7-3.91h0l0,0Zm4.26,60.68a.34.34,0,0,1,.1.23,2.14,2.14,0,0,0-.13-.19Zm1.78,54.11v0h0Zm-14.37,3.53ZM10.3,143.58h0ZM57,131.69h0Zm2.14-1.38h0v0h0Zm12.27-5.65h0Zm1.94-1.72h0a.08.08,0,0,1,0,0S73.36,123,73.36,122.94Zm7.6-5.82Zm29.33-10.44-.11,0,0-.16Zm-.06-5.44h0l-.06,0h.09Zm4.16-18h0Zm.82-.79Zm19.26,31.91v0s0,0,0,0Zm2.91-5.24h0Zm34.12,12.41h0l.08-.1h0Zm-9.2,6.64v0c.1.05.12.09.11.13l-.12-.1Zm37.35-16.91v0h0a.06.06,0,0,0,0,0Zm-.19-1h0Zm-.18,1s0,0,0-.06h0Zm.39-1.18h0v0l0,0Zm-.8-1.55h0Zm-1.3-15.41s0,0,0,0h0ZM198.68,119h0Zm.8-7.75h0v0h0s0,0,0,.06Zm-.82-8.75h0Zm-.16-5.06h0Zm1,14h0v0l0,0ZM197.76,90.4Zm-1,31.54s0,0,0,0h0Zm2.74-16.7h0ZM195,93.16h0a2.14,2.14,0,0,0,.2,2,1.59,1.59,0,0,0-.13.22,2.36,2.36,0,0,0,.34,2.09l.1.07a.41.41,0,0,0-.05.41s0,.1,0,.15a.88.88,0,0,0,.06.28.38.38,0,0,0,.11.08c-.17.23-.07.42.11.59a.38.38,0,0,0,.1,0,.6.6,0,0,0,.1.56.6.6,0,0,0,.07.49.3.3,0,0,0-.08.08.83.83,0,0,0-.08.22c-.27.13-.28.36-.09,1l.06.19c0,.19,0,.37.05.56,0,.55-.26,1.16.33,1.59l.06.55c-.21.19-.26.38,0,.59a2.86,2.86,0,0,0,0,2.17c.16.24-.53.85.33.8h0l-.16.46a.39.39,0,0,0-.25.46c.34.9,0,1.82.09,2.72a5.48,5.48,0,0,0-.23,2.31h0c-.42.61-.26,1.31-.34,2a.58.58,0,0,0,0,.19h0a2.69,2.69,0,0,0-.43,2.13c-.6,0-.44.47-.54.78l-1.14,2.37c-.42.1-.76.27-.8.76-.09.12-.18.24-.26.37h0a.19.19,0,0,0-.13,0c-.45-.18-.7.14-1,.38h0c-.66.35-1.46,0-2.12.37h0l-.16,0h0l-.52-.37c0,.14-.07.28-.11.42a.17.17,0,0,1-.17,0c.05-.5-.24-.57-.64-.5l-.54,0a2.54,2.54,0,0,0-1.36-1c-.27-.31-.54-.63-.8-.95l-.35-.41h0c0-.21-.06-.4-.33-.41-.09-.34-.25-.6-.66-.56l-.06-.2c.27-.13.16-.25,0-.43-.4-.49-.77-1-1.15-1.51h0l-1-1.39v.79c-.51-.14-.19-.74-.54-1l-.2-.44c-.13-.3.29-1.06-.61-.73l-.17-.35h0c.45-.24.08-.41,0-.6l-.35-.42h0c.07-.4-.49-.53-.39-.94h0l.19-.21c.22-.38.91-.69.2-1.22l0-.12a.51.51,0,0,0,.53-.21h0c.21.08.37.07.42-.19a.36.36,0,0,0,.14-.39.29.29,0,0,0,0-.16h0a1,1,0,0,0,.58-.61l.52-.79a.23.23,0,0,0,.23-.23c.05-.19.1-.38.16-.57h0a1.11,1.11,0,0,0,.65-1,.85.85,0,0,0,.43-.58l.33-.44h0c.16-.3.88-.57.06-.93l-.08,0v-.06h0l0,0-.06-.19h0v0h.19l.46-.14a.53.53,0,0,0,.48-.64c.24-.11.24-.33.26-.55h0c.21-.12.41-.25.38-.54h0a.78.78,0,0,0,.41-.65c.17-.23.39-.42.37-.74.5-.49,1-1,.77-1.8h0s0,0,0,0l0,0c.77,0,.95-.58,1.18-1.14.13-.25.4-.46.33-.8l.26-.36h0c.33-.09.37-.34.34-.62a.56.56,0,0,0,.25-.58c.45,0,.36-.31.35-.57.7-.29.59-1,.79-1.54.33,0,.46-.18.56-.44a1.92,1.92,0,0,0,.65-1.1,1.39,1.39,0,0,0,.35-.8c.21,0,.23-.19.22-.36h0c.28,0,.39-.13.37-.4h0c.49-.08.59-.36.4-.77.76.23.92-.38,1.19-.82.14.68-.07,1.46.53,2A2.87,2.87,0,0,0,195,93.16Zm-15.54,16.57h0v0s0,0,0,0Zm9.73-19.28Zm-1,4.47h0v0s0,0,0,0Zm-.19.39h0v0l0,0h0Zm0,.25Zm-1-1.26,0,0h0V94.2h0v.1Zm-2.42,5.39h0l0,0h0Zm.09.68h0Zm-.39.21h0Zm-4,6.57h.08l-.07,0v0h0Zm1.22-1.34h0Zm1-3.69Zm3.57-3.18h0Zm-.08-.13,0,0,0,0s0-.1,0-.15a.25.25,0,0,1,0,.12v0Zm0-.15h0Zm-8,11.07s0,0,0,0h0Zm1.68-1Zm2.56-3.44v0h0ZM188.76,94h0Zm3.51-7.2v0a.08.08,0,0,1,0,0Zm-3.7,5.67-.07,0h.07Zm0,.57h0l-.1,0Zm-8.77,15.74h0l0,0,.07,0Zm7.75-12v0h0S187.55,96.73,187.55,96.74Zm1.26-1.8s0,0,0,0l0,0v0l0,0v0h0Zm-10.74,14Zm5.25-4.67h0l0,0Zm.19-.19Zm-4,9.71v0l.12-.06.05.08-.05,0S179.56,113.76,179.52,113.78ZM167,127.22h0v0Zm-3.69-23.9s.05,0,.07,0h0S163.29,103.34,163.28,103.32Zm1,16.12h0a0,0,0,0,1,0,0Zm.74-5.23Zm3.93,9.51h0Zm0,.15v0h-.06S168.88,123.89,168.91,123.87Zm2.55-3.07Zm-5.66-1.55h0v0l.05,0Zm-.52-5.39h0l.09.1h0A.28.28,0,0,0,165.28,113.86Zm.33-3.76ZM163.8,97.51h0l0,0h0S163.82,97.5,163.8,97.51Zm3.18,29.7Zm4.66-6.22h0Zm0,0Zm2.43-4h0l-.05,0h0Zm-11.51,1.07,0-.07a.07.07,0,0,1,0-.09l.05,0A1.48,1.48,0,0,1,162.57,118.07Zm7.92,5.07Zm3.1-6v0h0Zm25.88-4.69h0s0,0,0,0Zm0-3.87h0a0,0,0,0,1,0,0h0ZM199.64,97l0,0,0,0Zm-30.12,21.08Zm2.11,3.11h0Zm.22-.21h0Zm1.94-2.69h0l.08,0-.08,0Zm8.57,3.87h0Zm17.49-7.2Zm-13-24.29h0Zm-22,7h0Zm5.9,25.49h.09A.13.13,0,0,0,170.69,123.13Zm.1-.06,0,.05h-.05S170.79,123.09,170.79,123.07Zm.81-1.49h0a0,0,0,0,0,0,0Zm12.15,2.48v0h0Zm.93,0s0,0,0,0v-.05Zm11.65.75s0,0,0,0Zm.33-.64a.68.68,0,0,0-.12-.11h.1A.15.15,0,0,1,196.66,124.22Zm2.2-3.61Zm1-23.72h0s0,0,0,0Zm-1.37-7.78h0l0,0Zm-23.3,18.83h0l0,0,0,0Zm-2,4.08h0Zm-6.81-1.52h0Zm-3.45-19.72h0Zm-28.25,7.65h0ZM108,75.9s0,0,0,0h0S108,75.89,108,75.9Zm-9.09-.68h0v0Zm-22.26,2.4v0h0s0-.06,0-.09S76.67,77.59,76.63,77.62Zm-5.4-5.3v0h0S71.23,72.31,71.23,72.32Zm-4.31-2.83Zm-3.09-1.8v0s0,0,0,0ZM59.19,48.05Zm3.5-17.71h-.06s0,0,0,0h0l0,0ZM54.48,17.51v0h0ZM36,37v0h0Zm-.21,1.77.08-.07h0Zm2.76,73.89h0Zm1,18.5h0ZM21.58,138.3l-.09-.07h.08A.15.15,0,0,1,21.58,138.3Zm-1.71,5.15,0,0h.06Zm6.21-1.61h0v0Zm.39-.2Zm3.11-1h0v0S29.58,140.66,29.58,140.65Zm5.55-1.6h0l0,0,0,0,0,0Zm1.86-.51s0,0,0,0h0Zm15.92-4.88h0Zm.2,0,0,0v0Zm6.47-2.47v0h0Zm4.26-1.74v0h0S63.84,129.41,63.84,129.42ZM90.67,127l0-.08s0,0,0,0Zm2.3,0Zm17.54-27.25,0,0,0,0Zm-2.19-7.56h0l-.12,0s0,0,.06-.08v0l.06.08Zm13.23-12.52h0l-.06,0Zm7.11,8.18h0l-.05,0Zm8.92,21.24-.06,0h.09l0,0S137.58,109.13,137.58,109.13Z"/><polygon class="cls-2" points="26.44 20.02 26.45 20.03 26.45 20.03 26.44 20.02"/><polygon class="cls-2" points="26.45 20.03 26.45 20.02 26.44 20.02 26.45 20.03"/><polygon class="cls-2" points="228.48 119.06 228.48 119.06 228.49 119.06 228.48 119.06"/><path class="cls-2" d="M41.35,78.59h0Z"/></g></g></g></svg>