<svg xmlns="http://www.w3.org/2000/svg" viewBox="0 0 306.12 201.29"><defs><style>.cls-1,.cls-2{fill:#fe5f58;}.cls-1{opacity:0.2;}</style></defs><g id="Calque_2" data-name="Calque 2"><g id="Phrase_1" data-name="Phrase 1"><g id="P1_m2_1"><path class="cls-1" d="M305.8,73.73c-.7-4.53-2.16-9.5-6.15-12.21-2.53-1.72-5.07-1.63-7.74-1.56-1-4.39-1.73-8.93-4.49-12.61-4.53-6-12.67-6.73-19.69-6.57a26.45,26.45,0,0,0-10.25,2.12,24.54,24.54,0,0,0-3.22,1.45l-.09,0c-2.65-5.63-12.83-8.94-18-9.74-7.63-1.18-14.43,1-21.61,3.15-3.26,1-3.53,1.55-5-1.36a17.22,17.22,0,0,0-6.4-7.33c-6-3.63-13.89-3.38-18.73,2-2.6,2.88-3.6,6.48-4.5,10.12a19.43,19.43,0,0,0-2.34-1.77,14.72,14.72,0,0,0-9.17-2.3,14.49,14.49,0,0,0-5,1.42,108.37,108.37,0,0,0,.38-16.7c-.46-5.94-1.65-12.31-5.84-16.86-8.51-9.24-25.85-4.7-31.69,5.47-2.86,5-2.93,11-2.27,16.49.47,3.94,1.38,7.81,1.79,11.76a56.33,56.33,0,0,1,.32,6.87c0,1.72-1.17,5.34-.83,7-1.51-.25-3-.47-4.58-.57a41.5,41.5,0,0,0-13.3,1.47A47.48,47.48,0,0,0,96,58.18a34.14,34.14,0,0,0-5.12,4c-.27-1-.53-1.92-.86-2.87A33.7,33.7,0,0,0,86.29,52a20.32,20.32,0,0,0-13.9-9,23,23,0,0,0-15.81,2.81c-3.09,1.92-5.58,4.63-8.24,7.1-4.43-3.71-8.44-4.81-15-2.24-7.89,3.13-13.68,9.5-17.91,16.67A88.27,88.27,0,0,0,5.31,92.48c-6.62,16-9.59,36.46,6.58,47.6,9.63,6.65,23.26,6.55,34,3,.2-.06.93-.26,1.8-.53-.33,3.78-1.06,7.53-1.27,11.31-.6,11.19-.69,24,4,34.4,4.33,9.66,14.89,16.5,25.19,11.11,9.8-5.14,15.59-16,18.22-26.3C96.86,161,95.55,149,96.62,136.81c.07-.84.56-2.47.77-3.79,1.36,1.14,2.92,2.17,4.22,3.28,4.52,3.86,8.92,7.09,15.15,6.65,5.71-.41,10.17-3.6,13.54-8,2.88-3.78,4.22-7.89,5.59-12.14.35.16.71.31,1,.48a26.48,26.48,0,0,0,5.22,2.46,15.91,15.91,0,0,0,11.52-1.33,27.83,27.83,0,0,0,5.47-4c.63-.57,1.51-1.9,2.28-2.08,1.18-.28,4.72,2.17,5.83,2.68a34.31,34.31,0,0,0,7.43,2.6c7,1.35,15.65.61,21.31-4,2.77-2.26,4.55-5.16,6.32-8.21s3.79-4.73,7.52-3.31c2.65,1,4.31,4,5.91,6.17,2.67,3.67,5.48,7.29,9.69,9.26,8.32,3.91,18.72-2.78,26.42-5.76,9.51-3.68,18.46-8.94,28.16-12.07A45.56,45.56,0,0,0,298.12,94.9C304.3,89,307.12,82.22,305.8,73.73Zm-258,64.81a.25.25,0,0,1,.21.15Zm85.94-16.68c-.6.22-.43,0,0,0Z"/><path class="cls-2" d="M76.07,72.71a24.88,24.88,0,0,0-4.1-10,6.44,6.44,0,0,0-5.44-2.8A10.2,10.2,0,0,0,61.07,62a18.17,18.17,0,0,0-4.94,5.72c-2.22,3.74-4.25,7.61-6.16,11.51a81.8,81.8,0,0,0-3.22,8c-.57,1.57-.9,3.22-1.34,4.83a.87.87,0,0,1-.16.26l-.61.83c-.06-.36-.15-.78-.21-1.21A74.54,74.54,0,0,0,40.85,76.2a19.75,19.75,0,0,0-3.62-6.8,6,6,0,0,0-6.16-2.15,17.93,17.93,0,0,0-4.49,2c-2,1.21-3.18,3.32-4.5,5.19a42.34,42.34,0,0,0-3.14,5.27c-1.27,2.48-2.42,5-3.55,7.57-.55,1.25-1,2.56-1.41,3.85-.39,1.14-.75,2.28-1.1,3.43s-.73,2.38-1,3.58A69.16,69.16,0,0,0,9.4,119.1c0,.92.2,1.84.3,2.77a56.86,56.86,0,0,1,.81-15.9,1.68,1.68,0,0,1,0,.59A58.43,58.43,0,0,0,10,121c.16,1.57.37,1.85,2,2.18l.3-.66.86.6c.06-.32.13-.64.18-1s.05-.57.08-.85l.21,0,.75,1.59a1.36,1.36,0,0,0,.56-1.56c-.14-.83-.33-1.65-.39-2.49-.52-8.19,1-16.13,3.24-23.94A73.63,73.63,0,0,1,24,79.77a34.24,34.24,0,0,1,5.58-8.06c2-2,2-2.13,3.7.2a23.22,23.22,0,0,1,2.13,4.33c.33.72.55,1.5.88,2.22a11.4,11.4,0,0,1,.9,1.68,88.56,88.56,0,0,1,2.06,9C40,94.51,40.46,99.88,41,105.25c.13,1.36,0,2.74,0,4.12h0L40.75,107c0,1.55.06,3.09,0,4.62-.1,1.36-.06,2.73-.23,4.1a40.25,40.25,0,0,0,0,4.82l.56-.41c.45,1.47,1.74.87,2.6.86,1.25,0,.17-1.56,1-2,.12.58.24,1.18.39,1.92a2.35,2.35,0,0,0,.94-2.18c0-2.18-.14-4.37.07-6.53a93.65,93.65,0,0,1,1.43-9.88A103,103,0,0,1,52.23,86a88.79,88.79,0,0,1,9.36-18.53,42.34,42.34,0,0,1,3.57-4c.49-.55.89-.34,1.4.06a6.58,6.58,0,0,1,2.35,3.23c.35,1.23,1.44,2.16,1.29,3.61,0,.53.67,1.09.79,1.69.64,3.32,1.42,6.64,1.74,10,.5,5.25.85,10.53.94,15.8.1,6.47,0,13-.28,19.42-.36,7.42-1,14.82-1.63,22.23-.18,2.29-.47,4.58-.71,6.87l-.23,0c.28-2.66.57-5.32.85-8h-.08c-1.87,15-3.75,30-5.63,45.12l.33-1,.17,1.5h.18l.23-.48c.24.23.5.65.82.71s.52-.44.81-.7a.88.88,0,0,0,.1.24c.12.16.26.3.39.46a3.46,3.46,0,0,0,.34-.44,1.71,1.71,0,0,0,.1-.51c.59-4.11,1.24-8.21,1.76-12.33,1-8.33,2.16-16.65,3-25,.94-9.27,1.76-18.56,2.34-27.86.41-6.66.43-13.35.43-20,0-4.35-.38-8.7-.59-13-.09-1.72-.2-3.44-.31-5.16a39.8,39.8,0,0,1,.66,4c.12,1.13.1,2.29.19,3.43.15,2,.48,4.06.48,6.1,0,6.51,0,13-.21,19.55-.11,4.58-.46,9.16-.71,13.74-.08,1.52-.14,3.06-.28,4.58q-.51,5.38-1.1,10.77c-.36,3.35-.7,6.7-1.13,10-1.27,9.83-2.59,19.65-3.86,29.47a17.49,17.49,0,0,0,0,2.29l.38.09a9,9,0,0,0,.53-1.25,16.54,16.54,0,0,0,.24-1.72c.9-6.71,1.89-13.4,2.7-20.12,1-8.56,2.07-17.12,2.84-25.71.69-7.66,1.14-15.34,1.51-23a210.57,210.57,0,0,0-.14-21.17A114.89,114.89,0,0,0,76.07,72.71Z"/><path class="cls-2" d="M247.87,71.69a52.74,52.74,0,0,0-2.35-15.07,8.9,8.9,0,0,0-2.86-4.53c-.11.21-.22.43-.41.78a2,2,0,0,0-2.15-1.59c-1,.2-1.92.53-2.88.81-.07,0-.2.09-.2.14,0,.67-1.11.38-1.07,1.13,0,0-.21,0-.31.08s-.54.13-.69.3c-.38.44-.66,1-1,1.38s-1,.76-1.31,1.27c-1.21,2.11-2.37,4.26-3.44,6.44-.48,1-.54,2.15-1.31,3-.65-2.19-1.2-4.38-2-6.5a14.54,14.54,0,0,0-3.36-6,5.88,5.88,0,0,0-5.28-1.8,13.61,13.61,0,0,0-3,1.1,9.42,9.42,0,0,0-3.53,3.53A53.06,53.06,0,0,0,204.6,68c-.15.38-.32.76-.47,1.13a.75.75,0,0,1-.28-.54c-.19-2.11-.37-4.22-.57-6.33q-1.14-11.4-2.29-22.79a3.64,3.64,0,0,0-.52-1.07l-.46.14q.47,5.58.92,11.17c-.46-2.31-.72-4.64-1-7-.14-1.35-.23-2.71-.39-4.07,0-.21-.3-.4-.46-.59-.16.17-.41.33-.45.52-.14.67-.2,1.34-.31,2.07-.1-.62-.2-1.18-.29-1.68-1.35.31-.86,1.47-1.1,2.46-.11-.91-.2-1.64-.28-2.37l-.28,0c0,.43,0,.86,0,1.28.26,2.65.53,5.31.8,8,.3,3.11.62,6.22.91,9.34.46,5.11.88,10.23,1.36,15.34.23,2.49.53,5,.84,7.44a1.38,1.38,0,0,0,.48.87,3.36,3.36,0,0,0,3.36-.25c.62.46,1,.14,1.26-.44.37-.92.7-1.85,1-2.79a88,88,0,0,1,6.08-16.09,33.15,33.15,0,0,1,4.39-6.67c.42-.47.76-.52,1.22-.09A9.59,9.59,0,0,1,221,60.74a1.25,1.25,0,0,0,.28.5c.11.16.29.29.33.46.17.89.27,1.79.45,2.68s.51,2,.72,3.05c.43,2.09.82,4.2,1.23,6.3l0,0c.28,2.21.57,4.41.85,6.62.12,1,.21,2.09.32,3.13h.14c.06-.19.13-.38.23-.67.18,1.16.25,1.28,1.33,1.4.28,0,.59-.31.85-.46l.66.46a5.14,5.14,0,0,0,.33-.9c.09-.51.12-1,.17-1.55l.12,0,.45,2.11.44,0a4.74,4.74,0,0,0,.41-1.5,38.4,38.4,0,0,1,1.44-12,84.9,84.9,0,0,1,2.93-8.62,46.45,46.45,0,0,1,2.71-5.18,3.6,3.6,0,0,1,2-2,7.1,7.1,0,0,1,.63.58c.32.4.61.81.92,1.22l-.24,0c.21.67.43,1.34.63,2a62,62,0,0,1,2,13.12c.3,3.71.33,7.44.39,11.16.06,3.37,0,6.73,0,10.1q0,5.49,0,11c0,.47.08.94.12,1.4h.3v-1c0-3.86,0-7.72,0-11.58,0-7.25.14-14.5-.52-21.73-.11-1.18-.12-2.37-.18-3.55.39,3,.69,6.08.87,9.13.13,2.07.12,4.15.11,6.22,0,2.48-.12,5-.13,7.43,0,2.88,0,5.76,0,8.64,0,1.82,0,3.64.07,5.47,0,.49-.06,1.24.74,1.23.18,0,.36-.61.55-.93,0,0,.05,0,.17-.06a2.72,2.72,0,0,0,.19.59,2.22,2.22,0,0,0,.37.38c.11-.15.29-.28.31-.44.1-1.06.23-2.13.24-3.2,0-2.47,0-4.93,0-7.4-.06-6.32-.11-12.65-.19-19,0-1.7-.16-3.41-.28-5.11s-.29-3.27-.43-4.91c0-.38-.05-.75-.08-1.13s0-.73-.07-1.09c.25.12.31.24.33.37.23,2.35.51,4.7.68,7,.21,2.76.36,5.52.49,8.29.07,1.61,0,3.23,0,4.85,0,.75,0,1.51,0,2.26,0,1.32.13,2.63.11,4,0,1.54-.17,3.08-.19,4.62,0,2.62,0,5.25,0,7.87a26.72,26.72,0,0,0,.3,2.66l.36,0a6.13,6.13,0,0,0,.38-1.47c0-6.75.07-13.5,0-20.26C248.3,79.5,248,75.59,247.87,71.69Z"/><path class="cls-2" d="M187,91.87c-.8-6.42-1.52-12.85-2.41-19.26-.59-4.28-1.39-8.53-2.19-12.77a6.25,6.25,0,0,0-1.21-3,4.48,4.48,0,0,1-1.12-2.49,12,12,0,0,0-.39-1.6,3.67,3.67,0,0,0-.58-.81l-.25.12v1.38h-.19l-.57-1.74-.7.07-.21,1.46H177a7.58,7.58,0,0,1-.17-1.32c.06-1.12-.2-1.35-1.32-1.07-.17-.7-.63-.64-1.14-.43a17.24,17.24,0,0,0-1.57.73,11.61,11.61,0,0,0-2.15,1.35,20.54,20.54,0,0,0-3.67,5.18,57.81,57.81,0,0,0-5.73,12.82c-.22.72-.28,1.49-.5,2.22-.35,1.22-.77,2.43-1.22,3.83l.42-.19.06,0s0,0,.08,0l-.81,4.58,0,0c0,.34,0,.69,0,1-.06,3.19-.2,6.38-.16,9.57a44,44,0,0,0,.58,4.85l-.3-.21c.38,1.17,1,2.19,1.44,3.27a3.47,3.47,0,0,0,2.94,2.15A7.38,7.38,0,0,0,170,99.9a13.87,13.87,0,0,0,2.23-2.54,38.32,38.32,0,0,0,5.26-11.7c.94-3.52,1.52-7.13,2.22-10.47,1.23,9.86,2.49,20,3.76,30.18l.22,0q-2-16.22-4-32.42l.21,0Q182,90,184.12,107.06l.32,0c0-.47.09-.94.12-1.2a5.89,5.89,0,0,0,.37,1.1.79.79,0,0,0,.64.25c.11,0,.26-.32.29-.51a11.68,11.68,0,0,0,.08-1.28c.21.67.38,1.24.55,1.8.84-1,.61-2.28.74-3.45l.24,0L188,107l.49,0a11,11,0,0,0,.16-2.13C188.11,100.51,187.55,96.19,187,91.87ZM174.75,76.08h-.19q.28-4.35.58-8.68l-.21,0-.54,7.28a48,48,0,0,1-5.67,19.87c-.77,1.4-1.78,2.67-2.69,4l-.33-.07a11.56,11.56,0,0,1-.6-1.09,23.21,23.21,0,0,1-1.49-8.88A56.5,56.5,0,0,1,171,59.58c1.07-1.89,2.23-3.72,3.35-5.58l.37.11c1.28,4.17.25,8.42.44,12.64.06-.85.12-1.7.17-2.55l.15-2.57.26,0Z"/><path class="cls-2" d="M151.17,63a21,21,0,0,0-2.95-.44,6.37,6.37,0,0,0-1.32.17c0-.32-.06-.55-.06-.77,0-2.93,0-5.86,0-8.79q-.06-6.8-.17-13.57c0-1.09-.05-2.17-.11-3.25s-.19-2.36-.22-3.55c0-1,.12-2,.09-3-.08-2.73-.17-5.45-.33-8.17-.23-3.7-.52-7.4-.82-11.09,0-.37-.37-.71-.57-1.06l-.43.14c1.82,17.79,1.44,35.63,1.66,53.46l-.43,0a4,4,0,0,1-.1-.68c0-5.6,0-11.19-.09-16.78,0-3.13-.21-6.26-.28-9.4-.1-4.46-.12-8.92-.27-13.38-.1-3.17-.34-6.33-.56-9.5-.08-1.22-.3-2.44-.41-3.66-.06-.71-.43-.52-.85-.41-.06.68-.13,1.33-.2,2.15-.26-.6-.43-1-.67-1.59l-.9,1.42-.29-1-.12,0q.62,10.77,1.25,21.56h.16V26a22,22,0,0,1,.21,2.42c0,.83.1,1.67.2,2.49s.24,1.55.36,2.32a1.85,1.85,0,0,1,0,.57,18,18,0,0,0-.39,2.39c0,3.85,0,7.69,0,10.09-.06-2.92-.15-7.29-.23-11.66h-.23V64.49h-.2V60.23a12.26,12.26,0,0,0-.14,2.63c.06,1.25,0,2.29-1.36,3a13.35,13.35,0,0,0-3,2.59c-1,1.11-2.36,2.13-2.24,4,0,.09-.21.22-.33.3a1.51,1.51,0,0,0-.75,2c.06.16,0,.38,0,.57h-.19l-.16-.86c-2.48,5.5-4.73,10.86-5.14,16.79l.29-1.37a2.9,2.9,0,0,1,.07.87c-.05,2-.24,4.11-.14,6.16a16.25,16.25,0,0,0,1.64,6.93c.28.52.61,1.2,1.09,1.42a5.2,5.2,0,0,0,5.37-.59,63.24,63.24,0,0,0,5.45-5.08V104h.24l.17-.56.86,1.11.31-.12.27-1.66a2.65,2.65,0,0,1,.3,1,2.84,2.84,0,0,0,.38.65c.11-.2.32-.41.32-.62.07-2.39.15-4.79.14-7.18,0-1.38.08-2,.63-2.38.15,3.29-.68,6.6.23,10,.8-.64.68-1.46.69-2.21,0-3,0-6,0-9a2.54,2.54,0,0,1,.33-1.13c.68-1.25,1.42-2.46,2.1-3.71.27-.49.49-1-.25-1.47l-1,1.38c-.08-.7-.15-1.27-.22-1.95l-1,.52c0-1.7,0-3.26,0-4.81,0-5,.05-9.93.06-14.9,0-1.15.14-1.35,1.26-1.53a20.21,20.21,0,0,0,2.79-.54,1.48,1.48,0,0,0,.73-1A1,1,0,0,0,151.17,63Zm-9,28.36H142l-.12-1.31h-.11a2.61,2.61,0,0,0,0,.48,3.77,3.77,0,0,1-.84,3.07c-.22.24-.24.68-.33.94a8.13,8.13,0,0,0-.92,1.08,20.31,20.31,0,0,1-3,3.94,1.22,1.22,0,0,0-.32.51c-.18,1-1.31.78-1.55,1.65l-.3-.15a33.37,33.37,0,0,1-.88-3.33,30.4,30.4,0,0,1,1.17-13.66c.68-2.3,1.31-4.62,2.16-6.86a22.17,22.17,0,0,1,4.8-8v4.15h.25v-4.3h.22Z"/><path class="cls-2" d="M117.61,107.18c-.43-9.55-1.42-19-2.51-28.52,0-.47-.51-.89-.78-1.33-.67.56-.86-.66-1.43-.39a.92.92,0,0,0-.5.51c-.18.75-.53.37-.89.16l-.38.72c-.82-.26-1.51.19-1.42.8a4.14,4.14,0,0,1,0,1.11c-.13.79-.3,1.58-.43,2.38s-.22,1.88-.47,2.78c-.35,1.32-.9,2.57-1.24,3.89-.43,1.68-.72,3.4-1.09,5.11-.41,1.93-.78,3.88-1.31,5.79-.39,1.39-1,2.71-1.52,4.07a24.3,24.3,0,0,1-2.94,6l-.84,1.18a2.94,2.94,0,0,1-.49-.65,33.91,33.91,0,0,1-2-5.54,34.87,34.87,0,0,1,1.49-17.68A29.7,29.7,0,0,1,107,74.52c1.54-1.37,3.2-2.44,5.43-1.65a1.55,1.55,0,0,0,1.76-.32c.16-.16.6-.06,1-.09.11-.18.26-.46.44-.72.4-.55.39-1-.35-1.16a19.74,19.74,0,0,0-3.36-.72,8.83,8.83,0,0,0-4.18.93c-1.23.56-2.62.82-3.3,2.19,0,.08-.16.12-.26.18-.07-.22-.12-.39-.19-.6l-.61.47.33.74-.76-.38-.15.69c-.66-.18-.67.41-.88.76,0,.08-.12.19-.17.18-.92-.15-.89,1-1.67,1.16-.18,0-.3.45-.45.7a4.88,4.88,0,0,1-.31.55c-1.3,1.49-2.66,2.95-2.94,5,0,.08,0,.2-.08.23a3,3,0,0,0-1.15,2,28.14,28.14,0,0,1-1.41,3.26,33.46,33.46,0,0,0-2,10.66c-.12,3.62-.27,7.27,1.63,10.6.47.84.67,1.83,1.15,2.66a4.72,4.72,0,0,0,2.53,2.59,7.2,7.2,0,0,0,7.67-2.43,38.57,38.57,0,0,0,5.11-11.28c.74-2.45,1.38-4.94,2.07-7.41h.15L114,125.73h.21v-6.64c.1,1.94.19,3.64.28,5.35a3.29,3.29,0,0,0,.17,1.1c.12.27.47.42.71.63.11-.23.24-.45.33-.68s.19-.53.28-.79c.22,1.14.22,1.14,1,1.4-.07-12-1.14-23.76-1.7-35.59.3,1.83.52,3.68.68,5.53s.22,3.57.33,5.35c.18,2.73.38,5.46.55,8.19.13,2.06.25,4.13.35,6.19.11,2.5.18,5,.31,7.5.05.81.22,1.62.37,2.65a2.42,2.42,0,0,0,.63-2.12C118.2,118.25,117.85,112.72,117.61,107.18Z"/><path class="cls-2" d="M299.67,75.37c-.33-.24-.65-.63-.81-.57a16.63,16.63,0,0,0-3.41,1.52c-2.19,1.51-4.23,3.22-6.37,4.8q-8.41,6.22-16.86,12.4c-1.45,1-3,2-4.55,2.9s-2.26.78-3.65-.46a13.24,13.24,0,0,1-3.92-6.65,28,28,0,0,1,.46-14.88c.26-1,.63-1.18,1.58-1.14a56.32,56.32,0,0,0,13.35-.56A7.55,7.55,0,0,0,281,69.25a34.54,34.54,0,0,0,3.1-6.88,12,12,0,0,0,.68-4.5,6.22,6.22,0,0,0-6.55-5.59,15.12,15.12,0,0,0-4.85,1.38A55.76,55.76,0,0,0,267,57.1a23,23,0,0,0-5.91,4.9,22.21,22.21,0,0,0-3.48,6c-2.25,5.72-3.91,11.54-3.43,17.78A19.16,19.16,0,0,0,257.92,96a8.67,8.67,0,0,0,9.55,3.57,14.24,14.24,0,0,0,5.1-2.16c4.52-3.13,9-6.28,13.49-9.5,3-2.17,5.93-4.46,8.89-6.71,1.82-1.39,3.66-2.76,5.41-4.23.33-.27.26-1,.37-1.53Zm-33.8-12.56A38.87,38.87,0,0,1,271,58.57a54.47,54.47,0,0,1,4.92-2.87c1.86-1.05,2.4-.49,3.5,1a3.52,3.52,0,0,1,.72,3.33,5.64,5.64,0,0,1-.54.95,3.82,3.82,0,0,0-.26.54c-.56,1.47-1.15,2.93-1.65,4.43a11.64,11.64,0,0,1-2.18,3.5,2,2,0,0,1-1.15.65,38.46,38.46,0,0,1-8.84.44c-1.2,0-2.41,0-3.76,0C262.72,67.56,263.82,64.89,265.87,62.81Z"/><path class="cls-2" d="M72.11,79.94c2,17.51,1.22,35-.07,52.53C73.93,123.21,74,85,72.11,79.94Z"/><path class="cls-2" d="M197.09,52q.61,6.33,1.24,12.67l.21,0q-.61-6.37-1.22-12.73Z"/><path class="cls-2" d="M141.61,51.87h.12V39.31h-.12Z"/><path class="cls-2" d="M198.69,69.71l1.05,10.67.24,0c-.36-3.55-.71-7.11-1.07-10.67Z"/><path class="cls-2" d="M112.06,97.74h-.2l.66,10.86h.22Q112.41,103.17,112.06,97.74Z"/><path class="cls-2" d="M40.65,103.84c-.31-3.34-.63-6.68-.94-10l-.19,0c.32,3.34.63,6.68.95,10Z"/><path class="cls-2" d="M141.72,59.41h.12v-6.8h-.12Z"/><path class="cls-2" d="M158.5,90c.13,1.86.32,3.72.49,5.57l.18,0-.51-7.12A8.36,8.36,0,0,0,158.5,90Z"/><path class="cls-2" d="M158.65,88.35v.09s0-.06,0-.08Z"/><path class="cls-2" d="M112.54,109.2l.42,7.23.16,0-.36-7.26Z"/><path class="cls-2" d="M243.26,104.34h.09V94.92h-.09Z"/><path class="cls-2" d="M140.85,16.1l-.2,0,.35,5.55.17,0Z"/><path class="cls-2" d="M158.43,87.74a1.5,1.5,0,0,0,.22.57c0-1.46,0-2.93,0-4.39C158.53,85.19,158.46,86.46,158.43,87.74Z"/><path class="cls-2" d="M158.65,88.35h0s0,0,0,0Z"/><path class="cls-2" d="M71.54,137.64l.2,0,.39-4.49h-.19Z"/><path class="cls-2" d="M142.33,34.22c0-.69-.08-1.39-.11-2.09l-.42,0,.2,2.07Z"/><path class="cls-2" d="M159.23,79.64H159c-.12,1.2-.25,2.4-.38,3.61h.14l.47-2.39,0,0Z"/><path class="cls-2" d="M39,89.05l-.13,0L39.41,93l.16,0Z"/><path class="cls-2" d="M196.84,48.11l-.17,0c.1,1,.21,2,.31,3h.21C197.08,50.15,197,49.13,196.84,48.11Z"/><path class="cls-2" d="M141.7,103.44h.12v-3h-.12Z"/><path class="cls-2" d="M243.26,81.93v4.19h.09V81.93Z"/></g></g></g></svg>