<svg xmlns="http://www.w3.org/2000/svg" viewBox="0 0 306.13 132.09"><defs><style>.cls-1,.cls-2{fill:#fe5f58;}.cls-1{opacity:0.2;}</style></defs><g id="Calque_2" data-name="Calque 2"><g id="Phrase_1" data-name="Phrase 1"><g id="P1_m2_2"><path class="cls-1" d="M304.42,45.86c-.44-4.1-.14-8.46-1.46-12.42-2.93-8.75-13.71-7.83-21.2-8.36-5.41-.38-10.67-.93-15.89,1-2.56.94-5,3-7.59,3.66-3,.74-6.46-.92-9.42-1.38-6.41-1-13.07-1.22-19.53-1.8a24.87,24.87,0,0,0-8.85.65c-.7.18-1.39.4-2.08.62-.33-6.06-2.87-12-7.88-15.71-7-5.26-15.68-3.06-21.75,2.53-5.23,4.81-9.67,13.67-9.2,21.1A14.7,14.7,0,0,0,174.51,38a29.39,29.39,0,0,0-5.38,5.19A17.39,17.39,0,0,0,158.49,42a29,29,0,0,0-8.37,3.38l-1.21.66-.06,0c-.83-.82-2-2.11-2.11-2.18-3.85-4.2-8.86-8-14.32-9.84-5.17-1.73-10.63-1.56-15.94-.66-2.77-8-5.36-16.29-14.31-19.31C96.82,12.3,89.64,11.14,84,12c-4.9.79-7.89,3.79-11.06,6.9-1.92-3.59-2.84-8-5.21-11.23-3-4.09-7.14-7-12.23-7.58C45-1,33.31,6.19,25.76,13A67.79,67.79,0,0,0,6.48,43.79a3.47,3.47,0,0,0-.81,1C-2.75,59.3-1.74,79.43,8.34,93.06c4.75,6.42,11.76,11.28,20,11.6a18.86,18.86,0,0,0,11.11-3.35,53.66,53.66,0,0,0,4.84-3.81c1.56-1.32,3.7-4.14,5.61-4.83.31-.11.42-.22.45-.29a2,2,0,0,0,.55.68,12.93,12.93,0,0,1,2.1,3.2c1.6,2.86,2.71,6,4.42,8.79A21.23,21.23,0,0,0,78.19,115a19,19,0,0,0,10.08-4.6A22.07,22.07,0,0,0,91.86,106c.07.14.16.27.23.41,4.37,7.94,8.78,18.68,16.9,23.61,7.45,4.53,17.49,1.19,22.82-5.1a23.43,23.43,0,0,0,4.85-9.6c.78-3.09.81-8.48,4.43-9.65,2.33-.74,5.72.6,8.09.91a29.42,29.42,0,0,0,7.95-.16,33.28,33.28,0,0,0,14-5.18c2.09-1.33,4.15-2.74,6.16-4.2,1.77-1.28,3.67-3.27,5.78-4s4.7,0,6.87.25c2.87.38,5.74.56,8.59,1.08,10,1.82,20.75,1,30.16-3.41,1.92-.9,3.92-3,5.92-3.55,1.84-.55,3.36.26,5.28.87a36.89,36.89,0,0,0,15.3,1.67c5.16-.54,10.2-1.84,15.27-2.89a145.37,145.37,0,0,0,17.72-4.34c8.16-2.8,15.57-8.22,17.5-17.11C307,59.07,305.12,52.32,304.42,45.86Z"/><path class="cls-2" d="M111.28,96.84c-3.47-13.09-6.49-26.27-8.91-39.6-1-5.47-2.11-10.92-3.31-16.35a20.61,20.61,0,0,0-1.85-5,6.27,6.27,0,0,0-9.14-2.15A9.66,9.66,0,0,0,85,37.39c-1.22,2.41-2.41,4.85-3.47,7.34-5,11.66-9.28,23.59-13.52,35.54-.1.27-.21.54-.38,1l-.11-.47q-1.44-7.45-2.87-14.91c-1.76-9.12-3.57-18.22-6.08-27.17a69.65,69.65,0,0,0-5.3-14.19c-1-2-2.2-3.87-4.17-5-3.06-1.8-6.2-1.57-9.3-.1a19.81,19.81,0,0,0-6.16,5,106,106,0,0,0-10.95,15.1,103.43,103.43,0,0,0-10,20.32,21.58,21.58,0,0,0-1.46,9.9,11.8,11.8,0,0,0,2.33,6.16,4.23,4.23,0,0,0,4.89.56c.38-.28.53-.61.18-1a11.5,11.5,0,0,1-2.38-7.59A22,22,0,0,1,17.79,60,118.09,118.09,0,0,1,37.64,26a20,20,0,0,1,5.14-4.69c1.68-1,1.61-1.32,3.3.47A20.65,20.65,0,0,1,49.7,28a99,99,0,0,1,5.63,18.33C57.72,57.56,59.91,68.8,62.2,80c.44,2.15.9,4.31,1.46,6.43A3,3,0,0,0,64.73,88a4.24,4.24,0,0,0,5.94-1.56,32.1,32.1,0,0,0,1.56-3.62C76.52,71,80.68,59.12,85.57,47.5,87,44.24,88.48,41.05,90,37.85a19.63,19.63,0,0,1,1.69-2.49c.41.78.75,1.34,1,1.94a46.87,46.87,0,0,1,2.58,9.5c1.43,7.38,2.78,14.77,4.21,22.14,1.94,10,4.58,19.87,7.09,29.75,1.17,4.6,2,9.28,3.06,13.92a1.42,1.42,0,0,0,.82.94,9.31,9.31,0,0,0,2.83.2c1.37-.17,1.65-.6,1.35-2C113.56,106.8,112.59,101.78,111.28,96.84Z"/><path class="cls-2" d="M195.41,70.7q-2.79-8.7-5.61-17.4c-.4-1.23-.85-2.44-1.32-3.64a2.44,2.44,0,0,0-1.73-1.58c-2.86-.63-4.66-.06-5.52,2.78-.77,2.57-1.66,5.1-2.62,7.6a58.44,58.44,0,0,1-8.27,15.48c-.16.21-.34.4-.57.67-.1-.38-.17-.62-.23-.86-1.06-4.64-2.14-9.27-3.19-13.91-.13-.61-.42-1.08-1-1.17-1.82-.29-3.64-.59-5.47-.72a2.26,2.26,0,0,0-2.32,1.58c-2.86,6.65-5.79,13.27-8.7,19.89l-.42.91L148,79.18c-2.44-6.68-4.9-13.35-7.29-20a2.31,2.31,0,0,0-2.17-1.67,4.49,4.49,0,0,0-3.31.78c-.36.28-.75.5-1.16.76a8.14,8.14,0,0,0-.91-1.37,3.37,3.37,0,0,1-.86-3,1.1,1.1,0,0,0-.82-1.27,5.33,5.33,0,0,0-3.14-.13,2.36,2.36,0,0,1-1.21,0,9.23,9.23,0,0,0-10.35,2.89c-.37.43-.72.89-1.16,1.42a16.52,16.52,0,0,0-.78-1.72A1.91,1.91,0,0,0,114,55a4.56,4.56,0,0,0-3.62,0c-.74.29-.86.62-.54,1.35.83,1.93,1.64,3.86,2.5,5.78a1.7,1.7,0,0,1,0,1.43c-.95,2.64-1.92,5.28-2.74,8a18.2,18.2,0,0,0-.74,8,19.63,19.63,0,0,0,7.26,12.35,9.07,9.07,0,0,0,9.7,1.42c2.38-.93,3.78-2.93,4.81-5.15a41.54,41.54,0,0,0,3.78-15.69,35.58,35.58,0,0,0-.68-8.3,1.22,1.22,0,0,1,.15-.95c.75-.58,1.58-1.07,2.42-1.62.16.44.29.77.41,1.1q4.35,11.9,8.69,23.81a1.65,1.65,0,0,0,1.26,1.27,11.37,11.37,0,0,0,2.33.15,2.23,2.23,0,0,0,2-1.55c3.39-7.82,6.84-15.62,10.27-23.42.09-.22.2-.42.38-.79,1.26,5.48,2.48,10.75,3.7,16a1.56,1.56,0,0,1,.12.59,1.29,1.29,0,0,1-.29.77c-.61.52-1.3,1-1.93,1.45s-.55.86.08,1.24a2.2,2.2,0,0,0,.69.29,4.58,4.58,0,0,0,4-.62c.86-.62,1.82-1.11,2.61-1.81a17.69,17.69,0,0,0,1.88-2.24c1.66-2,3.3-4.08,5-6.19.23.13.55.33.89.49,2.73,1.32,5.42,2.72,8.21,3.92a10,10,0,0,0,6.74.7A3.12,3.12,0,0,0,195.9,73,14.06,14.06,0,0,0,195.41,70.7Zm-77.33-8.2a21.94,21.94,0,0,1,4-6.19c1.84-1.81,1.67-1.5,3.57-.4.2.11.37.26.56.38a2.6,2.6,0,0,1,1.29,2.08c.13,1.27.49,2.52.7,3.79A1.88,1.88,0,0,1,128,63c0,.07-.16.11-.24.17l-7.54,4.92c-.75-1.73-1.46-3.37-2.15-5A.79.79,0,0,1,118.08,62.5Zm7.62,25.08A9.78,9.78,0,0,1,123,91.27a1.17,1.17,0,0,1-1.57.08A18.6,18.6,0,0,1,116,85.17,16.39,16.39,0,0,1,114.66,72q.3-1.09.63-2.19a2.85,2.85,0,0,1,.19-.44c.24.56.45.93.58,1.33A1.78,1.78,0,0,0,117.52,72a4.77,4.77,0,0,0,3.85-.6c2.29-1.53,4.61-3,6.92-4.52.18-.13.38-.24.7-.44.1.88.23,1.66.27,2.44A40.06,40.06,0,0,1,125.7,87.58Zm64.91-13a65.31,65.31,0,0,1-11.26-5.81l5.86-13.56s0,.06.09.17c1.7,5.26,3.41,10.53,5.07,15.8A5.2,5.2,0,0,1,190.61,74.63Z"/><path class="cls-2" d="M298.72,62c-.31-5.91-.58-11.83-1-17.74a65.29,65.29,0,0,0-.83-6.54,3.53,3.53,0,0,0-2.9-2.87,10.66,10.66,0,0,0-5.55.13c-1.95.55-3.85,1.23-5.8,1.77a6,6,0,0,1-2.3.16c-1.37-.19-2.72-.56-4.08-.84a5.07,5.07,0,0,0-3.41.31c-.66.33-.67.67-.24,1.25a7.48,7.48,0,0,1,.88,1.49,36.33,36.33,0,0,1,3.14,12.37,16.36,16.36,0,0,1-1.6,8.4,6.2,6.2,0,0,1-2.33,2.64c-.39.24-.73.25-1-.13a19.26,19.26,0,0,1-1.56-2.5,52.74,52.74,0,0,1-4.08-13.16,1.32,1.32,0,0,0-.86-1.14,4.9,4.9,0,0,0-3.63,0,1.11,1.11,0,0,0-.77,1.1c0,1-.06,2-.1,3a36,36,0,0,1-1.61,10.76,17.41,17.41,0,0,1-5.85,8.2,2.22,2.22,0,0,1-.19-.23c-.14-.21-.28-.42-.4-.64a39.13,39.13,0,0,1-4.51-12.9c-.4-2.44-.47-4.94-.72-7.4-.15-1.55-.56-1.94-2.11-2.13a5.37,5.37,0,0,0-1.06,0c-1.7.1-2.22.56-2.53,2.22-.46,2.38-.78,4.8-1.39,7.15a20.49,20.49,0,0,1-9.6,13.12c-1.36.81-1,1-2.33-.39-2.94-3.28-3.76-7.23-3.56-11.5a1.27,1.27,0,0,1,.68-1.14,20.2,20.2,0,0,0,5.93-5.68A3.58,3.58,0,0,0,231,44a9.87,9.87,0,0,0-1.76-1.32,4.75,4.75,0,0,0-7,2.27,27.78,27.78,0,0,0-1.35,4.17c-.39,1.59-.63,3.22-.91,4.75a21.53,21.53,0,0,0-2.17.53,1.1,1.1,0,0,0-.65.72c0,.25.35.61.63.73a17.67,17.67,0,0,0,2,.66v.72a16.09,16.09,0,0,0,4.31,11.5,6.45,6.45,0,0,0,5.21,2.19,10.74,10.74,0,0,0,3.62-.71,21.55,21.55,0,0,0,10.7-10.12l.42-.8c.16.51.26.88.38,1.24a36.88,36.88,0,0,0,4,8.83,5.17,5.17,0,0,0,5.29,2.37,6.8,6.8,0,0,0,3.29-1.27,19.23,19.23,0,0,0,7.35-9.78l.4-1.17c.39.76.72,1.38,1,2A6,6,0,0,0,270.64,65c4.14.53,7.75-.94,9.61-4.88a17.49,17.49,0,0,0,1.56-8.34,33.87,33.87,0,0,0-2.26-10.57l-.69-1.91a1,1,0,0,1,.2-.07c.2,0,.41,0,.61,0a12.21,12.21,0,0,0,5.47-.45c1.81-.56,3.63-1.11,5.42-1.72.71-.25,1.08-.06,1.2.63a47.5,47.5,0,0,1,.73,4.86c.42,6.57.75,13.14,1.09,19.72a1.17,1.17,0,0,0,.86,1.18,4.94,4.94,0,0,0,3.2.1C298.57,63.29,298.77,63,298.72,62ZM226.93,46c.54,1.33-.11,2.23-.76,3.12l-.18-.06C226.3,48,226.62,47,226.93,46Z"/><path class="cls-2" d="M209.93,64.74c-.89-6.41-1.76-12.83-2.67-19.23a1.58,1.58,0,0,0-.72-1,4.47,4.47,0,0,0-3.75,0,.93.93,0,0,0-.64,1.13c.24,1.44.45,2.89.65,4.35q1.65,11.87,3.31,23.74c.19,1.36.55,1.7,1.92,1.86.25,0,.51,0,.76,0s.51,0,.76,0c1.58-.18,1.88-.61,1.65-2.16C210.76,70.5,210.33,67.62,209.93,64.74Z"/><path class="cls-2" d="M203.92,25.79a14.46,14.46,0,0,0-2.08-.67,14.59,14.59,0,0,0-2.12.64c-.63.28-.61.83-.05,1.23a4.66,4.66,0,0,0,4.27,0C204.48,26.59,204.51,26.07,203.92,25.79Z"/></g></g></g></svg>