<svg xmlns="http://www.w3.org/2000/svg" viewBox="0 0 320.9 211.01"><defs><style>.cls-1{fill:#fff;opacity:0.2;}</style></defs><g id="Calque_2" data-name="Calque 2"><g id="Contours"><path class="cls-1" d="M320.56,77.28c-.73-4.74-2.27-10-6.45-12.79-2.64-1.8-5.31-1.71-8.1-1.64-1.09-4.6-1.82-9.35-4.72-13.21-4.75-6.32-13.28-7.06-20.64-6.89A27.64,27.64,0,0,0,269.91,45a25.65,25.65,0,0,0-3.38,1.52l-.09,0c-2.78-5.9-13.45-9.36-18.84-10.2-8-1.25-15.14,1-22.66,3.29-3.42,1.05-3.7,1.63-5.26-1.42A18.18,18.18,0,0,0,213,30.51c-6.26-3.8-14.57-3.54-19.64,2.09-2.72,3-3.77,6.8-4.72,10.61a21.27,21.27,0,0,0-2.44-1.86,15.51,15.51,0,0,0-9.62-2.41,15.31,15.31,0,0,0-5.29,1.49,112.56,112.56,0,0,0,.39-17.51c-.47-6.22-1.73-12.9-6.11-17.66C156.62-4.43,138.44.32,132.31,11c-3,5.2-3.07,11.5-2.38,17.28.49,4.13,1.45,8.19,1.88,12.33a59.74,59.74,0,0,1,.34,7.2c0,1.8-1.23,5.6-.87,7.33-1.58-.27-3.2-.49-4.8-.6a43.53,43.53,0,0,0-14,1.54A49.45,49.45,0,0,0,100.67,61a35.13,35.13,0,0,0-5.37,4.2c-.28-1-.55-2-.9-3a35.8,35.8,0,0,0-3.94-7.69A21.35,21.35,0,0,0,75.88,45a24.16,24.16,0,0,0-16.57,3c-3.24,2-5.85,4.85-8.64,7.44-4.64-3.88-8.85-5-15.67-2.34-8.27,3.27-14.33,10-18.77,17.47A92.2,92.2,0,0,0,5.57,96.94c-6.94,16.83-10.06,38.22,6.89,49.91,10.1,7,24.39,6.86,35.64,3.16.21-.07,1-.28,1.89-.56-.34,4-1.11,7.89-1.32,11.86-.64,11.73-.73,25.16,4.14,36.06,4.54,10.13,15.61,17.3,26.4,11.64,10.28-5.38,16.35-16.74,19.11-27.57,3.22-12.62,1.84-25.22,3-38,.08-.89.59-2.59.81-4,1.43,1.19,3.06,2.27,4.43,3.44,4.74,4.05,9.35,7.43,15.87,7,6-.43,10.67-3.77,14.2-8.41,3-4,4.42-8.26,5.86-12.73.37.17.74.33,1.06.51A28.55,28.55,0,0,0,149,131.8a16.66,16.66,0,0,0,12.07-1.4,28.35,28.35,0,0,0,5.74-4.19c.66-.59,1.59-2,2.39-2.18,1.24-.29,4.95,2.28,6.11,2.81a35.82,35.82,0,0,0,7.79,2.72c7.29,1.43,16.4.65,22.34-4.2,2.9-2.37,4.77-5.41,6.63-8.62s4-4.95,7.88-3.46c2.78,1,4.52,4.17,6.19,6.46,2.8,3.85,5.75,7.65,10.16,9.72,8.72,4.09,19.62-2.92,27.69-6,10-3.86,19.36-9.37,29.53-12.66a47.83,47.83,0,0,0,19-11.28C319,93.27,322,86.19,320.56,77.28ZM50.07,145.23a.25.25,0,0,1,.22.15Zm90.1-17.49c-.64.23-.45,0,0,0Z"/></g></g></svg>