<svg xmlns="http://www.w3.org/2000/svg" viewBox="0 0 305.47 97.86"><defs><style>.cls-1,.cls-2{fill:#fe5f58;}.cls-1{opacity:0.2;}</style></defs><g id="Calque_2" data-name="Calque 2"><g id="Phrase_1" data-name="Phrase 1"><g id="P1_m2_3"><path class="cls-1" d="M295.76,36.85c-5.56-4.09-13-6.3-19.85-6.79-6.41-.46-11,1.64-16.75,3.74-.83.3-2.85,1.31-3.81,1.08-1.3-.31-1.43-1.65-2-2.94a49.28,49.28,0,0,0-6-9.16c-4-5.2-7.8-11-13.18-15-11.87-8.7-27.45-1.65-33.07,11a62.94,62.94,0,0,0-3,7.87,12.07,12.07,0,0,0-1.61.38,51.69,51.69,0,0,1-7.12.89c-8.49.53-17-.71-25.43-.27-2,.1-4,.28-6,.32a18.54,18.54,0,0,1-2.19.08c.21-.09.12-.87.14-.78-.68-3.16.68-6.69,0-10A21.82,21.82,0,0,0,144.5,2.69a21.69,21.69,0,0,0-29.81,9.19c-1.28,2.44-1.43,6.28-3.08,8.37s-6.14,1.69-8.73,1.71c-7.79.06-15.36-.24-23.11-.89-8.84-.75-17.4.6-26.21.66-.14,0-.26,0-.4,0,1.46-8.29-3.94-18-12.53-19.42-13.29-2.2-26.56,8.47-33,19.21S-.91,46.63.33,59C1.65,72,7.88,82.32,18.42,90c5.27,3.86,11.46,6.86,18,7.66s12.11-1.58,17.42-5.45a48.83,48.83,0,0,0,7.54-6.9c.77-.85,2.54-3.84,3.63-4.24-.08,0,2.67,1,3.61,1.38,7.4,2.59,15.59,4.31,23.09,1.16a58.66,58.66,0,0,0,9.17-4.77,6.27,6.27,0,0,0,.66.54,13.44,13.44,0,0,0,4.19,1.76,25.68,25.68,0,0,0,8.48.18c4-.47,8-2.54,11.86-1,5.07,2,8.71.9,12.93-2.3,3.43-2.6,5.41-3.06,9.39-1,3,1.55,5.92,3.26,9.23,4a16.74,16.74,0,0,0,8.57-.49c1.47-.47,2.91-1.41,4.45-1.61,2.44-.31,3.79,1.27,5.52,2.67,5,4.05,10.6,4,16.69,2.53,8.06-1.89,16.18-4.67,24.62-4.11,3.43.23,6.59,2.07,10.06,1.92a19.54,19.54,0,0,0,4.27-1c2.34-.62,3.31-.33,5.37.9,12.15,7.23,26.26,10.23,40.22,7.54C288.28,87.26,299,81,303.26,70.3,307.66,59.41,305.64,44.12,295.76,36.85ZM198.69,26.77c.3,0,.46.08,0,0Z"/><path class="cls-2" d="M296.4,62c-.59.67-1.7-.22-2.19.83l-.21-.17c0,.06,0,.11,0,.17l-1.52.29.41.46-.1.13c-.26-.13-.55-.4-.77-.35-.83.21-1.63.53-2.53.84l.72.83-1.2.29c.16-.24,1-.28.22-.84l-.39.58c-.61-.28-1.68.14-1.71.69s-.3.66-.71.61c-.58-.06-1.05.54-1.67.25,0,0-.12.11-.2.14l-.75.22c-.55.14-1.1.26-1.64.41-.21.06-.41.24-.63.26a27.32,27.32,0,0,1-3,.21,8.06,8.06,0,0,1-2.74-.32c-.61-.23-1.45-.11-1.87-1-.2-.42-.89-.6-1.5-1L278.16,62c0-.13-.06-.26-.12-.49a1,1,0,0,0,1.38-.27,8.85,8.85,0,0,1,.81-.81c.17-.15.48-.16.62-.32.41-.5.91-.94,1.3-1.42a26.92,26.92,0,0,0,2.23-3.59,4,4,0,0,0,.47-1.28c.13-.75.07-1.54.24-2.28a4.23,4.23,0,0,0-.51-2.72A16,16,0,0,0,283,46.3c-.11-.17-.42-.22-.5-.39a2.59,2.59,0,0,0-2.06-1.17c-.57-.13-1.19-.06-1.81-.24-.44-.13-1,.11-1.46.11a6.69,6.69,0,0,0-3.23.94c-.33.18-.63.55-1,.57a3,3,0,0,0-2.28,1.5l-.32-.3a2.27,2.27,0,0,0-.73.46,3,3,0,0,0-.28,1l.52-.13c0,.24.07.44.11.64l-.15.12-1-.86-1,1.36L268,50l1-.59.42.75a.75.75,0,0,1-.52,0,1.62,1.62,0,0,0-1.65.57c-.3.62-.6,1.24-.86,1.88a.9.9,0,0,0-.05.66c.17.31.22.28.09.51a1,1,0,0,0-.16.33c-.06.4-.1.81-.15,1.26l.65.38a.78.78,0,0,0-.05.14l-1-.1a4.54,4.54,0,0,1,.69.94,1.68,1.68,0,0,1,0,.89c-.06.32-.43.58-.05,1a4.79,4.79,0,0,1,.5.68l-.41.21a2.07,2.07,0,0,0,1.42,1.84l-.94.34,1.31,1.42a1.52,1.52,0,0,0-.38.22c-.22.24-.35.59-.61.74-1.46.86-2.69,2.1-4.33,2.68a4,4,0,0,0-.89.69.72.72,0,0,1-.2.09,9.55,9.55,0,0,0-1.41.42,2.4,2.4,0,0,1-2.93-.15c-.28-.25-.83-.57-.79-.75.11-.47-.25-.53-.4-.78a9.81,9.81,0,0,1-1-1.87c-.24-.66-.28-1.39-.46-2.07,0-.2-.24-.28,0-.56s-.11-1.3-.49-1.51c.64-.32.64-1.65.2-2.65l.26-.21a4.77,4.77,0,0,1-.08-.84c0-.18.19-.35.21-.53a17.16,17.16,0,0,0,.14-1.76c0-.49-.2-1,0-1.46.38-.91-.11-1.75,0-2.61a3,3,0,0,0-.36-1.43c-.11-.33-.21-.65-.31-1s-.14-.53-.28-.73a3.36,3.36,0,0,0-.63-.55c-.12-.12-.34-.07-.5-.15A4.77,4.77,0,0,0,249.8,46l-2.51.49s-.1.08-.15.1c-.65.28-1.3.58-2,.83-.36.13-.78.12-1.14.26-.84.31-1.67.67-2.51,1-.32-.35-.75-.63-.9-1a8.59,8.59,0,0,1-.67-2.55,4.93,4.93,0,0,0-1.07-2.29c-1.08-.17-2.07-.69-3.08,0l.4.78h-.55c.14.63,1.87.65.57,1.71l.28.61.43-.33a3,3,0,0,0-.07.92c.11.53.3,1,.47,1.63.62.06.73.16.74.73-1.18-.12-1.18-.12-1.26.95l1.26.11c-.22.49-.29.52-.86.4a.72.72,0,0,0-.85.67l.86-.24,0,.15-.52.39h0c-.42.35-1.36.2-1.12,1.18,0,0-.09.09-.14.12-.54.29-.35.56,0,.81.22.15.46.28.67.42-.3.6-.73.51-1.24.3a.68.68,0,0,0-.6.17A11.61,11.61,0,0,0,233,56c-.21.33-.82.69-.24,1.22-1.39.34-1.39.34-1.43,1.1-2.84,2.23-5.5,4.57-8.87,6.1-.8-.24-1.94-.14-2.66-1.1l-.06,0c-.91-.06-1.34-.71-1.8-1.38a11,11,0,0,0-1-1.19c-.13-.37-.21-.62-.31-.85,0-.06-.22-.05-.22-.09-.16-1.11-1-2-.82-3.24.09-.85-.11-1.75.45-2.52,0,0,0-.13,0-.19.13-.49.27-1,.39-1.4a14.33,14.33,0,0,1,2,.46,2.81,2.81,0,0,0,1.76.12c.21-.05.52-.14.63,0,.53.51.87.33,1.09-.24.26.18.48.45.7.46.46,0,.93-.17,1.39-.18.73,0,1.28-.71,2.09-.46.26.07.61-.19.93-.27.88-.19,1.23-1,1.74-1.59a7.86,7.86,0,0,0,1.43-2.46,8.11,8.11,0,0,0,.37-2.42,3.37,3.37,0,0,0-.37-1.08s.08-.19.16-.37a1.7,1.7,0,0,1-.41-.7,3.81,3.81,0,0,0-.29-.57c-.52-.88-1.56-1.31-2-2.28a.72.72,0,0,0-.41-.31,28.68,28.68,0,0,0-3.26-.91,3.8,3.8,0,0,0-2.67.19c-.07,0-.17,0-.25,0l-.94.4c-.4-.15-.39.27-.53.73l1-.29.08.17-.63.28,0,.18-.8.24.45.38a1.25,1.25,0,0,1-1-.16c-.49-.45-.77-.33-1,.19.19.63,1.28-.26,1.29.83l-.84-.35-.07.14,1.22,1.05c-.6.25-1-.83-1.5,0l.35.72a5.17,5.17,0,0,1-1-.24,2.82,2.82,0,0,1-.58-.52l-.05.12c.11.3.22.61.34,1,.08,0,.29-.06.4,0s.09.29.13.45c-.3,0-.6.09-.9.1a2.34,2.34,0,0,1-.52-.08c.07.57.14,1.15.21,1.79l-.38-.09-.36-.07c.19-.55.07-.74-.45-.77-.15.82.52,1.12,1.12,1.6h-.88a2.81,2.81,0,0,1,.25,1c0,.21-.39.47-.64.52s-.46-.21-.72-.34v.71l-.51-.56-.13,0c.08.44.16.89.24,1.37l-.36.16v.15l.59.06c0,.27-.1.54-.16.83l.51,0-1,2.15.52.56c-1,.17-.5.82-.61,1.32l.63-.15c-.18.65-.21,1.34-1.25,1.16l1.46,1-.75.33a5.72,5.72,0,0,1,.9,1.34c.18.55-.07,1.24.59,1.65l-.25.31c.51.67,1,1.34,1.47,2a6.12,6.12,0,0,0,1.51,1.57c.78.42.75,1.68,1.87,1.62,0,0,0,0,0,.06a14,14,0,0,0,1.77,1.31,7.49,7.49,0,0,0,1.78.53c.14,0,.44,0,.45-.11.19-.81.65-.33,1-.22.15-.14.32-.37.37-.34.4.18.6-.1.85-.29a4.76,4.76,0,0,1,.57-.34,12.87,12.87,0,0,0,1.75-.85,19.87,19.87,0,0,0,2.47-1.85c.75-.73,1.59-1.37,2.39-2,.1-.08.23-.13.33-.21.29-.24.58-.47.85-.73.12-.12.18-.29.3-.42.4-.4.82-.79,1.21-1.2s.65-.73,1-1.09c.61-.66.74-1.24.39-1.73.89.08,1.11-.12.84-.74.14-.08.32-.13.39-.24.47-.78.91-1.57,1.37-2.36.13-.23.42-.51.38-.7-.21-.84.58-1,.83-1.51l.58.41c.16-.26.31-.49.47-.73l.19.12c-.15.53-.24,1,.43,1.29l.28-.38.19.36c.43-.21.8-.67,1.3-.13l.18-.13a12.07,12.07,0,0,1,1.17-.74,7.31,7.31,0,0,1,1.07-.29c.77-.23,1.54-.47,2.3-.74a3.49,3.49,0,0,0,.65-.38,13.89,13.89,0,0,1,1.63-.41.77.77,0,0,1,.59.37,6.88,6.88,0,0,1,.37,1.11l.18,0c0-.19.11-.37.21-.7a3.12,3.12,0,0,1,.26.45,3.55,3.55,0,0,1,.08.47c.05.27.12.53.15.8,0,0-.22.09-.34.14l-.25-.66s0,0-.1-.1c-.77,0-.17.92-.61,1.19l.42,0v.79h0v0c-.19.23-.56.55-.51.66a3.46,3.46,0,0,0,.7.79l.08.12,0,0c0,.14.14.33.09.42-.34.51,0,.6.38.65a.18.18,0,0,1,.1.07l-1,.49-.63-.46v1.26h1c0,.33.06.68.1,1.09h-.83c0,.28.07.49.13.89.13-.3.19-.42.25-.57l.46.22-.15.08c.09.29.19.57.28.85-.05.11-.23.31-.2.47.16.84.38,1.68.59,2.51.12.49.29,1,.39,1.47a4.49,4.49,0,0,1-.05.91l.56.87-.23.31c.41.46,1,.81,1,1.25.11.61.54.87.85,1.28.09.12.17.26.27.39a7.57,7.57,0,0,0,1.2,1.62,7.25,7.25,0,0,0,1.92.92,3,3,0,0,0,1.43.32,19.93,19.93,0,0,0,2.31-.83c.39-.13.82-.16,1.2-.32a12.73,12.73,0,0,0,1.25-.69c.22-.12.46-.2.68-.32l2.11-1.21c.09-.05.26-.05.29-.12.32-.75,1.17-.79,1.69-1.29s.71-.41,1.06.4c0,.07.12.12.18.18.4.47,1.15.58,1.32,1.3,0,.07.27.06.37.14a3.39,3.39,0,0,1,.41.44l-.14.12a23.16,23.16,0,0,1,2.2.83,5,5,0,0,0,2.91.58,1.77,1.77,0,0,1,.32-.05l3.06.18a1.13,1.13,0,0,0,.32,0l1.39-.37a1.34,1.34,0,0,1,.07.18l.2-.4c.36-.06.62-.09.87-.15.61-.14,1.22-.25,1.81-.44s1.3-.49,1.95-.76c.1,0,.25-.15.26-.24.05-.5.46-.54.79-.64.77-.26,1.73-.1,2.19-1,0,0,.07,0,.1-.07.65-.4,1.3-.79,1.94-1.2.11-.08.14-.26.22-.39a1.35,1.35,0,0,1,.19-.31c.54-.54,1.11-1,1.63-1.61.15-.16.11-.48.24-.68.25-.38.55-.73.83-1.1Zm-78-13.71a8.74,8.74,0,0,1,2.05-3,16.9,16.9,0,0,1,2.08-1.89c.39-.27.89-.82,1.52-.32a.17.17,0,0,0,.18,0c.36-.53.55-.11.75.15.51-.3,1-.5,1.31.22.06.15.35.18.54.27.15.5.3,1,.43,1.45.12,0,.34-.18.46-.12a3.84,3.84,0,0,1,.68.54l-.13.15a.88.88,0,0,1-.23-.07c-.77-.37-1.22-.15-1.38.71,0,0,.12.12.12.19a1.79,1.79,0,0,1,0,.4c-.51-.23-.43.32-.63.46-.54.35-.68,1.07-1.32,1.31a4.66,4.66,0,0,0-.76.47l-2.61.36c-.06,0-.12.07-.18.06l-3.41-.25C218,48.93,218.22,48.63,218.35,48.31Zm52.36,13.42c-.39.36-.75.15-.89-.57-.19-.95-.29-1.93-.44-2.9a9.43,9.43,0,0,1-.15-1c.1-.69.2-1.38.29-2.07,0-.06,0-.13,0-.18a8.09,8.09,0,0,1,.82-1.7,32.34,32.34,0,0,1,2.27-2.42,7.67,7.67,0,0,1,1.22-1.06,7.18,7.18,0,0,1,1.16-.39,3,3,0,0,0,.84-.52c.35-.12.69-.25,1.05-.35s.55-.06.82-.13.61-.22,1-.39a1.76,1.76,0,0,0,1.64,0c.32-.13.72-.26.82.35,0,.14.32.24.53.39.15.84-.39,2,1.08,2.36-.55.48-.89.4-1-.11,0,0-.1,0-.1.06-.06,1.28-1.11,2-1.64,3.05a5.69,5.69,0,0,0-.25.79c-.05,0-.21,0-.25,0-.44.63-.84,1.28-1.3,1.89-.15.19-.49.22-.71.37-.69.5-1.36,1-2.07,1.52a18.54,18.54,0,0,0-2.15,1.34C272.55,60.9,271.48,61,270.71,61.73Z"/><path class="cls-2" d="M139.31,10.82a1.21,1.21,0,0,0-1.37-1.28c-.51.05-.94.15-.65.83,0,.07-.08.2-.15.36l-.15-.45-.63.22c0,.62-.05,1.25-.08,1.91l-.38-.24v.74c.93,0,.93,0,1.12.44l-1.46-.1c.11.42.21.75.27,1.09,0,.12,0,.34-.12.38-.73.41-.61,1.1-.56,1.72a.43.43,0,0,0,.76.3c.05.61.05.63-.52.64-.36,0-.59.09-.57.52a1.52,1.52,0,0,1-.17.51H135a5.78,5.78,0,0,0-.41.88c0,.09.23.27.2.37-.17.54-.43,1.06-.59,1.61s-.41,1.11-.25,1.52,0,.67-.21,1h0a1.52,1.52,0,0,0-.21.36,7.63,7.63,0,0,0,.7.47v.53l-.86-.24a6.85,6.85,0,0,0,.26.88c.06.14.22.23.39.38s.17.67.27,1.07l-.53.08c.1.59.18,1.14.27,1.69l-.18,0-.18-.59c-.42,1.81-.23,2.18,0,2.41-.26.27-.71.52-.74.82s.27.76.46,1.22c-.52-.09-.61,1.12-1.3.22l-.7.94,1.33.48-.09.26-1.24-.42a5.18,5.18,0,0,0,0,1.26c.12.42.34.78-.33,1l.1.17H132l-.14-.19c.08-.18.17-.37.26-.55l.35.54c-.56.34-.65,1.32-1.62,1.07,0,.41.08.8.13,1.17l-.36-.11c.07.39.12.69.19,1.09l-.26.27.47.52-2.45-.26a10.89,10.89,0,0,0-1.51-.16c-.34,0-.73.35-1,.26-1.11-.36-2,.23-3,.47-.3.08-.53.41-.86.68-.59-.19-1.13.28-1.66.66-.09.07.08.5.13.8-.45-.27-.9-.66-1.42,0-.3.36-.86.51-1.1.88s-1.33.45-.9,1.42c-.24,0-.51-.13-.57-.05-.5.56-1,1.16-1.41,1.75a4,4,0,0,0-.3.58l-.38.72c.26.09.51.19.76.26a2.54,2.54,0,0,0,.48,0c-.14.41-.2.8-.7.42a.74.74,0,0,0-.41-.1c-.93,0-.86.91-1.17,1.44-.11.17.24.63.36.91l-1.26.5c-.07-.92-.09-1.94-.23-2.94s-.41-2.23-.61-3.34A7.62,7.62,0,0,0,110.52,42c-.47-.61-.55-1.5-1.37-1.85a10.36,10.36,0,0,0-1.81-.81,4.39,4.39,0,0,0-1.79.17c-.28.07-.49.41-.73.63s-.26.3-.4.44c-.53.57-1.12,1.07-1.62,1.66S102,43.36,101.55,44l.79.38c-.56.1-1.31-.25-1.1.5-.3.2-.58.3-.71.5a6.25,6.25,0,0,0-.45,1.06,2.87,2.87,0,0,1,.35.13c.16.08.31.19.54.33l-.52.13v0h0c-.27-.61-.64-.19-1.1,0l.6.2a1.89,1.89,0,0,0-1,1.87c.45-.47.23-1.31,1-1.31v0h0c-.44.6-.43.86.08,1.29l-.9.39,0,.16.64.17-.5.53-.24-.4-.15.06c0,.24.09.47.12.61-.23.09-.55.13-.57.24a4.75,4.75,0,0,0,0,1c-.28.1-.44.34-.4.9.06.93-.79,1.26-1.51,1.66,0-.26.12-.54,0-.73a3.75,3.75,0,0,1-.12-2.15,22.9,22.9,0,0,0,.26-3,6.59,6.59,0,0,0-.12-1.07c.56-.37.06-.87,0-1.36.44-.16.52-1,.16-1.54.18-.08.52-.2.51-.24a3.8,3.8,0,0,0-.31-.73c.54-.44.59-.86.13-1.21a2.75,2.75,0,0,0,.32-.76c.09-.73.13-1.48.19-2.22A11.19,11.19,0,0,1,97.81,37c.25-.77.15-1.24-.56-1.58.46-.54.28-1.21-.44-1.67v.34l-1.34-.34c-.89-.21-.38.8-.88.94.18.17.32.29.52.46.06-.39.1-.7.17-1.24L96,35.2l-.66.5.59,1c-.52,0-.62.31-.3.81l-1-.14-.25.52,1.38.54c-.17.28-.3.46-.4.66s-.28.6-.45.88c0,.06-.2,0-.22,0-.08-.47-.16-.87-.23-1.31-.8.33-.14.71-.21,1.05-.12.64.64.47,1,.78-.11.12-.26.24-.24.26.44.68-.17,1.24-.19,1.86,0,.36,0,.72-.06,1.07l-1.06.2v.2l1.23.37-.87.66L95,46.38l-.53.3c.38,1,.38,1-.1,1.19,0,.48.1.93.15,1.38h.66c-.88.22-1,.82-.84,1.56,0,.3-.09.43-.42.29a3.55,3.55,0,0,0-.79-.13c.2.32.27.53.42.62s.35,0,.52,0l0,.16-.49.24c1.07-.12.62.76.79,1l-.69.6h0V52.41c-.36-.08-.34-.08-.33.36a.85.85,0,0,1-.13.47c-.45.61-.45.61.27.84l.18-.47c.06.49.67.93.13,1.47,0,0,0,.16.08.23.25.44.11.69-.38.77s-.54.29-.35.68a1.45,1.45,0,0,1,.07.47l.21,0c0-.2-.1-.39-.15-.62l.57,0,.2,1h-.58l.25.41-1.09,0,1.63.74c-.23.51-.25,1.15-1,.85-.06,0-.22.24-.34.38l1.18.28,0,.18-1,.4c0,.19-.34.61.35.75.26.06.67.51.1,1l-.38-.77c-.26.48-1.17.86-.16,1.47,0,0,0,0,0,.06,0,.67.09,1.33.11,2a3.06,3.06,0,0,1-.08.8c0,.12-.14.22-.22.32a2.11,2.11,0,0,0,.44.24c.52.12.88.3,1,.93a19.84,19.84,0,0,0,.65,2.36l.6-.38c.26-.15.67-.26.74-.47a16.87,16.87,0,0,0,1-4c0-.7.39-1.25.44-1.93a20.33,20.33,0,0,1,.86-3.79c.27-1,.57-2,.91-2.94.25-.73.58-1.43.87-2.15s.48-1.37.81-2c.41-.81.93-1.56,1.38-2.34a7.93,7.93,0,0,1,.42-.93c.34-.46.82-.83,1.14-1.3a14.75,14.75,0,0,1,2.1-2.88,24.22,24.22,0,0,0,1.71-2l.69.36c.41.19.56.66.22.92s-.18.38.05.55.5.42.8.67l-.82.44.46.42.73-.38-.46.86.11.05.35-.38v.8l-1-.09,0,.24,1,.21L110.3,50l.12-.05c-.13.44-.27.87-.42,1.34l-.82-.16c0,.7,0,1.33,0,2a3.24,3.24,0,0,0,.18.66h0c-.27.82.43.64.9.78,0,.34-.06.66-.1,1.16-.41-.45-.2-1.15-1-1,.06.56.12,1.1.21,1.87.21.24.44,0,.76-.4v1.41l-.37-.61-.66,2.35c.26.22.72.47,0,.85-.1,0-.09.36-.08.54s.09.47.13.7v0l.65,1.1c-.38.32-.31.64.31,1.06l-1,.8c.21.15.37.37.54.38.68,0,.56.48.59.91a9.5,9.5,0,0,0,.18,1,2.32,2.32,0,0,1,0,.64c-.15.51.48,1,0,1.54-.1.11,0,.53.18.68a.64.64,0,0,0,.63,0,2.9,2.9,0,0,0,.66-1,13.17,13.17,0,0,0,.6-3.94c0-.91,0-1.82,0-2.73,0-1.24.17-2.47.21-3.7a8.11,8.11,0,0,0-.16-1.38.73.73,0,0,1,.74-.85L113,57.2l.17,0c.2-.41.39-.82.6-1.24.5.35-.14.76-.14,1.21l.8-.18c-.21.33-.31.5-.43.67s-.34.36-.34.54.22.36.34.54l.09-.08-.11-.57.21-.05c.09.34.19.68.28,1a2.2,2.2,0,0,1,.84,1.86H116c0,.2,0,.34,0,.36l1.17.44-.82.44,3.06,1.3-.25.41c.35.41.68.52.91,0,.17.22.28.53.47.59a8.66,8.66,0,0,1,2.78,1.27s.08,0,.16,0l.18-.7.36.73c1.93-.35,3.76-.84,4.81-2.7,0-.05-.12-.19-.2-.32l.19.11a4.28,4.28,0,0,0,.67-.52c.47-.53.9-1.09,1.35-1.64l.24.06.63,5.56a6,6,0,0,0,1-2.87,16.14,16.14,0,0,1,.34-1.9c.07-.54,0-1.1.09-1.64.06-.72.16-1.43.24-2.15,0,0,0-.09,0-.13,0-1.72,0-3.44,0-5.16,0-1.5.09-3,.14-4.5a16.33,16.33,0,0,1,.14-2c.08-.47.28-.94.9-.93.05,0,.1.06.19.12-.09.16-.17.32-.31.56,1.41.06,2.19,1.05,3.07,1.84a1.59,1.59,0,0,0,.56-.33,1.21,1.21,0,0,0,.32-.78,5.08,5.08,0,0,0-.51-1.18c-.11-.24-.42-.51-.36-.68.25-.75-.33-.56-.66-.66s-.63-.18-.62-.19c.19-.78-.59-.79-.9-.91a1.56,1.56,0,0,1-1.16-2c.32-1.61.4-3.27.66-4.9.18-1.12.51-2.22.74-3.34.11-.49.14-1,.24-1.5.14-.67.32-1.33.45-2,0-.18-.12-.4-.08-.58a14.14,14.14,0,0,0,.44-1.35,9.5,9.5,0,0,0,0-1.51,2,2,0,0,0,.47-.62,15.93,15.93,0,0,0,.49-2c.22-1.24.35-2.49.6-3.72s.62-2.49.91-3.74c.13-.57.11-1.17.29-1.72.31-.91.7-1.78-.07-2.64C139.28,11.06,139.31,10.92,139.31,10.82ZM131.14,49.3c-.2.3-.74.35-1.24.55,0,.18.14.46.25.82l.27-.24.51-.38a2.43,2.43,0,0,0-.18.56,2.8,2.8,0,0,0,.09.7,1.14,1.14,0,0,0,.17.31l-.77.1V52l.65.15c0,.23-.09.43-.1.52l-.86-.15c.17.47.22.94.95.72l-.06.2-1,.14a2.11,2.11,0,0,1-.75,2.28l.65.43c-.14.19-.27.39-.49.71l-.62-.47-.86,1.07.76.56-.49.33.75.45-.75.63c0-.35.05-.49.06-.61L127,58.64c0,.31.05.59.07.89a1.75,1.75,0,0,0-.63-.07c-.14,0-.28.22-.35.37a7.44,7.44,0,0,0-.31.78l-.19,0c0,.15.11.29.17.44l-.92.08c.16.3.25.45.34.61l-.13.11-.33-.39c-.49.2-.94.42-1.4.58a2.33,2.33,0,0,1-.58,0,6.16,6.16,0,0,0-.73.08c-1.07-.56-2.27-1.2-3.48-1.81,0,0-.14.12-.24.21l-.2-.6c-.42-.06-.87,0-.83-.67,0-.11-.33-.21-.45-.37-.37-.5-.72-1-1.07-1.56,0,0-.08-.08-.07-.11.12-.68.24-1.36.39-2a15.44,15.44,0,0,1,.55-2c.26-.68.69-1.3.93-2,.39-1.11,1.4-1.73,2-2.7A7.24,7.24,0,0,1,121,47a4.63,4.63,0,0,1,.68-.59c.29-.17.59-.34.87-.53a9.9,9.9,0,0,1,.87-.56c.64-.31,1.31-.58,2-.89.06,0,0-.25,0-.45.91.38,1.69-.07,2.52-.33.34-.11.79.1,1.18.18l.76.13c0,.32.66.52.31,1.07a.71.71,0,0,0,.25.2c.22.07.45.1.67.15.2.92.2.92-.33,1.08.24-.69-.09-.75-.45-.7-.11.69-.21,1.32-.29,1.78.43.22.93.32,1.1.61A1.32,1.32,0,0,1,131.14,49.3Z"/><path class="cls-2" d="M52.37,54.07c-.52-.89-.44-2.07-1.08-3-.41-.58-.65-1.27-1-1.87a14.82,14.82,0,0,0-1-1.27,12.32,12.32,0,0,0-1.14-1.35c-.26-.25-.6-.36-.9-.66a7.27,7.27,0,0,0-2.73-1.73,6.33,6.33,0,0,1-.68-.36v0l-1.58-.46.6-.18a11.69,11.69,0,0,0-2.07-.9c-.6-.22-1.36,0-1.82-.67-.06-.1-.39,0-.59,0a1.35,1.35,0,0,1-.34,0,6.74,6.74,0,0,1-1.35-.38,3.79,3.79,0,0,0-2.2-.29,1.43,1.43,0,0,1-.38-.1,3.38,3.38,0,0,0-1.18-.23c-.61.09-1.36-.19-1.9.63.32.11.61.3.84.26.56-.11.62.23.71.6a3.75,3.75,0,0,0,.16.68c.25.62.54,1.23.82,1.87l1.09-.56a1.14,1.14,0,0,0,1.56,0,.93.93,0,0,1,1.61.56,5.24,5.24,0,0,1,.51-.3c.39-.16.89.14.81.55-.14.71.28.57.67.53.12,0,.27-.1.35-.06.64.32,1.39.11,2.05.62a12.28,12.28,0,0,0,2.54,1.26,2,2,0,0,0,.69,0c0,.61.4,1,1,1.19a2.22,2.22,0,0,1,1.28,1.35,1.23,1.23,0,0,0,.75.79c.53.26.63.61.32,1.16.34.44.68.88,1.05,1.34l-.63.14c.33.2.32.81.84.36a.24.24,0,0,1,.2.07.22.22,0,0,1,0,.22c-.26.18-.54.34-.88.55l.46.1c.13,0,.32,0,.37.12a5.94,5.94,0,0,1,.52,1c.12.33,0,.53-.39.49a1.6,1.6,0,0,0-.59.14,2,2,0,0,1,0,1.57l.06.26,1.17.42-.82.94v1l-1.34.27-.43,1.57c.23,0,.41,0,.47.09a8.29,8.29,0,0,1,.48.68,2.44,2.44,0,0,0-.66,0,1.22,1.22,0,0,0-.64.32c-.12.16-.05.44-.07.67.69-.13.84,0,.77.76l-1.43-.61c-.06.36-.1.59-.15.84l-.41.11-.13.19.64.25-.08.22c-.59-.44-.85-.14-1.07.34a3.94,3.94,0,0,1-.47.63l.42.18a2.7,2.7,0,0,0-.94.4c-.56.53-.91,1.26-1.66,1.65-.43.24-.78.71,0,1.23-.25.05-.45.14-.52.08-.44-.39-.81-.16-1.2.08s-.58.37-.87.54-.67.31-.86.57a2.45,2.45,0,0,0-.2.94,1.44,1.44,0,0,0-1.92-.16c-.35.21-.76.52-1.11.48-1-.12-2,.31-3,.11a18.9,18.9,0,0,1-1.87-.46c-.52-.17-1-.44-1.52-.65s-1-.35-1.47-.54c-.17-.07-.33-.18-.56-.3l-.36.15.32-.54-.68,0v-.39l-.91-.64a2.19,2.19,0,0,0-.07.23c-.17-.09-.42-.14-.48-.28-.39-.89-1.27-.93-1.92-1.26.22-1-.84-.46-1.06-1,0-.06,0-.24.07-.4L21.76,66a2.65,2.65,0,0,0-.37-.66,7.18,7.18,0,0,1-1.45-1.2,8,8,0,0,0-2.3-2.34c-.08-.06-.22-.17-.21-.23.17-.6-.38-.81-.63-1.18-.13-.2-.41-.31-.55-.52C15.5,58.8,14.76,57.7,14,56.6a5.26,5.26,0,0,1-.19-.6c-.38-.76-.8-1.5-1.15-2.28a15.47,15.47,0,0,1-1.27-4.12c-.15-.76-.28-1.52-.4-2.28a.66.66,0,0,1,0-.37,2.34,2.34,0,0,0-.3-1.89,2.75,2.75,0,0,0,.16-.61c0-.54,0-1.09.08-1.62.15-.86.37-1.71.57-2.56.25-1,.49-2,.76-3a10.66,10.66,0,0,1,.48-1.17c.45-1,.84-2.05,1.37-3,.76-1.36,1.6-2.67,2.46-4,.6-.92,1.27-1.8,1.95-2.67.41-.52.93-1,1.36-1.46a9.42,9.42,0,0,1,.9-1.14c.88-.76,1.81-1.47,2.76-2.15A24.52,24.52,0,0,1,26.18,20c1.31-.73,2.66-1.38,4-2a10.57,10.57,0,0,0,1.81-.8,1.47,1.47,0,0,1,1.43-.28c0-.7.5-.57.91-.59.23,0,.56.16.68.05.47-.4.94-.17,1.41-.09s1.54-.91,1.4-1.38c-.25-.87-.56-1.72-1.58-1.95-.38-.09-.78-.07-1.16-.14a10,10,0,0,0-5,.71c-.86.28-1.66.77-2.53,1a15,15,0,0,0-2.3,1.24,28.94,28.94,0,0,0-4.08,2.55c-.89.6-1.71,1.29-2.57,1.92a1,1,0,0,0-.22,1.47l-.59-.44a6,6,0,0,0-1,.7c-.72.76-1.4,1.55-2.07,2.35a4.21,4.21,0,0,0-.44.81l.46-.23.1.16a3.13,3.13,0,0,0-.58.36,4.55,4.55,0,0,0-.88,1.05c-.07.16.27.51.48.87a1.89,1.89,0,0,1-.6-.15c-.26-.18-.5-.22-.52.12,0,.62-.57.94-.77,1.45l.65.26c-.14.18-.36.28-.42.22-.37-.38-.51-.11-.67.19s-.44.75-.63,1.14c-.3.6-.53,1.22-.84,1.81-.22.41-.58.78.1,1.2l.65-1.18.47,0c0,.21.06.38.09.57a1,1,0,0,0-.92,1.17,1.34,1.34,0,0,1-.39.95,4,4,0,0,1-1.11.57c.19.23.39.47.52.61-.31.22-.62.35-.6.45a2.12,2.12,0,0,0,.36.7c-.73,0-1,.68-1.1,1.16a2.64,2.64,0,0,0,.24,1.92.93.93,0,0,1,.2.83L8,41.06l-.31.86.46.2.3-.38a8.25,8.25,0,0,1,.17,1.12.47.47,0,0,1-.28.35,4.16,4.16,0,0,1-.81-.2l.55,1.39L7.5,44c.26.65.53,1,1.22.81l.13.73H7.94c0,.16,0,.32,0,.48l.71-.14c.44.43.35.73-.54.8l.56.32L8,47.58l1.05.13c0,.2-.09.4,0,.52.2.41.38.77-.12,1.11a1.91,1.91,0,0,0,.25.57c0,.05.23,0,.26.05.17.31.32.63.45.89l-.51.34.22.27.64.74-.19.13c-.12-.18-.24-.36-.35-.54,0,.3,0,.65.17.77.61.39.22.51-.26.74l.94.6c-.13.19-.33.37-.29.48s.25.31.41.49c-.18.68,1.21,3.08,2,3.4a2.25,2.25,0,0,0,.17.76,26,26,0,0,0,2.28,3.19c.59.64.74,1.69,1.78,2,.33.09.56.57.72.74a8.94,8.94,0,0,0,1.76,2,6.09,6.09,0,0,0,2.21,1.3l-.09.16-.55-.06-.1.2c1.45.86,2.59,2.21,4.41,2.63l-.53.51c.65.38,1.29.91,2.19.38v.2l-.52.41,1.48.45-.5.08c.4.21.87.22,1.2.44a5.16,5.16,0,0,1,.9,1c.05.07.14.17.2.16.58,0,1,.39,1.47.6a1.77,1.77,0,0,0,1.84.12c0,.19,0,.47.1.48a12.1,12.1,0,0,0,1.87.36,6.41,6.41,0,0,0,1.13-.16c.09,0,.2.14.36.27v-.35l.68-.56c0,.14.08.37.16.76.38-.14.75-.28,1.13-.4.1,0,.24.06.36.08a1.32,1.32,0,0,0,.44,0,7.53,7.53,0,0,1,.81-.24,2.91,2.91,0,0,0,2.32-.91c.08-.11.31-.11.47-.17a5.36,5.36,0,0,0,1-.42c.54-.39,1-.86,1.53-1.29a20.78,20.78,0,0,0,2-1.63c.81-.84,1.52-1.78,2.24-2.69.11-.14.09-.39.11-.46a3.73,3.73,0,0,0,.56-.63c.42-.84.75-1.74,1.23-2.55a10.79,10.79,0,0,0,1.28-5,11.22,11.22,0,0,1,.08-2.18c.2-.74-.18-1.38-.16-2.08A3.17,3.17,0,0,0,52.37,54.07Z"/><polygon class="cls-2" points="189.76 59.66 189.77 59.66 189.77 59.66 189.76 59.66"/><path class="cls-2" d="M196.46,46.27h0v0Z"/><path class="cls-2" d="M203.87,64.12c.18-.28-.17-.89-.2-1.36a6.91,6.91,0,0,0,0-1.76c-.38-1.07.1-2.24-.49-3.26,0,0,.06-.1.07-.16a5.69,5.69,0,0,0,.12-1c0-.74-.09-1.48-.12-2.21s0-1.3-.07-1.95c-.1-1.29-.32-2.58-.34-3.87a13.47,13.47,0,0,0-.48-3.57c-.2-.7-1-1.17-.61-2.1l-.58.18c-.2-1.06-1.13-.76-1.73-.83a1.91,1.91,0,0,0-1.9.85c.19.26.36.5.59.8l-.58,0-.14-.53c-.32.43-.61.79-.87,1.18,0,.07,0,.24,0,.34s.2,0,.28,0l1-.52.18.1c-1.09.35-.28,1.37-.78,1.87l-.82,0a.38.38,0,0,0,0,.18c.07.31.39.59-.13.92-.19.13-.25.59-.66.74s-.24.42.11.59l-1.09,1c-.13-.21-.22-.37-.3-.49l-.83.71.13.15L195,49.8l-1.12,1.57-.85-.51c-.28.93.67.84.93,1.26l-.35.61-.79-.6-.71.88c.65,0,.95.26.91.77a.38.38,0,0,1-.21.27s-.19-.07-.25-.14c-.45-.6-.63-.59-1,.11-.54,1.12-1.06,2.25-1.57,3.35l.94.4c-.27.13-.48.27-.51.24-.63-.65-.74-.07-1,.38a1,1,0,0,1,1,.8c0,.12-.43.31-.68.47.1.23.2.46.34.8l-1.28-.6c-.25.55-.47,1-.68,1.51l.31.09-.76.64c-.07-.11-.25-.27-.23-.4.19-1.25-.78-2.37-.36-3.64a1,1,0,0,0-.1-.5,4.14,4.14,0,0,1-.42-1.5,9.5,9.5,0,0,0-.11-2.2c0-.45-.3-.87-.36-1.32s0-1.18-.08-1.76a6.07,6.07,0,0,0-.51-1.3s.16-.29.09-.42c-.33-.64.15-1.53-.66-2,0,0,.06-.12,0-.17-.06-.27,0-.66-.21-.8-.41-.31-.35-.58-.06-.91-.34-.37-.63-.71-1-1A5.26,5.26,0,0,0,180.66,43a1,1,0,0,0-1.25.94,3.81,3.81,0,0,0-.61.28c.21.74-.43.38-.68.51l.16.1-.66,1.29-.17-.19a5.8,5.8,0,0,0-1,.6c-.06,0,.14.41.26.72a2.18,2.18,0,0,1-.66.17c-.76,0-.9.44-1,1,0,.11-.14.23-.24.3s-.48.25-.7.4c-.06,0-.06.19-.09.28-.07.25-.15.5-.23.78l1,.26,0,.23h-1.18c0,.2-.61,1-.88,1-.72-.25-.74.2-.83.75l.89.1v.67l-.67.42.08.15h.5c-.19.35-.34.65-.5,1l-.1,0v-.52h-1l-.82,1,1-.22.36.51c-1,.19-1,.25-.51.88l-1.47.76c.06,0,0,0-.1,0a5.54,5.54,0,0,0-.56.11l.38.38c.09.09.19.17.41.39l-.73-.09.66.71h-1.63v.24h1.58c-.59.31-.59.31-.53.81.1.78,0,.85-.79.71a.47.47,0,0,0-.15,0l.05.39-1.19-.07c0,.11,0,.26-.05.43h.5l.05.13-.91.51c0-.44.07-.76,0-1.07a12.88,12.88,0,0,1,.09-3.34,8.21,8.21,0,0,0,0-1.33,9.12,9.12,0,0,0,.15-1.18,11.88,11.88,0,0,0-.09-1.33c0-.21.2-.43.21-.67a7.36,7.36,0,0,1,.23-1.53,15.72,15.72,0,0,0,.3-3.15c.08-1.45,0-2.91.21-4.33a3.63,3.63,0,0,0-.78-2.84c-.07-.1-.05-.26-.11-.55-.67,0-1.42,0-2.17,0a.43.43,0,0,0-.28.29,3.36,3.36,0,0,0,0,.68l1.09.42c-.11.33-.16.55-.25.75a.51.51,0,0,1-.27.23c-.23.08-.64.08-.67.18a5.12,5.12,0,0,0,0,1.11c-.07.22-.19.53-.08.68s.45.28.69.41l-.07.14-.75.09-.3,5.25c.78.09,1,.62,1.15,1.25-.63.13-.74-.21-.68-.74l-.74.68.94.51v.51l-.91-.14c0,.1,0,.2,0,.3l1.33.29c-.13.2-.29.46-.53.82-.08-.33-.11-.47-.14-.6l-.21,0a2,2,0,0,0,.13.66c.25.44.57.84.9,1.31l-.77.28.47.58-.37.31.57.45-.85.33.05-.24-.74-.57c.16.58.31,1.1.47,1.66.22.07.75-.18.67.44l-.75.26c.25.31.68.6.67.87a2.26,2.26,0,0,0,.05,1.31c.11.22-.08.65-.57.5.36-.65-.23-.52-.6-.78a5,5,0,0,0,.29,1.07,15,15,0,0,0,1,1.29l-.15.2-.63-.24-.74-.31c.39.52.32,1.36,1.2.78l0,.21-.62.34c1.33.77,1.53,2.07,1.73,3.43.32,0,.77.2.94,0a24.17,24.17,0,0,0,2-2c.21-.21.29-.56.53-.72.4-.26.38-.49.2-.67a5.27,5.27,0,0,0,.8-.75c.42-.61.79-1.26,1.16-1.91s.61-1.06.88-1.61a6.92,6.92,0,0,1,.34-1c.35-.54.81-1,1.17-1.53a2.07,2.07,0,0,0,.22-.73c.18-.18.46-.33.46-.47,0-.87.76-1.18,1.15-1.75a3.58,3.58,0,0,0,.26-.69s.12,0,.18,0c.19-.24.34-.5.53-.75.33-.41.67-.8,1-1.22.19-.25.33-.56.53-.8.41-.47.88-.88,1.27-1.36a3.75,3.75,0,0,0,.35-.87,6.73,6.73,0,0,0,1-.53c.5-.38.93-.84,1.44-1.2.13-.09.45,0,.64.1s0,.32,0,.62l.8-.45c0,.41.09.91.13,1.29a2.68,2.68,0,0,1,.51.81,6.27,6.27,0,0,1,0,1.3l-.57,0c0,.25.06.48.09.67l.62-.31v.85l.2.11c-.05.58-.09,1.08-.14,1.6l.34.46-.56,0c-.07,0-.13.09-.25.19l.55.26.45,1.34c-.3,0-.59-.13-.72,0a2.77,2.77,0,0,0-.49.71c1.29.44.46,1.64,1.11,2.28l.2-.42.22.54-.21,0c-.21.38-.41.77-.64,1.18.72.44.78.69.33,2.17l.94-.27a8.08,8.08,0,0,1,.09,1.13c0,.11-.35.19-.51.31-.4.3-.34.65.13.88a6,6,0,0,1,.74.5s0,.07,0,.12h-.54c.15.54.3,1.05.47,1.67.14.08.56.15.7.4a7,7,0,0,1,.47,1.4,1.4,1.4,0,0,0,.24.43c.2.2.43.37.77.68a5.09,5.09,0,0,0,1.11-.62,2.9,2.9,0,0,0,.62-1c.32-.77.56-1.58.89-2.34.82-1.83,1.67-3.64,2.5-5.46a7,7,0,0,0,.18-.82,1.48,1.48,0,0,1,.21-.44c.12-.16.31-.27.4-.45.52-1.07,1-2.18,1.53-3.24.76-1.5,1.58-3,2.35-4.45a4.77,4.77,0,0,0,.26-1s.23,0,.32-.17a5.14,5.14,0,0,0,.82-1.31c.23-.63.63-.57,1.09-.43.11,0,.27.17.27.27s-.15.37-.19.36a3.4,3.4,0,0,1-.64-.29c-.17.27.22.65,0,1l.92.55.33.15-.63.16a1.71,1.71,0,0,1,.09,2.32,7.53,7.53,0,0,0-.55.79l.79.43a5.47,5.47,0,0,0-.71.81c0,.06.21.3.35.49l-.26.54.5.29c-.14.22-.27.44-.4.67l0,.12.81-.49c0,.58.07,1.11.11,1.65l-.16,0-.6-1c-.08.07-.08.07.15.9l-.35.27c.33.35.8.65.27,1.15l.61.53v-1h.2l.24,2.17-.17,0c-.2-.45-.07-1.22-.93-1,0,.48.06.91.09,1.34l.3-.19.26.55.2.08.18-.54.16.13.18,1.3-.18.1-.66-.65c-.05.45-.21.84-.08,1.06a3.62,3.62,0,0,0,.83.74c0-.06,0-.24,0-.54l.7.45c-.5.39-.23,1,1.43,3.22.17-.64.32-1.17.47-1.73C203.82,64.87,203.49,64.68,203.87,64.12Z"/><path class="cls-2" d="M85.08,38.56a8.54,8.54,0,0,0-2.21-.46,11.12,11.12,0,0,0-2.87.36,6.81,6.81,0,0,0-2,1c-1.12.73-2.19,1.54-3.26,2.35-.1.07-.06.35-.07.53a3.22,3.22,0,0,0,0,.39c-.4,0-1.13-.68-.92.3-.22.13-.42.18-.52.31-.52.65-1,1.31-1.51,2a3,3,0,0,0-.25.89,1.54,1.54,0,0,0-.75,2.08l.34-.45c-.22,1.06-.6,1.24-1.29.76-.48.65.45.7.55,1.21l-.88-.24c-.5,1.05,1,.57.87,1.33l-.7.23.3.48-.09.08-.79-.42-.62.53c.08.12.2.27.33.45l.36-.39.6.7L68,52.62v.19l1,.32-.53.65.67.72c-.28.29.26,1.55-1,1,.49,1.54-.65.55-1.13.71l1.45,1.13-1.19-.07c.44.54.56.86.3,1.34a5.7,5.7,0,0,0-.38,1.48l-1-.82c.22.85.41,1.56.6,2.27l-.11.11-.42-.28V62l.46-.21c-.21.59-.64,1.08-.15,1.65l.42-.32.25.68h-.57L66.5,64c.26.29.5.81.78.83.73.06.5.38.38.64.24.34.43.63.64.92A9.93,9.93,0,0,0,70,68.79a2.73,2.73,0,0,0,3.35.17c1-.83,2-1.69,3-2.6a7.62,7.62,0,0,0,1.34-1.7c.79-1.34,1.55-2.69,2.23-4.09.43-.89.69-1.87,1.06-2.8a1.6,1.6,0,0,1,.4-.56,5.72,5.72,0,0,1,.65-.48c.21.32.43.68.66,1l-.12.1L82,57.54l-.18.56,1.07.18c-.27.61-.27.61-1.11.35a5.35,5.35,0,0,0,.06.59c.08.43.19.85.26,1.28s-.06.76.08.84.62,0,1,0l-.08.6-.84.07c.06.15.07.22.09.22l1,.07c-.09.14-.19.24-.19.34,0,.42-.16,1,0,1.23.79.8.86.9.28,1.78,1,.47.34,1.71,1.11,2.32a3.22,3.22,0,0,0,.33-.28c.85-1,.71-2.25.7-3.39,0-1.58-.29-3.17-.42-4.75s-.2-3.07-.3-4.6c0-.7-.14-1.41-.16-2.12,0-.92,0-1.84,0-2.77,0-1.21,0-2.42,0-3.63a21.57,21.57,0,0,1-.16-3c.05-.49-.37-1.31.57-1.57a1.38,1.38,0,0,0,.67-.6,1.32,1.32,0,0,0,.11-.77c0-.31-.23-.62-.24-.93C85.66,39.12,85.59,38.7,85.08,38.56ZM81,44.4s-.12.09-.19.14a1.69,1.69,0,0,0-.69,1.6.58.58,0,0,1-.13.38c-.37.39-.28.67.24.88l-.27.67-.06,0s0,0,0-.06l-.15-.17c0,.14-.09.25,0,.29.19.28.17.45-.09.71s-.13.55.24.68l1,.33c-.56.36-1,.53-.66,1.12.08.15-.39.58-.64.93l.47.21-.86,1.61V52.51l-.09,0-.94,1.7a2.82,2.82,0,0,1,.68.17c.11.05.16.23.24.36-.14,0-.31.16-.41.12-.58-.27-.81-.05-.81.54,0,0,0,.1,0,.12-.59.67,0,.9.43,1.32h-1a1.34,1.34,0,0,1-.19.41c-.32.39-.07.48.25.57s.41.1.27.53a2.7,2.7,0,0,0,0,.86l-1.73.3,1.44.58-.68.09,0,.11.75.22c-.48.16-.71.75-1.24.34,0-.3,0-.56,0-1L75.29,61l.83.26-.89.75H76v.23a2.32,2.32,0,0,1-.79,0c-.76-.3-1.26,0-1.23.62-.6.53-1.11,1-1.62,1.43a16.78,16.78,0,0,1-1.53,1.26c-.29.2-.64.12-.64-.38a.62.62,0,0,0-.06-.37c-.59-.72-.34-1.6-.5-2.41-.25-1.3.34-2.45.44-3.67a14.85,14.85,0,0,1,.69-2.52,25.58,25.58,0,0,1,1.66-3.8c.19-.43.24-.9.65-1.23.08-.06,0-.31,0-.61l.24-.08c.42-.65.81-1.23,1.17-1.83.22-.38.36-.81.6-1.18a2.34,2.34,0,0,1,.57-.51,2.21,2.21,0,0,0,.43-.5A4.17,4.17,0,0,1,77.66,45c.45-.32.74-.86,1.21-1.15s1-1.23,1.91-.84l.23-.56.15.1c-.13.28-.27.55-.42.85C80.83,43.67,80.94,44,81,44.4Z"/><path class="cls-2" d="M68.77,43.72c.68-.68,1.74-1,2-2.08.32.17.58-.07.66-.63.86-.18.94-.27.93-1.21a2.2,2.2,0,0,0-.65-.19,7.76,7.76,0,0,0-1.36.08,3.54,3.54,0,0,0-1.56.42c-.36.29-.64.18-1,.18a2.19,2.19,0,0,0-.67,0c-.89.39-2,.44-2.59,1.32a.68.68,0,0,1-.41.18c-.62.1-1,.42-1.07,1-.32.16-.78.29-.78.42,0,.59-.3.54-.7.38,0,.23-.07.42-.08.46a9.25,9.25,0,0,0-3.13,4.12l1.35-.55c-.18.4-.31.73-.45,1a2,2,0,0,0-.62-.16c-.79.11-.95,0-.89-.82s.15-1.51.16-2.26c0-1.82,0-3.63-.05-5.44,0-1.64,0-3.29-.07-4.93,0-.34-.36-.67-.55-1l-.11.06v-.82L55.36,34c-.48-.8.39-.54.5-.91l-.94-.1-.13.77-.3-.06v.78l.59-.19.13.14-.6.72.26.64-.43.23.68.42-.59.07c-.41.76.89,1.34.17,2.15.64.49.15,1-.14,1.52l.2.11.83-.61c0,.2,0,.43.08.69-.32.08-.74.06-.9.25s0,.59,0,.93c-.68.2-.14.88-.39,1.31l.7.37-.61.86c.28.21.62.44.93.71a.86.86,0,0,1,.31.53c0,.17-.17.34-.29.55l-.45-.49-.14.08c.05.26.1.52.15.74l.64.24,0,.18-1,.21c.06.34.13.76.2,1.21a2,2,0,0,1,.22,0,1.61,1.61,0,0,1,.43.17s0,.22,0,.22a.93.93,0,0,1-.47,0,4.85,4.85,0,0,1-.66-.49,2.11,2.11,0,0,0,0,.54c.9.22.27.81.14,1a3.26,3.26,0,0,0,0,2.56c.09.38.55.68.85,1,0,.25-.1.56-.16.9-.59-.28-.31-1.15-1.15-1.21.36.61,0,1.44.95,1.78.32.12.11.4-.19.53s-.39.27-.39.41.24.3.39.42a3.61,3.61,0,0,0,.56.21,3,3,0,0,1-.44.82,4.05,4.05,0,0,1-1,.43c.63.38.58.71.13,1,.35.25.84.43.94.73s-.25.7-.43,1.12c.6.34-.17.45-.26.7.35.37.35.37,0,.91l.58.45-.24,0a8.92,8.92,0,0,0-.43,1.42c0,.08.56.24.73.31a8,8,0,0,1,.65,1.17c.17.51.21,1.05.37,1.56a.58.58,0,0,0,.5.22,1.81,1.81,0,0,0,1.21-1.39,38.56,38.56,0,0,0,.78-4c.12-.73.18-1.47.3-2.2.19-1.08.41-2.14.6-3.21a5.22,5.22,0,0,1,.13-1.13c.44-1,1-2.08,1.44-3.12s1.32-1.9,1.51-3.08c0-.06.09-.1.13-.15.46-.48.92-1,1.39-1.45a11.75,11.75,0,0,1,1-.91c.29-.24.62-.43.93-.65.67-.48,1.33-1,2-1.45C68.08,44.05,68.51,44,68.77,43.72Z"/><path class="cls-2" d="M221,14.25c.39.65.82,1.27,1.24,1.9.28.42.55.87.87,1.27.46.58,1,1.12,1.47,1.67l1.27,1.44c.09.09.26.16.27.25.11.63.5.9,1.2.9L227,22a2.16,2.16,0,0,1,.31.29,11,11,0,0,0,.75,1c.45.44,1,.8,1.42,1.22a4.13,4.13,0,0,1,.5.72c.23.13.75.24.81.47a1.89,1.89,0,0,0,.84,1.09c0-.14.07-.27.11-.4.18.81.23.87,1,1.08.52.14.8,0,.7-.54a5.39,5.39,0,0,0-.63-1.86c-.34-.52-.48-1.28-1.24-1.48-.06,0-.11-.23-.09-.34.13-.59-.17-.64-.63-.51a1.06,1.06,0,0,1-.06-.19c0-.06,0-.16,0-.19a4.62,4.62,0,0,1-1.57-1.94c-.22-.51-.92-.81-1.38-1.23a3.55,3.55,0,0,1-.68-.77,7.13,7.13,0,0,0-1.93-2.39c-.13-.09-.17-.3-.28-.43-.35-.43-.66-1.13-1.08-1.21-.78-.15-.14-.39-.21-.53a6.67,6.67,0,0,1-.68-.62.72.72,0,0,0-.39-.19C221.82,13,221,13,220.25,13a2.25,2.25,0,0,1-.08.24l.76.56A1.1,1.1,0,0,0,221,14.25Z"/><path class="cls-2" d="M154.67,53.58a3.24,3.24,0,0,0-1.37-.42,43.39,43.39,0,0,0-6.1-.92,4,4,0,0,0-1.15.34c0,.11.06.22.08.33l.78-.08,1.66,2.52c-.16.81,0,.9,1,.59.09,0,.2,0,.3.06l-.11.19c.45-.16.83-.31,1.22-.41.1,0,.24.11.36.18a2,2,0,0,1-.31.19c-.14.05-.3.07-.45.11v.11l1.29.24V56a3.76,3.76,0,0,0,.79.38,3.24,3.24,0,0,0,3.06-.94c.11-.11.25-.37.21-.42A7.1,7.1,0,0,0,154.67,53.58Z"/><path class="cls-2" d="M109.54,48.24c-.06-.18-.29-.31-.44-.47l-.16.11.37,1.87C110.1,49.39,109.71,48.78,109.54,48.24Z"/><path class="cls-2" d="M195.68,46.1c-.07.11-.14.2-.2.3.45.45.46.46,1-.13l-.47-.69C195.81,45.89,195.75,46,195.68,46.1Z"/><path class="cls-2" d="M196.46,46.27v0Z"/><path class="cls-2" d="M10.1,34.19,10,34c-.19.08-.45.11-.56.25a2,2,0,0,0-.25.68l.23.09Z"/><path class="cls-2" d="M189.74,58.68l-.77.89c.17.09.26.18.35.18s.16-.12.25-.15.13,0,.2,0l.12-.93Z"/><polygon class="cls-2" points="189.77 59.66 189.77 59.66 189.77 59.65 189.77 59.66"/><path class="cls-2" d="M251.72,55c-.61.66-.2.85.36,1Z"/><path class="cls-2" d="M216.73,43.28l1.14-.39C217.41,42.42,217.23,42.46,216.73,43.28Z"/><path class="cls-2" d="M216.4,44a6,6,0,0,1-.47.44c-.36.25-.25.43.06.59C216.26,44.78,216.7,44.57,216.4,44Z"/><path class="cls-2" d="M216,45.07h0Z"/><path class="cls-2" d="M132.91,30.63c0-.3.08-.6.12-1l-.71.1.41.8Z"/><path class="cls-2" d="M97.31,51.15a2.28,2.28,0,0,0,.14.28l.62-.35-.15-.28C97.72,50.91,97.51,51,97.31,51.15Z"/><path class="cls-2" d="M129.77,49.09l.9,0v-1l-.24,0Z"/></g></g></g></svg>