<svg xmlns="http://www.w3.org/2000/svg" viewBox="0 0 289.14 220.77"><defs><style>.cls-1{fill:#fff;opacity:0.2;}</style></defs><g id="Calque_2" data-name="Calque 2"><g id="Contours"><path class="cls-1" d="M277,68.6c-3.76-4.49-4.32-10.68-5.77-16.16-1.6-6-4.43-11.56-9.26-15.56-8.8-7.29-20.36-7.67-28.71-1.27-11.45-11.53-29.66-4.94-42.77,3.62-2.31-5.89-3-12.41-4.89-18.44C182.8,11.72,177.37,4.43,168,1.45,160.21-1.06,150.55-.78,145,6c-4.95,6.08-5.24,14.76-4.68,22.23a134.56,134.56,0,0,0,2,14,30.18,30.18,0,0,0-5.43-1.23c-6.74-.88-12.16,1.09-18.31,3.55-5.82,2.33-9.49,1.74-15.36.16-5.48-1.47-10.45-1.2-15.53,1.48-4.81,2.53-8.8,6.48-13.86,8.6s-11,2.22-16.51,1.74c-6.47-.58-12.74-2.51-19.22-3.1a36.69,36.69,0,0,0-13.66,1.31,27.62,27.62,0,0,0-13,5.46C3.27,66.49-3.3,79.21,1.79,89.17c1.92,3.77,5.58,6.65,6.79,10.8,1.66,5.71-3.59,12.3-4.44,18A28.77,28.77,0,0,0,8.6,137.26c3.11,4.78,7.66,8.16,11.17,12.55,5.08,6.38,6.27,16.14,7.85,23.87,1.93,9.49,3.58,19.16,7.27,28.17,3.25,7.94,8.49,15.45,17.13,18,10.06,3,19.76-1.44,25.13-10.18,5.78-9.39,7.14-21.58,7.2-32.39.1-15.62-6.51-29.68-9.36-44.65,6.74,1.2,13.39,3,20.24,3.67,7.63.71,13.92-1.3,20.66-4.75,5.64-2.88,10.19-6,16.55-3.58,6.14,2.34,11.45,4.1,18.13,2.43,2.7-.67,6.54-3.26,9.39-2.79,2.41.4,4.66,3.05,7,4a28,28,0,0,0,21.43.11c6.3-2.45,12.32-6.67,19.12-7.55,3.17-.4,6.76.55,9.73-.86a5.61,5.61,0,0,0,.7-.41l.51.34c2.45,1.55,6.72,2.58,9.54,3.33a22.31,22.31,0,0,0,11.5-.17c5.69-1.53,10.06-5.16,13.39-9.72,6.9,4.23,15,6.18,22.77,2.37,8.5-4.17,12.92-13.64,13.43-22.75C289.73,84.93,284,76.87,277,68.6Z"/></g></g></svg>