<svg xmlns="http://www.w3.org/2000/svg" viewBox="0 0 306.24 121.8"><defs><style>.cls-1,.cls-2{fill:#fe5f58;}.cls-1{opacity:0.2;}</style></defs><g id="Calque_2" data-name="Calque 2"><g id="Phrase_2" data-name="Phrase 2"><g id="P2_m5_3"><path class="cls-1" d="M303.49,82.79c-1.76-5-.19-9.45,1-14.48,1.12-4.87,2.3-10.22.46-15.06a11.71,11.71,0,0,0-7.3-6.93c3.12-10.73,2.38-25.89-9.1-29.12-11.65-3.28-19,9.66-24.57,20.15C257.8,23.55,247.13,10,230.63,17.22c-10,4.39-14.58,12.62-21.13,20.68-2.74,3.38-5.2,6-9.75,5.09-5.45-1.05-10.36-4-15.78-5.17-5.9-1.31-12-1.44-18-1.87-3.42-.25-9.6.08-11.82-3.13s-2.95-7.6-4.46-11a44.13,44.13,0,0,0-8.82-13.55c-6.1-6.12-17-12-24.68-5.22-3.1,2.71-4.83,6.52-6.31,10.27-.93,2.35-2.09,9.42-4.29,10.75-.77.47-5.81-1.53-7.52-1.94a55.19,55.19,0,0,0-13.32-1.22c-6.37.05-17.84-.77-22.6,4.6C51.45,18.58,38.51,12.57,26.32,17,13.1,21.77,3.28,35.77.66,49.26-1.7,61.42,2.34,75.5,12.11,83.52c9.16,7.53,21.2,9.57,32.76,9a104.69,104.69,0,0,0,33.84-7.67c5.06,15.32,23.13,17.69,37.93,17.18,8.71-.31,17.41-2.16,26.12-1.79,14.22.61,28.08,5.53,42.4,4.57a38.83,38.83,0,0,0,9.5-1.69c.89-.29,6-2.08,7-3.32.56.53,1.18,1,1.74,1.52,1.65,1.48,3.32,3,5.1,4.31,4.52,3.4,10.86,4.68,16.27,5.9,7.08,1.58,14.23,2.71,21.22,4.69,11.12,3.14,24.39,7.38,36,4.75,10.11-2.29,20.79-10.94,23.51-21.17C307.23,93.5,305.58,88.69,303.49,82.79Z"/><path class="cls-2" d="M293.53,94.76c-1.22.57-2.42,1.2-3.66,1.71-2.49,1-5,2-7.5,3-1.05.42-2.08.94-3.16,1.29a28.59,28.59,0,0,1-2.95.63,11.62,11.62,0,0,1-3.89.36c-1.24-.16-2.53-.28-3.35-1.49a6,6,0,0,1-.91-3.76q.19-3,.68-6.05c.46-2.95.94-5.91,1.61-8.83.71-3.08,1.64-6.11,2.48-9.16.13-.45.3-.88.47-1.32a1,1,0,0,1,1-.65c1.56-.16,3.11-.28,4.65-.54a92.14,92.14,0,0,0,10.42-2,10.37,10.37,0,0,0,1.95-.89.81.81,0,0,0,.4-1.08.78.78,0,0,0-.93-.48c-.29,0-.59,0-.88.11-2.09.45-4.17,1-6.28,1.34-2.83.48-5.69.84-8.53,1.23a4.75,4.75,0,0,1-.89,0c1-2.76,2-5.41,3-8,.8-2.13,1.67-4.24,2.47-6.37s1.8-4.43,2.51-6.73a46.23,46.23,0,0,0,1.34-5.27,5.61,5.61,0,0,0-.13-2.23,1.23,1.23,0,0,0-.9-.71c-.51-.07-.78.41-.93.88,0,.11,0,.25,0,.37a29.52,29.52,0,0,1-1.81,7.22,3.82,3.82,0,0,0-.15.48c-.68,1.86-1.35,3.72-2.05,5.57-.5,1.3-1.06,2.57-1.57,3.87q-.87,2.18-1.68,4.37c-.51,1.38-1,2.77-1.49,4.16-.33.94-.64,1.88-.94,2.78a15.37,15.37,0,0,0-2,.13,1.1,1.1,0,0,0-1,1.15,1.07,1.07,0,0,0,1,1.09l1,.12c-.3,1.09-.56,2.05-.82,3-.82,3-1.76,6.08-2.45,9.16-.57,2.59-.88,5.23-1.26,7.86A2.39,2.39,0,0,1,265,93.28a4,4,0,0,0-1.12.6,11.75,11.75,0,0,1-8.56,2,1.79,1.79,0,0,1-1.44-.89,8.48,8.48,0,0,1-1.32-4.3,7.6,7.6,0,0,0-.32-1.4,11.62,11.62,0,0,0,.27-1.54c0-1.56,0-3.12,0-4.68.07-2.14.28-4.29.28-6.43,0-1.42.43-3-1.17-3.9.1-.72.22-1.29.27-1.87a2.48,2.48,0,0,0-.64-1.85c-1-1.19-2.57-1.39-4.28-.44a40.18,40.18,0,0,0-4.69,3.22,26.22,26.22,0,0,0-5.65,5.49c.3.39,1,.74.32,1.41l-1-.35a11.07,11.07,0,0,0-2.15,4.59,14,14,0,0,0-.62,6.71,1,1,0,0,1-.69,1.28,9.76,9.76,0,0,1-6.83.43,5.91,5.91,0,0,1-3.28-2,10.54,10.54,0,0,1-1.87-6.15,51.23,51.23,0,0,1,.41-5.54,28.32,28.32,0,0,1,.36-2.88,33.12,33.12,0,0,0,.8-5.42,1.1,1.1,0,0,1,.11-.35l1.26-3.41c1.09-.5,2.41-1,3.68-1.69a65.4,65.4,0,0,0,10.08-5.9,34.19,34.19,0,0,0,5.7-5.64,24.92,24.92,0,0,0,3.36-5.61,17.18,17.18,0,0,0,1.62-8,5,5,0,0,0-1.63-4,2.88,2.88,0,0,0-2.57-.65,13.3,13.3,0,0,0-5,2.61,32.56,32.56,0,0,0-5.75,5.5,40.31,40.31,0,0,0-2.67,3.66,41.54,41.54,0,0,0-2.82,4.32c-1.32,2.57-3,5-3.78,7.83a42.65,42.65,0,0,1-1.85,4.94,2,2,0,0,1-.81,1,22.79,22.79,0,0,1-3.4,1.37A29.73,29.73,0,0,1,211,66.79a11.36,11.36,0,0,1-3.77-.1,4.57,4.57,0,0,0-1.11,0c-.48,0-.51-.3-.37-.82.43.11.82.2,1.2.31a2.83,2.83,0,0,0,.84.27c.35,0,.84-.06,1-.29a1.43,1.43,0,0,0,0-1.06,1.22,1.22,0,0,0-.59-.62,7.21,7.21,0,0,0-1.73-.77c-1.72-.41-3.45-.81-5.2-1.05a11.74,11.74,0,0,0-3.5,0,10.43,10.43,0,0,0-6.43,3.95,14.91,14.91,0,0,0-3,5.39,9.21,9.21,0,0,1-.7,1.41c-1-.37-1.63.19-2.22.83s-1.2,1.32-1.81,2c-.44.45-.93.87-1.38,1.32a3.79,3.79,0,0,1-1.35,1.17,39.27,39.27,0,0,1-4.33,1.93,9.22,9.22,0,0,1-5.94,0,8,8,0,0,1-4.39-4.15,2.49,2.49,0,0,1-.27-1.23,16.64,16.64,0,0,1,.66-5.15,8.37,8.37,0,0,0,.23-.86c.42-1.44.8-2.9,1.28-4.33.36-1.07.84-2.1,1.29-3.14s.91-2.08,1.41-3.1a3.08,3.08,0,0,1,2.36-1.71c1.12-.18,2.27-.22,3.4-.34a6.9,6.9,0,0,1,3.37.38,1.82,1.82,0,0,0,1.7-.14c.38-.21.91-.5,1-.84.12-.57-.36-1-.88-1.27a3.19,3.19,0,0,0-1-.32c-.74-.12-1.49-.2-2.24-.29a4.28,4.28,0,0,0-1-.09,18,18,0,0,0-3.47.53,22.68,22.68,0,0,1-3.62.64,9.11,9.11,0,0,0-4-1.68,10.91,10.91,0,0,0-6.68.73,16.8,16.8,0,0,0-5.28,3.15,24.71,24.71,0,0,0-5.46,7.05c-.39.78-.7,1.6-1,2.4a.52.52,0,0,1-.19-.49c.28-2,.59-4.07.85-6.11a31.81,31.81,0,0,0,.16-5.17,25.53,25.53,0,0,0-.72-5.51c-.13-.52-.1-1.24-.93-1.33,0,0,0-.25-.08-.38a2,2,0,0,0-.33-.75,2.29,2.29,0,0,0-2.35-.63,19.24,19.24,0,0,0-4.16,1.8,17.31,17.31,0,0,0-4.69,4.54,48.94,48.94,0,0,0-6.07,10.79c-.1.24-.24.47-.36.7a1.21,1.21,0,0,1-.29-.87c0-.75.18-1.51.2-2.27.08-2.87.1-5.74.19-8.61.05-1.68.19-3.36.27-5,.13-2.49.2-5,.37-7.48.13-1.84.42-3.68.6-5.52s.2-3.47.42-5.19a43.65,43.65,0,0,0,.11-9.07,6.58,6.58,0,0,0-.25-1,1.18,1.18,0,0,0-1.35-.91,1.83,1.83,0,0,0-1,.78,2.76,2.76,0,0,0-.36,1.08q-.9,4.32-1.79,8.66c-.35,1.71-.65,3.44-1,5.15-.42,1.94-.89,3.87-1.3,5.81-.51,2.39-1,4.8-1.49,7.19s-1.05,4.61-1.59,6.91a45.93,45.93,0,0,1-2.6,8.43c-.45,1-1,1.94-1.46,2.94a16.73,16.73,0,0,1-4.79,6,16.93,16.93,0,0,1-6.92,3.56,7.33,7.33,0,0,1-5.42-.41,6.64,6.64,0,0,1-3.55-4.78c-.64-3-.09-6,.34-8.93a33.75,33.75,0,0,1,2.29-7.88A17.55,17.55,0,0,1,102.46,47c1.39-1.43,2.88-2.43,5-2,.93.17,1.73-.35,1.77-.87s-.68-1.17-1.6-1.36a6.24,6.24,0,0,0-4,.59A12.22,12.22,0,0,0,98.77,48a29.29,29.29,0,0,0-4,9.69,37.11,37.11,0,0,0-1.12,8.66c0,2.28.06,4.61,1.39,6.6a8.61,8.61,0,0,0,3.48,3.34,10.87,10.87,0,0,0,7.91.4,27.53,27.53,0,0,0,4.27-1.9,19.67,19.67,0,0,0,6.78-6.33c.58-.81,1-1.73,1.51-2.59a18.52,18.52,0,0,0,2.09-4.46c.5-1.83,1-3.67,1.45-5.51s.9-3.4,1.4-5.09a1.76,1.76,0,0,0-.28-1.8,1.55,1.55,0,0,0,1-1.5,8.5,8.5,0,0,1,.21-1.12c.62-2.67,1.27-5.34,1.84-8s1-5.37,1.58-8a1.86,1.86,0,0,1,.68-1.43c0,.4,0,.59-.07.79-.25,2-.59,3.92-.72,5.9-.22,3.19-.64,6.36-.79,9.56a27.4,27.4,0,0,1-.21,4.6,27,27,0,0,0-.14,4.68c-.09,4-.18,8.08-.3,12.12-.09,3.26-.22,6.51-.31,9.76a10,10,0,0,0,.15,1.89,1.05,1.05,0,0,0,1.15,1,1.19,1.19,0,0,0,1.06-1.07c0-.38,0-.76,0-1.14a29.66,29.66,0,0,1,.18-3.54,36.72,36.72,0,0,1,2.94-9.89,45.17,45.17,0,0,1,2.28-4.5,58.51,58.51,0,0,1,4.45-6.32,13.71,13.71,0,0,1,5.75-4,1,1,0,0,1,1.4.49,3.28,3.28,0,0,1,.39,1c.2,1.38.39,2.76.52,4.14a11.23,11.23,0,0,1,.07,2.65c-.36,2.5-.34,5-.86,7.51s-.71,5.18-1,7.78a25.49,25.49,0,0,0-.28,3,27,27,0,0,1-.39,6.08,1.48,1.48,0,0,0,.41,1.1c.32.38.72.09,1-.18a2.65,2.65,0,0,0,.65-.89,19.69,19.69,0,0,0,.48-1.91c.22.17.42.31.6.46a4.86,4.86,0,0,0,4.7.77A21.87,21.87,0,0,0,156,79.16,17.59,17.59,0,0,0,162.66,74a11.84,11.84,0,0,1,1-1,10.22,10.22,0,0,0,0,1.29,12.77,12.77,0,0,0,.74,3.43,10,10,0,0,0,5.7,4.93,10.78,10.78,0,0,0,6.13.35,21.54,21.54,0,0,0,3.27-1,11.37,11.37,0,0,0,2.18-1.27A12.73,12.73,0,0,0,185.1,78a21,21,0,0,1,2.11-2.28c-.12,1.6-.34,3.24-.32,4.88A4.08,4.08,0,0,0,191,84.83a11.34,11.34,0,0,0,5.64-1.64c1.17-.66,2.28-1.41,3.4-2.16a8.89,8.89,0,0,0,2.9-2.76,11.35,11.35,0,0,1,1.37-2A7.59,7.59,0,0,0,205.49,74a8.53,8.53,0,0,0,1-4,8.33,8.33,0,0,0-.26-1.32,13.44,13.44,0,0,0,2.27.43A32.84,32.84,0,0,0,219,67.26c.22-.07.52-.35.53-.54s.07-.54.37-.5a.81.81,0,0,1,.52.45,1.78,1.78,0,0,1,0,.86c-.62,3.36-1.35,6.71-1.86,10.09a21,21,0,0,0,.29,9.63,9,9,0,0,0,3.48,5c1.45,1,3.12,1.2,4.64,1.66l.94-1c.62.45.7,1.3,1.49,1.09,1.25-.34,2.51-.66,3.72-1.09.91-.31,1.08-.36,1.69.46a4.35,4.35,0,0,0,5.65,1.31,13.9,13.9,0,0,0,4.29-3A23.2,23.2,0,0,0,248,87.27c.64-1.23,1.41-2.38,2.17-3.63,0,1.93,0,3.75,0,5.56a13,13,0,0,0,1.62,6.69,4.1,4.1,0,0,0,2.79,2c2.11.54,4.18-.14,6.26,0a.62.62,0,0,0,.24-.1c1.33-.62,2.67-1.25,4-1.89.26-.13.5-.32.9-.58a18,18,0,0,0,0,2,8.24,8.24,0,0,0,.93,3.73,5.34,5.34,0,0,0,4,2.79,12.64,12.64,0,0,0,4,.29,28.21,28.21,0,0,0,4.14-1c2.27-.79,4.51-1.68,6.74-2.58a29.93,29.93,0,0,0,7.82-4.83,5.32,5.32,0,0,0,.72-1.09C293.83,94.67,293.67,94.69,293.53,94.76Zm-67.8-35.84a19.89,19.89,0,0,0,1.26-3A56.2,56.2,0,0,1,231.48,48a54.92,54.92,0,0,1,4.69-6,15.1,15.1,0,0,1,2.26-2,29.91,29.91,0,0,1,4.47-3.26c1.52-.75,2.35-.37,2.55,1.29a15.1,15.1,0,0,1-1.84,8.85,25.75,25.75,0,0,1-2.66,4.4,22.5,22.5,0,0,1-5.17,5c-2.11,1.38-4.19,2.82-6.36,4.09-1.52.89-3.17,1.55-4.76,2.31l-.22-.22A15.39,15.39,0,0,1,225.73,58.92ZM167,55.75l2.21,1-1.89,3.4-.29-.07C166.92,58.68,167.05,57.3,167,55.75ZM164.7,60c0,2.87-.86,5.57-1.41,8.32a6.9,6.9,0,0,1-2.22,4.16s-.07.06-.08.09c-.68,1.51-2.18,2.13-3.35,3.11a16.49,16.49,0,0,1-4,2.16,10.58,10.58,0,0,1-3.12.92c-1,.12-1.66-.52-2.33-.64,0-1.1.09-2.08.15-3.07a11.76,11.76,0,0,1,.2-1.45,21.67,21.67,0,0,0,.49-2.45,14.72,14.72,0,0,1,1.06-3.36,23.39,23.39,0,0,1,3.16-5.89,16.08,16.08,0,0,1,5-4.61,13.41,13.41,0,0,1,6-1.8,5.55,5.55,0,0,1,.77.11C164.89,57.14,164.67,58.56,164.7,60Zm38,14.74a17,17,0,0,1-3.59,4.37,6.13,6.13,0,0,1-1.45,1c-2,1.11-4,2.43-6.39,2.53a1.8,1.8,0,0,1-2-1.46,7.23,7.23,0,0,1,.07-3.14c.35-1.72.71-3.45,1.19-5.14a25.63,25.63,0,0,1,1.1-2.54c.18-.45.12-1,.37-1.4s.84-.52,1.14-.88a11.37,11.37,0,0,1,3-2.48,6.94,6.94,0,0,1,3.37-1c1,.17,2,.3,3,.51.28.06.69.31.75.55a34,34,0,0,1,.86,4.2C204.28,71.62,203.4,73.16,202.66,74.72Zm46,6c-.78,1.62-1.12,3.46-2.48,4.78-.2,1.1-1.05,1.8-1.62,2.67a13.14,13.14,0,0,1-4.74,4.3q-2.25,1.26-3.6-1.1A43.14,43.14,0,0,0,248.8,80.09,2.6,2.6,0,0,1,248.69,80.72Zm.61-8.94a19.2,19.2,0,0,1-1.57,4.77,17.41,17.41,0,0,1-2,3.5,12.7,12.7,0,0,1-1.21,1.43c-1.44,1.48-2.85,3-4.36,4.39a21.49,21.49,0,0,1-2.67,1.91c-.65.43-1.33.83-2.12,1.32a5.47,5.47,0,0,1-.19-1,16.87,16.87,0,0,1,2.52-8.5,19.25,19.25,0,0,1,2.66-3.19,28.54,28.54,0,0,1,4.57-4c1.32-.84,2.6-2,4.62-2.22C249.46,70.84,249.37,71.31,249.3,71.78Z"/><path class="cls-2" d="M68.91,63c-.14-2.44,0-4.89,0-7.34,0-2.74.07-5.49.1-8.24a4.9,4.9,0,0,0-.06-1,1.3,1.3,0,0,0-1.19-1c-.55-.09-.86.28-1.07.72a3.57,3.57,0,0,0-.3,1c-.25,1.7-.45,3.4-.72,5.09-.21,1.24-.54,2.46-.75,3.7a20.39,20.39,0,0,1-1.66,5.51c-.37.76-.8,1.48-1.12,2.25a20.43,20.43,0,0,1-3,5.12,9.05,9.05,0,0,1-2.4,2.62c-.95.53-1.25.63-1.92-.23A10.46,10.46,0,0,1,53.57,69a12.63,12.63,0,0,1-1.08-4.52,33.28,33.28,0,0,1,0-3.46c0-1.63.13-3.27.23-4.9.07-1.08.19-2.17.29-3.26s.19-2.35.3-3.53c.17-2,.36-3.94.51-5.92a1.83,1.83,0,0,0-.2-.85,1.12,1.12,0,0,0-1.21-.74,1.08,1.08,0,0,0-.94.91,9.2,9.2,0,0,0-.21,1.38c-.28,3.28-.52,6.56-.85,9.83-.14,1.34-.45,2.66-.69,4-.65,3.5-2,6.65-4.85,8.93a3.24,3.24,0,0,1-2.68.89,5.66,5.66,0,0,1-3-1.71c-1.5-1.63-1.85-3.7-2.06-5.73A39.11,39.11,0,0,1,37,53.7c.16-2.41-.08-4.8,0-7.2,0-1.81,0-3.62,0-5.43A12.72,12.72,0,0,0,37,39.56a1.49,1.49,0,0,0-1.29-1.36c-.51-.05-.91.36-1.09,1.19a6.66,6.66,0,0,0-.08,1c0,.38,0,.76-.06,1.13-.19,1.93-.44,3.86-.58,5.79a28.66,28.66,0,0,1-1.52,7,20.62,20.62,0,0,1-3.27,6.48c-1.54,1.89-2.91,3.94-5.32,4.9a2.73,2.73,0,0,1-3-.47,8.78,8.78,0,0,1-2.47-4.17,12.4,12.4,0,0,1-.42-5,20.58,20.58,0,0,1,3.32-9.71,20.86,20.86,0,0,1,1.89-2.51c.65-.76,1.07-1.76,2.09-2.17,0,0,.06-.06.08-.09.91-1.22,2.29-1.84,3.47-2.7a8.21,8.21,0,0,1,3.59-1.53c.7-.11,1.43-.09,2.14-.21.87-.15,1.85-.06,2.58-.95-.3-.26-.53-.49-.79-.68a3.8,3.8,0,0,0-2.54-.47,10.13,10.13,0,0,0-4.53,1c-1.67.88-3.21,2-4.8,3.05a2.4,2.4,0,0,0-.47.43l-4.16,4.89c-1.58,1.89-2.3,4.2-3.19,6.43-.29.73-.35,1.56-.62,2.31s0,1.55-.32,2.34a7.47,7.47,0,0,0-.09,2.13A11.85,11.85,0,0,0,18.28,66,5.35,5.35,0,0,0,24,68a9.78,9.78,0,0,0,3.08-1.7,18.21,18.21,0,0,0,3.63-3.86A16.73,16.73,0,0,0,34,56.61a4.89,4.89,0,0,1,.63-1c.38,2.53,0,4.85.52,7.14C35.76,65.44,37,67.65,39.4,69c1.23.68,2.54,1.32,4.06.85a9.74,9.74,0,0,0,4.47-2.76c.77-.87,1.47-1.81,2.23-2.75.08.61.17,1.23.26,1.85a13,13,0,0,0,2.14,5.89,5.81,5.81,0,0,0,1.87,1.66,2.53,2.53,0,0,0,2.56.1,9.17,9.17,0,0,0,2.52-2A32.37,32.37,0,0,0,65.09,63c.42-1,.82-2,1.22-3l.26,0a13.47,13.47,0,0,1,.18,2.45,10.6,10.6,0,0,0,.7,4.83c.35.9.64,1.82,1,2.69a14.15,14.15,0,0,0,3,4.55,1.54,1.54,0,0,0,2.66-.44C73.2,73,72.3,72,71.56,70.92A15.8,15.8,0,0,1,68.91,63Z"/></g></g></g></svg>