<svg xmlns="http://www.w3.org/2000/svg" viewBox="0 0 306.12 159.08"><defs><style>.cls-1,.cls-2{fill:#fe5f58;}.cls-1{opacity:0.2;}</style></defs><g id="Calque_2" data-name="Calque 2"><g id="Phrase_2" data-name="Phrase 2"><g id="P2_m1_3"><path class="cls-1" d="M301.13,68.4c-5.81-12.08-16.55-19-29.94-15.46a34.54,34.54,0,0,1-9.13,1.46H262c-.26-4.38-2.2-9.33-3-13.46-2.43-12.28-8.21-24.76-22.48-25.61-12-.71-18.92,9.5-23.19,19.44-8.95-2.65-18.28,2-26,7.23-2.62-4.86-5-9.8-10.36-12.3-8.31-3.86-17.75-2.84-26.66-1.1,1-6.91.79-14.23-2.91-20.1-4.64-7.36-15.51-11.25-23.17-6.22-6.86,4.49-8.65,13.88-10,21.36-.68,4-1,8.05-2.11,11.92s-1.46,3.4-5,2.29c-11.59-3.69-24.88-8-37.21-5.78C66.72,26,64.15,19.8,59.1,14.85a4.33,4.33,0,0,0-4.68-1.09c-9.19-2.33-18.1,5.19-23.34,12S21.51,40.67,16.9,48.14a154.09,154.09,0,0,0-13,25.13c-3,7.86-5.3,17-2.88,25.38,2.58,8.9,11,15.71,20.42,15.15,3-.18,9-3.07,10.52.52,1.86,4.41.14,10.83-.44,15.37-1.27,9.79-1.29,23.62,9.55,28.3,12.09,5.21,20.62-9.45,23.39-19,3-10.27,3.18-20.95,3.65-31.56a96.63,96.63,0,0,0,20.3,7.69,135.67,135.67,0,0,0,28.38,3.56c9.3.17,19.66-.81,28.44-4,6.92-2.54,12.56-7.33,18.91-10.92,5.54,9.34,15.17,15.59,26.46,12,4.29-1.35,10.68-5.9,15.19-4,4.77,2,8,7.73,12,10.93,5.6,4.52,12.51,5.75,19.49,6.67,7.44,1,15.06,1.73,22.56,2,9.91.32,20.52-1.13,29.13-6.37C307.73,113.57,310,86.79,301.13,68.4Zm-39-11.18s0-.17,0-.36C262.2,57,262.21,57.16,262.09,57.22Z"/><path class="cls-2" d="M160.13,79.61v.44a3.13,3.13,0,0,0-1.68,1.52c-.07.24-.19.66-.31.66-.94.06-1.11,1-1.7,1.46a6.52,6.52,0,0,0-1.83,2,5.36,5.36,0,0,1-1.41,1.25c-.33.26-.72.46-1,.75-.66.62-1.26,1.31-1.93,1.93-.22.21-.73.2-.83.41-.28.61-.83.84-1.31,1.2a22.5,22.5,0,0,1-2.69,2.24,4.53,4.53,0,0,1-2,.67,8.73,8.73,0,0,1-3-.31c-.61-.21-1.15-.34-1.48-1-.23-.42-.65-.73-.9-1.14a19.7,19.7,0,0,1-1.28-2.34c-.25-.6-.25-1.3-.49-1.91a14.48,14.48,0,0,1-.7-3.79,6.06,6.06,0,0,1,.25-3,28.53,28.53,0,0,0,.94-2.74,5.66,5.66,0,0,0,.11-1.17l-.24.16c-.29-.17-.75-.27-.85-.51-.26-.62-.95-1.2-.36-2,.07-.1,0-.29,0-.44,0-.6-.11-1.19-.1-1.79,0-.95.17-1.92.09-2.86-.13-1.63.17-3.25,0-4.89a19.08,19.08,0,0,1,.1-2c0-1.67,0-3.34,0-5a2.37,2.37,0,0,1,.1-1c.2-.5.17-1.14.89-1.36,1.17-.37,2.17-1.22,3.49-1.13.17,0,.36-.14.54-.21.81-.32,1.62-.66,2.44-1,.34-.12.73-.11,1.06-.24.67-.25,1.29-.59,2-.82.41-.14.9,0,1.3-.2,1.7-.62,3.39-1.28,5.07-2a12.44,12.44,0,0,0,1.29-.67c.05,0,.33.16.4.09a5.53,5.53,0,0,1,2-.81c1.22-.45,2.39-1,3.59-1.53l.12,0c.68-.23,1.37-.44,2-.69,1.33-.48,2.64-1,4-1.49a4,4,0,0,0,.72-.4,6.13,6.13,0,0,1,.73-.48,1.81,1.81,0,0,0,1.19-1.88l.44.3c0-.08.09-.11.1-.15s0-.16,0-.18c-.41-.32-.15-1.23-1.27-1a7.58,7.58,0,0,0-2.06.69c-.83.42-1.64.9-2.5,1.27a6.13,6.13,0,0,0-1.81.78,4.57,4.57,0,0,1-1.6.72,10.89,10.89,0,0,0-2.55.84,20.09,20.09,0,0,1-2.72,1,17.77,17.77,0,0,0-1.69.71,12.56,12.56,0,0,1-1.27.73c-1,.32-2,.46-3,.82a28.52,28.52,0,0,1-2.85,1,12,12,0,0,0-3.46,1.08,11.35,11.35,0,0,1-2.32.68c-.45.15-.86.44-1.31.6-.68.24-1.38.41-2.06.65s-.73.05-.7-.53c.05-1,.09-2,.1-2.94s0-1.95,0-2.92c0-.28,0-.56,0-.84,0-.88.06-1.76.08-2.64,0-.34,0-.69,0-1-.06-1.2-.17-2.39-.18-3.59s0-2.69.08-4c0-.59,0-1.19,0-1.79,0-.27-.07-.53-.07-.8s.11-.71.1-1.06c0-1.11-.42-2.21-.08-3.33a3.17,3.17,0,0,0,.07-.87c0-.73.07-1.47.1-2.2,0-.08,0-.17,0-.25a11.1,11.1,0,0,1,0-1.73,1.52,1.52,0,0,0-1.38-1.94c-.44,0-.83.06-.91.6s-.2.88-.25,1.33c-.07.7-.09,1.41-.13,2.12,0,.44-.09.89-.08,1.33,0,1,.1,2,.11,3,0,.84-.12,1.68-.11,2.52s.16,1.42.17,2.13-.1,1.57-.13,2.35c0,1.46-.07,2.93-.09,4.39,0,.55,0,1.1,0,1.65,0,1,.07,2.07.08,3.1a18.43,18.43,0,0,0-.07,2,16,16,0,0,1,0,4.2,11.06,11.06,0,0,0,0,1.91c0,.58-.08,1.09-.74,1.26a9,9,0,0,0-1.49.37,1.91,1.91,0,0,1-1.06.2,2.63,2.63,0,0,0-2.07.62,4.64,4.64,0,0,0-1.16.26c-.42.14-.83.34-1.27.45s-.64.26-.45.52a3,3,0,0,0-.63.72,1,1,0,0,0,0,.83c.11.15.51.08.79.11l.63.05a2.51,2.51,0,0,0,.94,0c.53-.18,1-.65,1.51-.69a24.56,24.56,0,0,1,3.39-.51c.08,0,.15-.08.23-.1.29,0,.66-.22.85-.1a1,1,0,0,1,.32.8c0,1.35-.15,2.7-.18,4.06s0,2.44,0,3.67c0,.61,0,1.23,0,1.84s-.33,1.51.11,2.23a.31.31,0,0,1,0,.19c-.08.66-.2,1.31-.24,2a19.84,19.84,0,0,0,0,2.67A16.54,16.54,0,0,0,133,76c0,.12,0,.35-.06.39-.37.22-.36.53-.32.9a14.55,14.55,0,0,1,0,1.48,5.75,5.75,0,0,1-.12,2,7.92,7.92,0,0,1-1.2,2.23c-.83,1-1.45,2.19-2.2,3.27s-1.68,2.25-2.46,3.41c-.56.83-1,1.73-1.51,2.61-.19.36-.38.53-.64.14-.39-.58-.72-1.21-1.07-1.83-.15-.26-.29-.52-.43-.79a14.32,14.32,0,0,1-.89-1.8c-.26-.8-.36-1.64-.57-2.46s-.53-1.73-.7-2.62c-.3-1.53-.52-3.08-.76-4.63-.16-1-.3-2-.43-3.06s-.26-1.92-.32-2.89c-.08-1.41-.12-2.83-.15-4.25,0-1.58-.06-3.17,0-4.75a2.45,2.45,0,0,0-1.14-2.12c-.58-.43-1.26,0-1.6.87-.57,1.41-.22,2.87-.35,4.31-.18,1.9-.18,3.82-.43,5.72-.22,1.75-.63,3.49-1,5.22-.14.69-.43,1.35-.61,2s-.25,1.27-.43,1.88c-.24.8-.54,1.58-.81,2.36-.45,1.32-.53,2.73-1.37,4-.57.84-1,1.79-1.63,2.63a1.76,1.76,0,0,1-2,.91c-.52-.11-1.15.13-1.49-.54-.25-.49-.68-.9-.88-1.41a15.54,15.54,0,0,1-.85-3.13,13.74,13.74,0,0,1-.61-3.82s0-.05,0-.07c-.07-1.18-.14-2.36-.2-3.54s-.09-2.23-.16-3.35c-.06-.87-.16-1.74-.22-2.62-.07-1.07-.11-2.14-.17-3.22,0-.27-.1-.55-.09-.82.08-1.29.22-2.57.26-3.86,0-1.1,0-2.2,0-3.29a4,4,0,0,0-.33-1.67c-.4-.74-1.1-.41-1.71-.21a1.8,1.8,0,0,0-1,1.42c0,.89,0,1.79,0,2.68a9.4,9.4,0,0,1,0,1.3c-.18,1.26-.39,2.52-.61,3.77-.1.55-.28,1.08-.35,1.63-.16,1.1-.24,2.21-.42,3.31-.09.61-.34,1.19-.46,1.79s-.18,1.53-.41,2.25c-.38,1.25-.88,2.47-1.33,3.69a3.83,3.83,0,0,0-.42,1.08c0,1.28-.79,2.3-1.17,3.45a1.65,1.65,0,0,1-1.63,1.26A13.39,13.39,0,0,0,92,87.4a.63.63,0,0,1-.19,0,14.57,14.57,0,0,1-2-.68c-.76-.39-1.71-.43-2.28-1.2a.35.35,0,0,0-.16-.09c-.89-.2-1-.69-.53-1.47a9.82,9.82,0,0,0,1.49-2.77c.33-1.42,1.41-2.5,1.49-4a10.75,10.75,0,0,1,.73-2.39,8.46,8.46,0,0,0,.43-1.68A12.27,12.27,0,0,0,91,70.16,16.36,16.36,0,0,1,91.16,67c0-1.2.09-2.39.12-3.59,0-.1,0-.21,0-.31A17.26,17.26,0,0,0,91,60.66a6,6,0,0,0-.87-2.52,14.82,14.82,0,0,1-1.27-2.36,3.3,3.3,0,0,0-.5-.93c-.68-.62-1.45-1.14-2.13-1.75-.92-.81-3,.32-3.16,1.38a19.19,19.19,0,0,1-1.51,4.29c-.54,1.33-1.28,2.6-1.18,4.12a.48.48,0,0,1-.11.29,6,6,0,0,0-.87,2.6,16.77,16.77,0,0,0-.12,3.41,2.34,2.34,0,0,1-.14.5,16.56,16.56,0,0,0-.37,2.2c0,.81.09,1.63.11,2.45,0,.55-.07,1.11-.07,1.66A3.08,3.08,0,0,0,79,77.1a1.45,1.45,0,0,1,0,1.3,1.12,1.12,0,0,0,.06.8c.23.54.51,1.06.78,1.57.16.29.08.75.57.83,0,0,0,.23.1.35a2.26,2.26,0,0,0,.29.67c.27.28.68.45.9.76s.36.86.62,1.25a1.33,1.33,0,0,1-.1,1.46,3.2,3.2,0,0,1-2.4,1.43,5.39,5.39,0,0,1-3.67-.43,3,3,0,0,1-.66-.45c-.31-.32-.58-.68-.87-1a9.52,9.52,0,0,1-1-1.34c-.33-.6-.4-1.39-.83-1.86s-.44-1.21-1-1.7-.47-1.26-.71-1.91a7.59,7.59,0,0,0-.45-.86c-.11-.79-.2-1.56-.34-2.33,0-.09-.3-.12-.4-.17a4.23,4.23,0,0,0,.08-1.12,11,11,0,0,1-.45-3.43c0-.08,0-.16,0-.25-.11-.73-.26-1.46-.32-2.19,0-.54.09-1.09,0-1.62-.15-1.81-.33-3.62-.53-5.42-.09-.9-.09-1.8-.24-2.72a16.64,16.64,0,0,0-.67-3.61c-.3-.73-.43-1.53-.72-2.26a3.53,3.53,0,0,0-.74-1c-.36-.4-.69-.93-1.15-1.13a6.61,6.61,0,0,0-3.7-.84c-1.21.18-2.33.38-3,1.5a10.38,10.38,0,0,1-1,1.57,5.67,5.67,0,0,0-1.22,2.09,8.09,8.09,0,0,1-.68,1.26c-.06-1.18,0-2.31,0-3.44,0-2.34,0-4.69,0-7a6.82,6.82,0,0,0-.18-1.1c-.08-.17.06-.36.06-.55,0-1,.06-2.09,0-3.12,0-1.24-.18-2.47-.25-3.71a14.65,14.65,0,0,0-.35-4.05,3.51,3.51,0,0,0-1.44-1.89,2,2,0,0,0-2.25.35c-.41.5-.8,1-1.17,1.55-.82,1.19-1.6,2.4-2.43,3.59-.54.76-1.14,1.47-1.69,2.22a11.44,11.44,0,0,1-.63,1c-.71.81-1.49,1.57-2.2,2.39-.45.53-.77,1.18-1.26,1.66a1,1,0,0,0-.39,1.07,4.74,4.74,0,0,1,0,.94c-.68-.54-1.11-.42-1.39.15a5.4,5.4,0,0,1-.68,1c-.12.16-.42.21-.5.37a11.87,11.87,0,0,1-1.9,2.5c-.32.39-.47.91-.79,1.3-.84,1.07-1.77,2.06-2.57,3.15-.3.43-1,.75-.72,1.31a3,3,0,0,0-.76.55c-.37.53-.6,1.17-1,1.66A5.83,5.83,0,0,0,29.74,60a1.15,1.15,0,0,1-.35.53c-1.65,1.22-2.35,3.11-3.33,4.78-.59,1-1,2.1-1.56,3.13-.25.48-.81.68-.87,1.44s-.8,1.3-1.24,2a19.86,19.86,0,0,0-1.55,2.35,26.78,26.78,0,0,0-1.32,3.5c-.4,1.27-.73,2.57-1,3.87a9,9,0,0,0-.2,3.51c.25,1.38.47,2.76.78,4.12a1.28,1.28,0,0,0,.69.72c.16.07.54-.18.72-.39a3.26,3.26,0,0,0,.67-3.29A4,4,0,0,1,21,84.9c.05-1.08.15-2.15.27-3.23a8.37,8.37,0,0,1,.3-1.57,7.61,7.61,0,0,0,.64-2c0-.74.54-1.13.73-1.72A15.58,15.58,0,0,1,24.49,74a11.59,11.59,0,0,0,.73-1.86.31.31,0,0,0,0-.19c-.21-.53.09-.63.57-.57,0-.2-.07-.33-.09-.48.47,0,.63-.27.7-.67,0-.12,0-.26.06-.35.62-.94,1.26-1.86,1.87-2.81s1-1.77,1.59-2.64c.22-.35.54-.62.77-1,.72-1,1.41-2.1,2.13-3.13,1.06-1.55,2.13-3.09,3.23-4.62a10.25,10.25,0,0,1,1.61-1.91,1.15,1.15,0,0,0,.47-1.17,3.37,3.37,0,0,0,.51-.38c.5-.51,1-1,1.46-1.55.23-.25.89-.31.43-.9a1.56,1.56,0,0,0,.19-.14c.52-.57,1.05-1.12,1.54-1.72a15.46,15.46,0,0,1,1.31-1.76,6.62,6.62,0,0,0,2.16-2.83c0-.07.1-.13.16-.19.71-.73,1.46-1.44,2.12-2.21s1.46-1.84,2.19-2.76c.1-.14.17-.3.26-.45.4-.64.79-1.29,1.2-1.92.1-.15.29-.22.53-.4a4.21,4.21,0,0,1,.22.76A20.81,20.81,0,0,0,52.66,39a17.66,17.66,0,0,1,0,4.11c0,.82,0,1.63,0,2.45,0,1,0,2.1,0,3.16,0,.25-.12.51-.11.76,0,1,.15,2,.2,2.95a7.82,7.82,0,0,1,0,1.28c-.07.67-.23,1.34-.27,2-.05,1.06,0,2.13,0,3.2,0,.25-.06.51,0,.76a4.38,4.38,0,0,1-.85,3,3.9,3.9,0,0,0-.36.54c-.7,1.23-1.37,2.48-2.08,3.71-.38.67-.81,1.31-1.22,2l-.11.15c-.52.63-1.1,1.21-1.55,1.88-.69,1-1.26,2.15-2,3.18-1.31,1.94-2.68,3.84-4,5.76-.31.43-.65.83-1,1.24a10.77,10.77,0,0,0-1.67,2.14c-.72,1.63-2,2.92-2.63,4.62a10.09,10.09,0,0,0-1,3.66c.3.2.77.35.78.54,0,.5.38.53.65.51a1.1,1.1,0,0,0,.78-.38A3,3,0,0,0,36.63,91,8.84,8.84,0,0,1,38,87.57c.24-.33.56-.6.78-.95.57-.9,1.06-1.86,1.67-2.74s1.32-1.71,2-2.54c.54-.66.76-1.5,1.36-2.14a24.51,24.51,0,0,0,1.62-2.14c.5-.67,1.08-1.29,1.53-2,.8-1.24,1.53-2.52,2.29-3.78a1,1,0,0,1,.08-.18c.66-1,1.31-2,2-3,.11-.16.42-.2.63-.29a2.8,2.8,0,0,1,.17.79c0,.36-.26.7-.28,1.06-.12,1.73-.2,3.46-.29,5.19-.05.92-.13,1.84-.15,2.76,0,.72.05,1.45.09,2.17,0,.34.06.68,0,1,0,1.09-.11,2.18-.14,3.27,0,.65,0,1.3,0,1.94,0,1.16-.11,2.31-.12,3.47,0,.9.07,1.79.09,2.69,0,.66,0,1.32,0,2s-.09,1.32,0,2c.07.89-.25,1.8.12,2.69a5.32,5.32,0,0,1,.17,1.25,10.28,10.28,0,0,0-.19,1,11.15,11.15,0,0,1-.1,2.7,5.81,5.81,0,0,0,0,1.38c0,.82-.12,1.64-.18,2.46-.09,1.14.21,2.26.07,3.43-.21,1.69-.15,3.42-.25,5.12,0,.6-.21,1.19-.24,1.78s0,1.24,0,1.87c0,.48-.08,1-.12,1.44-.06.91-.09,1.83-.18,2.74s-.27,2-.41,3a5.93,5.93,0,0,0-.1.72,23.87,23.87,0,0,1,.05,2.8c-.2,1.81-.6,3.59-.79,5.39s-.2,3.5-.3,5.25c0,.11,0,.28,0,.31-.43.24-.15.56,0,.75a7.81,7.81,0,0,0,.75.94l1.31-.34a1,1,0,0,1,.2-.37,2.07,2.07,0,0,0,.52-2.21,1.51,1.51,0,0,1,0-.56c.16-.93.38-1.85.48-2.79.16-1.43.23-2.87.34-4.3,0-.61.1-1.21.17-1.81.11-1,.25-2,.33-3,.06-.76,0-1.52,0-2.28,0-.93.07-1.86.15-2.79.12-1.25.32-2.5.44-3.75a12.61,12.61,0,0,0,0-1.39,7.12,7.12,0,0,0,.12-.88c0-.78,0-1.57-.06-2.35,0-.1.08-.19.12-.29.44-1.26.06-2.46-.11-3.76a2,2,0,0,0,.2-2,1,1,0,0,1-.17-.52c.08-.73.23-1.46.29-2.2s0-1.22,0-1.83c0-.94,0-1.87,0-2.81,0-.36,0-.72,0-1.08,0-.77.06-1.54.11-2.3a11,11,0,0,0,.13-2.2A23.4,23.4,0,0,1,54.07,90c.07-1,0-2,0-3.07,0-.48,0-1,.05-1.45,0-.67,0-1.34,0-2,0-.17-.16-.34-.15-.5,0-.68.17-1.35.18-2,0-1.07-.1-2.15-.07-3.21,0-1.49.2-3,.28-4.45,0-.3-.17-.65-.06-.88.54-1.15.2-2.37.37-3.54.13-.82.05-1.67.11-2.51.07-1.14.13-2.28.28-3.41a5,5,0,0,1,.52-1.65c.66-1.19,1.43-2.33,2.12-3.5.54-.92,1-1.87,1.54-2.8a11.22,11.22,0,0,0,.59-1A2.46,2.46,0,0,1,63,52.7,3.58,3.58,0,0,1,64.39,54a27.75,27.75,0,0,1,1.3,2.82s0,.09,0,.13l.18,3.38c0,.57,0,1.14,0,1.71.06.83.16,1.66.25,2.49,0,.5.12,1,.18,1.51.13,1.14-.14,2.33.37,3.42.14.3.32.58.51.92-.59.2-.37.82-.35,1.37a7.47,7.47,0,0,1,.07,1.15c-.22,1.56.46,2.91.93,4.31.18.53.41,1,.56,1.58s.26,1.32.41,2a.62.62,0,0,0,.26.35,2.38,2.38,0,0,1,1,1.48,11.69,11.69,0,0,0,.75,2.28,18.49,18.49,0,0,0,2.88,3.86,6,6,0,0,0,1.23.8,2.91,2.91,0,0,0,.95.44c1,.1,2.09.1,3.13.19a3.28,3.28,0,0,0,3.08-.92c.46.36.79.13,1.1-.23.45-.52.91-1,1.38-1.54a.5.5,0,0,1,.82-.08,7.18,7.18,0,0,0,1.27.72,5.41,5.41,0,0,1,1.4.71c.7.72,1.69.41,2.45.84.07,0,.23-.08.34-.14a1.26,1.26,0,0,1,.21-.09c.34.49.92.3,1.37.42,1.78.47,2.36.25,3.06-.93a1,1,0,0,0,1.27-.75,1.33,1.33,0,0,1,.23-.46,12.86,12.86,0,0,0,2.09-4.52c.26-.75.48-1.52.73-2.28a3.3,3.3,0,0,1,.2-.63c.24-.5.5-1,.76-1.47l.19.08a3.57,3.57,0,0,0,.16,1.06,6.47,6.47,0,0,1,.41,2.78c.07,1,0,2,.12,2.94a7.17,7.17,0,0,0,.65,2.11c.38.82.2,1.73.7,2.57a9.6,9.6,0,0,0,1.55,2.32,1.34,1.34,0,0,0,1.65.25,1.42,1.42,0,0,0,1.73.89,1.75,1.75,0,0,1,.63.09,1.38,1.38,0,0,0,1.49-.32,10.69,10.69,0,0,1,1.52-1.49c1.18-.85,1.6-2.17,2.19-3.37a36.11,36.11,0,0,0,1.33-3.56c.12-.35.18-.73.3-1.08.25-.68.58-1.33.77-2,.29-1,.48-2.08.74-3.13.09-.38.25-.74.38-1.12l.2,0c0,.3.07.59.08.89a11.14,11.14,0,0,0,0,1.42c.29,1.47.7,2.92.92,4.4a5.21,5.21,0,0,0,.94,2.34c-.08.17-.23.33-.2.44.25.83.54,1.65.82,2.47a3.62,3.62,0,0,0,.28.71c.43.78.9,1.54,1.32,2.33.16.3.14.71.34,1,.44.6,1,1.14,1.46,1.7a2.06,2.06,0,0,0,2.89-.11c.55-.87,1-1.81,1.52-2.7s1-1.7,1.55-2.51c.29-.44.75-.78,1-1.22.66-1,1.26-2,1.91-3a.51.51,0,0,1,.37-.25.46.46,0,0,1,.32.3c.07.31,0,.66.11,1,.29,1,.68,1.89.92,2.87a9.74,9.74,0,0,0,1.78,3.44c.4.54.64,1.28,1.16,1.65s1.1,1.43,2.17,1.08c.07,0,.16,0,.24,0a9.18,9.18,0,0,0,1.94.53c1.11.08,2.25.4,3.34-.17a4,4,0,0,1,.94-.19,1.39,1.39,0,0,0,.6-.22c.37-.37.63-.79,1.25-.89s.82-.59,1.36-.81a7.79,7.79,0,0,0,2.17-1.62c1.3-1.19,2.56-2.44,3.83-3.67.56-.53,1.11-1.07,1.65-1.61.76-.75,1.51-1.49,2.25-2.25s1.43-1.62,2.22-2.34a5.81,5.81,0,0,0,1.41-2.4.52.52,0,0,0,0-.37A1.84,1.84,0,0,0,160.13,79.61ZM84.94,81.93a4.06,4.06,0,0,1-.72.83c-.46-.76-1.33-1.11-1.6-2.1-.12-.45-.61-.92-.8-1.47a6.44,6.44,0,0,1-.21-3.2,3,3,0,0,0-.06-.51c0-1.15,0-2.29.07-3.44,0-1.37.06-2.74.17-4.11a28.89,28.89,0,0,1,.48-3,11.4,11.4,0,0,1,.52-2.33c.23-.56.65-1,.43-1.69,1.33-1.3,1.31-3.2,2.12-4.72,0,0,.11-.07.19-.12.62.52,1.33,1,1.43,1.88,0,.24.28.43.39.67.33.76.65,1.53,1,2.39l.39,0a3.76,3.76,0,0,0-.27,1.37,15.77,15.77,0,0,1,.06,4.23,8.67,8.67,0,0,0-.08,2.26,4.81,4.81,0,0,1,.1,2.06,8.18,8.18,0,0,0-.24,1,15.92,15.92,0,0,1-1,4.62A45.89,45.89,0,0,1,84.94,81.93Z"/><path class="cls-2" d="M291.65,105.24a.59.59,0,0,1,0-.19c-.11-.63-.46-.93-1-.69a13.53,13.53,0,0,0-1.8,1,9.77,9.77,0,0,1-1.85,1.15,13.71,13.71,0,0,1-6.64.53,26.27,26.27,0,0,1-2.78-.55c-1.43-.4-2.88-.82-3.49-2.43a.28.28,0,0,0-.12-.14c-.52-.22-.45-.69-.48-1.11a2.15,2.15,0,0,0,0-.51,2.89,2.89,0,0,1,1.2-2.79c.15-.09.36-.15.43-.28a9.13,9.13,0,0,1,2.08-2.73,8.41,8.41,0,0,0,1-1.15,11.69,11.69,0,0,0,.78-1c.43-.66.81-1.35,1.24-2,.24-.37.52-.73.79-1.08l2.22-2.82a4,4,0,0,0,.34-.47c.27-.47,1-.48,1.09-1.15,0-.26.32-.48.49-.72a9,9,0,0,0,1.14-1.57,28.39,28.39,0,0,0,1.19-3.23c.19-.59.18-1.24.35-1.83a6.81,6.81,0,0,0,.16-2.88c-.12-1.07-.88-1.22-1.48-1.64a1.5,1.5,0,0,0-1.15-.24,3.08,3.08,0,0,1-1.81-.16,2.82,2.82,0,0,0-.7-.1,17.35,17.35,0,0,1-2,.1,4.05,4.05,0,0,0-2.94,1.09,43.37,43.37,0,0,0-3.17,3.19,5.56,5.56,0,0,0-.67,1c-.26.46-.5.93-.74,1.41a8.79,8.79,0,0,0-.65,1.39c-.25.81-.43,1.64-.61,2.47s-.39,1.76-.51,2.65a30.38,30.38,0,0,1-.24,3.4,21.36,21.36,0,0,0-.46,3.75c-.08,1.13,0,2.27-.12,3.39,0,.71.22,1.53-.49,2.06-1.25.92-2.49,1.87-3.81,2.67a6.82,6.82,0,0,1-2.71,1,14.35,14.35,0,0,1-5-.41,1.28,1.28,0,0,1-.91-1.17c-.07-.61,0-1.23,0-1.85s0-1.36,0-2c0-.51.4-1,.06-1.53,0-.06,0-.16,0-.25l.12-.73c.05-.32.08-.66.16-1s.26-.37.28-.57a6.42,6.42,0,0,1,.92-2.49c.54-1,1-2,1.48-2.94.42-.81.88-1.61,1.36-2.39.16-.26.45-.43.61-.69.36-.56.65-1.16,1-1.72A11.37,11.37,0,0,0,265.13,82c.23-.75,1-1.4.66-2.31,0-.07,0-.17.06-.25.36-1.48-.1-2.41-1.57-2.69a10.86,10.86,0,0,0-2,.06c-.3,0-.6-.06-.89,0-1.39,0-2.77.14-4.15.16s-2.7-.08-4,0c-.43,0-.64-.15-.68-.5-.05-.65-.05-1.32-.06-2,0-1.33.22-2.69-.54-3.9a2.28,2.28,0,0,0-.67-.64,4.51,4.51,0,0,0-.67-.29c-1.17-.53-2.89-.16-2.92,1.54,0,.83-.17,1.66-.13,2.49,0,.54,0,1.17.53,1.55a3.37,3.37,0,0,0-.69,2.14s0,.08,0,.13a6.69,6.69,0,0,1,.16.75c.06.64.3,1,1,1,.92.06,1.06.34.81,1.23s-.49,1.8-.73,2.7-.5,2.08-.85,3.08a8,8,0,0,1-1.1,2.2c-.44.59-.91,1.28-.6,2-.45.5-.84.91-1.21,1.34-.74.87-.92,2-1.72,2.92s-1.28,2.33-2.33,3.22a3.4,3.4,0,0,0-.23.3,12.16,12.16,0,0,1-.9,1c-.73.69-1.46,1.39-2.24,2a3.48,3.48,0,0,1-1.7,1,3.35,3.35,0,0,1-3.34-1.91,1,1,0,0,0-.43-.47,2.88,2.88,0,0,1-1.35-2.55c.07-1,.07-2,.08-3,0-.66-.07-1.32-.05-2,0-1.16.12-2.32.18-3.47,0,0,0,0,0-.07a22.27,22.27,0,0,1-.26-3,21.4,21.4,0,0,1,.53-2.6,2.56,2.56,0,0,0,0-1.23c-.14-.43-.66-.79.11-1.1.05,0,.07-.16.07-.24q.15-2.2.27-4.41c0-.61,0-1.24.08-1.85s.21-1.3.29-2,.08-1,.13-1.55c.08-.88.19-1.77.28-2.65,0-.4,0-.79.06-1.22l-.64,0-.08-.22.78-.34-.43-.52c.93-.47.69-1.3.63-2.11l-.31-.07a3.63,3.63,0,0,0,.58-.9c.17-.58.22-1.19.35-1.77q.32-1.44.69-2.88c.38-1.49.78-3,1.19-4.46a.74.74,0,0,1,1-.56c.64.17,1.27.38,1.9.59.95.33,1.92.61,2.83,1a1,1,0,0,0,1.13-.13.72.72,0,0,0,.27-1c-.07-.13,0-.36.05-.54-.18-.07-.43-.08-.48-.19-.52-1-1.66-1-2.51-1.46a12,12,0,0,0-2.82-.75.89.89,0,0,1-.65-1.11,10.05,10.05,0,0,1,.58-2.42,25.58,25.58,0,0,0,1.17-7c.16-1.88.12-3.78.14-5.67,0-.91-1.18-1.87-1.85-1.49a2.09,2.09,0,0,0-1.2,1.74c0,.81,0,1.62-.07,2.43-.07,1-.2,2-.31,3.07-.09.86-.16,1.71-.3,2.56s-.31,1.51-.47,2.27c-.28,1.34-.56,2.69-.86,4-.11.52-.45.68-1,.59-.74-.12-1.49-.25-2.24-.3a1.75,1.75,0,0,0-.85.3s.11.38.16.53l-.71.49c.3.4.52,1,.92,1.15a8,8,0,0,0,2,.39c.63.11.89.46.7,1.06-.34,1.1-.72,2.19-1.07,3.29-.12.37-.18.75-.31,1.11-.39,1.06-.84,2.1-1.2,3.17a32.93,32.93,0,0,1-1.06,3.32,6.81,6.81,0,0,0-1.07,3.2c0,.06,0,.13-.06.19-.28.62-.58,1.23-.82,1.87-.39,1-.74,2.07-1.11,3.1a7.16,7.16,0,0,1-.5,1.21c-.5.84-1.11,1.63-1.58,2.49-.58,1-1.09,2.15-1.57,3.25a6.5,6.5,0,0,0-.3,1.39c-.15.83-.8,1.38-1.12,2.08a19.94,19.94,0,0,1-1.5,2.62c-.3.44-.5,1-.91,1.3-1,.7-1.69,1.79-2.85,2.39a9.39,9.39,0,0,1-2.53,1.17,5.59,5.59,0,0,0-.78.28,6.19,6.19,0,0,1-1.23.37c-.83.08-1.67.09-2.5.09a10.65,10.65,0,0,1-2-.14c-.58-.12-1.12-.57-1.69-.58a2.52,2.52,0,0,1-1.92-1.18,4,4,0,0,1-.89-3.28,1,1,0,0,0-.1-.56c-.27-.64.14-1.16.29-1.72,0-.11.27-.22.42-.24,1.25-.18,2.51-.28,3.74-.5a9.74,9.74,0,0,0,3.79-1.45c1.17-.78,2.21-1.74,3.41-2.46a13.63,13.63,0,0,0,3.33-3.49,5.23,5.23,0,0,0,.92-2.21c.19-.86.05-1.8.23-2.66.35-1.71-.47-3-1.34-4.23a2.21,2.21,0,0,1-1.18-.39,1.06,1.06,0,0,0-1.25-.26c-.54-.68-1.06-.72-1.62-.2-.34-.15-.67-.43-.86-.35-.93.34-1.85-.09-2.78,0s-1.88.07-2.82.11a2.46,2.46,0,0,0-1.07.17,8.93,8.93,0,0,0-2.38,1.78,6.65,6.65,0,0,0-1.8,3.29c-.15,1.42-.57,2.81-.83,4.22-.3,1.6,0,3.27-.56,4.87-.25.74-.5,1.15-1.24,1.22a4.34,4.34,0,0,0-3.23,1.26c-.71.81-1.56,1.51-2.31,2.3a15.25,15.25,0,0,0-1.31,1.58,18.85,18.85,0,0,0-1.34,2,19.46,19.46,0,0,0-.83,1.86c-.15.35-.36.67-.5,1a8.89,8.89,0,0,0-.5,1.45c-.2.94-1,1.76-.5,2.85.16.36.18.76.66.83s1.06.21,1.34-.3a11.84,11.84,0,0,0,1.19-2.65,17.22,17.22,0,0,1,1.38-3.71c.13-.23.11-.61.29-.74A3,3,0,0,0,193,87.14a.63.63,0,0,1,.25-.29,1.26,1.26,0,0,0,.73-1,.41.41,0,0,1,.27-.3c.61-.08.86-.61,1.25-1a8.94,8.94,0,0,1,.76-.62c.17-.13.38-.2.54-.33a1.2,1.2,0,0,1,1.51,0c.24.2.23.81.22,1.23a20.93,20.93,0,0,0-.17,2.22,3.88,3.88,0,0,0,1,2.77c.27.26.55.51.83.76a2.44,2.44,0,0,1,.56,1c.11.48.81,0,.8.56h1.09c.11.17.2.44.37.53a8,8,0,0,0,1.28.53,7,7,0,0,0,1.8.53c1.35.06,2.69,0,4,0a2.72,2.72,0,0,0,1.37-.48c1-.53,2.24-.44,3.21-1.13s1.8-1.08,2.62-1.71a18.71,18.71,0,0,0,2.37-2.17c.38-.41,1-.61,1.15-1.27.08-.32.62-.5.33-1,0-.06.07-.25.16-.33.45-.46.61-1.12,1.11-1.57a2.35,2.35,0,0,0,.54-1c.19-.54.23-1.14.47-1.66.5-1.09,1.09-2.13,1.62-3.21.34-.69.63-1.41,1-2.11.43-.92.89-1.83,1.34-2.74.33-.69.7-1.37,1-2.07s.52-1.35.78-2a20.63,20.63,0,0,1,.08,3c-.06.89-.27,1.77-.34,2.67-.17,1.94-.28,3.89-.42,5.83-.07,1-.17,1.93-.22,2.89,0,.61,0,1.21,0,1.82a4.3,4.3,0,0,1-.08,1.4,6.7,6.7,0,0,0-.24,3.17,14.08,14.08,0,0,1-.08,2.43,1.63,1.63,0,0,0,.21,1.42c.07.08,0,.29,0,.45s0,.37,0,.55,0,.53,0,.8-.16.27-.16.41a12.64,12.64,0,0,0,.19,2.39,6,6,0,0,0,1.63,3c.28.27.47.65.7.9a8.24,8.24,0,0,0,2.36,1.93,4.27,4.27,0,0,0,2.74.4,3.42,3.42,0,0,0,2.2-.81,6.61,6.61,0,0,1,1.21-.86,10.55,10.55,0,0,0,1-.69c.78-.72,1.54-1.46,2.29-2.22.41-.43.78-.9,1.18-1.37a4.16,4.16,0,0,0,.72-.61c.23-.32.33-.73.54-1.06.5-.79,1-1.56,1.53-2.35a9.26,9.26,0,0,0,.59-1.23c.19-.45.33-.92.5-1.38.19-.25.65-.37.82-.66A6.42,6.42,0,0,0,249.24,89c.08-.66.23-1.32.34-2l.42.54c.08-.16.18-.3.26-.46a9.59,9.59,0,0,1,.54-1.22c.56-.89.06-2.09.89-2.89.05,0,0-.21,0-.31,0-.5,0-1,0-1.5,0-.32.22-.63.24-1,0-.71.33-1,1-.93.34,0,.68.06,1,.11,1.11.18,2.2-.3,3.33,0a8.42,8.42,0,0,0,2.3,0c1.15-.06,2.29-.19,3.45-.28.12.57.26,1-.28,1.39-.13.08-.17.3-.25.44-.25.44-.5.88-.76,1.32-.09.14-.24.26-.31.4l-1.52,3s-.06.06-.09.09c-.44.64-.93,1.25-1.31,1.92-.8,1.43-1.6,2.87-2.29,4.36a10.25,10.25,0,0,0-.88,2.8,17.33,17.33,0,0,0-.42,4.93c.12.88-.06,1.79,0,2.68,0,.52.47,1.07.38,1.54-.12.65.24.89.59,1.21s.71.82,1.16,1a7.67,7.67,0,0,0,2.18.37c1.37.09,2.73.12,4.1.13a3.84,3.84,0,0,0,1.52-.19c1.27-.53,2.49-1.15,3.72-1.75.21-.1.38-.28.58-.4l1.32-.79a8.43,8.43,0,0,0,.78,1.48c.64.78,1.34,1.49,2.05,2.2a7.88,7.88,0,0,0,.92.69c.23.07.35.32.54.41a12.64,12.64,0,0,0,1.45.54c.65.21,1.29.42,1.95.61a6.43,6.43,0,0,0,2.59.28c1.34-.15,2.71,0,4-.21a18.82,18.82,0,0,0,3.07-.89,5.3,5.3,0,0,0,1-.55c.73-.45,1.44-.94,2.18-1.37A1.11,1.11,0,0,0,291.65,105.24ZM201.47,78.38c.11-.93.35-1.85.52-2.78s.38-2.07.58-3.11a8.4,8.4,0,0,0,.42-2c0-.82.47-1.16,1-1.58.29-.25.46-.66.78-.82a3.42,3.42,0,0,1,1.35-.31c1.22,0,2.44,0,3.66,0,.63,0,1.26.12,1.9.12a4.25,4.25,0,0,1,2.42.92.76.76,0,0,0,.22.09c.07.94.16,1.77.18,2.6a3.6,3.6,0,0,1-.2,1.44,10.53,10.53,0,0,1-2.45,3.4c-.81.75-1.68,1.41-2.53,2.11a7.8,7.8,0,0,1-3.42,1.8c-1,.21-2.09.42-3.14.56a5.55,5.55,0,0,1-1.28-.12A19.25,19.25,0,0,1,201.47,78.38Zm72,16.2c.22-1.61.44-3.22.64-4.83a1.44,1.44,0,0,0-.08-.88.77.77,0,0,1,.08-1.09c.42-.48.32-.86-.2-1.26a8.52,8.52,0,0,0,.89-1.92,11.36,11.36,0,0,1,1.77-3.93A14.23,14.23,0,0,1,279.3,78a4.27,4.27,0,0,1,3.14-.92,7.55,7.55,0,0,1,1.53.31c.35.08.7.2,1.15.33a4.3,4.3,0,0,1-.44,2.46,1,1,0,0,0-.13.44c0,1.46-.91,2.56-1.41,3.82a8.51,8.51,0,0,1-1.6,2.08c-.66.76-1.45,1.43-2.05,2.23-1.28,1.72-2.47,3.51-3.73,5.26q-.86,1.19-1.8,2.31c-.16.19-.48.25-.71.36C273.35,95.86,273.44,95.22,273.52,94.58Z"/><path class="cls-2" d="M201.92,57.76a4.4,4.4,0,0,0,1.46-.07,24.09,24.09,0,0,0,2.87-1.34c.7-.38,1.32-.92,2-1.34a20,20,0,0,1,2-1.13c.45-.21,1-.28,1.43-.46.94-.37,1.88-.77,2.8-1.16.19.36.25.7.44.78.71.33.87,1.09,1.35,1.6a2.32,2.32,0,0,1,.46.73c.17.46.23,1,.42,1.42.32.78.51.85,1.26.59.23.66.58.62,1,.21a2.1,2.1,0,0,0,.36-2.16c-.13-.26-.2-.56-.32-.83a6.37,6.37,0,0,0-.64-1.31,11.73,11.73,0,0,0-1.23-1.21c-.28-.28-.68-.49-.47-1a.55.55,0,0,0-.13-.47,2.27,2.27,0,0,0-1.79-.73c-.61.12-1.34-.29-1.84.38,0,.06-.21,0-.31,0-.28.08-.57.16-.85.27-.45.18-.89.41-1.35.58a8.06,8.06,0,0,0-.88.2,3.45,3.45,0,0,1-1.42.6c-.11,0-.21.12-.32.18-.27.17-.54.35-.82.49s-.36.11-.53.2c-.5.25-1,.51-1.49.8s-.94.46-1.1.82a.78.78,0,0,1-.79.56c-.76.09-.91.29-.9,1.05v.59a.7.7,0,0,1-.35-.41c-.06-.16-.11-.33-.17-.54a1.89,1.89,0,0,0-.37,1.94C201.78,57.67,201.86,57.76,201.92,57.76Z"/><path class="cls-2" d="M184.93,67.45c.07-.28.12-.5.17-.74a1.27,1.27,0,0,0-.27-.11c-1.43-.17-2.85-.35-4.27-.49-.85-.09-1.7-.6-2.56-.06a.28.28,0,0,1-.25,0,7.78,7.78,0,0,0-3-.57c-.32,0-.64-.12-1-.17a2.37,2.37,0,0,0-.94-.09c-.21.06-.35.39-.52.59-.5-.66-1.16-1-1.44-.14l-.81-.7-.06.21a8.67,8.67,0,0,1-1.14,0c-.6-.07-1.19-.23-1.79-.3a8.08,8.08,0,0,0-1.1,0l.2.94-.49-.12c0,1.19,0,1.23,1.07,1.59a13.6,13.6,0,0,0,1.92.39,7.19,7.19,0,0,0,1.43.22c.78,0,1.56-.19,2.34-.28a1.07,1.07,0,0,1,.31,0l1.08.23c.14.31.47.41.94.25a1.55,1.55,0,0,1,.64,0c.81.1,1.62.27,2.43.3.3,0,.62-.28.93-.43.13.48.53.58.93.6a14.38,14.38,0,0,1,2.68.36,14.8,14.8,0,0,0,2.47.2c.1-.35.21-.72.28-1l1.08-.25-.06-.13Z"/></g></g></g></svg>