<svg xmlns="http://www.w3.org/2000/svg" viewBox="0 0 316.42 188.17"><defs><style>.cls-1{fill:#fff;opacity:0.2;}</style></defs><g id="Calque_2" data-name="Calque 2"><g id="Contours"><path class="cls-1" d="M312.42,128.32c-1.67-2.22-4.4-3.88-5.85-6.21-.77-1.22-.2-2.49.44-4.93a42.32,42.32,0,0,0-1.46-26.6c-1.88-5-4.56-10-9.57-12.5-4-2-8.63-1.68-13-.76-1.38-5.42.19-11.48-.32-17A17.94,17.94,0,0,0,273.94,46c-10.12-6.06-16.87,2.17-21.36,10.46-1.15,2.13-2.25,4.29-3.52,6.35a16.76,16.76,0,0,1-2,2.82,18.6,18.6,0,0,1-2.54,2.06c-.84-2-.85-4.75-1.61-6.77A18.9,18.9,0,0,0,239,54.25c-10.62-11-23.72,2.93-35.69,1.62,7.14-10.77,22.23-26.55,10.19-37.41-8.52-7.68-21.35-4.65-30.4.1A100.39,100.39,0,0,0,167.8,28.81a31.47,31.47,0,0,0-6.24,6.12A19.57,19.57,0,0,0,160.31,37c-4.62-8.81-14-14-25-11a24.31,24.31,0,0,0-16,13.77c-1.6,3.52-2.76,7.23-4.8,10.53a28.33,28.33,0,0,1-4.29,5.23C103.66,43.69,95.65,30.43,82,31.7c1-8.9-.21-18.47-6.54-25C66.21-2.76,49.92-.72,38.84,3.78,25.71,9.11,16.59,21.07,10.89,33.68c-1.26,2.79-2.4,5.64-3.48,8.51A4,4,0,0,0,5,44.42C-1,58.15-1,72.82,2.73,87.24c1.47,5.69,5,9.83,7.81,14.84,3.33,5.94,1.06,9.82-1.94,15.41A76.14,76.14,0,0,0,0,155.72c.36,11,3.69,23.09,13.57,29.27,10.3,6.43,22.76,2.12,31.91-4.31S63,164.53,66.35,153.54c2.42-7.94,3-16.39,5.13-24.42a32.43,32.43,0,0,1,3.06-7.67c.71.38,1.5.72,2.12,1.07a26.87,26.87,0,0,0,7.18,3.2,25.54,25.54,0,0,0,18.73-2.53c2.34-1.25,4.53-2.9,7.09-3.69,3.37-1,7-.28,10.44,0,4.07.35,8.15.74,12,2.2,3.53,1.35,6.63,3.58,10.07,5.12a16.78,16.78,0,0,0,14.31.28c5.67,7.37,12.71,14.33,22.59,14.53A18.07,18.07,0,0,0,190,138.09c2.81-2,5.17-4.54,8.23-6.06,5.78,6.61,13,11.83,22,13.06,8.5,1.18,16.75-1.37,24.31-5.09,6.42,9.79,19,21.5,29.15,12.92,3.51,3.88,5.31,9.31,10.35,11.85,6.45,3.25,15.08.13,20.8-3.38C315.65,154.72,320.42,139,312.42,128.32Z"/></g></g></svg>