<svg xmlns="http://www.w3.org/2000/svg" viewBox="0 0 339.47 97.51"><defs><style>.cls-1{fill:#fff;opacity:0.2;}</style></defs><g id="Calque_2" data-name="Calque 2"><g id="Contours"><path class="cls-1" d="M329.74,24c-6.14-4.81-13.49-6.86-20.36-5C305.16,7.51,290,1.29,281.54,8.7,272.33-.71,252.46.44,247.25,13c-2-.69-4-1.47-5.95-2.21A75.48,75.48,0,0,0,228,6.68c-7.44-1.28-14.36.85-15.63,7.71-8.38-1.1-16.33-4.73-25-4.33C181,10.35,175,12.51,168.81,14c-7.16-15.75-33.17-9.93-47-10.14C109.9,3.69,87.26,1.08,76.54,10.4a12.19,12.19,0,0,0-2.48-1.35c-3.16-1.26-8.11-.63-10.65-3C60.64,3.49,57.05,5,55.68,7.51,41.39,3.24,24.45-5.09,11.36,4.27,3.34,10-.13,21.87,0,31.32A35.22,35.22,0,0,0,10.54,55.64C17.63,62.73,27.26,67.18,37.06,69a40.11,40.11,0,0,0,13.73.48c5.39-.88,10.63-2.89,16.05-3.53,5.14-.6,7.77,1.33,9.79,5.91s3,9.79,5.56,14.28c3.81,6.81,12.4,12,20.37,11.36,15-1.3,12.49-20.1,15.63-31.36,8.14,1.72,16.42-1.08,24.77-.56,11.88.74,23.64,2.89,35.57,3.48,12.16.6,24.34.33,36.51.69,11.89.34,25-.14,36.56,2.9C260.86,75,269,80.44,278.23,83a60.53,60.53,0,0,0,26,1.52C322,81.71,335.57,68,338.9,50.26,340.81,40.11,338,30.43,329.74,24Z"/></g></g></svg>