<svg xmlns="http://www.w3.org/2000/svg" viewBox="0 0 305.91 162.52"><g id="Calque_2" data-name="Calque 2"><g id="P1_m6_3"><path d="M304.82,150.62c-1.22,0-2.39-.51-3.66-.09a14.83,14.83,0,0,1-3.08.38h-.33l-2.16.09c-.38-.61-.34-.56-.89,0-.33.31-.87.69-1.23.62-.75-.16-.82.37-1.07.76a1.7,1.7,0,0,0-2,.23,7.85,7.85,0,0,0-1.05,0,6.72,6.72,0,0,0-1.34.24c-.45.14-1.16-.13-1.19.8,0,.52-.59.58-1,.19-.24-.22-.52-.51-.8-.54-.95-.1-1.9-.11-2.86-.12a1.48,1.48,0,0,0-.6.18c-1,.45-2,.25-2.09-.56a5.28,5.28,0,0,1,.25-2.53c.22-.58.07-.73-.3-.93.09-.92.18-1.82.27-2.72a9.55,9.55,0,0,0,.1-1.19,8.77,8.77,0,0,1-.1-2.54c.23-.77,0-.91-.64-1,.37-.2.86-.22,1-.47s.15-.77.22-1.24a2.55,2.55,0,0,0-.21-.6c-.25-.44.31-.55.32-.81a8.48,8.48,0,0,0-.2-1.21,6,6,0,0,1-.09-1.39c.2-1.28.47-2.55.73-3.82,0-.22.28-.43.27-.63,0-.73-.12-1.46-.14-2.19,0-.22.28-.44.28-.66,0-.84-.08-1.69-.13-2.53,0-.59-.08-1.18-.1-1.61,1.16.17,2-.63,3-1,0-.18,0-.36,0-.55.91.18,1.16-.15,1-1.13.87-.24.69-1.09.64-1.52a6.87,6.87,0,0,0-2.39-4.17,1.88,1.88,0,0,1-.5-1,11.46,11.46,0,0,1,0-1.66,4.53,4.53,0,0,0,.51-1.11l.7-2,.23.08a10,10,0,0,1,.37-5,2.54,2.54,0,0,1-.11-.85,12.6,12.6,0,0,1,.45-1.44c.25-.72.56-1.43.74-2.16.13-.57.91-1.16,0-1.7l.55-.7-.33-.21c.21-.55.69-1.16.56-1.6-.21-.76.28-1.2.41-1.79,0-.1.15-.22.12-.29-.41-.92.18-1.51.7-2.12a1.08,1.08,0,0,0-.36-1.4,3.11,3.11,0,0,0,1.3-3l.58,0a6.22,6.22,0,0,1,.75-4.54.82.82,0,0,1-.07-.54,7,7,0,0,0,.35-.93c.06-.36-.1-.76,0-1.1.34-1.24.76-2.47,1.12-3.71a3.2,3.2,0,0,0,.06-.7,7,7,0,0,1,.83-2.21,16.17,16.17,0,0,0,.57-3.53,8.87,8.87,0,0,1,.48-2,7.53,7.53,0,0,0,.63-3.29c-.09-1.69-.15-3.38-.28-5.07a3.72,3.72,0,0,0-2.59-3.5c-.31-.13-.73,0-1-.15a1.87,1.87,0,0,0-2.37.28c-.12.1-.29.26-.4.24-1-.2-1,.8-1.46,1.29-.07.08-.05.26-.12.31a2.91,2.91,0,0,0-1.18,1.89c-.41,1.37-.75,2.76-1.26,4.09a3.57,3.57,0,0,0-.24,1.34,2,2,0,0,0-.3.8c-.31,1.34-.56,2.7-1,4-.54,1.74-.64,3.58-1.44,5.29a14.19,14.19,0,0,0-1.07,3.08c-.09.43-.61.94.3,1.29l-.94.14c-.73,2.92-1.45,5.79-2.16,8.65l.79.49c-.28.17-.44.35-.61.36-.54,0-.95.08-.61.78,0,.08-.08.24-.15.35a13.61,13.61,0,0,0-1.17,3c-.12.3.13.74,0,1-.26.73-.68,1.39-.94,2.12a14.45,14.45,0,0,0-.88,3.13c-.05.44.13.83-.65,1.09l.76.14a2.79,2.79,0,0,0-1.36,2.81c-.24.29-.61.54-.61.8a3.77,3.77,0,0,1-1.21,2.44s0,.11,0,.18l.31.12c-.27.88-.52,1.72-.8,2.56,0,.13-.22.31-.31.3a6.14,6.14,0,0,1-.92-.22c.12-.3.24-.6.36-.93-.68-.13-1.45-.29-2.22-.42-1.22-.21-2.43-.39-3.65-.59a10.25,10.25,0,0,0-4.2-.07c-.69.16-1.64-.29-2.05.71,0,0-.13,0-.18,0a10.12,10.12,0,0,0-2,.67,17.48,17.48,0,0,0-1.74,1.4c-.29.21-.51.8-1,.3a4.56,4.56,0,0,0-.73.61l-.57-.23a2.5,2.5,0,0,0-.35.66,3.38,3.38,0,0,1-2.3,2.75.47.47,0,0,0-.22.22c-.37.6-.71,1.21-1.11,1.79-.21.31-.52.54-.75.84s-.33.52-.55.87l.25.81-.67-.33c0,.34.08.62.13,1l-.39-.39c-.8.52-1.56,1-2.23,1.49-.42.34-1,.84-1,1.27,0,.79-.73,1.12-.8,1.84a3.53,3.53,0,0,1-.77,1.34c-.33.5-.68,1-1,1.46s-.75,1-1.21,1.57c0,0-.26-.2-.37-.14a6.18,6.18,0,0,1-2.12.83,13.42,13.42,0,0,0-2,.67c-.53.18-.89.92-1.61.45,0,0-.12.1-.19.13l-.77.28c-.21.08-.41.18-.62.24a7.48,7.48,0,0,1-.94.2c-.06,0-.14-.19-.21-.3l.18-.09c-.07-.43-.15-.72-.17-1a6.23,6.23,0,0,1-.08-2.42c.26-.71-.17-1.73.82-2.15,0,0,0-.16,0-.24,0-.66,0-1.33,0-2a6.88,6.88,0,0,1-.13-1.33,6,6,0,0,0-.2-3.75,12,12,0,0,1-.51-1.41l.25-.21a4.81,4.81,0,0,1-.45-3.58.89.89,0,0,0-.26-.68A2.83,2.83,0,0,0,227,113a2.61,2.61,0,0,0,.12-1,9.18,9.18,0,0,1-.71-1.75c-.07-1-.83-1.46-1.18-2.23a4,4,0,0,0-.72-.82l.32-.09-.84-.53.1-1.12a2.42,2.42,0,0,1-.89-2.13c0-.65.5-1.37-.12-2a2.59,2.59,0,0,1-.34-.87c.87-.23.22-.73.08-.93-.55-.79-1.2-1.52-1.89-2.38-.07.35-.11.52-.17.83-.52-.88-1.07-1.44-1.86-1.14-.21-.25-.37-.53-.44-.51-.4.11-.76.32-1.16.44a2.12,2.12,0,0,1-.61,0c0,.21,0,.5-.08.79h-.22c-.08-.23-.17-.46-.3-.81l-.6.53.26,0c.05.4.11.79.17,1.19l-.86-.36c-.42.61-.9,1.31-1.5,2.2.91,0,.69.72.54.76-.76.18-.54,1-.93,1.32-.16.15-.29.31-.45.46-.53.52-1.47.61-1.57,1.6a6.07,6.07,0,0,1-.46,1.34l-.5-.46c.05.23.11.46.14.57-.36.18-.68.48-.95.44-.6-.09-.53.75-.91.64-.79-.21-1,.46-1.44.78a2.51,2.51,0,0,1-.7.22c-.3.21-.64.65-1,.68a5.44,5.44,0,0,0-2,.73,19.21,19.21,0,0,0-2.51,1.48c-.75.49-1.47,1-2.21,1.59l-1.13-.14c.07.38.11.58.14.78l-.25.12c-.26-.42-.54-.83-.77-1.26-.05-.09,0-.28.11-.4s.33-.36.32-.52a14.92,14.92,0,0,0-.26-1.74,3.14,3.14,0,0,0-.27-.78c-.2-.41-.44-.81-.66-1.22s-.9-.39-1-.64c-.17-.83-.94-.91-1.38-1.38-.07-.08-.17-.14-.25-.22-.64-.69-1.28-1.38-1.93-2.06-.05,0-.15-.06-.23-.09,0,.19-.09.37-.15.62l-.72-.64.58-.46c-.2-.11-.39-.21-.57-.33s-.2-.22-.32-.27c-1.06-.41-2.11-.85-3.2-1.2a14.87,14.87,0,0,0-2-.41l-.49.67c-.12-.49-.2-.86-.3-1.27-.43.15-.84.28-1.24.44-.92.36-2-.22-2.86.62a1.15,1.15,0,0,1-.68.38c-1.22,0-1.76,1.31-2.92,1.49-.46.08-.84.72-1.25,1.1a5.68,5.68,0,0,1-.83.8c-.41.24-.89.35-1.19.77-.18.24-.41.45-.59.69-.76,1-2.36,1.1-2.74,2.52,0,.07-.13.1-.18.16l-2,2.33c-.3.36-.58.74-.86,1.1l.55.21c-.27.21-.55.31-.62.49a2.44,2.44,0,0,1-1.19,1.6c-.16.07-.23.39-.33.6-.44.91-.74,1.92-1.68,2.26-.1.75-.19,1.44-.28,2.14-.61-.34-.61.13-.67.51-.14.87-.3,1.73-.4,2.59-.15,1.25-1,2.5.06,3.76-.5.38-.95.74-1.43,1.06s-1,.63-1.52.91c-.78.43-1.58.8-2.36,1.22-.31.17-.59.56-.89.57-.79,0-1.26.91-2.1.73a2.51,2.51,0,0,0-.2.52l-.91-.15c-.18.24-.41.62-.46.6-.71-.33-1.33,0-2,.19a13.51,13.51,0,0,1-1.56.16l-2.94.23a4,4,0,0,1-.1.42c-.53,0-1,0-1.41,0s-1.23-.32-1.56-.09c-.74.53-1.29.15-1.91-.06a5,5,0,0,0-2.87-.54s-.07-.07-.2-.22l.6-.24a2,2,0,0,0-.66-.38c-1.52-.55-3-1.1-3-3.13,0-.07-.09-.13-.11-.2-.13-.38-.24-.77-.36-1.15,0-.15-.09-.3-.11-.36,0-.33-.09-.58-.14-.83a1.4,1.4,0,0,1-.1-.39c.08-.89.15-1.78.28-2.67,0-.36.31-.7.36-1.07a6.86,6.86,0,0,0,0-1.28c0-.27.42-.68.34-.88-.3-.7.23-1.13.38-1.68a7,7,0,0,0,.24-.78,6.78,6.78,0,0,1,.22-1.78c.56-1.33,1-2.69,1.42-4a12.77,12.77,0,0,1,2.68-4.68.64.64,0,0,0,.1-.13l1.09-2.41h-.62l.82-.48c-.4-.5-.18-.74.28-.91.13,0,.22-.21.32-.32.87-1,1.71-2,2.6-2.94a16.68,16.68,0,0,0,2.67-3.13,2.45,2.45,0,0,1,1.66-1.18,1.51,1.51,0,0,0,1.08-.52,7.18,7.18,0,0,1,1.18-.87,7.11,7.11,0,0,0,1.46-.92,4.18,4.18,0,0,0,1.11-2.13,4.73,4.73,0,0,0-.19-3.06,5.19,5.19,0,0,0-3.74-1.75,15.67,15.67,0,0,0-3.45.61A12.87,12.87,0,0,0,142.7,88a24.27,24.27,0,0,0-2.65,2.62c-.43.45-1.25.69-1,1.59,0,0-.21.15-.33.22a2.78,2.78,0,0,0-.49.24,6.57,6.57,0,0,0-.84.73c-.43.46-.82,1-1.35,1.59-.33,0-.71.27-.38,1l-.77-.1c0,.27.08.52,0,.66-.21.35-.53.63-.74,1s-.19.63-.36.89c-.38.57-.85,1.09-1.23,1.67s-.63,1.13-1,1.68a12.94,12.94,0,0,0-1,1.5c-.32.7-.48,1.47-.77,2.18s-.55,1.08-.82,1.62l-1.34,2.67a3.53,3.53,0,0,0-.5,1,17.89,17.89,0,0,0-.13,1.83c-.64.36-1.07.64-1.52.85a6.6,6.6,0,0,1-1.09.35c-.74.19-1.68.15-2.19.6-.85.74-1.79.51-2.68.71-.69.15-1.38.28-2.2.44-.29-.33-.71-.29-1.23.09a4.57,4.57,0,0,1-2.44,1.16,16,16,0,0,0-2.62.73c-.21,0-.47-.11-.71-.16s-.27-.08-.35,0c-.36.2-.7.44-1,.67a.51.51,0,0,1,0-.14c0-.73-.17-1.38.42-2.17a3.38,3.38,0,0,0,.47-2.68c0-.1.07-.24.13-.36a4.67,4.67,0,0,0,.69-1.3,7.78,7.78,0,0,1,1.42-3.61c.1-.13,0-.41,0-.62-.11-.84.12-1.13.83-1.23a4.19,4.19,0,0,1,.38-.81c.68.14.48-.48.69-.72.47-.53.2-1.68,1.34-1.57.15-1.63.91-2.44,2.27-2.31-1.08-.55-.21-.9,0-1.23s1-.8,1.22-1.3a2.15,2.15,0,0,1,.84-1c.76-.4,1.53-.79,2.31-1.12a9,9,0,0,1,1.29-.28,5.68,5.68,0,0,1,1-.24c1,0,2.9-.79,3.3-1.59s1.47-1.46.43-2.55l1-.17-.63-.36c.8-.93-.4-.5-.47-.81a.65.65,0,0,0-.07-.54c-.1-.14-.41-.17-.44-.3a1.69,1.69,0,0,0-1.53-1.19c-.76-.13-1.41-.74-2.27-.51-.14,0-.34-.18-.52-.26a2,2,0,0,0-.64-.2c-1.11,0-2.22.12-3.39.18.11.25.19.42.26.59-.34-.06-.66-.22-.88-.13-.44.19-.79.56-1.22.77s-.7.15-.45.66l-.63.15c-.15,0-.43,0-.44,0-.24,1-1.3,1-1.88,1.65-.22.22-.45.6-.91.42-.07,0-.24.14-.32.25-.68,1-1.34,1.94-2,2.89-.29.39-.82.64-.64,1.28,0,0-.2.2-.33.24a2.92,2.92,0,0,0-1.72,1.55c-.23.4-.41,1-.77,1.15-.93.46-.68,1.63-1.43,2.16.46,1.06-1.06,1.16-1,2-1.2.09-.39,1.49-1.23,1.88a1.25,1.25,0,0,0-.57.92A6,6,0,0,1,102,108a9.51,9.51,0,0,0-.61,2.07l-.55,1.88a5.55,5.55,0,0,0-1.26-.54c-.3-.06-.66.23-1,.18-1.87-.26-3.23.91-4.76,1.62a.83.83,0,0,0-.5,1.25c.05.1,0,.25-.06.44a3.57,3.57,0,0,1-.58-.27,2.75,2.75,0,0,1-.4-.42c-.14,1.15-.25,1.23-1.14,1.12L89,116.89l-.1-1.23c0-.21-.06-.41-.06-.61s0-.48.07-.53c.86-.5.45-1.48.84-2.16a3.7,3.7,0,0,0,.2-1l-.44-1.29.2-.16c-.08-.83-.14-1.52-.21-2.26a1.42,1.42,0,0,0,.46-2,8.62,8.62,0,0,0,.48-1.15,11.26,11.26,0,0,1,.37-2c.32-.72,0-1.58.59-2.21-.5-1.08.57-1.83.58-2.86,0-1.63,1.56-2.92,1.25-4.69,0-.06.06-.17.1-.17.62-.06.33-.41.26-.72a1.23,1.23,0,0,1,0-.66c.5-1.44,1-2.87,1.54-4.31.19-.56.4-1.15-.4-1.42.15-.1.43-.2.43-.3,0-.74,0-1.48,0-2.22a4.54,4.54,0,0,0-.09-.51c0-.31,0-.62-.06-.93s.1-.53,0-.63c-.38-.54-.73-1.22-1.27-1.48-1.18-.59-.48-1.43-.32-2a1.25,1.25,0,0,0-.21-1.23c-.11-.13-.35-.29-.32-.36.36-.94-.76-1-.94-1.7-.07-.25-.47-.42-.82-.71l-.4.19c-.12-.18-.19-.41-.29-.43-.94-.19-1.89-.36-2.84-.52-.65-.1-1.34-.45-1.94,0a5.13,5.13,0,0,1-2.39.7,5.77,5.77,0,0,0-1.18.26,13.62,13.62,0,0,0-3.22,2.15c-.59.45-1.22.86-1.77,1.37a8.37,8.37,0,0,0-.78,1.13c-.56.72-1.14,1.43-1.74,2.12-.43.51-.89,1-1.33,1.49a5.58,5.58,0,0,0-1,1.25,13.38,13.38,0,0,0-1.3,2.46,10.18,10.18,0,0,1-1.32,2.44c-.34.59-.48,1.32-1.08,1.73s-.52.8-.17,1.29c.05.07-.06.26-.09.39-.53-.22-.41.21-.39.44,0,.39.11.77.17,1.19-.47-.1-.66.07-.75.63a8.24,8.24,0,0,1-.87,3c-.43.67.17,1.32-.34,1.87-.14.16-.29,1.53-.45,1.7a3.28,3.28,0,0,0-.69,2.91,6.28,6.28,0,0,1-.63,3.44c0,.06-.18.06-.29.09.11.2.24.41.38.64l-.6.54c.19.35.53.81.46.9-.46.52-.13.89.07,1.36a3.71,3.71,0,0,1,.3,1.49,4.58,4.58,0,0,0,.71,2.16,5.12,5.12,0,0,1,1.25,1.25A4.28,4.28,0,0,0,70,117.62c.35,0,.85-.22,1-.06,1.08.89,2.2.33,3.31.23s1.82-1,2.91-.52c.07,0,.27-.14.38-.25.55-.57,1.07-1.16,1.64-1.71.13-.13.45-.24.55-.16s.2.37.22.58c.11.84.2,1.69.32,2.81a2.31,2.31,0,0,0,1.24,3.12,1.57,1.57,0,0,0,.11.55,12,12,0,0,0,1.13,1.52c.63.68,1.15,1.59,2.33,1.33.09,0,.21.17.34.22.56.22,1.12.43,1.69.63,0,0,.09,0,.15,0a8.76,8.76,0,0,1,1-.08,5.73,5.73,0,0,0,1.43,0,12.61,12.61,0,0,0,1.77-.79.22.22,0,0,1,.19.07c.35.44.61,0,1,0s.85-.12,1.1-.59a1.67,1.67,0,0,1,.57-.55c1-.69,2.12-1.29,3.07-2.07a14.75,14.75,0,0,0,1.72-2l-.15-.09.88-.11c.12.32.35.65.31.94a3.58,3.58,0,0,0,1.18,2.92,6.17,6.17,0,0,0,3.27,2.28,10.86,10.86,0,0,1,2.19.39c.57.26,1.33-.06,2.07.08a8.83,8.83,0,0,0,3.31-.18c.71-.14,1.59-.11,2.07-.89,0,0,.15,0,.22,0,1,.35,1.57-.84,2.68-.47.6.19,1.54-.59,2.3-1,.27-.13.44-.45.71-.56a17.77,17.77,0,0,0,4.57-2.28s.14,0,.21-.08c.14.25.38.48.37.7,0,.58-.2,1.14-.29,1.72a6.73,6.73,0,0,0-.17,1.32c.08,1.37.18,2.73.33,4.09a13.51,13.51,0,0,0,.46,2.69,7.26,7.26,0,0,0,1.07,1.63l.33-.14L127,133l1.44,2.14s0,.25,0,.47l1,.3-.12.17c.31.28.62.56.92.85a9.13,9.13,0,0,1,1.19,1.22,1.71,1.71,0,0,0,1.95.82c.07.19.15.37.24.61l.41-.35c.45.74.47.7,1.22.77.51,0,1.34.1,1.46.4.34.79.89.69,1.48.71.22,0,.44.08.65.07.38,0,.75-.06,1.13-.1.22-.1.48,0,.72,0,.9-.07,1.8-.2,2.7-.29.07,0,.21,0,.23.07.27.67.82.41,1.28.4s1-.23,1.4-.08a3.64,3.64,0,0,0,3.6-.76l.2.7c.32-.17.59-.43.86-.43a3.44,3.44,0,0,0,2.55-1.33c-.94-.83.05-1.24.29-1.81,1.07,0,1.32.76,1.42,1.53.28-.08.53-.15.76-.23l3.67-1.3a3.31,3.31,0,0,1,.68-.29,4,4,0,0,0,2.62-1.54,3.43,3.43,0,0,1,.49-.36,3.5,3.5,0,0,0,.77-.57,1.18,1.18,0,0,1,1.67-.29,24.7,24.7,0,0,1,3.2,2.29c.7.68,1.53.62,2.29.9.17.06.49-.17.59-.09a2.94,2.94,0,0,0,2.7.45c0,1,.66.45,1,.47a11.81,11.81,0,0,0,1.57-.09l.09.28c.07-.2.15-.4.16-.44.52.34.83.7,1.16.73,1.06.08,2.14,0,3.21.05a6.07,6.07,0,0,0,3.9-.72,12,12,0,0,0,1.49-1.36l.53.13c.62-1.3,1.27-2.64,1.95-4.07.72,0,1-.59,1-1.45h.56c.12-.31.2-.67.29-.67.95,0,.89-.77,1.13-1.41.3-.81.19-1.81,1-2.43.21-.15.26-.53.35-.81.32-.93.63-1.86,1-2.85,0-.31-.09-.73-.14-1.08l1.56-1c.27.37.55.59,1,.12a.89.89,0,0,1,.74-.24.78.78,0,0,0,1.07-.6,6.81,6.81,0,0,0,.78-.15c.64-.18,1.27-.41,1.92-.57s1.27,0,1.64-.35a7.45,7.45,0,0,1,2.38-1.66c.82-.28,1.61-.62,2.47-.95l.06-.32a3.57,3.57,0,0,0,.94,0c.93-.33,1.83-.7,2.74-1,.5-.19,1-.35.72-1.2l.71.37a7.22,7.22,0,0,0,1.44-1.09c.54-.69,1.87-.5,1.91-1.71a2.27,2.27,0,0,1,.93.17c.17.12.15.5.25.76a8.26,8.26,0,0,0,.39.79c.21.41,1,.65.35,1.3,0,0,.12.24.12.36,0,.79.82,1.4.4,2.33-.13.3.25.84.43,1.36-.05.07-.4.35-.36.54a1.63,1.63,0,0,0,.49.63,9,9,0,0,0,.49,4.58l-.54.11c0,.19.11.34.07.46-.28,1-.78,2-.13,3.16.13.23,0,.65-.07,1-.17.75-.38,1.49-.55,2.24-.08.32.29.53,0,1a3.15,3.15,0,0,0-.22,2.22,13.52,13.52,0,0,1,.59,2.27c0,.15.3.28.47.43a1.51,1.51,0,0,0,.28,2.17c1,.67,1.39,2,2.62,2.4.47.16.9.67,1.35.67a16.25,16.25,0,0,0,3.1-.4,4.65,4.65,0,0,0,.43-.18,8.41,8.41,0,0,0,2.5-1.16c.43-.34.72-.6,1.32-.34-.08-.26-.13-.44-.18-.61l.12-.14c.2.17.4.34.74.61.59-.31,1.35-.69,2-1l1.53.08c0,.38-.1.76-.17,1.22l.73-.09c-.76,1.28-.81,1.46-.4,2.11.12.21.41.31.69.52a4.31,4.31,0,0,0,1.35,2.87c.4.39.74.82,1.17,1.2a6.1,6.1,0,0,1,1.13,2c.24.5.41.88,1.09,1s1.13.74,1.72.78,1.38,1.09,2.1.09a.52.52,0,0,1,.29.1c.45.48,1,.46,1.5-.06a3.87,3.87,0,0,0,3.31-.37c.26.46.57.5,1,.17s.81-.51,1.31-.82a2.17,2.17,0,0,1,0-.27,2.68,2.68,0,0,0,.66-.31c.8-.62,1.57-1.28,2.36-1.91.27-.22.54-.56.84-.6.87-.11,1.1-.81,1.44-1.37l.23.08c.32-.52.54-1.27.86-1.31a1,1,0,0,0,1-.87,5.93,5.93,0,0,0,1.25-1c.43-.46.81-1,1.21-1.44l-.15-.16.78,0c.11-.3.19-.54.28-.79.55.24.59-.23.79-.53.42-.61.88-1.19,1.41-1.89-.28-.46-.54-1,.49-.83a.9.9,0,0,0,.68-.52c.32-1.1,1.06-2,1.42-3.13a4.69,4.69,0,0,1,2-3,.37.37,0,0,0,.13-.2,4.15,4.15,0,0,1,1.28-2.11.29.29,0,0,0,.08-.14c.16-.54.32-1.08.49-1.61a3.28,3.28,0,0,1,.29-.53c0,1,.06,1.86,0,2.71a12.54,12.54,0,0,0-.35,2.39c.07.71-.07,1.65.88,2.07-1.06.49-1.16.88-1.3,2-.2,1.45.37,2.85,0,4.32-.3,1.27-.3,2.63-.65,3.91a1.84,1.84,0,0,0-.06.4c0,1,0,2,.1,3a10.33,10.33,0,0,0,.32,1.18c0,.22.08.6,0,.67-.63.41-.82.69-.45,1.57s.12,2,.18,3.05a28.32,28.32,0,0,0,.32,3.06c.13.73.56,1.43.63,2.16a.81.81,0,0,0,.74.86,1.43,1.43,0,0,1,.43.21c.85.59,1.67,1.23,2.55,1.75.32.18.81.07,1.42.11,0,0,0,.17.19.24a11,11,0,0,0,5.35,1.08c.62-.07,1.65.25,2-.75,0,0,.27-.07.3,0,.6.79,1.21.27,1.84,0a6.89,6.89,0,0,1,1.79-.52c.87-.05,1.78.2,2.63.08a6.59,6.59,0,0,0,2.78-.88c.79-.53,1.68-.31,2.46-.77,1-.59,2.17-.93,3.23-1.45.53-.27,1-1,1.45-1,.75,0,.7-.72,1.18-1,.93-.5,2.25-1,2-2.56,0-.06.15-.15.23-.23.31-.29.74-.53.93-.89C306.18,151.38,306,150.6,304.82,150.62ZM86,85.43l-.51,1.12a2.85,2.85,0,0,1-.35.09l.23.12a9.21,9.21,0,0,1-.47,1.62A10.07,10.07,0,0,0,84,91.64c0,.32-.34.61-.48.84l-.65,1.85c-.12.33-.23.66-.37,1-.53,1.2-1.09,2.39-1.62,3.59-.34.8-.78,1.6-1.07,2.36a7.15,7.15,0,0,1-1.68,2.47c-.57.6-.92,1.34-1.53,1.89A16.88,16.88,0,0,0,75,107.56a.89.89,0,0,1-.26.21l-1.55,1c.31-1.19.1-2.57.94-3.77-.65-.32-.55-.84-.35-1.48.09-.28.7-.75,0-1.09a.8.8,0,0,1,.14-.61c.9-.66.4-1.84,1-2.61l-.11-.07c.37-.81.73-1.6,1.11-2.38,0-.13.2-.2.27-.32.23-.38.76-.74.14-1.22,0,0,0,0,0-.07a3.08,3.08,0,0,0,.84-1.58,2.11,2.11,0,0,0,.21-1c-.06-.35-.11-.78.38-1,.13-.07.1-.44.16-.71.12-.1.51-.25.54-.45.12-1.1,1-1.73,1.51-2.56.41-.62,1.06-1,1.5-1.6a7.2,7.2,0,0,0,.8-1.83c.7.61,1.19-.42,1.62-.75,1.21-.93,1.25-1,2.16.2C85.4,84.52,85.42,85.25,86,85.43ZM187.84,113c-.38.45-.19.85,0,1.31a1.64,1.64,0,0,1-.16,1.11,7.64,7.64,0,0,0-.55,2.92c.08,1.35-.8,2.29-1.1,3.45a2.22,2.22,0,0,0-.11.56,1.93,1.93,0,0,1-.66,1.55,6.58,6.58,0,0,0-1,2.25l-.46-.32a1.55,1.55,0,0,0,0,.29c.06.75,0,1.45-.85,1.74,0,0-.07.07-.09.12-.43.83-.84,1.67-1.29,2.55-1.06-.27-2.09-.61-3.14-.77a18.34,18.34,0,0,0-2.46,0c-.87,0-1.9.24-2.55-.15-.83-.48-2.26-.16-2.45-1.27-.15-.83-.78-1.47-.57-2.53s.69-2.07,1-3.12a1.29,1.29,0,0,1,.24-.3l-.5,0a1.27,1.27,0,0,0,.89-1.62c-.08-.56.41-.81.68-1.19.49-.69.79-1.51,1.27-2.21s1.09-1.29,1.62-1.95.78-1.06,1.2-1.57c.28-.34.66-.59.92-.94a2.49,2.49,0,0,0,.23-.73,10.66,10.66,0,0,0,1.26-.71c.92-.67,1.75-1.48,2.72-2.06a3.16,3.16,0,0,1,2.86-.11,9.59,9.59,0,0,0,1.94.44,1.74,1.74,0,0,1,1.15,2.24,1.51,1.51,0,0,0-.12.67C187.73,112.75,187.89,113,187.84,113Zm77.08,8.48a19.63,19.63,0,0,0-1.49,3,9,9,0,0,1-1.45,2.21,5.2,5.2,0,0,0-.42,1.06c-.1.27-.22.53-.34.83l.09.06c-.21.32-.38.61-.58.88-.6.88-1.22,1.76-1.83,2.63l-.22-.11c.21.28.41.57.78,1.08l-2.39.37c.22.73-.07,1.08-.86,1.31-.4.12-.65.78-.94,1.21s-.69,1.18-1.08,1.74c-.12.18-.41.25-.6.4-.57.47-1.12,1-1.7,1.42a6.2,6.2,0,0,1-.92.5c.28.71.28.71-.46.74a1.4,1.4,0,0,0-1.13,1.16,9.66,9.66,0,0,1-1.71.68,6.37,6.37,0,0,1-1.62-.14l-1.37-1.46.2-.47-.8-2.31c.4-.22.78-.42.33-1.11-.21-.31,0-1,.18-1.44.59-1.59,1.2-3.18,1.86-4.75.15-.35.54-.61.81-.91l.14.21.14,0c-.06-.21-.11-.42-.17-.63l.15.09,1.06-2c.41.29.72.2.89-.46a2.53,2.53,0,0,1,.61-1c.47-.53,1-1,1.47-1.52a5.57,5.57,0,0,0,.55-1.09l.08.08a12.31,12.31,0,0,1,1.11-1.27,5.72,5.72,0,0,1,1.44-1c.94-.42,1.26-1.36,1.85-2.06.12-.14.18-.39.31-.43a18.62,18.62,0,0,1,2.81-.7,21.77,21.77,0,0,1,2.68,0c.77,0,1.53-.08,2.29,0,.32,0,.62.36.95.47.74.24.05.54.09.78C265.87,120.4,265.25,120.88,264.92,121.51Zm1.94-.44h0l0,.05Z"/><path d="M51.34,111c-1.57-.81-3.16-1.6-4.74-2.39a2.65,2.65,0,0,1-.73-.38,2.49,2.49,0,0,0-2.22-.77c-.42-.46-1-.81-1.12-1.27-.27-1.19-1.3-1.72-2.05-2.32s-1.76-.66-2.11-1.69c-.22-.66-1-1-1-1.82a4,4,0,0,0-.07-1.14c-.07-.31-.3-.57-.4-.88s-.1-1-.39-1.34a1.56,1.56,0,0,1-.24-1.59,2.39,2.39,0,0,0,.06-.53c0-.33,0-.67,0-1,.07-.13-.18-.24-.19-.36a21.36,21.36,0,0,1,0-2.53c0-.86.25-1.71.29-2.57,0-.68-.19-1.38-.12-2.05.08-.85-.1-1.81.58-2.5.48-.49,1-.89,1.56-1.33a2.43,2.43,0,0,0,.46-3.18,7.59,7.59,0,0,0-.82-1c-.17-.19-.47-.26-.65-.45-.93-1-.54-2.18-.42-3.32.14-1.37.32-2.73.47-4.1.1-1,.2-2,.26-2.93a12.93,12.93,0,0,0-.09-1.44,19.8,19.8,0,0,0,1.55-7.44l.34,0c0-.48,0-.91-.06-1.35l-.28-.07a7.75,7.75,0,0,0,.5-1.29c.16-.91.21-1.83.36-2.74.2-1.17.46-2.33.69-3.45l-1.14-.29,0-.34,1.14-.38a12.25,12.25,0,0,0,.48-1.7c.19-1.18.31-2.38.43-3.58,0-.22-.18-.52-.09-.68A4.4,4.4,0,0,0,41.87,40c0-.2.22-.43.37-.63s.28-.11.29-.19c.16-1.14.32-2.28.43-3.43a12.92,12.92,0,0,0-.05-1.39,3.84,3.84,0,0,1,.08-.76c.19-1,0-2.13.67-3.08.17-.24,0-.7,0-1.06l.1.05.66-3.79.06-.91a4.41,4.41,0,0,0,.08-.72c0-.77-.12-1.54-.11-2.3s.09-1.78.12-2.67c0-.3-.16-.69,0-.87.77-1.06.32-2.32.61-3.46.07-.27-.17-.62-.29-1,.32.18.51.27.7.37a3.6,3.6,0,0,1,.07-.66c.15-.64-1-1.38.15-1.94a.14.14,0,0,0,0-.14c-.61-.72.11-1.48-.08-2.25-.12-.48.15-1.06.15-1.59,0-.73-.08-1.47-.1-2.2a12.73,12.73,0,0,0,0-2.14,2.19,2.19,0,0,0-.92-1.78c-.3-.17-.46-.59-.74-1-.1.08-.31.22-.65.45,0-.4.07-.67.1-1a17.1,17.1,0,0,0-2.28.2A20.85,20.85,0,0,0,39,1l.19.13c-.12.25-.23.49-.34.74-.77-.42-.77.44-1,.71a1.66,1.66,0,0,0-.44,1.28c.15.76-.49,1.57.15,2.29,0,.06-.12.28-.16.43a2.26,2.26,0,0,0-.09.57,11.93,11.93,0,0,1,.11,1.44c0,.47-.28.92-.31,1.38-.06.87,0,1.74,0,2.6a4,4,0,0,1-.49,1.68c-.29.47-.26.73.09,1.07a.64.64,0,0,1,.11.2l-.43.2c.41.95.39,1,0,1.17-.12.87-.23,1.64-.34,2.41a2.67,2.67,0,0,0-.14.67c.05.54.48,1.1-.15,1.59,0,0,.08.29.13.44s.12.25.1.36c0,.37-.13.73-.2,1.09s-.07,1-.32,1.16c-1,.82,0,1.84-.36,2.76-.25.65.09,1.52.16,2.3.09,1.09-.89,2.09-.31,3.23,0,0-.15.08-.19.14a4,4,0,0,0-.44,3.29c.08.45.53.88-.25,1.24-.25.11-.23.79-.34,1.23-.07.08-.29.2-.31.35a4,4,0,0,0,.07.94c-.71.28-.77.68-.05,1.33-.15.21-.39.4-.43.63-.18,1-.21,2.11-.46,3.13a24.27,24.27,0,0,1-1,2.72s.13.14.13.25c0,.57-.27,1.25,0,1.69a1.85,1.85,0,0,1-.13,2.29,2.39,2.39,0,0,0-.6,1.08c-.08,1,0,1.94,0,2.91,0,.75.29,1.65,0,2.2-.57,1,.07,1.8,0,2.6l-.77.17c.06.25.13.51.19.77-.61.23-1.09,1.79-.8,2.7-.72.47-.73.72-.26,1.24,0,.84,0,1.44-.09,2-.15,1.62-.38,3.23-.47,4.85-.06,1-1,2-.33,3.08,0,0-.12.2-.14.19-.56-.19-.68.47-1.09.53a5,5,0,0,1-1.9.19c-1.15-.28-2,.45-3,.65a2.17,2.17,0,0,0-1.24.66c-.33.36-1.1.27-1.58.55a15.08,15.08,0,0,0-1.68,1.33l.15.15-1.08-.14-2.74,2.52c-.29.1-.88-.13-1.09.57,0,.1-.27.17-.42.21s-.7.07-.82.26A7.4,7.4,0,0,0,11,84.81l-.34-.06a7.6,7.6,0,0,1-2.12,2.47.41.41,0,0,0-.12.35,2.87,2.87,0,0,0,.36.5l-.15.33c-.76-.71-1-.25-1.25.29-.07.17-.19.45-.29.44-.61,0-.6.49-.79.84a3.72,3.72,0,0,1-.63.93c-.35.37-1,.6-1.12,1a10.53,10.53,0,0,0-.37,2.15c-.53.78-1,1.36-1.32,2-.25.42-.61.95-.54,1.36.13.75-.33.91-.71,1.13L2,99.1l-.56.19.14.08-.72,1c-.16.34-.47,1,.41,1l-.55.25.33.66c-.22.15-.52.25-.56.41A20,20,0,0,0,0,105.26a10.93,10.93,0,0,0,.26,1.94,8,8,0,0,0,1,3.49,13,13,0,0,1,.91,1.37c.58,1.27,1.06,1.61,2.23,1.53.28.42.45.92.79,1.12a14.14,14.14,0,0,0,2.52,1.1c.55.18,1.21,1.25,1.63,0,.8.17,1.44.75,2.28.31a.76.76,0,0,1,.64,0c.82.55,1.42,0,2-.37a.85.85,0,0,0,1.27.1,3.48,3.48,0,0,1,.8-.46c.56-.29,1.47,0,1.58-.88.31-.1.58-.16.83-.27.84-.38,1.67-1.09,2.51-1.09,1.24,0,2-.86,2.79-1.38a18.3,18.3,0,0,0,3.11-3.11c.52-.55,1.28-1,1.45-1.69s.84-.73,1.19-1.14c.06-.07.82.23.82.36,0,.88.67,1,1.29,1.2,0,.23-.19.51-.11.63.44.59.82,1.43,1.42,1.67,1.38.53,2.18,1.71,3.22,2.58a13.92,13.92,0,0,0,4.1,2.08c.24.1.6-.07.81,0a12.1,12.1,0,0,0,3.29,1.08,5.59,5.59,0,0,0,3.35-.16c.38-.13.75-.29,1.12-.43.59-.23,1.21-.41,1.78-.7s1.13-.72,1.7-1.07a.72.72,0,0,0,.09-1.28A8.64,8.64,0,0,0,51.34,111ZM26.05,90.42l-1,1.46.92.83,0,.23c-1-.08-1,.47-1,1.15a1.59,1.59,0,0,1-.45,1,3.39,3.39,0,0,0-.74,1.69c-.16.54-.35,1.08-.52,1.61,0,.08-.1.18-.08.22.43.81-.24,1.15-.65,1.63-.16.19-.09.56-.13.89l-2.18,1.88c-.44-.16-.67.41-.74.86-.15.93-1,1.28-1.49,1.83-.91.94-2.29.88-3.44,1.31-.61.22-1.2.52-1.82.74a3,3,0,0,1-.89.13,3.79,3.79,0,0,1-1.17-.07,9.65,9.65,0,0,1-1.61-.72,3.22,3.22,0,0,1-.65-.58,4.16,4.16,0,0,0,.82-3,1.73,1.73,0,0,1,.28-1.14A17.64,17.64,0,0,1,11,100.76l-.68-.32c.95-.57,1.11-1.08.59-1.83l.82-.38A2.72,2.72,0,0,1,13,96c.18-.09.25-.35.39-.51,1.11-1.33,2.17-2.7,3.35-3.95a13.65,13.65,0,0,1,2-1.31c.35-.24.84-.51.92-.85a2.28,2.28,0,0,1,1.77-1.8c1-.33,1.89-1.08,2.88-1.51a13.46,13.46,0,0,1,2.31-.57c-.09.9-.42,1.68,0,2.57.18.37-.19,1.2-.56,1.58C25.44,90.21,25.93,90.31,26.05,90.42Z"/><path d="M68.74,49.91c.37.14.73.23.73.29,0,.62.49.49.71.46a7.32,7.32,0,0,0,2.08-.47A4.69,4.69,0,0,0,74.1,49a24.25,24.25,0,0,0,1.81-3c.49-.85.88-1.76,1.44-2.55A2.72,2.72,0,0,0,78,41.86c0-.81.14-1.61.2-2.42a8.77,8.77,0,0,0,0-.89l.11,0,.32-1.88c.09-.1.35-.27.4-.48a11.59,11.59,0,0,1,.31-1.81,4.92,4.92,0,0,0-.3-3.8,4.15,4.15,0,0,0-2.68-2.25c-1.45-.59-2.62.27-3.58,1.18A19.5,19.5,0,0,0,70.9,32c.14.32.28.62.44,1l-1-.22-.16.14c1.09,1.08.27,2.28.28,3.28-.22.35-.55.62-.56.9,0,1-.07,1.85-1.13,2.38l.77.36c-.67.2-.65.49-.15.86L69,40.66l-.16.2.64.19-.15.21-.68.07.2.57-.21,0c-.06.27-.13.54-.17.82-.14.77-.26,1.54-.38,2.32s-.55,1.75-.25,2.34A7.28,7.28,0,0,1,68.74,49.91Z"/></g></g></svg>