<svg xmlns="http://www.w3.org/2000/svg" viewBox="0 0 328.4 193.48"><defs><style>.cls-1{opacity:0.2;}.cls-2{fill:#fff;}</style></defs><g id="Calque_2" data-name="Calque 2"><g id="Contours"><g class="cls-1"><path class="cls-2" d="M44.93,142.28c.21.14.5.12.84-.32l-.29-.07C45.31,142,45.12,142.14,44.93,142.28Z"/><path class="cls-2" d="M328.27,153.73c-1.06-9.36-9.22-14.55-18.2-13.89-1,.07-2.86-.27-2.65.33-.92-1.37-.73-4.1-.68-5.55.18-5.32,1.67-10.57,2.94-15.72a180.23,180.23,0,0,0,5.14-34.27c.71-14.32-3.14-50.08-26.13-38.54-9.36,4.7-13.78,15.58-18,24.5a311.31,311.31,0,0,0-12,29l-.31.89a5.32,5.32,0,0,1-1.54-.16,56.87,56.87,0,0,1-6-1.73c-3.92-1.34-8-2.56-11.77-4.17-8.83-3.73-18.7-10-28.72-7.52a13.47,13.47,0,0,0-5.3,2.56c-1.43,1.14-2.52,3.77-4,4.55-1.34.68-5.17-.06-7-.29A16,16,0,0,1,187.17,91c-8.68-5.64-16-14.12-27.28-13.86-5.82.13-10.87,3.08-16.5,3.68-4.82.52-9.65-2.53-14.41-3.22-1.91-.28-3.81-.33-5.53-1.28-2.55-1.41-4.65-4-7-5.77-1.54-1.16-3.75-2.3-4.76-4-1.2-2-1-4.87-1-7.12-.17-12,1.55-22.52-6.63-32.59C97.68,19,88.28,15,79.58,18.14A20.88,20.88,0,0,0,74.72,7.89,22.57,22.57,0,0,0,55.92.06C43.41,1,36.69,12.15,33.5,23.12,30.18,34.51,29.14,47,29.09,58.83c0,3.93.11,8-.63,11.87-.33,1.7-1.21,3.36-1.39,5.08-.05.5-.1.85-.13,1.09-.75.29-1.78.51-2.23.66C17.65,80,13,83.92,8.71,90.05.59,101.57-2.95,118,2.91,131.2a30.74,30.74,0,0,0,16.55,16.09c8.49,3.3,16.86.58,24.21-4.12.27-.17.78-.54,1.26-.89-.42-.28-.49-1.18.23-.54a1.2,1.2,0,0,0,.32.15c.35-.26.6-.43.57-.37a3.09,3.09,0,0,1-.28.44c.44.1,1,.16,1.22.22,4.53,1,8.88,2.88,13.47,3.56,4.23.62,8.14-.11,12.29-.79s6.92.33,10.15,3.11c5.51,4.72,9.79,10.86,16.3,14.37a20.55,20.55,0,0,0,10.89,2.8c3.2-.19,8.23-3.18,11.06-1.94,1.45.64,3,3.11,4.08,4.25a31.84,31.84,0,0,0,4.34,4,35.62,35.62,0,0,0,13,5.9c9.2,2.08,17.38.54,25.61-3.66,2.3-1.18,5.73-3.79,7.87-2.87.87.37,1.85,1.74,2.61,2.34a13.34,13.34,0,0,0,5.06,2.57c7.7,1.92,14.52-2.49,20.82-6.67,5.41,6.48,13.71,10.08,21.56,13a180.54,180.54,0,0,0,38.67,9.92c18.63,2.61,40.35,2.88,53.65-12.8C324.12,172.59,329.3,162.83,328.27,153.73Z"/></g></g></g></svg>