<svg xmlns="http://www.w3.org/2000/svg" viewBox="0 0 306.38 94.38"><g id="Calque_2" data-name="Calque 2"><g id="P2_m5_3"><path d="M305.57,84c-1.34.63-2.66,1.32-4,1.89-2.74,1.14-5.5,2.22-8.24,3.33-1.16.47-2.29,1-3.48,1.42a29.15,29.15,0,0,1-3.24.7,13.11,13.11,0,0,1-4.27.4c-1.37-.19-2.79-.32-3.69-1.65a6.55,6.55,0,0,1-1-4.13c.14-2.22.39-4.45.74-6.65.52-3.24,1-6.5,1.78-9.7.77-3.39,1.8-6.72,2.72-10.07.14-.49.33-1,.52-1.45a1.16,1.16,0,0,1,1.09-.72c1.71-.17,3.42-.31,5.11-.59A101.05,101.05,0,0,0,301,54.6a11.87,11.87,0,0,0,2.15-1,.9.9,0,0,0,.44-1.19.86.86,0,0,0-1-.52c-.32.05-.65.05-1,.12-2.3.49-4.59,1.07-6.9,1.47-3.12.53-6.26.92-9.39,1.35a5.64,5.64,0,0,1-1,0c1.12-3,2.18-6,3.27-8.85.88-2.34,1.84-4.66,2.72-7s2-4.87,2.76-7.4a54,54,0,0,0,1.47-5.79,6.21,6.21,0,0,0-.14-2.46,1.35,1.35,0,0,0-1-.77c-.56-.08-.86.45-1,1a2.85,2.85,0,0,0,0,.42,32.76,32.76,0,0,1-2,7.92c-.08.17-.1.36-.17.54-.74,2-1.47,4.09-2.25,6.11-.54,1.43-1.16,2.83-1.72,4.26-.63,1.59-1.25,3.2-1.85,4.81s-1.1,3-1.63,4.56c-.36,1-.71,2.07-1,3.06a20.74,20.74,0,0,0-2.14.14,1.21,1.21,0,0,0-1.05,1.27,1.15,1.15,0,0,0,1.12,1.19l1.14.14c-.32,1.2-.6,2.25-.89,3.31-.91,3.35-1.94,6.68-2.69,10.07-.64,2.84-1,5.75-1.39,8.64a2.62,2.62,0,0,1-1.69,2.48,4.51,4.51,0,0,0-1.22.66,12.94,12.94,0,0,1-9.42,2.14,2,2,0,0,1-1.57-1,9.29,9.29,0,0,1-1.46-4.72,8,8,0,0,0-.35-1.54,11.3,11.3,0,0,0,.29-1.69c.05-1.71,0-3.43.06-5.14.08-2.36.31-4.72.31-7.08,0-1.56.47-3.34-1.29-4.29.12-.78.25-1.41.3-2.05a2.67,2.67,0,0,0-.7-2c-1.06-1.31-2.83-1.53-4.7-.48a44,44,0,0,0-5.16,3.53,28.6,28.6,0,0,0-6.21,6c.33.44,1.14.83.35,1.56L242.25,66a12.2,12.2,0,0,0-2.36,5,15.28,15.28,0,0,0-.68,7.37,1.11,1.11,0,0,1-.77,1.41,10.67,10.67,0,0,1-7.5.47,6.39,6.39,0,0,1-3.6-2.24,11.58,11.58,0,0,1-2.07-6.76c-.1-2.06.35-4,.45-6.08.06-1.06.24-2.12.4-3.18a35.15,35.15,0,0,0,.88-6,1.46,1.46,0,0,1,.12-.39c.44-1.19.88-2.38,1.39-3.74,1.2-.55,2.65-1.15,4-1.86a71.64,71.64,0,0,0,11.08-6.49,37.17,37.17,0,0,0,6.27-6.2,27.43,27.43,0,0,0,3.69-6.16,18.87,18.87,0,0,0,1.78-8.79,5.53,5.53,0,0,0-1.79-4.36,3.14,3.14,0,0,0-2.82-.71c-2.15.41-3.83,1.68-5.53,2.87a35.85,35.85,0,0,0-6.33,6,41.88,41.88,0,0,0-2.93,4,45.36,45.36,0,0,0-3.1,4.74c-1.45,2.83-3.31,5.46-4.15,8.61a46.79,46.79,0,0,1-2,5.43,2.2,2.2,0,0,1-.88,1.15,25.66,25.66,0,0,1-3.74,1.51,33.21,33.21,0,0,1-7.19,1.58,12.31,12.31,0,0,1-4.15-.11,5.51,5.51,0,0,0-1.22,0c-.52,0-.55-.33-.4-.9.47.12.9.22,1.32.34a3.3,3.3,0,0,0,.92.3c.38,0,.92-.07,1.1-.32a1.55,1.55,0,0,0,0-1.16,1.36,1.36,0,0,0-.65-.69,7.82,7.82,0,0,0-1.9-.84c-1.89-.45-3.79-.89-5.71-1.16a13.08,13.08,0,0,0-3.85,0,11.5,11.5,0,0,0-7.08,4.35A16.46,16.46,0,0,0,190,59a10.11,10.11,0,0,1-.77,1.55c-1.1-.41-1.78.21-2.44.91s-1.31,1.45-2,2.15c-.48.5-1,.95-1.51,1.45a4.29,4.29,0,0,1-1.49,1.29,42.33,42.33,0,0,1-4.75,2.12,10.07,10.07,0,0,1-6.53-.06,8.68,8.68,0,0,1-4.83-4.56,2.84,2.84,0,0,1-.3-1.35,18.38,18.38,0,0,1,.73-5.66c.12-.3.17-.63.26-.94.45-1.59.87-3.2,1.39-4.76.4-1.18.94-2.31,1.43-3.46s1-2.29,1.54-3.4a3.41,3.41,0,0,1,2.6-1.88c1.23-.2,2.49-.25,3.74-.37a7.39,7.39,0,0,1,3.7.41,2,2,0,0,0,1.87-.15c.42-.24,1-.56,1.08-.93.13-.62-.4-1.11-1-1.4a3.8,3.8,0,0,0-1-.34c-.82-.13-1.64-.22-2.46-.32a4.21,4.21,0,0,0-1.11-.1,19.22,19.22,0,0,0-3.81.59,25.7,25.7,0,0,1-4,.7A10,10,0,0,0,166,38.63a12,12,0,0,0-7.35.8,18.57,18.57,0,0,0-5.79,3.46,27.18,27.18,0,0,0-6,7.75c-.43.86-.77,1.76-1.15,2.64a.56.56,0,0,1-.2-.54c.31-2.24.64-4.47.93-6.71a33.65,33.65,0,0,0,.18-5.68,28,28,0,0,0-.79-6.06c-.15-.58-.11-1.37-1-1.47,0,0,0-.28-.09-.41a2.37,2.37,0,0,0-.37-.82,2.52,2.52,0,0,0-2.58-.7,20.84,20.84,0,0,0-4.56,2,19.17,19.17,0,0,0-5.17,5,53.83,53.83,0,0,0-6.67,11.86c-.11.26-.26.51-.39.77a1.36,1.36,0,0,1-.32-1c0-.84.19-1.67.22-2.5.08-3.16.11-6.31.21-9.47.06-1.85.21-3.69.3-5.54.14-2.74.21-5.48.4-8.21.15-2,.46-4.05.66-6.08s.22-3.81.46-5.7a48.86,48.86,0,0,0,.13-10A10.54,10.54,0,0,0,126.75,1a1.28,1.28,0,0,0-1.49-1c-.4,0-.85.48-1.13.85a2.94,2.94,0,0,0-.39,1.19c-.67,3.17-1.32,6.34-2,9.52-.38,1.88-.72,3.78-1.12,5.66-.45,2.13-1,4.25-1.42,6.38-.56,2.63-1.06,5.28-1.64,7.91s-1.15,5.06-1.75,7.59A50.94,50.94,0,0,1,113,48.38c-.5,1.1-1.13,2.13-1.61,3.23a18.36,18.36,0,0,1-5.27,6.56,18.69,18.69,0,0,1-7.6,3.91,8,8,0,0,1-6-.46,7.31,7.31,0,0,1-3.91-5.25c-.71-3.31-.1-6.56.37-9.82a36.9,36.9,0,0,1,2.52-8.66,19.6,19.6,0,0,1,4-6.3c1.53-1.56,3.17-2.67,5.53-2.22,1,.19,1.9-.38,2-1s-.75-1.28-1.77-1.49a6.84,6.84,0,0,0-4.42.65,13.49,13.49,0,0,0-5.35,5.11,32.67,32.67,0,0,0-4.35,10.65,41.19,41.19,0,0,0-1.22,9.52c0,2.51.06,5.06,1.53,7.26a9.33,9.33,0,0,0,3.81,3.66,11.9,11.9,0,0,0,8.7.45,30.21,30.21,0,0,0,4.69-2.09,21.72,21.72,0,0,0,7.46-7c.63-.89,1.09-1.9,1.66-2.85a20.09,20.09,0,0,0,2.29-4.9c.56-2,1.06-4,1.6-6.05.5-1.87,1-3.74,1.54-5.59a2,2,0,0,0-.32-2,1.68,1.68,0,0,0,1.05-1.65,8.9,8.9,0,0,1,.24-1.23c.67-2.94,1.39-5.87,2-8.82s1.14-5.89,1.75-8.83a2,2,0,0,1,.74-1.57c0,.43,0,.65-.08.87-.27,2.16-.64,4.31-.79,6.48-.24,3.51-.71,7-.87,10.51a30.76,30.76,0,0,1-.22,5.06,29.24,29.24,0,0,0-.16,5.14c-.1,4.44-.2,8.88-.33,13.33-.1,3.57-.24,7.14-.34,10.72a11.15,11.15,0,0,0,.16,2.08,1.16,1.16,0,0,0,1.26,1.05,1.33,1.33,0,0,0,1.18-1.18c0-.41,0-.83,0-1.25a35.8,35.8,0,0,1,.2-3.89,40.43,40.43,0,0,1,3.24-10.87,46.73,46.73,0,0,1,2.51-4.94,64,64,0,0,1,4.88-7,15.26,15.26,0,0,1,6.32-4.37,1.13,1.13,0,0,1,1.54.54,3.41,3.41,0,0,1,.43,1.15c.22,1.51.43,3,.58,4.55a12.91,12.91,0,0,1,.07,2.91c-.4,2.74-.38,5.52-.94,8.25s-.79,5.7-1.13,8.55a31,31,0,0,0-.31,3.32,29.45,29.45,0,0,1-.42,6.69,1.64,1.64,0,0,0,.45,1.21c.35.41.79.09,1.08-.21a2.79,2.79,0,0,0,.72-1c.23-.64.34-1.33.53-2.1.24.19.46.34.66.51,1.54,1.36,3.39,1.29,5.16.84a24.1,24.1,0,0,0,4.35-1.81,19.22,19.22,0,0,0,7.3-5.68,14.74,14.74,0,0,1,1.13-1.13,10.41,10.41,0,0,0,0,1.42,14,14,0,0,0,.81,3.77,11,11,0,0,0,6.27,5.43,11.83,11.83,0,0,0,6.74.37,22.68,22.68,0,0,0,3.59-1,12.25,12.25,0,0,0,2.39-1.4,13.8,13.8,0,0,0,3.72-3,26.67,26.67,0,0,1,2.32-2.5c-.12,1.76-.36,3.56-.35,5.36a4.49,4.49,0,0,0,4.54,4.65,12.49,12.49,0,0,0,6.2-1.8c1.29-.73,2.52-1.55,3.74-2.37a9.86,9.86,0,0,0,3.19-3,12.65,12.65,0,0,1,1.51-2.16,8.88,8.88,0,0,0,1.27-2.56,9.49,9.49,0,0,0,1.14-4.41,9.92,9.92,0,0,0-.29-1.44,15,15,0,0,0,2.5.47,36.17,36.17,0,0,0,11.47-2,1,1,0,0,0,.58-.6c0-.34.08-.59.41-.54a.87.87,0,0,1,.57.49,1.87,1.87,0,0,1,0,.94c-.68,3.7-1.48,7.38-2.05,11.1-.53,3.52-.77,7.09.32,10.58a9.86,9.86,0,0,0,3.83,5.47c1.6,1.1,3.42,1.32,5.1,1.83l1-1.12c.68.49.77,1.43,1.64,1.19,1.37-.37,2.75-.72,4.09-1.19,1-.34,1.18-.4,1.85.51a4.81,4.81,0,0,0,6.22,1.44,15.17,15.17,0,0,0,4.71-3.34,25.49,25.49,0,0,0,3.55-4.77c.7-1.35,1.56-2.61,2.39-4,0,2.13,0,4.12,0,6.11a14.27,14.27,0,0,0,1.77,7.36,4.47,4.47,0,0,0,3.07,2.19c2.32.6,4.59-.15,6.89,0,.08,0,.17-.06.25-.1l4.4-2.08a10.6,10.6,0,0,0,1-.65c0,.9-.06,1.55,0,2.19a9.22,9.22,0,0,0,1,4.1A5.86,5.86,0,0,0,280.64,94a13.86,13.86,0,0,0,4.39.32,31.09,31.09,0,0,0,4.56-1.16c2.49-.86,5-1.84,7.41-2.83a33.36,33.36,0,0,0,8.59-5.3,6.16,6.16,0,0,0,.79-1.2A8.14,8.14,0,0,0,305.57,84ZM231,44.65a21.41,21.41,0,0,0,1.39-3.33,61.23,61.23,0,0,1,4.94-8.7A59.5,59.5,0,0,1,242.53,26,16.87,16.87,0,0,1,245,23.73a32.73,32.73,0,0,1,4.92-3.58c1.67-.84,2.59-.42,2.8,1.41a16.61,16.61,0,0,1-2,9.73,28.52,28.52,0,0,1-2.93,4.83,24.82,24.82,0,0,1-5.67,5.44c-2.33,1.52-4.61,3.1-7,4.5-1.66,1-3.48,1.7-5.23,2.54l-.24-.25A17.05,17.05,0,0,1,231,44.65Zm-64.53-3.48,2.43,1.06L166.86,46l-.32-.08C166.41,44.38,166.54,42.87,166.51,41.17ZM164,45.82c0,3.15-.94,6.12-1.54,9.15A7.7,7.7,0,0,1,160,59.54a.32.32,0,0,0-.1.1c-.74,1.66-2.39,2.34-3.67,3.41a17.85,17.85,0,0,1-4.38,2.37,11.7,11.7,0,0,1-3.43,1c-1.09.13-1.82-.58-2.56-.71.06-1.2.09-2.28.17-3.37a9.77,9.77,0,0,1,.22-1.6,23.69,23.69,0,0,0,.53-2.69,16.65,16.65,0,0,1,1.17-3.69,25.58,25.58,0,0,1,3.48-6.47,17.39,17.39,0,0,1,5.46-5.07,14.63,14.63,0,0,1,6.59-2,7.26,7.26,0,0,1,.85.12C164.18,42.7,163.94,44.26,164,45.82ZM205.69,62a18.83,18.83,0,0,1-3.95,4.8,6.83,6.83,0,0,1-1.59,1.1c-2.22,1.22-4.35,2.67-7,2.79A2,2,0,0,1,191,69.1a7.87,7.87,0,0,1,.08-3.45c.39-1.89.78-3.79,1.3-5.66.27-1,.84-1.84,1.21-2.78.2-.5.13-1.12.41-1.54s.92-.57,1.25-1A12.55,12.55,0,0,1,198.49,52a7.58,7.58,0,0,1,3.71-1.11c1.09.18,2.19.33,3.28.57.31.06.76.34.82.6a34.73,34.73,0,0,1,.95,4.62C207.47,58.61,206.5,60.31,205.69,62Zm50.59,6.59c-.85,1.78-1.23,3.81-2.72,5.26-.23,1.2-1.16,2-1.78,2.94a14.58,14.58,0,0,1-5.21,4.72c-1.65.92-3,.51-4-1.21,5.33-3.39,10.12-7.22,13.8-12.39A2.49,2.49,0,0,1,256.28,68.61Zm.68-9.83A21.28,21.28,0,0,1,255.23,64a19.61,19.61,0,0,1-2.16,3.85,13.38,13.38,0,0,1-1.34,1.57c-1.58,1.63-3.13,3.29-4.78,4.83A23.65,23.65,0,0,1,244,76.37c-.71.48-1.46.92-2.33,1.46a5.41,5.41,0,0,1-.21-1.16,18.63,18.63,0,0,1,2.76-9.34,21.4,21.4,0,0,1,2.93-3.51,32.24,32.24,0,0,1,5-4.35c1.45-.92,2.86-2.16,5.08-2.44C257.13,57.75,257,58.27,257,58.78Z"/><path d="M58.68,49.12c-.15-2.68,0-5.37,0-8.06,0-3,.08-6,.11-9.05a5.19,5.19,0,0,0-.07-1.12,1.43,1.43,0,0,0-1.3-1.09c-.61-.1-1,.31-1.18.8a3.89,3.89,0,0,0-.33,1c-.28,1.86-.49,3.74-.79,5.6-.23,1.36-.6,2.7-.82,4.06a22.57,22.57,0,0,1-1.83,6.06c-.4.83-.88,1.62-1.23,2.47A22.69,22.69,0,0,1,48,55.46a9.65,9.65,0,0,1-2.64,2.88c-1,.59-1.38.7-2.11-.24a12.12,12.12,0,0,1-1.39-2.39,13.78,13.78,0,0,1-1.2-5c-.07-1.26,0-2.54,0-3.8.06-1.8.15-3.59.26-5.38.07-1.2.21-2.39.31-3.59l.33-3.88c.19-2.17.39-4.33.56-6.51a2,2,0,0,0-.22-.93,1.22,1.22,0,0,0-1.32-.81,1.18,1.18,0,0,0-1,1,10.78,10.78,0,0,0-.23,1.51c-.31,3.6-.58,7.21-.94,10.81-.15,1.47-.49,2.92-.76,4.37-.71,3.85-2.15,7.31-5.32,9.81a3.6,3.6,0,0,1-2.95,1A6.34,6.34,0,0,1,26,52.44c-1.65-1.79-2-4.06-2.26-6.3a43.55,43.55,0,0,1-.17-7.22c.18-2.65-.09-5.28,0-7.92,0-2,0-4,0-6a15.37,15.37,0,0,0,.08-1.66,1.66,1.66,0,0,0-1.42-1.5c-.57-.05-1,.4-1.2,1.31a8.17,8.17,0,0,0-.09,1.11c0,.42,0,.84-.06,1.25-.21,2.12-.48,4.24-.65,6.37a31.31,31.31,0,0,1-1.66,7.69A22.3,22.3,0,0,1,15,46.73c-1.69,2.08-3.2,4.32-5.85,5.38a3,3,0,0,1-3.33-.51A9.81,9.81,0,0,1,3.08,47a13.62,13.62,0,0,1-.46-5.49A22.59,22.59,0,0,1,6.27,30.85,23.82,23.82,0,0,1,8.34,28.1c.72-.83,1.18-1.93,2.3-2.38a.24.24,0,0,0,.09-.11c1-1.34,2.52-2,3.82-3A9,9,0,0,1,18.49,21c.78-.12,1.58-.1,2.35-.24,1-.16,2-.06,2.84-1-.33-.29-.58-.54-.87-.75A4.22,4.22,0,0,0,20,18.42a11.29,11.29,0,0,0-5,1.09c-1.84,1-3.53,2.22-5.28,3.36a2.52,2.52,0,0,0-.51.47Q7,26,4.68,28.72c-1.74,2.07-2.53,4.61-3.51,7.06-.32.81-.39,1.72-.69,2.54s0,1.71-.34,2.57A7.88,7.88,0,0,0,0,43.23,13,13,0,0,0,3,52.4a5.9,5.9,0,0,0,6.3,2.23,10.89,10.89,0,0,0,3.38-1.88,20.06,20.06,0,0,0,4-4.24,18.48,18.48,0,0,0,3.59-6.4A5.39,5.39,0,0,1,21,41c.42,2.79,0,5.33.58,7.86.69,2.94,2,5.37,4.69,6.85,1.36.75,2.79,1.46,4.46.94a10.72,10.72,0,0,0,4.91-3c.85-1,1.62-2,2.46-3,.09.67.19,1.35.28,2a14.44,14.44,0,0,0,2.35,6.47,6.41,6.41,0,0,0,2.06,1.83,2.8,2.8,0,0,0,2.82.12,10.68,10.68,0,0,0,2.77-2.18,35.86,35.86,0,0,0,6.13-9.7c.46-1.08.9-2.18,1.34-3.27l.28.06a14.46,14.46,0,0,1,.2,2.69A11.62,11.62,0,0,0,57.07,54c.38,1,.71,2,1.15,3a15.49,15.49,0,0,0,3.26,5,1.7,1.7,0,0,0,2.93-.48c-1-1.29-2-2.39-2.82-3.6A17.35,17.35,0,0,1,58.68,49.12Z"/></g></g></svg>