<svg xmlns="http://www.w3.org/2000/svg" viewBox="0 0 306.39 142.23"><g id="Calque_2" data-name="Calque 2"><g id="P2_m1_2"><path d="M306.09,66.47c0-1.42-.22-2.84-.18-4.26,0-1.09.45-2.18.48-3.27a12,12,0,0,0-.45-2.47l-.24-1.27a5,5,0,0,1-.13-.67c0-.87,0-1.74,0-2.61,0-.49.44-1.1.28-1.48a5.33,5.33,0,0,1-.19-3.39c.08-.34-.2-.79-.36-1.17-.41-1-.95-1.88-.23-3-.36-.35-.72-.72-1.05-1.05.68-1.23-.74-1.62-.93-2.54.47-.35.82-.77-.07-1.26-.2-.1-.26-.48-.35-.75-.2-.56-.39-1.13-.58-1.7s-.69-1.35-.48-1.63c.47-.66.05-.9-.27-1.2a2.18,2.18,0,0,1-.82-1.12c-.74-2.42-4.74-4.92-7.32-4.7a6.9,6.9,0,0,1-2.86,0,31.14,31.14,0,0,0-5.19-1,8.45,8.45,0,0,0-2.21.27c-.67-.09-1.59-.24-2.51-.33s-1.86-.11-2.78-.11c-.07,0-.14.48-.25.91-.42-.11-.91-.27-1.42-.37a1.8,1.8,0,0,0-.58.11l.14.34a17.27,17.27,0,0,0-2.21.4c-1.4.45-2.78,1-4.15,1.5-.58.22-1.14.5-1.71.76l-.2-.3c0,.29-.07.58-.09.7a6.17,6.17,0,0,0-1.74.37,9.47,9.47,0,0,0-1.33,1.22A5.9,5.9,0,0,1,263,32c-.89.43-1.79.84-2.86,1.33l1.35.9-2.47.85.19.09-3.65,3.53.45.11c-.52.63-1,1.16-1.43,1.75-.29.42-.41.95-.69,1.37s-1.15,1.08-1.06,1.45c.16.7-.29.59-.54.85-.7.71-1.34,1.48-2.12,2.37l.67.35L248,50.57c-.87-1.5.53-3.37-.84-4.78.18-.27.57-.73.52-.78-1-1.08-.17-2.16,0-3.27-1-.56-1.38-1.22-.28-1.91a7.26,7.26,0,0,1-.78-1.55c-.26-1.18.18-2.55-1-3.44-.09-.07-.06-.31-.08-.47-.13-1.07-.2-2.15-.42-3.2-.11-.55-.72-1.07-.67-1.56.09-.87-.46-1.24-.89-1.76s-1.08-1.11-1-1.47c.29-1-.29-.86-.8-1-.36-.11-.69-.32-1-.47a4.17,4.17,0,0,0-1.3-.47c-1.59-.05-3.18-.05-4.77,0a4.15,4.15,0,0,1-2.89-.79,3.35,3.35,0,0,0-1.82-.37c-1.84,0-3.69,0-5.53,0-.19.88-1.36,1.3-2.72,1-.42,1.2-1.52,1.49-2.53,1.93a5.07,5.07,0,0,0-1.08.77c-.22.18-.37.47-.61.61-.5.31-1.09.5-1.56.85a9.46,9.46,0,0,0-2.85,3c-.37.66-1.42,1.26-2.09,2s-1.73,1.6-2.72,2.49a4.77,4.77,0,0,1-1.69-.74c-.89-.86-1.5-2-2.41-2.86a27.09,27.09,0,0,0-3.67-2.7c-1.95-1.24-4-2.31-5.92-3.57a9.46,9.46,0,0,0-6.47-1.81c-.33,0-.67-.25-1-.31a20.1,20.1,0,0,0-2.31-.34c-.26,0-.58.34-.82.28-1-.21-2-.56-3-.78s-2.37-.41-3.55-.61c-.26-.05-.65-.26-.77-.16-1.13,1-2.22.36-3.14,0l-4.38,2.16a13.1,13.1,0,0,1-3.72,4l.39.18c-.13,1.74-2.33,2.36-1.94,4.42-.45.6-1.89.72-1.39,1.67a14.12,14.12,0,0,1-1.19,2.1,24.33,24.33,0,0,1-2,2l.51.69c-.52.17-1.09.18-1.33.46-.74.88-1.35,1.86-2,2.8l-1.46,2.1.7.28-1.67.73,1.35.42-1.74,1.18.23.29-1.67,3.17c-1,.28-1.41,1.2-.64,2l-.61,1-.39-.07c-.59,1.22-1.15,2.35-1.69,3.5s-1.49,1.93-.48,3.35c-1.55.48-2.19,1.48-1.73,3,0,.09-.27.27-.42.41-.25-.59-.53-1.16-.74-1.76a4.08,4.08,0,0,1-.06-1c-.05-.82-.16-1.65-.14-2.48,0-1.18.17-2.35.19-3.53,0-.49-.41-1.14-.22-1.45.68-1.07,0-2-.23-2.87l.66-.29a7.93,7.93,0,0,1-.35-1.53c0-1,.06-1.94.12-2.92,0-.4.09-.81.14-1.22a9,9,0,0,0-.32-1.46,21.09,21.09,0,0,1-.17-2.25c0-.65.19-1.47-.12-1.91a1.38,1.38,0,0,1,.09-2c0-2.25-1.37-4.09-1.12-6.58-.06-.34-.17-1-.28-1.74-.05-.38,0-.93-.19-1.1-1.35-1.05-.87-2.65-1.28-4-.21-.66,0-1.46-.21-2.12-.16-.5-.7-.87-1.07-1.31l.19-.16-.51-.09c-.26-.89-.26-1.93-.68-2.14-1.08-.54-.38.82-.72,1l-1.76-1.59a3.85,3.85,0,0,0,.87.16,8.26,8.26,0,0,0,1.62-.44c.08,0,.09-.57,0-.78a18.22,18.22,0,0,0-1.62-2.45c-.76-.9-1.05-2.4-2.87-2.17l1-.82c-.85-.22-1.61-.91-2,.22-.1.32-.39,1.72,1.07,1.2.17-.06.68.57.9,1a5.66,5.66,0,0,0,2.27,2.7s0,.13,0,.17l-.91.31-.26.41a27.07,27.07,0,0,1-2.59-1.28c-.66-.39-1.65-1-1.64-1.56,0-1.44-1-1.15-1.51-1-.87.32-1.22-.16-1.48-.68a7.23,7.23,0,0,1-.43-1.69l-2.4-.13,1-1.12c-.52,0-.75,0-1,0a6.88,6.88,0,0,0-.77.13c.4,1.32.07,1.88-1.06,2.25-1,.31-2.34.47-2.71,1.15a2.31,2.31,0,0,1-2.47,1.26,1.28,1.28,0,0,0-.47.1c-1.85.86-3.7,1.72-5.54,2.6-1,.48-2.17.65-2.72,2a2.38,2.38,0,0,1-2,1.69l-.55-.59c.76-1,1.56-1.92,2.26-2.92a3.63,3.63,0,0,0,.42-1.08c2-.17,4-2.82,3.42-3.84l-3.4,3.77.12-.37c-.51.08-.48.33-.76.79a24.08,24.08,0,0,1-1.92,2.59A18,18,0,0,1,108,20.56l-.42-.56c-.09.25-.23.45-.18.53a1.15,1.15,0,0,1-.73,1.78c-1.21.08-1.27,1-1.41,1.66-.21.94-.56,1.52-1.78,1.43l.58.67c-.65.7-1.27,1.36-1.88,2-.63.35.16,1.8-1.63,1.63-.07.49-.15,1.09-.24,1.68l-.13-.17L97.79,34l1.13.55c-1-.19-1.54.41-2,1.12-.11.15-.43.15-.66.23a5.08,5.08,0,0,1,0-.68,5.85,5.85,0,0,0,.24-1.13,3.31,3.31,0,0,0-.38-1l-.21.11V28.42l.08,0c-.09-.57-.18-1.14-.29-1.87-1.12-.47-.7-1.23.17-2l-.76-.34a7.76,7.76,0,0,0,0-1.61c-.5-2.08-1.14-4.14-1.52-6.24-.14-.75-.77-1.19-.78-2A20.8,20.8,0,0,0,92.22,11L91,10.36c.15-.32.29-.59.42-.86C90.32,9.07,91,8.15,91,7.61L88.85,6.17c.72-.55,1-.94,0-1.17-.3-.06-.79-.23-.81-.41-.2-1.59-1.37-1.4-2.44-1.41a.83.83,0,0,0-.91-1.06c-1.25,0-2.18-1.29-3.77-.44a3,3,0,0,1-3.68-.62C77.13,1,76.92.8,76.82.84c-1.1.38-1.78-.61-2.69-.63A4.63,4.63,0,0,1,72.8.54a4.46,4.46,0,0,1-2.86-.1c-.4-.18-1.35.21-.85,1.28L70,1.13l.29.63c.69-.18,1.56-.71,2-.47C73.41,2,73.7.81,74.4.59a1,1,0,0,1,0,.25c-.5,1.52-.6,1.57-2.18,1.33-.18,0-.43.17-.59.32a7.66,7.66,0,0,0-.63.66c-.53-.3-1-.8-1.33-.7a22.32,22.32,0,0,0-2.51,1.22,12.42,12.42,0,0,1-1.35.42l0-.28L63.31,6.33l-.21-.44c-.59.08-1.31,0-1.74.29a13.79,13.79,0,0,1-5.28,2.26,4.13,4.13,0,0,0-1.59,1c-.54.44-.92.94-1.77,1-1.28.06-3.51,2-4.7,3.24-.59.61-1.24,1.18-1.89,1.73a1.36,1.36,0,0,1-.86.33c-.57,0-1-.16-1,.71,0,.26-.79.53-1.22.79L42.9,17A11.12,11.12,0,0,0,44,15.48c.42-.82,1.93-1,1.26-2.43,2,.49,1.36-1.59,2.28-2.16.2-.12,0-.82,0-1.26l-.2,0c-.26.61-.52,1.23-.81,1.94l-1-.66L46,12.15c-1.51.08-1.3,2.5-3.07,2.22.12.87-1,2.47-2.65,3.76,0-.15-.11-.3-.1-.29-1.29,2.07-2.6,4.18-3.92,6.28a2.77,2.77,0,0,1-.24-.28c-.68,1.06-1.34,2.08-2,3.12L32,30l-.33-.66c-1.31,2.16-1.74,4.76-4.19,6.06.12.29.25.59.37.89l-.31-.1c-.23.43-.47.85-.71,1.27s-.29.78-.54.86c-.53.18-1.06.17-.35.82l-.91.56-.57,1,.48.39a11.3,11.3,0,0,0-2.84,4.38A3.86,3.86,0,0,1,21.09,47c-.53.48-.59.41-.26.88-.54.54-1.45,1-1.52,1.62a3.64,3.64,0,0,1-1,2,.46.46,0,0,0-.11.27c0,1-.38,1.63-1.68,1.29.23.61.4,1,.47,1.22a7.46,7.46,0,0,0-.9,1c-.62,1.12-1.17,2.28-1.78,3.4a1,1,0,0,1-.6.42c-.62.12-1.42.08-.39.92.06,0-.19.75-.41.82-1.65.51-1.26,2.32-2.48,3.32l1-.09a1.94,1.94,0,0,1-.85.64A2.17,2.17,0,0,0,9,66.37,6.57,6.57,0,0,1,8.43,68c-.28.63-.83,1.24-.84,1.86S7.22,70.66,7,71c-.31.56-1,1.07-1,1.63-.06,1.58-1.39,2.56-1.67,4.06A12.75,12.75,0,0,1,2.87,79.9c-.36.68-.79,1.33-1.18,2a1.14,1.14,0,0,0-.14.39c-.09.57,0,1.33-.29,1.69C.2,85.2.56,86.72.21,88.07a16.22,16.22,0,0,0-.07,3.42A13.06,13.06,0,0,0,0,93.55C.24,95,1.22,96.18,1.17,97.74a6.57,6.57,0,0,0,.77,2.18.72.72,0,0,0-.21,1.34,11.15,11.15,0,0,0,2.39.93c.18-.83.33-1.5.48-2.17l-.67-.45c.19-.27.46-.48.47-.7,0-1.18-.07-2.36,0-3.53a16,16,0,0,1,.52-2.44c.06-.38.14-.86.24-1.41-.79-.62-.26-2,.94-2.5a8.7,8.7,0,0,1,.62.75c.13.21.35.57.28.67-.67.85-.41,1.84-.4,2.75,0,1.54.25,3.07.34,4.61a5.78,5.78,0,0,0,1.44,2.85c1.14-1.58,1-3.41.93-5L12,100.56c-.14.35-.48.9-.37,1,.35.34,1,.82,1.28.7s.69-.83,1.16-1.49l-1.48-.13,1-1c-.31-.18-.62-.36-.73-.41.19-.22.65-.49.69-.83.24-1.79.39-3.6.53-5.41,0-.42-.22-.92-.08-1.28a18.29,18.29,0,0,1,1.17-2.28L14.76,89c.35-.34.71-.53.82-.82a5.85,5.85,0,0,0,.23-1.39c.69.21.6,0,.72-.84a3.53,3.53,0,0,1,1.89-3c.24-.1.31-.65.45-1a6.45,6.45,0,0,0-1-.4,6.83,6.83,0,0,0-1.11-.08c1-.52,2.44,0,3-1.5l-1.37-.7c.76-.34,1.22-.52,1.64-.75s.83-.52,1.24-.78l-.7-1,1.5.23c-.32-.86-.56-1.51-.78-2.12,1.06.56,1.23.44,1.57-.83.1-.35.54-.6.72-1A22.48,22.48,0,0,0,24.48,71s-.27-.2-.6-.44a1.86,1.86,0,0,0,2.17-1.82c0-1.12.69-.82,1.06-1.09.89-1.44.8-3.48,2.76-4.26-.59-.81-.22-1.47,1-1.84-.52-1,.36-1.39.83-2,.17-.2.14-.56.19-.85.06-.7,1.38-.95.38-2,1.37.15,2.06-.12,1.9-.81-.19-.88.21-1.08.89-1.2a1.44,1.44,0,0,0,.36-.17l-.68-.84,1.59-1.19c.22-1.29-.73-1.33-1.65-1.27-.18,0-.32.54-.56,1L33.34,52c.34-.65.65-1.3,1-1.92a6.47,6.47,0,0,1,.77-.89l.21.16-.25.88a3,3,0,0,0,.71.49c.32.08.87.18,1,.05.45-.75,2.09-.8,1.35-2.25,0,0,.06-.11.1-.16l2.5-2.45-.55-.36c.58-.54,1.17-1.09,1.87-1.76l-.28-.51c.42-.2.93-.28,1.09-.56.72-1.19,1.23-2.51,2-3.64.88-1.29,2-2.43,3-3.64a3.45,3.45,0,0,1,.59-1.18c.41-.65,1.57-.93.86-2.14l1.37-.2-.22-.27,1.48-1.38c.12-.1.37-.18.37-.27,0-.91.94-1.08,1.32-1.68L55,26.08a10.22,10.22,0,0,0,.92-.6c.16-.12.2-.45.36-.5a5,5,0,0,1,1-.14c-.12-.33-.24-.65-.35-1,1-.19,2.14-.15,2.37-1.54a.47.47,0,0,1,.18-.3c.77-.68,1.55-1.34,2.33-2s2.14.2,2.37-1.27c0,0,.16,0,.23,0,.68-.34,1.78,0,1.94-1.22,0-.05.19-.11.3-.12,1.84-.17,1.81-.19,2.88-1.4.71-.82,1.62-.51,2.5-.3a2.23,2.23,0,0,0,1,.05c.83-.24,1.61-.64,2.45-.82A2,2,0,0,1,77,15.1a15.92,15.92,0,0,1,1.64,2.22c.59.8,1.19,1.58,1.78,2.37v1.65c.18,0,.64.09.64.15,0,.89,1.07,1.54.57,2.55a1.13,1.13,0,0,0,0,.81A11.94,11.94,0,0,1,82.37,28c.17,1.34-.58,2.81.42,4.07a.75.75,0,0,1-.28,1.23,1.61,1.61,0,0,0,.18.9c.09.14.47.1.71.14A2.37,2.37,0,0,0,83,35c-.18,1.36,1.14,2.78-.17,4.12-.06.07.1.36.16.54a11.14,11.14,0,0,1,.7,2.24c.1.94-.2,1.92-.07,2.84a5.3,5.3,0,0,1-.4,2,11.12,11.12,0,0,0,0,2.58,11.83,11.83,0,0,0,.11,2.39c.21.9.3.94-.21,1.51.2.5.64,1.05.53,1.42a37.68,37.68,0,0,1-1.44,3.49c0,.07,0,.17-.11.21-.78.53-1.9.79-1.62,2.13-1.6.81-1,3.19-2.72,3.9-.12,0-.24.48-.18.54.5.44.06.6-.19.88s-.54.74-.82,1.13l-.23-.16a10.72,10.72,0,0,1-.91,3.09c-.94,1.41-2.27,2.57-2.21,4.46,0,.08-.21.14-.25.24-.79,1.7-1.61,3.38-2.34,5.11-.28.65-.29,1.43-.55,2.09a5.1,5.1,0,0,1-.89,1.13l.46.54-.71.46c0,.55.16,1.07,0,1.34-.71,1,.11,2.12-.22,3.16-.06.18.37.52.57.79a3.51,3.51,0,0,0-.23,1.61,14.24,14.24,0,0,1,.1,1.95c-.06.66-.55,1.36-.42,1.94.36,1.52.08,3.1.66,4.61a22.87,22.87,0,0,1,.73,4l1.36.11a3.48,3.48,0,0,1-1.08.63c-.15.07-.37.31-.34.38.29.74.63,1.45,1,2.21l4-.68a2.6,2.6,0,0,1,1-3.13c.26.62.52,1.22.76,1.78,1.35-.29,2.53-1.37,4-.18l-.73.46c.35.25.81.43.82.63a4.9,4.9,0,0,1-.21,1.3,4,4,0,0,0,1.09.32,14,14,0,0,0,2-.32s-.1-.47,0-.68c.27-.77.4-1.94.94-2.2.95-.45.55-1,.47-1.52H86c.34-.76.6-1.3.82-1.85.14-.35.23-.72.34-1.08h0c.21-.14.6-.32.59-.43-.08-.57-.13-.9.55-1.27A2.07,2.07,0,0,0,89,96c-.16-1.3-.07-2.34.88-2.63.48-1.33.59-2.62,1.28-3.26s.22-1,.06-1.46l1.51-.42-1.22-.5c1.75-.78,1.24-3.06,2.76-4.07L92.92,83l1.77-.33-1.88-1.09c.59-.22,1.33-.27,1.59-.66.48-.68.88-1.59.18-2.08a10.43,10.43,0,0,0,.75-1.66c.33-1.26.58-2.54.92-4-.72-.49.19-1.11.54-1.76l-.92-.46.93-.38a17.5,17.5,0,0,1-.27-1.73c0-.27.29-.57.24-.82A5,5,0,0,1,98,63.38l-.31-.48c.4-.48.93-.82.93-1.16,0-.91.41-1.3.87-1.32l3-4.85-.37-.51c.54-.31,1.56-.64,1.55-1,0-1,.91-.67,1.24-1.2l-.44-.61c1.17.13,1.4-.21,1.08-1.15l2.61-3.28-1.55-.56c1.36-.06,2.48,0,2.21-1.59,1.31.53.89-.41.83-1,1,.2,1.34.29,1.25-1-.06-.9,1.12-1.89,1.75-2.84.32-.47.66-.93,1.06-1.48.48.06,2.24-1.25,2.08-1.93-.36-1.61.89-1.34,1.48-1.57.28-.83.51-1.52.75-2.25h1.31c-.22-.34-.38-.59-.51-.81.25-.12.77-.26.77-.39-.07-1.94,2-2.1,2.77-3.35.44-.7,1.78-1.06,1.88-1.71.19-1.24,1.15-1.39,1.85-1.89,1.33-.95,1.63.28,2.11,1.11.07.12.31.14.4.26a9,9,0,0,1,.56.94c.17.34.3.69.54,1.23a2.53,2.53,0,0,0,1.11,2.9l-.66.28a12.09,12.09,0,0,0,.91,1.88c.42.6.64,1-.1,1.11-.18,1.72.64,3.26.48,5a19.1,19.1,0,0,0,.42,3.47,7.55,7.55,0,0,1-.14,1.4l-.42,0L132,46.4a26.79,26.79,0,0,0-.5,3.2c0,1,.27,2,.32,3a5.3,5.3,0,0,1-.22,2.15c-.38.91,0,1.16.78,1.35-.18.55-.21,1.25-.57,1.61-.55.55-.2,1-.09,1.46.05.21.3.39.29.58-.05.93-.15,1.87-.26,2.8-.08.7-.52,1.56-.25,2,.79,1.45-.67,2.76-.07,4.12,0,0-.09.14-.15.18-1,.66-.28,1.62-.46,2.43-.1.48-.08,1.19-.39,1.4-.68.46-.6,1.09-.75,1.71-.22.88-.5,1.76-.8,2.78a4.69,4.69,0,0,1,.14,2.33c-.54,1.47-1.09,2.94-1.52,4.44-.39,1.35-.48,2.8-1.69,3.72a1.11,1.11,0,0,1-.3,1.61,1.53,1.53,0,0,0-.3,2.23,9.47,9.47,0,0,0-1.36,1.94c-.3.81-1.24,1.61-.58,2.3a25.32,25.32,0,0,0-1.52,4.91c-.06.6-.69.84-.5,1.17.58,1-.29,1.55-.66,2.27a1.18,1.18,0,0,0,.57,1.74,9.74,9.74,0,0,0,1.58.42c-.14.63-.28,1.26-.42,1.87l1.16-.12c-1.58.16-1.09,1.79-1.77,2.48-.07.06.26.51.48.93a9.68,9.68,0,0,0,.43-1.13,5.55,5.55,0,0,0,.08-.93c1.42.74,1.67.67,2.8-.77l-.79-.44,1.83-.4-.87-.74c1.2-1.1.84-2.64,1.25-3.93,0,0,.06,0,.14-.13l1.43.22c-.27,1.44-.51,2.77-.76,4.06a2.3,2.3,0,0,0,2.65-.37c1.17-1.09,1.92-1.12,2.86-.11-.88.39-1.2.91-.4,1.7a2.51,2.51,0,0,1,.38.61l-1.26.82c1.17.45,2.13,1.12,2.63-.53l-.83-.29,1.83-.58c-1.16-.73-.12-1.26,0-1.86.07-.37.07-.75.11-1.12.07-1.44,1.82-2.24,1.56-4h-1c.73-.91,1.45-1.81,2.16-2.72,0,0,0-.15,0-.22-.39-1.34.63-2.09,1.19-3.13-.65-.83.12-1.22.95-1.64l-.92-.43c.33-.45.67-.91,1-1.41l-1.77-.81.15-.32,1.86.61c-.6-1.32,1.11-2.09.31-3.28.92-.89.27-2.87,2.57-3.43-1.29,1.46-.64,2.58-.25,3.7a1.55,1.55,0,0,0-.3,1.09c.11.69.71,1.33.05,2.08-.18.2-.19.87,0,1,1.24,1,.54,1.53-.46,2.07.66,1.94,1.3,3.81,1.93,5.68h-1.23c1.24.42-.36.72,0,1.06l1.89-.56c.18.57.24,1.41.49,1.48,1.41.37,1.34,1.76,2,2.6a2.77,2.77,0,0,0,.54.48c1.23.86,2.46,1.72,3.71,2.56.8.54,1.59,1.4,2.45,1.49,1.82.2,2.74,1.69,4.18,2.41a19.16,19.16,0,0,1,3.15,2.36l1.21-.6-.62,1c.4.51.79,1,1.23,1.59l2.15-.2v.22l-.59.42.05.42c1.12,0,2.23,0,3.35,0a11.11,11.11,0,0,1,4.7.61,12.13,12.13,0,0,0,2.92.48,2.43,2.43,0,0,1,1.1-.22c.21,0,.42.25.63.24,1.76-.06,3.52-.16,5.28-.22a8.88,8.88,0,0,1,1.24.11l6.2-2.87-2-1.37a2.83,2.83,0,0,0-.2.28l.9.77-3.13.39.58,1.05-1.88-.54.25.57c-.55.17-1,.34-1.54.46a1.52,1.52,0,0,1-.56,0c-1.26-.12-2.52-.26-3.78-.33-.18,0-.37.38-.59.62l-4-.2,0-.17,1.73-.27-.69-.72,3.35-1.32-.27-.88.26-.17h0l1.09,1.05.31-.08c-.1-.41-.2-.81-.3-1.23a1.53,1.53,0,0,0,.48,0c.57-.13,1.06.31,1.78,0s1.86-.08,2.64-.08l5.82-2.74c0-.16.06-.5.12-.94l1.31,1.12c0-1.35,0-1.35,1.17-1.57-.15-.65-.29-1.31-.44-2l.31,0c.15.44.29.88.51,1.56.66-1,.84-2.31,2.18-1.71q.18,1.08.36,2.07l-2-.45c1,1.07.77,2-.39,2.31-.61.17-1.23.31-1.82.52-.1,0-.1.35-.14.54-.49-.05-1-.17-1,.62,0,.23-.37.54-.63.63s-.54-.09-.81-.16c-.06.15-.12.3-.19.44l2.32,2.19.36-.36c-.42-.56-.84-1.11-1.35-1.8l2.34,1.06c-.15-.81-.23-1.3-.32-1.79.24.28.49.55.75.83.26-.31.61-.55.58-.73-.14-.94.3-.85,1-.89s1.52-.43,1-1.31a19.68,19.68,0,0,0,1.61-1.28.8.8,0,0,0,.06-.68c-1.11-.56-.58-1.24-.12-2.23.28.85.48,1.45.67,2l.36-.11.75-2.6.86.44V104.8c.22,0,.7.06.72,0,.29-1,1.42-1.8.92-3,1.06-.09,2.13-1,1.77-1.68,1.24-.4.54-1.41.6-2.15l1.17-.12v-.41h-2.74l0-.3.76-.65,1.36.36.07-.25-.65-.79.16-.15,1.14.85c.24-.34.43-.64.65-.9s.5-.55.76-.82c-.35-.19-.7-.36-1-.56s-.58-.37-.86-.55c.18-.22.37-.42.54-.64s.34-.52.53-.82a4.48,4.48,0,0,1,.5.67,3.91,3.91,0,0,1,.2.85c.25-.28.6-.51.72-.83.29-.74.42-1.55.7-2.29s1-1.62,1-2.42a5.22,5.22,0,0,1,.88-2.82c.26-.44-.07-1.22-.13-1.91,1.5-.12.65-2,1.55-2.73l-.43-1,.38.13c.27-.28.81-.63.76-.81a3.29,3.29,0,0,1,.87-3.43L212,74.86a7.1,7.1,0,0,0,1.43-2,7.21,7.21,0,0,0,.14-2.89c-.11-.73.45-1.19.4-1.85a18.44,18.44,0,0,1,0-2.68c.11-1.43.36-2.86.47-4.29.07-.89-.05-1.8,0-2.69s.22-1.49.32-2.25-.08-1.5.24-2a19.11,19.11,0,0,1,2.23-2.71,13.51,13.51,0,0,1,1.44-1.39,3.4,3.4,0,0,1,.89-.37l-.59-.71,1.29-1,.51.23a12.73,12.73,0,0,0,1.42-2.41c.44-1.38,1.81-.72,2.61-1.4-.14-.22-.27-.44-.44-.7.45-.33.87-.64,1.34-1l-.4-.79,1.61.37c.4-.65,1-1.7,1-1.68,1.29.65,1.53-.49,2.13-1.38.25.66.42,1.1.62,1.66l1.33-1.2.44.81c-.12,1-1.76.7-1.16,2l.72-.07c.14,1.12-.1,2.48.46,3.08,1,1.08.56,2.39,1.06,3.51a7.65,7.65,0,0,1,.16,2.85,7.65,7.65,0,0,0,0,1.36c.12.49.68,1.25.56,1.35-1.54,1.4.82,3.33-.68,4.67a3.56,3.56,0,0,1,.35,3.1c-.35,1,0,2.29,0,3.44,0,1.7-.07,3.4-.06,5.09,0,.47.26.93.26,1.4,0,.95.52,2.09-.71,2.67.2,1.06.4,2.1.57,2.93-.35.46-.84.81-.84,1.17a14.6,14.6,0,0,0,.29,2.33c-.17.6-.25,1-.38,1.29s-.37.73-.55,1.1a15,15,0,0,1,.32,3.34c0,.06-.16.12-.23.19a2.9,2.9,0,0,0-.61,2.87l-1.71,2.09.61.3c-.28,1.09-.53,2.09-.8,3.08,0,0-.15,0-.22.07-.87.6-.65,1.4-.37,2.29l-.93-.3-.06,1c-.1,1.27-.16,2.54-.31,3.8a1,1,0,0,1-.55.73c-.71.2-.67.63-.57,1.19s.09,1.17.13,1.62c-.32.33-.91.8-.85.89.58,1,.18,1.85,0,2.85a29.26,29.26,0,0,0,.07,5.29c.05,1.51.13,3,.19,4.51a.51.51,0,0,1-.07.33c-1.25,1.36.16,2.71.16,4l.6-.07c-.2.34-.43.55-.42.76s.23.46.36.69c-.35.6-.69,1.21-1.14,2a5.86,5.86,0,0,0,1.65.27c.17,0,.39-.67.36-1a6.76,6.76,0,0,0-.44-1.48c.28-.64.55-1.28.81-1.89h-.82l2.26-1.61,1,.54V120c.63,0,1.39-.34,1.76-.09,1.12.76,1.82-.33,2.72-.39.18,0,.44-.14.52-.07a.88.88,0,0,1,.21.58c-.08,1.24-.63,2.52.48,3.61l-.51.11a6.51,6.51,0,0,1,.27,1.36,11.83,11.83,0,0,1-.2,2.38c-.18.77.24,1,.79,1.15a23.33,23.33,0,0,0,2.58.19,7.42,7.42,0,0,1-.28-2,26.44,26.44,0,0,1,.95-4.14c.24-.72.33-1.23-.22-1.79-.15-.16-.12-.5-.16-.71,1.72-.17.94-2,2-2.57l-.84-.41c.48-1.95.92-3.8,1.39-5.72l-1-.49,1.37-.33c-.47-1.22-.71-2.39.29-3.48.15-.17.09-.56.05-.84-.1-.86.37-1.63.22-2.58s.57-2,.87-3c.13-.44.14-.93.28-1.37.25-.79-.12-1.7.57-2.42a2.38,2.38,0,0,0,.4-1.1c.11-.47.14-1,.27-1.42a12.48,12.48,0,0,0,.47-1.38c.11-1-.13-2,.23-2.85.45-1,1.47-1.74,1-3,0,0,.19-.13.28-.2.73-.52,1-1.11.47-1.64.4-.75,1.14-1.51,1-2-.4-1.15.47-1,.7-1.1.31-1,.56-1.81.81-2.61h.74c-.84-1.15-.12-1.57.81-1.94l-1-2.25,1.63.47-.49-1.25,1.49-2-1.19-.1c-.09-.38-.18-.72-.31-1.28.68,1,1.63,1.31,1.94.8.52-.86.95-1.77,1.45-2.71l-1.83-.92.56-.63,1.47,1.32.44-.17c-1-1.11,0-1.38.68-1.73l-.17-.38-2.07.26c0-.31.06-.68.08-1.06l1.37.27.09-.27-.78-.65.54-.5.79,1.19.33-.1V64.6L258,65l2.76-4.12a1.71,1.71,0,0,1,.17-.6,8.44,8.44,0,0,1,.59-.88,11.64,11.64,0,0,1,1.67-2.54c.92-.83,1.35-1.59.82-2.76l0,0v0h0l-1-1.82.5.1.69-.69,2,1.06c.15-.62.28-1.13.43-1.72,1.14.91,1.28-.26,1.72-.72s.52-1.69,1.74-1.37a2,2,0,0,0,.32-.87,1.65,1.65,0,0,0-.28-.75l0,0,0,0,.74-.55.61.72c.35-.45.52-.9.84-1a17.88,17.88,0,0,1,2.15-.63l-.45-.94c1.55,0,2.34-.53,2.7-1.69h0l1.44,1.06c-.12-.73-.17-1.06-.22-1.39h1.76c-.05-.43-.1-.79-.14-1.11,2.54.54,4.79-.67,7.33-.81l-1,.68,1.59.51.41-.37-1.07-.19,1.22-1.13a9.15,9.15,0,0,0,.65,1.76c.7,1.09.76,1.87-.69,2.11l.54,1.7.29.07c.12-.51.25-1,.45-1.85.68,1.32,1.23,2.4,1.83,3.58l-1.46.86v1.85l.86-.73c.87.69.06,1-.54,1.55h1.54l0,.18-.75.33.21,2.63c.54,0,.88.71.46,1.49-.09.17.07.49.11.74a2.65,2.65,0,0,1,.07.48c0,1.06-.42,2.45.09,3.12,1.28,1.68-.08,3.47.63,5.1a5.21,5.21,0,0,1,.07,1.9l.41.09-1,.48c.42.79,1,1.45.2,2.34-.23.24,0,.9,0,1.37a6.27,6.27,0,0,1-.2,1.12c-.07.24-.28.49-.26.71.12.93.26,1.87.45,2.79a3.46,3.46,0,0,1-.89,2.82,4.93,4.93,0,0,1-.29,1.33,2.38,2.38,0,0,0-.11.53,8.7,8.7,0,0,1-.4,2.8,5.6,5.6,0,0,0-.71,3.24c0,.34-.32.71-.48,1.08a5,5,0,0,0-.35,1,8.27,8.27,0,0,1-.14,1.23,13.35,13.35,0,0,1-.7,1.2c-.09.2-.91,3.61-1,3.8-.2.72-.38,1.44-.55,2.16-.31,1.26-.6,2.52-.93,3.77,0,.13-.31.21-.47.31l.31.08c-.15,1,.07,2.44-.51,3-1.19,1.06-.79,2.44-1.22,3.61a14.08,14.08,0,0,0-.39,3.61l-.86.42a3.27,3.27,0,0,1,.23,2.94,5,5,0,0,0-.58,3.15c.08.41-.48,1-.73,1.41a6.58,6.58,0,0,1,.28,1.72c-.14,1.59-1.55,3-.67,4.74,0,.06-.12.18-.14.28a5.22,5.22,0,0,0-.26,1.27,13.41,13.41,0,0,1,.11,3c-.16.67-.44,1.2-.07,1.86.1.2.09.66-.05.75a1.9,1.9,0,0,1-.88.16l-1.48.08a4.13,4.13,0,0,0,2.73,2.67v3.38l1.48-.43c-1.14-1.61-1.05-2.14-.18-3.18.35-.42.64-.88,1.11-1.53h1.08a1.23,1.23,0,0,1,1.77-1.09,1.52,1.52,0,0,0,.87,0c.89-.23,1.76-.52,2.64-.79l.56,0,1,.64-.21.28-.91-.2c-.09.8.39,1.79-1.4,1.91l1.77,1.75c-.17.74-.55,1.41-.39,1.9s.47.56.22.8a13.4,13.4,0,0,1-1.42,1.08c.25.18.78.35.94.7.43,1,.87,1.12,1.55.37l1,.54,1.24-.95-.34-.07c.11-.46.21-.92.34-1.51a2.31,2.31,0,0,1,.22-3.36c.11-.59.19-1,.25-1.33a1.14,1.14,0,0,0,0-.52,5.78,5.78,0,0,1,0-3.72c.32-.92,1-2.21.6-2.79-1-1.6.08-2.78.36-4.09.17-.81-.15-1.76.66-2.45.19-.17,0-.79-.06-1.45l-.68-.6.95.67c.22-.71.73-1.48.6-2.13a7.27,7.27,0,0,1,.22-3.35c.09-.31,0-.67.14-1a12.94,12.94,0,0,0,.87-2.39,5.86,5.86,0,0,1,.85-3.23c.24-.38-.08-1.1-.1-1.67a1.07,1.07,0,0,1,.22-.74c.61-.58.86-1.12-.27-1.83h1.73c-.94-1-.49-1.84.27-2.57l-1.12-.58.05-.24,1.33.14c0-.35,0-.74,0-1.12a7.88,7.88,0,0,1,.17-.87,4.27,4.27,0,0,1,.34-1.32c.59-1-.05-2.3,1.07-3.14a1.15,1.15,0,0,0,.46-1.51c-.28-.63.08-1.55.17-2.6l-.66-.48.1-.25,1.5.62c0-.56-.06-1-.09-1.52l.58-.15-.58-1.28.8-.61-.32-.1c.16-.82.31-1.65.55-2.88-.28-.59,0-4.09.68-4.8-.16-.34-.48-.68-.45-1,.13-1.4.34-2.79.56-4.18a10.06,10.06,0,0,0,0-4.09,1.28,1.28,0,0,1,0-.67A10.12,10.12,0,0,0,306.09,66.47ZM138.42,17.11l-.21.26-.68-.3ZM86.08,22.54h0L87,21.08Zm32.41,6.1c-.33.39-.16.73.14,1.06C118.33,29.37,118.16,29,118.49,28.64Zm-2,2.57c.65-.67,1-1.68,2.22-1.35h0l-.78,1,.78-1c-1.24-.32-1.57.68-2.22,1.35a1.74,1.74,0,0,1-.82.51A1.74,1.74,0,0,0,116.53,31.21Zm2.24-1.37h0l.78-1.19Zm31.38,71.69h0c0,.33.11.66.17,1C150.26,102.19,150.2,101.86,150.15,101.53Zm46.36-.13a.21.21,0,0,0,0-.07A.21.21,0,0,1,196.51,101.4Zm-2.08-16.16c-.61.28-1.5.44-1.06,1.48,0,.06,0,.17-.07.22-.72.88-1.47,1.73-2.15,2.64-.17.23-.11.63-.21.93a2.57,2.57,0,0,1-.41.54l-.2-.37c-.8,1.32-2.63,2.45-.76,4.56-2.1-1.08-2.75.76-3.84,1.54-1.3.94-2.44,2.09-3.62,3.11l.43.28-5.21,2.6A8.39,8.39,0,0,1,176,103c-.85,0-1.72,0-2.58,0a4,4,0,0,0-.85,0c-2.4.53-4.57-.35-6.65-1.28-1.26-.56-2.78-1-3.39-2.57-.15-.38-1-.51-1.46-.73A16.87,16.87,0,0,0,159.89,96a14.94,14.94,0,0,0-1.77-1.87c1.26,0,2.36,0,3.45,0a3.53,3.53,0,0,1,.54.13l.47.11v-.85l1.4.07c0,.32,0,.65-.08,1.16l1.88-.8c.23.65.39,1.33,1.31.79.16-.09.45,0,.67.06,1.52.08,3,.15,4.54.26.34,0,.66.28,1,.33a8.68,8.68,0,0,0,1.25,0,4,4,0,0,1,.6,0c.26,0,.55.22.77.16,1.19-.31,1.18-.33,2.17.18a3.86,3.86,0,0,0,.12-.42c0-.11,0-.22,0-.18.44-.07.82-.15,1.21-.2.56,0,1.11-.1,1.67-.12.89,0,1.14-.52,1-1.39l2.56-.47L186,91.68l.27.21c-.1-.31-.19-.62-.35-1.12,1,.54,1.27.1,1.08-.83l.74.24,1.93-2.32h.12a3.35,3.35,0,0,1,.51-.82c.58-.51,1.22-1,2-1.55-.21-1.12.67-2,1.86-2.72l-1-.52,2.87-1.16c.27.94-.49,1.37-1.39,1.9l1,.68C194.23,84.6,194.23,84.6,194.43,85.24Zm-2,18.52a1.81,1.81,0,0,0,.63-.52A1.81,1.81,0,0,1,192.45,103.76Zm-6-3-.06.08Zm-.1.13a.7.7,0,0,1-.18.14A.7.7,0,0,0,186.33,100.9Zm7.33,1.64c-.19.2-.37.44-.55.66.18-.22.36-.46.55-.66ZM174.33,86.88a1.82,1.82,0,0,0-.72,1.54h0A1.82,1.82,0,0,1,174.33,86.88Zm14.25-8.19h0l1,1.49Zm7.83,22.45-.15-.28ZM164.9,73.22c0-.88,0-1.76,0-2.64q0-.33,0-.66c0-.46.06-.92.1-1.51l1,.08a1.69,1.69,0,0,1,.44-2.55l-1.11-.64v-.17l1.34.13a5.43,5.43,0,0,1,0-1.21c.1-.42.44-.78.53-1.19a26,26,0,0,1,.43-2.69A15.36,15.36,0,0,1,169,57.74c.1-.87.24-2.17.39-3.52l.91.47.56-.74-.95-1,1.28.35c-.1-.6-.19-1.09-.21-1.24.46-.5,1.05-.86,1-1.18-.06-1,1.82-1.22.77-2.47l2-.92c0-.1,0-.5,0-.67l2.78-1-.06-.39-1.4.17a.15.15,0,0,1-.09-.05,1.66,1.66,0,0,1,.06-.21l-1.26-.89c.46.33.86.6,1.26.87,0-.2.11-.47,0-.58.09.11,0,.39,0,.59h2.6l-1.09-.72,2.06-.25,0-.07c.32,0,.75.13.94,0,1.13-.91,1.14,0,1.3.88l1-.85-.53-.23c1.56-.62,1.55-.61,2.62.82A12.4,12.4,0,0,0,186.18,46c.16-1,.26-1.58.36-2.18l3.6.46v.21l-.9,0,1.1.86.44-.77c.12.21.23.44.37.64.31.46.64.91,1,1.37l.64.85.35-.71L196,49.05l1.67-.23c-.38-.7-1.74-.39-1.44-1.62,0,0-.53-.11-.67-.29-.8-1-1.52-2.13-2.35-3.14-.2-.24-.69-.25-1-.37l-.83-.24a2.47,2.47,0,0,1,.45-.87c.11-.09.53.15.79.28a5.52,5.52,0,0,1,.64.43c.15-.43.28-.82.48-1.38l1,2V42.35a12.46,12.46,0,0,1,4,6.9c-.7.18-1.65.09-1.79,1.42a8.54,8.54,0,0,1-1.29,2.47,2.09,2.09,0,0,0-1,3.23L193.53,56,192,58l.74.26-2,2-.61-.25c.29.49.5.82.78,1.29l-.59-.19c-1.48,1.89-2.93,3.74-4.44,5.65l.25.21s-.06.16-.09.16c-1.42.18-1.94,1.39-2.7,2.33-.12.14-.26.26-.39.39s-.54.44-.61.71a6.55,6.55,0,0,1-2.13,2.36,4.39,4.39,0,0,0-.72.78,8.07,8.07,0,0,0-.44,1.29l-.42-.15-2,2L175.47,78c-.09,0-.55-.05-.58,0-.47,1.31-1.9.91-2.74,1.57a6,6,0,0,1-2.08.72,6.61,6.61,0,0,1-1.33.23,3,3,0,0,1-1-.08,4.26,4.26,0,0,1-1-.46c-.48-.31-.94-.66-1.37-1a5.17,5.17,0,0,1-.54-1.56C164.75,76.1,164.86,74.66,164.9,73.22Zm7.89,16.93-.85,1.69c.53.5.89.71,1.62-.06.9-1,2.31-1.26,3.55-1.73a3.17,3.17,0,0,0,.49-.32l.91,1.14c.09-.47.13-.72.16-.85l3.14-.54c0-.38-.09-1-.15-1.61h.07c.15.54.29,1.09.44,1.64h.23c.08-.35.16-.69.26-1.15.74.35,1.36-1,2.19-.1l.24-.69,1-.85.72.23-.52-1.22c1.63.79.89-.9,1.51-1.17l.33.75c.71-1,1.35-1.79,2.08-2.74l1,.27v1.35l-1.45-.4-.06.25.91.65-1.14-.26c0,.42,0,.77.06,1.11-.3,0-.59-.57-.91,0a6.17,6.17,0,0,1-.83,1l.84,1.38-.17.3-1.64-.53c-.08.32-.16.66-.25,1l-.35.28c-.05-.19-.09-.38-.14-.58l-1.68,1.2.26.31.67-.76c0,1.8-1.55.54-1.81,1v1.74l-.85-.22-1.21.92s.13.28.32.71a8.24,8.24,0,0,0-1.1-.59,7.11,7.11,0,0,0-1.3-.14c.49.41.67.57.88.76a26.52,26.52,0,0,1-9,.31v.42H170l.86-1-1.06.34c-.06-.4-.13-.8-.2-1.22a7.44,7.44,0,0,1-2.1.91c-.41,0-.93-.54-1.36-.89a8.89,8.89,0,0,1-.91-.93c-.22-.26-.45-.52-.67-.79l-.86-1.08Zm20.87,12.39h0a7.72,7.72,0,0,0,.89-.82,7.72,7.72,0,0,1-.89.82c1.84.67,2.58.08,2.46-1.94h0C196.25,102.62,195.5,103.21,193.66,102.54Zm3.68-25.27h0c.43-.68.45-.81-.57-1.07C197.79,76.45,197.77,76.58,197.34,77.27Zm26.07-37.66c.08.24.16.51.26.8C223.57,40.12,223.49,39.85,223.41,39.61Zm.43,2.86c.5-.19.57-.49.39-.86C224.41,42,224.34,42.28,223.84,42.47Zm.07-1.32h0v0l1.56.36Zm40.12,13Zm-2.66-2.2h0l.24-.44Zm2.49-2.59h0l1.3.53Zm31,50.63h0l-.53-.44Zm-3.33,39.5c.12.15.24.28.35.43h0Zm1.35-29c.14-.54.62-1.11-.08-1.62h0C293.5,109.34,293,109.91,292.88,110.45Zm-.09-1.65h0c.77-.31.61-.7.39-1.1C293.4,108.1,293.56,108.49,292.79,108.8Zm1.45-6.57c.25-.35.47-.65.7-1h0C294.72,101.58,294.49,101.88,294.24,102.23Z"/><path d="M129.87,10.87l0,0h0v0h0Z"/><path d="M131.09,11.8a2.86,2.86,0,0,1,2.92.32c.2-1.18-.22-1.66-1.31-1.66a2.9,2.9,0,0,1-1.45-.27c-.85-.51-1.24-.37-1.38.68C130.3,11.22,130.89,11.9,131.09,11.8Z"/><path d="M121.55,11h.25c0-.41.07-.82.14-1.58L117.81,11c.09,1.18-2.21.45-2,2.05l5.72-3Z"/><path d="M67.86,0a10.47,10.47,0,0,0-2.4,1.45c-1,1-.87,0-1.25-.67L63,2.88c1.23-.36,2.21-.69,3.22-.95S68,1.32,67.86,0Z"/><path d="M53.76,6l.48,1.21c.21-1,.37-1.74.52-2.5-.38.26-.45.8-.75,1s-.92,0-1.27.21a7.75,7.75,0,0,0-1.33,1.17v1Z"/><path d="M49.65,10.14c.26-1,1.82-1.62,1.76-3.09h0l0,0h0l-.07-.54C50.55,8,50.53,8,48.9,9.37a4.06,4.06,0,0,0-.72,1.22c.22.09.49.32.65.26S49.29,10.47,49.65,10.14Z"/><path d="M148.18,108.66l-.43,0a5.54,5.54,0,0,0,.2,1.38c.08.18.58.18,1,.3.58,1.29,1,1.46,1.89.49l-2.63-1.35Z"/><path d="M57.7,3.93l1.37.57C59,3.81,59,3.4,59,2.92l-1,.44.1-.81-.25,0L57,4.33l.32.16Z"/><path d="M123.83,9.85c-.1-.44-.52-.79-.8-1.18-.28.21-.79.44-.78.62a5.74,5.74,0,0,0,.59,1.47C123.28,10.37,123.87,10,123.83,9.85Z"/><path d="M265.94,53.29a1.49,1.49,0,0,0-.95-.76,1.11,1.11,0,0,0-.85.55,2.67,2.67,0,0,0-.08,1.07C265.07,55,265.13,53.51,265.94,53.29Z"/><path d="M158.65,115.36v.37l1.91.28.23-.25-.86-1.15Z"/><path d="M126,9.21c-.55.8-1.86-.8-2,.9l2,.36Z"/><path d="M153.46,114.34l.71-.37c0,.23.08.43.14.74l1.21-.92C153.79,113,153.38,113.12,153.46,114.34Z"/><path d="M156.85,115.2c0-.4.05-.81.08-1.15l-2,.4Z"/><path d="M176.14,45.32h0Z"/></g></g></svg>