<svg xmlns="http://www.w3.org/2000/svg" viewBox="0 0 338.91 138.03"><defs><style>.cls-1{fill:#fff;opacity:0.2;}</style></defs><g id="Calque_2" data-name="Calque 2"><g id="Contours"><path class="cls-1" d="M330.84,70.05c-5.88-5-13.59-6.71-21.17-7.46.85-11.43,2.46-23.29-1.33-34.29-2.11-6.15-6.61-11.52-13.23-12.84-8.39-1.67-15.19,4.93-20.06,10.88-2.38,2.91-4.65,5.92-6.78,9-1,1.47-2,3-2.89,4.49-.53.92-1.57,3.89-2.64,4.42s-7.4-3.64-9.05-4.72c-4-2.59-7.62-5.44-12-7.29-5.57-2.34-11-1.93-16.86-2.9-4.46-.75-8.56-2.95-12.93-4.07-11.4-2.9-23.32-.65-34.7-3.35S156.83,11.4,145.65,8.49a32.92,32.92,0,0,0-16.14-.44c-4.71,1.16-9.13,3.41-13.63,5.27C107.8,3.36,94.48-.84,81.77.14A4.89,4.89,0,0,0,77.9,2.4c-17-2-34.47,0-51.15,3.84C9.14,10.29-.16,24.5,0,42.15c.17,18.19,8.34,33,25.78,39.38,7.83,2.88,16.4,3.91,24.7,4.25,10.38.43,20.77.44,31.15.87,5.6.23,11.75.78,17.27-.4a27.45,27.45,0,0,0,6.19-2.3c2-1,4.48-3,6.82-3.16,3.2-.22,6.75,3,9.33,4.68,3.5,2.22,7.09,4.63,11.12,5.78,5.28,1.51,11,1.08,16.43.57,5.85-.55,13-2.15,18.47.61,3.8,1.91,6.51,4.92,10.65,6.34,5.45,1.86,11.41,2.35,17,3.4,9.86,1.86,20.48,3.32,29.83,7.09,10.42,4.21,19.05,12.15,28.94,17.44,16.24,8.7,37.67,15,55.83,8.9,18.33-6.16,27.12-23.54,29.12-41.8C339.63,85,337.8,76,330.84,70.05Z"/></g></g></svg>