<svg xmlns="http://www.w3.org/2000/svg" viewBox="0 0 284.99 128.51"><g id="Calque_2" data-name="Calque 2"><g id="P2_m1_3"><path d="M147.86,62.23l0,.46a3.34,3.34,0,0,0-1.75,1.58c-.07.25-.19.68-.32.69-1,.06-1.16,1-1.77,1.52a6.82,6.82,0,0,0-1.91,2.08,5.27,5.27,0,0,1-1.46,1.3c-.34.28-.75.48-1.07.78-.69.66-1.31,1.38-2,2-.23.21-.76.2-.86.42-.29.64-.86.88-1.37,1.25a22.83,22.83,0,0,1-2.8,2.34,4.77,4.77,0,0,1-2.06.7A8.93,8.93,0,0,1,127.3,77a2.25,2.25,0,0,1-1.55-1c-.24-.44-.68-.77-.94-1.2a19.22,19.22,0,0,1-1.33-2.44c-.26-.62-.27-1.34-.51-2a15.29,15.29,0,0,1-.73-4,6.3,6.3,0,0,1,.26-3.07c.38-.93.69-1.89,1-2.86a6.05,6.05,0,0,0,.11-1.21l-.24.16c-.31-.17-.78-.28-.89-.53-.28-.65-1-1.26-.38-2.08a.8.8,0,0,0,0-.47c0-.62-.11-1.24-.1-1.85,0-1,.18-2,.1-3-.14-1.7.17-3.39,0-5.09-.07-.68.11-1.38.11-2.08,0-1.73,0-3.47,0-5.21a2.78,2.78,0,0,1,.11-1c.21-.52.17-1.18.93-1.41,1.21-.38,2.26-1.27,3.64-1.18.18,0,.36-.15.55-.22.85-.33,1.69-.68,2.55-1,.35-.12.76-.11,1.11-.24.69-.26,1.34-.62,2-.86.42-.14.93,0,1.35-.21,1.77-.64,3.53-1.33,5.28-2,.43-.17.83-.43,1.35-.7,0,0,.34.17.42.1a5.5,5.5,0,0,1,2.12-.85c1.27-.47,2.49-1.06,3.73-1.6l.13-.05c.71-.24,1.43-.46,2.13-.71,1.38-.51,2.75-1,4.12-1.55a4.62,4.62,0,0,0,.75-.42,7.75,7.75,0,0,1,.76-.51,1.86,1.86,0,0,0,1.24-2l.46.31a.89.89,0,0,0,.1-.16c0-.06,0-.16,0-.18-.42-.34-.16-1.28-1.32-1.05a7.7,7.7,0,0,0-2.14.71c-.87.44-1.72.94-2.61,1.33a6.34,6.34,0,0,0-1.88.81,4.75,4.75,0,0,1-1.68.75,11.3,11.3,0,0,0-2.65.88,20.38,20.38,0,0,1-2.83,1.07c-.6.22-1.19.45-1.77.73a9.84,9.84,0,0,1-1.32.77c-1,.33-2.09.48-3.08.85a26.2,26.2,0,0,1-3,1.08,12.69,12.69,0,0,0-3.62,1.13,11.43,11.43,0,0,1-2.41.71c-.47.15-.9.45-1.36.62-.71.26-1.44.43-2.15.68s-.76.06-.73-.54c.06-1,.09-2.05.1-3.08s0-2,0-3c0-.29,0-.58,0-.87,0-.91.07-1.83.09-2.75,0-.35,0-.71,0-1.07-.07-1.25-.18-2.49-.2-3.74,0-1.4.06-2.8.09-4.2q0-.93,0-1.86c0-.28-.08-.56-.07-.84s.12-.73.1-1.1c0-1.16-.43-2.3-.08-3.48a3.82,3.82,0,0,0,.08-.9l.09-2.29a1.09,1.09,0,0,0,0-.26,12,12,0,0,1,0-1.8,1.59,1.59,0,0,0-1.44-2c-.46,0-.86,0-1,.62s-.21.92-.26,1.39c-.07.73-.09,1.47-.14,2.2,0,.46-.09.93-.08,1.39,0,1,.11,2.1.11,3.15,0,.87-.12,1.75-.11,2.62s.17,1.48.18,2.22-.11,1.63-.13,2.45c0,1.52-.08,3.05-.1,4.58,0,.57,0,1.14,0,1.71,0,1.08.07,2.15.08,3.23a20.06,20.06,0,0,0-.07,2.05,16.82,16.82,0,0,1,0,4.37,12,12,0,0,0,0,2c0,.6-.08,1.13-.77,1.31a9.9,9.9,0,0,0-1.54.38,1.91,1.91,0,0,1-1.11.21,2.77,2.77,0,0,0-2.15.64,5.33,5.33,0,0,0-1.21.28c-.45.15-.87.36-1.33.47s-.66.27-.46.54a3.31,3.31,0,0,0-.66.75,1.07,1.07,0,0,0,0,.86c.12.16.54.09.83.12l.66.05a2.73,2.73,0,0,0,1,0c.54-.19,1-.68,1.57-.73a26.52,26.52,0,0,1,3.54-.53c.07,0,.15-.08.23-.1.3-.05.69-.23.89-.11a1.08,1.08,0,0,1,.33.84c0,1.41-.16,2.81-.19,4.22s0,2.55,0,3.83c0,.64,0,1.28,0,1.92s-.35,1.57.11,2.32a.35.35,0,0,1,0,.2c-.08.68-.21,1.36-.25,2a21.51,21.51,0,0,0,0,2.78,20.21,20.21,0,0,0,.45,2.16c0,.13,0,.36-.06.41-.39.23-.37.55-.34.93a13.21,13.21,0,0,1,0,1.54,5.78,5.78,0,0,1-.13,2,8.27,8.27,0,0,1-1.24,2.32c-.87,1-1.52,2.28-2.3,3.4s-1.75,2.35-2.56,3.56c-.58.87-1.07,1.8-1.57,2.72-.2.37-.4.55-.67.15-.41-.61-.75-1.27-1.12-1.91-.15-.27-.3-.55-.44-.83a12.57,12.57,0,0,1-.92-1.88c-.28-.82-.39-1.7-.6-2.55s-.55-1.81-.73-2.73c-.31-1.6-.55-3.21-.8-4.82-.16-1.06-.31-2.13-.44-3.19s-.27-2-.33-3c-.09-1.48-.13-3-.16-4.43,0-1.65-.07-3.31,0-5a2.55,2.55,0,0,0-1.19-2.2c-.61-.45-1.32,0-1.67.91-.59,1.46-.22,3-.36,4.48-.19,2-.19,4-.45,6-.23,1.82-.66,3.63-1,5.43-.15.72-.45,1.41-.64,2.12s-.26,1.32-.45,2c-.25.83-.55,1.64-.84,2.46-.47,1.37-.55,2.84-1.42,4.12-.6.88-1,1.87-1.7,2.75a1.86,1.86,0,0,1-2.06.94c-.54-.12-1.19.13-1.55-.57-.26-.51-.71-.93-.92-1.46a17.06,17.06,0,0,1-.89-3.26,14.58,14.58,0,0,1-.63-4s0,0,0-.06c-.07-1.23-.14-2.46-.2-3.69s-.1-2.33-.18-3.49c0-.91-.16-1.82-.22-2.73-.08-1.12-.11-2.24-.18-3.36,0-.28-.1-.57-.09-.85.08-1.34.22-2.68.27-4,0-1.14,0-2.28,0-3.42a4.16,4.16,0,0,0-.34-1.74c-.42-.77-1.14-.42-1.78-.21a1.86,1.86,0,0,0-1,1.47c0,.93,0,1.86,0,2.79a8.68,8.68,0,0,1,0,1.35c-.18,1.32-.41,2.63-.64,3.94-.1.57-.28,1.12-.36,1.69-.17,1.15-.25,2.31-.43,3.45-.1.63-.36,1.24-.49,1.86-.16.78-.19,1.6-.42,2.35-.4,1.3-.92,2.57-1.39,3.85a3.86,3.86,0,0,0-.43,1.12c0,1.33-.83,2.4-1.23,3.6a1.72,1.72,0,0,1-1.69,1.31,12.85,12.85,0,0,0-1.73.24.32.32,0,0,1-.19,0,13.3,13.3,0,0,1-2.07-.71c-.79-.4-1.78-.44-2.37-1.24a.35.35,0,0,0-.18-.1c-.92-.21-1.07-.72-.55-1.53A10.29,10.29,0,0,0,73,63.84c.34-1.47,1.46-2.6,1.54-4.18a11.4,11.4,0,0,1,.77-2.5,8.8,8.8,0,0,0,.44-1.75,12.17,12.17,0,0,0,.09-3A17.79,17.79,0,0,1,76,49.06c.06-1.24.09-2.49.13-3.73a1.86,1.86,0,0,0,0-.33,17.22,17.22,0,0,0-.23-2.51A6.27,6.27,0,0,0,75,39.86a15.16,15.16,0,0,1-1.32-2.45,3.41,3.41,0,0,0-.53-1c-.7-.64-1.5-1.19-2.21-1.82-1-.84-3.13.34-3.3,1.44A19.45,19.45,0,0,1,66,40.52c-.56,1.38-1.33,2.71-1.23,4.29a.48.48,0,0,1-.11.3,6.22,6.22,0,0,0-.9,2.71,16.74,16.74,0,0,0-.13,3.55,3.07,3.07,0,0,1-.14.52,18,18,0,0,0-.4,2.29c0,.85.1,1.71.12,2.56,0,.58-.07,1.15-.07,1.73a3.4,3.4,0,0,0,.14,1.15,1.53,1.53,0,0,1,0,1.35,1.18,1.18,0,0,0,.06.84c.23.56.53,1.09.81,1.63.17.3.09.78.59.86.06,0,.06.24.11.37a2,2,0,0,0,.31.69c.27.3.7.47.93.79s.38.9.64,1.31a1.37,1.37,0,0,1-.1,1.52,3.32,3.32,0,0,1-2.5,1.49A5.59,5.59,0,0,1,60.36,70a3,3,0,0,1-.69-.47,13.39,13.39,0,0,1-.9-1.07,9.67,9.67,0,0,1-1.1-1.4c-.34-.62-.41-1.44-.86-1.94s-.46-1.25-1.05-1.76-.49-1.32-.75-2a8.32,8.32,0,0,0-.47-.9c-.11-.82-.2-1.63-.35-2.43,0-.09-.31-.13-.42-.17a4.62,4.62,0,0,0,.09-1.17,11.35,11.35,0,0,1-.47-3.57.88.88,0,0,0-.06-.26c-.11-.77-.26-1.52-.33-2.29,0-.56.09-1.13,0-1.69-.16-1.88-.35-3.76-.55-5.64-.1-.94-.1-1.88-.26-2.83a16.27,16.27,0,0,0-.7-3.77c-.31-.76-.44-1.59-.74-2.35a3.67,3.67,0,0,0-.78-1c-.38-.41-.71-1-1.19-1.17A7,7,0,0,0,45,31.26c-1.26.19-2.42.41-3.16,1.57a10.5,10.5,0,0,1-1,1.64,5.85,5.85,0,0,0-1.27,2.18,7.79,7.79,0,0,1-.7,1.3c-.07-1.22,0-2.4,0-3.58,0-2.44,0-4.88,0-7.33a6.57,6.57,0,0,0-.19-1.15c-.08-.17.06-.37.06-.57,0-1.09.07-2.17,0-3.26-.05-1.28-.2-2.57-.27-3.85A15.08,15.08,0,0,0,38.15,14a3.72,3.72,0,0,0-1.5-2,2,2,0,0,0-2.34.37A18.76,18.76,0,0,0,33.09,14c-.86,1.24-1.67,2.51-2.54,3.74-.56.79-1.18,1.54-1.76,2.32a10.92,10.92,0,0,1-.65,1.05c-.75.85-1.55,1.64-2.29,2.49-.48.55-.81,1.23-1.32,1.73a1.09,1.09,0,0,0-.41,1.11,5.16,5.16,0,0,1,0,1c-.7-.56-1.15-.44-1.44.16A5.85,5.85,0,0,1,22,28.64c-.13.17-.44.22-.52.39a12.59,12.59,0,0,1-2,2.6c-.33.41-.49.95-.82,1.36-.88,1.11-1.85,2.14-2.68,3.28-.32.44-1.09.78-.75,1.36a3.1,3.1,0,0,0-.79.57c-.39.56-.63,1.22-1.06,1.73A6.16,6.16,0,0,0,12,41.81a1.12,1.12,0,0,1-.37.55c-1.71,1.27-2.44,3.24-3.47,5-.61,1-1,2.19-1.62,3.26-.26.51-.84.71-.91,1.5s-.83,1.36-1.29,2a21.41,21.41,0,0,0-1.61,2.44,27.65,27.65,0,0,0-1.38,3.65c-.42,1.32-.76,2.68-1,4A9.22,9.22,0,0,0,.1,67.92c.26,1.43.5,2.87.82,4.28a1.24,1.24,0,0,0,.71.76c.17.07.57-.19.75-.4a3.41,3.41,0,0,0,.7-3.43A4.32,4.32,0,0,1,3,67.74c.06-1.12.16-2.24.28-3.36a9,9,0,0,1,.32-1.64,8,8,0,0,0,.67-2.08c0-.78.56-1.18.76-1.8a16.58,16.58,0,0,1,1.57-2.48,13.62,13.62,0,0,0,.77-1.93.34.34,0,0,0,0-.2c-.22-.55.09-.65.6-.59,0-.21-.07-.35-.1-.51.5,0,.66-.28.73-.69,0-.12,0-.27.06-.36.65-1,1.32-2,2-2.94s1.09-1.84,1.66-2.74c.23-.36.56-.66.8-1,.75-1.08,1.47-2.18,2.22-3.26,1.11-1.61,2.22-3.22,3.36-4.8a10.48,10.48,0,0,1,1.68-2,1.2,1.2,0,0,0,.49-1.22,4.8,4.8,0,0,0,.54-.39c.51-.53,1-1.07,1.51-1.61.24-.27.93-.33.45-1a1.49,1.49,0,0,0,.2-.15c.54-.59,1.1-1.16,1.6-1.78a18.23,18.23,0,0,1,1.36-1.84,6.87,6.87,0,0,0,2.26-2.94c0-.08.1-.14.16-.2.74-.77,1.52-1.5,2.22-2.31s1.52-1.91,2.27-2.87c.11-.14.18-.31.28-.46.41-.68.81-1.35,1.25-2,.1-.15.3-.23.55-.41a4.35,4.35,0,0,1,.22.78,24.28,24.28,0,0,0,.26,3,18.11,18.11,0,0,1,0,4.29c0,.85,0,1.7,0,2.55,0,1.1,0,2.19,0,3.29,0,.26-.12.53-.1.79,0,1,.14,2.05.2,3.07a8.55,8.55,0,0,1,0,1.34c-.07.7-.24,1.39-.28,2.1,0,1.1,0,2.21,0,3.32,0,.27-.06.54,0,.8a4.54,4.54,0,0,1-.88,3.1,5.36,5.36,0,0,0-.38.55c-.72,1.29-1.43,2.59-2.16,3.87-.4.69-.85,1.36-1.28,2a.91.91,0,0,1-.11.16,25,25,0,0,0-1.61,2c-.72,1.07-1.32,2.24-2,3.31-1.37,2-2.8,4-4.21,6-.31.45-.67.87-1,1.3A10.91,10.91,0,0,0,20.19,66c-.75,1.7-2.08,3-2.75,4.81a10.57,10.57,0,0,0-1.08,3.81c.32.21.8.38.81.57,0,.52.4.55.68.54a1.19,1.19,0,0,0,.81-.4,3.22,3.22,0,0,0,.54-1.21,9.16,9.16,0,0,1,1.37-3.62c.25-.34.59-.63.81-1,.6-1,1.11-2,1.74-2.86S24.5,64.9,25.22,64c.56-.68.79-1.56,1.42-2.22a23.35,23.35,0,0,0,1.68-2.24c.53-.69,1.13-1.34,1.6-2.07.83-1.29,1.59-2.62,2.38-3.94a1.54,1.54,0,0,0,.08-.19c.69-1,1.37-2.08,2.09-3.09.12-.17.43-.2.66-.3a2.67,2.67,0,0,1,.17.82c0,.37-.27.73-.29,1.1-.12,1.81-.21,3.61-.3,5.41-.05,1-.14,1.92-.15,2.87,0,.76,0,1.52.08,2.27a9.51,9.51,0,0,1,0,1.06c0,1.14-.11,2.27-.14,3.41,0,.67,0,1.35,0,2,0,1.21-.12,2.41-.13,3.61,0,.94.08,1.87.11,2.81,0,.69,0,1.38,0,2.06a20.27,20.27,0,0,0,0,2.06c.07.93-.27,1.87.12,2.81a5.56,5.56,0,0,1,.18,1.29c0,.27-.16.68-.21,1.1a11.54,11.54,0,0,1-.1,2.81,6.32,6.32,0,0,0,0,1.44c0,.86-.12,1.71-.19,2.56-.09,1.2.23,2.36.08,3.58-.22,1.76-.16,3.56-.26,5.33,0,.62-.22,1.24-.26,1.85s0,1.3,0,2c0,.5-.09,1-.12,1.5-.07,1-.1,1.9-.2,2.85s-.27,2.08-.42,3.12a6.46,6.46,0,0,0-.11.75,23.78,23.78,0,0,1,0,2.92c-.21,1.88-.62,3.73-.81,5.61s-.22,3.65-.32,5.47c0,.11,0,.29-.05.32-.45.25-.16.59,0,.79a6.92,6.92,0,0,0,.78,1l1.36-.36a1.13,1.13,0,0,1,.21-.38,2.15,2.15,0,0,0,.54-2.3,1.67,1.67,0,0,1,0-.59c.17-1,.4-1.93.51-2.9.16-1.49.23-3,.35-4.49.05-.63.11-1.25.17-1.88.12-1,.27-2.1.35-3.15.06-.79,0-1.58,0-2.37,0-1,.07-1.94.16-2.9.13-1.31.33-2.61.45-3.92a9.92,9.92,0,0,0,0-1.45,5.87,5.87,0,0,0,.13-.91c0-.81,0-1.63-.06-2.45a.94.94,0,0,1,.12-.3c.46-1.31.06-2.56-.12-3.91a2.05,2.05,0,0,0,.21-2.09,1.14,1.14,0,0,1-.17-.54c.08-.77.24-1.53.3-2.29s0-1.27,0-1.91c0-1,0-2,0-2.93,0-.38,0-.75,0-1.13,0-.8.07-1.59.11-2.39a10.47,10.47,0,0,0,.13-2.29A24.83,24.83,0,0,1,37.37,73c.07-1.06,0-2.13,0-3.2,0-.5,0-1,0-1.51,0-.69,0-1.39,0-2.09,0-.17-.16-.35-.15-.53,0-.7.18-1.4.19-2.1,0-1.11-.11-2.23-.07-3.34,0-1.55.2-3.09.29-4.64,0-.3-.18-.67-.06-.92.55-1.19.2-2.46.38-3.68.13-.86.06-1.74.11-2.62.08-1.18.15-2.37.3-3.54a5,5,0,0,1,.54-1.73c.69-1.24,1.49-2.42,2.21-3.65.56-.95,1.06-1.94,1.6-2.91.19-.35.46-.67.62-1a2.56,2.56,0,0,1,3.37-1.34,3.78,3.78,0,0,1,1.4,1.35,30.12,30.12,0,0,1,1.35,2.94s0,.09,0,.13c.06,1.18.13,2.35.19,3.52,0,.6,0,1.2,0,1.79.07.86.17,1.73.26,2.59.06.52.13,1,.19,1.57.14,1.19-.15,2.43.38,3.57.15.31.34.6.54,1-.62.2-.39.85-.37,1.42a7,7,0,0,1,.07,1.2c-.23,1.63.48,3,1,4.49.19.55.43,1.08.58,1.64s.28,1.38.44,2.06a.62.62,0,0,0,.26.37,2.45,2.45,0,0,1,1,1.53,11.79,11.79,0,0,0,.77,2.38,19.41,19.41,0,0,0,3,4,6.61,6.61,0,0,0,1.29.83,3,3,0,0,0,1,.46c1.08.11,2.17.11,3.26.2a3.44,3.44,0,0,0,3.21-1c.47.38.82.14,1.14-.24.47-.54,1-1.07,1.43-1.6.25-.27.49-.4.87-.09a7.44,7.44,0,0,0,1.32.76,5.72,5.72,0,0,1,1.46.74c.73.74,1.76.42,2.55.87.07,0,.23-.09.35-.14a1.1,1.1,0,0,1,.22-.1c.36.51,1,.32,1.43.44,1.85.48,2.46.26,3.19-1a1,1,0,0,0,1.32-.78,1.54,1.54,0,0,1,.24-.48A13.31,13.31,0,0,0,84.25,66c.27-.79.51-1.58.76-2.37a5.2,5.2,0,0,1,.21-.67c.25-.51.53-1,.8-1.53l.19.09a3.36,3.36,0,0,0,.18,1.11,7,7,0,0,1,.42,2.89c.07,1,0,2.06.12,3.07a7.73,7.73,0,0,0,.68,2.19c.4.85.21,1.81.73,2.68A9.85,9.85,0,0,0,90,75.84a1.37,1.37,0,0,0,1.71.25,1.49,1.49,0,0,0,1.81.94,1.72,1.72,0,0,1,.66.09,1.42,1.42,0,0,0,1.54-.34,11.63,11.63,0,0,1,1.59-1.55c1.22-.89,1.66-2.26,2.27-3.51A34.42,34.42,0,0,0,100.93,68c.13-.37.19-.76.32-1.12.26-.71.6-1.39.8-2.11.3-1.08.5-2.18.77-3.26a10.09,10.09,0,0,1,.4-1.17h.2c0,.31.07.62.09.94a10.28,10.28,0,0,0,0,1.47c.3,1.53.73,3,1,4.58a5.44,5.44,0,0,0,1,2.44c-.09.18-.25.35-.21.46.26.87.56,1.72.85,2.58a4.74,4.74,0,0,0,.29.74c.45.81.94,1.6,1.38,2.42.17.31.15.74.35,1a23.38,23.38,0,0,0,1.53,1.77,2.15,2.15,0,0,0,3-.12c.57-.9,1-1.88,1.57-2.81s1-1.76,1.62-2.61c.31-.46.78-.81,1.09-1.27.69-1,1.31-2.1,2-3.15a.62.62,0,0,1,.4-.26.5.5,0,0,1,.33.32c.07.32,0,.68.11,1,.3,1,.71,2,1,3a10.34,10.34,0,0,0,1.86,3.59c.42.57.67,1.33,1.21,1.72s1.15,1.48,2.26,1.13c.07,0,.17,0,.26,0a10.54,10.54,0,0,0,2,.55c1.15.08,2.34.42,3.48-.18a4.48,4.48,0,0,1,1-.2,1.4,1.4,0,0,0,.63-.23c.38-.38.65-.82,1.3-.92.5-.09.85-.62,1.41-.85a7.92,7.92,0,0,0,2.26-1.68c1.36-1.25,2.67-2.55,4-3.82l1.72-1.68c.78-.78,1.57-1.56,2.34-2.35s1.48-1.69,2.31-2.44a6,6,0,0,0,1.47-2.5.58.58,0,0,0,0-.39A1.92,1.92,0,0,0,147.86,62.23ZM69.52,64.65a4.26,4.26,0,0,1-.74.86c-.49-.79-1.39-1.15-1.67-2.19-.12-.47-.63-1-.84-1.52a6.69,6.69,0,0,1-.21-3.35,3.31,3.31,0,0,0-.06-.53c0-1.19,0-2.38.07-3.58,0-1.42.05-2.86.17-4.28.09-1.06.31-2.1.5-3.15a11.59,11.59,0,0,1,.55-2.43c.24-.59.67-1.08.45-1.77,1.38-1.35,1.35-3.33,2.21-4.91,0,0,.1-.07.19-.13.64.55,1.38,1,1.49,2,0,.24.29.44.4.69.35.79.68,1.6,1.06,2.49l.41,0a3.91,3.91,0,0,0-.29,1.43,16.29,16.29,0,0,1,.07,4.41A8.93,8.93,0,0,0,73.19,51a5.07,5.07,0,0,1,.11,2.15A8.61,8.61,0,0,0,73,54.28a16.5,16.5,0,0,1-1,4.8A46.51,46.51,0,0,1,69.52,64.65Z"/><path d="M284.87,88.93a1.39,1.39,0,0,1-.06-.19c-.11-.67-.47-1-1.06-.73a15.24,15.24,0,0,0-1.88,1.08,10.11,10.11,0,0,1-1.93,1.2,14.24,14.24,0,0,1-6.92.56,29,29,0,0,1-2.89-.58c-1.49-.41-3-.85-3.64-2.53a.25.25,0,0,0-.13-.14c-.53-.23-.46-.72-.5-1.16a3.08,3.08,0,0,0,0-.53A3,3,0,0,1,267.07,83c.16-.09.38-.15.45-.29a9.59,9.59,0,0,1,2.17-2.85,9.93,9.93,0,0,0,1.05-1.19,12.51,12.51,0,0,0,.8-1c.45-.69.85-1.4,1.29-2.09.26-.39.55-.76.83-1.13L276,71.52a4.54,4.54,0,0,0,.36-.5c.27-.48,1-.49,1.13-1.2,0-.27.33-.5.52-.75a10.22,10.22,0,0,0,1.18-1.63,30.89,30.89,0,0,0,1.24-3.37c.2-.61.18-1.29.37-1.9a7.38,7.38,0,0,0,.16-3c-.12-1.11-.91-1.28-1.54-1.71a1.55,1.55,0,0,0-1.2-.25A3.19,3.19,0,0,1,276.3,57a3,3,0,0,0-.73-.1c-.7,0-1.41.16-2.11.11a4.19,4.19,0,0,0-3.06,1.13,43.07,43.07,0,0,0-3.3,3.32,5.19,5.19,0,0,0-.7,1c-.27.48-.52,1-.77,1.47a9.58,9.58,0,0,0-.68,1.45c-.26.84-.45,1.71-.64,2.57s-.4,1.84-.53,2.76a30.39,30.39,0,0,1-.25,3.54,22.11,22.11,0,0,0-.47,3.91c-.09,1.18,0,2.36-.13,3.54-.05.73.23,1.59-.51,2.14-1.31,1-2.59,2-4,2.78a7.22,7.22,0,0,1-2.82,1.08,14.63,14.63,0,0,1-5.18-.43,1.29,1.29,0,0,1-.93-1.21,17.77,17.77,0,0,1-.05-1.93c0-.71,0-1.42,0-2.12,0-.54.42-1,.06-1.6,0-.06,0-.17,0-.25,0-.26.07-.51.11-.76s.09-.69.18-1,.27-.39.29-.59a6.74,6.74,0,0,1,1-2.6c.57-1,1-2,1.54-3.06.45-.85.93-1.68,1.42-2.49.17-.27.47-.45.64-.72.37-.58.67-1.21,1-1.79a12.18,12.18,0,0,0,1.52-2.44c.24-.78,1-1.46.69-2.41,0-.07,0-.17.06-.26.38-1.54-.1-2.51-1.64-2.8a10.19,10.19,0,0,0-2.13.07c-.31,0-.62-.06-.93-.05-1.44,0-2.88.14-4.32.16s-2.81-.08-4.21-.05c-.45,0-.67-.16-.7-.52-.06-.69-.06-1.38-.07-2.07,0-1.38.23-2.8-.56-4.06a2.33,2.33,0,0,0-.7-.66,4,4,0,0,0-.7-.31c-1.21-.55-3-.17-3,1.6,0,.87-.18,1.74-.14,2.6,0,.56,0,1.22.55,1.62a3.53,3.53,0,0,0-.72,2.23.5.5,0,0,1,0,.13,7.25,7.25,0,0,1,.17.78c.06.67.31,1,1.07,1.1.95.06,1.1.35.85,1.27s-.51,1.88-.77,2.82-.52,2.17-.89,3.21A8,8,0,0,1,238,71.44c-.46.61-1,1.33-.63,2.07-.46.52-.87.95-1.26,1.4-.76.9-1,2.12-1.79,3s-1.33,2.44-2.42,3.36a2.72,2.72,0,0,0-.25.32,11.37,11.37,0,0,1-.93,1c-.76.72-1.52,1.44-2.34,2.09-.53.42-1.17,1-1.77,1a3.48,3.48,0,0,1-3.47-2,1.13,1.13,0,0,0-.45-.49,3,3,0,0,1-1.41-2.66c.07-1,.08-2.09.08-3.14,0-.68-.07-1.37,0-2.06,0-1.21.13-2.41.19-3.62,0,0,0,0,0-.07a22.73,22.73,0,0,1-.27-3.17,20,20,0,0,1,.55-2.71,2.64,2.64,0,0,0,0-1.28c-.15-.44-.69-.82.11-1.15.05,0,.07-.16.08-.24.1-1.53.2-3.06.28-4.6,0-.64,0-1.28.08-1.92s.22-1.36.3-2,.08-1.08.14-1.62c.09-.92.2-1.84.29-2.76,0-.41,0-.83.06-1.28l-.66,0-.08-.23.81-.35-.45-.55c1-.48.72-1.35.66-2.19l-.32-.07a4.34,4.34,0,0,0,.6-1c.18-.59.22-1.23.36-1.84q.33-1.5.72-3c.4-1.55.82-3.1,1.24-4.64a.76.76,0,0,1,1-.59c.67.18,1.33.4,2,.62A29.4,29.4,0,0,1,232,36.26a1.06,1.06,0,0,0,1.18-.13.75.75,0,0,0,.29-1.06c-.08-.14,0-.37,0-.56-.18-.07-.44-.09-.49-.2-.54-1.09-1.73-1.08-2.62-1.53a12.75,12.75,0,0,0-2.93-.77.93.93,0,0,1-.68-1.16,10.53,10.53,0,0,1,.61-2.52,26.86,26.86,0,0,0,1.21-7.27c.16-2,.13-3.94.15-5.9,0-1-1.23-2-1.93-1.56a2.19,2.19,0,0,0-1.25,1.81c0,.84,0,1.69-.07,2.54-.07,1.07-.21,2.13-.32,3.19-.1.89-.17,1.79-.31,2.67s-.33,1.58-.49,2.36c-.3,1.4-.59,2.81-.9,4.21a.76.76,0,0,1-1,.62c-.78-.13-1.55-.26-2.33-.32a1.85,1.85,0,0,0-.9.32,3,3,0,0,0,.17.55l-.74.51c.32.41.55,1,1,1.2a8.17,8.17,0,0,0,2.07.4c.66.12.92.49.73,1.1-.36,1.15-.75,2.29-1.12,3.43-.12.39-.18.79-.32,1.17-.41,1.1-.88,2.18-1.26,3.29a34.85,34.85,0,0,1-1.09,3.46,7,7,0,0,0-1.12,3.34.49.49,0,0,1-.07.19c-.28.65-.6,1.29-.85,2-.41,1.07-.77,2.16-1.16,3.24a6.86,6.86,0,0,1-.52,1.25c-.52.88-1.15,1.7-1.64,2.6-.6,1.09-1.13,2.24-1.63,3.39a6.24,6.24,0,0,0-.32,1.45c-.16.85-.84,1.43-1.17,2.16a19.75,19.75,0,0,1-1.56,2.72c-.31.47-.52,1.08-1,1.36-1.07.73-1.76,1.87-3,2.49A9.84,9.84,0,0,1,202,73.47a6,6,0,0,0-.81.29,6.16,6.16,0,0,1-1.29.39,25,25,0,0,1-2.6.09,9.91,9.91,0,0,1-2-.15c-.61-.12-1.17-.59-1.76-.6a2.63,2.63,0,0,1-2-1.23,4.19,4.19,0,0,1-.92-3.42,1.08,1.08,0,0,0-.1-.58c-.29-.67.14-1.21.3-1.79,0-.12.28-.23.44-.25,1.3-.19,2.61-.3,3.9-.52a10.19,10.19,0,0,0,3.94-1.51c1.22-.81,2.31-1.82,3.55-2.57A14.08,14.08,0,0,0,206.11,58a5.46,5.46,0,0,0,1-2.31c.2-.89.05-1.86.24-2.76.37-1.78-.49-3.13-1.4-4.41a2.53,2.53,0,0,1-1.23-.4,1.08,1.08,0,0,0-1.29-.28c-.57-.71-1.11-.75-1.69-.2-.37-.16-.7-.45-.9-.38-1,.37-1.93-.09-2.9,0s-2,.07-2.94.12a2.36,2.36,0,0,0-1.11.18,9.05,9.05,0,0,0-2.48,1.84c-.77,1-1.72,2-1.87,3.43s-.6,2.93-.87,4.4c-.31,1.67,0,3.41-.58,5.07-.27.77-.52,1.21-1.29,1.27a4.6,4.6,0,0,0-3.37,1.31c-.74.85-1.63,1.58-2.41,2.4A16.55,16.55,0,0,0,179.62,69a19.39,19.39,0,0,0-1.4,2.08,21.14,21.14,0,0,0-.86,1.94c-.16.36-.37.7-.52,1.06a9.45,9.45,0,0,0-.53,1.52c-.2,1-1,1.83-.52,3,.18.38.19.79.7.86s1.1.23,1.39-.31a12.17,12.17,0,0,0,1.24-2.76,17.58,17.58,0,0,1,1.44-3.86c.13-.25.11-.64.3-.77a3.06,3.06,0,0,0,1.22-1.61.68.68,0,0,1,.27-.29,1.35,1.35,0,0,0,.76-1,.44.44,0,0,1,.28-.31c.64-.08.9-.64,1.3-1a9.73,9.73,0,0,1,.79-.65c.18-.13.4-.21.57-.34a1.23,1.23,0,0,1,1.57,0c.25.2.24.84.23,1.28a22.67,22.67,0,0,0-.18,2.31,4,4,0,0,0,1.07,2.89l.87.79a2.59,2.59,0,0,1,.59,1c.11.5.84,0,.83.58h1.13c.12.18.21.46.39.56a8.65,8.65,0,0,0,1.33.55,7.2,7.2,0,0,0,1.88.55c1.4.06,2.8-.06,4.2,0a2.81,2.81,0,0,0,1.44-.51c1-.54,2.32-.45,3.34-1.17s1.87-1.12,2.73-1.78a19.51,19.51,0,0,0,2.46-2.26c.4-.43,1-.63,1.2-1.33.08-.33.65-.51.35-1,0-.07.07-.26.16-.35.48-.48.64-1.16,1.16-1.63a2.55,2.55,0,0,0,.57-1,16.51,16.51,0,0,1,.48-1.74c.52-1.13,1.14-2.22,1.69-3.34.36-.72.65-1.47,1-2.19.45-1,.92-1.91,1.39-2.86.35-.72.74-1.43,1.06-2.16s.54-1.4.81-2.11a22.6,22.6,0,0,1,.08,3.17c-.06.92-.28,1.84-.36,2.77-.16,2-.28,4.06-.43,6.08-.07,1-.17,2-.23,3,0,.63,0,1.26,0,1.89a4.14,4.14,0,0,1-.09,1.46,7.16,7.16,0,0,0-.25,3.31,13.39,13.39,0,0,1-.08,2.53c0,.53-.17,1,.22,1.48.08.09,0,.3,0,.46s0,.39,0,.58a7.68,7.68,0,0,1,0,.83c0,.15-.17.29-.16.43a13.72,13.72,0,0,0,.19,2.49,6.34,6.34,0,0,0,1.7,3.14,11.53,11.53,0,0,1,.73,1,8.59,8.59,0,0,0,2.46,2,4.43,4.43,0,0,0,2.86.42,3.63,3.63,0,0,0,2.29-.84,7.1,7.1,0,0,1,1.25-.9,9.48,9.48,0,0,0,1.1-.72c.82-.75,1.61-1.52,2.38-2.31.44-.45.82-.94,1.24-1.43a4,4,0,0,0,.75-.64c.24-.33.35-.75.56-1.1.52-.82,1.08-1.62,1.59-2.45a8.77,8.77,0,0,0,.62-1.27c.19-.48.35-1,.52-1.45.2-.25.67-.38.85-.69a6.47,6.47,0,0,0,1.11-2.58c.08-.7.23-1.38.35-2.07l.44.56c.09-.16.19-.31.27-.48a9.65,9.65,0,0,1,.57-1.27c.58-.92.05-2.18.92-3,0,0,0-.21,0-.32,0-.52,0-1,0-1.56,0-.34.23-.66.25-1,0-.73.34-1,1.08-1,.35,0,.71.06,1.07.12,1.15.18,2.28-.32,3.47,0a8.37,8.37,0,0,0,2.4,0c1.19-.06,2.38-.19,3.58-.29.13.59.28,1.08-.29,1.45-.13.08-.17.31-.26.46-.26.46-.52.92-.79,1.37-.09.15-.25.27-.33.42-.53,1-1,2.08-1.57,3.12,0,0-.07.06-.1.1-.46.66-1,1.3-1.36,2-.84,1.49-1.67,3-2.39,4.54a10.72,10.72,0,0,0-.92,2.91,18.51,18.51,0,0,0-.43,5.15c.12.91-.07,1.86,0,2.78,0,.55.48,1.12.39,1.61-.13.68.25.92.61,1.26s.75.85,1.22,1a8.18,8.18,0,0,0,2.27.39c1.42.09,2.84.12,4.26.14a4.17,4.17,0,0,0,1.59-.21c1.32-.55,2.59-1.19,3.88-1.82a5,5,0,0,0,.6-.42l1.38-.82a8.57,8.57,0,0,0,.81,1.55c.66.8,1.4,1.55,2.13,2.29a6.91,6.91,0,0,0,1,.71c.23.07.35.34.56.44a11.34,11.34,0,0,0,1.51.55c.67.23,1.34.44,2,.64a7,7,0,0,0,2.7.3c1.4-.16,2.83,0,4.21-.23a19.5,19.5,0,0,0,3.21-.92A5.69,5.69,0,0,0,282,92c.76-.47,1.5-1,2.28-1.42A1.16,1.16,0,0,0,284.87,88.93Zm-94-28c.11-1,.37-1.93.55-2.9s.39-2.16.6-3.23a9.87,9.87,0,0,0,.44-2.09c0-.85.48-1.21,1-1.65.29-.25.48-.68.81-.85a3.55,3.55,0,0,1,1.4-.33c1.27,0,2.55,0,3.82,0,.66,0,1.31.13,2,.13a4.32,4.32,0,0,1,2.53,1,.76.76,0,0,0,.22.09c.08,1,.18,1.84.19,2.71a3.38,3.38,0,0,1-.21,1.5,11,11,0,0,1-2.54,3.54c-.85.78-1.76,1.47-2.64,2.2a8,8,0,0,1-3.57,1.87c-1.08.22-2.17.44-3.26.59a5.54,5.54,0,0,1-1.34-.13A20.8,20.8,0,0,1,190.92,61ZM266,77.82c.23-1.67.46-3.35.67-5a1.48,1.48,0,0,0-.09-.92.82.82,0,0,1,.09-1.14c.43-.5.33-.89-.21-1.31a9.25,9.25,0,0,0,.93-2,11.81,11.81,0,0,1,1.84-4.09A14.57,14.57,0,0,1,272,60.53a4.46,4.46,0,0,1,3.27-1,8.89,8.89,0,0,1,1.6.32c.36.09.72.21,1.2.35a4.69,4.69,0,0,1-.46,2.57.81.81,0,0,0-.13.45c0,1.52-1,2.67-1.48,4a8.75,8.75,0,0,1-1.67,2.17c-.69.79-1.5,1.49-2.13,2.32-1.34,1.8-2.58,3.66-3.88,5.48-.59.82-1.22,1.63-1.88,2.4-.16.2-.5.26-.74.38C265.81,79.16,265.89,78.49,266,77.82Z"/><path d="M191.4,39.47a4.72,4.72,0,0,0,1.51-.08,23.19,23.19,0,0,0,3-1.39c.73-.4,1.38-1,2.09-1.4a23,23,0,0,1,2.11-1.17c.47-.22,1-.29,1.49-.48,1-.39,2-.81,2.92-1.21.19.37.26.72.45.81.74.34.92,1.13,1.41,1.66a2.56,2.56,0,0,1,.48.77c.17.48.24,1,.43,1.48.35.81.54.89,1.32.61.24.69.6.65,1,.22A2.17,2.17,0,0,0,210,37c-.14-.27-.21-.58-.34-.87a6.58,6.58,0,0,0-.66-1.36,12.71,12.71,0,0,0-1.28-1.26c-.3-.29-.71-.51-.49-1.06a.56.56,0,0,0-.14-.49,2.34,2.34,0,0,0-1.87-.76c-.63.12-1.39-.31-1.91.4,0,.06-.22,0-.32,0a8.18,8.18,0,0,0-.88.27c-.48.19-.93.43-1.41.61a9,9,0,0,0-.93.2,3.28,3.28,0,0,1-1.47.63c-.11,0-.22.13-.34.19-.28.18-.55.36-.85.52s-.38.11-.55.2c-.52.26-1.05.53-1.55.84s-1,.47-1.14.85a.85.85,0,0,1-.83.58c-.8.1-.95.3-.94,1.1v.61a.76.76,0,0,1-.36-.43c-.07-.17-.12-.35-.19-.56a2,2,0,0,0-.37,2C191.25,39.37,191.33,39.47,191.4,39.47Z"/><path d="M173.69,49.56l.18-.77a1.32,1.32,0,0,0-.28-.11c-1.49-.18-3-.36-4.46-.52-.88-.09-1.76-.62-2.66,0a.35.35,0,0,1-.26,0,8.07,8.07,0,0,0-3.14-.59,8.58,8.58,0,0,1-1-.18,2.6,2.6,0,0,0-1-.1c-.22.07-.37.41-.54.62-.53-.69-1.21-1.08-1.5-.14l-.85-.73-.06.21a9.43,9.43,0,0,1-1.19,0c-.63-.07-1.24-.23-1.87-.31a8.69,8.69,0,0,0-1.14,0l.21,1-.51-.12c0,1.24,0,1.28,1.11,1.66a14.89,14.89,0,0,0,2,.4,6.9,6.9,0,0,0,1.48.23c.82,0,1.63-.19,2.44-.29a.91.91,0,0,1,.33,0l1.12.23c.14.33.49.43,1,.27a1.69,1.69,0,0,1,.67,0c.84.11,1.68.28,2.52.31.32,0,.65-.29,1-.45.13.5.55.61,1,.63a14.83,14.83,0,0,1,2.8.37,15.79,15.79,0,0,0,2.56.21c.11-.36.22-.75.3-1L175,50s0-.09-.05-.13Z"/></g></g></svg>