<svg xmlns="http://www.w3.org/2000/svg" viewBox="0 0 305.47 174.07"><defs><style>.cls-1,.cls-2{fill:#fe5f58;}.cls-1{opacity:0.2;}</style></defs><g id="Calque_2" data-name="Calque 2"><g id="Phrase_1" data-name="Phrase 1"><g id="P1_m3_3"><path class="cls-1" d="M296.84,11.9c-8.07-9.29-21.7-12-33.15-8A17.64,17.64,0,0,0,257,8.05c-2.06,2-3.41,5.19-6.55,4.43-2.91-.71-5.44-2-8.52-1.76s-6.22,2.39-9.4,1.9c-2.65-.41-5.16-2.36-7.55-3.51-2.88-1.4-5.94-2.41-8.91-3.61A74,74,0,0,0,196.26.22c-10.93-1.22-23.17,2.57-28.6,13-1.31,2.5-.16,2-3,3s-5.56,1.15-8,3c-5.12,3.74-4.28,10.2-8.25,14.39-4.17,4.42-12.43,5.05-18.07,4.56s-11.16-1.39-16.74-.22c-5.34,1.11-9.79,4.38-13.24,8.5-3.81,4.56-6,10.52-9.48,15.25-3.55-3.2-6.29-7.36-9.35-11A45.18,45.18,0,0,0,67.15,39.37c-10.28-5.29-21.17-8-32.35-7.15a12.69,12.69,0,0,0-2-.42c-6.48-.83-12.84,2.54-17.51,6.79-9.6,8.75-9.84,24-11.23,36-1.65,14.24-7.45,31.1-1.16,44.93,4.38,9.63,13.09,10.09,20.55,6.18-.23,1.23-.44,2.44-.55,3.63a55.8,55.8,0,0,0,.44,10.65c.68,6.58,1.83,13.08,5.35,18.81,6.22,10.12,19.23,16.52,31.11,15.13,12.12-1.41,18.87-12.66,21.94-23.4,3.62-12.65.77-23.62-4.11-34.95a28.09,28.09,0,0,0,18.08-10.69c5.44,3.27,12.41,1.89,18.08-1.31,3.51,16.57.45,35.86,11.7,49.6,6.27,7.65,17.66,11,27.18,8.31,11.06-3.07,15-14.18,16.51-24.41a52,52,0,0,0-1.2-21.57C165.8,107.57,162,100.4,158.65,93a104.68,104.68,0,0,0,18.57-4.85c4.09-1.43,8.17-3,12.37-4.12.49-.14,1-.25,1.49-.36.16.64.41,1.4.45,1.65,2.44,13.13,6,30.2,20.35,35,11.81,4,26.86-1.71,34.62-11a31.56,31.56,0,0,0,7.32-20.21c-.07-6.51-3.19-12.23-4.75-18.32,1.5.35,3,.76,4.55,1.06a35,35,0,0,0,10.71.18,52.75,52.75,0,0,0,17.83-5.13c10.07-5,20.43-13.28,22.68-24.9A36.26,36.26,0,0,0,296.84,11.9Z"/><path class="cls-2" d="M106.88,76.43a0,0,0,0,0,0,0h0Z"/><path class="cls-2" d="M298.47,35.4c-.13-.11-.54.11-.81.21a2,2,0,0,0-.42.27c-.05-.35-.09-.65-.14-1-.39.06-.8.09-1.19.19s-.62.28-.94.4a6.72,6.72,0,0,1-1.67.58c-.6.06-1.16.68-1.68,1.14a22.09,22.09,0,0,1-9.26,5.06,1.88,1.88,0,0,1-1.29-.06c-2.78-1.74-4.45-4.16-4.35-7.58a1.19,1.19,0,0,1,.65-1.06,32.12,32.12,0,0,0,4.45-3.15,6.9,6.9,0,0,0-.58-10.8c-1.49-1.14-3.25-1.84-5.09-.82-.71.39-1.47.49-2.16.82a3.34,3.34,0,0,0-1.16.92A9,9,0,0,0,271,25.38c-.3,2.23-.5,4.47-.69,6.71a1.85,1.85,0,0,1-.76,1.48A4.24,4.24,0,0,0,268,36.2c-.27,1.18-.43,2.39-.64,3.58a15.53,15.53,0,0,1-2.26,6.27,18.5,18.5,0,0,0-.94,1.75c-.89.18-1.11.16-1.48-.88a17.29,17.29,0,0,1-.91-3.67c-.34-3-.46-6-.85-8.93a40.2,40.2,0,0,0-1.33-6A4.47,4.47,0,0,0,257,25.4a7.87,7.87,0,0,0-4.89-.61c-2,.44-3.93,1-5.9,1.53-1.5.41-3,.8-4.5,1.24-.92.27-1.81.62-2.71.93a5.06,5.06,0,0,0-.89.24,2.55,2.55,0,0,0-.92.73c-.17.24-.11.63-.15,1,.23.26.52.53.75.84a7.09,7.09,0,0,1,.6,1,21.11,21.11,0,0,1,2.16,10.3,22,22,0,0,1-3.05,9.58c-.42.79-1.32,1.29-1.88,2a1.91,1.91,0,0,1-2.28.66c-.49-.14-1-.3-1.44-.45A16.16,16.16,0,0,1,226.9,52a1.17,1.17,0,0,1-.48-1.6,16.8,16.8,0,0,0,.79-2.15c.38-1.3.71-2.62,1-3.93.74-2.88.89-5.7-1-8.26l-.64.28-.07-.1.53-.37a11.21,11.21,0,0,0-1.27-1.74,6.89,6.89,0,0,0-1.93-1.32c-.38-.16-1-.61-1.46.3-.21-.94-.57-1.32-1.29-.67a.27.27,0,0,1-.23,0c-.46-.31-.68.07-.88.35-.37.5-.77.8-1.4.46-.05.21-.09.37-.14.6-.52-.63-.79-.41-1.2.08a4.85,4.85,0,0,0-.72,2.47,21.78,21.78,0,0,0,.08,7.68l.36,2.15-.16,0c-.15-.4-.3-.8-.44-1.2l-.19.07c.41.89-.08,2.13,1.18,2.7.08,0,.1.18.14.27.55,1.1,1.13,2.18,1.64,3.29a1.12,1.12,0,0,1,.05.91c-.8,1.43-1.65,2.83-2.48,4.24-.15.25-.21.69-.41.76-1.08.4-1.52,1.47-2.35,2.13s-1.66,1.41-2.54,2.17c-1.06-2.33-2.11-4.57-3.1-6.84-1.6-3.64-3.09-7.33-4.76-10.94-1-2.15-1.88-4.22-1.72-6.7a32.51,32.51,0,0,0-1.93-12.38,48.88,48.88,0,0,0-4.46-9.86c-.9-1.52-1.93-3-2.89-4.45a5.07,5.07,0,0,0-3.33-1.91,1.3,1.3,0,0,0-.84.13c-.57.28-1.09.66-1.64,1a.88.88,0,0,1-.6.11c-.79-.26-1,.19-.94.81.06,1.12.16,2.25.24,3.37l-.18,0-.39-3.27-.22,0a7.85,7.85,0,0,0,0,1.68c.29,1.28.66,2.55,1.05,3.81a4.21,4.21,0,0,0,.61,1c-.42.29-.17.66.17,1,.09.09.25.14.28.23.19.79.33,1.59.55,2.36a1.44,1.44,0,0,0,.52.77c.69.46.95,1,.45,1.73.76.18.83.37.52.81a8.79,8.79,0,0,1,.52.78c.1.18.11.42.24.57.4.47.16.65-.41.78l.78,1.32a15.81,15.81,0,0,0,.49,1.85c1.48,3.65,3,7.29,4.47,10.94a3.92,3.92,0,0,1,.35,1.52,32.08,32.08,0,0,1-2.12,11.88,39.37,39.37,0,0,1-2.36,4.17c-.69,1.2-1.93,2.08-2.82,3.18a2.23,2.23,0,0,1-.94.69c-.28.14-.68.56-.63.72.21.67-.22.62-.6.67-.69.1-2,1.32-2,2l-.68-.19v.71a1.86,1.86,0,0,0-.78.09,2.75,2.75,0,0,1-1.79.44,9.88,9.88,0,0,1-1.93-.4,5.78,5.78,0,0,1-3.22-1.9c-.42-.55-1.14-.85-1.5-1.55-.51-1-1.13-2-1.69-3-.4-.7,0-1.15.54-1.49A15.77,15.77,0,0,1,175,56.48c.73-.36,1.24-1,2-1.36A25.43,25.43,0,0,0,180.35,53c1.91-1.39,3.85-2.76,5.65-4.29a27.63,27.63,0,0,0,4-4c1.67-2.18,1.18-4.52-1.13-6A28.19,28.19,0,0,0,185.43,37c-3-1.39-5.85-.65-8.62.64a10.11,10.11,0,0,0-3.88,3.11c-.86,1.14-1.75,2.26-2.52,3.45s-1.31,2.26-1.95,3.4c-.81,1.47-1.68,2.91-2.4,4.42a10,10,0,0,0-.83,4.86,2.21,2.21,0,0,1-.84,1.73,10.2,10.2,0,0,0-2,3,20.68,20.68,0,0,0-.89,3.74c-.14-.16-.25-.24-.29-.35-1-3.06-2.07-6.11-3.08-9.17-.64-2-1.24-3.92-1.83-5.9a4.48,4.48,0,0,0-5.89-3,37.94,37.94,0,0,0-5.73,2.41c-1.81.95-3.49,2.17-5.22,3.27-.7.45-1.09,1.29-1.95,1.57-.14,0-.28.33-.29.52a8.94,8.94,0,0,0,0,2.25A8.77,8.77,0,0,0,138,59.2c.45,1,1.09,1.82,1.49,2.79a49.57,49.57,0,0,1,1.78,4.86,38.83,38.83,0,0,1,.79,3.89s-.06,0-.12.09c-.22-.91-.44-1.8-.65-2.69l-.23,0c.08.55.15,1.1.22,1.64a2.31,2.31,0,0,1-.73-.81c-1.53-2.43-3.1-4.83-4.55-7.3-.93-1.57-1.76-3.16-3.58-3.88-1.28-.5-2.54-.83-3.77.13a2.28,2.28,0,0,1-.7.28c-.57.2-1.33.24-1.69.64a10.31,10.31,0,0,0-1.83,2.78,5.76,5.76,0,0,1-.75,1.14,2.31,2.31,0,0,1-.23-.32c-1.2-2.93-2.33-5.88-3.61-8.77-.89-2-1.92-3.93-4.42-4.46-1.09-.23-1.81-.07-2.32.92a.82.82,0,0,1-.72.25c-.64-.14-1.36-.25-1.72.33-.64,1-1.55,1.88-1.81,3.21-.69,3.45-1.59,6.86-2.41,10.28l.7-1.16c0,.41,0,.83-.14,1.23-.59,2.55-1.2,5.11-1.8,7.66a3,3,0,0,0,0,.67l.88-.14c-.09.61-.18,1.19-.26,1.69.23.3.47.58.67.83.22-.48.47-1,.71-1.5l.25.09c-.25.91.1,1.91-.5,2.78l.62-.17.1.24.13,0-.12-.69.39.06-.35-1.24.11-.08.57.61c1.59-6.71,3.17-13.36,4.74-20a1,1,0,0,1,.21.8c-.3,1.49-.64,3-1,4.45l-1.14,5.28c-.27,1.25-.51,2.51-.8,3.76-.35,1.54-.77,3.06-1.09,4.61-.21,1-.31,2.06-.47,3.09a2.2,2.2,0,0,1-.19.6,13.53,13.53,0,0,0-.83,1.66c-.26.8-.33,1.66-.58,2.47-.13.43-.55.77-.7,1.2a23.16,23.16,0,0,0-.86,3.06,11.45,11.45,0,0,0,0,2l.34.07a4.75,4.75,0,0,0,.58-1c.62-1.93,1.23-3.87,1.81-5.81.38-1.28.77-2.56,1.07-3.85a6.76,6.76,0,0,0,0-1.55,3.9,3.9,0,0,0,.63-1q.78-2.77,1.45-5.58c.86-3.64,1.68-7.29,2.53-10.93.13-.55.34-1.09.55-1.79.47,1.11.86,2,1.21,2.92.07.16-.06.38,0,.55a3.5,3.5,0,0,0,.51,1.3c.29.31.88,1.31.76,1.78s-.3,1,.52,1c.08,0,.21.22.23.35.1.66.35,1.13,1.37,1.06-.42.27-.62.38-.81.51a.76.76,0,0,0,.17,1.34.51.51,0,0,1,.27.2c.29.66.58,1.34.83,2a1.74,1.74,0,0,1,0,.56l-.12,0-.34-.79-.18.08c.22.67.42,1.34.67,2A4.88,4.88,0,0,1,120,75a34.17,34.17,0,0,0-.85,3.63,7,7,0,0,0-.09.8l.16,0c.15-.54.31-1.07.51-1.73v2.52l.18.06.48-.81c.23.38.37.88.66,1s.72-.17,1.16-.29c.27.76.59,1.65.9,2.54l.21-.08-.39-1.39.24-.06.72,2.73-.44-.63-.17.1c.18.63.35,1.26.52,1.89l.27,0c0-.34,0-.68-.08-1q1.5,4.75,3,9.49l-.17.08-.3-.32-.22.12A2.44,2.44,0,0,1,127.38,96l-.27-.42-.12.06,1.58,5.11.45-.37.46,1.61-.18.16-.25-.65-.23.18c.65,1.18.58,2.58,1.65,3.71.77.81,1,2.18,1.36,3.32.5,1.39.95,2.78,1.39,4.18a4.36,4.36,0,0,1,.44,1.87c-.16.81-.15,1.34.5,1.83a6.33,6.33,0,0,1,.73.84h-.69l-.1.22c.26.16.67.26.76.49a21.15,21.15,0,0,1,.65,2.27c0,.16,0,.45.05.5.58.36.59.34.6,1.12l-.47-.32.52,1.32.12-.5a3.64,3.64,0,0,1,.81,2.42,2.13,2.13,0,0,0,.34,1.53,7.92,7.92,0,0,1,1.28,2.46c.12.32-.07.7,0,.94.05.46.48.88.65,1.16a2.48,2.48,0,0,0,0,.74c1,2.61,1.91,5.28,3.09,7.8a22.81,22.81,0,0,1,2,9.32c0,1.09,0,2.18,0,3.28h.2c.46-3,0-5.93-.29-8.89.94,3.05.72,6.24,1.07,9.37a37.26,37.26,0,0,0,.22-6.92c.17,1.76.22,3.52.28,5.29,0,.37-.11.81.05,1.09a5.15,5.15,0,0,0,1,1,3.57,3.57,0,0,0,.45-1,17.33,17.33,0,0,0,.07-1.91c0-1,0-2,0-3a.44.44,0,0,1,.12.29c.17,1.48-.35,3,.35,4.47.07.12,0,.33,0,.46a3.06,3.06,0,0,0,.34.54c.2-.17.54-.32.57-.51.18-1.47.33-2.94.43-4.41.06-1,0-2,0-2.83.51,2.28,0,4.85.94,7.29a1.94,1.94,0,0,0,.61-.93,11.64,11.64,0,0,0,.19-2.28c-.07-3.18-.16-6.36-1.32-9.39-2.74-7.13-5.51-14.25-8.17-21.42-1.74-4.69-3.33-9.44-4.92-14.19-1.09-3.23-2.08-6.49-3.09-9.74q-1.24-4-2.45-8-2-6.57-3.89-13.14a2.27,2.27,0,0,1,0-1.24c.74-2.56,1.52-5.11,2.3-7.66a8.07,8.07,0,0,1,.39-.87A10.19,10.19,0,0,1,131,64.91c1.29,2,2.53,4,3.79,6,.29.46.61.89.85,1.37s.32,1,.55,1.42c.48.92,1.53,1.4,1.84,2.45l.05.06c.63.64,1.25,1.29,1.87,1.93A5.1,5.1,0,0,0,146,79.19a.55.55,0,0,1,.31,0c.88.24,1.3-.31,1.53-1a6.12,6.12,0,0,0,.51-2.22,60.66,60.66,0,0,0-.74-8.09,49.05,49.05,0,0,0-2.34-7.32,27.33,27.33,0,0,0-1.91-3.73c-.49-.89-.54-1.08.26-1.63,1.79-1.25,3.61-2.48,5.45-3.67.92-.59,1.44-.27,1.72.82A26.07,26.07,0,0,0,151.93,56c.28.65,0,.65-.54.76,1.48.57,1.05,2,1.66,2.94l-.18.11-.44-.23c.09.32.17.59.27.89l.58-.14c.31.87.61,1.7.89,2.52.11.31.18.64.3.94.31.81.69,1.6,1,2.42s.24,1.43.53,2.08c.78,1.8,1.65,3.57,2.51,5.33a1.36,1.36,0,0,0,1.53.86c.11,0,.28-.1.3-.07.63.89,1.54-.42,2.2.26a3.31,3.31,0,0,0,.38-.34c.4-.39.75-.74,1.42-.46.2.09.71-.2.89-.46a15.21,15.21,0,0,0,2.1-5.06c.29-1.2.58-2.4.89-3.71,1.26.76,2.65,1.18,3.5,2.48l.63-.24c0,.87.66.94,1.2,1.11s1.17.1,1.54.41a4.66,4.66,0,0,0,2.34,1.06,17.68,17.68,0,0,0,2.42.18,11.28,11.28,0,0,0,5.87-1.27,50.56,50.56,0,0,0,5.48-3.86,26.43,26.43,0,0,0,7.25-8.35c.75-1.38,1.32-2.85,2-4.28h.22l.07,1.22a4.28,4.28,0,0,1,.6.76c.55,1,1.06,2.12,1.58,3.18.11.23.26.45.35.68.33.84.6,1.7,1,2.53s1,1.9,1.4,2.87c.49,1.12.92,2.26,1.34,3.4a6.72,6.72,0,0,1,.22,1.22c.78.4.89,1.33,1.18,2.43-.28-.37-.41-.56-.55-.75l-.16.16c.26.24.53.47.78.72a1.72,1.72,0,0,1,.37.48c.5,1.15.95,2.33,1.47,3.47s1.25,2.38,1.77,3.61,1,2.81,1.54,4.22c.44,1.21.85,2.43,1.36,3.61.84,2,1.77,3.91,2.61,5.89a6.56,6.56,0,0,1,.21,1.35,6,6,0,0,0,.38,1.1c.1.24.31.44.39.68s0,.54.07.78c.31.84.64,1.68,1,2.49a7.84,7.84,0,0,0,.67,1v.64c.51-.28.36.17.42.38a17.22,17.22,0,0,0,.44,1.75c.32.86.82,1.67,1.05,2.55s1,1.16.93,2c0,.37.34.75.57,1.23,0-.22.07-.33.13-.56.24.48.43.88.64,1.26a3.72,3.72,0,0,0,2,2,9.22,9.22,0,0,0,7.48-.87,7.15,7.15,0,0,0,3-3.81A16.08,16.08,0,0,0,237,94.5a49.06,49.06,0,0,0-3.79-9.27,48.24,48.24,0,0,0-10.3-13.15c-1.92-1.73-4-3.3-5.94-5-.73-.62-1.39-1.33-2.12-2,.88-.8,1.61-1.47,2.36-2.13a31.38,31.38,0,0,0,6.16-6.55c.29-.46.51-.4.95-.25a65.89,65.89,0,0,0,6.37,2.1,11.47,11.47,0,0,0,9-1.48,12.71,12.71,0,0,0,4.15-4.5c3.94-6.71,4.25-13.66,1.27-20.8-.11-.28-.24-.56-.36-.85,2.2-.71,4.32-1.37,6.42-2.08a1.14,1.14,0,0,1,1.65.72A17,17,0,0,1,254,32.79c.51,3.94.85,7.89,1.29,11.83a9.81,9.81,0,0,0,1.12,4.12l.2-.42c.62,1.15,1.19,2.29,2.41,2.78a19.81,19.81,0,0,0,3.56,1.11,5.87,5.87,0,0,0,2-.34c.13,0,.26-.12.36-.1a3.08,3.08,0,0,0,3.11-.9,19.76,19.76,0,0,0,4.32-6c.31-.66.58-1.34.87-2,.31.26.54.51.82.7a22.05,22.05,0,0,0,3,1.87,9.63,9.63,0,0,0,5.91.28A30.66,30.66,0,0,0,298.21,38a3.35,3.35,0,0,0,.81-1.64C299.09,36.07,298.75,35.62,298.47,35.4ZM173.06,50.88A55.58,55.58,0,0,1,178.74,42a17.78,17.78,0,0,1,1.89-1.79.8.8,0,0,1,.63-.18,14.15,14.15,0,0,1,2.62,1.53,1.56,1.56,0,0,1,0,2.23,13.21,13.21,0,0,1-1.73,1.85c-1.28,1.14-2.58,2.26-3.93,3.3s-2.5,1.76-3.76,2.63c-.52.35-1.06.66-1.58,1-.25.16-.47.38-.71.57l-.16,0C172.38,52.39,172.66,51.6,173.06,50.88Zm43.86,23c1.8,1.87,3.72,3.65,5.39,5.64s3.05,4.19,4.55,6.27l-.32.5c1,.47.67,1.58,1.17,2.31a11.74,11.74,0,0,1,1.17,2.6A61,61,0,0,1,231,97.58a12.18,12.18,0,0,1-.79,8.34,3.88,3.88,0,0,1-.46-.68c-1.16-2.72-2.32-5.43-3.47-8.16q-3.17-7.56-6.33-15.13-1.51-3.65-3-7.31a3.84,3.84,0,0,1-.15-.69Z"/><path class="cls-2" d="M106.38,64.31v-.06l0,0Z"/><path class="cls-2" d="M78.94,88.46l-1.08.63V88l-1.17.24c-.09,0-.15.16-.24.2-.59.25-1.18.51-1.77.74a7,7,0,0,0-1.64.61c-1.43,1.06-2.76,2.26-4.18,3.33s-3,2.14-4.5,3.13c-.76.49-1.51,1.13-2.55.78a14.43,14.43,0,0,1-6.57-4.36.68.68,0,0,1,0-1c1.41-2.14,2.85-4.26,4.15-6.47a32.64,32.64,0,0,0,2.08-4.44,10.3,10.3,0,0,0,.09-8.15c-.3-.67-.88-1.21-1.18-1.88-.84-1.93-2.57-2.44-4.37-2.88a.83.83,0,0,0-.53.08c-1.28.64-2.65,1.09-3.94,1.75s-1.76,1.82-2.57,2.79-.63,2.26-1.54,3.1a.51.51,0,0,0-.07.44,2.84,2.84,0,0,1-.59,2.41c0-.26.09-.53.13-.79l-.21,0c-.24,1-.5,1.91-.71,2.87a17.15,17.15,0,0,0,.68,10.14c.12.31.28.77.51.83a.65.65,0,0,1,.49,1,3.75,3.75,0,0,1-.76,1.25c-.64.7-1,1.55-1.65,2.29a43.13,43.13,0,0,0-3.64,5.39c-.8,1.33-1.41,2.79-2.1,4.19-.13.27-.25.53-.45.93-.13-.27-.2-.38-.24-.49-.76-2.13-1.55-4.26-2.28-6.4-1.44-4.22-2.85-8.45-4.26-12.68-1.05-3.13-2-6.28-3.12-9.4-.69-2-1.51-3.95-2.3-5.91a4.58,4.58,0,0,0-3.74-2.8,1.25,1.25,0,0,0-.69.07,12.52,12.52,0,0,1-3.2,1.22,1.12,1.12,0,0,0-.66.61,20.94,20.94,0,0,0-1.42,3.49c-1.08,4.23-2,8.5-3.06,12.73s-2.26,8.47-3.41,12.71c-.12.48-.31.94.12,1.38,0,0,0,.19-.09.33l-.35-.49c-.31,1.33-.58,2.5-.86,3.67l.23.06.38-1.21.14.05-.5,2c-.11-.28-.17-.45-.24-.62H9.33c-.13.57-.25,1.14-.38,1.71l.24,0c.09-.22.19-.43.36-.79.06.74.1,1.29.15,1.85h.16l.38-.77c.29.31.55.87.94,1,1,.27.54-.91,1.07-1.25a3.18,3.18,0,0,0,.17.63,4.79,4.79,0,0,0,.46.65c.17-.2.35-.4.51-.62a1,1,0,0,0,.09-.3c.91-3.51,1.8-7,2.73-10.52.18-.66.47-1.29.71-1.92a1.4,1.4,0,0,1,0,.41c-.65,2.47-1.3,4.94-2,7.41a10.4,10.4,0,0,0-.44,5.23c.84-.36.9-1.15,1.08-1.83.48-1.84.92-3.69,1.39-5.54,1.46-5.7,2.94-11.41,4.39-17.12.38-1.47.69-3,1-4.42l.23,0c.7,2.12,1.39,4.25,2.09,6.38l.21-.06v-.68c.24.72.83,1.22.15,1.8,0,0,0,.2.06.3q.77,2.31,1.55,4.64a2.19,2.19,0,0,0,.16.29l.58-.43c-.1.53-.16.84-.22,1.17.17.1.44.15.5.3.28.67.51,1.37.73,2.06,0,.06-.23.2-.39.33.18.16.57.36.7.67.46,1.11.83,2.26,1.23,3.4q.84,2.42,1.65,4.81c.09.25.24.66.14.75-.68.64.16,1,0,1.61l.51-.37-.23,1.25.12,0,.23-.36.5.81-.59.06.27,1,.49-.43c.15.58.46,1.12.34,1.52-.24.77-.18,1.25.6,1.58.14.06.18.39.23.61a3.1,3.1,0,0,1-.4.16,3.74,3.74,0,0,0,.25.9c.28.47.88.8.51,1.48a1.83,1.83,0,0,1,.73,2.11c-.09.3.06.66,0,1-.15.71-.39,1.4-.54,2.12-.57,2.62-1.22,5.23-1.64,7.88a66.54,66.54,0,0,0-.8,7.7,57.72,57.72,0,0,0,1.22,12.91c.12.64.31,1.26.46,1.88l.22,0c-2-9.09-2.27-18.16.18-27.2-.15,1.06-.38,2.11-.57,3.17a57.77,57.77,0,0,0-.8,12.25,63.74,63.74,0,0,0,1.58,12c.46,2,1.09,4,1.62,6a3.06,3.06,0,0,1,.22,1.37,2.74,2.74,0,0,0,.85,2.46,23.07,23.07,0,0,1,1.77,3.05,7.53,7.53,0,0,0,5.14,3.85,12.63,12.63,0,0,0,6.94-.4c4-1.3,8-5.25,5.48-11.35-1.27-3.14-2.39-6.33-3.57-9.5-1.56-4.18-3.13-8.35-4.68-12.54q-3.06-8.25-6.08-16.52a1,1,0,0,1-.07-.59,63.39,63.39,0,0,1,5.84-14.42C49,99.9,50,98.56,51,97.2a.82.82,0,0,1,.73-.23c.61.31,1.16.75,1.75,1.09a24.43,24.43,0,0,0,2.91,1.62,13,13,0,0,0,12.84-1.37c2.19-1.46,4.27-3.1,6.39-4.67q1.71-1.26,3.39-2.58C80.12,90.16,80.09,89.06,78.94,88.46Zm-18-11.86a3.84,3.84,0,0,0,0-.48A3.84,3.84,0,0,1,60.93,76.6Zm-.19,1.68a8.28,8.28,0,0,0,.14-.93A8.28,8.28,0,0,1,60.74,78.28ZM42.35,135.16c.12.31.26.61.43,1l.42-.09c.19.51.39,1,.59,1.55l-.24.11-.42-.86-.1,0q.18.56.36,1.08a.88.88,0,0,1,.74,1.43c.3.53.57,1,.79,1.42,0,.1-.08.28-.07.42a2.51,2.51,0,0,0,.11.54c.83-.14.34.61.71.76l-.17.13-.52-.43.63,1.5.3-.49c.24,1,1.07,1.7.67,2.82a2.78,2.78,0,0,0,1.15,2.4c.11.06.15.25.28.5l-.52-.09c0,.06,0,.12,0,.16q.85,2.24,1.72,4.47s.09,0,.13,0c.17.45.32.84.45,1.23s.15.61.24.9a12.42,12.42,0,0,0,.54,1.73,4.46,4.46,0,0,1-.21,4.09c-.4.79-1.4,1.28-2.18,1.83-.17.12-.57,0-.81-.11a6.84,6.84,0,0,1-2.93-3,35.26,35.26,0,0,1-3.28-8.9,69.68,69.68,0,0,1-2.1-12.16,47.88,47.88,0,0,1,.28-10.36c0-.15.07-.31.1-.44l.89.28s.07.12,0,.15c-.59.55-.13,1.07.06,1.57C41.05,131.93,41.7,133.54,42.35,135.16ZM54.45,82c-.57,1.14-1.14,2.29-1.7,3.43-.11.23-.17.47-.34,1-.12-.39-.2-.55-.23-.73a17.64,17.64,0,0,1,.74-7.5c.44-1.45,1-2.86,1.61-4.28.1-.24.4-.41.61-.61a4,4,0,0,1,.52.65,6,6,0,0,1,.66,4.25c-.07.29-.19.58-.28.86L56,79V75.94h-.09a22,22,0,0,1-.21,2.82,17.59,17.59,0,0,1-.83,2.58A6.56,6.56,0,0,1,54.45,82Z"/><path class="cls-2" d="M216.54,19.55c1.54.93,3,2.33,5.06,1.63.78.46,1.16.11,1.28-.8a4,4,0,0,0,.9.43.88.88,0,0,0,.68-.14,1.45,1.45,0,0,0-.17-2.16,10.83,10.83,0,0,0-1-.72c-2.67-1.71-5.32-3.44-8-5.11a8.37,8.37,0,0,0-2.15-.78.85.85,0,0,0-.68.37c-.21.31-.31.68-.82.53-.1,0-.24.15-.38.2a3.3,3.3,0,0,1-.85.25,2.05,2.05,0,0,1-.67-.23l-.42,1.81c.23.17.66.52,1.12.82C212.42,17,214.45,18.3,216.54,19.55Z"/><path class="cls-2" d="M171.23,33.44c.61.74.89.75,1.87.1.46.6.7.61,1.2,0l.87-1c0,.51.06.74.09,1.25.44-.43.73-.68,1-1,1.17-1.4,2.35-2.79,3.46-4.24a2.7,2.7,0,0,0,.53-1.44,1.38,1.38,0,0,0-.6-.92c-.11-.09-.51.18-.77.31a4.81,4.81,0,0,0-.54.41V25.8a5.4,5.4,0,0,0-1.21.23c-.66.27-1.29.64-1.93,1,0,0-.12,0-.15,0-.55-.42-.94.06-1.21.34-1.57,1.65-3.16,3.3-3.85,5.26.32.45.51.73.73,1.06Z"/><path class="cls-2" d="M16,52.33a4.17,4.17,0,0,0,1.8.39,9.35,9.35,0,0,0,2.84-.42c1.83-.64,3.62-1.42,5.4-2.22A1.74,1.74,0,0,0,27,48.35c0-.86-.58-1.15-1.33-.72-.14.08-.31.13-.55.24,0-.34.05-.56.08-.92a2.07,2.07,0,0,0-.8-.06c-1.15.37-2.3.74-3.42,1.21-1.6.67-3.17,1.43-4.75,2.15C15.6,50.53,15.43,52.06,16,52.33Z"/><path class="cls-2" d="M104.37,79.83Z"/><path class="cls-2" d="M106.88,76.43l0,0,0,0Z"/><path class="cls-2" d="M105.1,77c0,.49.2,1,0,1.39s-.71.69-1,1l.53.47-.1.12-.17-.07c-.44,1-.85,2-1.26,3l-.25-.08c0-.15-.1-.3-.16-.45a2,2,0,0,0-.52,1c0,.05.39.18.68.31l-1,.23c0,.33-.1.72-.15,1.1-.27-.34-.53-.47-.83,0l.45.06c0,.23,0,.5-.11.66-.64.86-.36,1.76-.16,2.67l.36-1.09c.21.36.32.57.46.76s.28.46.46.49a.77.77,0,0,0,.58-.32,7.26,7.26,0,0,0,.31-.86c.06-.12.23-.19.35-.28.08.22,0,.32,0,.41.06.36.14.71.22,1.06l.75-.78a.11.11,0,0,0,0-.08c.38-1.2.78-2.39,1.12-3.61.51-1.8,1-3.61,1.47-5.43a12.18,12.18,0,0,0,.18-1.78c-.11-.09-.31-.28-.52-.48C106.65,77.73,105.72,76.8,105.1,77Z"/><path class="cls-2" d="M106.38,64.31v0a.13.13,0,0,0,0,.06Z"/><path class="cls-2" d="M105.28,70c.39-1.58.79-3.16,1.15-4.74a2.8,2.8,0,0,0-.05-.86q-.69,3-1.37,5.91A.45.45,0,0,0,105.28,70Z"/><path class="cls-2" d="M215.85,41.6V37.05h-.09v4.55Z"/><path class="cls-2" d="M34.22,150.52c.15.66.31,1.32.46,2l.23-.06-.5-2Z"/></g></g></g></svg>