<svg xmlns="http://www.w3.org/2000/svg" viewBox="0 0 332.45 150.26"><defs><style>.cls-1{opacity:0.2;}.cls-2{fill:#fff;}</style></defs><g id="Calque_2" data-name="Calque 2"><g id="Contours"><g class="cls-1"><path class="cls-2" d="M190.44,101.29a.78.78,0,0,0,.28.6l0-.57Z"/><path class="cls-2" d="M331.35,96.62c-1.23-3.64-3.53-7.24-7.24-8.72l-.48-.18c.07-.26.14-.53.23-.79a47.25,47.25,0,0,0,2.15-6c2.4-6.72,3.7-16.07-2.77-21a13.39,13.39,0,0,0-12.48-2c-3,1.13-5.16,3.42-7.46,5.52-3.58-2.32-8-3.17-12.3-3.6a18.16,18.16,0,0,0-8,.59A22,22,0,0,0,279.72,62c-.18-6.83-.89-14.07-6-18.79-8.7-8.14-21.58-2.21-29,4.73a25.25,25.25,0,0,0-2.72,3c-.1.14-.19.24-.28.35a1.46,1.46,0,0,1-.09-.16,17.15,17.15,0,0,0-1.62-2.49,15.9,15.9,0,0,0-14.54-6.13c-9,1-15.26,7.5-21.56,13.51a26.56,26.56,0,0,0-.85-5.48c-1-3.27-2.09-6.63-3.37-9.79-1.77-4.34-4.68-8.95-9.58-10.08-4.72-1.09-9.22,1.44-13.15,3.71-1,.56-3.76,2.81-4.9,2.65s-4.32-4.75-5.51-5.69c-5.55-4.4-11.63-3.7-18.14-2.47-4,.76-8.22,1.41-12.29.68s-6.54-3-9.65-5.44c-9.08-7.19-19.45-3.36-27.32,3.27.29-6.29.71-12.58-2.32-18.36C92.34.33,83.2-1.47,74.8,3a29.37,29.37,0,0,0-5,3.4A19.29,19.29,0,0,0,67.87,8c-.16-.42-.41-.9-.52-1.18C66,3.37,64,.9,60.19.18,55.6-.69,52,1.73,48.87,4.93a2.12,2.12,0,0,1-.12-.2A8.65,8.65,0,0,0,41.64,1C35.2,1,31.17,7.31,28.51,12.34c-5.59,10.55-10,22.18-16.27,32.48a4,4,0,0,0-3.89,2.4C6,51.87,1.05,54.1.14,59.66-.64,64.48,1.91,70.09,4.61,74c2.95,4.24,7.73,7,12.94,5.5a15.26,15.26,0,0,0,6.38-3.88,7.59,7.59,0,0,0,5.79,2.71c5.69.36,11.25-2,16-5.18,1.62,2.2,3.06,4.51,5.46,6.23a32.83,32.83,0,0,0,14.07,5.85,42.59,42.59,0,0,0,15.18-.57,23.11,23.11,0,0,0,6.88-2.94c2.47,4.85,6.32,8.57,12.65,8a16.23,16.23,0,0,0,6.6-2.13c.33-.2,1.31-.8,2.22-1.43a8.35,8.35,0,0,0,.85,1.5,10.38,10.38,0,0,0,5,3.53A30.37,30.37,0,0,0,127,93.42c2.26-.16,4.46-.77,6.69-1.08,3.54-.49,5,.68,7.8,2.5,4.17,2.71,8.84,3.57,13.73,4,6.34.48,12.62.89,18.93,1.61,5.17.59,10.26.49,15.41.81l.87.08c-.14-1.4,1.07-4.39.48-2.43a7.66,7.66,0,0,0-.23,2.46,4.1,4.1,0,0,1,1.19.22c-.58.42-.94.49-1.16.35,0,.57.07,1.14.07,1.68,0,5.6-.63,11.2-.78,16.79-.27,10.5,1.4,26.32,13.77,29.39,8,2,17.29-2.06,22.36-8.24s6.59-14.26,8.79-21.89c9.7,1.6,18.66,7.62,27,12.38,10.6,6.08,21.52,11.08,34.07,9.74a35.49,35.49,0,0,0,24.38-13.15c3.34-4.15,5.83-9.74,4.91-14.73a9.59,9.59,0,0,0,5.75-4.68C333.07,105.43,332.68,100.53,331.35,96.62Z"/></g></g></g></svg>