<svg xmlns="http://www.w3.org/2000/svg" viewBox="0 0 305.96 95.93"><g id="Calque_2" data-name="Calque 2"><g id="P2_m2_1"><path d="M143.92,84.34a1.43,1.43,0,0,0,0-.82c-.21-1-.53-2-.67-3-.17-1.33-.53-2.68.13-4a1.32,1.32,0,0,0-.17-1.12c-.71-.93-.42-1.89-.29-2.88.17-1.3.29-2.62.41-3.93,0-.2,0-.52-.1-.61-1.16-.84-.58-2.19-.55-3.1a10.51,10.51,0,0,0,0-3.07,25.14,25.14,0,0,0-.43-2.6,8.8,8.8,0,0,1-.14-2.42,4.94,4.94,0,0,0,0-1.09c-.43-1.61-1-3.2-.52-4.9a1.4,1.4,0,0,0-.41-1.38,3.52,3.52,0,0,1-.56-1.64c-.09-.52,0-1.06,0-1.59a28.49,28.49,0,0,0-.42-3.57c-.2-.9-.15-1.89-1-2.62a2.08,2.08,0,0,1-.62-2,2.8,2.8,0,0,0-.73-2.8,4.13,4.13,0,0,1-1-1.65c-.23-.63-.19-1.38-.46-2-.56-1.22-1.25-2.37-1.91-3.53-.07-.13-.31-.16-.46-.26-.81-.56-1.8-1-2-2.12a.72.72,0,0,0-.42-.42,33.84,33.84,0,0,0-3.95-1.52,5.13,5.13,0,0,0-3.37,0c-1,.41-2.19.58-3.27.94-.4.14-1,.49-1,.77-.06.93-.57.88-1.23.92-.51,0-1.29.16-1.45.49-.45.92-1.42,1.14-2,1.74a20.48,20.48,0,0,1-2,2,3.81,3.81,0,0,0-.72,1,3.69,3.69,0,0,1-1.8,1.79c-.14,0-.16.38-.27.56-.26.42-.53.84-.8,1.25-.16.22-.49.42-.49.63,0,.8-.54,1.16-1.07,1.56a1.15,1.15,0,0,0-.41.47,4.29,4.29,0,0,1-1.81,2.38c-.27.15-.33.66-.49,1a2.68,2.68,0,0,1-.41.83c-.69.65-1.7,1.07-1.54,2.31,0,.13-.19.29-.28.44-.52.94-.75,2-1.64,2.77-.08.07,0,.35,0,.53a3.29,3.29,0,0,1-.1.53h-.27c0-.64-.13-1.27-.14-1.91a15.86,15.86,0,0,1,.11-2.49c.12-.73.28-1.35-.33-2a1.75,1.75,0,0,1-.29-1.44c.33-1.36.56-2.65-.52-3.8a.5.5,0,0,1-.12-.24c-.16-1.41-.31-2.81-.47-4.21,0-.18,0-.43-.13-.51-1.13-.88-.39-2.68-1.71-3.47-.07-.05,0-.29,0-.44a2.06,2.06,0,0,0-1-1.78c-.5-.29-.74-1-1.13-1.55-.76-1-1.54-2-2.31-3a.15.15,0,0,0-.08,0c-1.12,0-1.72-.94-2.57-1.41a1.78,1.78,0,0,0-.56-.26c-.91-.17-1.82-.33-2.74-.43a3.85,3.85,0,0,0-1,.18c-.64.14-1.42.59-1.91.37-1.91-.83-3.64.17-5.41.38-.77.09-1.56,1-2.11,1.66a2.58,2.58,0,0,1-2.09,1.06,2.09,2.09,0,0,0-1,.47c-.62.45-1.21.94-1.8,1.43s-1.42,1.27-2.15,1.88a10.8,10.8,0,0,1-1.2.79c-.48.29-1,.54-1.44.84a3.78,3.78,0,0,0-1.49,2.32,1.05,1.05,0,0,1-.34.52c-1.28,1.06-2.86,1.83-3.56,3.5-.05.13-.3.18-.45.27s-.48.19-.61.37c-.69.94-1.34,1.92-2,2.87a7.59,7.59,0,0,1-.78.7,10.77,10.77,0,0,0-.87.92,4.09,4.09,0,0,0-.45.64l-2.28,3.32s0,.06,0,.09c-.2.36-.39.72-.61,1.07-.57.91-1.87,1.53-1.22,2.67a13.8,13.8,0,0,0-2,2.07,14.39,14.39,0,0,0-1,2.81c-.17-.28-.25-.46-.37-.62-1-1.4.16-3-.35-4.45a12.89,12.89,0,0,1-.14-2.58c-.14-1.33-.65-2.64-.07-4a1.25,1.25,0,0,0,0-.81c-.27-.94-.66-1.85-.88-2.8a10.83,10.83,0,0,1-.2-2.13c0-.81.24-1.65-.61-2.31a1.6,1.6,0,0,1-.45-1.32c.27-1.63-.94-2.61-1.54-3.85a13.36,13.36,0,0,1-.6-1.34c-.13-.42-.13-.88-.27-1.28a13.64,13.64,0,0,0-.8-1.84,3.45,3.45,0,0,0-.94-1.31,8.11,8.11,0,0,1-1.95-2.19c-.35-.49-.52-1.34-1-1.48a8.25,8.25,0,0,0-3.08-.4c-.83.05-1.6.25-2.31-.36-.15-.12-.45-.09-.68-.09-.9,0-1.8.09-2.69,0s-1.47,0-1.88.88c-.13.27-.51.42-.8.61-.73.5-1.76.25-2.39,1.11S23.8,22.09,23.05,23a5,5,0,0,0-.5.92c-.25.45-.45,1.21-.78,1.28-.67.13-.64.5-.69.94-.11.85,0,1.77-1,2.26-.15.08-.31.5-.23.6.37.53.06.9-.26,1.2-.68.63-1.48,1.14-2.1,1.82A5.93,5.93,0,0,0,16,34.19c-.25,1-.28,1.92-1.11,2.61a3.11,3.11,0,0,0-.55.73c-.47.75-.95,1.51-1.39,2.28a4.54,4.54,0,0,0-.26.86,6.38,6.38,0,0,1-.35,1.07C11.72,43,11,44.27,10.43,45.57a32.9,32.9,0,0,1-1.28,3.12c-.61,1-.39,2.39-1.49,3.18-.09.06.08.44.08.68s0,.64-.09.73c-1.32.81-1.08,2.1-1.13,3.32a3,3,0,0,1-.4,1.34c-.39.76-.89,1.46-1.31,2.2-.25.43-.45.89-.66,1.35a2.36,2.36,0,0,0-.27.66,26.65,26.65,0,0,1-.35,3.11c-.24,1.06-.76,2-1.1,3.08a15.35,15.35,0,0,0-.54,2.2c-.15,1-.19,2-.35,2.95a6.82,6.82,0,0,1-.47,1.73C.68,76.12-.38,76.83.44,78a.39.39,0,0,1,0,.34c-.78,1.08-.21,2.08.14,3.12a2.57,2.57,0,0,1,.1,1.2,3.9,3.9,0,0,0,1.35,3,10.22,10.22,0,0,1,1.33.93,4.36,4.36,0,0,0,3.7.46c.18-.1.42-.22.49-.39.61-1.34,1.35-2.64.74-4.25A7.07,7.07,0,0,1,8,80.12c0-.53.15-1.05.18-1.58A20.14,20.14,0,0,1,8.42,75c.52-2,1.25-4,2-6,.45-1.23.39-2.64,1.41-3.66a1.43,1.43,0,0,0,.25-.83c.09-.94.09-1.89.21-2.82.09-.71.1-1.73.54-2,.91-.59,1-1.55,1.48-2.29.4-.58,1-1.13.56-2a.36.36,0,0,1,.08-.34,4.23,4.23,0,0,0,1.14-2.38c.31-1.16,1.09-2.21,1.33-3.38s1.41-2.27,1-3.7c0-.12.24-.32.33-.5.44-.92,1.18-1.84,1.2-2.77a2.43,2.43,0,0,1,1-2,1.5,1.5,0,0,0,.7-1.48c-.12-.64.32-1,.89-1.32a2.47,2.47,0,0,0,1.15-1.08c.44-1,.92-2,1.45-3a30.06,30.06,0,0,1,1.7-3.22c.36-.52.62-1,1.28-1.17s1.4-.57,1.46-1.53a.91.91,0,0,1,.49-.67,1.8,1.8,0,0,0,1.56-1.85,3.54,3.54,0,0,0,.87,0c1.2-.32,1.83.95,2.89,1,0,0,.07.27.13.4.38.84.77,1.67,1.16,2.5,0,.1.21.14.28.24.52.64,1,1.28,1.52,1.94a.56.56,0,0,1,0,.52c-.63,1-.17,1.79.5,2.54a1.75,1.75,0,0,1,.42,1.92,1.73,1.73,0,0,0,.23,1.73A2.59,2.59,0,0,1,40,38.83c.08.56,0,1.15.08,1.72.07.72.17,1.43.25,2.15,0,.17,0,.39.08.51a2.46,2.46,0,0,1,.36,2A5.1,5.1,0,0,0,41,46.72a3.47,3.47,0,0,1,.26,1.14c-.31,1.79.46,3.6-.26,5.41a6.51,6.51,0,0,0,0,2.33A3.86,3.86,0,0,0,41,57a3.79,3.79,0,0,1,0,3.24,1,1,0,0,0,.18.88c.64.47.54,1,.36,1.63s-.47,1.11-.29,1.45a2,2,0,0,1,0,1.8,4.85,4.85,0,0,0-.19,1.14c-.17,1.46.27,3-.27,4.39-.1.25,0,.59.07.89a7,7,0,0,0,.06.79c.09.48.06,1.12.36,1.38a9.52,9.52,0,0,0,2.14,1.31,3.81,3.81,0,0,0,4.83-.77,1.34,1.34,0,0,0,.36-.94,5.68,5.68,0,0,1,.3-3.21c.21-.44.38-.9.58-1.34A5.62,5.62,0,0,0,50.3,68a5.89,5.89,0,0,1,.79-2.63,10.51,10.51,0,0,0,.74-1.41,10.17,10.17,0,0,1,2.38-4.08A4.24,4.24,0,0,0,55.05,58c.4-1.19.5-2.42,1.57-3.37A11.68,11.68,0,0,0,58.4,52c.26-.41.52-.81.75-1.24a11.76,11.76,0,0,0,.48-1.08c.17-.44.2-1.17.49-1.28,1-.39,1.42-1.26,2-2A11.36,11.36,0,0,0,64,43.79a4,4,0,0,1,1.79-2.43c.4-.23.57-.86.83-1.32.12-.19.14-.46.3-.62.72-.74,1.48-1.43,2.2-2.17s1.52-1.69,2.33-2.47a2.88,2.88,0,0,1,1.13-.53c.73-.23,1.35-.53,1.51-1.39.1-.55.43-.78,1-1A7.77,7.77,0,0,0,79,28.94a3.26,3.26,0,0,1,2.72-1.32c.85-.09,1.78.26,2.27-.79a.32.32,0,0,1,.24-.11c1.21,0,2.46-.17,3.43.79.47.47.81,1.08,1.31,1.5a4.16,4.16,0,0,1,1.63,2.77,13.31,13.31,0,0,0,.71,2.16,4.68,4.68,0,0,1,.09.54,9.56,9.56,0,0,0,.3,1.17c.46,1.22,1.64,2.27.78,3.79-.09.15.23.59.44.81a3,3,0,0,1,.59,2.26,6.43,6.43,0,0,0,.32,1.4c.07.29.27.59.22.85A3.67,3.67,0,0,0,94.57,48c.11.13.22.43.16.49-.68.7-.12,1.5-.18,2.25,0,.37.35,1,.2,1.1-.66.65-.29,1.4-.33,2.08a15.89,15.89,0,0,0,.1,3.16c.22,1.67.56,3.33.83,5,0,.14-.18.31-.22.48-.21.86-.41,1.73-.6,2.6,0,.08,0,.17.06.26.15.67.32,1.34.46,2a6.8,6.8,0,0,1-.32,4.07c-.39.92-.92,1.72-.33,2.74a1,1,0,0,1,0,.8c-.47,1.05.13,1.85.55,2.7a3,3,0,0,0,3.36,1.86c1.14-.13,2.19,0,3-1.06.47-.6,1.32-.9.89-1.91-.06-.15.11-.39.12-.6a11.08,11.08,0,0,0,0-3.3,3.8,3.8,0,0,1-.1-2.08,1.12,1.12,0,0,0,0-.63,3.18,3.18,0,0,1,.15-2.35c.28-1.09,1.17-2.06.61-3.31,0-.11.13-.32.19-.49.39-1.23.82-2.45,1.17-3.69.21-.7.09-1.47,1-1.85a1.13,1.13,0,0,0,.49-1.56,1.41,1.41,0,0,1,.32-1.27c.63-.6,1.25-1.11.81-2.1a.48.48,0,0,1,.1-.41c.75-.82.84-2.14,2-2.66a.66.66,0,0,0,.34-.41c.44-1.59,1.78-2.81,1.89-4.54a.58.58,0,0,1,.16-.31,46.74,46.74,0,0,0,3.06-3.56,18.59,18.59,0,0,1,2.66-2.87s.06-.11.09-.16c.56-.76,1.07-1.57,1.7-2.27.76-.86,2-1.21,2.44-2.42a.44.44,0,0,1,.28-.22c.76-.15.91-.82,1.2-1.36a2,2,0,0,1,.42-.68,2.54,2.54,0,0,1,3.86.78,20.67,20.67,0,0,0,1.45,1.93A7.27,7.27,0,0,1,130.12,37a16.57,16.57,0,0,0,.46,2.29c.37.78,1.06,1.39,1.07,2.35,0,.15.2.3.26.46a3.14,3.14,0,0,1,.31,1.14c-.17,1.69.54,3.14,1.1,4.65.39,1.08,1.15,2.07.62,3.37a4.16,4.16,0,0,0,.05,1.6c.06,1,.7,1.84.44,2.85-.06.26-.18.61-.07.79a4.64,4.64,0,0,1,.23,3.58c-.05.26.14.57.18.86a12,12,0,0,1,.26,3,4.88,4.88,0,0,0,.35,3,2.4,2.4,0,0,1,.38,1.45c-.32,1.09-.93,2.1-.25,3.25a.31.31,0,0,1,0,.26c-.45.53-.2,1,.06,1.52a1.79,1.79,0,0,1,0,2,1.51,1.51,0,0,0-.11.93,6.51,6.51,0,0,1,.26,1.39c-.25,1.77.34,3.51.1,5.27-.15,1.12.8,2.22.14,3.39,0,.06.06.17.07.26.06,1,.09,1.92.2,2.87.07.57.08,1.32.44,1.65A5.69,5.69,0,0,0,140,93.06a6,6,0,0,0,3.79-1.12.51.51,0,0,0,.21-.38c0-1.07.06-2.14,0-3.21C143.9,87,143.38,85.69,143.92,84.34Z"/><path d="M237,70c-.25-.13-.76.12-1.09.31s-.66.67-1.06.85c-1,.42-2,.72-3,1.09a2.64,2.64,0,0,0-1.64,1.92,1.42,1.42,0,0,0-2,1.1,2.44,2.44,0,0,1-2.41,1.64c-.38-.06-1,0-1.19.27-.8,1.2-1.68,2.1-3.3,1.77a1.16,1.16,0,0,0-.74.25c-.72.45-1.44.92-2.13,1.42s-1.46,1.13-2.27,1.76c-.67-1.1-1.92-.34-3-.53.38-.93-1.48-1.47-.29-2.33a17.84,17.84,0,0,1-1.34-2.05c-.14-.29,0-1,.14-1.11,1.15-.41.77-1.28.72-2a7.72,7.72,0,0,1-.09-1.91,1.53,1.53,0,0,0-.65-1.86A4.42,4.42,0,0,0,213,66.9c0-.34.07-.69.06-1a22,22,0,0,1,0-3.72c.28-1.78,1.41-3.35,1.58-5.2.08-.93.26-1.84.4-2.76a2.64,2.64,0,0,1,.19-.51,3.2,3.2,0,0,0,0-3.22.62.62,0,0,1,0-.58,2.59,2.59,0,0,0,.7-2.79c-.13-.41-.21-.83-.33-1.25s-.32-.66-.24-.92c.38-1.18.52-2.26-.69-3.09-.13-.08-.14-.32-.2-.5-.69-2.14-3.38-3.1-5.36-2.73-.65.12-1.31.61-1.9.52a2.72,2.72,0,0,0-2.32.67,1.1,1.1,0,0,1-.77.09c-1.31-.22-1.57,0-2.35,1a3,3,0,0,1-1.41.94c-.65.21-.88-.18-.7-.83a3.89,3.89,0,0,0-1.5-4A5.4,5.4,0,0,0,195,35.93a2.68,2.68,0,0,0-2.94,2.56,1.36,1.36,0,0,1-.57,1.31c-.35.27-.73,1.11-.58,1.32.54.76-.06,1.49.16,2.23a3.56,3.56,0,0,1,.07,1.86c-.45,1.85-1,3.68-1.55,5.51-.34,1.14-.71,2.28-1.14,3.4a15.88,15.88,0,0,1-.9,1.6,1.64,1.64,0,0,0-.2.74A4.46,4.46,0,0,1,186.12,60a9.74,9.74,0,0,0-1.8,2.67c-.9,1.54-2.09,2.93-2.54,4.71,0,.14-.27.23-.4.35s-.42.27-.44.42c-.08.91-.79,1.32-1.35,1.85-.17.17-.31.36-.47.54-.71.85-1.69,1.49-2.09,2.59,0,0-.05,0-.07,0-.71.7-1.45,1.37-2.11,2.1-.9,1-1.73,2.06-2.59,3.09-.06.07-.13.19-.18.18a2,2,0,0,0-2.16,1.38.31.31,0,0,1-.15.1c-.73.4-1.63.55-2,1.5,0,.08-.27.1-.41.15-1,.32-2,.64-3,1a.59.59,0,0,0-.34.27c-.24.76-.88.48-1.31.42-.28,0-.51-.49-.75-.77s-.58-1-1-1.2a1.56,1.56,0,0,1-.94-1.84,2.35,2.35,0,0,0-.22-1.46c-.55-.78-.89-1.47-.28-2.36a.75.75,0,0,0,.07-.67c-.83-.87-.2-2-.41-2.92a14,14,0,0,1,.14-3.58.8.8,0,0,0-.18-.5,1.79,1.79,0,0,1,0-2.27,2.24,2.24,0,0,0,.33-1.71,3.38,3.38,0,0,1,.12-2.19,34.52,34.52,0,0,0,1.06-3.36c.08-.25.48-.44.77-.55s.94-.07,1.19-.32c1.18-1.21,3.16-1.32,4-2.94,0,0,.1-.05.16-.07,1.11-.35,2.23-.7,3.33-1.07a1.25,1.25,0,0,0,.49-.37c.33-.35.65-.7.95-1.08.18-.23.45-.51.44-.76,0-1,.6-1.21,1.34-1.46a3.8,3.8,0,0,0,1.07-.61c.82-.64,1.62-1.31,2.4-2A12,12,0,0,0,178.06,46c.65-.77.56-2.06,1.77-2.46.19-.06.33-.5.36-.77a1.65,1.65,0,0,1,1.22-1.51,3.58,3.58,0,0,0,2.07-3.09,4.66,4.66,0,0,1,.38-1.26c.21-.74,1.47-1.18.58-2.23l.32-.09c0-.55,0-1.1,0-1.65,0-.12-.1-.28-.06-.35.66-1-.11-1.57-.53-2.26s-1.06-1.28-.91-2.26c0-.24-.52-.6-.83-.87s-.58-.41-.86-.62-.32-.33-.5-.35c-1-.12-2-.2-3-.28a8.21,8.21,0,0,1-1.94-.15,2.53,2.53,0,0,0-2.43.33,2,2,0,0,1-1.77.38c-.89-.2-1.34.27-1.85.85s-.93,1.18-1.52,1.35c-1.6.44-2.17,1.94-3.28,2.85a12.9,12.9,0,0,0-1.46,1.58c-.25.28-.61.59-.64.91a5.23,5.23,0,0,1-1.89,3.45,5.45,5.45,0,0,0-2.1,2.77c-.12.6-.77,1.11-1.24,1.61-.62.65-1.38,1.18-1,2.3.06.22-.27.55-.39.84-.22.54-.72,1.23-.55,1.6.36.78-.07,1.15-.48,1.46a1.32,1.32,0,0,0-.49,1.6c.39,1.31-.65,2.14-1,3.19,0,.1-.37.08-.56.14l-1.68.54c-.22.07-.49.23-.67.16a1.64,1.64,0,0,0-1.6.37,2.09,2.09,0,0,1-2.24.23,1.26,1.26,0,0,0-.7,0,2.93,2.93,0,0,0-2.87,2.66,3.4,3.4,0,0,0,.49,2.94c.64.71,1.05,1.83,2.38,1.35.06,0,.18,0,.25.09a3,3,0,0,0,3.25.11,2.37,2.37,0,0,1,1.76.32c.2.11.06.86.06,1.32,0,.3,0,.59,0,.88,0,1,.31,2.23-.15,2.94-1,1.5-.49,3-.48,4.5A5.67,5.67,0,0,1,151.1,74a.71.71,0,0,0-.08.44,31.19,31.19,0,0,0,1.39,4,2.19,2.19,0,0,1,.21,1.87c-.27.76-.56,1.57.41,2.14a1.48,1.48,0,0,1,.47.66c.61,1.18,1.24,2.36,1.77,3.57a2.5,2.5,0,0,0,2,1.69c.34,0,.61.46.94.67.58.37,1.18,1,1.77,1a7.34,7.34,0,0,1,2.82.89,1.66,1.66,0,0,0,1.24-.06c.7-.35,1.69-.19,2.08-1.14,0,0,.34,0,.52,0,1.79.09,3.47,0,4.66-1.68a2.52,2.52,0,0,1,1.9-1.24c.16,0,.32-.16.46-.27A19.78,19.78,0,0,0,177,83.79a5,5,0,0,0,.66-.94c.44-1,.83-1.93,2.17-1.94a1.18,1.18,0,0,0,1.33-1.29,1.32,1.32,0,0,1,.36-.69c1.13-1.44,2.9-2.28,3.73-4,.52-1.08,2-1.61,1.79-3.11,0-.07.07-.17.14-.22a7.06,7.06,0,0,0,2.21-2.12c.54-1,1.39-1.78,1.49-3a1.43,1.43,0,0,1,.28-.74,12,12,0,0,0,2.12-4.52,2.84,2.84,0,0,1,.75-1.4c.75-.6,1.05-1.16.44-1.94a6.9,6.9,0,0,0,.58-.87c.5-1.15,1-2.31,1.46-3.47a5.59,5.59,0,0,0,.32-1c.16-.73.27-1.47.46-2.19,0-.16.3-.31.49-.38.57-.21,1.19-.31,1.74-.57.88-.42,1.73-.93,2.59-1.39a1,1,0,0,1,.36,0c1.17-.13,2.34-.28,3.52-.38a1.16,1.16,0,0,0,1.19-.79.8.8,0,0,1,.72-.32.85.85,0,0,1,.4.67c0,.72-.07,1.46-.11,2.16a27.89,27.89,0,0,1-1,4.86c-.4,1.7-1.2,3.3-.78,5.19a14.37,14.37,0,0,1-.07,3.58,2.39,2.39,0,0,1-.17.62c-.34,1-.66,1.93-1,2.87-.45,1.11,0,2.13.18,3.19.07.58.29,1.34,0,1.72a3.42,3.42,0,0,0-.18,3.29c.31.87-.26,2.17,1.25,2.41-.39.91-.72,1.69-1,2.48a1.08,1.08,0,0,0,0,.36c0,1.7,1.33,3,1.32,4.75a.28.28,0,0,0,.07.17c.7.78,1.36,1.6,2.11,2.33a6.8,6.8,0,0,0,1.74,1.28,11.28,11.28,0,0,0,2.16.67,2.33,2.33,0,0,0,.59,0,5.87,5.87,0,0,1,1,0c.61.1,1.21.28,1.82.39,1,.18.86-.86,1.34-1.24.07-.05.13-.12.21-.19l.82.3A9.33,9.33,0,0,1,221.14,87a4.7,4.7,0,0,1,1.92-.28,1.49,1.49,0,0,0,1.36-.49,8.84,8.84,0,0,1,1.91-1.66c1.09-.61,2.35-.92,3-2.18a1,1,0,0,1,.87-.31c.95.34,1.51-.26,1.93-.85.92-1.26,2.43-1.48,3.63-2.23.57-.34,1.34-.31,1.64-1.11.07-.19.44-.26.66-.4.39-.25.77-.51,1.15-.78a2.17,2.17,0,0,0,.52-.48c.31-.45.83-.93.81-1.38,0-.82-.49-1.61-.6-2.44C239.69,70.66,238.12,70.57,237,70ZM164.52,46.33c.27-.54.54-1.1.82-1.64a3.79,3.79,0,0,1,.38-.6c.13-.16.38-.26.44-.43a22.62,22.62,0,0,0,.9-3.19c.23-1.44.36-1.76,1.77-1.75,1.21,0,1.34-1.07,2-1.64s1.23-1.82,2.08-2.16a6.2,6.2,0,0,0,2.31-1.59,3.72,3.72,0,0,1,1.13-.55c.86.69.65,1.51.28,2.38-.26.59-.41,1.24-.63,1.85a1.75,1.75,0,0,1-.34.51,14.82,14.82,0,0,1-3.07,2.72c-1.23.82-2.05,2.24-3.05,3.39-.55.63-1.1,1.27-1.7,1.86a1.09,1.09,0,0,1-.8.37c-1.08-.17-1.37.61-1.82,1.3A10.42,10.42,0,0,1,164,48.47l-.41-.29Z"/><path d="M300.83,89.68a4.8,4.8,0,0,1-1.29-1.25c-.54-.75-.93-1.6-1.45-2.36s-1.4-1.64-1.13-2.86a.88.88,0,0,0-.14-.69,3.25,3.25,0,0,1-1-2.34c0-.39.16-.88,0-1.16a4.52,4.52,0,0,1-.67-2.86c.05-1.26-.72-2.54-.77-3.83a17.38,17.38,0,0,1,.57-3.61c.11-.62.47-1.37.24-1.84-.6-1.23-.17-2.36,0-3.53.05-.45.18-.89.24-1.34s.15-1.18.18-1.77.18-1.08,0-1.3c-.79-.76-.08-1.32.12-1.95.07-.23.29-.42.31-.64.16-1.65.28-3.32.43-5a2.51,2.51,0,0,1,.18-.5,7.65,7.65,0,0,0,.65-2.25,14.51,14.51,0,0,0-.55-3.58,4.45,4.45,0,0,1,0-2,1.5,1.5,0,0,0-.19-1.12c-.87-.92-1.55-2.11-2.93-2.45a11.4,11.4,0,0,0-1.75-.48,2.28,2.28,0,0,0-1.11.47c-.22.14-.33.46-.55.6-.87.58-1.72,1-2,2.28a5.12,5.12,0,0,1-1.77,2.84c-.31.24-.36.81-.52,1.23a6.13,6.13,0,0,1-.22.6,11.47,11.47,0,0,0-1.39,2.69c-.17.72-.83.73-1,1.22-.33.86-.6,1.74-.9,2.62-.05.16-.08.43-.19.47-1.17.42-1.16,1.69-1.81,2.48s-1.18,1.79-1.85,2.61c-.86,1.07-2.2,1.91-2.64,3.1-.61,1.69-2.5,2.31-2.86,4.07,0,.16-.42.21-.58.37-.35.35-1,.79-.91,1.1.15.87-.4,1.11-.92,1.41-1.07.63-2.47.73-3.06,2.09a1,1,0,0,1-.73.47c-1.21.13-1.68,1.23-2.52,1.82a5.51,5.51,0,0,1-1.05.73c-.54.22-1.29.12-1.14,1.07,0,.09-.22.32-.35.32-.83,0-1.15.71-1.59,1.24-.19.23-.39.55-.64.61a20.54,20.54,0,0,1-3.7.67,1.51,1.51,0,0,1-1.62-2A2,2,0,0,0,254,75c-.25-.77-.62-1.5-.82-2.27a21.2,21.2,0,0,0-.64-3.25c-.35-.83,0-2,.06-3,0-.53.29-1.22.05-1.57-1-1.41-.52-3-.63-4.46,0-.14.1-.28.16-.42.38-1,.78-2,1.13-3a5.41,5.41,0,0,0,0-.81,5.38,5.38,0,0,1,.34-1.45c.4-.87,1.25-1.58.83-2.72-.07-.19.08-.47.18-.69.48-1.13,1-2.24,1.45-3.37a3.14,3.14,0,0,0,0-.62,8,8,0,0,1,.2-1.39A15,15,0,0,1,257,44.3c.15-.36.36-.68.51-1a16.19,16.19,0,0,0,.94-2.48c.13-.53.18-1,.74-1.23a2,2,0,0,0,1.18-1.69,5,5,0,0,1,.41-1.77c.43-.86.56-1.89,1.58-2.46.36-.19.39-1,.51-1.59.07-.34-.09-.75,0-1.05a2.14,2.14,0,0,0-.22-1.89,4.16,4.16,0,0,0-2.22-1.92,1.3,1.3,0,0,0-.94.08,8.06,8.06,0,0,1-2,.89c-.95.06-1.16.66-1.53,1.29-.78,1.33-1.6,2.64-2.48,3.9-.4.57-.83,1-.51,1.79.07.16-.18.47-.28.7l-1.33,2.86c-.14.3-.24.61-.38.9-.63,1.36-1.75,2.5-1.7,4.16,0,.29-.29.58-.44.87a8.39,8.39,0,0,0-1.14,2.28c-.2,1.14-1.2,2.11-.75,3.39,0,.06-.12.2-.21.28-.85.74-.69,1.72-.71,2.7a8.37,8.37,0,0,1-.37,3.1c-.69,1.57-.13,3.18-.47,4.74-.19.9,0,1.87-.19,2.79-.25,1.58-1,3.18.33,4.65.1.1.06.34,0,.51-.08.89-.18,1.78-.25,2.67a.78.78,0,0,0,.12.52,2.86,2.86,0,0,1,.7,2.61,3.22,3.22,0,0,0,.92,2.54c.55.74,1,1.59,1.47,2.35s1.14,1.42,1.63,2.18.74,1.47,1.15,2.19a1.55,1.55,0,0,0,.61.44c.2.11.46.12.66.23a7,7,0,0,0,2,1.12c1.07.14,2.27.6,3.26-.39.17-.17.56-.09.84-.17.66-.2,1.32-.41,2-.64a10.88,10.88,0,0,1,1.28-.54c.8-.18,1.69-.13,1.84-1.27,0-.15.27-.29.44-.4.41-.27.83-.54,1.26-.78a4,4,0,0,1,.71-.24,4.89,4.89,0,0,0,1.56-.54c.89-.71,1.64-1.59,2.5-2.35.58-.52,1.25-.94,1.86-1.43.44-.36.79-.9,1.29-1.13,1.35-.62,1.63-1,1.6-2.56a.72.72,0,0,1,.27-.56c1-.55,2-1,2.95-1.61a4.92,4.92,0,0,0,1.06-1.16c.29-.35.42-.71.95-1a4,4,0,0,0,1.85-1.76,4.81,4.81,0,0,1,1.57-2.31c.11-.07.15-.25.21-.39.44-.93.86-1.85,1.3-2.78a.49.49,0,0,1,.11-.14c.67-.74,1.37-1.46,2-2.23a19.8,19.8,0,0,0,1.11-1.72c.46.3.62.66.29,1.31a3.08,3.08,0,0,0-.5,1.9A2.28,2.28,0,0,1,287.9,63a2.36,2.36,0,0,0-.08,1.07,6.41,6.41,0,0,1,0,2.31,7.9,7.9,0,0,0-.1,5.19,2.46,2.46,0,0,1,.08.71c-.09,1.32-.2,2.64-.3,4a.35.35,0,0,0,.09.25c.72.5.56,1.27.66,2,.15,1.18.33,2.35.52,3.52a1.26,1.26,0,0,0,.3.65,4.89,4.89,0,0,1,1.21,3.69,3.05,3.05,0,0,0,.32,1.11c.13.37.32.72.46,1.08.79,2.06,1.41,4.23,3.29,5.66a.46.46,0,0,1,.15.23c.18.69.72.81,1.33.9a3.83,3.83,0,0,1,1.18.4,3.1,3.1,0,0,0,3.58-.84c1-1.17.51-2.5.78-3.74A1.18,1.18,0,0,0,300.83,89.68Z"/><path d="M305.76,4.63c-.45-1-1-2-.41-3a2.83,2.83,0,0,0-.13-.69,1.83,1.83,0,0,0-2.37-.72,2.2,2.2,0,0,1-1.05.28,2.14,2.14,0,0,0-2.39,1.35,20.28,20.28,0,0,1-1.2,2.05,11.62,11.62,0,0,0-.93,1.69,14,14,0,0,1-.57,2.14,6.27,6.27,0,0,1-1.88,2,2.17,2.17,0,0,0-1,1.52,4.54,4.54,0,0,0-.28,1.83,12.85,12.85,0,0,0,.87,2.58,1.11,1.11,0,0,0,1.67.52,1.84,1.84,0,0,1,2.05-.18,3.08,3.08,0,0,0,2.56-.4,1.05,1.05,0,0,0,.45-.64,10.07,10.07,0,0,0,.36-1.8,3.15,3.15,0,0,1,1.92-2.64,1.33,1.33,0,0,0,.51-.69c.29-.8.52-1.62.79-2.43A.8.8,0,0,1,305,7,1.81,1.81,0,0,0,305.76,4.63Z"/></g></g></svg>