<svg xmlns="http://www.w3.org/2000/svg" viewBox="0 0 305.65 161.27"><g id="Calque_2" data-name="Calque 2"><g id="P1_m3_2"><path d="M79.66,93.36c-1-.1-2.11-.23-3.18-.25A5.65,5.65,0,0,1,72,90.73a15.43,15.43,0,0,1-2-3.29,43.6,43.6,0,0,1-3.56-17.78,3.12,3.12,0,0,1,.5-1.51c1.56-2.66,3.27-5.24,4.71-8a66.49,66.49,0,0,0,3.25-7.32,7.61,7.61,0,0,0,0-5.4,3.42,3.42,0,0,0-1.18-1.64A6,6,0,0,0,66.1,47.4,45.64,45.64,0,0,0,59,67.67a3.47,3.47,0,0,1-.54,1.62Q51.54,79,44.54,88.69c-.88,1.21-1.91,2.33-3,3.69.06-.51.08-.73.11-.94,1.35-8.77,2.88-17.52,4-26.32a123.66,123.66,0,0,0,.8-26.37,27.75,27.75,0,0,0-2.3-9.81,8.58,8.58,0,0,0-5.36-4.89,12.63,12.63,0,0,0-6.2-.21,17.94,17.94,0,0,0-8.68,5C13.61,38.59,6.28,50.35.93,63.4A19.5,19.5,0,0,0,0,67.45a1.42,1.42,0,0,0,1,1.63,6.76,6.76,0,0,0,5.45,0,2,2,0,0,0,.94-1.2c.41-1.47.49-3,1-4.45a100.16,100.16,0,0,1,11.36-20.7A64.64,64.64,0,0,1,32.05,29c3.13-2.51,3.13-2.9,5.1,1.38,1.49,3.24,1.77,6.8,2,10.32a142.13,142.13,0,0,1-.93,24.4,335,335,0,0,1-6.6,38.26,4,4,0,0,1-.77,1.53c-3.19,4.16-6.54,8.21-9.59,12.48A90.58,90.58,0,0,0,8,143.48a32.18,32.18,0,0,0-1.65,11.6c.16,2.54.86,4.78,3.62,5.73a8.94,8.94,0,0,0,9.59-2.62,14.08,14.08,0,0,0,2-2.78c2-4,4-8.07,5.69-12.25,4.8-12.06,8.2-24.55,11.26-37.15a4.78,4.78,0,0,1,.9-1.82c4.41-5.31,8.9-10.55,13.25-15.9,2.45-3,4.69-6.19,7.13-9.44.11.46.19.78.27,1.1a35.24,35.24,0,0,0,3.63,10.11A11.8,11.8,0,0,0,72.4,96a60.06,60.06,0,0,0,6.14.53,6.83,6.83,0,0,0,2.59-.3A5.78,5.78,0,0,0,82.75,95a10.34,10.34,0,0,0-1.59-1.31A3.86,3.86,0,0,0,79.66,93.36ZM14,155.1a23.16,23.16,0,0,1,.87-9.27,84.43,84.43,0,0,1,10.47-23.06,20.78,20.78,0,0,1,1.85-2.59C23.82,132.21,20.2,144.13,14,155.1Z"/><path d="M171.78,102a52.26,52.26,0,0,1-7.69-13.54,1.54,1.54,0,0,1,.33-1.75c1.13-1.35,2.22-2.74,3.23-4.18,2.94-4.22,5.31-8.72,6.15-13.87a14.55,14.55,0,0,0-1.23-9.21c-2.62-5.13-12-5.57-14.69-.06a31.61,31.61,0,0,0-1.79,4.25c-2.39,7.5-2.14,15-.24,22.59.09.37.12,1-.1,1.18a25.94,25.94,0,0,1-9.23,6.41,1.24,1.24,0,0,1-1.65-.43,22,22,0,0,1-2.19-4.12,34.85,34.85,0,0,1-1.43-12.63c.55-12.61,1.29-25.21,1.91-37.82.15-2.93.28-5.87.2-8.8-.06-2-.81-2.65-2.8-3-3.59-.71-5.52.43-6.49,4-.6,2.19-1.11,4.41-1.55,6.64C131.43,43,130.41,48.47,129.34,54a18.15,18.15,0,0,0-12.06,5.61A33.79,33.79,0,0,0,108.81,74a20.17,20.17,0,0,0-.3,11.29,7.94,7.94,0,0,0,8.07,6.33,10.81,10.81,0,0,0,9-4.08c3.18-3.79,5-8.27,6.51-12.89.67-2.06,1.23-4.15,1.79-6,0,3.71-.08,7.6,0,11.49a32.66,32.66,0,0,0,1.74,10.59A9,9,0,0,0,142.77,97a15.75,15.75,0,0,0,9.37-1.06c2.09-.93,4.07-2.13,6.15-3.24.15.28.35.67.56,1a75.12,75.12,0,0,0,11.41,16,6.13,6.13,0,0,0,6.86.85c.9-.53.95-1,.28-1.84C175.5,106.48,173.54,104.3,171.78,102ZM127.67,62.69c-1.22,5.64-2.5,11.27-4.9,16.53a68.41,68.41,0,0,1-4,6.94,12.8,12.8,0,0,1-1.59,1.77c-.47-1.08-.91-1.9-1.19-2.78a16.69,16.69,0,0,1-.18-9.24,30.61,30.61,0,0,1,9.57-16.1,16.33,16.33,0,0,1,2.17-1.49,10.67,10.67,0,0,1,1.1-.53C128.3,59.57,128,61.13,127.67,62.69ZM162,79a34.8,34.8,0,0,1,3.11-19.09,11.39,11.39,0,0,1,1.43,6.8,28.29,28.29,0,0,1-4.21,12C162.33,78.77,162.22,78.82,162,79Z"/><path d="M304.24,132.84c-3.19-2-6.49-3.73-9.64-5.75a21,21,0,0,1-8.6-10.83,1.69,1.69,0,0,1,.38-2,45,45,0,0,0,9.81-15,18.19,18.19,0,0,0,1.41-7.63c-.19-2.7-1.2-4.92-3.89-6a10.21,10.21,0,0,0-11.32,2.86,22.38,22.38,0,0,0-2.94,4.88,31.52,31.52,0,0,0-1.75,20.25,1.67,1.67,0,0,1-.2,1.36c-3.51,3.22-7.3,6-11.92,7.49-1.94.62-2.91.19-3.85-1.63a5,5,0,0,1-.64-1.74,39.75,39.75,0,0,1-.33-6.34c.33-4.65.88-9.28,1.38-13.91a247.36,247.36,0,0,1,7.4-40.67A61.72,61.72,0,0,0,271,51.26a2.24,2.24,0,0,0-.64-1.82c-2.33-1.87-6.74-.84-7.92,1.87-.89,2-1.57,4.19-2.28,6.31q-3.81,11.31-7.58,22.64c-.19.57-.34,1.11-1.19,1.19a22.79,22.79,0,0,0-9,2.87c-8,4.48-13.13,11.35-16.55,19.65a12.88,12.88,0,0,0-.81,4.62c-.05,3.4,1.58,5.42,4.91,6a14.53,14.53,0,0,0,4.79,0c3.69-.61,6.43-2.93,8.88-5.57a71.26,71.26,0,0,0,10.76-15.91l1-2a4.68,4.68,0,0,1,.08.58c-.62,5.43-1.32,10.85-1.81,16.29a68.07,68.07,0,0,0-.3,10c.23,4.07,2.82,6.73,6.77,7.63a18.43,18.43,0,0,0,11.72-1.24c2.78-1.21,5.4-2.78,8.21-4.25a25.22,25.22,0,0,0,9.07,9.34c3.17,1.91,6.38,3.76,9.6,5.6a6.19,6.19,0,0,0,5,.5,8.11,8.11,0,0,0,1.84-1.21A7.44,7.44,0,0,0,304.24,132.84Zm-71.13-21.67a7,7,0,0,1-.27-5.25,29.84,29.84,0,0,1,2.14-5.27c3-5.49,6.79-10.38,12.25-13.71a15.88,15.88,0,0,1,3.07-1.41C246,95,241.46,104.22,233.11,111.17ZM284.22,107a29.32,29.32,0,0,1,5.31-17.87,9.64,9.64,0,0,1,.31,6.15,32.52,32.52,0,0,1-5.22,11.43A2.26,2.26,0,0,1,284.22,107Z"/><path d="M220,113.5a6.47,6.47,0,0,0-2.14-.43,4.37,4.37,0,0,1-4.37-3.32,13.58,13.58,0,0,1-.58-3.67c0-2.94.21-5.87.32-8.8.1-2.5.23-5,.28-7.48a3,3,0,0,0-2.08-3.26c-2.8-.84-5.46-.67-7.73,1.38a35.82,35.82,0,0,0-2.88,3c-3.73,4.2-7.44,8.42-12.08,11.68-1.15.81-2.4,1.49-3.73,2.3a9.16,9.16,0,0,1-.72-1.92,26.55,26.55,0,0,1-.46-5.23,55.78,55.78,0,0,1,7.67-24.57,34,34,0,0,1,7.06-9.08.84.84,0,0,0-.06-1.47,3.49,3.49,0,0,0-1.18-.57,6.61,6.61,0,0,0-7.13,2.14c-7,8-11.12,17.43-13.17,27.81a26.32,26.32,0,0,0-.22,11.14,6,6,0,0,0,5.13,4.95c4.06.76,7.7-.39,11.12-2.45a53.13,53.13,0,0,0,11.51-10c.37-.41.7-.86,1-1.3a3.18,3.18,0,0,1,.26,1.44c-.14,3.59-.4,7.19-.39,10.78,0,3.27,1.07,6.13,4.16,7.86a13.13,13.13,0,0,0,6.13,2,17.1,17.1,0,0,0,4.3-.61c.45-.11,1.1-.78,1.07-1.16S220.44,113.71,220,113.5Z"/><path d="M167.55,44.35a7.1,7.1,0,0,0,2.13.49,5.92,5.92,0,0,0,4.63-1.58c7.06-6.45,14.2-12.83,21.25-19.3a29.93,29.93,0,0,0,3.41-4c.69-.91.49-1.52-.6-1.94a16.88,16.88,0,0,0-2.36-.61c-1.65.18-3,.15-4,1.36a45.06,45.06,0,0,1-3.31,4c-2.64,2.59-5.35,5.12-8.1,7.6-4.45,4-8.95,7.93-13.43,11.89C166.12,43.13,166.22,43.83,167.55,44.35Z"/><path d="M35.42,7.26a7.37,7.37,0,0,0,1.78.5c3.28.53,5.48-1.54,7.92-3.25L42.49,0c-.53.41-1,.76-1.39,1.07L35.27,5.18C34.17,6,34.2,6.71,35.42,7.26Z"/><path d="M229.33,60.17c.92-.44.86-1.2,0-1.78a7,7,0,0,0-6.14,0c-.85.58-.9,1.35,0,1.78a21.46,21.46,0,0,0,3.06,1A23.13,23.13,0,0,0,229.33,60.17Z"/></g></g></svg>