<svg xmlns="http://www.w3.org/2000/svg" viewBox="0 0 306.12 156.2"><defs><style>.cls-1,.cls-2{fill:#fe5f58;}.cls-1{opacity:0.2;}</style></defs><g id="Calque_2" data-name="Calque 2"><g id="Phrase_2" data-name="Phrase 2"><g id="P2_m4_2"><path class="cls-1" d="M302.66,50c3.4-3.68,4-9.29,3.06-14-1.83-9.21-9.87-17-19.1-16.86C284.53,9.61,279-3.35,267.91.8c-5.81,2.17-7.69,8.33-8.5,13.93a144.47,144.47,0,0,0-1.33,14.41c-5,.94-8.5,3.53-11.82,8.41-1.94,2.84-4,5.85-7.08,7.52C235.55,47,231,47.45,227,48c-8.7,1.09-17.55,1.32-26.15,3.12A49.83,49.83,0,0,0,181,60c-2.49-3.19-5.34-6.15-9.23-7.44-4.29-1.43-8.51-.38-12.45,1.53-5.15,2.5-9.55,6.6-14.81,8.83-2.45,1-4.13.45-6.5-.4a29.2,29.2,0,0,0-9-1.92c-6.93-.2-13.44,3.2-19.46,6.25-6.49,3.28-13.08,6.7-20.06,8.84-13.07,4-25.21-.82-38.19-2.61C37.44,71.2,22.43,70.92,11,80.27a3.7,3.7,0,0,0-1.4,3.37C3.68,90.05.57,100.06.08,109.4c-1,19.17,7.78,40.7,28.05,46,10.62,2.76,20.37-1.66,26.31-10.21,3.65,2.18,7.37,2.68,12.12,1.23,5.72-1.75,10.37-5.87,16.47-6.34,5.1-.4,10.36.34,15.3-1.38a16.43,16.43,0,0,0,9.38-8.69,113.49,113.49,0,0,0,31.61,1.1A104.43,104.43,0,0,0,155.38,128c5.92-1.64,11.43-4.27,17.26-6.14,9.52-3,19.35,0,28.82-3.82,9.86-4,19.45-11.71,30.63-10,11.46,1.8,22.88,2.65,33.79-2.36,1.79-.82,3.18-2,5.22-2.13s4,.66,5.92,1.11c5.09,1.17,9.73,1.06,14-2.33,6.16-4.94,6.57-13.47,5.71-20.72-.46-3.9-1.27-7.72-2-11.58C294,66,291,59.55,294,55.93,296.22,53.25,300.23,52.61,302.66,50Z"/><path class="cls-2" d="M59.37,123.3c-.51-1.28-1-2.58-1.53-3.86-.66-1.61-1.33-3.22-2-4.82a13.78,13.78,0,0,0-1.28-2.51,5,5,0,0,1-.86-3.17c0-.8-.12-1.6-.08-2.4.09-1.75-1.22-3.12-1.19-4.9,0-.93-.75-1.86-1.16-2.8-.67-1.55-1.31-3.12-2-4.66A19.63,19.63,0,0,0,48,91.84a1.09,1.09,0,0,0-.87-.42c-1.69.18-2.25,1.1-1.87,2.82a6.25,6.25,0,0,1,.14,2,5.38,5.38,0,0,0,.86,3.31,22,22,0,0,1,1.32,3.07c.79,2.13,1.56,4.28,2.31,6.43a7.33,7.33,0,0,1,.58,2,31.28,31.28,0,0,1-1.24,11,19.33,19.33,0,0,1-5.83,9.17A6.61,6.61,0,0,1,38.6,133c-3.56-.15-6.26-1.91-8.62-4.34-2.13-2.2-3.35-5-4.56-7.71a41.6,41.6,0,0,1-2.29-8c-.57-2.61-.9-5.27-1.27-7.92a29.75,29.75,0,0,1-.37-8.27,5.18,5.18,0,0,0-.31-2.5c-.42-1.09-.86-2.36-2.45-2.15-.14-.44-.26-.83-.39-1.22l-.18,0c-.09.54-.18,1.07-.29,1.74L17,91.94a10.85,10.85,0,0,0,.65,2.75,13.81,13.81,0,0,1,.71,4.59c0,.84-.16,1.69-.15,2.53.06,3.4,1.21,6.68,1.14,10.09a2.51,2.51,0,0,0,.14.52c.39,1.47.78,2.94,1.16,4.41.33,1.25.6,2.51,1,3.74.83,2.58,2.47,4.74,3.71,7.11a19.21,19.21,0,0,0,4.87,5.49,13.31,13.31,0,0,0,8.67,3.08,8.37,8.37,0,0,0,3.54-.64,15.51,15.51,0,0,0,6.7-5.63,25.67,25.67,0,0,0,3.59-8.49c.22-1,.47-2,.75-3.19.32.58.52.93.7,1.29.41.84.87,1.65,1.2,2.52.74,2,1.37,4,2.11,5.94a2,2,0,0,0,2.43,1.5c1-.1,1.07-.29,1.25-1.4a2,2,0,0,0-.35-1.4C60.26,125.64,59.84,124.46,59.37,123.3Z"/><path class="cls-2" d="M290.16,38.73c-.29-.95-.29-.94-1.38-.94a2.44,2.44,0,0,1-.68-.2,3,3,0,0,1-2.33,1.23,17.41,17.41,0,0,0-2.73.56c-.35.07-.68.21-1,.27-.83.15-1.68.22-2.5.42-1.72.44-3.42.94-5.19,1.43-.1-.75-.25-1.41-.27-2.07-.11-3.71-.25-7.43-.26-11.14a21.31,21.31,0,0,0-.77-6.74,2.6,2.6,0,0,0-1.55-1.5c-.49-.26-1.71.44-1.55.88.26.75-.32,1.33-.07,2.09a17.06,17.06,0,0,1,.69,5.29c.05,1.78.38,3.55.58,5.32a5.25,5.25,0,0,1,.1,1.71,12.57,12.57,0,0,0-.26,6,6.44,6.44,0,0,1,0,1.33,18.32,18.32,0,0,1-2.44.72,24.59,24.59,0,0,0-5.61,1.78c-.48.2-.95.45-1,1.09h.57c-.93,1-.84,1.1.37,1.64a2.62,2.62,0,0,0,2,0c2-.63,4.09-1.19,6.23-1.8a7.13,7.13,0,0,1,.12.77c-.08,1.83.24,3.64.12,5.48a40.11,40.11,0,0,0,1,9.57c.81,4.55,2.3,8.91,3.5,13.36.17.63.61,1.2.74,1.84.51,2.45.9,4.92,1.44,7.37.43,2,1,3.86,1.5,5.8a1.7,1.7,0,0,0,1.65,1.26c1.21.14,1.95-.92,1.6-2.28s-.74-2.48-1.08-3.72-.58-2.24-.82-3.37c-.46-2.1-.75-4.24-1.36-6.29A44.32,44.32,0,0,1,277.93,70a10.41,10.41,0,0,0-.46-1.4c-.35-1.16-.74-2.3-1-3.47-.39-1.75-.6-3.54-1.05-5.27-.81-3.07-.36-6.24-.83-9.33a3.81,3.81,0,0,1,.07-.67c0-.57,0-1.15,0-1.72,0-1.1-.51-2.19-.05-3.22,1.7-.53,3.31-1.07,5-1.51a9,9,0,0,1,2.62-.33,4,4,0,0,0,2.16-.53,3.33,3.33,0,0,1,1.49-.49,7.08,7.08,0,0,0,3.83-1.31C290.41,40.28,290.52,39.85,290.16,38.73Z"/><path class="cls-2" d="M250.23,89.61c-.07-1.6-.35-3.19-.55-4.79-.22-1.77-.45-3.54-.68-5.31a20.67,20.67,0,0,0-.43-3.17,18.72,18.72,0,0,1-.89-8c.85-.44,2.11,0,2.94-1.17-.56-.59-1.36-1.1-1.41-2.06,0,0-.06-.06-.1-.09-1-.72-2-1.48-3.11-2.12a3.46,3.46,0,0,0-1.55-.3,36,36,0,0,0-3.89,0,6.52,6.52,0,0,0-2.82.63c-2.48,1.57-5.11,3-6.46,5.86a4.46,4.46,0,0,1-.33.43c-.71,1.13-1.47,2.24-2.1,3.41a7.47,7.47,0,0,0-.93,3.87,17,17,0,0,1-.34,3.33,12.3,12.3,0,0,0-.17,4.4c.3,1.65.06,3.35.51,5a3.09,3.09,0,0,0,.78,1.73,5.91,5.91,0,0,1,.71,1A3.53,3.53,0,0,0,232.93,94a7,7,0,0,1,1.88,0,4.77,4.77,0,0,0,3.71-1.25,21.18,21.18,0,0,0,4.87-5.67c.89-1.43,1.68-2.93,2.52-4.38,0,0,.11.09.12.16l1.17,7.93c.15,1.06.24,2.14.48,3.18a4.13,4.13,0,0,0,.82,1.47,1.37,1.37,0,0,0,1.54.14c.13.17.27.33.41.5,1.17-1.22,1.25-2,.58-3.56A8,8,0,0,1,250.23,89.61ZM244,73.72c-.2,1.46-.47,2.9-.62,4.36a14.64,14.64,0,0,1-1.3,4.91,27.34,27.34,0,0,1-5.48,7.25,2,2,0,0,1-1.05.52,12,12,0,0,1-2,.2,3.3,3.3,0,0,1-2.69-2.44c-.09-.57-.11-1.15-.17-1.73,0-.37.11-.78-.39-1.05-.16-.08-.19-.55-.15-.82.29-2.21.62-4.42.92-6.63.1-.7.17-1.42.26-2.13.4-3.23,2.3-5.56,4.61-7.63.66-.59,1.42-1.08,2.14-1.62,2-1.54,2.65-1.83,5.91-1.11a5,5,0,0,0-.08.88c.11,1.55.29,3.1.34,4.66A13.75,13.75,0,0,1,244,73.72Z"/><path class="cls-2" d="M88.59,117.52c-1.49-4.64-2.66-9.37-4.29-14a55,55,0,0,0-4.62-9.67c-.46-.76-.89-1.42-2-1.14-.35.09-.78-.14-1.19-.22-.15.19-.25.43-.43.52a3.87,3.87,0,0,0-1.71,2.46A7.2,7.2,0,0,0,74,98.4a2.78,2.78,0,0,1-.16,1,20.89,20.89,0,0,1-1.31,2.95,12.7,12.7,0,0,0-.92,3.85c-.38,2.2-.69,4.41-1,6.62,0,.16,0,.41-.13.46-.6.26-.57.86-.74,1.34-.44,1.27-.84,2.56-1.31,4a4.14,4.14,0,0,1-.37-.74c-.2-1-.35-1.93-.58-2.88-.4-1.6-1-3.17-1.25-4.8-.47-2.66-1.59-5.11-2.31-7.7a8.06,8.06,0,0,0-.38-.86c-.54-1.36-1.15-2.71-1.6-4.1-.57-1.78-1-3.6-1.51-5.35L58.79,92l-.4-.87A2.45,2.45,0,0,0,57.51,94c.5,1.43.94,2.88,1.4,4.33.08.25.17.51.26.76.94,2.7,2,5.36,2.81,8.11,1.4,4.9,2.58,9.86,3.94,14.77.5,1.79.68,3.7,1.76,5.08a3.17,3.17,0,0,0,2.95,0c.08-.65.23-1.47.27-2.3s0-1.78,0-2.67c0-1.32.12-2.65.21-4,0-.2.16-.51.31-.56.95-.31,1-1.19,1.24-1.92A70.64,70.64,0,0,0,75,104.81a46.49,46.49,0,0,1,2.23-8,5.81,5.81,0,0,1,.48.51c.25.37.5.75.73,1.13,1.89,3,2.89,6.45,4,9.8.78,2.39,1.39,4.82,2.12,7.22a2.58,2.58,0,0,0,.74,1.36,1.5,1.5,0,0,1,.69,1.47c-.06,1.63.58,3.12.84,4.69a10.82,10.82,0,0,0,.33,1.21l.79-.45.48.61,1.14-.59c.71-1.09.31-2.2,0-3.3S88.9,118.5,88.59,117.52Z"/><path class="cls-2" d="M275.06,78.36a48,48,0,0,0-3.19-9.52,39.69,39.69,0,0,0-4-7,3.34,3.34,0,0,0-1.63-1.27c-2.47-.58-5.57,1.75-5.91,4.27a7.71,7.71,0,0,1-.47,1.77c-.46,1.16-1,2.29-1.49,3.44a22.17,22.17,0,0,1-1,2.33A8,8,0,0,0,256,75.89a4.64,4.64,0,0,1-.57-1.3,10.4,10.4,0,0,1,0-3c0-1.52-.18-3-.27-4.56a14.2,14.2,0,0,0-.13-2.27,8.74,8.74,0,0,1,0-3.06,10.61,10.61,0,0,0,0-2.39A8.28,8.28,0,0,0,254.5,57c-.32-.78-.34-1.9-1.59-2-.2.82-.38,1.58-.59,2.46-.15-.69-.28-1.26-.44-1.95-.77.87-.44,1.67-.36,2.46a28.33,28.33,0,0,1,.35,4.67,23.18,23.18,0,0,0,.13,4.93,7.44,7.44,0,0,1,.12,1.88,23.88,23.88,0,0,0,.64,7.44c.2,1,.39,1.92.55,2.89a30.42,30.42,0,0,0,1.37,6.4c.29.75.59,1.49.88,2.24.06.16.17.42.11.49-.49.48,0,.9.05,1.34,0,0,.12,0,.21.07l.14-.94.82,1.91,1.87-1.14a13.55,13.55,0,0,0,.36-2.38c0-2.33-.13-4.66-.14-7a13.75,13.75,0,0,1,1.33-7,8.63,8.63,0,0,0,.39-1c.91-2.38,1.79-4.78,2.76-7.14a15.31,15.31,0,0,1,1.32-2.09,34.07,34.07,0,0,1,2.71,4.12c1.31,2.79,2.44,5.67,3.56,8.54.33.86.35,1.83.6,2.73a42.32,42.32,0,0,0,1.64,5.23,2.83,2.83,0,0,1,.4,2.34,2,2,0,0,0,1.12,2.17c.36.15,1.83-.2,2-.54a3.69,3.69,0,0,0,.25-3A30.27,30.27,0,0,1,275.06,78.36Z"/><path class="cls-2" d="M166.37,79.36l-.38.43-1.9-.78c0,.57.19.94.07,1.08a1,1,0,0,1-.79.16,15,15,0,0,0-1.64-.47,23.57,23.57,0,0,0-3.36,0A6.18,6.18,0,0,0,153.71,82a19.89,19.89,0,0,0-2.1,3.72,22.6,22.6,0,0,0-2.89,11.17,15.46,15.46,0,0,1-.23,2.53,13.47,13.47,0,0,0-.26,2c0,1,.23,2,.33,3.06a2.2,2.2,0,0,0,1.87,2.34c.49.16.94.45,1.43.64a12.3,12.3,0,0,0,1.86.62,11.61,11.61,0,0,0,1.87.08c2.82,0,5.53-.17,7.68-2.39a9.88,9.88,0,0,1,2.68-2,4.46,4.46,0,0,0,2.25-2.51c.39-.95.73-1.92,1-2.91.35-1.14.81-2.29.31-3.52a2,2,0,0,1,0-.8c.08-2.33.13-4.65.24-7A7.16,7.16,0,0,0,168.6,83C167.88,81.76,167.13,80.58,166.37,79.36Zm.89,14.79a9.14,9.14,0,0,1-.24,1.32l-.43-.39c-.21.89-.43,1.69-.59,2.51a8.26,8.26,0,0,1-3.77,5.31c-.44.3-.92.56-1.34.9a4.93,4.93,0,0,1-3.95,1.11,1.68,1.68,0,0,0-.67,0c-1.29.37-2.46-.2-3.65-.48-.55-.13-.81-.48-1-1.12-.47-2,0-3.92.17-5.87.06-1,.19-2,.33-3.06a22.17,22.17,0,0,1,2.46-7.21c.52-1,1.12-1.93,1.69-2.88A3.12,3.12,0,0,1,159,83.09a13.84,13.84,0,0,1,5.86,1.11,1.32,1.32,0,0,1,1,1c.23,1,.49,1.9.69,2.85a20.22,20.22,0,0,0,.65,2.8A9.67,9.67,0,0,1,167.26,94.15ZM168.89,93l.19,0-.19,1Z"/><path class="cls-2" d="M224.2,68c-1.69-.8-3.44-1.47-5.19-2.14-.24-.09-.59.09-.88.14.1-.37-.13-.47-.4-.66a5.9,5.9,0,0,0-2.94-.75,8.4,8.4,0,0,0-6.42,1.62,18.83,18.83,0,0,0-3.53,3.26,7.82,7.82,0,0,0-1.31,5.2,1.35,1.35,0,0,0,.32.71,10.09,10.09,0,0,0,1.07,1.19,4.74,4.74,0,0,0,1,.66c.42.21.89.32,1.31.54,1.34.69,2.66,1.44,4,2.12,1.64.81,3.32,1.54,5,2.38a7.66,7.66,0,0,1,3.6,4,4.48,4.48,0,0,1-.25,4.57,4.38,4.38,0,0,1-3,1.53c-1.76.31-3.55.44-5.33.58-1.11.09-1.59-.29-2-1.33a1.94,1.94,0,0,0-.4-.58,10.88,10.88,0,0,0-.94-.71l-1.24.34a12,12,0,0,0-.39,1.6,2.18,2.18,0,0,0,.12,1.25,3.69,3.69,0,0,0,2.87,2.17,23,23,0,0,0,3.6.21c3.23-.22,6.58-.14,9.1-2.74.82-.85,1.75-1.63,1.6-3a9.14,9.14,0,0,1,0-1.48c.13-2.77-1.84-5.59-3.18-7.55a2.13,2.13,0,0,0-.82-.66,15.66,15.66,0,0,0-3.52-1.76c-1.52-.34-2.88-1.39-4.32-2.1-1-.51-2.09-1-3.17-1.42-1.63-.62-2.06-2.14-1.09-3.31,1.14-1.36,2.53-2.52,3.81-3.77a.45.45,0,0,1,.23-.13c1.62-.21,3.23-.78,4.88-.23.77.25,1.55.48,2.3.77a11.09,11.09,0,0,1,4.25,2.21,1.26,1.26,0,0,0,1.57.24l1.09-1.58C225.06,68.91,224.73,68.25,224.2,68Z"/><path class="cls-2" d="M130.44,97.7a5.09,5.09,0,0,0-1,.87c-.95,1.45-1.84,2.93-2.78,4.39a17.65,17.65,0,0,0-1.18,1.59c-.47,1-.78,2-1.21,3A5.2,5.2,0,0,1,122,110.3a5.84,5.84,0,0,1-3.12.49,7.9,7.9,0,0,1-4.54-2.38,25.47,25.47,0,0,1-2.57-3.1,3.09,3.09,0,0,1-.61-1.59c-.13-3,0-6,.16-9.07s1.63-5.63,2.25-8.5c.1-.47.68-.82.92-1.3a8.23,8.23,0,0,0,.42-1.48,2.92,2.92,0,0,0,2.65-.43h-1.12c0-.61.1-1,.7-1.2a8.94,8.94,0,0,0,1.52-.86,21.07,21.07,0,0,0-2.82-.3,6.62,6.62,0,0,0-1.78.54c-.06,0,0,.24-.09.52-.77-.71-1.41-.59-1.85.32-.9,1.88-1.81,3.77-2.69,5.66a8,8,0,0,0-.51,1.52c-.3,1.44-.58,2.88-.84,4.33a11.77,11.77,0,0,0-.21,1.86c0,1.84-.07,3.68,0,5.51,0,1.51.11,3,.23,4.53a2,2,0,0,0,.4,1c.61.85,1.26,1.68,1.91,2.51a13.73,13.73,0,0,0,5.29,4c2.36,1.06,4.79.93,7.24.71.52,0,1-.53,1.48-.86.21-.15.31-.47.52-.6a6.35,6.35,0,0,0,2.4-3.76,7.63,7.63,0,0,1,.84-1.81,47.94,47.94,0,0,1,3.16-4.64,3.29,3.29,0,0,0,.84-2.92Z"/><path class="cls-2" d="M146.63,86.45c-1.21.17-1.21.14-2.65-.53-.15-.06-.47-.07-.51,0-.27.51-1,.43-1.19.87s-.6.61-1,.79a6.38,6.38,0,0,0-2.73,2.27,17.14,17.14,0,0,0-2.26,5.54l-.29,0c-.21-.89-.48-1.78-.62-2.68a17.87,17.87,0,0,0-1.95-6.37,10.67,10.67,0,0,1-.84-2.11c-.5-1.67-.86-3.39-1.47-5-.52-1.38-1-2.91-2.67-3.12L127,77.68a3.48,3.48,0,0,1,.19.34c.47,1,1,2.09,1.38,3.17.45,1.26.73,2.57,1.15,3.84.54,1.65,1.19,3.26,1.72,4.92a21.7,21.7,0,0,1,.72,3c.26,1.39.4,2.81.66,4.21.47,2.54,1.51,4.94,1.81,7.55A10.54,10.54,0,0,0,137,110l.53-.33c.23.42.46.83.67,1.23a1.28,1.28,0,0,0,1.53-.74,5.48,5.48,0,0,0,.41-1.85,13.63,13.63,0,0,0,0-2.39,19,19,0,0,0-.4-2.21,5,5,0,0,1-.24-.9c.06-2.46.11-4.92.23-7.38a4.85,4.85,0,0,1,.51-1.78,13.68,13.68,0,0,1,1.51-2.38c1-1.16,1.92-2.29,3.74-2.13a2.29,2.29,0,0,0,2.45-1.86C147.56,86.83,147.31,86.36,146.63,86.45Z"/><path class="cls-2" d="M201.41,72.46c-1.25-.43-2.46-1-3.72-1.41-1.88-.66-3.87-.53-5.82-.74a4.61,4.61,0,0,0-3.29.74,1.34,1.34,0,0,0-.68,1.16c-.1,1.15-.37,2.28-.51,3.42-.15,1.29-.36,2.65.79,3.63a19.93,19.93,0,0,0,2.58,1.9,34.46,34.46,0,0,0,4,2.13,4,4,0,0,1,2.6,3.59c.12,2.09,0,4.19,0,6.46a49.47,49.47,0,0,1-7.28,1A2.52,2.52,0,0,1,188,94l.32-.38a21,21,0,0,1-3.23-1.49,2.46,2.46,0,0,0-2.43-.25,1.19,1.19,0,0,0-.51,2,9.45,9.45,0,0,0,2.24,1.45,16,16,0,0,0,2.76,1c1.23.34,2.33,1.12,3.72,1,1-.12,2.05-.06,3.08-.12s2.32-.14,3.47-.3a4,4,0,0,0,3.39-4c0-1.56,0-3.13,0-4.7a12.32,12.32,0,0,0-1.64-5.46,2.82,2.82,0,0,0-1-1c-1.64-1-3.32-2-5-3-.76-.46-1.47-1-2.19-1.52a1.17,1.17,0,0,1-.45-1.42c.2-.69.37-1.37.61-2.24.51,0,1,.09,1.47.17a17.15,17.15,0,0,0,1.72.29,16.22,16.22,0,0,1,5.26.93,2.31,2.31,0,0,0,2-.24l-.36-.56c.51,0,1.06,0,1-.73S201.91,72.63,201.41,72.46Z"/><path class="cls-2" d="M179.9,98.21a7.16,7.16,0,0,0-.61-3.5,1.66,1.66,0,0,1-.22-.88c.32-1-.18-1.83-.45-2.71-.16-.49-.34-1-.51-1.48-.48-1.44-.92-2.89-1.45-4.31-.41-1.13-.93-2.22-1.41-3.32a8.72,8.72,0,0,0-1-2.17,20.7,20.7,0,0,0-2.63-2.4.77.77,0,0,0-1.15.31c-.18.63-1.34,1.18-.27,2,.13.11.28.52.48.8.63.88,1.56,1.61,1.59,2.86a2.25,2.25,0,0,0,.34.87A64.28,64.28,0,0,1,176.52,96a44.67,44.67,0,0,0,1.81,6.48,1.5,1.5,0,0,1,.6.12,1,1,0,0,0,1.41-.16c.55-.51.38-1,.18-1.55A6.55,6.55,0,0,1,179.9,98.21Z"/><path class="cls-2" d="M165.12,65.61c.64.06,1.29.07,1.93.11.19-.4.36-.71.49-1,.21-.54.19-.54-.48-.72a2.07,2.07,0,0,1-.48-.31c-.35-.23-.7-.45-1.15-.72-.31.67-.57,1.2-.8,1.75S164.59,65.55,165.12,65.61Zm1-1.73c.09.45.67,1-.31,1.27C165.33,64.58,166.11,64.31,166.11,63.88Z"/></g></g></g></svg>