<svg xmlns="http://www.w3.org/2000/svg" viewBox="0 0 305.53 91.57"><g id="Calque_2" data-name="Calque 2"><g id="P2_m2_2"><path d="M114.64,57.61c-.73-2-1.62-4-2.49-6-.67-1.54-2.12-2-3.6-2.25a2,2,0,0,0-.92.15c-1,.26-1.79,1.09-2.9,1.09a.64.64,0,0,0-.47.27,5,5,0,0,0-1,1.48c-.89,3-1.69,6-2.52,9.06,0,0,0,.07.14.17.15-.39.3-.76.5-1.25.13,1-.44,2.1-1,2-.18.68-.32,1.38-.55,2.05-.75,2.11-1.54,4.21-2.3,6.32a18.55,18.55,0,0,1-.7,2c-.25.51-.74.9-1,1.4-.58,1-1.06,2-1.66,3s-1.3,1.9-2,2.88a5,5,0,0,1-.46-.33,16,16,0,0,1-4.07-6.21,1.37,1.37,0,0,1,.07-.91,30.1,30.1,0,0,0,2-7.74,16,16,0,0,0-1.32-9.09c-.29-.62-.66-1.45-1.69-1.13-.09,0-.26-.07-.34-.16-.72-.79-1.43-.38-2.15,0a5.17,5.17,0,0,1-1.62.79,2.93,2.93,0,0,0-2.55,2.1,12.25,12.25,0,0,0-.57,1.9A26,26,0,0,0,80,72.68a2.33,2.33,0,0,1-.15,1.56,33.67,33.67,0,0,1-4.51,6.81c-.92,1.07-2,2-3.06,3.15a20.8,20.8,0,0,1-1-2.1q-1.43-4.44-2.79-8.89A27.14,27.14,0,0,0,64.81,65a8.77,8.77,0,0,0-9.57-3.45,19.73,19.73,0,0,0-3.68,1.26,51.13,51.13,0,0,0-4.87,2.8c-2,1.26-3.91,2.62-5.88,3.9a6.83,6.83,0,0,1-2.27,1.17c-.65.12-1.13.2-1.42.81a1.87,1.87,0,0,1-.28.32c-.2-.44-.41-.6-.74-.17s-.66.77-1.05,1.22l-.39-1c-.69,2.16-.19,4.46-1.12,6.55.09-1.24.17-2.48.25-3.71h-.22c0,.36-.06.72-.07,1.09a9.92,9.92,0,0,1-1.59,5.41,5.15,5.15,0,0,1-3.16,2.33,8.06,8.06,0,0,1-5.27-.73,18.39,18.39,0,0,1-7.65-7.46c-3.77-6.48-5.57-13.61-6.51-20.94-.66-5.08-.86-10.21-1.26-15.32,0-.43.07-.71.54-.81,3.07-.65,6-1.95,9-2.7,2.59-.63,5.12-1.48,7.68-2.23a1.53,1.53,0,0,0,.88-1.52,1,1,0,0,0-1.05-.95,2.84,2.84,0,0,1-.92-.33c-.26-.1-.54-.32-.76-.27-1.39.3-2.76.65-4.13,1-.85.23-1.68.56-2.53.8-2.24.62-4.48,1.21-6.71,1.82-.63.17-1.25.37-2,.58v-.86c0-1.94,0-3.88.07-5.81.19-6.19.4-12.37.59-18.55C8.82,6.88,8.9,4.49,9,2.1,9,1.2,8.69.87,7.88.79,7.72,1.86,7.51,2.93,7.42,4a24.5,24.5,0,0,0,0,2.71c0,.67.11,1.34.09,2,0,.5-.21,1-.25,1.5,0,.25.23.52.2.77-.07.54-.3,1.06-.33,1.6-.1,1.67-.14,3.34-.18,5-.07,2.7-.12,5.41-.17,8.11s-.1,5.68-.16,8.52a3.76,3.76,0,0,1-.17.72.53.53,0,0,1-.23-.42c0-3.94,0-7.89,0-11.83,0-1.42.23-2.85.29-4.27.14-3.41.24-6.83.36-10.24C6.91,5.89,7,3.58,7,1.27c0-.42,0-1-.61-1s-.77.52-.95,1a1.54,1.54,0,0,0,0,.48c-.1,2.94-.21,5.88-.31,8.83a3.65,3.65,0,0,1,0,.47,2.44,2.44,0,0,1-.06.39C4.88,8,5.46,4.5,4.92.86c-.17.3-.2.44-.28.47-.9.29-1,1-1,1.79,0,2-.08,4.06-.16,6.09-.1,2.43-.28,4.86-.34,7.29-.16,6.32-.28,12.64-.42,19a2,2,0,0,1-.1.47.92.92,0,0,1-.16-.55c.09-4.38.14-8.75.27-13.13.17-5.78.42-11.55.6-17.33,0-1.14-.07-2.29-.11-3.43H2.83c-.44,11.62-.9,23.24-1,34.87H1.39q.35-13.24.68-26.49a.39.39,0,0,0-.27.34c-.14,3.81-.31,7.63-.41,11.44-.12,4.59-.21,9.18-.24,13.77A2.58,2.58,0,0,1,0,37.76l.83.34-.76.31,0,.23L1,38.55c.34,7.26.67,14.56,2.32,21.72A126.49,126.49,0,0,1,1.72,39.52,158.82,158.82,0,0,0,4.45,64.31c-.29-1.19-.59-2.38-.88-3.57l-.32.09A52.62,52.62,0,0,0,5.51,69l.22-.7.19.07c-.06.2-.13.39-.19.6s-.16.39-.1.54q1,2.63,2.13,5.23c0,.15.24.23.34.36a4.17,4.17,0,0,1,.62.78c.1.22,0,.57.11.76.36.55.84,1,1.2,1.57s.54,1.16.92,1.65a19.67,19.67,0,0,0,6.43,5.5,19.14,19.14,0,0,0,15.15,1.15,10.48,10.48,0,0,0,6.16-4.86,11.27,11.27,0,0,0,1.55-5.22A2.44,2.44,0,0,1,41.89,74c2.34-1.22,4.49-2.8,6.73-4.22s4.63-2.9,6.93-4.36a1.14,1.14,0,0,1,1.63.26A16.71,16.71,0,0,1,59.1,68.3c2.07,3.9,2.84,8.22,4.25,12.33C64,82.46,64.8,84.22,65.54,86a1.12,1.12,0,0,0,.35.4s.17-.06.27-.1c0,.14,0,.28.08.43s0,.22.06.25a8.5,8.5,0,0,0,2.12,1.28,9.77,9.77,0,0,0,8.18-1.19,25.06,25.06,0,0,0,6.11-6.13l.84-1.1c.55.58,1,1.12,1.5,1.57a12.81,12.81,0,0,0,2.48,2c2.93,1.44,8.62,1.26,11.1-2.48,1.32-2,2.55-4,3.76-6.09.27-.45.46-.63,1-.45a9,9,0,0,0,1.76.47c3.4.46,6.59.16,9-2.68,2.15-2.54,3.17-5.38,2.21-8.72C115.79,61.48,115.31,59.51,114.64,57.61Zm-4.27,9.86-.24,0c-.06-.74-.11-1.48-.17-2.22l-.24,0a5.61,5.61,0,0,1,0,.58c-.1.85-.24,1.7-.31,2.56-.08,1-1,1.51-1.46,2.28-.11.16-.57.2-.84.15-.82-.16-1.64-.39-2.47-.59,1.18-3.65,2.37-7.35,3.56-11.06h.34C109.05,62,110.6,64.54,110.37,67.47Z"/><path d="M211.71,74.78c-1.62-.74-3.25-1.46-4.86-2.21A12.3,12.3,0,0,1,200,64.14c-.58-2.18-.09-4.39.26-6.57.4-2.41.85-4.81,1.26-7.22a2,2,0,0,0-1-2.32,5.56,5.56,0,0,0-3.6-.66c-1.51.39-3,.8-4.51,1.28a8.82,8.82,0,0,1-4.12.69c-1.55-.23-3.1-.46-4.63-.78a3.68,3.68,0,0,1-2.5-1.54,3.16,3.16,0,0,0-.79-.64l-.46.56c-.39-.61-.8-1.2-1.53-.87-.26.12-.35.62-.49.9-.29,0-.75-.23-1.07-.1s-.56.59-1,1.06l-.47-.87c-.39.37,0,1.22-1.11.8.23.84.39,1.47.58,2.1a20.19,20.19,0,0,1,.6,6.84,21.72,21.72,0,0,1-3,9.66c-.62,1.06-1.38,2-2.1,3a6.16,6.16,0,0,1-.87.82c-1.26,1.19-2.51,2.38-3.92,3.7a29.83,29.83,0,0,1-1.82-2.47,27.71,27.71,0,0,1-2.95-8,2.72,2.72,0,0,1,.13-1.84,116.09,116.09,0,0,0,8-23.45,62.44,62.44,0,0,0,1.36-16.06c-.18-4-.65-8.1-1.09-12.14-.28-2.54-.66-5.06-1.16-7.56A3.38,3.38,0,0,0,163.56.21c-1,.38-2,.74-3,1.14a2.7,2.7,0,0,0-.85.57,15.19,15.19,0,0,0-3.23,5.22c-.57,1.38-1.07,2.8-1.53,4.23-.53,1.6-1.06,3.2-1.44,4.84-.53,2.32-1,4.67-1.37,7A85.62,85.62,0,0,0,151,39.39c0,2.84.15,5.69.46,8.52.51,4.64,1.22,9.26,1.82,13.89a2.58,2.58,0,0,1-.08,1.39c-1.33,2.54-2.59,5.13-4.12,7.54a77.8,77.8,0,0,1-8.24,11.2c-2.14,2.31-4.42,4.51-6.71,6.68-1,1-1.21,1.46-.55,2.54a5.18,5.18,0,0,0,1,.33,6.74,6.74,0,0,1,1.68,0,1.58,1.58,0,0,0,1.48-.25c.15-.09.39-.23.5-.18.59.33,1-.09,1.36-.37a20.73,20.73,0,0,0,1.79-1.46,81.71,81.71,0,0,0,12.25-14.63c.72-1.07,1.4-2.17,2.14-3.31.67.53,1.4.87,1.13,1.86a.54.54,0,0,0,.16.43,25.3,25.3,0,0,0,2,2.37,6.23,6.23,0,0,0,3.8,1.67,13.43,13.43,0,0,0,11-4.06A29.43,29.43,0,0,0,180,65.06a22.31,22.31,0,0,0,2.38-8.85c.07-1.18.11-2.37.17-3.64,3.94.77,7.87,1,11.83-.47-.05.42-.07.63-.11.83-.35,2.07-.73,4.13-1.06,6.21a15,15,0,0,0,.32,7.71,3.65,3.65,0,0,0,1.24,2,2.62,2.62,0,0,1,.94,1.77c.07.63.9,1.2,1.42,1.76a12.69,12.69,0,0,0,4.47,3.11c1,.43,2,.84,3,1.36A9.43,9.43,0,0,0,209.89,78a.77.77,0,0,0,.55-.35c.15-.55.44-.33.79-.26a1.37,1.37,0,0,0,1-.13A1.52,1.52,0,0,0,211.71,74.78Zm-53-25.21a89.67,89.67,0,0,1,3.26-39C164.35,23.85,163.87,36.91,158.74,49.57Z"/><path d="M305.25,61.79a13.08,13.08,0,0,0-2.63-.69c-1.56-.12-3.14,0-4.71-.05-1.72,0-3.45-.06-5.17,0-.89,0-1.78.19-2.66.12-1-.08-2.05-.45-3.09-.51a22.18,22.18,0,0,1-6.61-1.47,8.68,8.68,0,0,1-2.9-2.13,16,16,0,0,1-1.84-2.74,24.81,24.81,0,0,1-1.51-2.58c-1.08-2.33-3.1-3.25-5.42-3.54-2.09-.26-4,.7-5.81,1.52a4.52,4.52,0,0,0-1,.85c-2,.3-3.45,1.7-5,2.87s-3,2.72-4.47,4.14c-.06-.27-.1-.5-.16-.72-.45-1.67-.83-3.35-1.36-5a4.42,4.42,0,0,0-2-2.63,12,12,0,0,0-2.37-.88,4.53,4.53,0,0,0-3.8,1.14,2.07,2.07,0,0,0-.68-.08,15.62,15.62,0,0,0-4.62,2.73,15,15,0,0,0-1.9,1.67,10.57,10.57,0,0,0-2.44,3.38c-.09.22-.46.33-.71.48-.1.07-.25.09-.3.18-.55.89-1.09,1.79-1.61,2.7a10.71,10.71,0,0,0-.43,1c-.09.06-.34.13-.44.29-1.05,1.65-2.12,3.29-3.1,5-.53.94-1.26,1.83-1.14,3-.24,0-.57,0-.68.09-.38.46-.68,1-1,1.48a1.29,1.29,0,0,1-.58.49c-.14,0-.45-.16-.54-.33a37,37,0,0,1-2.33-5.09,15.59,15.59,0,0,1-.29-6.7,1.34,1.34,0,0,1,.44-.77c1.5-1.39,3.07-2.71,4.5-4.15a9.55,9.55,0,0,0,2.57-4.15c.54-1.94.21-3.23-1.12-4.11-.35-.23-.85-.24-1.24-.44a5.09,5.09,0,0,0-3.72-.39,26,26,0,0,0-3.68,1.39,3.87,3.87,0,0,0-1.66,1.13,21.27,21.27,0,0,0-1.48,2.94c.12.24.35.5.32.72-.22,1.65-.49,3.29-.76,4.94a4.2,4.2,0,0,1-.21.66l-.21,0,.15-1.56c-.18.05-.25.13-.27.22-.32,1.34-.32,1.34-1.61,1.1-.71-.13-.85,0-.71.73a.76.76,0,0,1-.07.41,21.68,21.68,0,0,0-2.43.58c-.78.27-.77.48-.13,1,.09.07.11.23.19.43l-.71-.31a2.41,2.41,0,0,1-.08.25c1.57.58,3.11,1.29,4.9,1,0,.81,0,1.47,0,2.13s0,1.29,0,1.94l.34,0v-4h.25a5.62,5.62,0,0,1,.06.56,21.59,21.59,0,0,0,.61,6.31,12.88,12.88,0,0,0,.82,1.85.65.65,0,0,0,0,.42c.66,1.29,1.33,2.58,2,3.85a3.79,3.79,0,0,0,1.8,1.92A9.78,9.78,0,0,0,226,76a3.55,3.55,0,0,0,1-.56,21.28,21.28,0,0,0,5-6.16c1.47-2.42,2.85-4.91,4.35-7.31a30.92,30.92,0,0,1,7-8.41c.65-.51,1.32-.47,1.57.27a22,22,0,0,1,1,3.44c.4,2.48.68,5,1,7.49.09.76.08,1.54.12,2.31l-.24,0c-.56-4.1-.46-8.31-1.91-12.27a130.54,130.54,0,0,1,1.79,14.52c.12-.31.23-.61.4-1,0,.35.05.59.1.82s.12.49.22.89l.59-.64c.31.92,1.08,1,2.07.07.12.77.59.88,1,.41a5,5,0,0,0,.63-1.46l.77,1.5a7,7,0,0,0,.81-1.26A31.64,31.64,0,0,1,256.55,62a29.55,29.55,0,0,1,9.7-9.34c.39-.23.76-.37,1.12.09s.79,1,1.2,1.48.56,1,1.27,1c-.48.9-.38,1,1.12,1.48l-.6.27a10,10,0,0,0,.9,1.54c.74.88,1.24,2.07,2.63,2.2.11,0,.3.28.28.32-.28.4.13.5.3.56a42,42,0,0,0,4.13,1.55,49.26,49.26,0,0,0,11.21,1.49c1.91.09,3.82.09,5.73.11s4.11.06,6.16,0c.73,0,1.67.06,1.85-.82.6,0,1.32.18,1.47,0a5,5,0,0,0,.51-1.76C305.55,62.05,305.38,61.83,305.25,61.79Z"/><polygon points="214.63 51.15 214.63 51.15 214.63 51.15 214.63 51.15"/><path d="M70.59,27.55c1.78,2.78,3.62,5.51,5.41,8.26a25.24,25.24,0,0,0,1.39,2.26c.54.66.48,1.68,1.36,2.1,0,0,0,.25,0,.36a1.64,1.64,0,0,0,.26.55c.41.4.87.76,1.28,1.17.12.11.12.34.19.51a3,3,0,0,0,.28.7A4.16,4.16,0,0,0,82.25,45a10.54,10.54,0,0,0,2.48.8L85,45c.45.24.75,1.14,1.29.45.27-.35.17-1,.25-1.66a4.24,4.24,0,0,0,.58.77A1.5,1.5,0,0,0,88,45c.19,0,.42-.41.53-.69a1.56,1.56,0,0,0-.27-1.63q-1.06-1.39-2.07-2.82C84.08,36.87,82,34,80,30.92c-1.73-2.71-3.26-5.54-4.87-8.32-.38-.65-.65-1.41-1.55-1.71,0,.31-.06.53-.09.82-.65-.39-.77-1.58-1.72-1.15-.3.14-.34.86-.54,1.43a2.64,2.64,0,0,0-.51-.31c-.14-.06-.37-.11-.47,0-.3.25-.57.55-.85.83l-.71-.78-.2,0a8.2,8.2,0,0,0,.22,2.35A21.06,21.06,0,0,0,70.59,27.55Z"/><path d="M196.47,35.38c.15-1.46.29-2.91.44-4.36l.12,0c-.06,1.24-.12,2.49-.17,3.73,0,.52.36.7.74.88s.72.06.77-.44.1-1,.16-1.49h.06c0,.29.06.58.1,1,.05-.3.08-.42.1-.55a5,5,0,0,1,.17.66,5.84,5.84,0,0,0,.45.76c.19-.24.5-.45.55-.72.18-.88.28-1.78.38-2.67.43-3.72.84-7.43,1.26-11.14a2.12,2.12,0,0,0,0-.44c-1.54-.62-1.27,1-1.93,1.48-.08-.26-.14-.5-.2-.74l-.25-.12-1.32,1.91c-.06-.4-.13-.95-.23-1.59C196.76,22.87,195.69,34.4,196.47,35.38Z"/><path d="M200.89,34H201c0,.39.09.77.16,1.42.36-.39.64-.58.73-.83a6.72,6.72,0,0,0,.38-1.53c.4-3.43.75-6.86,1.14-10.28.13-1.12.16-1.11-1-1.56-1.23,4.27-1.21,8.7-1.7,13.06A.67.67,0,0,0,200.89,34Z"/><path d="M196.8,22.51c-.6,1-1.75,11.16-1.34,12.37C195.92,30.68,196.36,26.61,196.8,22.51Z"/><path d="M214.63,51.15h0v0Z"/><path d="M214.12,55.28l.51-4.12c-.31,1.35-.61,2.7-.92,4.05Z"/><path d="M2.14,6.17H1.93V9.59h.21Z"/><path d="M2.24,3.28H2.07V5.67l.17,0Z"/><path d="M34,72.65l-.25-.05-.27,1.48.34,0Z"/></g></g></svg>