<svg xmlns="http://www.w3.org/2000/svg" viewBox="0 0 305.91 179.25"><g id="Calque_2" data-name="Calque 2"><g id="P1_m6_2"><path d="M199.75,136.65l0,0a.09.09,0,0,0,0,0Z"/><path d="M168.46,126.31h0Z"/><path d="M202.78,136v0h0Z"/><path d="M303.22,152.29a15.9,15.9,0,0,1,.92-1.63c.16-.22.52-.31.79-.44,0,0,.1.05.08,0,0,.26-.06.49-.09.72l.46,0a78.88,78.88,0,0,0,.49-12.86,15.82,15.82,0,0,0-.49-2.71c0-.07,0-.4.08-.73-.31.06-.62.14-.93.18-.65.08-1.44.85-2-.64l2.08-.17,1-.07a3.92,3.92,0,0,0-.21-1,11.44,11.44,0,0,0-.82-1.27l-.2.06c.07.4.13.8.2,1.28l-2.08.26c-.07.26-.19.7-.31,1.16l-.93-.5.39-.66c-.94,0-1.76,0-2.58,0-.13,0-.24.41-.42.72h1.49l-1.44.86,1.44.21c-.05.27-.1.53-.16.91-.64-.57-.74-.54-1.95.51-.06-.91-.11-1.75-.18-2.79l.53-.92c2.25,0,4.55.07,6.14-2.05-1.12-.68-1.36-.67-3.14.17a2.87,2.87,0,0,1-.46-2c.13-1.21.84-1,1.4-1.27.14-.06.42.17.63.27l.16-.42-4.56-1.5c.15.91.15.91-1.27,1.22-.05-.78-.09-1.54-.13-2.39a5.66,5.66,0,0,0-.93-.11c-1.67,0-3.35.08-5,.16-.85,0-1.7.16-2.54.29-1.07.16-2.18.67-3.19.51a8.28,8.28,0,0,0-3.72.57,1.26,1.26,0,0,0-.27.18l.61.57a5.1,5.1,0,0,0-.89.39c-.39.27-.7.67-1.11.9-.68.38-1.44.63-2.11,1a6.11,6.11,0,0,0-1,1l-.18-.14-.27,1.49,2.1-1c.56.65,1.13.79,1.81.08a1.09,1.09,0,0,1,.84-.21c1.12.16,1.36,0,1.21-1.19l2.36-.32,0-.29c-.18-.13-.4-.4-.54-.36-.91.24-1.8.55-2.7.83,0,.13-.07.35-.11.57l-.88-.7-.48.08,0-.14,1.88-1.19c.33,0,.67,0,.78-.14.41-.6.77-1,1.49-.35a11.53,11.53,0,0,0,1.48.94c0,.39,0,.81.07,1.43.52-.47,1.3-.31,1-1.25-.08-.26.5-.81.88-1.07.19-.13.62.1.94.17l0,.26-1,.39.64.91h0c0,.12.09.24.14.37l-1.33.66a10.2,10.2,0,0,1,1.31.53c-.16.76.51.72.84,1a7,7,0,0,1,1.14,1c.11.15-.06.7-.26.85a11,11,0,0,1-1.6.82l-.21-.08.59-.81-.74-.19V131.6l-2.52,2-.29-.37.91-.66a1.1,1.1,0,0,1,0-.18l-1.52.2c-.13.23-.21.56-.4.65-1.39.65-3.06.73-4,2.23-.19.29-.91.23-1.39.33-.16,0-.39,0-.46.09-.72.9-1.42,1.82-2.19,2.82-1-.43-1.57.24-2.13,1.12a8.17,8.17,0,0,1-1.14,1.22l-.25-.18c.21-.8.43-1.6.61-2.31h-1.1l-.5-.44c.91-.15,1.86-.21,2.26-1-.26-.52-.67-.95-.59-1.24a5.59,5.59,0,0,1,1-1.43c-1-1,.78-1.11,1-2.06l-1.6.63c.25-.56,1-1.23-.36-1.17l.49-.7c-.2-.52-.32-.9-.49-1.25s-.4-.67-.61-1h0a4.41,4.41,0,0,0,.26-3.78c0-.06-.17-.06-.28-.07a3.09,3.09,0,0,0,0-2.72,4,4,0,0,1-.42-.92c-.16-1-.17-1-1.08-.41,1.09,2.23,1.15,2.6.49,3.18-.18-.47-.36-.95-.58-1.51l-.55.9c-.31-1.37-.59-2.58-.88-3.86h1.71c-.06.25-.09.41-.15.68l.95-.46c-.8-.78.51-2.21-1-2.7a5.83,5.83,0,0,0-.35-3.2,6.42,6.42,0,0,1-.23-.83c-.31.09-.62.2-.93.28s-.69.18-1,.27a4.75,4.75,0,0,1-.1-1.18c0-.22.33-.4.51-.6l-2.93-.89c-.21.15-.47.47-.7.45-.89-.07-1.77-.24-2.71-.38l.61-.88a8.63,8.63,0,0,0-1.9-.32c-1.32.07-2.64.25-3.95.44a3.48,3.48,0,0,0-1,.48c-.45-.21-1.11-.29-1.21-.09a4.77,4.77,0,0,0-.21,1.61L257,112l-1.3,2.38.35.24,3.33-1.7c0,.1,0,.36,0,.41a10.33,10.33,0,0,1,1,.76,1,1,0,0,1-.36.51c-.69.42-1.42.79-2.13,1.18a4.31,4.31,0,0,0-.87-.38c-.62-.13-1.27-.18-2-.27-.08.19-.35,1-.43.95-1.17-.27-1.37,1.28-2.54,1.26,1.73-.31,1,1.19,1.4,1.78.25.38-.44,1.36-.7,2.06.73,0,1.12-.36,1.1-1.28s.11-1.77.19-2.82c1.63,1,.69-.74,1.34-.63a15.85,15.85,0,0,1,2,0,8.51,8.51,0,0,1,1.81.76,21.94,21.94,0,0,0-2.5,1,12.25,12.25,0,0,0-1.66,1.33c-.14.11-.4.26-.38.33.29,1.12-.47,1.34-1.27,1.59-.19.06-.33.34-.44.55a9.22,9.22,0,0,1-1,1.84,18.6,18.6,0,0,1-2.06,1.85c.13.46.24.83.34,1.2l-.24.09-.51-.68-.74,1.72a5.23,5.23,0,0,0-1.7.8c-.5.51-.78,1.19-1.66,1.13-.08,0-.19.34-.31.56l1.53-.38.19.32-.93.87c.33.81.16,1.43-.44,1.7-.3-.78-.6-1.58-1-2.53,0,0,.1-.14.25-.35-.87-.12-1.18-1-2.21-.95-1.32,0-1.64-.17-2.22.36,4.11,1.09,4.11,1.09,3.28,4.54-.95-.34-1.14-1-.84-2.12-.46.28-.71.56-1,.57a6.09,6.09,0,0,1-1.32-.19c.08-.28.16-.55.22-.83s.11-.58.19-1l-.68.55c-.57-.68-1.15-1-1.89-.25-.45.47-.91.94-1.39,1.39s-.67,1.15-1.51.64c-.09,0-.38.22-.39.23l2.06,1.49-2.49-.56a11.15,11.15,0,0,1,.56,3c-.07.74-.72,1.41-1.14,2.18l-.86-1.36c1.51-1.56,1.51-1.56.82-2.77-1.27.26-.36,1.09-.4,1.77l-.91-.28c0,1.54-.19,1.69-1.89,1.21.57,1.76.21,3.09-1.88,3.82a1.85,1.85,0,0,1-1.13-.19,3.1,3.1,0,0,1-.73-.59c-.31.39-.62.78-1.06,1.31a6.89,6.89,0,0,0-1.47-.37c-1.32-.09-2.61.35-4-.23-.93-.4-1.3-.52-1.17-1.62a4.26,4.26,0,0,0-.14-1l-.63,1.18a10.55,10.55,0,0,1-.84-.76,1.55,1.55,0,0,1-.21-.53c-.18-.69-.33-1.38-.51-2.06s-.32-1.27-.54-1.89c-.16-.45-.39-.88-.66-1.47.88-.27.4-1.31.56-2.13s.12-1.23-.89-.92c-.16.05-.62-.41-.7-.7s-.24-1.05.51-.85c0,.37-.07.69-.1,1l1.12.11c.06-1.18.12-2.21.15-3.23a1.41,1.41,0,0,1,1.52-1.52,23.56,23.56,0,0,0,9.34-2l-.58-.36c.51-.36.85-.72,1.58-.22a1.79,1.79,0,0,0,2.66-.62c.16.11.31.23.23.16l2.26-1.41,3.45-2.16h0l.9-2.12c.68-.07,1.37,0,1.79-.23a22.56,22.56,0,0,0,2.36-2.07c-.64-1.06-.09-2.23,1.7-3-.27.66-.51,1.21-.79,1.9l.9-.6c-.09.43-.15.74-.22,1.06l.33.12c.47-.86.94-1.71,1.45-2.62l-.61-.22c.25-1.25.51-2.5.76-3.76-.81.3-.18-.73-.55-1l1.44-1.29.19.17c-.12.32-.24.63-.44,1.13a9.54,9.54,0,0,0,2.26-1.91,8.76,8.76,0,0,0,.47-2.82l-1.27,1.12c-.88-.65-1-1.19-.26-2.24v1.11l1.64-.77c0-1.07,0-2.16,0-3.25-.05-1.42-.14-2.84-.24-4.25a1.18,1.18,0,0,0-.29-.64,21.54,21.54,0,0,1-1.58-1.59c-.54-.69-.88-.51-1.23.1-.42-.11-.69-.91-1.31-.3a1.64,1.64,0,0,1-.62-.44,14.17,14.17,0,0,1-.75-1.28h1.05c.11.5.19.92.29,1.39,1.13-.66,1.25-1.5.48-2.6-.91.68-1.35-.25-1.9-.54l-1.1.94-.2-.23c.51-1.43.39-1.65-1-1.82h-.11v0l-.93-.19-3-.46c-.3-1.76-.3-1.75-2.24-.87-.51.23-1.06.38-1.47.53a4.34,4.34,0,0,0,0-1c0-.09-.44-.2-.58-.13a13.87,13.87,0,0,0-1.34.94c-.16-.42-.38-1-.61-1.65-.5.64-1,.82-1.69.13-.21-.22-.8-.08-1.21-.07a7.72,7.72,0,0,1-1,.12,26.45,26.45,0,0,0-10.68,1.16c-.18,0-.29.31-.55.6a3.23,3.23,0,0,1,.6,0c.31.11.62.24.93.37a3.27,3.27,0,0,1-.43.88c-.42.45-.92.84-1.4,1.27l-.35-.71c-.13.4-.3.64-.26.84.23,1.08-.46,1.52-1.28,1.66a1.3,1.3,0,0,0-1.24,1.73,2.55,2.55,0,0,1,.92,1.12c.1.29-.13.67-.21,1l-.25-.08-.12-.4-3,2.71c.8.79.81,1,.06,1.85a2.37,2.37,0,0,0-.27,2.79c.46-1.23.9-2.42,1.35-3.64l1.33.25c-.14-.24-.23-.38-.3-.52s-.19-.43-.28-.64a6.53,6.53,0,0,1,.77.14,2.44,2.44,0,0,1,.44.19c-.06,1.14-.12,2.27-.18,3.46l-.65-.6-.22.16c.2.35.4.7.72,1.24a6.88,6.88,0,0,0,.77-1.35c.11-.42-.14-1,0-1.33.62-1.12,1.39-2.14,2.88-2.13.08,0,.16-.1.33-.23l-1.17-.18a12.3,12.3,0,0,1,1-.92c.61-.4.64-.74.05-1a14,14,0,0,0,.53-1.35c.18-.64.32-1.18,1.2-1.2a7.3,7.3,0,0,0,1.58-.56,11.24,11.24,0,0,1,1.45-.22l.05.27-.92.59,1.32-.2.16.4-1.75.92,1.65.5c-.72.15-1.16.22-1.58.33s-.8.27-1.19.4l.1.26,1.76-.11.06.31a3.23,3.23,0,0,0-1.08.48c-.31.31-.4.82-.67,1.18-.12.16-.44.17-.66.26s-.54.22-.82.34c.61,1.12-.46,4-1.73,4.9a3.75,3.75,0,0,1,.39-4.11l-2.19.52c1.72,2-.16,3.16-.88,4.66l.76-.13h0l-1.8.6-.11-.25.37-.42-.92-.46c-.35.59-.69,1.13-1.08,1.77.91.57,1.59.13,2.29-.43,0,.3-.08.56-.12.84,1.26,0,1.56-.42,1.34-1.63.56-.27.85-.11.74.51-.18,1-.42,1.91-.62,2.83l-2.92-.5c0,.13-.07.26-.11.4l1.25.45-.31.23-.19.23h1.3l0,.27-3.8,1.18c-.07.52-.17,1.26-.27,1.93l1.29.3-1.73,1.87c.55,0,.87,0,1-.11.37-.42.62-.93,1-1.35a.85.85,0,0,1,.69-.29.8.8,0,0,1,.55.52,15.64,15.64,0,0,1,0,2c-.55,0-1.49-.75-1.63.64h.78c0,.1,0,.2,0,.31a7,7,0,0,0-1.21,0,7.28,7.28,0,0,0-1.19.41l0,0,0,.07a6.32,6.32,0,0,0-.56.6c-.32.44-.52,1-.93,1.31a4.56,4.56,0,0,1-1.55.42l.56.61,2.07-1.08v0h0c0,1.3,1.28,0,1.57.8-1.27.33-.32,1.29-.47,2-.25,0-.58,0-.63,0-.22-.44-.37-.92-.59-1.5l-1.27.83.15.21.73-.36.21.35-1.24.79c-.17-.64-.28-1.08-.34-1.29a8.78,8.78,0,0,0-1.26.08,1.13,1.13,0,0,0-.67.42,8.25,8.25,0,0,0-.53,1.28l1.26.21-.51,1.24.38.16.54-1.25.32.15c-.39.81-.78,1.62-1.19,2.49l.37.52h-.31c-.1.42-.18.85-.32,1.26a1.29,1.29,0,0,1-.4.68c-.13.09-.5,0-.65-.16a3.37,3.37,0,0,1-.51-.76l-2.26,1.07c-.16-1.16-.87-1.5-1.73-1l.38.34-1.8.92-.55-.19c-.34.54-.53,1.17-.77,1.19-.71.06-.84,1.28-1.74.8,0,.23-.2.55-.1.68a3,3,0,0,0,.76.58l-.18.35-1.95-.88c-.1.49-.22,1.13-.37,1.87l.82.36v.28l-2.28.71-.12-.22.5-.57c-1.7-.35-1.58-1.76-1.81-3L188,127c0-.31,0-.59.09-.68,1-.81.87-1.91.86-3,0-.52.05-1.05,0-1.57a5.75,5.75,0,0,0-.43-1.2c.81-.43.64-1.43.52-2.75l-1.19,1.06c0-.09,0-.32-.05-.47l-2,.5v-1.41l-.29,0c-.19.78-.38,1.55-.62,2.51.87-.85.87-.85,1.29-.23-.44.34-.88.7-1.35,1-.23.15-.68.36-.77.28a7.32,7.32,0,0,1-.85-1.19l.78-.51.41-.3-.57-.38c.25-.52.8-1.14.67-1.54-.22-.68.1-1,.38-1.47.14-.24.22-.51.34-.76l.62-1.18.26.15v.79c.56.28,1-1.16,1.43-.06l1-.37.22.3-1.25,1.86.3.35a5.91,5.91,0,0,0,1.55-.84,4.65,4.65,0,0,0,.7-1.45c.07-.16.21-.36.16-.48a1.32,1.32,0,0,1,.59-1.74c.22-.16.19-.67.27-1,.68-.83,3.31-10,2.94-11.18.33-.3.81-.53.94-.89.39-1.06.63-2.17.91-3.2l-1-.83L196,93.6c-.58-.9,0-4.76.73-5.59-.17-.45-.33-.86-.56-1.44l-1.06,2.73-1.37-2.08c-.06.19-.17.53-.29.88l-.26-.06c0-.38-.05-.77-.08-1.17l-1.36.46c.82-1.27,2.36-1.79,1.92-3.37l-.63.1a13.64,13.64,0,0,0,0-1.93c0-.25-.39-.47-.63-.67s-.31-.11-.45-.18c-1-.45-1.88-.94-2.84-1.34a.9.9,0,0,0-.82.21,5.4,5.4,0,0,1-2.09,3c-.06,0,0,.21-.09.3a1,1,0,0,1-.18.18l-.68-.65L185,83v1.63c-.36.32-.85.58-1,1-.48,1-.83,2.09-1.23,3.14-.78,2.07-1.55,4.13-2.32,6.2a27.43,27.43,0,0,1-1.1,3c-1,2-2.17,3.86-3.24,5.79-.15.27-.18.61-.32.89-.26.54-.37,1.29-1.21,1.06,0,.51.19,1.14,0,1.53a20.25,20.25,0,0,1-1.95,2.5.49.49,0,0,1-.45,0c-.33-.11-.64-.28-1-.42l-.06.15.84.79-1.53.07v.19l1.24.38c-.67.29-1.19.48-1.67.74-.87.47-2.13.22-2.61,1.45-.06.17-.5.2-.74.3-.33-.61.62-1.47-.39-1.57A27.52,27.52,0,0,0,167.7,109c.83-2,1-4.13,2-6.06a22.85,22.85,0,0,0,1.58-4.5c.19-.62,0-1.39.32-1.93s.94-.82.52-1.56c0,0,.14-.16.18-.25.2-.44.38-.89.57-1.34l-.24-.2-1.6.59L171,93.6l.74-.41-.25-.3-.84.06c-.09,2.5-.15,2.77-.42,3,.08.75.15,1.34.24,2.18l-.76-.68-.26.09c.08.64.16,1.29.22,1.74-.28.65-.51,1.17-.85,1.93l-1-1.58c-.16.6-.34,1.31-.54,2.07l.63.2c-.24.35-.68.7-.64,1,.15,1-.36.67-.86.54-.7-.18-1.42-.31-2.06-.44.3.55.53,1,.76,1.41.57-1.09,1.43,0,2.18-.29l-.71,1.11.26.18.85-.62-.18,1.35-.6-.32-2.3,3.74,1.08-.25c-.13.69-.21,1.32-.36,1.93a2.42,2.42,0,0,1-.48.91,2.37,2.37,0,0,1-.7.4,6,6,0,0,1,.24-.88c.17-.35.4-.67.6-1l-.21-.09-2.88,2-.27-.24c.15-1.1.81-2.24-.23-3.22a.4.4,0,0,1,0-.31,8.12,8.12,0,0,1,.49-1.91,6.15,6.15,0,0,1,1.13-1.25c-1.17-.43-1.21-.69-.19-1.8a6,6,0,0,0,.59-1l-.47.05a13.31,13.31,0,0,0,1-1.83c.38-1,.64-2.11.88-2.94a5,5,0,0,0,1.66.55c.52,0,1.31-.31,1.46-.7A36.63,36.63,0,0,0,169,94l-.89-.81c.07-.45.14-.88.22-1.32l.24,0c.07.42.15.85.22,1.27.87-1,.83-2.67,2.54-2.82-.19-.38-.32-.64-.46-.9.61,0,1.47-.26,1.13,1a.32.32,0,0,0,.12.26c.71.46.5.83-.08,1.25-.16.12-.17.47-.25.71.84.33,1.21.08,1.41-.66.29-1.11.66-2.19,1-3.27.1-.29.48-.61.41-.8a2.24,2.24,0,0,1,.93-2.9c-.12-.39-.18-.72-.31-1a4.3,4.3,0,0,0-.41-.63c.42-.91.87-1.86,1.31-2.82l-.32,0a3.25,3.25,0,0,1-.34-.89c-.05-.71.69-1.12.82-1.63a12.07,12.07,0,0,0,.07-3l-.27,0c-.07.34-.13.67-.21,1.08l-1.3-.28.7-.42-.5-.39h0c.53-.5,1.39-.94,1.51-1.53a16.74,16.74,0,0,0,0-3.61c0-.08-.18-.15-.19-.16l-.59,1.07.2,0c.1.59.19,1.19.29,1.79-1.3.29-1.52-.67-1.37-1.2.33-1.14.18-1.92-1-2.45l.18-.21,2.07.44V67.16l-.28,0c-.14.41-.29.82-.47,1.31-.56-.68-1-1.26-1.55-1.84v-.06h0l0,.06a3.27,3.27,0,0,0-.73-.58c-.69-.28-1.18-.61-.93-1.47.12-.41.34-.92.21-1.24A10.53,10.53,0,0,0,171,61.58c-.58.38.36,1.56-1,1.35a3.92,3.92,0,0,1,.11-1.38c.16-.38.6-.64,1-1h-1.58l.69-1.64-.74-.19,1.25-.49a12.59,12.59,0,0,0-1.35-.92c-1.5-.79-3-1.52-4.53-2.3-1-.55-1.75-.36-2.2.72-.5-.59-.88-1.3-1.88-.95a3.27,3.27,0,0,1-1.64.13c-1.71-.34-1.7-.38-2.81,1.18l1.75,1.15c.52-.81,1.5-1.15,1.81-.57.57,1.06,1.38.7,2.25.62,0-.34.08-.64.15-1.16.66.19,1.5.18,1.77.57.58.82,1,.77,1.75.32.22-.14.68.11,1,.18a8.09,8.09,0,0,1-.4,1,2.36,2.36,0,0,1-.49.45c-.91-.4-1.8-1-2.88-.54l1.42.55V59l-1.15.26c-.07-.84-1.2-.54-1.27-1.31-1.26,1-2.36-.19-3.27-.07-.33.27-.58.6-.71.56s-.48-.38-.88-.72c-.3.26-.71.59-1.11.92l.14.29,2.17.17c0,.27-.06.62-.09,1a4.5,4.5,0,0,0-.75-.33,2.35,2.35,0,0,0-.7,0l-1.2.18c.53-.88.62-1.47-.58-1.46l1.57-1.24-.23-.35-2.26.16c.9-1.1.16-1.73-.51-2.13a1.34,1.34,0,0,0-2.11.62c-2-1.09-4-2.09-6.22-.73l1.37.18,0,.23-2,.5A3.75,3.75,0,0,1,142,57.89c-.14.71-.24,1.24-.35,1.78l1,.36c-2.82.31-2.82.31-2.59,3.69H141l0,.17-1.44.7c1.14,0,2.09,0,3,0a1.33,1.33,0,0,1,1.53,1.29c0,.09.16.18.25.27l1.4-1.88c.65,1.23-.74,1.35-.92,2.15l1.07-.15-.41.78,1.33.09-1.43,3.25.88.07c-.09.26-.17.46-.21.57l1.69-.17.12.24-.72.31.17.18,1.34.12c-.67.4-1.32.86-1.95.1a2.13,2.13,0,0,0-.68.36c-.1.08-.1.28-.18.39a8.34,8.34,0,0,1-.53.65l.17.16-.44,0v.13l1.08.22a1,1,0,0,1-.1.27c-.05,0-.13.13-.17.12-1.12-.42-1.39.09-1.24,1.11a.86.86,0,0,1-.08.41c-.65,1.55-1.32,3.1-1.94,4.67a1.77,1.77,0,0,0,0,.79c-.41.67-.76,1.18-1,1.73s-.43.94-.63,1.41c-.48,1.14-1,2.27-1.4,3.41-.19.48-.19,1-.41,1.5-.1.23-.67.28-.73.49a7.13,7.13,0,0,0-.18,1.46,6.47,6.47,0,0,0-.87.9c-.39.65-.71,1.35-1.08,2.08l.44.48-1-.06c-.08.5-.18,1.09-.28,1.67l-.18,0v-.9a29.2,29.2,0,0,0-1.59,2.63c-.42.87-1.4,1.58-1,2.76-1.25,0-1.21,1.22-1.73,1.92s-1.21,1.51-.15,2.48c-1.28,0-2.22.56-2,1.11.41.84-.25.78-.6,1.08s-1,.91-.88,1.09c.49,1-.2,1-.82,1.17l.43.55-1.1.28c.51.94-.63.56-.91,1l.29.13c-.59,1.25-1.19,2.49-1.82,3.79l-.81-.6a4.08,4.08,0,0,0-.64,1.15,3.24,3.24,0,0,0,.17,1.13c-.38.06-.86,0-.95.17a3.34,3.34,0,0,0-.15,1.21l-1.36.94,1.46.1,3-3.58c1.16.1,1.28,0,1-.92l1.18-.43-1.84-.11c0-.08,0-.15,0-.23l.86-.46-.11-.16.91-.24,1.23.43.8.25.5-.3c.13-.12.23-.31.38-.36.95-.38,2.11-.46,2.31-1.8,0-.07.19-.1.26-.17a8.48,8.48,0,0,0,.92-1,9.66,9.66,0,0,0,.62-1.15l-.36-.13c.2-.46.4-.9.48-1.1a9.38,9.38,0,0,0,1.28-.51,7.78,7.78,0,0,0,.94-.78l.26.3c.16-1.51.9-2.21,2.48-1.77-.08.39-.18.85-.28,1.3l1.74,1.92c.62-1.09,1-1.9,1.53-2.67a3.07,3.07,0,0,1,.7-.56c.09.23.17.47.27.69s.23.55.41.94l-1.87,1,1,.37L139.82,111l-.3-.17c.15-.44.29-.87.5-1.51-.65.45-1.66-.3-1.81.94,0,0,.08.1.12.15l.82-.47c-.05.86-.09,1.55-.12,2.23h-.38l-.11-.51-1.5,1.48-.34-.23c.31-.77.62-1.55.92-2.32a35.19,35.19,0,0,0-2.33,2.87,11.33,11.33,0,0,1-1,1.05l-.21.19.67.58-2,2.14,1,.26c-.17.32-.3.55-.46.82L132.1,118l-2.19,2.35.47.21-1.33,1c.49,0,.74.08.86,0,1.75-1.32,3.49-2.66,5.23-4l-.39-.27c.13-.59.26-1.18.4-1.84h1.42c-.09.42,0,.87-.26,1.14-.61.82-1.33,1.55-2,2.35-.14.18-.09.5-.17,1a20.92,20.92,0,0,0,2.25-2c.84-1,1.55-2,2.32-3.09a9.11,9.11,0,0,0,.82-1.06c1.05-1.87,2.08-3.74,3.08-5.64a6.42,6.42,0,0,0,.35-1.45c.1-.06.53-.14.68-.39.7-1.2,1.32-2.44,2-3.67.1-.19.16-.45.32-.56.67-.46,1-1,.73-1.45.35-.59.56-1,.78-1.32.1-.17.23-.32.34-.49l1.35-2.1-.17-.11-.63.4c.71-1.11,1.56-2.25,2.21-3.49s1.09-2.54,1.64-3.85h-1.37l-.21-.25a3.83,3.83,0,0,0,3.2-3.09l-2.57-.41c.41,1-.29,1-.77,1.1l1.2.89c-1.46.25-2.58,0-3.38.91s-.73,1-.4,1.62l1-.83-.69-.31c.24-.17.44-.23.51-.36.3-.6.82-.79,1.24-.33a1.69,1.69,0,0,1,.19,1.36,11.83,11.83,0,0,1-.82,2.19,9.39,9.39,0,0,0-.75,1.39c-.18.72-1,1.42-.23,2.31l-1.16.82.7.81-1.78,1.16,1,.17a1.92,1.92,0,0,1-1.07.27,2.16,2.16,0,0,0-.57.2c.4,1-.58.64-.91.92l-.1-.28-.41-.66,1.51-1.13-.07-.24-2.64.83c-.36-.79.41-1.05,1.18-1.58-1.1.11-1.72.52-1.84,1.24a2.14,2.14,0,0,1-2,2l-1.11-2.59c-1-.19-1.24-.78-.89-1.75l2.2-.55c0,.34.07.63.11,1l-1.18.12.64,1.08c1.36-.37,2.15-1.13,1.89-2.6l-.59,0,.54-1-.55-1h1.43c0-.15,0-.3,0-.45l-2.12.1a2.06,2.06,0,0,1,2.92-1.13,4.17,4.17,0,0,0,.8.1l-.34-.45c.52-1,1-1.83,1.45-2.68a.5.5,0,0,1,.29-.25c1.17-.14.28-.64.19-.85l.9-.84-.19-.21a3.37,3.37,0,0,1-.35.22c-.9.38-1.91.53-2.45,1.58a1,1,0,0,1-1.66,0c-.15-.23-.72-.18-1.09-.26,0,.07,0,.14,0,.21l.61.45H140a2,2,0,0,1,1.53-1.18,2.86,2.86,0,0,0,2.36-1.52c.45-.89.18-1.7.51-2.48l1.11-.34c0-.16,0-.29-.09-.35a.68.68,0,0,0-.22-.16l2-3.24,1.44,1.63a1.51,1.51,0,0,0,1-1.83c0-.17.14-.36.22-.54h0L151,76.73l-.67-.59-1.2.46-.19-.31c.75-.89,2.46-.82,2.54-2.36l-.61-.48-1.12.63-1-1.28a10.29,10.29,0,0,0,1.39.23c.89,0,1.14-.59.54-1.41l-1.25.83c.37-1.14,0-2.71,1.74-2.81-.05-.37-.09-.67-.12-1l1.44-.3c-.19.49-.33.83-.46,1.18a5.77,5.77,0,0,0,1.19.3,10,10,0,0,0,1.52-.16l-.2,1.23.85-1c-.06,1,1.38,1.81.21,2.7-.12.56-.23,1.09-.29,1.36v2.29h-1.81c0,.12,0,.24,0,.36,1-.47,1.47-.05,1.74.76l-1.18.89c.09.51.38,1.17.2,1.34-.84.82.1,1,.34,1.37-.1.85-.19,1.62-.24,2.1l-1.55,1,.92,1.55c.72,0,.76-.67.94-1.21.06-.17-.15-.43-.18-.51a24.85,24.85,0,0,0,1.29-2.45c.48-1.15.77-2.37,1.24-3.53a16.25,16.25,0,0,0,1.48-6.33,12.11,12.11,0,0,1,.55-3.36c.38-1.3,1.44-1.51,2.39-.54a3.92,3.92,0,0,1,.46.94c.64-1.84,1-2.61,1.9-1.89l-1.13,1c.35.28.71.55,1.07.82l-.5,1h.83c-.07.61-.83,1.25.07,1.69l1.58-.75c-.37,1.36-1,1.46-1.83,1a5.24,5.24,0,0,0-.48-.23c-.57-.26-1-.07-.91.55a2.7,2.7,0,0,0,.45,1.64c.27.24,1-.06,1.56-.09.31,0,.63,0,.95,0-.13.32-.16.82-.39.94a4.17,4.17,0,0,1-1.23.25c-.33,1.57-.67,3.06-1,4.55a6,6,0,0,0,.07,1.26,8,8,0,0,1,0,1.47c-.13,1.06-.33,2.11-.51,3.16a2.49,2.49,0,0,1-.16.61,14.18,14.18,0,0,0-.94,2c-1.11,3.67-2.16,7.35-3.18,10.86l.74.51c.11-.68.22-1.46,1.25-1.36.48,1.84-.1,2.35-2.46,2.08-.69,1.64-1.39,3.29-2.14,5l.81.47-.91,1h0c-.15.14-.39.25-.44.42-.46,1.47-.88,3-1.31,4.43l-.85,2.78a.73.73,0,0,1,.25,1.17,3.38,3.38,0,0,0-.64,2.86l1.27.27-.66,1.17-.23-.14-.12-.62h-.26l-.22,1.32,1.21-.25.08.18-1,.86c.36.14.77.43.88.33.36-.28.8-.67.85-1.07a15,15,0,0,0-.18-1.86,10.22,10.22,0,0,1,.29-1.8l.35.07c.07.33.14.66.21,1l.78,0a2.25,2.25,0,0,0,.08.24l-.92.55.71.31-.33,0a10.56,10.56,0,0,0-.35,1.9c0,1.46-.38,1.77-1.8,1.28a5.69,5.69,0,0,1-.71-.32l-.17.21a2.52,2.52,0,0,0,.53.41,3.89,3.89,0,0,0,.83.21c-1,.08-1.12.69-1,1.2a5.07,5.07,0,0,1,1.79-.12c1.14.36.53,1.46.67,2.26h2.55c0,.11,0,.23,0,.34l-3.18.6c-.74-.46.79-2.28-1.21-2l-.5.7.24,0c.05.83.09,1.66.14,2.58,1.16.12,2.16-1.27,3.31-.38l-1.15,1.26c0,.82.07,1.37.08,1.75a9.08,9.08,0,0,0,1.8-1.23c.53-.6.91-1.29,2.19-1l-.87-.5,1.75-2.13.39.68a2,2,0,0,0-.94,2.19,1.1,1.1,0,0,0,1.54.27c.38-.34.82-.6,1.23-.9l.27.24c-.09.39-.05.94-.3,1.14a.86.86,0,0,0-.08,1.36c.67.84.24,1.2-.43,1.67a1.29,1.29,0,0,0-.42,1c0,.2.37.45.62.59a5.4,5.4,0,0,0,1,.34c.39-.22.85-.19,1.18-.38s1-.54.37-.93c.22-.53.45-1,.61-1.5,0-.1-.31-.43-.39-.4a4.05,4.05,0,0,0-.74.48c0-.34.13-.78.34-.83,1-.26,1.05-.72.46-1.26l.52-2.15c.2.31.29.44.34.51l1.26-1c.56.79.91,0,1.35-.16l.43-1c0-.56-.08-1.19-.12-1.8-.48.53-1,1.39-1.25,1.31-1.2-.38-.9-1.59-1.14-2.69,1.27.36.62-1.76,2.09-1.39v2.06c.53-1.5.49-3.14,1.36-4.17-.38-.73-.63-1.23-.89-1.72l1.22-.58c.05.1.1.2.14.3l-.86.64c1.33.67,1.3.63,2.31-.39a2.12,2.12,0,0,1,1.38-.73,7.09,7.09,0,0,1,2,.66c.83-1.1,1.7-2.24,2.56-3.39a1,1,0,0,1,.66,1.54,6.16,6.16,0,0,0-1.51.32c-.12.06,0,.61,0,1-.37.08-1,.19-.46,1-.37.22-.78.68-1.09.61a7,7,0,0,1-1.75-.9l-2.7,2.21c0,.38.05.84.08,1.43l1.14-1.56c.31,1.8-1.85,1.85-1.64,3.38,1-1.81,3-2,4.31-3.13l.12,2.4-1.1-.28c-.1.47-.17.84-.23,1.11.39,0,.71-.06,1-.12s.87-.07.43-.66l1.52-.75a3.66,3.66,0,0,1-1.65,2.84c-.89.65-.67,1.07.07,1.61l-.61,1.06,1.24.81-.3,0c0,1.28-.08,2.56-.11,3.84s-.05,2.64,0,4c0,.28.29.54.49.9l-.39,1.5.34.11c.68-1.17,1.37-2.34,1.93-3.32-.23-.35-.57-.64-.6-1a26.75,26.75,0,0,1-.08-2.83c0-1.19.1-2.38.16-3.57.08-1.35.17-2.69.25-4.12.65.1,1.25.38,1.62.2s.52-.83.76-1.27l.17.07c0,.38-.08.76-.14,1.28l2.06-.77-1.12-.35c.56-.48-.09-1.53,1-1.64.05.33.09.6.16,1.13.3-.58.46-.9.66-1.3a10.27,10.27,0,0,0,.92.81c.73.47.47,1,0,1.39-.3.28-.75.65-1.07.6a2.35,2.35,0,0,0-2,.66c-.71.53-.52.68-.24,1.27.5,1,1.08,2.14.51,3.31-.21.44-.73.74-.95.94-.61-.32-1.34-.88-1.5-.75-.65.52-.61,1.32-.31,2.21a1.32,1.32,0,0,1,2.15.28l1-1.27.81.43c0-.2,0-.41-.05-.61l-.06-.78a6.31,6.31,0,0,1,.77.42c.2.16.39.34.58.52l-1.22,1,.43.37h-1.37l-.06.18,3.54,1.76c-.08.66,0,1.6-1.35,1.72.06-.62.11-1.15.17-1.76l-1.75.58-.09-.2,1-1-1.94-.14-.57-.67c.16.9.3,1.69-.78,2.16l.3.23,1-.87a1.78,1.78,0,0,0,2.22.87,3.92,3.92,0,0,1-1.26.6c-.3.11-.77.19-.84.4a1,1,0,0,0,.25.94A20.18,20.18,0,0,0,183,136.9l.07-.15-1.2-.8.14-.23,2.32.92c-.32.88-.58,1.57-.82,2.25.91.44,1.19.15,1.27-.6a2.73,2.73,0,0,1,.44-.91,3.3,3.3,0,0,1,.36,1.07,14.5,14.5,0,0,1-.35,1.88l-1.34.7c0,.08.09.17.13.26l2.14.66a5.17,5.17,0,0,1,4-.52c.12.07.29.16.32.27.25.77.82.76,1.45.66s1.1.22,1.49-.61c.21-.46,1.07-1,2,.07L195,140.2l.23-.14.9,1.45,1.16-.58a6.56,6.56,0,0,1-.52-1.27c0-.11.38-.31.59-.47l.15.23c-.14.19-.27.38-.44.63l4.37-1.49-1.64-1.89c-.36,1.89-1.26,2.4-3.18,2.09a4.55,4.55,0,0,0-1.66.31c-.46.12-.9.29-1.34.44a8.15,8.15,0,0,1-.11-1.3,1.1,1.1,0,0,1,.43-.64c.44-.34.92-.63,1.42-1-.84-.3-1.51,1-2.32.2-.11,1.56-.82,2.22-2.82,2.77a1.17,1.17,0,0,1-1.58-.7,3.73,3.73,0,0,0,2.81-.66L189.3,136l.51-1.2-1.35-.44c.23-.54.38-.89.61-1.45.69,1.18,1.89.6,3,.77a2.08,2.08,0,0,0,2.21-.93,3.78,3.78,0,0,1,2.75-1.56,1.2,1.2,0,0,0,.75-.44c.8-1.37,1.5-2.81,3-3.57.09,0,.11-.22.2-.43l-1.84-.15a1.65,1.65,0,0,1,2.33-.3,3.93,3.93,0,0,0,1,.25l.32-.57-.92-.14,2.05-1.56c-.06.82-.38,1.68-.1,2a2.25,2.25,0,0,1,.37,1.81c0,.2-.32.44-.55.57a3.87,3.87,0,0,1-1,.21l.9.94c.57-.34,1-1.07,1.64-.27-.53.46-1.34.82-1.45,1.34a1.93,1.93,0,0,1-1.72,1.74l2.17.5-1.45,2.8,1,.12,1.31.21-.35.84.31.15.8-1.63.66.9c1.2.09,1.82-.59,2.07-1.82.13.66.22,1.05.29,1.39-.19.29-.59.75-.51.84.52.68-.2.81-.43,1.15,0-.38.06-.77.1-1.2a5.67,5.67,0,0,0-1,.14,5.11,5.11,0,0,0-.79.44l.86.5-2,1.21a10,10,0,0,1,2-.28,5.14,5.14,0,0,1,1.68.53c.9.43,1.37.31,1.45-.8.05-.77.4-.9,1-.59-.22.24-.68.56-.63.72.26.86-.26,1.19-.86,1.46s-1.06.09-1.52-.46c-.19-.23-.9-.07-1.36,0-.1,0-.25.56-.19.61.32.24.95.63,1,.55.63-.68,1.07-.05,1.55.16a3.38,3.38,0,0,1,.7.51c-.27.2-.51.53-.79.56a4.21,4.21,0,0,1-1.37-.36c.41.57.61,1.16.94,1.24,1,.24,1.08,1,1.29,1.72.16.58.31,1.17.47,1.75l.31,0a9.57,9.57,0,0,1,.22-1.32,2.45,2.45,0,0,1,.58-1.16,1.68,1.68,0,0,0,.57-2.33l.89-.17c0,.29.07.58.1.87s0,.81.08,1.1l-.76.68,1.05.46.59.91a6.82,6.82,0,0,0,.62-1,6.06,6.06,0,0,0,.21-1.21c.47.42.91.64,1.06,1,.53,1.23-1.27.73-1.31,1.73,1.35.26,1.14,1.62,1.66,2.73.28-.54.45-.87.56-1.07l-.94-1.47,3.88-.85c-.22.34-.36.49-.45.67-.19.39-.37.79-.56,1.18.49,0,1,.09,1.48.1a5.29,5.29,0,0,0,.77-.11l.07.24-.48.43c.89.25,1.76.54,2.66.74a1.56,1.56,0,0,0,1.07-.12,8.67,8.67,0,0,0,1.3-1.16l.76.34c.14-.31.23-.79.38-.81,1-.11.38.78.65,1.21,1.16-.34.55-1.32.83-2.37l1.36,1.73,2.3,1a2.65,2.65,0,0,1-2.15,1.48c-.82-.14-1.11.29-1.4,1.11.68-.25,1.17-.46,1.66-.61s1-.25,1.43-.38c0,.1,0,.2.07.3l-3.73,2.7c0-.23-.11-.55-.18-.9l-.9.35.45.6a2.56,2.56,0,0,1-.59.15c-1.18,0-2.36,0-3.54,0a5.25,5.25,0,0,0-1.4.62L220.2,153c0,.08-.09.16-.13.24l.43.26c-.72.57-2.2-.26-2.35,1.52h1.45c1.54,0,3.09.05,4.64,0,1.09,0,2.19-.11,3.28-.21.15,0,.26-.33.42-.46.46-.38.94-.73,1.41-1.1l.15.19c-.26.34-.51.69-.76,1l.2.33,2.72-1.06-.81-1.38a2.24,2.24,0,0,1,.4-1.31,1.08,1.08,0,0,1,.35.1c0,.32-.11.63-.13.73l1.22,1.13c-.24-2.2,2-2,2.91-3-1.63.47-1.63.47-1.86,0,1.29-.82,2.88-1.11,4-2.18,0-.08-.08-.16-.13-.24l-.9.23c1-1.2,3-2.14,3.85-1.92l1.15-1.12c-.1-.88-.19-1.65-.28-2.42l-.19-.06-.52,1.88c-.2-.61-.36-1.06-.48-1.42a7.81,7.81,0,0,1,.86-.59,1.29,1.29,0,0,1,.71-.22c1,.17,2,.39,2.58-.81.13-.25.62-.33,1-.51-.08-.65-.16-1.35-.25-2.05a1.81,1.81,0,0,0,2.16-1.31c.07-.31.37-.81.55-.8,1.6,0,2.5-1.07,3.48-2a2.47,2.47,0,0,0,.38-.8c.15-.33.31-.66.55-1.16,0-.16-.12-.57-.24-1.16l.86.56c.37-.42.69-.78,1.12-1.29a8.15,8.15,0,0,1-1.12,0c-.21,0-.53-.13-.59-.28a.67.67,0,0,1,.24-.6.86.86,0,0,1,.7,0,6.47,6.47,0,0,1,1,.79c1.21-1.43,2.38-2.83,3.55-4.23l-.17-.19-.77.24c.08-.37.33-.69.49-.66,1,.23,1.2-.53,1.51-1.21l-1,.51c.39-1.29,1.58-1.26,2.33-1.81.73.79,1.44.66,1.8-.38l1.09,1c-.19.44-.26,1.08-.6,1.3s-1,.11-1.56.14l.59,1.15c.26-.92.83-1,1.45-.61v4.3l.73-.13c-1.69.64.08,2.47-1.29,3.41,0-.63-.07-1.07-.1-1.55-1.17.72,0,1.69-.28,2.5-.09.28.34.72.52,1.07l-1.3,1.62.72.25c.26,1.12-.58,2.28.46,3.19h0A3.7,3.7,0,0,1,260,143h.89a5.16,5.16,0,0,1-.49,3.92l1,.6-1.62.59-.95-.74,1.4-1-2.15-.31c.08.49.3,1,.17,1.31s-.61.47-.94.69l.16.26h.76a2.13,2.13,0,0,0,.16.25l-1.21,1c.85.6.92.8.63,1.77-.09.31-.35.64-.29.89a3.71,3.71,0,0,1-.81,3.56l1,.41-1.14.06c-.12-.39-.22-.72-.31-1a3.66,3.66,0,0,0-2.29,2.2c0,.39-.07.78-.13,1.34.23.09,1.21-.13.63.9l1.12-.17c-.21,1.06-.61,2.06.12,3.09a3,3,0,0,0,.33-.42,2.29,2.29,0,0,0,.15-.51c.26-1.54.26-1.53,1.78-1,.25.09.5.15.93.29l-1,1.1,1,.25-.71.45c.21.65.38,1.19.55,1.73l-.31.11c-.18-.34-.35-.68-.54-1.05-.73.35-1.15.7,0,1.18l-.52.21.4.53-1.46,1.11,1,.13-.82,1.19.42.26,1.3-2.07a2.12,2.12,0,0,1-.77,2.48l.46.26-2.23,2.06c1,.92,1.56-.1,2.05-.46l1.07,1.22,1.15-1.62-.65-.31c.14-.19.33-.56.41-.54.73.22.88-.42,1.15-.79.4-.55.7-1.16,1.1-1.83l.69,1.9,1.56-.71c-.39-.58-.71-1.08-1.09-1.67.45-.41.92-.87,1.43-1.3s.81-.37,1,.56l-.83-.1c.28.32.45.48.59.66a5.48,5.48,0,0,1,.31.52c.17-.14.39-.26.48-.44a1.91,1.91,0,0,0,.24-.8c0-.38-.16-.81,0-1.13a17.9,17.9,0,0,1,1-1.81c.07-.14.15-.41.09-.46-.59-.5,0-1,.11-1.37a31.78,31.78,0,0,1,1.48-3.4,5.63,5.63,0,0,1,.45-1.07c.83-1.21,1.74-2.37,2.55-3.6a14.55,14.55,0,0,1,1.06-2c.49-.52.47-.91.07-1.75a5.61,5.61,0,0,0,1,.45c.31.08.82.22.92.09a5.31,5.31,0,0,0,.64-1.36c.12-.34.07-.8.28-1a1,1,0,0,0-.23-1.51c-1-.38-.53-1.16-.58-1.86l1.63,1.75a16.29,16.29,0,0,0,4.82-3.67l4.68-3.47c-.06.41-.13.94-.21,1.54l2.09-1c.05-.1.18-.32.31-.54.68.85.95.09,1.32-.26a3.16,3.16,0,0,0,1.31.14,12.63,12.63,0,0,1,2-.26c.37,0,.71.45,1.07.69-.49.65,0,1.25,0,1.85,0,1.27.51,2.71-.74,3.77,1,.48,1,2.38.17,3.75,1.36.34.4,1.46.65,2.17a1.69,1.69,0,0,1-1,2.13l-.88-1.13c-.37.94-.73,1.82-1.08,2.71l.34.29,1.46-1.33a1.67,1.67,0,0,1-.23,1.32c-.28.29-.84.31-1.55.53l2.3,1.33-2.25,2,1.12.35c-.53.43-1.19.71-1.38,1.18-.41,1-1,1.47-2.66,1.32a2.83,2.83,0,0,0,.68.57,7.84,7.84,0,0,1,.67.73,4.27,4.27,0,0,1-.62.52c-.52.26-1.07,1.28-.82,1.8l1.16-1.48.38.25c-.55.93-1.12,1.85-1.65,2.79a25.71,25.71,0,0,0-1.21,2.33c-.1.25.08.62.13.93h.35l.42-1.17,1.45-.92-.49-.39c.58-1,1.15-2.09,1.82-3.31-.08,1.19-.15,2.11-.21,3v0c-.27.56-.54,1.12-.72,1.47l-1.16.44.1.28.59.08-.54.92,1.68.49c-.2.48-.33.8-.48,1.14l.79-.08-1.22,3.37.21.18,1.55-1.62a6.88,6.88,0,0,1-.27,2.88c-.21.52-.52.88-.35,1.51,0,.18-.41.55-.69.75a13.91,13.91,0,0,1-1.26.69l.07.27,1.2.2,1.78-2-.72-.63,2.35-2.42,1.84,1.6c.86-1.39,1.73-2.74,2.54-4.12.33-.57.87-1.62.7-1.77-.85-.76-.08-1.31,0-1.93l.28-.19.44,1,.46,0,2.12-4.94c.28-.66.57-1.31.81-2a.69.69,0,0,0,0-.58c-.7-.93-.11-1.55.46-2.21.4-.46.73-1,1.09-1.47l-.26-.17a4.26,4.26,0,0,1-.66.79c-.15.1-.45,0-.67,0a.42.42,0,0,1-.08-.37c.4-.6.83-1.18,1.29-1.82l-.8-.54c.64.54,1.49-1.37,2,.32l.28-.11c.18-1,.36-1.94.5-2.64l-1-.94ZM212,96h0l.71.51Zm4.79,17.62,1.12.18-1.12-.18ZM243.45,104h0c.08-.21.17-.41.26-.62C243.62,103.63,243.53,103.83,243.45,104Zm-7.55,5.25h0c0-.23,0-.55.14-.65C235.9,108.74,235.93,109.06,235.9,109.29Zm-.05,0a2.22,2.22,0,0,0-1.7.41,2.28,2.28,0,0,1,1.7-.42Zm7.61-5.21h0a.68.68,0,0,1,.44.58A.68.68,0,0,0,243.46,104.11ZM225.69,92.34h0l-.48-.18Zm0,0h0c-.23.36-.45.73-.76,1.23C225.22,93.1,225.44,92.74,225.67,92.38Zm-8.12,11.55,1.13-.55-1.26-.6-.81-.36.15-.27a11.53,11.53,0,0,0,1.85.22c.22,0,.51-.36.64-.62.68-1.31,1.22-2.7,2-3.93a3.09,3.09,0,0,1,1.84-1.26,25.2,25.2,0,0,1,3.48,0c.85,0,1.7-.13,2.7-.21.29.66,1.11.61,1.92.82a5.69,5.69,0,0,0,3.69.08c.21-.08.79-.29.87.51s.73.52,1.13.16a6.7,6.7,0,0,0,.83-1.06c-1-.43.06-.89.15-1.41l.29-.07c.07.31.29.7.18.9-.45.84-.08,1.23.73,1.6a6.8,6.8,0,0,0-3.63,1.63h2l-1.37,1.28c.28.09.7.1.8.28a1.14,1.14,0,0,1,0,.94,9,9,0,0,1-1.46,2l-.36-1.29-.42.38,1,1.36-1.24.86.84-.11c-.48.89-3.58,2.12-4.36,1.6a2.74,2.74,0,0,1-.09,1c-.14.28-.48.46-.73.68l-.24-.15.34-.92c-4.45,2.25-8.54,5-13.8,5,.51-2.77,1-5.53,1.55-8.3ZM149.9,78.42l-1.15-.27,1.15.27Zm15.44,16.36c0-.1-.06-.21-.08-.31,0,.1.06.21.08.31l.3-.12Zm-3.4,5.78a3.15,3.15,0,0,0-2.63,1.74h0A3.17,3.17,0,0,1,161.94,100.56Zm106.79,26.6c-.49,0-.94.34-1.29,0C267.79,127.5,268.24,127.21,268.73,127.16Zm30.13,21.27-1.55-.55h0Zm-2.93-4.72v0c0-.35,0-.7,0-1.06Zm0,0h0l-1-.22Zm4.36-7.32c-.18.23-.37.46-.55.7.18-.24.37-.47.55-.7l-.25-.08Z"/><path d="M91.52,114.73l-.48-.31c-.09-.55-.19-1.11-.25-1.43l-2.68,1.6c-.53-.38-.51-.72.06-1.09s1.42-.92,2.09-1.43a1,1,0,0,0,.24-.65c0-.49,0-1,0-1.66l-.41-.25.49-.44-1.39-.8c-1-.29-.39,1.86-1.73,1.32.09-.49.16-.91.24-1.33l-.28-.14-1.54,2.24.25.22-1.71.75c.18-.38.24-.5.31-.66-.87-.07-1.38,1.39-2.36.36l1.46-.76c0-.12-.08-.25-.11-.37l-1.76.31c-.07-.22-.17-.59-.21-.71l-1.14.65c-.12-.36-.23-.72-.38-1.2l-2.25.24c-.08.61,0,1-.19,1.2a10.11,10.11,0,0,1-1.41,1l-.08-.23,1-1.87c-2,.1-3.83-.36-5.31,1l-.15-.32,1.07-.71c-.65-.09-1.55-1.48-1.6-2a6.3,6.3,0,0,0-.65-1.8c-.23-.52-.71-1-.76-1.51-.14-1.57-.16-3.16-.15-4.74a1.26,1.26,0,0,1,.61-.93,7.26,7.26,0,0,0,2.92-2.68c.86-1.16,1.76-2.29,2.8-3.63L75,92.11l-.13-.26L77.67,90,75,89.34c.68-.73,1-1.32,2-1.08a2,2,0,0,0,1.49-.36c.23-.17.13-.8.18-1.29,1.41.45.53-2.17,2-1.69V82.14c-.29.39-.72.69-.7,1,.06.84-.37,1.12-1.37,1.35.21-.59.35-1,.52-1.49l-1.35-.37c.76-.27,1.3-.47,1.84-.65a3.58,3.58,0,0,0,.68-.2c.55-.34,1.08-.72,1.63-1.08s1.11-.67.53-1.46a.77.77,0,0,1,.09-.68c.25-.35.68-.59.89-1,.69-1.25,1.31-2.54,2-3.95l-1.56.27c.22-.4.35-.8.44-.79,1,.12.75-1.41,1.7-1.36.49-1.5,1.13-3,.73-4.58a2.6,2.6,0,0,0,.54-1.22A43.73,43.73,0,0,0,88,60.39c.06-3.46-.12-6.92-.2-10.38a1.74,1.74,0,0,0-.17-.59c-.14-.31-.32-.6-.54-1-.54.17-1.51-.68-2,.86-.36-1.1-.6-1.94-.9-2.76-.11-.27-.33-.67-.55-.7-.46-.07-1.18-.12-1.4.15-.62.73-.92.38-1.2,0l-1.51.31.28-1.07-.8.22-2.59.73,0-.16.85-.59-.16-.28a16.52,16.52,0,0,0-3.38,1.72c-1,.84-1.48,1.18-2.57.63,0,.34-.06.67-.08.92h4.69v.14l-1.9.3,1,.87-1.63,1.18.15,0L72,53.18c1,0,1.17-.78,1.6-1.34s1.84-.4,1.4-1.86l1.32.26c.34-.63.65-1.31,1.5-.47l1.33-1.93A4,4,0,0,1,78,51.31c0-.3-.09-.6-.14-1l-.84.3.28.11a4.42,4.42,0,0,1-.3,1.3c-.2.34-.69.49-1,.81a7.72,7.72,0,0,0-.91,1.41,14.57,14.57,0,0,0-.54,1.39h1.74c-.16-.51-.25-.76-.32-1l1.57.37-1.29,1,.71.65-1.83,1.13c.42-1.53-.73-1.35-1.26-1.33a13.78,13.78,0,0,0-3.28.58c-.32.08-.54.55-.84.87l.85-.35c.22.36.41.67.59.94l-1.4.8-.8-.56c-.1.74-.18,1.35-.25,1.94l1.28.38c-.87.33-1.58.5-1.69-.39a10.66,10.66,0,0,1,.24-2.43l.32,0a3.33,3.33,0,0,0-.32-.87c-.13-.18-.42-.24-.64-.36-.07.21-.11.42-.19.63a1.56,1.56,0,0,1-.29.54c-.44.4-1.07.68-1.33,1.16s0,1.05,0,1.65l-.74-.15L64.92,62a3.75,3.75,0,0,1,0-1.63,5.25,5.25,0,0,1,.65-1.18,4.14,4.14,0,0,1,.3-.5c.24-.29.51-.55.75-.84a3.6,3.6,0,0,0,1-2.78s.1-.08.16-.12l.09.29,2.12-.52c0,.41-.05.76-.08,1.13h-1L69.38,57l1.74-.63c.27-.68-.51-1.94,1.1-2.1.09,0,.14-.34.21-.51-.24,0-.53-.15-.72-.06a3,3,0,0,0-.68.54c-.23-.88-.43-1.66-.7-2.72l2-1.12-.79-.56c.07-.21.15-.42.24-.66-1.65.17-1.84.36-1.46,1.39-.77-.09-2,1-2.78,2.44l1.8-1.44-.18.95,1.38.27c-.23.49-.37.8-.53,1.13-.84-1.22-1.27.56-2.07.15L68.9,53a2.72,2.72,0,0,0-1.77,2.82l-.89-.05c0,.33.05.65.1,1.27L64,56l-.35.23.33,0c-.1.81-.21,1.63-.34,2.63-2.2.37-1.72,3-3,4.28l.64.61-1.5,1.42c1.12,1.23-.41,2-.34,3L58,68.54,59.87,70c-.07.2-.23.58-.35,1-.17.58-.32,1.16-.48,1.73h0c-.16.6-.31,1.19-.48,1.83l1.1.3,0,.23-1.64.69,1.87.42c-.08,1-.15,1.87-.21,2.78h-.46l-.18-2.47-.35,0c-.07.3-.15.6-.25,1l-1.16-.61c-.08.4-.12.71-.19,1-.1.46-.22.92-.33,1.38l-1-.59c0,.43.05.84.07,1.09.44.2,1,.38,1,.46-.1.66-.13,1.68-.53,1.87-1.07.53-.73,1-.39,1.48-.85,2-.21,4-.31,5.84,0,.39.55.82.73,1.05-.21,1.06-.41,2-.56,2.94-.08.54-.12,1-.77,1.24-.26.11-.35.79-.4,1.22s.1,1,0,1.44c0,.2-.41.4-.67.48s-.37-.15-.56-.24v.9l-1.05.21.06.38c-.67.33-1.24.65-1.83.87a3,3,0,0,1-1.5.34c-1.05-.24-1.27.38-1.5,1.13a2.41,2.41,0,0,1-.39.59l-.47-.67-1.4,1.26a7.1,7.1,0,0,1-.67-1.76,27.5,27.5,0,0,1,0-2.87q.09-7.18.16-14.38c0-1.13,0-2.26,0-3.44a5.75,5.75,0,0,0,.47-1.15c.28-1.5.48-3,.76-4.51.25-1.3.62-2.59.84-3.9.14-.84.74-1.77-.28-2.48,1.12-1,2.54-7.5,1.81-8.19h-.86l-.07-.22.82-.42c-.51-.79.15-.9.6-1,0-.78-.07-1.45-.1-2,.59-.3,1.3-.42,1.47-.79.59-1.31,1-2.71,1.45-4l-1.39-.59.08-.22h1.24c.6-2.32,1.19-4.59,1.79-6.94l-.49.17-.17-.16L54,42l-.62-.47c.41-.66.78-1.22,1.08-1.69l-2.21-1.23,2.34-.15c.12-.83.22-1.57.33-2.3L54.35,36c.16-.39.31-.73.45-1.08a13.31,13.31,0,0,0,.58-1.6c.24-1,.44-2,.61-3,.11-.67-.08-1.49.24-2a2.17,2.17,0,0,0-.15-2.6c.38-.42.91-.73,1-1.11a44,44,0,0,0,.56-5.37c.14-4.36.19-8.72.23-13.09,0-1.64-.13-3.28-.2-5.08l-1,.66-1-.53c-.14.94-.26,1.76-.4,2.74l-.86-1c.3,2.13-.6,2.93-2.59,3l1-1-.4-.58.8-.39.56.89c.16-.68-.06-1.33.05-1.92a1.93,1.93,0,0,0-1-2.39l-.51.61,1,.27c-.45.76-1.09.66-1.33.19-.4-.78-1.11-.77-1.72-1A7.22,7.22,0,0,1,49.39,0c-.47.57-1,1.21-2,.65-.3-.17-.83.07-1.52.15l1.45.49c0,.1,0,.2,0,.31l-1.79.28c0,.13,0,.3,0,.33L47.2,2A5.71,5.71,0,0,1,47,3.76c-.21.4-.76.63-1.16.93l-.23-.2c-.05.54-.09,1.08-.13,1.63h.81c-.16,2-.25,3.94-.49,5.87-.15,1.21.84,2.47-.19,3.63,0,0,0,.13,0,.2-.1.52-.2,1.05-.31,1.56.15.56.31,1.18.47,1.8L45.5,19c-.42.3-1.12.55-1.2.92-.35,1.59-.29,3.22-1.23,4.71-.47.75-.25,1.9-.5,2.83-.43,1.54-1,3-1.56,4.8l1.84-.51L43,32c-.39.65-1.88.19-1.67,1.6a11.57,11.57,0,0,1,.36,2.22l-1.26.5c-.13.75-.27,1.41-.35,2.08a3.87,3.87,0,0,0,0,1c0,.28.27.65.16.81A18.8,18.8,0,0,1,39,41.9c.34.44.57.76.94,1.25l-1,0c-.14.67-.28,1.26-.39,1.78l-1.28-2.06a3.41,3.41,0,0,1-3.1,1.27c-.3-.06-.7.12-.92,0-.51-.32-.86-.43-1.21.17-.08.14-.35.21-.54.23-1.15.13-2.31.21-3.45.36-.22,0-.42.28-.74.5l2.63.71-.09.39L27.07,46l-.18-.57-1.62.21c-.09.41.61,1.14-.56.93-.34-.06-1.37,0-1.32,1.07,0,.26-.43.53-.66.8l-.17-.13a3.2,3.2,0,0,1,.07-.35c-.4-.06-.76-.1-1.11-.17-1-.21-1.49.6-2.15,1-1.86,1.22-3.7,2.48-5.54,3.72a2.65,2.65,0,0,1,.42,1.36c0,.09-.43.28-.6.23s-.27-.35-.43-.59l-.52.55.3.27,1.23,1L13,55.81a.53.53,0,0,1-.2,0c-.92-.11-1.38.72-2.07,1-1,.44-1.4.67-1.46,1.59A16.6,16.6,0,0,0,11.2,57.2c1-.82,1-.86,1.59.16l-2.51,3.55h1.88c-.2-.46-1.27-.88-.06-1.31.86-.3,1.71-.67,2.9-1.14-.67.93-1.21,1.67-1.85,2.54,0,.1.07.41.08.47l-1.92,2.16.43.6-2.8,2.85L7.87,69.37l-.41-.15c.22-.87.47-1.74.63-2.62S8.89,65,8,64.28c1.17.07,1.69-.54,1.77-2.05L6.9,64.15l-.64-1.32C4.35,65.9,4.35,65.9,4.64,67a7.23,7.23,0,0,0,.81-1.37c.38-1.12.68-1.24,1.7-.45l.69-.61c-.37.71-.73,1.43-1.11,2.17l1,.31c-.79.81-2.93.5-1.9,2.29-1.39,1.39-2.31,3.27-4.55,3.55l.19.3L2.32,73c.11.39.21.75.3,1.09L1.16,75l.13.22.93-.36c-.11,1.69-1.14,3.18-.63,5L1,80.52l.57.09c-.18,1-.35,1.84-.52,2.72-.46.39-1,.89-1,1.41A7.69,7.69,0,0,0,.47,86.9s.12,0,.18.06c.53-.8,1.11-.86,1.74-.25a10,10,0,0,0,1.22.88l-1.83.94,1.71.67L1.32,90.71c0,.13,0,.25.05.37.51.21,1,.47,1.54.63,1.16.34,1.47.92.86,2-.5.85.51.93.63,1.46.28-.23.56-.44.83-.67.44-.39.87-.8,1.18-1.08,1.49,1.49-.78,1.87-.58,3H6.92c0,1.46,0,2.84,0,4.22S7,102,5.47,102.05c-.11,0-.22.13-.54.34.68.44,1.45.67,1.71,1.17a6.89,6.89,0,0,1,.31,2.3l.83-.06a7.3,7.3,0,0,0,.08-1.48,8.46,8.46,0,0,0-.49-1.44c1.59,0,2,.64,1.43,1.89a7.4,7.4,0,0,0-.33,1.3c2.69,0,5.21.06,7.72,0,1.46,0,2.93-.32,4.39-.51a2.81,2.81,0,0,0,.9-.3,16.48,16.48,0,0,0,1.48-1c1-.77,2-1.56,3.05-2.35,0,0,0-.18-.12-.58L23,103.83c.69-1.76-.91-2-1.59-2.76a15,15,0,0,0-1.47.59,2.58,2.58,0,0,0-1,.75,1.61,1.61,0,0,1-2.2.81l-1.13,1.64-.72-.67-1.91.24c0,.23-.07.5-.1.77l-.31,0c-.07-.78-.16-1.57-.2-2.36a4.38,4.38,0,0,1,.1-.79,2.7,2.7,0,0,0-.71.11c-.87.39-1.41.12-1.68-.81-.06-.22-.33-.38-.54-.6-.08.16-.13.22-.13.28-.12.89-.89.77-1.46,1-.12-.44-.46-1-.33-1.32.56-1.44,0-2.82-.24-4.16a3,3,0,0,1,1.2-2.9c.07.4.12.63.17.9l1.56-.47-2.55,2,.67.86.45-1.29c.22.46.36.75.44.9a5.4,5.4,0,0,1,1.06-.46,6.39,6.39,0,0,1,1.24,0l-.31,1.21c.43.15,1,.56,1.51.46,1-.22.91.28.76.94L14.81,98l-.1.37.78.57c.35-.8,1-.35,1.56-.42a10.72,10.72,0,0,0,1.68-.37c1-.27,1.9-.58,3-.94l.46-.58.19.1c-.16.45-.32.9-.45,1.25.21.41.39.78.55,1.1l3.2.17c.14-.4.34-1,.48-1.36l1.51-.15c-.62.75-.62.75-.63,2.92l.83-1.26,1-.51-.57-1,1.09-1.31V98A3.1,3.1,0,0,0,31,95.24c0-.67.14-1.21,1-1.18.08,0,.16.1.21.13l-.5.8h.9c0,.6-.08,1.12-.07,1.65a7.24,7.24,0,0,0,.12.92c.32-.15.64-.3,1-.47a12.57,12.57,0,0,1,1.34-.74,8.49,8.49,0,0,1,1.45-.28l.29.27c.14-.3.1-.64,0-.65a5.91,5.91,0,0,0-1.19,0c-.54,0-1.07.07-1.66.12l3.36-2.32c0,.32-.05.69-.11,1.4.71-.84,1.22-1.08,1.91-.21-1.33.19-1.33,1.2-1.71,2s-.89,1.72-2,1.74c-.74,0-1.47-.06-2.23-.1a2.66,2.66,0,0,0-.23.71c0,.89-.7,2,.56,2.58h0c.38.24.9.74,1.06.65,1-.63,1.27.27,1.52.48-.19.67-.32,1.12-.46,1.57l1,.21c.08.19.4.56.38.93,0,.88-.26,1.76-.33,2.65s0,1.58,0,2.38h-.9c1.13.81,1.81,2.14,3.48,1.52l0,.29-.93.52,1,.65,1.37-.83.27.27a5.89,5.89,0,0,0-.44.55,5.5,5.5,0,0,0-.63,1.26c0,.11.45.5.71.52a24.13,24.13,0,0,0,3.4.08c1.21-.06,2.4-.27,3.75-.44l0,.07h2.31c.52,0,1,.2,1.27-.58.1-.35.62-.56.89-.89s1.49-.46,1-1.39l3.18-1.47c.72.65,1.26.54,2.3-.45.76-.71.93-.64,1.43.24s.36,1.23-.6,1.35a4.75,4.75,0,0,0-.83.33l1,.33-.37.45.28-.14,2.06,3.19v-1.76a.56.56,0,0,1,.41.34,1.12,1.12,0,0,0,1.53.49c.66-.27.62-.74.38-1.31a15.5,15.5,0,0,1-.53-1.63l.34-.18,1.15,1.88,1-.87-1.11-.7c.18-.34.36-.67.53-1l1.43.41-.63-.82,1.24.08c-.36,1.12-.26,2,.81,2.59.15.08.14.46.2.71-.23,0-.48.16-.68.1s-.38-.27-.49-.37l-1,1.09c.08.31.18.73.27,1.09l1.58-.7c.63,1.43-1,1.19-1.14,2a3.61,3.61,0,0,1,.3.25c.16.18.31.38.46.56a2.36,2.36,0,0,1-.72.17c-.25,0-.49-.17-.74-.2a2.78,2.78,0,0,0-.57,0,7,7,0,0,1,.42,2.14,7.28,7.28,0,0,1-1.11,2c3.34,0,6.33,0,9.31,0,2.64-.06,5.28-.24,7.91-.37.74,0,1.11-.34.91-1.18h-.83l0-.22,3.48-1,0-.31-1.21-.26c.74-.72,1.72-.22,2.1,1.1l1.77-1.68-.9-.06-.17-.35,2-1.3.23.28-.24,1,1.11-.87-.76-.85c.14.09.27.19.4.29ZM20.78,54.25h0l1.21.82Zm-6.3,8.67a1.2,1.2,0,0,1-.46,1.5,1.21,1.21,0,0,0,.46-1.5ZM8.2,70.79a8.86,8.86,0,0,1,2.65-1.1c.12,0,.32.12.64.25l-.46.54c1.35,1.26-.73,1.72-.42,2.73l-.29-.06a8.29,8.29,0,0,0,.31-.83,2.53,2.53,0,0,0,.09-1,3.15,3.15,0,0,0-.46-.86c-.58.42-1.36.73-1.68,1.3s-.06,1.3-.06,2.3c-.47-.51-1.06-.86-1-1.15A3.45,3.45,0,0,1,8.2,70.79ZM31.82,93.17c.06-.09.12-.19.19-.28l-.28-.21.28.21C31.94,93,31.88,93.08,31.82,93.17Zm.87-9.76c-.1.7-.2,1.37-.3,2l-.39.06a5.1,5.1,0,0,0-.4-.77,2.93,2.93,0,0,0-.86-.86c-.2-.08-.6.2-.87.37s-.26.4-.41.42a2.7,2.7,0,0,0-2.38,1.76c0,.14-.25.22-.34.29l-1.48-.49a1.72,1.72,0,0,0,1-2.34l-1,1.25c0-.26-.09-.54-.19-1.18-.41,1.21-1,1.62-1.93,1.24-.13,0-.42.19-.6.34-.34.29-.66.62-1.13,1.08,0,0,.25.39.33.37a5.13,5.13,0,0,0,.89-.57l1.05.84L22.06,89V87.92l-.23-.09c-.12.21-.38.46-.34.63A2.18,2.18,0,0,1,19.73,91c-1.05.25-1.56,1.11-2.38,1.33-1.42.36-2.86,1-4.44.35-.94-.4-.76-1.18-.76-1.77a79.45,79.45,0,0,1,.14-8.87A15,15,0,0,1,14,76.88c.36-.7.34-1.51.87-2.18a10.3,10.3,0,0,0,1.07-2.27l-.23-.15-.62.77-.28,0c.11-.46.21-.92.32-1.39l1.4.28c0-.12.07-.24.11-.36L15.69,71c1.76-.35,2.17-.73,2.35-2.11l.11-.32c-.38-1.2-.38-1.2.88-1.32a2.33,2.33,0,0,0,1.9-2.43c-.07-.77-.09-1.66,1.07-1.82a2.18,2.18,0,0,0,.95-.44,2.57,2.57,0,0,1,2-.69c.26,0,.56-.22.94-.39l-.63-.71,1.85-1.23-.86-.32-.06-.2c.86-.21,1.73-.39,2.58-.64,1.15-.35,2.29-.77,3.44-1.12.36-.11.94-.8,1.06.25l1.47-.2c-.06.84-.11,1.63-.16,2.42,0,.13,0,.11-.53.54A.7.7,0,0,0,34,61c.81.92.46,1.57-.39,2.18a1.41,1.41,0,0,0-.36.43c.24.57.74,1.32.59,1.48-.6.66-.46,2.21-1.81,1.84a12.59,12.59,0,0,1,.42,1.84c0,.62-.08,1.26-.09,1.89a12.8,12.8,0,0,1-.51,4.6c.91,0,1,.35.76,1.18a19.58,19.58,0,0,0-.21,3A14.66,14.66,0,0,1,32.11,81l-1.59-.34-.15.35.79,1.19a1.55,1.55,0,0,0-.28.39,1.32,1.32,0,0,0,0,.56s.23.12.27.08.37-.31.35-.44c-.09-.74.36-1.11.9-1.41A2,2,0,0,1,33,81.3c0,.25,0,.51,0,.76s-.11.77-.17,1.15l.32.14Zm42.58,31.67h0c.06-.07.11-.15.17-.23C75.38,114.93,75.33,115,75.27,115.08Zm-1.8-2h0c-.67,0-1.45-.33-2-.12C72,112.76,72.8,113.06,73.47,113.09Zm-6.88-48h0a2.09,2.09,0,0,0,.3.11A2.09,2.09,0,0,1,66.59,65.08Zm-4.5,5h0c.12-.28.25-.55.37-.83C62.34,69.48,62.21,69.76,62.09,70Zm14.18-7.29h0l1.52.77Zm0,0c0,.32.09.65.09,1,0-.31-.06-.64-.09-1Zm-.59,2.18h0l-.9-.24ZM62,70.16h0c-.19.11-.4.31-.57.38C61.61,70.47,61.82,70.27,62,70.16Z"/><path d="M199.49,55.59l1.52-.14.15.28-.95.77.74.33a4.1,4.1,0,0,0,0,1,4.6,4.6,0,0,0,.54,1c.17-.27.31-.51.48-.77l1.13.39-1.07.65.25.29a6.65,6.65,0,0,1,1.18-.74,1.71,1.71,0,0,1,1.13-.18c.83.34,1.54.54,2.29-.18.21-.2.65-.16,1.3-.29l-1.28,2.85.22.26,4.27-3.12-.09-.14-1.29.33L215.05,51c-.18-.16-.23-.23-.29-.24-1.34-.2-.81,1-1.15,1.56l-.45.7a6.31,6.31,0,0,1-.54-.9c-.05-.15.11-.37.18-.56l-.16-.05-.76,1.25-.22-.1v-.85l-1.22.68c0-1,1.36-1,1.08-2.24-.47,1.14-1.2.62-1.86.48.17.9.34,1.8.53,2.73l-1.52-.91c.48.9.51,1.51-.28,1.59-1.11.11-.69.94-.92,1.56l.51-.44c.19.45.34.83.43,1.06L204.85,58c0,.07,0,0,0-.06v-1c-.29.21-.59.43-.89.63l-.74.5c.12-.79.2-1.36.29-2l-.8.71c-.61-1.81,1.06-1.24,1.55-1.73l-1.79-.53c-.11.43-.21.84-.35,1.36A1.63,1.63,0,0,0,199.49,55.59Z"/><path d="M209.62,50.75h0v0Z"/><path d="M248.06,117.79c-.15.54-.54,1.2-.37,1.42.49.63.07,1.09-.18,1.41-.67.86-1.49,1.6-2.22,2.41a12.71,12.71,0,0,0-.82,1.11l.22.17c.29-.16.57-.33,1-.59l-.22.82a2.7,2.7,0,0,0,1-1.08,4.53,4.53,0,0,1,1.52-1.83c.64-.44,1,.27,1.45.05l.24.87-1.08-.16c.27,1.58-.75,1.77-1.93,1.79.35,1,0,1.37-.9,1.47-.19,0-.34.42-.54.7-.35.11-1.08.12-1.37.48a7.25,7.25,0,0,0-.82,2c.77-.14,1.48-.54,2.2,0a.74.74,0,0,0,.66-.12c.76-.74,1.49-1.52,2.23-2.29l-.26-.32-2.78,2.3-.23-.21c0-.27,0-.64.18-.78a22.17,22.17,0,0,1,2.43-1.91,5.34,5.34,0,0,1,1.43-.33c.44-.13,1-.21,1.25-.52a20.3,20.3,0,0,0,1.43-2.25c-.26-.28-.59-.53-.55-.61.42-.94-.34-1.58-.55-2.37l.62-.33a1.33,1.33,0,0,1,0-1.85,17.54,17.54,0,0,0,1.68-1.53,7,7,0,0,0,.82-1.62,4.77,4.77,0,0,0,.18-.7l-.12-.13L250.19,117c.56-1.34-.25-1.66-.91-2.16l-1.78,2.58C247.75,117.57,247.93,117.71,248.06,117.79Z"/><path d="M214.78,152.16c1.8-.44,1.8-.44,2-1.69-.06,0-.15,0-.19,0-.9.82-1.77,1.67-3,.48-.13-.13-.59.07-1.07.15.47-1,0-1.83-.44-2.69a3.58,3.58,0,0,0-2.09-1.23l.68,1-.22.2-2.79-1.06-.21.14,2.39,2.43-.6.85.15.12,1.87-1.65.36.28c-.28.48-.56,1-.83,1.44.75.41.86,1.35.39,2.78.69,1.59,2,1.14,3.14,1.14a8.61,8.61,0,0,1,2.21,0c1.1.29,1.19.32,1.36-1C216.09,154.54,215.08,153.92,214.78,152.16Z"/><path d="M168.46,126.31l0,0h0A0,0,0,0,1,168.46,126.31Z"/><path d="M166.55,130.23l-.44-.13-.1.19c.33.27.65.55,1.06.9l-1.49,1.31v.32c.81,0,1.62,0,2.43,0,.66,0,.9-.34.72-1a1.43,1.43,0,0,1,.28-1.63l1.25.38.93-1.21-1.23.11c.67-.85,1.24-.93,2.08-.25.29-.84.55-1.62.83-2.45-1.08-.27-1.2.5-1.31.93l-1.15.44c-.42.17-.72.29-1-.33a7.24,7.24,0,0,0-1-1.51c-.27.56-.29,1.17-.9,1.68S166.86,129.48,166.55,130.23Z"/><path d="M169.13,126.06l1.56.77c2.26-1.6,3-3.12,2-4A5.56,5.56,0,0,0,169.13,126.06Z"/><path d="M200.62,51.41l.32-.1c.11.85.21,1.69.29,2.43l1.12-2.51-1,.15c0-.31,0-.56.06-1.1l-2.34,1.37V51.1c-1.53,0-1.58,1.19-1.72,2.39l3-.59Z"/><path d="M87.35,107.63a1.56,1.56,0,0,0,.58-1.1,18.51,18.51,0,0,0-.45-2.56l-1.12,1,.72.88c-.81.35-.86,1.74-2.09,1.54a3.94,3.94,0,0,0-.87.11l.94.33,0,.19H83.94v.1l1.36.33c-.06.21-.11.37-.17.62A21.76,21.76,0,0,0,87.35,107.63Z"/><path d="M210.71,47.16c-1-.63-1.92.91-3,0l.65-.62c-.81,0-1.4,1.33-1.25,2.64l2.5-1.42.19.23-1.55,2.71h1.41A4.78,4.78,0,0,1,210.71,47.16Z"/><path d="M209.62,50.75l0,0h0Z"/><path d="M131.43,121.42c-.61.54-.56,1,.17,1.41l.61-1,.42,1-.66.48.3.22c1.1-.82,1.25-2.2,1.69-3.47l-.57-.47C132.67,120.28,132.06,120.86,131.43,121.42Z"/><path d="M214.06,150.11c.44-.35.79-.53,1-.82a1.46,1.46,0,0,0,0-.88,7.09,7.09,0,0,0-.26-.73c-.13-.51-.24-1-.31-1.34l-2.34,1.86,1.62.19C213.83,148.93,213.94,149.46,214.06,150.11Z"/><path d="M277.88,134.46c-.9-1.19.66-.59.64-1.28-.19-.43-.44-1-.7-1.62h-.28a11.9,11.9,0,0,1-.52,1.49,6.84,6.84,0,0,1-.82,1.06l-.42.57c.2.09.42.28.6.25C276.88,134.83,277.36,134.63,277.88,134.46Z"/><path d="M201.69,119.26l.34,1-1,.2.81.57h-1.23v.18l1.56.38-1.35,1,0,.32c.26,0,.63,0,.78-.13.72-.73,1.31-1.53.81-2.49.23-.26.43-.47.63-.68Z"/><path d="M147.17,85.24c.64-1.1.62-2.51-.1-3l-.17.67-1-.11c.74,1.08.68,1.67-.22,2.68C146.43,85.85,146.86,85.77,147.17,85.24Z"/><path d="M286.11,131.5c0-.06-.05-.12-.08-.19l-1.5.65c.1-.37.16-.6.23-.88-1.14.31-1.14.31-2.83,2.11.75-.18,1.22-.3,1.7-.4l1.05-.22,0,0h0v0Zm-1.43,1.07Z"/><path d="M151,79.58c-.62.33-.62.35-.4.69l2-.13.35-.8c.13-.3.28-.59.43-.89l-.73-.4c-.37.26-1,.55-.95.7C151.84,79.42,151.35,79.41,151,79.58Z"/><path d="M129.77,115c2,.49,2.24-1.1,3-2l-.34-.36Z"/><path d="M200,131.91a3.35,3.35,0,0,0,1.2-.36l-.15-.32a5.27,5.27,0,0,1-1.18.13c-1.93-.24-2-.24-2.3,1.68a2.28,2.28,0,0,1-.17.4c.15.06.25.13.28.11a.75.75,0,0,0,.27-.26C198.43,131.89,198.68,131.76,200,131.91Z"/><path d="M130.21,116.63c.81-.29,1.58-.33,1.89-.73.46-.61,1.67-.57,1.51-1.7l-.6-.42Z"/><path d="M133.61,114.2h0l0,0Z"/><path d="M199.75,136.65l0,0v0Z"/><path d="M203,134c.11-.07.15-.27.3-.56-.4,0-.77,0-.88.1-.69.84-.67.83-1.46.82-1,0-1,.88-1.32,1.5-.08.2.1.52.17.78a3.31,3.31,0,0,1,.67-1.06C201.25,135,202.13,134.49,203,134Z"/><path d="M291.85,178.44c.38-.28.9-1,1.31-.91,1.26.18,1.23-.83,1.62-1.53a8,8,0,0,1-1.3.52C292.22,176.76,291.7,177.43,291.85,178.44Z"/><path d="M198.37,136.25l-1.83-.86c-.23.84-.42,1.59-.6,2.25l.91.35c.1,0,.28.06.32,0s.11-.29.05-.35a2.7,2.7,0,0,0-.5-.37l-.06-.42,1.73-.38A1.79,1.79,0,0,1,198.37,136.25Z"/><path d="M199.39,58.23c-.08-.48-.14-.85-.2-1.23l-.26-.17c-.57,1.27-1.15.32-1.88.05a6.16,6.16,0,0,0,.14,1.4A15.1,15.1,0,0,0,199.39,58.23Z"/><path d="M208,52.59l-.19-.21-.85.55-.2-.2,1.4-1.49c-.47.07-.83,0-.9.15-.41.7-.76,1.44-1.1,2.18a2.83,2.83,0,0,0-.14.78l.25,0Z"/><path d="M242.79,125.49a3.91,3.91,0,0,1-1.69,1.85c.73-.06,1.17-.07,1.59-.14a2.68,2.68,0,0,0,.62-.29c-.62-.68.49-.75.39-1.48C243.39,125.44,242.85,125.36,242.79,125.49Z"/><path d="M202.78,136l0,0v0Z"/><path d="M201.11,137.94a2.14,2.14,0,0,0,1.64-2l-1.87.43C201,137,201,137.37,201.11,137.94Z"/><path d="M284.54,167.64l-.17.26c.6.06,1.35.38,1.74.13s.62-1.07,1-1.79Z"/><path d="M23.82,101.24A2.45,2.45,0,0,1,24,102a3.07,3.07,0,0,0,.76-.48c.68-.79-.39-1.32-.35-2.05C24.15,100.08,23.38,100.45,23.82,101.24Z"/><path d="M179,126.21c-.1-.89-.17-1.68-.31-2.46,0-.08-.48-.08-.47-.08a5.46,5.46,0,0,0-.26,1.2C178,125.37,177.71,126.09,179,126.21Z"/><path d="M164.32,107.35l-2.52,1.92C164.21,108.92,164.21,108.92,164.32,107.35Z"/><path d="M203.46,52.82c1.1-.07.88-.83.95-1.45l-.25-.13c-.2.24-.34.62-.59.72-1.06.4-1.15.56-.73,1.45C203,53.21,203.23,52.83,203.46,52.82Z"/><path d="M92.27,106.47l-1.92,1.2,2.13.55C92.39,107.49,92.33,107,92.27,106.47Z"/><path d="M221.84,151l-2.46-.41-.12.2a9,9,0,0,1,.92.82C220.55,152,221.54,151.74,221.84,151Z"/><path d="M301.53,129.52l1.31.42c.38-.86.38-.86-1.21-1.66C301.6,128.71,301.56,129.16,301.53,129.52Z"/><path d="M175.21,65.74c0-.18,0-.5,0-.51-.44-.14-.91-.22-1.37-.32-.07.36-.16.71-.2,1.07a2.55,2.55,0,0,0,0,.55C174.21,66.35,174.39,65.41,175.21,65.74Z"/><path d="M207.28,103.38c.14-.63.23-1.28.34-1.92l-.22-.11-1.24,2.5C206.63,104.13,207.1,104.2,207.28,103.38Z"/><path d="M197.8,55.51l1.29.12c0-.32.09-.67.14-1.07h.68C198.49,53.34,198.57,55.24,197.8,55.51Z"/><path d="M133.61,114.2l0,0a.14.14,0,0,0,0-.07S133.63,114.18,133.61,114.2Z"/><path d="M135.93,111.28a5.29,5.29,0,0,0-2.27,2.87A6.64,6.64,0,0,0,135.93,111.28Z"/><path d="M204.31,111.79l.38.13c.36-.63.71-1.27,1.11-2l-1-.23C204.63,110.41,204.47,111.1,204.31,111.79Z"/><path d="M156.4,131.18c.8.16,2.09-.68,2-1.29l-1.33.35C156.85,130.54,156.64,130.84,156.4,131.18Z"/><path d="M12.14,99.81l.18-.18c-.09-.43-.19-.86-.28-1.3l-1.4.17Z"/><path d="M2.34,98.21,4.57,98C3.63,97.12,3.18,97.15,2.34,98.21Z"/><path d="M64.39,118.64c-.33.29-.46.41-.6.51s-.28.15-.44.24c1.25,1.17,1.25,1.17,1.66.24C64,120,64.08,119.46,64.39,118.64Z"/><path d="M165.08,105c-.2.07-.52.08-.59.21-.3.6-.53,1.24-.79,1.86l.22.14c.4-.56.81-1.11,1.18-1.68C165.17,105.39,165.09,105.17,165.08,105Z"/><path d="M94.36,109.13l-2.55,1A2,2,0,0,0,94.36,109.13Z"/><path d="M166.3,101l1.31-1.72C166.32,99.32,166,99.77,166.3,101Z"/><path d="M253,111.94c-1.26-.1-1.62.67-2,1.38l.19.2Z"/><path d="M277.4,136l-.21-.27-2,1.57C276.54,137.51,276.81,136.53,277.4,136Z"/><path d="M90.14,105.08c-.86,0-1.58.17-1.56,1.07l.35.33Z"/><path d="M147.75,94.23l1.13-2C148,92.26,147.69,92.81,147.75,94.23Z"/><path d="M208.74,143.79l-.1,2,.22.09c.22-.6.45-1.2.72-1.93Z"/><path d="M262.29,130.82c-.05-.57-.09-1.14-.15-1.91l-.92.62.81,1.18Z"/><path d="M257.08,153l-1.54-.15c.1.55.17.91.23,1.28l.43,0c-.06-.24-.12-.48-.2-.78h1.06Z"/><path d="M287.15,172.34l.9,1,.58-1.59Z"/><path d="M76.33,50.64,75.17,51.9C76.55,51.91,76.66,51.77,76.33,50.64Z"/><path d="M180.68,138c2.19.22,2.19.22,2.13-.63Z"/><path d="M238.92,117.73l-2.1.81C238.47,118.83,239,118.67,238.92,117.73Z"/><path d="M205.53,56c-.06-.62-.1-1.07-.14-1.52l-.41,0C204.57,55,204.48,55.5,205.53,56Z"/><path d="M64,118.27l-1.57-1.16C63.21,118.51,63.37,118.62,64,118.27Z"/><path d="M214.59,85.56l-1.46.77C214.53,86.52,214.53,86.52,214.59,85.56Z"/><path d="M161.86,129.94c-1,.94-1,1.24,0,1.59Z"/><path d="M31.26,74.94l-.83.91C31.8,77,29.72,78,30.39,79A9.94,9.94,0,0,0,29,80.19c-.77,1-1.36,2.14-2.7,2.54l1.24,1,.9-1.51,1.11-.78a5.53,5.53,0,0,1-.19-1.18,17.89,17.89,0,0,1,2-.63A7.74,7.74,0,0,0,31.26,74.94Z"/></g></g></svg>