<svg xmlns="http://www.w3.org/2000/svg" viewBox="0 0 306.7 126.59"><defs><style>.cls-1,.cls-2{fill:#fe5f58;}.cls-1{opacity:0.2;}</style></defs><g id="Calque_2" data-name="Calque 2"><g id="Phrase_2" data-name="Phrase 2"><g id="P2_m5_1"><path class="cls-1" d="M303.55,42c-3.84-8.84-12.55-10.66-21.33-11-1.87-.07-3.72-.33-5.57-.45a.43.43,0,0,0-.22,0,1.29,1.29,0,0,0,0-.44,58.23,58.23,0,0,0-4.3-12.58c-2.44-5.37-6.26-11.08-12-13.27-5.56-2.11-11.29,0-15.44,4-6.76,6.54-8.6,16.7-9.35,26.07-3.89-2.08-7.2-5.27-11.22-7.24-5.43-2.65-10.46-2.06-15.19.48-3.74-3.94-8.11-7.63-13.52-8.56-6.4-1.11-12.07,2.26-16.67,6.38-4,3.58-8.47,10.21-14.06,11.33-4.79,1-6-7-6.8-10.39-1.91-8.45-3.2-19.75-11.61-24.47-9.07-5.1-19.61.63-23.68,9.26s-4.31,18.18-5,27.52A42.16,42.16,0,0,0,97.6,42.38a4.67,4.67,0,0,0-3,1.1,26.93,26.93,0,0,0-14.51-7C70.88,35.15,62,38,53.08,39.91c-16.95,3.68-38.37,4.54-46.8,22.55-6.67,14.24-9,32.17-2.09,46.74,8.8,18.48,30.36,19.37,48,15.59C65,122,77.64,117.42,89.82,112.52c6.41-2.57,11.2-5.92,13.87-10.91,5.88,10.12,18.59,14.37,30.9,14.62,14.42.29,30.75-3.24,43.64-10.48,5.07,5.93,14.28,6,21.8,6.17,5.74.13,11.32.13,17-1.07s11-3.2,16.44-4.94a38.35,38.35,0,0,0,4.77-1.51l.32-.15c1.87.85,3.91,1.16,5.77,2.2,5.21,2.93,10.17,3.63,16.15,3.24,11.06-.73,22.6-3.75,30.95-11.38a47,47,0,0,0,14-25.71C307.24,63,307.54,51.2,303.55,42Zm-64.8,62.14c.59-.23.44,0,0,0Z"/><path class="cls-2" d="M239.31,80.86a8.33,8.33,0,0,0,1.83-4.35c.12-1.14.37-2.26.52-3.39a9.65,9.65,0,0,0,.3-3.38c-.37-1.51.32-3-.21-4.44.67-1.55-.41-3.18.24-4.73-.73-1.31.37-2.79-.52-4.17-.54-.83-.5-2-.92-3a2,2,0,0,0-2-1.24,1.56,1.56,0,0,0-1.7,1.22c-.11.35-.77.67-1.21.73a24.74,24.74,0,0,1-2.86.05,5.63,5.63,0,0,0-5.44,2.92,36.66,36.66,0,0,0-2.3,5c-.82,2.12-1.82,4.17-2.71,6.26a16,16,0,0,0-1.15,7.79,7.21,7.21,0,0,1-1,4.74c-1.3,2-2.63,4.07-3.84,6.16s-2.69,3-5.07,2.53a2.16,2.16,0,0,1-1.43-.66A9.63,9.63,0,0,1,208,85.62c-.73-2.58-1.18-5.23-2.08-7.78a18.21,18.21,0,0,1-.94-6.21c0-1.37-.2-2.73-.2-4.1a9.08,9.08,0,0,1,1.2-5.15c1.38-2.05,2.93-4,4.46-5.91a12.57,12.57,0,0,1,2.11-2.14c1.22-.94,2.59-1.69,3.79-2.65a7.21,7.21,0,0,1,3.52-1.1c.6-.11,1.22-.16,1.92-.26-.1-.94-.41-1.69.51-2,.72-1.65.56-2.92-1.18-3.14a5.8,5.8,0,0,0-1.5,0c-1,.11-1.89.31-2.83.44A6.56,6.56,0,0,0,213.47,47c-1.35,1.08-2.85,2-4.1,3.17-1.06,1-2.53,1.73-2.84,3.4,0,.21-.33.37-.52.54a4.1,4.1,0,0,0-.71.6c-.83,1.14-1.66,2.28-2.43,3.46a13.56,13.56,0,0,0-2.08,7.14c0,.68-.54,1.42.18,2.06.07.06,0,.34-.07.52a15.61,15.61,0,0,0,.19,5.58,52.1,52.1,0,0,0,1.92,8c.51,1.55.82,3.18,1.27,4.75a10.42,10.42,0,0,0,.93,2.56c.78,1.27,1.76,2.42,2.62,3.65a6.19,6.19,0,0,0,4.7,2.62c.75.09,1.47-.22,2.12-.11a3.26,3.26,0,0,0,3.22-1.42,59.86,59.86,0,0,0,3.65-5.15,4.43,4.43,0,0,1,1.76-1.7,7.45,7.45,0,0,1,.71.64c.6.74,1.16,1.52,1.78,2.24.78.91,1.47,1.83,2.92,1.9,1.19.07,2.25.18,3.07-.85.2-.25.45-.46.64-.71C234.7,86.89,237,83.86,239.31,80.86Zm-11,5.22a.42.42,0,0,1-.27.07A11.26,11.26,0,0,1,226.73,85a3.62,3.62,0,0,1-.84-3.32c0-.09.09-.17.09-.26a14.77,14.77,0,0,1,.85-3.93,1.7,1.7,0,0,0-.51-1.43,2.16,2.16,0,0,1-.68-2,14.1,14.1,0,0,1,1.6-4.91c.52-1,.85-2.11,1.32-3.15.79-1.73,1.57-3.47,2.47-5.14a4.33,4.33,0,0,1,1.44-1.22,12.27,12.27,0,0,1,1.3-.73l.23.64c.88,0,1.79-.06,2.69,0s1.11.26,1.12,1.32c0,2.83,0,5.67,0,8.5a12.88,12.88,0,0,1-2.44,8.12c-.83,1.08-1.73,2.1-2.63,3.12a17.56,17.56,0,0,0-1.81,2.55A17.85,17.85,0,0,1,228.28,86.08Z"/><path class="cls-2" d="M162.77,82.58a3.42,3.42,0,0,0,.67-2c0-.56,1-1.07,1.18-1.71A21.15,21.15,0,0,0,165.89,74a39.31,39.31,0,0,0-.35-10,18,18,0,0,0-2.62-6.09,5.12,5.12,0,0,0-1.44-1.18c-.52-.37-1.23-.59-1.56-1.08-1-1.41-2.47-1.29-3.69-1.11a9.78,9.78,0,0,0-5.14,2.08c-.93.8-2,1.44-3,2.2a14.46,14.46,0,0,0-1.29,1.39l-.91.33A10.2,10.2,0,0,1,145.6,59c-.22-3.33-.39-6.66-.62-10a9.42,9.42,0,0,0-.21-3.09l-.1-.22v0a7.5,7.5,0,0,0,.29-1.44c0-1.72,0-3.45-.08-5.17-.11-3.28-.25-6.56-.37-9.78l-.8-.28a6,6,0,0,0,.2-3.93,4.18,4.18,0,0,1-.11-1.76,8.83,8.83,0,0,0-.47-4c-.22-.7-.33-1.68-1.54-1.26-.09,0-.3-.18-.41-.31-.26-.32-.49-.67-.75-1a3,3,0,0,0-2-.4c-.38.21-1.19,2.07-1,2.45.75,1.3.61,2.75.73,4.14q.48,5.25.71,10.52c.14,3.29.12,6.59.18,9.88.05,3,0,5.93.19,8.89.19,3.59.52,7.18.8,10.77.12,1.46.29,2.9.39,4.36s.2,3.08.24,4.63,0,3.35,0,5a12.53,12.53,0,0,1-.75,5.65,6.55,6.55,0,0,0-.53,2.4,13.92,13.92,0,0,0,1.56,6.31.88.88,0,0,0,1.15.6c.13.38.25.72.34,1,.63,0,1.17.06,1.7.13a14.09,14.09,0,0,0,3.67.05c1.15-.15,2.3-.35,3.45-.53a10.31,10.31,0,0,0,7.21-4.5c.29-.41.64-.78.93-1.18C160.72,85.5,161.8,84.08,162.77,82.58Zm-18.1-36.87h0l0-.05ZM150.82,89c-1.37.87-2.88.51-4.35.39-.62,0-.83-.48-.75-1.25l1.6-.52c.36-1.28,0-2.54-.08-3.8-.07-1.68-.2-3.36-.26-5s0-3.29-.09-4.93c-.18-2.57-.35-5.12,1-7.48a4.89,4.89,0,0,0,.26-1c.07-.22.23-.58.33-.57,1.09.08,1.1-1,1.65-1.46,1.74-1.49,3.28-3.26,5.39-4.3,1.29-.64,2-.59,2.6.65a18.72,18.72,0,0,1,2.11,5.47,50.74,50.74,0,0,1,.07,7.8c0,3.19-1.5,5.86-3.17,8.46-.73,1.14-1.39,2.33-2.18,3.42a27.17,27.17,0,0,1-2.42,2.92A9,9,0,0,1,150.82,89Z"/><path class="cls-2" d="M137.59,86.12c0-.35-.17-.88,0-1,.82-.72.52-1.53.37-2.35-.2-1.13-.47-2.25-.56-3.39-.28-3.64-.46-7.3-.74-10.94a70.05,70.05,0,0,0-1-9.8c-.42-1.92-.66-3.87-1-5.81a5.73,5.73,0,0,0-2-3.55l-1,1.13c-.77-.07-1.39-.15-2-.16-.46,0-.91.08-1.37.11a6.32,6.32,0,0,0-3.89,1.46c-.8.67-1.69,1.23-2.5,1.89q-2.48,2-4.92,4.11A3.58,3.58,0,0,0,115.77,59c-.49,1.28-1.55,2.15-2.17,3.36a20.26,20.26,0,0,0-2.13,5.41,12.67,12.67,0,0,1-.15,1.88,16.07,16.07,0,0,0-.68,5.54c0,2.19.1,4.37.12,6.56a11,11,0,0,0,3,7.7,5.53,5.53,0,0,0,4.15,1.78c1.39,0,3,0,3.81-1.54,1.78-1,2-3.16,3.42-4.37.08-.07,0-.26.1-.39.29-.71.53-1.45.88-2.12a13.48,13.48,0,0,0,1.73-4,10,10,0,0,1,1-3,21.52,21.52,0,0,0,1.8-6.3,7.89,7.89,0,0,1,1.19-3c.64.21.6.74.66,1.15.18,1.4.36,2.81.44,4.21.14,2.37.53,4.71.51,7.1a26.27,26.27,0,0,0,.55,5.15c.28,1.43.34,3.06,1.86,3.9.33.18.83.37,1.1.24a1.2,1.2,0,0,0,.8-1.29C137.75,86.74,137.62,86.44,137.59,86.12Zm-9.89-19.3a36.55,36.55,0,0,1-2.24,7.43c-.92,2.08-1.56,4.28-2.39,6.4a11.57,11.57,0,0,1-1.19,1.95,19.64,19.64,0,0,0-1.37,2,1.65,1.65,0,0,1-1.73,1.06,3.28,3.28,0,0,1-2.47-1.09,5.78,5.78,0,0,1-1.32-2.3,10.83,10.83,0,0,1-.49-2.81c0-3,0-6,.1-9a6.94,6.94,0,0,1,1.23-4,3.5,3.5,0,0,0,.31-.61,14.75,14.75,0,0,1,4.28-5.52c1-.84,1.9-1.82,3-2.56a18.74,18.74,0,0,1,3.48-1.86,8.19,8.19,0,0,1,2.21-.23A110.07,110.07,0,0,1,127.7,66.82Z"/><path class="cls-2" d="M269.42,82.75a1.16,1.16,0,0,0-.31-1.35c-.39-.46-.94-1.08-.87-1.56.12-.9-.46-1.4-.7-2.38a12.45,12.45,0,0,0-.8,1.18c-.52,1.07-1,2.17-1.52,3.22a4.77,4.77,0,0,1-3,2.4,14.84,14.84,0,0,1-4.21,0,2,2,0,0,1-1.75-1.2A12.44,12.44,0,0,1,255,79.33c-.2-2.45-.14-4.92-.11-7.39q.08-7.53.24-15.07a1.55,1.55,0,0,1,.44-1.07,9,9,0,0,1,2.32-1.63c1.56-.61,3.28-.79,4.71-1.74.07,0,.2-.1.25-.07,1.1.65,1.94-.46,3-.46a2.23,2.23,0,0,0,1.68-1A9,9,0,0,1,270,48c.08-.06.07-.24.13-.48-.27,0-.55-.21-.72-.13a5.57,5.57,0,0,1-2.68.24,5.7,5.7,0,0,0-1.36.13c-1.15.24-2.31.52-3.46.78-.31.07-.63.11-.93.21-1.11.38-2.21.81-3.33,1.16a6.11,6.11,0,0,1-1.25.13c0-1.22-.15-2.29-.1-3.36.1-2,.15-4,.08-6-.11-3-.08-6-.12-9.06a19,19,0,0,1,.89-6.35c.55-1.6.28-2.33-1.19-3.35a2.78,2.78,0,0,0-.7-2.56,4.37,4.37,0,0,0-.55.79c-.53,1.27-1,2.56-1.52,3.83a15.49,15.49,0,0,0-1.07,5.76c-.06,3.81.37,7.63.05,11.44,0,.09,0,.19,0,.28-.06,3-.13,5.94-.19,8.91a3.86,3.86,0,0,1-1.16,2.84,2,2,0,0,0-.39,2.63,5.75,5.75,0,0,1,.64,3.39c-.09,1.27.28,2.56,0,3.86-.09.42.15.9.12,1.35-.1,1.51,0,3-.08,4.54s.13,3,.14,4.48-.07,3.26-.1,4.89a3.74,3.74,0,0,0,.1.81c.19.89.36,1.79.6,2.67.49,1.75.67,3.56,1.71,5.17a5.6,5.6,0,0,0,3.06,2.38,12.31,12.31,0,0,0,6.35.29,7.6,7.6,0,0,0,5.57-4.62C268.89,84.31,269.11,83.51,269.42,82.75Z"/><path class="cls-2" d="M42.46,90.9A42.72,42.72,0,0,1,40,86.33c-.73-1.71-1.21-3.53-1.79-5.31-.35-1.08-.69-2.17-1-3.26-1-3.18-1.21-6.53-1.79-9.79a33.76,33.76,0,0,0-1.48-5.5,4.49,4.49,0,0,0-2-2.67,1.61,1.61,0,0,0-1.79-.12,1.65,1.65,0,0,0-.7,1.66A27.18,27.18,0,0,0,30.65,68a15.79,15.79,0,0,1,1,5.24c0,.62-.07,1.26-.05,1.88.06,1.37.23,2.73.23,4.1a13.63,13.63,0,0,1-.28,3.38c-.61,2.43-1.41,4.82-2.08,7.24a6.24,6.24,0,0,1-1.56,2.69,2.52,2.52,0,0,1-2.7.89c-1.31-.38-2.52-.9-2.8-2.48a27.37,27.37,0,0,1-.18-8.18c.27-2.22.62-4.42,1-6.62a6.11,6.11,0,0,1,.58-2.45,4.16,4.16,0,0,0,.29-1.45,4.64,4.64,0,0,1,.17-.93c.35-1,.75-1.89,1.13-2.84a16.54,16.54,0,0,1,1.83-4.1A1.77,1.77,0,0,0,26.5,62c-1.29-.68-2.37-.58-3.08.69A33.88,33.88,0,0,0,21,68.13a36.36,36.36,0,0,0-1.19,5.18c-.43,2.36-.95,4.69-1.2,7.09a52,52,0,0,0-.15,9.25c.07.94.45,1.85.59,2.79a7.61,7.61,0,0,0,2.72,5.19,6.82,6.82,0,0,0,2.69,1.43c1.79.46,4.48-.24,5.18-1.59.88-1.69,2.27-3,3-4.87s1.47-4,2.06-6c.14-.5.31-1,.46-1.49h.3c.53,1.49,1,3,1.61,4.44a25.48,25.48,0,0,0,2.27,4.33c.85,1.25,1.36,2.8,2.94,3.87a3,3,0,0,1,1.37-2c1-.67,1-1.62.33-2.64C43.47,92.3,42.9,91.64,42.46,90.9Z"/><path class="cls-2" d="M62.39,83.88c.3-2.31.74-4.62.86-6.94.18-3.73.18-7.48.21-11.22a6.94,6.94,0,0,0-1-3.79c-.35-.55-.83-1.14-1.54-.87a3.55,3.55,0,0,1-3-.16,6.14,6.14,0,0,0-1.28-.24l.67,1.44a4,4,0,0,1,.42,1c.19,1.49.38,3,.46,4.48.06,1.05,0,2.1-.07,3.15a62.86,62.86,0,0,1-.67,8.88c-.29,1.57-.47,3.16-.69,4.74-.16,1.18-.28,2.36-.46,3.53a4.12,4.12,0,0,1-.52,1c-.64-2.09-1.3-3.9-1.72-5.75-.55-2.39-1-4.81-1.34-7.23-.61-4.67-1.07-9.35-1.63-14a26.44,26.44,0,0,0-.58-2.63c-.87.19-1.55.36-2.23.49a2,2,0,0,1-.9,0c-.6-.19-1.17-.46-1.81-.72a3.58,3.58,0,0,0-.08.6c.21,2.14.43,4.27.65,6.41.16,1.59.21,3.2.49,4.77.93,5.17,1.54,10.41,3,15.48a5.88,5.88,0,0,0,1.53,3,10.71,10.71,0,0,1,2.09,2.52,3.59,3.59,0,0,0,2.42,1.82c.3.07.58.23.88.33,1.61.53,4-.45,4.47-2A27.25,27.25,0,0,0,61.68,89C62,87.32,62.16,85.6,62.39,83.88Z"/><path class="cls-2" d="M174.55,84.85c0-5.95-.05-11.9-.05-17.85a6.53,6.53,0,0,1,.3-2.3,17.91,17.91,0,0,1,3.55-5.31c.82-.9,1.77-1.7,2.65-2.55a10.69,10.69,0,0,1,6.39-3.35,3.14,3.14,0,0,0,2.52-2.22,1,1,0,0,0-.7-1.38,3.13,3.13,0,0,0-1.21-.13,26.07,26.07,0,0,0-4.44.76,16.33,16.33,0,0,0-7.34,4.38,5.29,5.29,0,0,1-2.32,1.71c-.5-2-.31-4.18-1.77-5.65a6.22,6.22,0,0,0-1.51.56,5.51,5.51,0,0,0-.91,1.19c-.76-1.09-.87-1.11-2.16-.23a13.19,13.19,0,0,1,.6,3,52.53,52.53,0,0,0,.35,5.87,9.19,9.19,0,0,1-.14,3.8c-.37,1.07-.7,2.16-1,3.24a3.73,3.73,0,0,0-.18.93c0,1.1-.07,2.19,0,3.29a3,3,0,0,0,.38,1,19.6,19.6,0,0,0-.33,2.18c0,.24.53.34.31.84a4,4,0,0,0-.33,1.69c.09,1.68.22,3.37.43,5a34.34,34.34,0,0,0,.77,4c.12.49.54,1.29.82,1.28.95,0,1.27.77,1.88,1.16.44.28.68,1,1.34.76a3.06,3.06,0,0,0,1.5-.9,4.73,4.73,0,0,0,.62-2A22.7,22.7,0,0,0,174.55,84.85Z"/><path class="cls-2" d="M289.82,73.43c-.31-1.14-.72-2.26-.92-3.41a9,9,0,0,0-2-5,1.82,1.82,0,0,1-.32-.6,19,19,0,0,1-1.05-8.36,4.33,4.33,0,0,1,.26-1c4-.67,7.06,1,9.72,3.65l.37-.19c-.15-.54-.53-1.14-.4-1.59.55-1.87-.36-3-1.66-4.12-.1-.08-.14-.25-.24-.32a12.55,12.55,0,0,0-2.71-1.76,19,19,0,0,0-4.06-.63,16.59,16.59,0,0,0-3,0,2.71,2.71,0,0,0-2.63,2A16.05,16.05,0,0,0,281,55.3c0,.36.17.75.08,1.08-.4,1.37.13,2.68.22,4a16.07,16.07,0,0,0,.43,2.28c.36,1.75,1.73,3.09,2,4.89a.35.35,0,0,0,0,.13c1.09,1.21,1.3,2.79,1.72,4.27a34.33,34.33,0,0,1,.68,3.5,24.38,24.38,0,0,1,.4,2.54c.07,1,0,2.1,0,3.15A2,2,0,0,1,284,83.37a9.63,9.63,0,0,0-1.2,0c-1.58,0-3.15.08-4.72.07a1.43,1.43,0,0,1-.88-.31,7.58,7.58,0,0,1-1.54-1.72c-.66-1.23-1.14-2.56-1.76-4-.1,0-.48,0-.59-.21-.67-1-1.5-.54-2.28-.26s-1.05.62-1,1.57a2.66,2.66,0,0,0,.24.92q1.17,2.31,2.39,4.61a1.82,1.82,0,0,0,.46.5c.91.72,1.81,1.46,2.75,2.15,1.35,1,2.68,2.07,4.56,1.42.11,0,.26.05.39.05l3,.08a3.8,3.8,0,0,1,1.21,0c1.08.41,2.06-.11,3.08-.22.69-.07,1.14-1,2-.75a5.35,5.35,0,0,0,.8-1.7A36.2,36.2,0,0,0,289.82,73.43Z"/><path class="cls-2" d="M86.6,89.49a2.08,2.08,0,0,1-1-1.53,3.49,3.49,0,0,0-.82-1.52,16.68,16.68,0,0,0-1.28-1.24c-.85-.82-1.73-1.61-2.52-2.48-.64-.71-1.16-1.53-1.75-2.28-1.74-2.22-1.76-2.29-.94-4.67a4.57,4.57,0,0,1,.55-.92c.19-.3.42-.58.6-.88.32-.55.59-1.12.93-1.66.61-1,1.25-2,1.9-2.94.37-.56.77-1.09,1.15-1.65a8.6,8.6,0,0,0,.58-.9,7.29,7.29,0,0,1,1.06-2,7.24,7.24,0,0,0,1.7-2.91c.13-.33.25-.76.51-.92a2.78,2.78,0,0,0,1.13-2,15.52,15.52,0,0,0,.55-4.3,1.76,1.76,0,0,0-.93-1.6l-.4.87-.55-1.15c-.91-.07-1,.48-1.14,1.11a12.1,12.1,0,0,1-.7,2.31c-.34.78-.89,1.46-1.24,2.23-.21.49-.11,1.11-.34,1.59a5.66,5.66,0,0,1-1,1.14A7.63,7.63,0,0,0,81,64.28c0,.17-.1.43-.21.47-.88.28-1,1.06-1.32,1.76a9.49,9.49,0,0,1-1,1.44A9,9,0,0,0,77.16,70a11.51,11.51,0,0,1-2.81,4c-.91-1.25-1.88-2.41-2.65-3.67a30.28,30.28,0,0,0-5.14-5.86,11.41,11.41,0,0,0-1.47-1c0,.54-.09.83,0,1a1,1,0,0,1-.27,1.22c-1,1.08-1,2,.15,3a21.85,21.85,0,0,1,4.35,4.9,1.52,1.52,0,0,0,.49.64,2.71,2.71,0,0,1,1.26,1.86,6.11,6.11,0,0,0,.45.83c.24.47.47,1,.63,1.29a28,28,0,0,0-2.07,3.12c-.36.73-.82,1.39-1.21,2.08a9.32,9.32,0,0,0-1.18,5,10.23,10.23,0,0,1,.06,2.71,5.11,5.11,0,0,0,0,1.29l.3.08c.19-.27.36-.55.57-.8s.63-.92,1.07-1.14a2.86,2.86,0,0,0,1.61-2.79,2.3,2.3,0,0,1,.38-1.4,41.4,41.4,0,0,0,2.17-3.54,1.85,1.85,0,0,1,1.39-1.12l-.34.35a10.78,10.78,0,0,1,1.51,1,17.66,17.66,0,0,1,1.81,2.5,52.77,52.77,0,0,0,4.61,4.85,4.52,4.52,0,0,0,2.84,1.51,1.31,1.31,0,0,0,1.45-.78A1.26,1.26,0,0,0,86.6,89.49Z"/><path class="cls-2" d="M196.15,78.53c0-2.23-.06-4.47-.05-6.71,0-3.74.09-7.49.1-11.24a13.71,13.71,0,0,0-.25-2.86,4.29,4.29,0,0,0-.94-1.91c-.38-.41-1.09-.51-1.92-.85a5,5,0,0,0-.73,1.67,27.23,27.23,0,0,0,.3,3c.1,1.22.2,2.44.19,3.65,0,2.46-.15,4.92-.21,7.38-.07,3.24-.13,6.49-.18,9.73,0,1.6,0,3.19,0,4.83l-1,.61a7.63,7.63,0,0,0,.7,1.29,4.23,4.23,0,0,1,.69,2.84c0,.25,0,.49,0,.8.66,0,1.05-.26,1.06-.8a1.79,1.79,0,0,1,1.1-1.6,1.76,1.76,0,0,0,1-1.56C196,84,196.12,81.28,196.15,78.53Z"/><path class="cls-2" d="M193,41.29c.81.69.7,1.5.79,2.33.07.56.16,1.12.23,1.68a1.88,1.88,0,0,0,.44-.07c.07,0,.17-.12.18-.19a6.52,6.52,0,0,1,1.61-2.92,1.47,1.47,0,0,0,.24-.63,2.94,2.94,0,0,1,.78-1.85,2.09,2.09,0,0,0,.52-1.1,6.89,6.89,0,0,1,1-2.65,1.91,1.91,0,0,0-.89-2.28c-2-.55-3.4.43-3.95,2.42a11.92,11.92,0,0,1-.82,2.86C192.75,39.56,192.17,40.6,193,41.29Z"/></g></g></g></svg>