<svg xmlns="http://www.w3.org/2000/svg" viewBox="0 0 305.96 122.19"><g id="Calque_2" data-name="Calque 2"><g id="P1_m6_1"><path d="M304.74,57.78a3.88,3.88,0,0,0-.63-1.29,4.43,4.43,0,0,0-1.34-.59l-.24.61c-.26,0-.59-.17-.69-.07a4.71,4.71,0,0,0-1,1.23c-.62,1.17-1.11,2.4-1.74,3.56-.43.79-1,1.48-1.53,2.24-.2.31-.26.71-.46,1-.31.48-.7.9-1,1.37-.8,1.27-1.57,2.56-2.37,3.82-.44.71-.93,1.39-1.39,2.08-.57.84-1.17,1.67-1.71,2.54-.17.29-.13.71-.32,1-.66,1-1.35,1.9-2.07,2.81s-.58,2-1.63,2.45c-.12,0-.16.3-.22.46a6.51,6.51,0,0,1-2,3.35c-.19.14-.22.52-.27.81a6,6,0,0,0,0,.83l-.65.25-.28,1.58-.24,0,.3-1c-.4.19-.7.24-.85.41-.9,1.07-1.78,2.17-2.66,3.26a1,1,0,0,1-.32.3c-.48.23-.7.56-.32,1.15-1.44,0-1.94,1.24-2.8,2-.06,0,.06.3.08.39-.43.29-1,.62-1.45,1A10.16,10.16,0,0,0,274,96c-.33.31-1.09.36-.65,1a19.17,19.17,0,0,0-4.45,3,1.64,1.64,0,0,1,.25-1.89.65.65,0,0,0,.07-.21c.34-1.46.73-2.92,1-4.4a28.58,28.58,0,0,1,2.51-6.91c.28-.6.7-1.13,1-1.71.61-1.13,1.2-2.28,1.78-3.43.31-.6.59-1.22.87-1.84a4.21,4.21,0,0,0,.48-1.12c.13-.83.15-1.66.23-2.49a.57.57,0,0,0-.57-.7c-.43,0-.76-.21-.78-.73a.48.48,0,0,0-.33-.36,10.31,10.31,0,0,0-1.26,0l0,.47c-.72-.83-1.2-.52-1.58.18a.24.24,0,0,1-.11.09,3.11,3.11,0,0,0-1.42,2.31c-.27,1.23-1.19,2-1.5,3.14a6.15,6.15,0,0,1-.32.76c-.29.65-.55,1.31-.87,1.94-.15.31-.45.56-.61.87a6.26,6.26,0,0,1-1.09,2,.85.85,0,0,0-.21.68c.19.72,0,1-.74.71a1.68,1.68,0,0,1-1.36,2c-.36,1.11-1.34,1.64-1.9,2.47s-1.39,1.78-2.12,2.69l-.44-.37a3.39,3.39,0,0,0,.07-2.24c-.06-.22.1-.49.17-.74a2.12,2.12,0,0,0,.14-.4,12.46,12.46,0,0,1,1-4.5A16.58,16.58,0,0,1,262.53,83a25.69,25.69,0,0,0,1.55-2.94c.83-1.65,1.67-3.29,2.45-5,.26-.58.48-1.25-.06-1.75a12.18,12.18,0,0,0,.5-1.22c.15-.52.22-1-.51-1.22-.57-.15-.34-.58-.16-.88.51-.85.49-1-.48-1.27l-.44-.2c.08-.26.16-.49.27-.82l-1,.09c.36-1.07-1.24-.19-1.07-1.19l1-.19-1.19-.63v.24l-.88.06.35-.4a9.14,9.14,0,0,1-1.24-.49,2.37,2.37,0,0,0-2.67.18,5.1,5.1,0,0,1-.94.36,10.69,10.69,0,0,0-.92.82,5.15,5.15,0,0,0-.53.81c-.28.11-.76.32-1.27.49-.35.12-.81.06-1.09.26a33.94,33.94,0,0,0-2.72,2.2c-.5.44-.81,1.1-1.31,1.53-.68.59-.81.82-.45,1.5L249,74a4.34,4.34,0,0,0-.49-.35s-.19.13-.18.18c.1.52-.39.73-.62.93a4.59,4.59,0,0,0-1.5,2.83c0,.18,0,.47-.13.51-.58.26-.4.73-.43,1.18,0,.28-.24.55-.34.84s-.35.9-.28.93c.8.46.21,1,.17,1.54a4.17,4.17,0,0,1-.24.81c-.57-.21-.65.19-.62.66s.1.82.16,1.22c0,.14.12.28.09.4a7.84,7.84,0,0,1-.49,1.51,1.52,1.52,0,0,1-.78.78,6.14,6.14,0,0,1-1.49,0c-1.06,0-2.11.08-3.17.08a3.11,3.11,0,0,1-2.38-.93,1.38,1.38,0,0,1-.25-1.72,2,2,0,0,0,0-2.1,13.42,13.42,0,0,0,.17-1.61c0-.39-.27-.78-.22-1.15a10,10,0,0,1,.51-2.24c.33-.86.19-2,1.35-2.43a.76.76,0,0,0,.43-1.19c.56-.68,1.67-.79,1.7-1.88,0,0,.07-.06.1-.1a5.23,5.23,0,0,0,1.91-2.85c0-.1.21-.19.33-.27a3.07,3.07,0,0,0,.67-.43,7,7,0,0,0,1.78-3,1,1,0,0,1,.22-.38,13.25,13.25,0,0,0,1.4-1.71c.88-1.54,1.68-3.12,2.48-4.7.21-.4.26-.88.47-1.28.61-1.19,1.37-2.32,1.88-3.55s1-2.83,1.39-4.25a26,26,0,0,0,.87-2.94,24.86,24.86,0,0,0,.3-3.23c.07-1.3.17-2.63-1.43-3.2a3.81,3.81,0,0,1-.53-.27l.33-.23c-1.4-1-3.16-1-3.81.11l-.61-.22c-.43.58-.86,1.14-1.27,1.73-.31.43-.59.89-.88,1.34,0,.17-.24.21-.36.34a5.87,5.87,0,0,0-1,1.2c-.18.34-.3.82.38.92a3,3,0,0,1,.78.4l-1.51.34c.1-.37.15-.55.2-.76-.6.07-1.44,1.33-1.39,1.92-.23.07-.61.09-.64.19-.21.83-1.33.95-1.4,1.9,0,.22-.39.4-.54.64a5,5,0,0,0-.48.92,4.48,4.48,0,0,1-.23.76c-.7,1-1.38,2.09-2.15,3.07-.37.49-.28.75.15,1-.2.28-.34.69-.57.74-.53.13-.33.53-.44.82l-1,2.41a5.12,5.12,0,0,0-.45,1.09c-.08.49.14,1.08-.06,1.49-.32.66-.68,1.32-1,1.93a1.37,1.37,0,0,0-.12,1.44,1.15,1.15,0,0,1-.15,1.35,1.5,1.5,0,0,0-.34,1.57,1.83,1.83,0,0,1-.25,1.79c-.05.06,0,.17,0,.26-.71.13-.88.35-.67,1.08.15.51.26.87-.29,1.26-.19.14-.08.71-.11,1.08l.66,0-3.94,5,.53.05.11.23c-1.55-.28-1.94,1.26-3,1.69,0,0,0,.09-.07.13-.25.35-.38.82-.93.85a.4.4,0,0,0-.25.24c-.17.8-.16.8-1,.75a2.28,2.28,0,0,0-.51.09v.18h1.15l-1.46.41c-1.07,0-.88-1-1.16-1.63a.74.74,0,0,1,.07-.4,5.3,5.3,0,0,0,.3-.93,40.74,40.74,0,0,1,.5-4.44c.58-2.56,1.37-5.07,2.05-7.6a3.24,3.24,0,0,0,.24-2.13c-.1-.24.17-.63.3-1s.22-.37.29-.57c.43-1.28.83-2.58,1.27-3.86.13-.37.43-.69.55-1.06a10.36,10.36,0,0,0,.23-1.44l-.85-.18v-.21h.71c0-.46-.06-.88-.1-1.34l.71-.07-.5-.37h.22c.1-.42.43-1,.27-1.23s-.16-.52,0-.8a1.84,1.84,0,0,0-.84-2.22,2.73,2.73,0,0,1-.83-.57c-.36-.34-.68-.69-1.24-.43-.28.12-.59.18-.91.28-.06-.19-.12-.38-.19-.58l-4.62,4c0-.49-.18-.85-.07-1.09a20,20,0,0,1,1.12-1.72c-.57,0-.64-.2-.41-.61a7.18,7.18,0,0,0,.46-1.16c.13-.4.22-.8.33-1.21.07-.17-.12-.45,0-.59.22-.45.19-1,.36-1.35.43-.81-.17-1.42-.14-2.13a3.77,3.77,0,0,1,.31-1.94l-.39-.25c.24-.42-.07-.71-.26-1a9.69,9.69,0,0,0-1.07-1.25c-.54-.53-1-.36-1.47.18a.32.32,0,0,1-.12.08,3,3,0,0,0-2.25,1.1A10.12,10.12,0,0,1,214.35,44l.31.74a4.32,4.32,0,0,0-.72.11,2.42,2.42,0,0,0-.84.4A16.45,16.45,0,0,0,212,46.63c-.61.67-1.44,1.16-2.12,1.83-.93.92-2.16,1.53-2.62,2.88,0,.1-.22.16-.34.22a3.43,3.43,0,0,0-.63.33,5.59,5.59,0,0,0-1.18,1.54c-.34.53-.66,1.33-1.54,1.43-.22,0-.41.33-.59.53s-.07.32-.18.41c-.82.72-1.69,1.41-2.49,2.16-.24.23-.62.51-.37,1,.07.13-.1.38-.18.6l-.59-.4c-.62.49-1.23.92-1.78,1.43a5.06,5.06,0,0,0-.56.9c-.24.34-.59,1-.75.92-.92-.25-1.13.73-1.84.81l.34.37-1.07.38,0,.16h.3l-4.35,3.35c.61.8.58,1-.07,1.18l-.1-.43c-.46.06-.22,1.07-.93.54l-.29.75c.26.3.5.59.8,1l-.84.11.26.57-.55.31.93.43-.42.18c.33.47.61,1,1.24.31l-.28.9,1.85-.25c.39-.42,1.18-.85,1.29-1.78,0-.08.21-.22.28-.19.78.21,1-.47,1.4-.85.23-.22.49-.42.72-.65s.75-.61.81-1c.12-.74,0-.77.77-.62a.24.24,0,0,0,.2,0c.57-.5,1.14-1,1.68-1.52a.58.58,0,0,0,.13-.44c-.09-.54.31-1.46.8-1.54s.45-.43.32-.6c-.54-.7,0-.77.47-.89a5.08,5.08,0,0,1,.95-.15c.57-.05.81-.22.34-.7a16.84,16.84,0,0,1,1.83-.35c.56,0,.84-.19.68-.63a11.36,11.36,0,0,0,1.51-1c1.21-1.18,2.32-2.45,3.56-3.59.92-.85,1.33-2.1,2.59-2.74s1.69-2.13,3-2.74c.06,0,.09-.12.12-.18.33-.58.46-1.34,1.33-1.41.09,0,.17-.13.4-.34a7.35,7.35,0,0,1,.14,2.28,3.44,3.44,0,0,0-.21,1.2l-.29-.42c-.31.4-.23,1,.22,1.79-.95.21-1.55.86-1.39,1.5l.68-.25c-.31.47-.13,1.06-.73,1.23-.06,0-.11.28-.07.4.28.92.28.94-.31,1a3.81,3.81,0,0,0-1.16,3.24l-.55,0,.32.8c-.4.12-.52.45-.69.8a16.44,16.44,0,0,0-1.15,2.08c-.21.72-.43,1.17-1.05,1.1-.3.32-.47.68-.7.73-.55.12-.6.45-.52.86.24,1.16.48,2.32.79,3.47a.78.78,0,0,1-.39,1,1.49,1.49,0,0,0-.48.6,11.11,11.11,0,0,0-.41,1.29s.18.27.42.67c-.31.23-.81.42-.92.74-.18.52-.64,1.09-.14,1.7.05,0,0,.29-.09.33-.67.37-.69,1.11-.95,1.7s-.78,1.27-.19,2c.09.11-.1.49-.24.7s-.54.51-.67.82A8.66,8.66,0,0,0,205.2,84c-.08.35-.17.7-.26,1-.15.52-.38,1-.54,1.58s-.21,1-.33,1.51c-.24,1-.53,2-.75,3-.1.45,0,1-.15,1.39-.27.81-.71,1.57-1,2.39s-.38,1.66-.57,2.55c.86.41.13.68-.36,1l.38,0a9.91,9.91,0,0,1-.39,1,3.84,3.84,0,0,0-.71,2.62,1.55,1.55,0,0,1-.27,1.15c-.3.38-.32.61,0,.93l-.61.64.54.27-1.08,1.28c.65.26.55.62.25,1l.47.29-1.12.54.92.13a6.13,6.13,0,0,1-.93,1c-.5.35-.71.67-.33,1a5.09,5.09,0,0,0,0,1,6.55,6.55,0,0,0,.35.93c.17.44-.21.54-.45.74a.7.7,0,0,0-.2.38c-.2.78-.37,1.57-1.48,1.65.4.59.21.91-.27,1.15-.14.06-.32.29-.29.4.22.85-.58,1.76.17,2.61.13.15,0,.55,0,.83s-.11.39,0,.5c.33.54.63,1.18,1.36.93a3,3,0,0,0,.24.66s.26,0,.37,0c.59-.23,1.16-.49,1.65-.7l1.05-2.42a5.66,5.66,0,0,1,0-1.17c.27-1.13.6-2.25.9-3.37a3,3,0,0,1,.15-.38c.07-.2.15-.39.24-.59s.27-.41.22-.49a1.06,1.06,0,0,0-.53-.3,2.45,2.45,0,0,0-.55-.07c.54-.86,1.88-1.17,1.5-2.3.18-.22.37-.36.43-.54.23-.69.38-1.41.63-2.1.13-.38.42-.7.58-1.07a3.36,3.36,0,0,0,.15-.84c.05-.31.1-.63.13-1,0-.13,0-.28,0-.4.17-.4.39-.78.56-1.18a17.56,17.56,0,0,0,.71-1.82,6,6,0,0,0,.1-1.2c-.07-.19-.25-.58-.21-.61a1.59,1.59,0,0,0,.69-1.35,12.29,12.29,0,0,1,.58-1.6c.07-.22-.13-.53,0-.71a3.86,3.86,0,0,0,.53-2.51,1.27,1.27,0,0,1,.21-1c1-1,.72-2.47,1.11-3.68a4.8,4.8,0,0,0,.39-1.12c0-.76.55-1.41.44-2.2,0-.13.17-.28.24-.43a2.46,2.46,0,0,0,.14-.38c.2-.83.45-1.66.59-2.51s1.13-1.15.66-1.88c.24-.61.47-1.08.61-1.58.19-.66.06-1.41.61-2,0,0,0-.13,0-.18-.4-.72.08-1.26.34-1.87s.36-1.12.58-1.66a6.41,6.41,0,0,1,1-2.19,6.15,6.15,0,0,0,1.31-3,6.14,6.14,0,0,1,1.66-2.75c.45-.47,1-.88,1.44-1.32.29-.27.57-.55.85-.84s.55-.57.83-.88l-.27-.13c.28-.19.81-.41.81-.6,0-1.05.85-1.22,1.32-1.72.18.6.33,1.12.48,1.65l-.49-.1c.35.55.19.83-.3,1-.11,0-.21.25-.23.39,0,.49-.07,1-.11,1.54-.5,0-.6.45-.62,1s0,1.26-.13,1.3c-.62.17-.58.73-.83,1.09-.15.21-.06.57-.15.84-.27.78-.64,1.53-.86,2.31-.38,1.38-.71,2.77-1,4.17a37.17,37.17,0,0,0-.82,4.41c-.13,1.35.08,2.73,0,4.09s.68,2.62,1.06,4c.08-.24.15-.43.22-.67.4.33,1,.5.5,1.16,0,0,0,.08,0,.11l.71,1.18.93-.11,0-.29c.48.11.91.23,1.36.29a2.63,2.63,0,0,0,1,0c1-.28,2-.63,3-1l-.48-.71c.38-.2.92-.3,1-.55.19-.56.55-.44.9-.43a2.93,2.93,0,0,0,2.76-2.19l.82-.11c0,1.35.67,2.53.67,3.93a3.55,3.55,0,0,0,1.3,2.95l-.26.53a2.53,2.53,0,0,1,.49.14,2,2,0,0,1,.49.32c.09.08.12.29.21.31a26.42,26.42,0,0,0,4.38.91,5.81,5.81,0,0,0,.59,0c1.28-.07,2.57-.12,3.85-.22.34,0,.67-.22,1-.24a16.84,16.84,0,0,1,1.74,0s.05.11.06.14A5.69,5.69,0,0,0,247,93a6,6,0,0,0,1.25-.22l.05.22-.45.13v.2c.86.38,1.67-.45,2.52-.27a2.82,2.82,0,0,0,2.49-1c.69-.6,1.41-1.17,2.21-1.82.09.55.19,1,.22,1.4,0,.21-.19.43-.19.65,0,1.5,0,3,0,4.49a3.4,3.4,0,0,0,.1,1c.29.93.64,1.84,1,2.76l1.14.36-.45.6c1,.11,1.79.24,2.62.27a1.51,1.51,0,0,0,1.08-.3,10.57,10.57,0,0,0,1-1.84c.11.36.17.58.3,1A8.44,8.44,0,0,0,263,99.06c.23-.63.72-1.09,1.36-.93a.42.42,0,0,1,.26.28c0,.09-.12.23-.23.3a1.45,1.45,0,0,1-.37.11V99l.88.09a4.48,4.48,0,0,1-.61.86,1.2,1.2,0,0,0-.37,1.36,12.27,12.27,0,0,1,1,2.94c0,.13.25.26.4.35a3.84,3.84,0,0,0,2.23.49,7.83,7.83,0,0,0,4.26-.86c.87-.56,1.68-1.22,2.51-1.86.14-.11.32-.35.29-.48-.19-.86.52-.7.92-.87l1.14-.47-1.15-.15a7.54,7.54,0,0,0,1.86-.7A14.68,14.68,0,0,0,279,98c.32-.32.68-.6,1.07-1a14.55,14.55,0,0,1,.08,1.63,11.28,11.28,0,0,1-.29,1.25q-.22,1.27-.42,2.55c0,.09.1.21.07.3a8.23,8.23,0,0,0-.37,1.44c-.05,1.76,0,3.53-.07,5.29a8.85,8.85,0,0,0,.8,3.34c.13.38.24.76.38,1.19l2.8.66-.18.52h.2c1.3-.07,2.52-.85,3.89-.46.12,0,.3-.13.45-.2a11.89,11.89,0,0,0,1.23-.64,1.3,1.3,0,0,0,.59-.62A1.79,1.79,0,0,1,291,111.6a4.27,4.27,0,0,0,1.47-.58,23.16,23.16,0,0,1,1.93-1.39,15.83,15.83,0,0,0,1.88-1.54c.54-.4,1.15-.72,1.71-1.07a1.83,1.83,0,0,1,1.06-2.08c-.12-.85-.83-.71-1.37-.86-.19,0-.51-.26-.49-.3a11,11,0,0,1,.54-1.2,16.34,16.34,0,0,1-1.74.48c-.47.06-.91.43-1.42.17,0,0-.09,0-.12.08a6.1,6.1,0,0,1-2.27,1.65c-.35.16-.56.6-.88.85-.76.59-1.58,1.1-2.32,1.71s-.84,1.08-.28,2h-.29c-.69,0-1.38-.06-2.07-.07-.12,0-.36.17-.35.21.18.86-.58.62-.93.78-.57.26-.89.06-.85-.63,0-.18-.18-.37-.23-.56a2.33,2.33,0,0,1-.07-.74c.08-.6.24-1.19.3-1.79.15-1.6-.37-3.24.3-4.82a3.78,3.78,0,0,0,0-1.22c0-.23-.09-.52,0-.69a5.18,5.18,0,0,0,.58-3.94,1.59,1.59,0,0,1-.5,0,.79.79,0,0,1-.42-.31c0-.08.1-.31.21-.4.27-.22.58-.41.87-.61L285,94l.33-.21c.68-.48,1.83-.61,1.41-1.91a.39.39,0,0,1,.18-.31c.84-.43.91-1.2,1-2a2.57,2.57,0,0,1,.43-.94c.27-.47.58-.91.84-1.37s.54-1,.8-1.49a1.59,1.59,0,0,0,.21-.53,1,1,0,0,1,1.46-.69,1.5,1.5,0,0,0,.5.18c.56.06,1.23-.58,1.66.28,0,0,.09,0,.14,0l2.07.19c.08,0,.22-.06.24,0,.62.89,1.69.91,2.55,1.32a1.17,1.17,0,0,0,.69,0s0-.33,0-.46a4.51,4.51,0,0,0,.68-.17,4.41,4.41,0,0,0,.65-.37c-.09-.16-.19-.31-.33-.56l1.27-.17-.38-.57c.38-.22.54-.48,0-.84-.15-.11-.21-.34-.35-.47a6.27,6.27,0,0,0-.73-.5,1.35,1.35,0,0,0-.22-.12l.6-.37-1.77-.4a3.11,3.11,0,0,1-.54-.18,7.92,7.92,0,0,0-1.11-.51c-1.1-.27-2.22-.53-3.34-.71-.65-.1-.61-.38-.37-.79.64-1.08,1.27-2.17,2-3.21.42-.65,1-1.2,1.41-1.86.8-1.27,1.54-2.58,2.31-3.87.25-.43.49-.87.76-1.28.56-.87,1.13-1.74,1.71-2.6.43-.62.86-1.24,1.31-1.86a5.1,5.1,0,0,0,.59-.73c.58-1.23,1.18-2.46,1.67-3.74a23.85,23.85,0,0,0,.66-2.78Zm-66,7.37c.22-.65.39-1.13.56-1.61,0-.09.06-.18.1-.27.67-1.56,1.32-3.14,2-4.68s1.35-2.87,2.12-4.24a21.29,21.29,0,0,1,1.63-2.21,2.47,2.47,0,0,0,.19-.36,3.22,3.22,0,0,1,.44-.89c.56-.49.59-.45.48-1.2l1.28-.76.23.1c-.07.29-.12.58-.2.86-.14.48-.28,1-.43,1.43-.07.23-.17.45-.24.68-.11.39-.19.79-.3,1.18a2.52,2.52,0,0,1-.24.59,7.91,7.91,0,0,0-.66,1.11c-.18.5,0,1.19-.77,1.35-.05,0-.11.18-.11.27a2.79,2.79,0,0,1-.95,1.87,12.45,12.45,0,0,0-1.23,2.28,5.87,5.87,0,0,1-.78,1.39c-.56.58-.45,1.11-.08,1.8-.64-.13-1.1-.14-1.32.58-.11.36-.54.61-.83.91-.83.83-.87,1-.43,2.06h-1.18C238.45,66.59,239.09,65.87,238.74,65.15Zm19.79,13.74c-1,1.33-2.73,1.83-3.88,3-.15.16-.43.2-.64.32s-.53.23-.58.4c-.18.7-.75.77-1.28.93-.21.06-.53.07-.61.21-.46.78-1.32.78-2.25,1.16.19-1.13.32-2.16.56-3.15s.58-2.05.89-3.07a1.08,1.08,0,0,1,.21-.28,2.33,2.33,0,0,0,.73-1.35,2.32,2.32,0,0,1,.87-1.21c.51-.46,1.13-.8,1.68-1.22.94-.71,1.87-1.43,2.79-2.18.35-.29.64-.67,1-1a1.05,1.05,0,0,1,.37-.25c.17-.08.42-.07.53-.2a4.08,4.08,0,0,1,2.57-1.31,3.24,3.24,0,0,1,.61.48c.09.12.12.45.05.5-.86.53-.52,1.33-.58,2.06a8,8,0,0,0-.48,1,25.27,25.27,0,0,1-.91,2.79A13.08,13.08,0,0,1,258.53,78.89Z"/><path d="M245.78,92.63h0S245.78,92.65,245.78,92.63Z"/><path d="M177.88,35.79c0-.36-.21-.71-.23-1.06-.06-.94,0-1.89-.14-2.82-.06-.56-.51-.87-1.18-.9l.6-.51a2.48,2.48,0,0,0-.58-.3c-.45-.06-.92-.08-1.54-.12l-2.49,2.34c.55.51.38.95-.39,1.49-.14.7-.23,1.18-.33,1.65a3.16,3.16,0,0,1-.16.43c-.13.32-.25.64-.38,1l-.57,1c.44.43.34.89-.27,1.27-.07,0-.16.17-.14.21.23.51-.17.74-.43,1.06s-.33.57-.26.63c.42.43,0,.86-.17.95a1.31,1.31,0,0,0-.5,1.29,2.67,2.67,0,0,1-.79,2.28,1,1,0,0,0-.31.94,2.56,2.56,0,0,1-.33,1.32c-.33.66-.81,1.24-1.11,1.92s-1.13.77-1.13,1.76c0,.71-.81,1.43-1.28,2.17.43.54.36,1.16-.38,1.64s-1,1.45-1.69,2c-.15.12-.16.42-.24.63a2.24,2.24,0,0,1-.31.72c-.41.46-.88.85-1.31,1.29-.1.1-.22.28-.18.37.19.57-.31.7-.58,1-.1.1-.3.14-.34.25a4.08,4.08,0,0,1-2.11,2.06.92.92,0,0,1-.81,0,3.53,3.53,0,0,1-1.16-3.54.85.85,0,0,0,.05-.35c-.09-.81-.21-1.62-.27-2.43a6.11,6.11,0,0,1,0-2.59,3.47,3.47,0,0,0-.06-2.38c.75-.16,1.1-.55.89-1.36,0-.2.2-.5.38-.71.35-.42.7-.8.35-1.4a.78.78,0,0,1,0-.6,9.52,9.52,0,0,1,.52-1.07l-.15-.12c.07-.62.08-1.09.18-1.55s.3-.93.49-1.48l-.46-.5c1.08-.59.53-1.74.91-2.62a4,4,0,0,0-.33-2.56c-.15-.41-.83-.61-1.25-.89l-.16.44-.5-.56.25-.48c-.63.27-1.28.29-1.42,1,0,.06-.09.12-.15.15A2.12,2.12,0,0,0,152.54,40a3.58,3.58,0,0,0-.06,1.41,1.42,1.42,0,0,1-.21,1.35l-.24.45.52.31-1.13.45c.43.47.48.84.07,1.27a1.24,1.24,0,0,0-.28.7c0,.42.17.92,0,1.25a20.55,20.55,0,0,1-1.44,2.14l.44.27c-.45.53-.86,1-1.3,1.5l.18.29c-.92,1-1.82,2-2.68,3-.65.75-1.24,1.54-1.86,2.32-.3.37-.5.42-.72-.1s-.5-.73-.67-1.13a1.52,1.52,0,0,1,0-.79c.06-.36.2-.69.27-1s0-.68,0-.69c.73-.17.39-.71.34-1.06-.09-.58-.57-1.16.21-1.64.06,0,0-.27,0-.41.33-1.6,0-3.33,1-4.8a.46.46,0,0,0,.08-.35c-.3-.66.24-1.1.4-1.65s.3-1.06.46-1.59c.05-.16.13-.31.19-.46l.45-1c.42-.35.82-.71.49-1.44a.4.4,0,0,1,.05-.35c.53-.29.56-.76.65-1.3.14-.79.32-1.56.41-2.37a2.33,2.33,0,0,0-.48-1.79,5.08,5.08,0,0,0-1.5-1c-.1,0-.32,0-.35-.06-.31-.64-.82-.29-1.06-.08a16.66,16.66,0,0,0-1.51,1.74c-.34.42-.64.87-1,1.3s-.91.52-.4,1.27c-.6-.42-1.07-.74-1.51-1.08a1.46,1.46,0,0,1-.43-.53,2.37,2.37,0,0,0-2.14-1.06c-.25.05-.55-.16-.83-.24l.06-.16-1.28.45c0-.86-.41-1.18-1.16-1.21a3.76,3.76,0,0,1-1.77-.25c-1-.64-2.11.6-3.06-.21a.13.13,0,0,0-.07,0,12.13,12.13,0,0,0-1.64,1c-.9.73-1.73,1.55-2.48,2.23l-1.5-.53-.37-.86a5.92,5.92,0,0,1-4,1.19,8.33,8.33,0,0,0-1.8,0,2,2,0,0,1-1.85-.39c-.13-.12-.36-.11-.44-.14-.14-.26-.21-.6-.4-.7a14.06,14.06,0,0,0-1.7-.69c-.29-.11-.66-.1-.89-.27a.86.86,0,0,0-1.14,0l-2.44,1.65a1.84,1.84,0,0,1,.18.56c0,1.18.77,2,1.28,3,.18.35.71.44.86.88,0,0,.27,0,.4,0,.36-.14.58,0,.88.24.68.59.7,1.43,1,2.16,0,.09-.06.23-.07.35a9.72,9.72,0,0,0-.12,1.42c0,.65.48,1.32-.18,1.92-.06,0,0,.28,0,.4a.62.62,0,0,1-.38,1c.13.68.26,1.3.39,2-1,.26-.53,1.6-1.31,2.17.34.87.29,1.07-.54,1.64-.22.15-.66.28-.65.41,0,.93-.84.79-1.24,1.17a5.68,5.68,0,0,1-2.5-2.86c-.18-.35-.29-1.11-1.16-.67-.18-.62-.35-1.21-.54-1.8s-.48-1.36-.67-2.06a6,6,0,0,1-.3-1.66,15,15,0,0,1,.3-1.86c.17-1.19-.12-2.39.07-3.61a16.72,16.72,0,0,0,0-3c0-.61,0-1.22,0-1.83,0-1.11-.93-2.06-.55-3.24,0-.07-.23-.25-.37-.34a2.12,2.12,0,0,0-.45-.12v-.14l1.29-.22-.61-.46V28.27l.6-.78-1.14-.19,0-.17.8-.09c-.08-.27-.16-.55-.28-.93.39-.65.33-.76-.82-1.22l.63-.53c-.15-.18-.24-.4-.39-.47-.78-.36-1.73-.32-2.36-1a.23.23,0,0,0-.21,0,6.68,6.68,0,0,0-1.63,1.26,3.53,3.53,0,0,1-.83,1,9.35,9.35,0,0,1-.84.46c.09.31.27.61.19.74a2.38,2.38,0,0,1-.7.49c.72.55-.36.47-.34.61.18.33.41.58.35.69a7,7,0,0,1-1,1.69,1.62,1.62,0,0,0-.43,1,3.72,3.72,0,0,1-.61,1.4c-.33.49-.79.9-1.17,1.36a2.31,2.31,0,0,0-.23.52l.25.12c-.77,1.09-1.08,2.43-2,3.38-.11.3-.2.74-.44.84-.71.29-1.06.64-.55,1.44-.78.35-1.65.62-1.11,1.7l-.53.28.29.55c-.22.8-1.5.7-1.29,1.77,0,0-.2.08-.31.12l.2.06a3.14,3.14,0,0,1-.2,1c-.2.34-.65.55-.79.89s-.08,1-.23,1.47a14.31,14.31,0,0,1-.75,1.71,3.52,3.52,0,0,0-.25.71c-.05.21-.15.47-.07.63.25.49.11.78-.48.93l.3,2.76,1-.65c-.28.49-.65,1-.58,1a4.94,4.94,0,0,0,1,.72c.21-.21.32-.39.39-.37a2.39,2.39,0,0,1,.6.25c.86.45,1.42.22,1.7-.69.08-.28.1-.74.27-.8.79-.29.5-.89.51-1.42,0-.33-.08-.77.1-1A6.11,6.11,0,0,0,91.58,49a4.08,4.08,0,0,1,.54-.84,1.4,1.4,0,0,1,0-.5c.27-.69.57-1.37.89-2s.55-1,.84-1.53c.62-1.08,1.45-2.07,1.52-3.36.22-.12.6-.25.6-.35-.05-.74.68-1,.87-1.57a6.83,6.83,0,0,1,.17-.81c.53-1,1.18-1.93,1.61-3,.27-.65.76-1.06,1.13-1.76-.05.63-.1,1.09-.11,1.55,0,.21.21.52.12.63-.57.72.69,1.58-.2,2.24.19.73-.26,1.52.23,2.24.09.12-.08.4-.1.62a9.57,9.57,0,0,0,0,1.07c0,.17.11.32.12.49,0,.79.06,1.58.13,2.37a11.89,11.89,0,0,0,.72,4.22A19.2,19.2,0,0,0,102,50.9c.07.11.28.13.46.21l-.44.22c.52,1,1,2,1.56,2.9a23.18,23.18,0,0,0,2.09,2.65,1.22,1.22,0,0,0,1,.39c.4-.16.42,0,.6.24a1.78,1.78,0,0,0,.83.61,10,10,0,0,0,1.73,0,1.2,1.2,0,0,0,.06.28l2.08-.18,0-.27h-.65l-.06-.26c.39-.1.77-.19,1.15-.3a2.3,2.3,0,0,0,.74-.24,3.57,3.57,0,0,0,.55-.61c.44-.47.9-.93,1.32-1.42.08-.09,0-.28,0-.43.05-.33.1-.67.12-.84.75-.61,1.4-1.13,1.4-2.11.08.43.52.08.7.17v2a10.78,10.78,0,0,0,.77,1.83c.87,1.42,1.81,2.79,2.76,4.14a5.37,5.37,0,0,0,3.54,2,22,22,0,0,0,4.14.08c.22,0,.44-.1.65-.08a8,8,0,0,0,3.35-.62c.13-.39.14-.68.29-.81a.82.82,0,0,1,.64,0,.93.93,0,0,0,1.21-.42,1.27,1.27,0,0,1,.41-.35c.94-.61,1.9-1.19,2.81-1.85.37-.27.7-.43,1,0,.13.17,0,.56,0,.84a5.33,5.33,0,0,0,.37,1.49c.44,1.25.7,2.65,2.53,2.59.94,0,1.87.15,2.81.13.29,0,.8-.3.83-.51.11-.82.48-1.23,1.3-1.22a2,2,0,0,0,1.77-1.29c.28-.58.73-.53.94-.76v1.83l.16,0a7.19,7.19,0,0,0,.29,1.75,25.49,25.49,0,0,0,1.92,3.84c.71,1.06,1.52,2.26,3.2,1.84.09.61.44.68.95.54.78-.23,1.65-.07,2.39-.54a6.29,6.29,0,0,1,1.07-.49c1.67-.59,2.27-2.12,3.23-3.34.06-.07-.05-.29-.06-.32.42-.19,1-.24,1.13-.52.39-.71.87-.68,1.48-.47a1.72,1.72,0,0,0,.56,0c1.1,0,2.21-.16,3.3-.09a10.61,10.61,0,0,0,4-.8,2,2,0,0,0,1.07-.72,3.91,3.91,0,0,1,1.5-1.57c.05,0,0-.19,0-.28.09-.32.19-.63.27-.95a6.76,6.76,0,0,0,.5-2.21c-.14-1.07.64-2.12,0-3.16a.44.44,0,0,1,0-.2c0-.45.05-.91.08-1.36,0-.18,0-.45.08-.54.68-.64.28-1.5.48-2.24a17.16,17.16,0,0,0,.2-3.38c0-.61.13-1.23.18-1.69.18-.87.4-1.59.48-2.33s0-1.68,0-2.53.07-1.59.11-2.38C177.88,36.49,177.92,36.13,177.88,35.79ZM120.26,40.9c-.46-.25-.65.19-.58.68.11.71-.28,1-.8,1.16l-.77-.83a5.08,5.08,0,0,0,.22-1.44c-.17-1.12-.3-1.3,1.47-1.16l-1,.16,2.29.14Zm5,3.26c.07-.19.13-.37.2-.55s.55-.6.13-1c0-.06.16-.55.3-.58.85-.18,1-.87,1.29-1.53,0-.12.1-.3.19-.34A2.93,2.93,0,0,0,129.2,38c.08-.35.82-.28,1.19,0a6.45,6.45,0,0,0,1.22.93c.23.12.6,0,.9,0a8,8,0,0,0,1,0c.41-.06,1.12-.13,1.15-.3a3.57,3.57,0,0,0-.23-1.41c0-.09-.18-.15-.3-.23a1.85,1.85,0,0,1,1.9.53c.85.66,1.65,1.4,2.44,2.14a.6.6,0,0,1,0,1c-.77.71-1.48,1.48-2.24,2.2-.24.23-.61.34-.81.59-.83,1-2.07,1.39-3.07,2.14a15.33,15.33,0,0,1-3.16,1.51,1.19,1.19,0,0,1-.91,0,2,2,0,0,0-1.74.1.92.92,0,0,1-1.31-.84,9,9,0,0,0-.26-1.19C125,44.79,125.14,44.48,125.25,44.16ZM139,48.41a1.46,1.46,0,0,1,.12.33c0,.16,0,.44,0,.46-.79.25-.77,1.08-1.12,1.61a12.82,12.82,0,0,1-3,3.12l-3.66,2.77a13.11,13.11,0,0,0-1.32.21,5.35,5.35,0,0,1-2.89.16c-.57-.16-1.25,0-1.78-.17a4,4,0,0,1-1.58-1.2,12.35,12.35,0,0,1-1.49-2.59,4.34,4.34,0,0,1,0-1.58A28.14,28.14,0,0,0,133,51.08l-.53-.41a.58.58,0,0,1,.18,0c1.58.21,2.39-1.18,3.59-1.75.11,0,.07-.42.1-.7,1.05.56,1.13-.89,1.78-.9l-.56-.54c1.44-.92,1.65-.87,2.06.27l-.69.39C139,47.8,139.83,48.1,139,48.41Zm32.26,6a3.36,3.36,0,0,0,.17.89,3.15,3.15,0,0,0,.44.6,2.56,2.56,0,0,1-.42.22c-.35.12-.41.31-.28.65a.78.78,0,0,1-.48,1.16c-.42.17-.75.64-1.16.7a5.44,5.44,0,0,1-1.83-.16c-.17,0-.34-.37-.38-.6a1.32,1.32,0,0,1,.91-1.74c.47-.2.66-.44.57-1,0-.15.16-.34.26-.5s.36-.59.52-.9c.44-.84.87-1.68,1.37-2.65l-.2-.5.69,0h0l.66.48c.08.53.16,1,.24,1.59l-.75.18,1.06.1V53l-.88.07C171.77,53.6,171.93,54.17,171.22,54.39Z"/><path d="M78.86,38.2c-.26-.09-.47-.46-.59-.75a.88.88,0,0,0-1.53-.4l-1,1-.12-.12.15-.57a1.31,1.31,0,0,0-.77.53c-.57,1-1.11,2-1.65,3-.22.41-.33.9-1,.82-.11,0-.25.13-.35.23a25.44,25.44,0,0,0-2.89,3c-.32.45-.71.24-1,.56a10.13,10.13,0,0,1-1.37,1.16l-.67-.37c0,.23.06.37.09.62l-1.44-.2.31-.46a2.51,2.51,0,0,0-.34-.11c-.77-.09-1.12-.43-1-1.28a1.86,1.86,0,0,0-.46-1.78.49.49,0,0,1-.14-.32c0-.91.16-1.82.11-2.71a2.7,2.7,0,0,1,.41-1.58,14.79,14.79,0,0,0,.79-1.4,8.71,8.71,0,0,0,.4-1.28l-1.24-.12,1.62-1.11-.17-.08.82-1.87L65,31.85c1.44-.39,2-1.08,1.68-1.84-.6.64-.8,0-1.2-.38h.89l0-.13-1.1-.18v-.13h2.15l-.61.42c.61.4.85.31,1.18-.39A25.33,25.33,0,0,0,70.57,20a2.44,2.44,0,0,1,.09-.47,7.13,7.13,0,0,0,.57-3.41,1.32,1.32,0,0,1,0-.44c.24-1.74.59-3.47.72-5.22S72,7,72,5.23a6,6,0,0,0-2.41-5c-.13-.12-.3-.28-.43-.26a3.5,3.5,0,0,0-.76.29l0,.29c-.25-.12-.5-.24-.75-.34S67.35.05,67.21.1a9.84,9.84,0,0,0-1.66.73,1.39,1.39,0,0,0-.51.71c-.2.52-.28,1.09-.5,1.59-.3.67-.7,1.29-1,2-1.06,2.08-2.18,4.13-3.13,6.26-.68,1.52-1.13,3.16-1.81,5.1l.76.34c-.54.48-1.29.95-1.1,2a3.83,3.83,0,0,0-.42,1c-.23.58.22,1.26-.29,1.83-.09.09.17.47.25.73s.15.43.07.51a1,1,0,0,0,0,1.5,3.33,3.33,0,0,0-.33.41c.4.46,0,.87,0,1.3,0,.23,0,.63.07.7.79.42.22.77-.06,1.18L58,28c-.05.32-.09.61-.12.9s.07.6-.06.7c-.65.51-.33.89.12,1.32-.09.1-.25.2-.26.32-.05.53.27,1.08-.09,1.6,0,0,.06.18.12.25.55.52.39,1.19.35,1.82,0,.47-.3,1-.15,1.37A3.08,3.08,0,0,1,58,37.88a5.87,5.87,0,0,1-1.35,2.5l.35.26a55.76,55.76,0,0,1-4.46,3.78c-.61-3.27.42-6.25.18-9.27a20.55,20.55,0,0,1,.48-2.84c.16-2.1.24-4.21.29-6.31A5.4,5.4,0,0,0,53,24.54l-.46.58A7.52,7.52,0,0,0,52.16,24c-.16-.31-.38-.69-.85-.37l-1.38,1-.26-.6a4.18,4.18,0,0,0-1.37,3c-.06.87.29,1.78-.29,2.6a.22.22,0,0,0,0,.21c.47.45.16.81-.08,1.22a3.16,3.16,0,0,0-.21.76c-.17.58-.33,1.16-.5,1.74s-.34,1.13-.52,1.7c0,.16-.22.23-.32.37-.54.79-1.05,1.6-1.57,2.4A17.34,17.34,0,0,1,43,40.71c-.76.78-.79,1.93-1.68,2.63a7.87,7.87,0,0,0-1.48,1.85,2.22,2.22,0,0,0-.47,1.18c0,.35.35.69.57,1.1l-.16.4,3.66.38c.94-1.27,1.9-2.58,2.89-3.87a3.07,3.07,0,0,1,.64-.53L48,46.18l.48.11-.49.65,1,.33-.77.87c.59.17,1,.3,1.36.38s1,.15,1.58.24c.83.15,1.65.68,2.49,0,0,0,.28,0,.32.09.23.42.39.3.66,0s.72-1.21,1.55-.6c0,0,.09,0,.1,0,.14-.19.23-.47.39-.51a1.25,1.25,0,0,0,1.12-1.12.88.88,0,0,1,.7-.52,8.15,8.15,0,0,1,1.5.51l.42,1.24-.67-.12c.14.37.22.63.33.88s.23.25.21.36c-.12.82.48.91,1,1.06a3.85,3.85,0,0,1,1.51.51c.58.53,1.23.3,1.83.43a18.58,18.58,0,0,0,2.56.18,5,5,0,0,1,.37-.53.62.62,0,0,1,.41-.23c.51,0,1,.1,1.47.16a1.74,1.74,0,0,1,1.86-.79c.08-.77.2-.91.86-1.11a1.19,1.19,0,0,0,.44-.3c.41-.45.8-.91,1.21-1.35.06-.06.18,0,.26-.07a.73.73,0,0,0,.28-.13c.28-.39.54-.8.81-1.2A5.58,5.58,0,0,0,76,44.5c.28-.79.47-.94,1.16-.72a3.8,3.8,0,0,1,.67-1.21c.69-.55.82-1.39,1.27-2.06a3.08,3.08,0,0,0,.34-1.33A.84.84,0,0,0,78.86,38.2ZM62.33,29.83c-.12-.13-.09-.41-.09-.62,0-.85.08-1.7.09-2.55,0-.07-.24-.13-.44-.24.65,0,.78-.38.77-.88a30.46,30.46,0,0,0-.08-3.45c-.13-.88.32-1.62.31-2.44a5,5,0,0,1,0-1.23,16.83,16.83,0,0,1,.65-1.93c.7-1.89,1.4-3.77,2.12-5.65A3.32,3.32,0,0,1,66.9,9.36c-.12,2.53-.23,5-.35,7.6l-.47.11c.15.61.33,1.19.42,1.79a1.41,1.41,0,0,1-.18.8c-.23.43-.74.82-.74,1.23a23.26,23.26,0,0,1-.6,2.46,16.14,16.14,0,0,1-.85,3.06,3.19,3.19,0,0,0,0,.94c-.11.23-.27.59-.45.94s-.25.5-.38.75h0l-.21.76C62.84,30.28,62.53,30.07,62.33,29.83Z"/><path d="M27.65,40.93c-.1-1.07-.23-2.14-.31-3.21,0-.17.13-.35.2-.52a3.27,3.27,0,0,1-.32-1.29c0-.3,0-.61,0-.91,0-.52-.71-1.15.24-1.51,0,0,0-.19,0-.29-.06-.76-.05-1.53-.18-2.28-.18-1,.1-2.08-.46-3,0-.06,0-.18,0-.27-.05-.38-.09-.76-.16-1.13s-.29-.63-.19-.77c.39-.56.13-.92-.17-1.38a1.22,1.22,0,0,1-.1-1.42,1.51,1.51,0,0,0,.16-1.67c-.13-.2-.25-.64-.16-.72.54-.43,0-.78,0-1.16s-.12-.67-.18-1c-.18-.93-.36-1.86-.53-2.8-.08-.49-.13-1-.19-1.48,0-.15.05-.38,0-.45-.55-.48-.38-1-.12-1.51a1.85,1.85,0,0,0-.15-2c.1-.28.31-.57.24-.68a12.4,12.4,0,0,0-1-1.09l-.13.15.25.22c-.12.05-.27.18-.36.15s-.43-.24-.41-.31c.25-.87-.22-.69-.73-.55-.14,0-.32-.12-.48-.13a1.81,1.81,0,0,0-.44.09l.58.69-1,.19c-.18.29-.54.63-.56,1,0,.61-.84,1.09-.29,1.78,0,0-.08.21-.14.32-.49,1-1,2-1.48,3Q17.52,18,15.93,21c-.54,1-1.08,2-1.67,3s-1.2,1.85-1.79,2.77c-.34.55-.65,1.11-1,1.66s-.87,1.34-1.28,2-.82,1.42-1.26,2.11c-.54.85-1.13,1.67-1.66,2.53-.14.22,0,.65-.22.76A5,5,0,0,0,5.46,38a8.64,8.64,0,0,1-.73,1.21c-.41.53-.93,1-1.3,1.53s-.59,1.44-1.1,1.92C1.17,43.71,1.07,45.35,0,46.53l1.31.68c-.13.49.16.6.67.51.11,0,.25.16.36.14.34,0,.67-.15,1-.23l-.27-.47,1.55-.36.2.48.91-.77-.21-.07c0-.27-.14-.73,0-.78A2.89,2.89,0,0,0,6.89,44c0-.08.15-.12.22-.19.25-.25.61-.46.72-.75s-.11-.62-.19-1L8.3,42q.09-.45.18-.87c.77,0,.89-.63,1-1.21.09-.35.31-.94.46-.94a.77.77,0,0,0,.9-.53c.1-.29.31-.53.39-.82a1.23,1.23,0,0,1,1.56-.71c1.08.57,2.14,1.17,3.23,1.71s2,.81,2.9,1.33c1.1.63,2.13,1.39,3.18,2.11.51.36,1,.76,1.49,1.12s.77.5,1.16.75c.08,0,.11.17.16.17s.54,0,.61-.06c.28-.47.72-.48,1.18-.58,1.08-.22,1.18-.42,1-1.27C27.67,41.75,27.69,41.34,27.65,40.93ZM23,36c-.14.37-.43.44-.84.22-1.12-.62-2.27-1.16-3.41-1.75-.45-.23-.86-.52-1.31-.74a9.36,9.36,0,0,0-1.2-.4c0-.08.26-.49-.42-.36-.23,0-.55-.41-.85-.66,0-.15,0-.43.08-.71s0-.37.09-.41c1-.6,1.36-1.74,2-2.64a11.85,11.85,0,0,0,1-1.88c.07-.16-.11-.43-.21-.78.08-.05.22-.2.37-.22,1.05-.13,1.15-1,1.45-1.75a3.64,3.64,0,0,1,.68-1c.26-.3.41-.52-.32-.7.65,0,1.07-.11.69-.8l.85.08.53,2.63-.63.22c.79.77.79,1,0,2.22.64.42,1.05.89.28,1.59-.08.08.13.48.21.72s.26.48.2.67A1.66,1.66,0,0,0,22.45,31a1.38,1.38,0,0,1-.1,1c-.13.33-.34.49.11.82s.38.84.56,1.27l-.18.14.69-.09C23.34,34.8,23.2,35.44,23,36Z"/><path d="M39.86,17.38l.68-.25c-.07-.54-.12-1.05-.22-1.54a.83.83,0,0,1,.58-1.09c.42-.16.59-.4.28-.94-.22-.37,0-1,0-1.46l.5-.15.25-1v-.74h.2c-.35-.79-.25-1,.24-1.11.1-.39.18-.67.23-1a.68.68,0,0,0,0-.47c-.32-.55-.29-1,.27-1.21l-.28-1.33C42.27,3.8,41.4,3.38,40.19,4V3.8a5.3,5.3,0,0,0-1.08-.26,1.2,1.2,0,0,0-.71.32c.16,1.05-1.21,1.75-.62,2.87-.91.95-.27,2.28-.79,3.33-.15.31-.09.71-.23,1-.33.75-.14,1.67-.79,2.31,0,0,0,.19,0,.28-.06.53-.11,1.06-.2,1.58s-.23.84-.3,1.26-.1.84-.15,1.35l.41.13c-.19.14-.58.31-.57.45,0,.43.36.38.71.29a10.23,10.23,0,0,1,1.34-.17l.05.16-1,.43.87.21,0,.1L36,19.6l1,.69a3.93,3.93,0,0,0,.68-.28,10.06,10.06,0,0,0,.86-.59l-.1-.12a1.07,1.07,0,0,0,.44,0A4.57,4.57,0,0,0,40,18.49Zm-2.1,2.1,0-.28c.22,0,.45.07.67.1Z"/><path d="M274.49,64.45a6.17,6.17,0,0,1,.62.1c.22.06.43.14.64.21a1.25,1.25,0,0,1-.63.17c-.32,0-.51.09-.39.5a1.89,1.89,0,0,1-.05.7c-.15.93,0,1.09.9,1.14.12,0,.24.07.36.07l2.1.08c.43.35,2.6-.68,3.43-2l-.55-.16c.18-.24.29-.58.48-.62.8-.2.48-.66.25-1a6,6,0,0,0-.75-.85c.14-.3.23-.5.33-.69-.07-.12-.11-.29-.21-.33-.87-.42-1.57.29-2.36.43a12.12,12.12,0,0,0-2.05.71l.33.22-1.87.23.66.27-1.32.64Z"/><polygon points="281.23 62.05 281.23 62.06 281.23 62.06 281.23 62.05"/><path d="M46.8,10.44a5.81,5.81,0,0,0,1,.07h.75v.16l-1.47.24,0,.28,3.75-.63s.05-.08.08-.12a1.25,1.25,0,0,0-.08-.12l-.19-.18A8.13,8.13,0,0,0,51,8.8c.11-1.65-1.31-1.41-2.49-1.68l.68-.3-1.52-.49a1.73,1.73,0,0,0-.07.64c0,.2.25.36.43.6l-1.71.1.07.15L47,8l-.87,1,.16.15.73-.83c.25.65.48.37.77,0,.05.94-.9.43-1.18.82.15,1.24,1.26.3,2,.88H46A4.38,4.38,0,0,0,46.8,10.44Z"/><polygon points="281.23 62.05 281.23 62.06 281.23 62.06 281.23 62.05"/><path d="M282,63.07c-.09.41.08.55.44.59s.84-.18.87-.41l-1-.22,0-.19,1.05-.55,0-.28c-.74.31-1.56.78-1.47-.52l-.58.57a4.15,4.15,0,0,1,.45.49C281.8,62.71,282,62.92,282,63.07Z"/><path d="M102.27,21.93l-1.36.47C101.91,22.75,102.14,22.64,102.27,21.93Z"/></g></g></svg>