<svg xmlns="http://www.w3.org/2000/svg" viewBox="0 0 321.99 183.49"><defs><style>.cls-1{fill:#fff;opacity:0.2;}</style></defs><g id="Calque_2" data-name="Calque 2"><g id="Contours"><path class="cls-1" d="M312.89,12.55C304.39,2.75,290-.09,278,4.11a18.43,18.43,0,0,0-7.05,4.38c-2.18,2.12-3.6,5.47-6.91,4.66-3.07-.74-5.73-2.08-9-1.85s-6.55,2.52-9.9,2c-2.8-.43-5.44-2.48-8-3.7-3-1.47-6.26-2.53-9.39-3.8A78,78,0,0,0,206.88.23C195.36-1,182.45,2.94,176.73,13.91c-1.38,2.64-.17,2.1-3.18,3.15s-5.86,1.22-8.48,3.13c-5.39,3.94-4.51,10.75-8.69,15.17-4.4,4.65-13.11,5.32-19.06,4.81s-11.76-1.47-17.64-.25c-5.62,1.18-10.32,4.63-14,9-4,4.8-6.27,11.09-10,16.08C92,61.59,89.1,57.21,85.88,53.39A47.61,47.61,0,0,0,70.78,41.5C60,35.93,48.47,33.08,36.69,34a14.23,14.23,0,0,0-2.16-.44C27.71,32.65,21,36.2,16.08,40.68,6,49.9,5.7,66,4.24,78.58,2.5,93.59-3.62,111.36,3,125.94c4.62,10.15,13.79,10.64,21.66,6.52-.24,1.29-.47,2.57-.58,3.82a58.6,58.6,0,0,0,.46,11.23c.72,6.93,1.93,13.79,5.64,19.83C36.75,178,50.47,184.75,63,183.29c12.77-1.49,19.89-13.35,23.12-24.67,3.82-13.34.81-24.89-4.33-36.84a29.58,29.58,0,0,0,19-11.27c5.74,3.45,13.08,2,19.06-1.37,3.7,17.45.47,37.8,12.34,52.27,6.61,8.07,18.61,11.56,28.65,8.77,11.65-3.24,15.78-15,17.4-25.74A54.73,54.73,0,0,0,177,121.7c-2.26-8.31-6.25-15.87-9.79-23.65a110.92,110.92,0,0,0,19.58-5.12c4.31-1.51,8.61-3.17,13-4.34.52-.16,1-.27,1.58-.38.16.67.42,1.47.47,1.74,2.58,13.84,6.28,31.83,21.45,36.94,12.45,4.18,28.31-1.81,36.49-11.64A33.19,33.19,0,0,0,267.55,94c-.08-6.86-3.37-12.89-5-19.31,1.59.37,3.17.81,4.8,1.12a37.16,37.16,0,0,0,11.29.19,55.53,55.53,0,0,0,18.79-5.41C308,65.23,319,56.54,321.33,44.3A38.18,38.18,0,0,0,312.89,12.55Z"/></g></g></svg>