<svg xmlns="http://www.w3.org/2000/svg" viewBox="0 0 305.57 63.5"><g id="Calque_2" data-name="Calque 2"><g id="P2_m4_3"><path d="M49.68,11c-.17-.21-.41-.52-.62-.52a6.34,6.34,0,0,1-2.68-.58.48.48,0,0,0-.24,0,6.13,6.13,0,0,0-4.86,2.48,27.65,27.65,0,0,0-3.55,5c-.11.22-.41.35-.74.63a18.84,18.84,0,0,0-1.18-7.48c-.28-.67-.59-1-1.3-1a2.23,2.23,0,0,1-1.27-.22A1.69,1.69,0,0,0,31.86,9a5.44,5.44,0,0,0-3.26,1.62A14.88,14.88,0,0,0,24.06,17c-.92,2.53-1.72,5.11-2.58,7.66-.19.55-.42,1.09-.71,1.84a4.84,4.84,0,0,1-.13-.6c0-2.33.05-4.66.06-7,0-1.31-.11-2.62-.06-3.92a32.66,32.66,0,0,0-.23-6.33,2.36,2.36,0,0,0-.27-.49c-.17.53-.26.82-.31,1l-1.57-.12c-.22-.32.27-1.23-.75-1-.06.5,0,1.17-.22,1.43-.53.5-.38,1.05-.43,1.59-.07.85-.05,1.72-.14,2.57-.27,2.59-.57,5.18-.88,7.77a17.24,17.24,0,0,1-.94,4.65c-.69,1.66-2,2.88-2.93,4.34A3.27,3.27,0,0,1,8.54,32a5.26,5.26,0,0,1-4-3.08c-.93-2.3-.65-4.69-.71-7-.06-2.77,0-5.53,0-8.3,0-.41,0-.82,0-1.23q.35-3.54.74-7.06c.12-1.07.31-2.14.48-3.33l-.62-.33c.07-.35.13-.69.19-1l-2.51.88C2.34.88,2.46.44,2.59,0a1.71,1.71,0,0,0-.93.9A13.41,13.41,0,0,0,.83,5,32.64,32.64,0,0,1,.55,8.52C.37,10.8.12,13.08.05,15.36c-.08,2.66,0,5.33,0,8A19.89,19.89,0,0,0,.5,28.72C1.2,31,2.11,33.1,4.58,34c.3.11.54.38.83.52A3.76,3.76,0,0,0,6.54,35c1.22.14,2.46.15,3.67.31a4.17,4.17,0,0,0,2.91-.66c.69-.43,1.65-.8,1.91-1.44.38-1,1.22-1.49,1.64-2.41.34,1.61.65,3.14,1,4.67A3.93,3.93,0,0,0,18,36.65c.21.37.52.88.86.94a2,2,0,0,1,1.22.66c.28.27.76.49,1.11,0,0-.09.16-.24.21-.22.94.21.92-.51,1-1a37.32,37.32,0,0,1,1.5-7c.78-3,1.79-5.93,2.82-8.85a16.2,16.2,0,0,1,3.56-6.5c.65-.63,1.1-1.53,2.17-1.74a2.84,2.84,0,0,1,.27.56,15.65,15.65,0,0,1,.58,3.36c0,2.84.13,5.68.18,8.53A16.13,16.13,0,0,1,33.32,28,30.24,30.24,0,0,0,32.58,33c0,1.91,0,3.83,0,5.82.47.17.94.35,1.35-.36.24-.41,1.2-.24,1.12.09-.13.56.24.62.48.58a1.07,1.07,0,0,0,.73-.51,13.09,13.09,0,0,0,.52-2.14,38.76,38.76,0,0,0,.32-5.9,9.24,9.24,0,0,1,.48-3.75A23.12,23.12,0,0,0,38.74,24,20.87,20.87,0,0,1,41.3,18.9c.91-1.47,2.1-2.76,3.11-4.18a4.14,4.14,0,0,1,2.27-1.36c.17,1.42.37,2.72.48,4,.08,1,0,2,0,3,0,2,.08,4.06-.06,6.07s-.55,3.87-.77,5.8a6.61,6.61,0,0,0,.22,3.31c.45.17.77.08.86-.31a19.33,19.33,0,0,0,.36-2.13c.14-1.29.16-2.6.36-3.88a53.18,53.18,0,0,0,.56-9.71,1.51,1.51,0,0,1,.66,1.51c-.07.44-.32.9-.22,1.3a12.61,12.61,0,0,1-.1,3.88c-.13,2.07-.58,4.12-.78,6.18a5.58,5.58,0,0,0,.32,2.13,5.53,5.53,0,0,0,.79,1.28c.54-.2.58-.6.61-1.1a49.07,49.07,0,0,1,.51-5.94A26.91,26.91,0,0,0,51,24.1c0-3.29-.18-6.57-.38-9.85A5.36,5.36,0,0,0,49.68,11Z"/><path d="M105.5,10.55a7.72,7.72,0,0,0-1.33-.55A23.94,23.94,0,0,0,101,9.53c-2.54-.15-5.08-.21-7.63-.32a3.1,3.1,0,0,0-2.24.82,6,6,0,0,0-2,2.73c-.65,2.14-1.31,4.28-1.94,6.43-.28.95-.47,1.92-.72,2.94-.17-.13-.27-.17-.28-.23a1.92,1.92,0,0,1-.07-.48,10.26,10.26,0,0,0-4.43-7.79,7.14,7.14,0,0,0-3.33-1.42C77.26,12.11,76.13,12,75,12c-.34-2,.09-4-1.09-5.88-.07.67-.12,1.13-.16,1.52L71.54,6.26c-.09.29-.09.53-.21.67A3.21,3.21,0,0,0,71,9.25c0,.83.1,1.67.14,2.47-.87.46-1.82,0-2.74.72h2.28c-.26,1.13-1.9.62-1.95,1.85h1.67l-2.11,1.62,2.1-.18.14.65,1.14-.13a9.36,9.36,0,0,0,0,1.31c.59,3.79,1.24,7.56,1.78,11.35a41.29,41.29,0,0,1,.87,7.44.41.41,0,0,0,.14.3c.61.58.17.93-.36,1.33l.89.32c.06.54.09,1,.17,1.43.35,1.84.74,3.66,1.06,5.5a53.11,53.11,0,0,0,3,10.2c.57,1.45,1.1,2.91,1.61,4.38.23.68.38,1.39.51,1.92.55.19,1.09.22,1.18.43.37.85,1.33.73,1.85,1.34-.12-.56-.56-1.07.08-1.57.07,0,0-.37-.08-.55s-.16-.53-.26-.84l.91-.37a4.31,4.31,0,0,1-.42-1A18.16,18.16,0,0,0,83.2,54.5c-.71-1.69-1.36-3.4-2-5.12a11.77,11.77,0,0,1-.94-3c-.21-2.6-1-5.07-1.35-7.63-.15-1.16-.15-1.1.74-1.74a25.89,25.89,0,0,0,3.08-2.55,14.26,14.26,0,0,0,3.32-4.57l.45,1.21c1.16.68,2.15,1.28,3.31,2l-1.07.25a3.78,3.78,0,0,0,1.13.13c1.13,0,2.33.63,3.29-.46a10.53,10.53,0,0,0,6.17-4.13,3.22,3.22,0,0,1,.6-.45c0,2.25-.7,4.42.2,6.61l.93-1.7.42,1.82a8.56,8.56,0,0,0,.5-2.31c.22-2.15.33-4.31.65-6.44a3.73,3.73,0,0,1,.8-2.46c0,.32,0,.61,0,.89-.27,2.84-.56,5.68-.8,8.53a7,7,0,0,0,.16,1.43,1.14,1.14,0,0,0,.55-.77c.08-1.1.09-2.2.18-3.29.29-3.44,1-6.83,1-10.3,0-2.55.13-5.1.2-7.64l.68.09c-.34-.5-.66-.89-.89-1.31C104.12,10.85,104.89,10.85,105.5,10.55Zm-26,26a2.28,2.28,0,0,0,.92-1.07h0A2.28,2.28,0,0,1,79.53,36.55Zm1-1.11h0a2.22,2.22,0,0,0,.39-.1A2.22,2.22,0,0,1,80.51,35.44Zm2.29-9.28a3.21,3.21,0,0,1-.52,1.46,33.58,33.58,0,0,1-3,3.52,7.49,7.49,0,0,1-1.52,1.06c-.85-5.48-1.66-10.69-2.47-15.94,1.87-.44,3.14.41,4.31,1.48.35.32.62.74,1,1.06s1,.77,1.51,1.18l-.5,0a3.65,3.65,0,0,0,.26.92A8.87,8.87,0,0,1,82.8,26.16ZM79,13.3l5.11,4.14a4.3,4.3,0,0,0-.37-.85,4.3,4.3,0,0,1,.37.85ZM93.92,31.85a1.65,1.65,0,0,0,1.37-1.07h0A1.65,1.65,0,0,1,93.92,31.85Zm1.42-1.1h0a1.68,1.68,0,0,0,.77,0A1.68,1.68,0,0,1,95.34,30.75Zm1.09-.27a2.54,2.54,0,0,0,.2-.24A2.54,2.54,0,0,1,96.43,30.48Zm4.09-10.91a7.56,7.56,0,0,1-2.28,5c-1.17,1.18-2.31,2.37-3.45,3.57a4.76,4.76,0,0,1-3,1.5c-1.1.14-1.89-.37-1.93-1.49a21.1,21.1,0,0,1,.46-6.43c.22-.82.33-1.68.59-2.49a13,13,0,0,1,1-2.86,9.26,9.26,0,0,0,.69-2.2,1.55,1.55,0,0,1,1.85-1.11c1.73.17,3.47.22,5.21.31h0c.32.08.64.14.91.19C100.54,15.57,100.63,17.58,100.52,19.57Z"/><path d="M136.78,9c-.08-.55-.3-1.09-.36-1.65-.13-1.17-.23-1.27-1.33-1l-.56.17c-.41-.24-.58-.93-1.21-.55.12,1.12.09,1.07-.92,1.57a12,12,0,0,0-4.06,3.11,63.94,63.94,0,0,0-6.42,9.23,2,2,0,0,0-.16.54c0,.09,0,.27,0,.28a1.93,1.93,0,0,1-.45.07c0-5.06,0-10-.06-15l-.28,0c-.16.52-.32,1-.5,1.58l-.59-.86c-.47.24-.12,1.22-1,.84h0l0,0a1.69,1.69,0,0,0-1.1,1.61c0,.28-.07.56-.07.84,0,.88-.37,1.79.19,2.63-.44,1.24,0,2.53-.18,3.79a11,11,0,0,0,0,2.15c0,.68.18,1.35.18,2s-.12,1.37-.18,2.05c0,.13-.07.29,0,.37.28.35.27.53,0,1a5.76,5.76,0,0,0-.34,2.52,32,32,0,0,1-.37,4.78,45.06,45.06,0,0,0-.39,4.78,1.3,1.3,0,0,0,.43.93c.32.22.63,0,.91-.35s.76-.37,1,.21c.29.77.81.61,1.53.57.12-1.78.21-3.54.37-5.28a9.13,9.13,0,0,1,.46-2.51c.71-1.82,1.51-3.61,2.36-5.37a44.65,44.65,0,0,1,4.16-7.58c1.46-2,2.93-3.88,4.41-5.81.21-.27.46-.61,1-.35a2.68,2.68,0,0,0,0,.8c.6,1.69.4,3.47.54,5.21.1,1.4,0,2.81,0,4.22,0,2.69.08,5.39.11,8.08,0,1.32.06,2.65,0,4s.07,2.73-.67,3.94a1.14,1.14,0,0,0,1.4.47c.11-.34.21-.63.31-.92.6.22.58.23,1.1.88a.86.86,0,0,0,.6.31.71.71,0,0,0,.53-.41,13.27,13.27,0,0,0,.39-2.5c0-3,0-6.09,0-9.14,0-2.31.05-4.62.08-6.93A56.69,56.69,0,0,0,136.78,9ZM118.9,8.19h0Zm0,0c.08,0,.18.08.27.11h0C119.09,8.27,119,8.21,118.91,8.19Z"/><path d="M305.48,25.82c-.2-1.23-.21-2.57-1.21-3.53-.19-.18-.42-.44-.64-.45a12.85,12.85,0,0,1-2.22-.45,7,7,0,0,0-4.11.29c-3.57,1.44-7.08,3-9.84,5.83a3.47,3.47,0,0,1-.95.48V22.74l-.27,0c-.47,1.32.12,2.92-1.08,4.29,0-.7.07-1.2.1-1.78-.72-.24-.79-.94-.74-1.94-.6.84-1.37,1.28-.56,2.14.13.13.09.47.07.71-.06.89-.15,1.78-.25,2.67,0,.06-.08.11-.13.17l-.53-.24c0,.2,0,.4,0,.43a.72.72,0,0,1,.38.89c-.24.84-.5,1.67-.81,2.49-.17.44-.54.8-.7,1.24-.68,1.93-1.24,3.9-2,5.79A47.67,47.67,0,0,0,277.27,49a4.13,4.13,0,0,0,.26,1.78c.05.18.44.26.64.37l.68-1c.1.81.16,1.39.24,2.09l.94-.6c.16.56,0,1.23.76,1.28.07-.08.16-.13.17-.2a69.17,69.17,0,0,1,2-7.77,61,61,0,0,0,1.84-7,10.81,10.81,0,0,1,2.79-5.19,46.79,46.79,0,0,1,4.11-3.85,17.62,17.62,0,0,1,6.53-3.54,9.5,9.5,0,0,0,2.53-1.06,4.76,4.76,0,0,1,1.15,2.62c0,.85,0,1.71-.05,2.57a20.87,20.87,0,0,1-.13,3.88c-.48,2.23-1.23,4.4-1.88,6.59l-3.34,11.35a2,2,0,0,0,0,.49c1.21.54,1.06-1.07,1.85-1.13.14.27.16.79.66.32.09.36.18.73.32,1.26.35-.23.7-.33.82-.56a9.81,9.81,0,0,0,.71-1.82c.37-1.37.49-2.79,1-4.15,1-2.67,1.73-5.43,2.65-8.12a16.34,16.34,0,0,0,1-6c0-1,0-2,0-2.93A16.67,16.67,0,0,0,305.48,25.82ZM303.6,31.5a.54.54,0,0,0-.35-.15A.54.54,0,0,1,303.6,31.5Z"/><path d="M173.9,30.88c-.27-2.77-.53-5.53-.82-8.29-.13-1.26-.31-2.51-.46-3.77-.29-2.44-.59-4.88-.86-7.32a7.68,7.68,0,0,1-.07-2.29,1.53,1.53,0,0,0-.38-1.43,1.79,1.79,0,0,1-2.37-.08,9.37,9.37,0,0,1-1.43.27c-1.06,0-2.13,0-3.2,0a1.51,1.51,0,0,0-.71.15c-1.07.65-2.12,1.34-3.18,2-.73.45-1.34.93-1,1.95.06.17-.11.41-.2.63h0v0l.07-.07-1.05,1.37-.39-.22c0,.21-.07.41-.1.62l.35-.16a12.55,12.55,0,0,0-1,1.72c-.31.74-.4,1.58-.71,2.32-.47,1.14-.25,2.5-1.13,3.5-.05.05-.11.19-.09.22.66.64-.08,1-.27,1.51.13.35.4.71.32.93a6.3,6.3,0,0,0-.12,2.66,7.3,7.3,0,0,1,.06,1.47,8.1,8.1,0,0,0,.5,3.56c.34,1.26,1.43,1.88,2.48,2.57,1.52,1,3.11.73,4.73.56a1.1,1.1,0,0,0,.53-.28c.7-.62,1.38-1.25,2.07-1.87A19.2,19.2,0,0,0,169.21,29a4.45,4.45,0,0,1,.78-.71c.19,2.49.35,4.76.53,7,0,.41.11.81.16,1.22.06.59.43.7.85.68l.83-1.51.08-.08,1.29,1.7c.36,0,.74-.08.68-.69C174.23,34.69,174.08,32.78,173.9,30.88Zm-5.44-7.77,0,1.25c-.08.3-.16.61-.26.9s-.24.63-.42,1.12a4.18,4.18,0,0,0-1.92,1.73,2.41,2.41,0,0,1-.53.47c-.15.12-.36.2-.45.35A7.75,7.75,0,0,1,163,30.71a3.52,3.52,0,0,1-4.27.23A2.62,2.62,0,0,1,157.64,29a24.61,24.61,0,0,1,0-5.56c.07-.52.21-1,.32-1.55.2-.94.35-1.9.62-2.82A13,13,0,0,1,163,12.54a2.39,2.39,0,0,1,1.2-.55c1.25-.07,2.51,0,3.79,0a26.14,26.14,0,0,1,.51,3.09c.09,1.9.61,3.78.15,5.72-.07.3.21.87.19,1.33S169,23,168.46,23.11Z"/><path d="M238.87,24.64c-.17-1.34-.39-2.68-.54-4a5.06,5.06,0,0,1,.19-1.21c-.15-.51-.35-1.16-.55-1.82h0c.13-1-.95-1.3-1.37-2.1.9-.11,1.58-.05,2.07.75a6.91,6.91,0,0,0,1,1.09c-.52-1.95-1.3-2.51-3.19-2.49a4.31,4.31,0,0,1-1.08-.11,4.21,4.21,0,0,0-3,.26c-2.05,1-4.07,2.05-6.08,3.13a12.42,12.42,0,0,0-1.59,1.09c-2.41,1.78-3.44,4.45-4.56,7.06a22.23,22.23,0,0,0-1.34,7.21c-.08.93-.08,1.86-.13,2.79,0,.52.12.91.7,1s1,.15,1.13.75a2.45,2.45,0,0,0,.6,0v-.47h4.62l-.51.27L225,38a15.35,15.35,0,0,0,10.35-9.29A37.94,37.94,0,0,1,236,38.1c.36,0,.66.09.81,0a6.22,6.22,0,0,0,.76-.9l1.17.19-.3.77,1.29.06c0-.43.06-.71.06-1A84.2,84.2,0,0,0,239,26.34C238.94,25.78,238.94,25.2,238.87,24.64ZM221.2,28.05a1.49,1.49,0,0,0-.59,1.09,1.49,1.49,0,0,1,.59-1.09Zm13.06-9.5a35.78,35.78,0,0,0-1.74,6.25,11.45,11.45,0,0,1-2.29,5A15.59,15.59,0,0,1,228,32.56a11.12,11.12,0,0,1-5.55,2.31,15.56,15.56,0,0,1,0-2.06,29.44,29.44,0,0,1,.6-4.47c.25-.8.41-1.61.7-2.42a8,8,0,0,1,2.47-3.13,15.13,15.13,0,0,1,4-2.59c1.34-.58,2.59-1.36,3.93-2.07C234.19,18.35,234.29,18.48,234.26,18.55Zm2.67,8.78a3.79,3.79,0,0,0,.38-.45,3.79,3.79,0,0,1-.38.45Zm0,0h0c.36,0,.39.21.42.45C237.32,27.58,237.29,27.33,236.93,27.36Z"/><path d="M191.82,12.21c-.09-.24-.19-.49-.33-.82-.25.21-.52.33-.58.51-.23.76-.42,1.53-.58,2.31-.08.44-.28.55-.69.4-.09-.51-.3-1,.3-1.42.14-.09.13-.59,0-.82a.82.82,0,0,0-.68-.33c-.41.05-.39.36-.35.75a10.37,10.37,0,0,1-.12,1.45c0,3.49-.15,7-.08,10.47a37.23,37.23,0,0,1-.72,7.9,5.86,5.86,0,0,1-.74,2.33c-1.17,1.53-2.45,3.07-4.77,2.52a4.12,4.12,0,0,0-.45-.05,5,5,0,0,0-.71-1,2.48,2.48,0,0,1-.84-1.85c-.1-1.88-.27-3.77-.2-5.64.19-5.16.3-10.31.07-15.46a2.24,2.24,0,0,0-.93-1.75,8,8,0,0,0-1.06-.7v1.77c-.74.27.35,1.27-.64,1.48-.43-.85.11-2.17-1.19-2.69,0,.73,0,1.4,0,2.07,0,2.86.16,5.73.16,8.59,0,3.72-.06,7.44-.1,11.17a8.63,8.63,0,0,0,2.09,5.76A3.06,3.06,0,0,0,181,40.34c.86.06,1.72.13,2.58.25,3.95.58,6.59-1.67,7.81-4.78a20.59,20.59,0,0,0,1-5.61c.17-1.95.07-3.92.09-5.88,0-3.78.09-7.55.15-11.33C192.62,12.41,192.37,12.18,191.82,12.21Zm-1.88,16.25v0c.07.09.19.17.24.25A1.33,1.33,0,0,0,189.94,28.46Zm0,0h0c.14-.4.27-.79.4-1.19Z"/><path d="M263.36,17.85a1.75,1.75,0,0,1,1.5-.6,12,12,0,0,0,3.05.13,1.62,1.62,0,0,1,1.54.59,1.65,1.65,0,0,0,1.62.5L268,15.77c1.16-.29,1.56,1.06,2.75,1.11-1.23-1.58-2.38-2.83-4.41-2.7-1.54.1-3.07-.17-4.58.58a6,6,0,0,0-2,1.13c-1.29,1.37-2.59,2.71-3.91,4.05a4.28,4.28,0,0,0-1.32,2.58,32,32,0,0,0,.19,4.58,1.17,1.17,0,0,0,.45.71c1.11.84,2.26,1.62,3.36,2.45A8.87,8.87,0,0,1,260.6,32c.91,1.31.64,4.5-.46,5.69a32.24,32.24,0,0,1-3.26,2.91c-.67.55-1.36.16-2-.2a2.59,2.59,0,0,1-.56-.48c-1.25-1.34-2.54-2.65-3.73-4a3.92,3.92,0,0,1-1.15-2.38c0-.15-.27-.29-.6-.63L249,34.6l-.18.06c-.14-.29-.29-.58-.45-.9l-.71.36a3,3,0,0,1-.16-.62c0-3.24,0-6.48,0-9.72,0-1.72-.05-3.44-.08-5.17,0-.38-.11-.65-.71-.54-.29,5.36.23,10.77-.34,16.21l-.67.39c.25.75.5,1.44.71,2.14a2.82,2.82,0,0,1,.21,1.06,6.89,6.89,0,0,0,.65,3c.13-1.4.13-1.4.56-2.09A7.26,7.26,0,0,0,250,40.87c1,.76,1.75,2,3.21,2,.13,0,.26.14.39.23.35.61-.58.41-.56.86a3.49,3.49,0,0,0,2.3-.24c.31.26.54.62.72.59a9.33,9.33,0,0,0,2.36-.55,17.06,17.06,0,0,0,4.88-3.68,4.33,4.33,0,0,0,1.24-2.33,25.11,25.11,0,0,0,0-4.75,5.69,5.69,0,0,0-2.52-4.55c-1.11-.76-2.19-1.58-3.34-2.29a1.28,1.28,0,0,1-.64-1.23,4.44,4.44,0,0,1,1.22-3C260.65,20.58,262.07,19.27,263.36,17.85Zm-7.59,7.64h0l.13,0Zm5.76-7.19c.56-.11.65-.15.91-.83-.26.68-.35.72-.92.84Zm-.08.08h0c-.06.8-.34,1.05-1.27,1.12h0C260.59,19.12,261,18.75,261.45,18.38Zm-1.28,1.13a.5.5,0,0,1,0,.73.5.5,0,0,0,0-.73Zm-1.42,1.78c.31-.83,1.08-1.15,1.41-1.78h0C259.83,20.14,259.06,20.46,258.75,21.29Z"/><path d="M224.12,17.07c1.4-.35,2.82-.67,4.27-1-.79-.43-1.54,0-2.27.05L225,15.3l3-.73-.06-.31c-.7.09-1.41.17-2.11.28-2.95.5-5.54,1.93-8.18,3.2a2.41,2.41,0,0,0-.69.49c-.85.88-1.67,1.78-2.51,2.68-.24.25-.5.49-.8.79a3,3,0,0,1,.51-2.2c.22-.34.46-.68.65-1A8.75,8.75,0,0,1,218,15a17.31,17.31,0,0,1,7.6-2.37,3.59,3.59,0,0,0,.73-.21c-.16-.2-.19-.3-.25-.33a1.14,1.14,0,0,0-.47-.1c-1.08.17-2.16.35-3.24.56a11.79,11.79,0,0,0-6.72,3.53c-.65.72-1.2,1.53-1.82,2.29a8.65,8.65,0,0,1-.81.73c-.23-3.34-.44-6.41-.65-9.48l-1,.07c0,.61,0,1.16,0,1.71.22,2.89.41,5.79.71,8.67a6.66,6.66,0,0,1-.25,2.53c0,.15-.28.23-.58.47-.12-1.64-.2-3-.33-4.39s-.37-2.84-.51-4.26-.27-2.76-.34-4.14-.06-2.74-.08-4.14a.79.79,0,0,0-.77.83c-.07,1.75-.2,3.51-.2,5.26,0,1.37.16,2.75.27,4.12.13,1.55.27,3.09.43,4.64.11,1,.35,2.08.37,3.13.08,3.38.08,6.77.11,10.16,0,1.11,0,2.21,0,3.32,0,.55.16.87.88.62,0-.7,0-1.39,0-2.08s.21-1.29.23-1.94c0-1.4-.06-2.8,0-4.19a27.41,27.41,0,0,1,.45-3.11c0-.13.34-.21.6-.36,0,2.41,0,4.69,0,7a12.76,12.76,0,0,0,.72,4.67c.06.16.26.27.49.48a3.5,3.5,0,0,0,.12-.58c0-1.79,0-3.59.06-5.38,0-1.62-.17-3.28.57-4.82.07-.15,0-.38,0-.57,0-.36.05-1,.15-1,.86-.12.88-.89,1.15-1.41a27.66,27.66,0,0,1,2.4-4A10.51,10.51,0,0,1,224.12,17.07Zm-7.34,4.57h0c.18-.16.39-.3.56-.47C217.17,21.34,217,21.48,216.78,21.64Z"/><path d="M274.45,26.59a5,5,0,0,1,0-1.31c.1-.34.53-.61.13-1-.73.61-.68,1.71-1.67,2.2.1-.57.18-1,.3-1.66a2.07,2.07,0,0,0-1.08,1.64,27.1,27.1,0,0,1-1.11,5.28c-.45,1.64-.78,3.32-1.3,4.94-.85,2.67-1.81,5.31-2.72,8a.78.78,0,0,0,0,.58.89.89,0,0,1,.05,1.12.41.41,0,0,0,.3.65,1,1,0,0,0,.67-.36c.13-.16.11-.44.15-.61l1,.33.1-.26-1.23-.58a1.66,1.66,0,0,1,.29-.47c.47-.41.74-.33,1,.28s.84.89.59,1.61c0,.08.33.29.57.48.18-.68.28-1.2.45-1.7.54-1.59,1.12-3.16,1.65-4.74.29-.84.54-1.7.77-2.56a53.67,53.67,0,0,1,1.5-5.67c.7-1.82.59-3.77,1.24-5.56,0-.11.08-.29,0-.35-.39-.45-.05-.85,0-1.27,0-.22.07-.45.14-.87C275.2,25,275.07,25.94,274.45,26.59Z"/><path d="M110.64,13.22a1,1,0,0,0-.63-.86c.07.69.39,1.33-.15,2.06,0-1.7-1.76-1.79-2.44-2.91.13.88.25,1.75.37,2.64H107a11.24,11.24,0,0,0,0,1.3c.18,1.36.45,2.72.59,4.09.25,2.41.51,4.81.63,7.22.15,3.15.16,6.31.25,9.46a2.06,2.06,0,0,0,.29.64,1.57,1.57,0,0,0,.41-1.27c0-.74,0-1.47.11-2.21,0-.55.23-1.1.23-1.65,0-2.66,0-5.32,0-8,0-.16.21-.33.33-.49a4.09,4.09,0,0,1,.09.58c0,2.17.06,4.34.09,6.51,0,1,0,2,0,2.95,0,.29,0,.69.14.83a4.61,4.61,0,0,1,1.13,2.59c0,.07.19.11.46.25a14.4,14.4,0,0,0,.15-1.61,139.88,139.88,0,0,0-.47-15.18C111.15,17.86,110.9,15.54,110.64,13.22Z"/><path d="M245.34,23.26a36,36,0,0,0-.2-7c0-.15-.17-.28-.26-.42l-.25,0c0,.68,0,1.35,0,2a8.6,8.6,0,0,1-.17,1.24,6.9,6.9,0,0,0-.3,1.12q-.07,2.22-.06,4.44c0,1.56.08,3.13.07,4.69q0,3.31-.17,6.63a19.12,19.12,0,0,0,.29,4.6c.53.07.64-.14.54-.57a1.55,1.55,0,0,1,.39-1.68h0a3.12,3.12,0,0,0,.17-.65c0-1.29,0-2.58,0-3.86,0-1.63,0-3.25,0-4.87C245.37,27.11,245.27,25.19,245.34,23.26Z"/><path d="M248.59,5.8c0,.61-.07,1.12-.12,1.87l1.41-.62c.37.34-.18,1.2.67,1.31a15.56,15.56,0,0,0,.34-5.72c-.3.46-.6.92-.91,1.38l-.53-.44-.5.62c.05-.6.1-1.11.16-1.83-1.46,1.27-1.51,2.88-1.86,4.4C248,7,248.14,6.19,248.59,5.8Z"/><path d="M277.94,10.2l-.05.07h0v0h0Z"/><path d="M277.29,15.71c.07,0,.15-.05.21-.07.18-.72.37-1.41.54-2.12,0-.1,0-.28,0-.32-.57-.37-.24-.87-.21-1.34s.05-1,.08-1.55c-.55.12-.65.57-.79,1a10.36,10.36,0,0,1-.62,1.36l-.71-.38c0,.66,0,1.17,0,1.69A2.22,2.22,0,0,0,277.29,15.71Z"/><path d="M107.57,5.87c-.85-.89.06-.92.26-1.28-.11-.32-.21-.61-.33-.94l.86-.21c.07-1-.79-.48-1.12-.77.16-.72.16-.72.79-1.18-1.16-.08-1.16-.08-1.36,1s-.35,2-.55,3.14l1,.23Z"/><path d="M109.82,4.5c0-1.36,1-2.6-.14-3.95a6.32,6.32,0,0,0-.5,1.94,2,2,0,0,1,0,1.12C108.88,4.13,109.17,4.34,109.82,4.5Z"/><path d="M275.25,12.07a4.75,4.75,0,0,1,.31-2.68c-1.21.9-1.16,2-1,3.19C275.12,12.9,275.38,12.46,275.25,12.07Z"/><path d="M219.06,16l3.25-1.44c-1.15-.5-1.83.47-2.69.67C219.33,15.33,218.85,15.44,219.06,16Z"/><path d="M274.37,14.65c.41.08.58-.22.59-.56,0-.14-.19-.28-.4-.57a7.29,7.29,0,0,0-.58.79S274.22,14.63,274.37,14.65Z"/><path d="M190.14,11.16a1.5,1.5,0,0,0,.23-.16,6,6,0,0,0-.49-.75s-.41.16-.43.27C189.39,11,189.76,11.1,190.14,11.16Z"/><path d="M158.5,12.57c.11.42.42.3.7.19l-.08-.87C158.81,12.22,158.47,12.44,158.5,12.57Z"/><path d="M86.82,32.19c.16.22.3.45.47.65s.2,0,.33,0L87,32.12Z"/><path d="M223,14.62l.86-.34-.07-.2-.86.22C222.93,14.41,223,14.51,223,14.62Z"/><path d="M192.52,11.39l-.3-.63-.37.19.43.57Z"/><path d="M212.08,9.08l0-.14-.55,0,0,.27Z"/><path d="M222.21,38h-.91l.9.17Z"/><path d="M221.3,38l-.11,0h0v0Z"/><path d="M278.13,9.52c-.06.23-.12.46-.19.68.15-.18.3-.36.46-.53Z"/><path d="M225,14.1l0-.12h-.61v.12Z"/><path d="M261.45,18.38l-1.27,1.12C261.11,19.42,261.39,19.18,261.45,18.38Z"/></g></g></svg>