<svg xmlns="http://www.w3.org/2000/svg" viewBox="0 0 256.19 182.88"><g id="Calque_2" data-name="Calque 2"><g id="P2_m2_3"><polygon points="20.84 93.1 20.85 93.1 20.85 93.1 20.84 93.1"/><path d="M72.9,84.94l.57-1.65c.34,0,.92.08,1-.08.25-.49.74-.39,1.08-.62-.25-.07-.48-.16-.73-.21A7.44,7.44,0,0,0,74,82.3a1.27,1.27,0,0,1,1.35-.82,4.13,4.13,0,0,0,.78.08,2.13,2.13,0,0,0,.56-.21h0c.55.37.84-.09,1.1-.41.08-.1-.14-.42-.22-.64l-.23,0,.16-.44a3.23,3.23,0,0,0-.63-.2c-.47,0-1-.72-1.42.07,0,0-.34,0-.46-.08-.76-.53-.2-1.08,0-1.79l.15.6.68-.16c0-.29,0-.57,0-.71l-1.39-.57-.38.86c-.75-.8-.15-1.86-.72-2.61,0-.06.17-.28.13-.36a1.72,1.72,0,0,0-.41-.66,9.57,9.57,0,0,0-1-.64l.7-.72a2.26,2.26,0,0,1,.25-.19c-.44-.37-.49-1.17-1.2-.94a2,2,0,0,0,.21-.67c0-.1-.25-.21-.43-.36l-.18,1.08.12-.06.52,1-1.39-.1,0,.24,1.19.21v.12l-.76.15.14.14-.74.78.52.57c.25.28.75.51.05.9-.18.09-.18.51-.25.78l.91.23.37-.76.28,0c-.42.65,0,.88.35,1.15.1.07.12.26.17.39l-.37.06a2.79,2.79,0,0,0-1.9.89c.23.06.4.17.51.13.38-.17.72-.43,1.11-.57s.8-.23,1,.36c.08.33.2.66.3,1l-.69.32-.54-.66c-.09.26-.15.47-.16.5-.3-.12-.52-.26-.59-.21a6.37,6.37,0,0,0-.71.69s0,0-.12,0c-.3-.22-.59-.46-.89-.69a1.46,1.46,0,0,1-.15.46,2.07,2.07,0,0,1-.4.38c0-.17-.12-.34-.16-.51s-.08-.33-.13-.56c-.66.77-1,.87-1.71.52l1.4-2.11-.79-.93,1-.27-.63-1.25-.19.49c-.55-.09-1-.14-1.51-.25-.14,0-.23-.26-.35-.39.14-.08.27-.22.4-.23a5.2,5.2,0,0,1,.81.07V74l-1-.07c0-.08,0-.15,0-.23.18,0,.38-.15.55-.11.71.19.84.11.88-.63l-.53-.29c-.31.25-.53.54-.82.62s-.51-.14-.78-.22-.51-.19-.57-.12a2.06,2.06,0,0,0-.27.68c.22.07.43.15.66.2a2.43,2.43,0,0,0,.47,0c-.7.77-.7.78.07,2l-1.58.28c0,.11.18.3.14.44-.1.35-.27.93-.44,1-.57,0-.43.29-.35.62a.7.7,0,0,1,0,.45,13.61,13.61,0,0,0-1.39,3,27.18,27.18,0,0,1-1.68,3.7,2.32,2.32,0,0,0-.07.5l.68,0-.92.56a1.08,1.08,0,0,1,.3,0c.19.1.38.23.58.34-.21.19-.4.38-.62.55-.06,0-.18,0-.27,0-.58.08-.68.32-.36,1l.72-.56c0,.69-.45.81-.85,1l-1.35.54.76.6c0,.17-.11.33-.2.6l.85-.43-.23-.48.13-.09.75.59a2.78,2.78,0,0,0,1.35-1.71c.07-.19.35-.34.57-.45.39-.19.8-.34,1.12-.46a4.75,4.75,0,0,1-.38-.81,6.37,6.37,0,0,1-.08-1l-.76.51c.26-.55-.31-.37-.5-.48l1-1.21c.1.17.18.49.32.52.66.1.78-.39.78-1.08l1.58.8s0,.13,0,.19c.15.45.5.51,1,.12l-.6-.3.51-.26A2.09,2.09,0,0,0,66,84a5.35,5.35,0,0,1-.92-.15c-.11,0-.1-.36-.15-.55.65-.12.59-.77.87-1.17.33.11.67.7,1,0a1.58,1.58,0,0,1,.56.11c.14,0,.3.23.41.21.75-.2,1.49-.44,2.23-.67L70,81.54c-.46-.24-.92-.46-1.18.29a3.08,3.08,0,0,1-.63-.36.5.5,0,0,1-.15-.4c0-.13.19-.33.29-.33.75,0,1.5,0,2.25,0,0,0,0,.07.09.14l-.43.16c.36.87,1,1.09,1.63.61l.37.46-1.29.29s0,.2,0,.44c-.51-.18-.8-.09-.71.49a.45.45,0,0,1-.07.32c-.3.42-.3.41.21.62.08,0,.14.15.21.23l-1.92,1.58c-.08-.37-.13-.6-.2-.9l-1.67,1.57c.55-.05.72.3.7.75,0,.84-.7,1.4-1.79,1.56-.09-.15-.17-.32-.32-.61a.93.93,0,0,0,.5,1.27l-.49.39L65,89.55l-.91.33v.36h-.62l.25.78-.15.12L62,90.22V91l-.56-.25.34.47c-.61.44-.68.79-.12,1.29a.57.57,0,0,1,.15.87c-.24.38-.52.73-.81,1.14l-.59-.64.73-.12v-.87L60.05,93c.11.35.19.57.3.9-.89-.64-.86-1.27-.1-2.05-.91.43-1.13.32-1.32-.47l.69-.56a1.64,1.64,0,0,0-2.3.87l.9.2,0,.18L57,92.32c.23.71.33,1.36-.67,1.32a1.34,1.34,0,0,0-.08.19c0,.59,0,1.18-.74,1.38-.51.15-1.19-.37-1.61-.82a2.22,2.22,0,0,1-.75-1.2s-.22-.08-.35-.12a1.2,1.2,0,0,0,.1-1.49l-.37.48a1.76,1.76,0,0,0-.63-.27,2.35,2.35,0,0,0-.71.27c.45-1,.74-1.08,1.29-.5a1.18,1.18,0,0,0,0-.53,1.68,1.68,0,0,1-.1-.68c.14-.6.4-1.16.51-1.76s-.13-1,0-1.42a2.38,2.38,0,0,0-.48-2.29c.77.45.78,0,.83-.34.08-.61.12-1.23.24-1.83a13.93,13.93,0,0,1,.41-1.44,3.21,3.21,0,0,0,.46-.6c.39-.81.75-1.62,1.07-2.45.12-.31.27-.76.13-1a.58.58,0,0,1,.13-.87,4.71,4.71,0,0,1,.9-.46c-.46-.3-.88-.72-.44-1.44l.33.58,1.14-.8c-.16-.37-.32-.71-.43-1l2.09-.54c-.11-.34-.17-.55-.24-.78l.58-.22-.05-.12L58.44,72c0-.61-.38-.63-.82-.63s-.91,0-1.19-.05c-.19-.81-.33-1.39-.44-1.88h1l.31.53,1.61-.81c-.66-.3-1.13-.48-1.55-.72-.11-.07-.15-.36-.13-.53.07-.45.25-.89.28-1.34s.22-.88.79-.92l.67-.05c-.23-.6-.45-1.16-.67-1.71l.73-.34-.22-1.35.29.13,1-.68c0,.14,0,.27,0,.42l1.3-.42c-.18-.16-.37-.46-.63-.55s-.45.17-.71.29c0-.42.16-.64.65-.61.22,0,.45-.24.69-.33a1.3,1.3,0,0,1,.68-.14.59.59,0,0,1,.31.47,2.09,2.09,0,0,1-.25.74c-.13.25-.29.48-.48.79l.26.2-.3.23,0,.08.86-.19c.27.42.61.33,1-.16a3.49,3.49,0,0,1,.68-.48l-.61,1.14,1.65.32c0,.54.11,1.12,1,1l0,.26-.67.15c0,.27.07.57.11.9l1.67-.66c.08.33.14.61.21.91l1.28.44-.88.52,0,.63h-.17c-.07-.13-.15-.26-.34-.58v1.07c-.38-.4-.66-.9-1.26-.41.64.45.26.72-.14,1,.09.2.15.36.21.5-.26,0-.67.06-.67.11a12.57,12.57,0,0,0,0,1.5,3.56,3.56,0,0,1,1-.31c.63,0,1-.38.93-1a3.13,3.13,0,0,1,0-.52c.48-.18.89-.31,1.26-.48s.74-.42,1.26-.71c-.08.36-.11.48-.14.63H71.5c0-1.34,0-1.34.65-1.54,0,.13,0,.26,0,.24l2.14-1.86h0L73.92,67l-1.47.8c-.44.24-.25.49,0,.77a3.8,3.8,0,0,1,.46.74c.17.41.29.83.5,1.42l.42-1.07c.52.7,1,1.27,1.36,1.85a3,3,0,0,1,.25.51c-.26.11-.51.22-.78.32l-.62.19.47.32c0,.3-.09.63-.13.9l-.83.52.16.18.36-.34a4.44,4.44,0,0,0,.09.89c0,.13.25.23.41.29a3.78,3.78,0,0,0,.63.1,1.41,1.41,0,0,1,.41-1.92c.12-.09.08-.41.11-.62a1.28,1.28,0,0,0,.41-.52c.2-.44.39-.88.58-1.31.11-.23.23-.46.34-.68l-.17-.11-.3.24c-.21-.37-.4-.72-.65-1.18l.51-.23A1.27,1.27,0,0,1,76,67.13l.53.41.46-.82-1.91-1.1c.38-.08.91.21.62-.45,0,0,.18-.29.29-.3a1.23,1.23,0,0,1,1.06,1c.54-.34.7-1.94.25-2.71l-.68.05.16-.75.18,0,.16.49c.68-.71.68-.9.08-1.39a1.37,1.37,0,0,0-.43-2c.06-.31.12-.6.22-1.09-.55.62-.94,1.07-1.34,1.51l-.15-.11L75.9,59l-.79-.26c0,.82.58,1.67-.44,2.25,1,.3.7.76.41,1.22h0v0a1,1,0,0,0-1.36.7l.76-.15c-.1.3-.33.66-.51.64s-.58-.32-.86-.49-.4-.07-.59-.15a4.26,4.26,0,0,1-.7-.47c-.29.68-.54,1.25-.76,1.75l-.77-.13c0,.63-.33.13-.53.18l1.36-1.58-.64-.07c.57-.25,1.21-.4,1.11-1.31l-.72.16c-.06-.3-.11-.55-.2-1-.23.6-.35,1.15-.82,1.05-.2-.6-.37-1.08-.56-1.66l.33-.31.5.7.22-.6c.58.35.9-.29,1.49-.29l-.6-.89a1.74,1.74,0,0,1,2-.2l.63-.89.7.46.56-1a3.9,3.9,0,0,1-2.68-.45l-1.56.2L70,57l-.18-.22.43-.53a1.82,1.82,0,0,1-.46-.11c-.08,0-.16-.2-.13-.26s.22-.2.25-.18c.69.5.94-.25,1.44-.42-.12-.17-.19-.36-.28-.37-1-.11-2.11-.62-3.13.26l-.13-.31.58-.17-.24-.3a1.75,1.75,0,0,0-.92.88c-.31-.31-.55-.74-.75-.72a3.28,3.28,0,0,0-1.09.52l-.3-.24-.49.42-.14-.34-1.21,1.22.37.87-1.58-.6c-.22.16-.46.49-.68.48-.81-.06-1.19.44-1.58,1a2.55,2.55,0,0,1-.61.51c-.78.57-1.61,1.09-2.35,1.72s-1.24,1.38-2,2-1,1.49-1.84,1.89c-.16.08-.21.35-.33.52s-.24.26-.35.4c-.56.68-1.17,1.32-1.66,2A11.44,11.44,0,0,0,50,68.51a.71.71,0,0,0,.54.86c.26-.49-.31-1.29.63-1.52,0,0,0-.21,0-.31,0-.47.36-.81.62-.51s.42,0,.6-.06a6.87,6.87,0,0,1,.23-.92c.06-.14.25-.32.37-.32s.3.17.39.31,0,.37.13.4c.39.14.29.39.34.72.08.62-.48.69-.68,1.06,1,0,1.12-.06,1.23-.52a.82.82,0,0,1,1.26-.53.56.56,0,0,1,0,1l-.63.44L54.81,68l-.16.16-.12,1.2-.15,0-.3-.57h0l-.68-.16c.11.66.2,1.24.28,1.7-.27.69-.52,1.33-.68,1.76.13.37.2.55.27.74h0c0,.12,0,.25,0,.38.34.45.34.45-.61.62,0,.36-.07.72-.11,1.08h-.2V73.61c-.26.39,0,1.1-.82,1a1.59,1.59,0,0,0-.07.2l1,.68h0l1.07.82c-.39.42-1.33-.17-1.12.88l.54-.14c0,.37.06.7.07,1,0,0-.22.08-.22.06a6.32,6.32,0,0,1-.25-.6l-.57.36.66.81-1.73.51c-.48-.82-1.41-1.5-.56-2.48-.37-.24-.71-.42-1-.65s-.6-.56-.9-.84v.18l-1,.13-1,.77-.12-.14.22-.4a1.5,1.5,0,0,1-1-1.73L48,75.36l.15-.12c-.81-1.16.82-.37.64-1L48.29,74l.66-.62a3.71,3.71,0,0,1-.82.1,3.52,3.52,0,0,1-.7-.28l.35-.52c-.49.24-1.53-.7-1.41.61L45,73.49a1.25,1.25,0,0,0-.62-.19,1,1,0,0,0-.33.09l.16.17.57.25-.86.35c.29.14.46.23.63.3s.37.12.73.24l-.69.35c.26.07.08.53.63.67.72.19-.51.45-.19.86,0,0,0,.12-.06.22l-.45-.08a2.82,2.82,0,0,0-.3-.93c-.1-.13-.43-.08-.66-.11l0,.2a1.41,1.41,0,0,1,.4.32c.06.09,0,.26,0,.39-.67-.2-.39.39-.54.63s-.29.24-.47.38c0,.13,0,.33,0,.51-.33.12-.62.21-.9.3l-.07-.13.64-.47L42,76.4l-.27.32a3,3,0,0,0-.87-.38,7.72,7.72,0,0,0-1.29.08c.14.22.33.49.56.82-.29.65-.51.08-.85-.35.08.54.13.89.18,1.28h-.64c.15.27.26.5.4.73.34.58.24,1.39,1,1.78.11,0,0,.57-.06.86a9.3,9.3,0,0,1-.41,1l1.35-.07c-.51.88-1.17,1.56-1.17,2.57a14.77,14.77,0,0,1-.46,2.61l-.84.59.13.28,1.16-.32c-.27.33-.46.58-.65.82l-.11-.1c0,.26,0,.53,0,.76l-1,.24c.13.16.23.32.35.45a3.31,3.31,0,0,0,.34.3l-.49.39,1.45.91-.86.7-.15-.17.28-.45-.14-.15-.62.48.11.09-1.46.27,0,.54a2,2,0,0,1,.76-.06c.68.22,1.28-.94,2-.12,0,0,0,0,.07,0l2-.26c0,.63-.09,1.17-.12,1.55-.25-.32-.44-.81-.79-1-1.08-.52-.93.76-1.54,1.08,0-.25.09-.5.13-.73l-.41-.34-1.66.34,0,.24.61.07c0,.13.05.27.08.46l.49-.54.15.14c-.23.29-.68.6-.65.87a1.66,1.66,0,0,1-.8,1.87,1.11,1.11,0,0,0,.54-.16,2.83,2.83,0,0,1,.71-.28c.74-.11,1.48-.19,2.25-.28a1.42,1.42,0,0,0,0,.56c.2.6-.17.49-.51.47a2.22,2.22,0,0,0-.63,0c-.4.06-.79.16-1.19.24l-.81.16.63.56c-.15,1.46-.8,2.75-.43,4.07-.34.11-.73.12-.83.3a3.82,3.82,0,0,0-.11,1.25c-.56-1.27-1.23-1.57-2.14-.73,1.06,1.36-.69.28-.63.76.59.38.61.56.18,1l-.48-.3c-.12.36-.24.72-.34,1l-1.77.11.06.13-1,.54c-.4-.47-1.12-.69-1-1.5.36.27,1.09,0,1.39-.53v0h0l.13-.71c-.62.9-.53,0-.73.06l-.71.11a4.16,4.16,0,0,1,.13-.72,7.29,7.29,0,0,1,.44-.89l-.66.1c1.17-1,0-1.73-.39-2.52l.18,0,1.07,1,.53-.53c0-.24,0-.49,0-.66L30,98.89c-.38-.15-.76-.33-1.15-.44a1,1,0,0,0-.58.08c-.57.29-1.53-.34-1.73.85L26.19,99l.64-1.59.31,0c0,.31-.08.62-.11.89L28.29,98c.34-.77-.95-1.24-.32-2.1.06-.08-.08-.3-.11-.46l-.21-1.19c0-.2,0-.5-.14-.58-.71-.44-.51-1.23-.73-1.85a2.49,2.49,0,0,1,.06-.92l-1,.21c-.06-.51.62-.64.43-1.26A11.63,11.63,0,0,1,26,87.33a1.09,1.09,0,0,0-1.63-.93c.32-.7,1-.45,1.45-.82-.35-1.73-.72-3.5-1.09-5.27a2,2,0,0,1-.09-.59,1.08,1.08,0,0,0-1-1.33c.3-1.54.3-1.54-.37-1.56.35-.36.34-.36,0-.76a.4.4,0,0,1-.08-.33A3.14,3.14,0,0,0,23,73.63c-.13-.38-.3-.24-.44-.32.15-.65-.45-.41-.85-.58.22-.1.35-.22.41-.19.44.21.54,0,.53-.38s0-.53-.05-.8a4,4,0,0,1,0-.77,8.09,8.09,0,0,1,.23-.91c.41-.14.65-.82.51-1.59-.34.33-.73.72-1.08,1-.68-.92-.21-1.64.08-2.37.41.15.39.69,0,1.42a3.47,3.47,0,0,0,.76-.82c.1-.16.19-.49.11-.59a1.52,1.52,0,0,0-.68-.35c-.11,0-.26,0-.43.06,0-.23-.07-.41-.09-.49l1-.14L22.74,65l-1,.26L22.92,64l-.14-.11H24c-1.24-1.78-2.15-.73-3.09.24-.14-.61-.25-1.06-.36-1.52l.66-.42c-.62,0-.62,0-1.4-1l.33-.1c0-.22-.1-.39-.05-.52.2-.54-.12-.82-.48-1.13a1.71,1.71,0,0,1-.28-.45l-.69.16A8.49,8.49,0,0,1,18,60.42c-.43.56-.85,0-1.27-.11a.67.67,0,0,0-.33,0c0,.7-.57.57-1,.7s-.87,0-.87-.4l-.85-.88-.13.11c.35.56,1.1,1.06.34,1.84l-1.13-.21,0-.16,1-.35-.61-.41,0,.18h-.82l-.06-.2,1.75-2-.5-.42.4-.11-.55-.77L15,57.4l.08-.29-1.29-.45-1.08.51c-.39.17-.53.39-.27.66l.9-.08c-.29.61-.54,1-1.14.59a6,6,0,0,1-.41.69,6.28,6.28,0,0,1-.54.49h0l-.61-.35a5.77,5.77,0,0,0-.1.71,5.44,5.44,0,0,0,.11.75H9.42c-.16.53.7,1.22,0,1.66-.72-.06-1.3-.14-1.88-.14-.13,0-.27.33-.39.51S7,63,6.91,63c-.46.2-.93.35-1.36.5l.61.6c.21,0,.53,0,.56.1.16.56.51.23.77.19A2,2,0,0,0,8,64.18c.19-.37-.46-.93.25-1.16.16.33.29.63.43.93l.19-.08L9,63.34l1,.79c-.08.35-.15.69-.23,1.05.95,0,1.69.47,1.65,1s-.13.87-.85.61l.55-.2-.22-.32-1.67.83a1.29,1.29,0,0,0,.12.12l.53.46-.53.21c-.22.08-.35.27-.7.1s-.88.4-.86.86c.34,0,.85-.23.71.62L10.6,69c-.28-.23-.4-.32-.52-.43a1.26,1.26,0,0,1,1.7.3c-.61.23-1.33.38-1.56,1.1-.38,1.21-.87,2-2.16,1.85,0,0,0,.07-.06.11.58.46.58.47,1.68.34.14,0,.25-.22.35-.31l.53.27c0-.23-.08-.42-.12-.61l.72-.12c-.47.19-.09.44,0,.79.36-.77.64-1,.76,0l.4-.2.36,1.37c0,.55,0,1.3,0,2,0,.42.28.58.69.34a1.57,1.57,0,0,1,.4-.09l-.13.79,1-1,.15.16c-.18.19-.35.38-.53.56h0v0h0l-.84,1.54v1.13L14.23,80H14a5.46,5.46,0,0,0-.08.68c0,.09.12.18.13.28.08.55.14,1.12.22,1.8.73-.53,1.08-.1,1.35.35.09.13-.09.42-.15.66L14.25,83c.12,1,.72.81,1.25.8a3.73,3.73,0,0,0-.62,1,3.05,3.05,0,0,0,.2,1.1l.86.6c0-.39,0-.5,0-.61-.06-.56.24-.44.55-.33,0,.24,0,.43-.06.76l1-.62.84.65,1-1.18c.81,0,.21.56.23.88L20,86l-.12-.14.6-.64c.13.41.2.64.22.72L22,85.57c0-.18,0-.37,0-.58l.51.1a1.86,1.86,0,0,1,.19-.55.38.38,0,0,1,.35-.09c.09,0,.2.15.22.24.06.38-.47.9-1.05.87L23,86.87c-.36.38-.41.78.15,1.22a.88.88,0,0,1,.08,1.4c-.07.08-.16.22-.13.29.24.63-.18.75-.57.79.19.44.36.85.53,1.26,0,0,0,0,.08-.06.55-.29.77.07.95.51L23.54,92c-.4.7-1,.2-1.42.29l.39,1.3-.24.09c-.09-.2-.18-.4-.24-.55H20.85l0,.21,1.38,1.11h0l0,0a1.42,1.42,0,0,1,.54,0c.37.13.71.31,1.07.47a2.48,2.48,0,0,1-.26-2.31l1.87-.09c0,.42.44,1-.27,1.33a1.33,1.33,0,0,0,.08.3h0l0,0h0a2,2,0,0,1,.47.26c.47.4,1.21.68.82,1.56h-.72c.1.61.08.63-.5.5,0-.17.13-.43.06-.5-.54-.49-.08-.83.18-1.2-.81-.44-1.3-.17-1.32.68-.4,0-1-.31-1.07.56l1.19-.22.26,1.54-.3,0c-.09-.29-.19-.58-.29-.91-.71,0-.55.5-.51.9a6.51,6.51,0,0,1,.12,1.15.65.65,0,0,1-.46.43c-.14,0-.38-.17-.49-.32s-.13-.45-.25-.64-.29-.33-.39-.3c-.36.11-.69.3-1,.44-.05,0-.13,0-.27,0L21,97.7l-1.27-1.09c.25-.54,1.08-.93.59-1.73-.71.49-.75.41-1.25-.14-.73.65-.78.93-.39,1.77a7.93,7.93,0,0,1,.31,1H18l.18.64a1,1,0,0,0,.05,1.52c.08-.16.16-.33.25-.5a2.31,2.31,0,0,1,.38.52c.2.59-.37.81-.46,1.19s.05.84.07,1.34l.92-.42-.47-.52c1.06,0,.42,1.06.94,1.4l.65-.49a1.63,1.63,0,0,0,.11.17,1.48,1.48,0,0,1-1.13.66,1,1,0,0,0-.72.52c-.06.2.21.53.4.77a1.38,1.38,0,0,0,.41.26l-.93.63a2.4,2.4,0,0,1,.43.32,1.18,1.18,0,0,1,.16.42l-.4.14c-.15.54-.31,1.1-.43,1.51l1.37.92.33-.53c.38.67.2,1.12-.28,1.39-.19.11-.3.35-.45.53.52-.31.86,0,1,.41a.63.63,0,0,1-.39.93c-.25.11-.38.48-.57.73l.68.4.23.15c-.5.49-.47.71.09,1.2l.64-.4a13.53,13.53,0,0,1,.56,1.66c.18.87.41,1.14,1.28,1.27.08.28.16.53.21.68l-.8-.21-.1.21a.88.88,0,0,1,.52,1.42l.91.06-.63,1.1.9.25c-.28.36.1,1-.55,1.07,0,.15.09.29.13.44s.18.4.14.57a.62.62,0,0,0,.66.77c.5,0,1,0,1.53,0-.21.93-.71.72-1.13.49-.14.45-.43.91-.33,1.22a2,2,0,0,1,.08,1.24,1.48,1.48,0,0,0,.11.67,11.26,11.26,0,0,0,.46,1.53c.2.47-.24,1.36.61,1.31.06.48.11.91.17,1.35l.67-.18c-.74,1.27-.26,2.36.17,3.58l.78-1,.62-.08.1-.21c-.57,0-.93-.11-.83-.68s.49-.71,1-.7c.19,0,.38,0,.77-.07l-.91-1,.17-.18,1,1,.5-.14a5.58,5.58,0,0,0,.16.78,4.9,4.9,0,0,0,.32.65l-.16.08-.34-.48-1.74.43.64.69c.57-.71.57.11.79.3.62-.07,1.06-.3,1-1s.55-.78,1-.85.62.34.58.79c0,0,.09.07.17.12.17-.55.44-1.1-.56-1.21l.85-.6-1.37-.31.5-.43,0-.22H28.94c-.09-.7-.17-1.24-.25-1.79l.28-.09.65,1.19c0-.49-.17-1,.5-1.22.39-.12.76-.28,1.17-.44l-.48-.58a5.48,5.48,0,0,1,.78-.66.58.58,0,0,1,.5,0,.43.43,0,0,1,.15.4c-.06.34-.24.66-.27,1a6.51,6.51,0,0,0,.08,1.07h.14c0-.14.09-.28.16-.52.29.7.61.67,1,.22s.4-.42.61-.32l-.51.84,1.64.33c.17.41,0,1.09.8.89,0,.17.08.33.11.5l-.54.06v.92a4,4,0,0,0,.68-.36c.2-.15.5-.38.49-.57s-.26-.49-.44-.72-.62-.46-.65-.72a1.53,1.53,0,0,0-1.22-1.39l.55-.34-.07-.19-.94.28-.44-.52c.53-.43.25-1.44,1.12-1.48l.74.65a7.69,7.69,0,0,0,0-1.1c.08-.9-.13-1.14-1-1,0,0-.07-.06-.18-.17.17-.25.37-.52.54-.8s.22-.36.18-.5c-.18-.65-.41-1.29-.57-1.75l-1.33.22c0-.2,0-.25.05-.29s.06-.1.1-.1c.69,0,1-.4.79-1.09a6.63,6.63,0,0,1-.18-.77c-.15-.87-.15-.87-1-.53l-.18-.49c-.08.23-.14.38-.26.68-.09-.31-.14-.46-.18-.6-.19.15-.33.36-.5.39-.55.09-.63-.1-.41-.91l2.15-.25c-.32-.79-.6-.84-1.35-.5a1.08,1.08,0,0,1-.77,0,3.19,3.19,0,0,1-.72-.51l1.37-.59-.46-.8.21-.11a3.33,3.33,0,0,1,.44.86c.13.73.13.74.86.32-.33-1.14-.65-2.28-.95-3.33h-.83c.05-.16.05-.38.16-.47a.9.9,0,0,0,.12-1.4l-.58.11c.12-.58.25-1.16.36-1.75,0-.22.14-.55,0-.65s-.45-.1-.83-.17c0-.2.06-.51.09-.73l.78.26c-.15-.34-.34-.58-.29-.69a1,1,0,0,1,.54-.33c.14-.05.36.08.46,0,.62-.44.66.12.86.48.38,0,.87-.66,1.08.17l1.05-.81c0-.48-.09-1-.13-1.6l1.05.19s0,.08.06.18c-.45.07-1,.11-.85.82.15.07.45.25.48.2.35-.42,1.2-.29,1.24-1.09,0-.1.34-.17.59-.29,0-.17.11-.45.19-.82.09.25.16.41.29.75.07-.38.1-.56.13-.74l.88.14c-.07-.24-.12-.43-.18-.63a1.5,1.5,0,0,1,.54-.2c.48,0,.34-.21.27-.46l-1-.07v-1c.22-.06.51,0,.58-.17a1.56,1.56,0,0,1,2-.73,2.35,2.35,0,0,0-.66-.61,1.75,1.75,0,0,1-.27-.16c-.07-.06-.11-.22-.16-.22s-.26.09-.26.15c-.08.82-.63.49-1.13.5a2.52,2.52,0,0,1,1.92-1.43c.08.37.17.73.29,1.27.46-1.1.46-1.1,1-1.08.12.34.23.67.34,1l-.84.11c.88.29,1,.21,1.37-.64a.34.34,0,0,1,.13-.16l1.3-.76,1.29.89v1a2.57,2.57,0,0,0,.63.36,1.9,1.9,0,0,0,.69-.16c.11.52,1.08.7.62,1.51l.21.12,1.65.86c.12.06.3.06.37.15.62.8,1.51.75,2.37.79.05,0,.11,0,.18-.09l-.47-.4c.87-.53.46-1.41.65-2.06l-.54-.07.86-.38,0-.17h-.71c-.11-.39-.22-.79-.34-1.19l1.65,1.56c-.61.07-.52.56-.49.93A13.48,13.48,0,0,0,53,104a4.24,4.24,0,0,0,.14.52l.26-1c.15.57,0,1.27,1,1.27-.17-1.21,1.18-.64,1.49-1.31,0,.45.08.9.13,1.53l1.82-.84c0-.1,0-.2.07-.3l.26.64.92-.45-.64-1,.16-.1.16.11c.31.28.58.68.94.79a2.06,2.06,0,0,0,1.13-.22c.09,0,.12-.3.14-.46s0-.55,0-1c.74.79,1.26.09,1.48-.1.44-.37,1.36-.58,1-1.44.26,0,.58,0,.67-.13.58-.79,1.12-1.6,1.66-2.42a.71.71,0,0,0,.11-.44c0-.15-.23-.42-.28-.4-.47.16-.93.36-1.39.55a1.19,1.19,0,0,1-.24,0v-.62L61.18,98c0,.13.11.34.16.52l2.3-.27-.72,1.26-.27-.62c-.08.27-.13.44-.21.74-.12-.28-.17-.42-.21-.51l-.84.42L61,98.62c-.05.39-.09.69-.13.94l-1.24-1c.11-.15.15-.27.24-.33.36-.27.72-.45.77-1,0-.22.68-.39,1-.6.07,0,.1-.17.21-.39l-1.25.18,1-.79c.87.2.38,1,.75,1.59L65,96.41c0-.15.08-.13.11-.08.35.5.82.3,1.26.24s.24-.43.33-.66.29-.53.07-.86c0,0,.26-.32.39-.49s0-.12,0-.19l-.62-.15c.3-.38.51-.84.88-.09.21-.37.33-.91.62-1,1-.34,1.09-1.28,1.63-1.92l0-.24-3-.27-.26.46a1.32,1.32,0,0,1,1-1c1-.07,1.27-.45,1.06-1.38a.22.22,0,0,1,0-.16l.74-.34-.59-.58.17-.28c.33.27.65.54,1,.83.14-.27.28-.53.43-.79a3.92,3.92,0,0,1,.25-.32l.37.38c.26-.54.5-1.06.78-1.66-1.07-.13-.22-1-.67-1.35l.12-.14ZM54.3,73.59h0c-.38.21-.57-.09-.8-.28C53.73,73.5,53.92,73.8,54.3,73.59Zm-31.41,35-.95.67.95-.67a1.14,1.14,0,0,1,.17.46A1.14,1.14,0,0,0,22.89,108.6ZM42.44,96.35l.23.22-.2.25.2-.25Z"/><polygon points="185.16 89.04 185.16 89.04 185.15 89.04 185.16 89.04"/><path d="M229.65,59.34c.74-.48,1.69-.21,2-1.17-.51-.36-.65-1.15-.15-1.47.3-.19.39-.88,1-.55s.84.35,1.17-.33l1.31.42-.51.22.22.6c-.16,0-.38.12-.48,0-.5-.35-.57-.33-.67.3l.62.22-.64.73c.79.4,1.06-.27,1.5-.75.06.28.1.46.16.72l.41-.43-.43-.53.4-.17h0l.78-.69-.77-.4,0,.4-.12,0L234.58,55c.7.58.7.58,1,.38-.11-.18-.21-.36-.32-.53l.63-.2-.11-.11.73-.8c-.06-.14-.13-.32-.21-.5l.17,0c.14-.4.27-.81.37-1.09l1-.32-.49-1-1.11.86c-.24-.94,0-1.18,1.42-1-.25-.43-.43-.75-.63-1.11.2-.61,0-1-.48-1.07-.31,0-.61-.09-.91-.14-.1.12-.33.47-.42.44-.24-.08-.42-.34-.65-.56-.12.26-.21.46-.32.68l-1.73-1.07c0,.42,0,.63-.05.82l-.29-.74c-.51.42-.86,1-1.67.54.51-.52,1-1,1.44-1.44a1.23,1.23,0,0,0,.37-.5c.12-.65.18-1.3.27-2a3.24,3.24,0,0,1-.7-.35c-.4-.3-.62-.24-.68.26a3,3,0,0,0-1.4-.34c-.16,0-.28-.34-.53-.66l1.39.1v-.74l-1.12-.1.32-.63-.81.09c-.11-.64-.7-.61-1.27-.63l.05-.26.59,0,.31-.52-.49,0v0h0v0c.09-.47.18-.93.27-1.44.37-.07.37-.07.63,1.27l2.23-.48,0-.3-2.11.4c.05-.42.1-.81.15-1.26l1,.37.36-.59-2.87-.87-.55,1.4-.2,0-.36-.81-.87.49v.94a3.24,3.24,0,0,0-1,0,6,6,0,0,0-1.06.74c.41.16.65.24.88.35s.28.3.4.29c.58-.09,1.15-.23,1.72-.35v0h0a3,3,0,0,1-2.6,2.87c.51.43.42.87.08,1.39.37-.07.78-.15.93-.39.35-.54.37-.6.93-.36a6.52,6.52,0,0,0-.57.87c-.16.33-.23.71-.37,1.07-.26.69-.55,1.38-.81,2-.12,0-.47-.07-.58.06a15.38,15.38,0,0,0-1,1.46c-.05-.27-.08-.49-.08-.51a3.36,3.36,0,0,1-1,.16,4.31,4.31,0,0,1-1-.37l.06-.46-.15-.11-.93.75-.35-.41,1-.55h0l1.77-.11-.56-.53.56-.38.41.72.18,0a2.15,2.15,0,0,1,.26-2c.07-.1.27-.21.32-.18s.25.25.24.36a1.75,1.75,0,0,1-.25.54l.12.14c.23-.16.56-.26.66-.48.39-.81-.41-1-.78-1.43-.12.15-.21.25-.37.43,0-.19-.09-.28-.06-.34a7,7,0,0,0,.42-1,18.19,18.19,0,0,0,.23-2,.81.81,0,0,0-.71-.92c.51.5.54.89,0,1.37a4.64,4.64,0,0,0-.72,1.16c.39.11.74.3.57.76s-.3.93-1,.65c-.53-.2-1,.15-1.22.63s-.47.9-.76,1.46l.32.64h0l.42.55h0l-.42-.55a1.77,1.77,0,0,0-1.27,1.11c-.29.71-.73,1.36-1.09,2.05a5.28,5.28,0,0,0-.42.94,4.57,4.57,0,0,0-.4,1.78c.13.75.13,1-.63,1-.85,2.36-1.26,4.78-.84,5.11.09-.51.19-1,.26-1.39l.88-.9.12.12-.22.58c.87,0,1.14.11,1.26.62l-1.1-.42c0,.39.08.81,0,.85-.62.32-.45,1-.71,1.43a5.72,5.72,0,0,1-.43.56c.13-.59,0-.75-.39-.66-.71.17-.94.53-.76,1.26a.72.72,0,0,1-.17.76c-.68.8-.58.64.14,1.26a3,3,0,0,1,.16.34c-.54.22-1.07.61-1.56.57s-1-1.15-.93-1.66h.86c0-.2.05-.36,0-.51,0-.8.25-1.64-.36-2.38a1.74,1.74,0,0,1-.24-.89c-.06-.64-.06-1.28-.14-1.92,0-.32-.25-.42-.54-.15a2.58,2.58,0,0,1-.44.22,2.87,2.87,0,0,1-.14-.56c0-.2.08-.42.05-.62-.07-.38-.19-.74-.28-1.11l.15-.07-.64-.38c1.1-.29.57-1.2.81-1.79.08-.18-.38-.59-.61-.92l.51-.21-1-1.66c-.86.09-1,0-.88-.63l.73-.37L209,48.19l-.13.21-1.3-.14a1.57,1.57,0,0,0,.18.45,2.87,2.87,0,0,0,.39.39l-.66.5c0,.06,0,.27-.07.51-.78-.16-1.49-.73-2.23,0-.08-.31-.13-.5-.21-.84-.4.74.52,1.85-.86,2l.3-.43c-.36-.14-.72-.24-1.05-.4-.11-.06-.13-.29-.19-.43a1.87,1.87,0,0,1,.49-.2c.11,0,.23.12.34.18l.49-.64H202l.74,1.63c-.6-.05-1-.78-1.36.15-.26-.6-.33-1,.26-1.26.1,0,.15-.38.1-.54s-.27-.32-.52-.6c.29,1.19-.63.61-.95.74.17.3.42.54.37.7a.8.8,0,0,1-.54.52c-.55.09-1.07.13-1.28.79,0,.07-.31.06-.49.09,0-.16.08-.32.13-.48s.11-.22.17-.34a1.55,1.55,0,0,0-.43,0,1.21,1.21,0,0,0-.35.19c-.12-.28-.23-.52-.39-.9-.19.63-.3,1-.41,1.39l.18.06-.66.34.79.33-.76.45.2.23,1-.3c.11.21.22.41.22.43-.15.4-.23.65-.34.88a1.72,1.72,0,0,1-.45.65,10,10,0,0,1-1.27.63l.16.78-.77-.33c.13-.43.24-.84.37-1.28-.43,0-1.06-.53-1.41.19-.25.5-.5.29-.87.29l1.14-1.07-.16-.43.68.14c-.25-.28-.37-.42-.5-.55l.06-.15.8.27.82-1c-.78-.28-.37-1-.58-1.5h-1.56a2.44,2.44,0,0,1,2.66-.57c.15.07.4-.11.61-.17v-.2l-.93-.37a1.35,1.35,0,0,1,.32-.31c.47-.25.57.36.93.45.18,0,.29.34.47.49s.46.4.66.38.57-.32.31-.67a1.94,1.94,0,0,0-.66-.54,6.78,6.78,0,0,0-.94-.36c.26-.46.44-.76.61-1.08.36-.65-.31-.61-.57-.85-.11-.09-.16-.23-.26-.31a3.32,3.32,0,0,0-.81-.61c-.63-.26-1.34-.34-1.94-.64a2.17,2.17,0,0,0-2.24.11c-.17.09-.55.09-.56.17-.07.63-.42.39-.77.3s-.56,0-.82-.12c-.11,0-.21-.22-.23-.35s.1-.23.15-.35l-.11-.08-1.18.9c-.28-.81.27-.9.64-1.12l-.38-.1.31-.29-1.67-.88c-.22.34-.49.38-.85.11a.7.7,0,0,0-.53-.1,11.54,11.54,0,0,0-1.15.44,6.22,6.22,0,0,0,1,.59c.45.19.35.43.12.66s-.46.24-.55.17a1.16,1.16,0,0,1-.44-.65c-.11-.63-.33-.86-1-.61a1.1,1.1,0,0,1-1-.25c-.48-.74-1,0-1.46-.21.33.44,1.08-.06,1.31.79-.67-.18-1.26-.34-1.85-.47a1.6,1.6,0,0,0-.56.07c.07.16.13.33.22.54l-.4.12.2,1.45.18,0c0-.19,0-.38.05-.56l.63-.1c-.26-.81-.12-1,.73-.82-.06.41.48,1-.48,1.09-.06,0-.14.22-.16.34,0,.29,0,.59-.07.79l-1.05.52c-.12-.3-.23-.6-.36-.92-.11.32-.15.72-.27.75s-.76,0-.8-.17c-.15-.6-.65-.44-.92-.37-.6.15-.82-.23-1.1-.58-.09-.11-.17-.23-.35-.47,0,.38-.05.59-.08.88a4.14,4.14,0,0,0-.94-.34c-.36,0-1-.35-.88.49,0,.1-.16.21-.24.31-.08-.11-.15-.23-.23-.33s-.08,0-.15,0l-.09.49c-.29,0-.58-.09-.78,0s-.74.41-.82.7.23,1,.35,1c.52,0,.44.22.4.55h-.91a1,1,0,0,0-.56-.41c-.64-.23-.92.2-1.1.68-.08.22-.84.52,0,.75a1.6,1.6,0,0,1-.2.34c-.14.14-.3.25-.44.37l1.11.29c.56-.52.74-.49,1.13.15a1.55,1.55,0,0,0,.36.31l.77.66c.67.48-.47,1,.06,1.42l-.71.33c0,.16.05.32.06.38l-1.58.45v-.67a6.66,6.66,0,0,1-.64.26c-.11,0-.28.11-.35.06-.47-.34-.62,0-.69.36s-.12,1-.17,1.53l.67.12c0-.19,0-.33.07-.47l.59.6-.11.1.57.19c0-.93.6-.17.9-.34a10.54,10.54,0,0,1,1.19-.45c-.1-.28-.24-.66-.37-1,.19-.06.5-.14.79-.25s.45-.21.68-.32c.06.29.25.62.16.85-.31.81.3,1,.77,1.23s.88.45,1.42.72c0,0,.15-.17.33-.38l-.61,0,.43-.58c.29,0,.59.18.73.09a7,7,0,0,0,1-.86,6.68,6.68,0,0,1,.95-.9,26.74,26.74,0,0,1,2.6-1.48,4.84,4.84,0,0,1,1.54-.43c.53-.07,1.05,0,1.6-.1a12.29,12.29,0,0,1,2.19.2c.68,0,1.35.67,2,1.07.28.17.53.38.85.62,0,.1,0,.4-.16.52-.3.26-.21.39,0,.65a3.57,3.57,0,0,1,.34.86,2.09,2.09,0,0,1,.69,1.68c-.06.22-.3.4-.31.61,0,.61,0,1.22,0,1.83,0,.15,0,.42.07.45.78.34.41,1.17.91,1.75l-1,0,.37,1.74.14-.06c.11-.27.21-.55.31-.82a2.13,2.13,0,0,1,.62.37c.09.11,0,.37,0,.6l-.46-.2a2.17,2.17,0,0,1-.13.73c0,.07-.38,0-.78-.09a6.64,6.64,0,0,0,0,1.18c0,.09.39.13.6.17,0,0,.11-.06.19-.11l-.31-.41,1-.47c0,.22-.06.41-.08.61l-1.48,1.43c.09-.35.14-.58.2-.82l-.2-.07c-.13.25-.39.51-.38.75a6.25,6.25,0,0,1-.52,2.44c-.46,1.29-1.15,2.47-1.73,3.7-.38.82-1.53,1.43-.83,2.51-.27.05-.57,0-.66.15-.31.42-.55.89-.82,1.34a7.42,7.42,0,0,1-.66,1.08c-.29.36-.48.63.06.92.08,0,.12.17.23.32l-.71.31.63.33-1,.32-.52-.76-.81.79c-.39-.29-.45.19-.76.72.47,0,.82.1,1,0s.33-.47.5-.71a1,1,0,0,0,1.62.71l-.28-.56.19-.15c.52.17.56.75.71,1l-.48,1.23-.36.79-.38-.84.33-.31c-.09-.08-.19-.22-.29-.22a.9.9,0,0,0-.54.15c-.09.09,0,.33,0,.49,0,.42.27.89-.45,1.1-.33.09-.59.55-.79.89s-.43.52-.85.35a.62.62,0,0,0-.31,0l-.55,1.31,2.06.36c.07-.17.16-.41.26-.67l1.09.92-1.2.22.09.13-.6.55L183,88c-.41.38-.85.59-1.18-.12-1.21.9-.06,1.89-.12,2.72l-1,.08c.06.19.12.38.18.59l-.64.15.9.63,1-.9c.37,1.12,1,.65,1.61.45l-.48-.37c.31-.27.59-.49.87-.72l-.09-.08-.67.28c-.17-.29-.3-.53-.46-.76s-.29-.37-.44-.55l.15-.15a4.68,4.68,0,0,1,.54.09c.16.05.3.19.46.21s.23-.1.34-.16l-.05-.15-.91-.14-.1-.19c.25-.17.49-.45.75-.47a2,2,0,0,0,1.44-.8,1.24,1.24,0,0,1,.46-.23l-.05.19.85.58c-.42.55-1,0-1.62.21.29.17-.34.66.4.61l.18-.13.31.71.52-.5c0,.56.06,1,.09,1.48l.32.06c.13-.33.26-.65.37-.91l1.13.18c-.09-.53-.29-.94-.18-1.23a1.64,1.64,0,0,1,.84-.8c.25-.11.63.08,1,.13a1.44,1.44,0,0,0,1.4-1.32,3.06,3.06,0,0,1,.13-.66,3.25,3.25,0,0,0-.83-.28c-.73-.06-.91-.23-.81-.82l2.77-.46c.24.54.26.93-.37,1.16.18.1.37.17.45.11.7-.56.32-1.17.14-1.57l-1.72-.63a2.89,2.89,0,0,0-.92-.29c-.15,0-.32.29-.46.47s-.1.21-.18.28a5.84,5.84,0,0,1-2.12,1l.46-.85.05.13,1.4-1h-.57c.07-.41.32-1,.17-1.11-.56-.6.11-1.1-.14-1.64h.19c0,.26.08.51.14.87.53-.64.73,0,1.21.33-.19-.69.36-1.35-.57-1.66l.7-1.13a1.29,1.29,0,0,1-.1-1c.15-.24.6-.29.93-.41.1,0,.3,0,.33,0s.13-.37.07-.46a4.31,4.31,0,0,0-.6-.54l.83-1.24h-.15c0-.38-.08-.76-.11-1.14l.26-.08.66,1a1.51,1.51,0,0,0,0-.57c-.11-.73-.11-.73.59-.66a.61.61,0,0,0,.27,0l.83-.3-.62-.67c.65-.1.76-1.16,1.76-.4-.16-.56-.25-.9-.34-1.23l.16-.09c.11.2.31.41.29.6,0,.42.25,1-.36,1.12-.07.59-.13,1.11-.19,1.65.15,0,.37-.07.44,0,.46.52.7.1,1-.18a3.29,3.29,0,0,1,.68-.38l-.67,1.1,1.65.29c.26.23-.05,1.08.83.75-.15-.28-.37-.52-.37-.76,0-.81-.55-1.12-1.23-1.41l.46-.3a1.59,1.59,0,0,1-.07-.2l-.87.23-.51-.47c.57-.44.25-1.59,1.37-1.62,0,1,1,.5,1.43.94-.13-.54-.24-1-.34-1.43l.22-.11,1,1.48c-.17.32-.35.64-.55,1l.82.35c-.35-.66.44-1.14-.1-1.69a1.18,1.18,0,0,1-.15-1.58l.84.28c.12-.54.26-1.06.35-1.59a4.5,4.5,0,0,1,.17-1.35c.51-1,.54-1.16-.18-1.78.05-.21.09-.42.17-.72l-.68.22c.33-1,1.49-1.62,1.2-2.56.33-.54.55-.93.79-1.31s.34-.64.6-.75c.6-.25,1.18-.8,1.09-1.41-.14-.9.67-.73,1-1.07,0,.45.11.89.16,1.33a.58.58,0,0,0,.34.49c.46.21.92.54,1.45.12s.69-.46,1.09.32l-1,.3V62l-.59-.34c.26.82.47,1.46.67,2.1h.22v-1.7h.15l.58.86c-.17.36-.3.61-.42.86s-.16.39-.25.58-.13.23-.2.35a1.5,1.5,0,0,0,.4.2c.55.07,1.14-.4,1.68.08,0,0,.17-.14.26-.22l.12.07c-.09.29-.18.59-.31,1-.19-.21-.27-.38-.37-.39-.39,0-1.08-.13-1.13,0-.28.74-.93,1.51,0,2.42h-1.1l.6-2.34-2.05.11v.27l.68.06c0,.13,0,.25,0,.39l.63-.67c0,.18,0,.21,0,.22a3.54,3.54,0,0,0-.72,2.11c0,.08-.34.72-.81.18a.41.41,0,0,0-.7.13c1.17.5,1.17.5,1.51.08.25.57.24.6-.52,1.08l.94.5c-.1.29-.22.59-.31.89-.16.58-.31,1.17-.5,1.88,0,.22.09.62.13,1a2.58,2.58,0,0,1,0,.48l-.43-.2a2.59,2.59,0,0,0,0,2.61l.12-1,.26,0c-.1.62-.25,1.23-.29,1.85,0,.33-.21.82.43,1,0-.17,0-.3,0-.29.28.11.56.21.83.34a3.46,3.46,0,0,1,.45.29l-1.47.12c-.06.29-.13.62-.19.95l.88-.14-.59.67c1.47.93,1.5,1.1.26,2.15l1.59-.22.7,1a5.63,5.63,0,0,1,.21-.54s.22,0,.22.07c0,.58.46.34.61.39.11-.35.2-.64.3-.92l.35.77a2,2,0,0,1,.54-.27,1.22,1.22,0,0,1,.66.07c.49.2,1,.45,1.41.68.5-.8.61-.82,1.16-.37-.47,1.5-.44,1.76.23,1.72V83.6l.3.62.43-.61.15.14c.22-.25.44-.5.65-.72l.65.73-.52.28.23.47c-.58.46-.83,0-1.1-.38a2.61,2.61,0,0,0,.14,1.11c.11.25.42.41.68.64.3-.22,1.3.07.7-1,.39.41.9.7.44,1.37-.16.23-.12.59-.23.87a.43.43,0,0,1-.37.24c-.14,0-.26-.18-.3-.21.1-.3.18-.55.3-.89-1,.24-1.12.5-.9,1.31,0,.16-.18.49-.36.58-.76.39-.87.64-.53,1.42l.45-.76c.46.44.84.8,1.22,1.18a3.68,3.68,0,0,1,.34.44,3.19,3.19,0,0,0,.42-.4,3.66,3.66,0,0,0,.28-.56l-1.23-.17V87.48l.75,1.27.27-.38c.44.12.88.38,1.09.25s.3-.62.43-1l.11.09a1.71,1.71,0,0,0,.23.13,2.11,2.11,0,0,0,.1-1.41c0-.28.27-.59.27-.89s-.38-.62-.3-.75c.44-.68.09-1.34.06-1.87l1.08-.71c-.65-.43-.5-.72-.1-.9a3.07,3.07,0,0,1-.11-.5c0-.73.75-1.07.87-1.87a20.47,20.47,0,0,1,1.37-3.62,1.83,1.83,0,0,0-.21-2l-.12.65-.28-.74c.82-.11,1-.47.65-1.18a2.71,2.71,0,0,1-.13-.7h0l.09-.94.59-.13-.2-.52c.91-.4,1-.77.33-1.49a1.81,1.81,0,0,1,.11.58.51.51,0,0,1-.3.29c-.07,0-.28-.17-.27-.23a5.28,5.28,0,0,1,.31-1.26c0-.08.47,0,.57,0,.12-.31.21-.57.32-.82.2-.44.62-.92.55-1.31a.73.73,0,0,1,.16-.67,1.37,1.37,0,0,0,.2-1.52,1.51,1.51,0,0,1-.07-.76,4.77,4.77,0,0,1,.38-.86,2.39,2.39,0,0,1-.81-.32,2.51,2.51,0,0,1-.34-.76c-.66.43-.87.35-1.22-.49l.85-.58-1.84-.14c.13-.48.24-.9.36-1.38l1.3.46.19-.47,1.4.91.11-.17a3,3,0,0,1-.27-.24l1.06-1.5.39.09-.42-.56,1.05-.13-.19-.33.51-.1c-.1-.64-.18-1.16-.27-1.72h-1.53a2.11,2.11,0,0,1,2.36-.67c.66.19.76-.11.93-.51.34,0,.7,0,.65.51,0,.08.4.29.6.28s.33-.34.32-.52a.64.64,0,0,0-.7-.68,2.42,2.42,0,0,1-.73-.21,6.44,6.44,0,0,1,.55-1,1.67,1.67,0,0,1,.55-.28,2.34,2.34,0,0,1,.18.48,1.91,1.91,0,0,1,0,.54l1-.12-.59-.66-.21.08c.09-.26.19-.51.29-.78a2.62,2.62,0,0,0,3.18-.59c-.51-.28-1-.44-1.26.24-.43-.25-1.07-.36-.56-.94l3-.14,0,.19-1,.2c.43.92,1,1.09,1.63.49l.88.6-1.68.3c.4.78-.54.13-.64.52.54.39,1.76-.35,1.81.9-.44-.07-.89-.28-1.2-.15s-.3.63-.47,1c-.84.15-1.21.74-1.09,1.83l-.5-.7-.31,0c-.09-.31-.16-.56-.24-.86l-1.11,1.28-1.48.52.06.22,1.62-.24a3.53,3.53,0,0,1-.32,1.3,9.53,9.53,0,0,1-1.4,1.23c.13.52.56.59,1.27.23Zm-49-5.76-.13.2c-.06-.06-.16-.13-.23-.19s.17.13.23.19l.13-.2a2.12,2.12,0,0,0,.24-.4A2.12,2.12,0,0,1,180.61,53.58Zm15.6,10Zm0,0h0a.47.47,0,0,0,0,.26A.47.47,0,0,1,196.21,63.59Zm-2.67-1h0l-.41-.47Zm0,1.08h0l-.1.74ZM207,70.13a.76.76,0,0,1,.26-.2A.76.76,0,0,0,207,70.13Zm-.16.41h0Zm3.29,2.7c.17-.2.07-.42-.22-.63C210.24,72.82,210.34,73,210.17,73.24Zm9.59-11.42h0l-.11.06A.6.6,0,0,1,219.76,61.82Zm-1.13-2.66s0-.06,0-.07h0l-.15-.46.15.46s0,0,0,.07l.3.27Zm-3,3.82-.14-.36h0Zm11.6-18h0l.33.6Zm1-4.24-.47.17.47-.17Z"/><path d="M169.42,56.46h0Z"/><path d="M189.45,44.58h0Z"/><path d="M153.48,40.93h0Z"/><path d="M152.74,70.77h.07l.13,0-.5,1.08,1.43.11c-.1-.67,1.07-.9.62-1.74-.55.55-.55.55-.88.36l1.75-1.41c-.2-.42.42-1.17-.55-1.53a10.74,10.74,0,0,1,2.25-.82c.44-.1,1,.27,1.21-.23l1.11.42c.06-.36.11-.71.19-1.17-.91.31-.76-.44-1.08-.74,1-.36,1.08-1.29,1.38-2l-.9-.83-.12.13a1.39,1.39,0,0,1-.47,1.74c0-.92.07-1.85.11-2.86l.74.49c0-.3-.26-.55-.21-.64s.34-.26.54-.35.56-.21.84-.32c0-.09,0-.18,0-.27l-.56-.27c.36-.38.36-.39-.08-.55,0-.09-.06-.22,0-.25.68-.47.24-.86-.08-1.32,0,.25,0,.44-.05.73-.54-1-1.42-.11-2.09-.54,0-.2,0-.42.06-.64h.16l.25.41a4.76,4.76,0,0,0,.87-2.78.34.34,0,0,1,.13-.27c.59-.23.05-.71,0-.73a8,8,0,0,0-1.69-1,3.17,3.17,0,0,0-1.2.1l.12-.11-1.07-.78c.19.3.37.61.63,1a9.7,9.7,0,0,1-1.53-.11c-.55-.11-.89,0-.93.45l-.69-.13a1.14,1.14,0,0,1,0-.32,3.87,3.87,0,0,1,.4-1,2.87,2.87,0,0,1,.8-.59c.09-.05.24,0,.36,0a.56.56,0,0,0,0-.18c-.14,0-.33-.12-.43-.06-.56.29-1.24-.46-1.74.23l-.09,0c0-.14-.07-.3-.12-.51l-.61.41c-.47-.6-1-.55-1.65.13-.52-.18-.58-.46-.31-.74l1.37-.18c.09-.27.1-.53.24-.66.52-.47,1.09-.9,1.61-1.32l.87.27c.27-.11.64-.13.8-.33.43-.51.84-.38,1.27-.05.06-.23.08-.56.16-.58.71-.12.47-.57.36-.88l.43-.44h-.89a4,4,0,0,1,.77-.68c.1,0,.36.19.55.31.68-.68.69-.68.55-1.23-.23-1-.47-1.93-.74-2.89a12.51,12.51,0,0,0-.45-1.25c-.25.15-.46.38-.58.34-.64-.21-.7.1-.7.66l-.39-.6c-.65.52-.9.44-1.06-.3-.75.06-1,.56-1,1.25l-.61-.2-.06.53-.48-.31.07.21a13.12,13.12,0,0,1-1.46.91c-.09.05-.37-.3-.62-.51l1.12-.69c-.65-.21-1-.42-.61-1.13a6.33,6.33,0,0,0,.48-1.45c-1,1.27-1.78,2.6-3.59,2.76-.08.28-.15.59-.22.83.29,0,.56-.1.67,0a.76.76,0,0,1,.19.58.91.91,0,0,1-.2.64c-.52.45-.23.94-.21,1.52l.38-.29c.33.7.58,1.41-.15,2.07l.71.16-.15.13c.25.45.49.91.75,1.36.36.63.22.89-.53,1-.36,0-.71.13-1.11.2-.23-.91-.86-.22-1.36-.2-.1,0-.24,0-.31,0-.39.34-.38.35-.58-.11-.57.62-.94.29-1.32-.49-.33.55-.59,1-.85,1.39l-.55-.3v.56l-.46-.16.06.21-1.31.82-.29-.72c.26-.19.51-.29.61-.47s0-.38,0-.61l-.58.18-.15-.18.73-.69-.72-.27c-1,.47-1.39,2.07-2.9,1.68-.09.23-.17.41-.25.59l-.13,0c0-.34-.09-.69-.12-.92l-.9-.42c-.41-.2-.56-.12-.62.37l.91.06V51c-.75.09-1.5.19-2.26.27-.08,0-.17-.1-.26-.15a1.78,1.78,0,0,0-1.66.29c-.09-.28-.17-.53-.27-.81a.88.88,0,0,0-.26.1c-.92.52-1.83,1.07-2.77,1.56a2.28,2.28,0,0,0-1.18,1.15c-.25.55-.53,1.32-1.46,1a.28.28,0,0,0-.26.07c-.4.47-.78,1-1.21,1.48-.08,0-.4,0-.53.09a27.72,27.72,0,0,0-2.15,2.33c-.25.31-.58.82,0,1.26,0,0-.09.32-.14.5l-.61-.81c-.18.31-.37.62-.62,1.06l-.69.53c.08.26.19.43.15.48-.27.36-.58.69-.86,1a1.29,1.29,0,0,0-.33.49c-.13.57-.21,1.16-.31,1.79l-.29-.32c-.11.14-.17.29-.28.36a4,4,0,0,0-1.67,2.19c-.11.3-.35.55-.46.84-.33,1-1,1.83-.57,2.93-.86.29-1.12.6-1,1.28,0,.16.33.26.52.4-.24.34-.54.74-.84,1.15l-.15-.07c0,.45.1.89.15,1.36l1.3-1L115,74l-1.18,1,.72.11-.08-.13.84-.5.36-.66L116,74l-.41,1.37.71-.31c.07-.31.07-.74.2-.78a2.94,2.94,0,0,1,1,.08c.09-.29.18-.68.33-1,.07-.17.25-.39.39-.4a.7.7,0,0,1,.48.31,7,7,0,0,1,.43,1l-.09.69-.64.47c.6,0,1.3.34,1.28-.65,0-.32.89-.66,1.16-.46a1.19,1.19,0,0,1,.4.69c0,.13-.22.4-.39.44a4.46,4.46,0,0,1-1,0c0,.35-.05.78-.08,1.37l-.51-1c-.67.32-.72.8-.26,1.75a3,3,0,0,0-.62,2.92l.36-.94c.55,1,.95,2.14,2.28,1.33,0,.33,0,.59-.08.85a1.41,1.41,0,0,1-.14.44c-.07.17-.17.32-.25.48l.44.23c0-.47.09-.87.13-1.27l.19-.18c.12.7.47.66.92.35-.09.56-.17,1-.24,1.46l-.51-.2c.19.45.36.88.54,1.31l-.79.17a1.62,1.62,0,0,1-.06.48.33.33,0,0,1-.29.14c-.09,0-.26-.14-.25-.18.15-.52-.41-1.08.08-1.58,0,0,0-.08,0-.18l-.46,0,.08.37-.67-.14c0,.31.19.8-.48.57-.13,0-.38.23-.57.36l.11.12,1.1-.21.07.13-.39.43c.27.35.85.59.36,1.16l-.73-.94-.17.12c0,.49.06,1,.14,1.47s0,.91-.54.88c-.22,0-.57-.43-.61-.7-.09-.62-.44-.53-.85-.51a1.38,1.38,0,0,1-.46-.15l.07-.16-.62.22-.8-1a3.57,3.57,0,0,1,.51-.79c.22-.22.54-.49.8-.48.77,0,.74-.44.81-1.12l-.87.57c0-.09-.05-.18-.05-.18-.39.19-.72.48-1.06.49a4,4,0,0,1-1.21-.39s0,.17,0,.24a1.15,1.15,0,0,0-.07,1.64,3.32,3.32,0,0,1,.31,1.06l-.83-.09a9.08,9.08,0,0,0,.2,1.2c0,.17.26.3.4.44s.19.44.26.62l1-.18-.59.45s0,.08,0,0c.18.28.42.51.45.76a.58.58,0,0,0,.78.53c.39-.18.69-.16.86.16s0,.5,0,.75l1,.18c0,.46-.09,1,.07,1.06a2.91,2.91,0,0,0,1.1.22l.21-.89.18,0c.09.19.26.38.25.57a1.77,1.77,0,0,0,.91,1.69c.7.47,1.65.62,1.94.28a4,4,0,0,0,.77.62c.19.08.47,0,.81-.09l-.44-.55,1.17-.13-.08.69.16,0c.08-.35.17-.71.25-1,.3.07.54.11.77.18s.49.16.73.25c-.17.24-.32.51-.51.73s-.24.07-.37.1l0,.15,3.07-.35v-.19l-.42-.13v-1.3h-1.76l1.11-.91c0-.56,0-.56.48-.46l.3.57a6.72,6.72,0,0,0,.66-.5,2.55,2.55,0,0,0,.34-.52l1.59.77-.38.54a2.52,2.52,0,0,0,.95-.08c.1-.06.12-.48,0-.65s-.4-.22-.61-.32l-.91-.39.48-.52a.25.25,0,0,0,.06-.13c.12-1,1.22-.24,1.57-.85.43.44.93.15,1.41.14a1.45,1.45,0,0,0,1.48-.81c-.5-.35-.91-.37-1.19.18a2.48,2.48,0,0,1-.54-.25.5.5,0,0,1-.17-.38.57.57,0,0,1,.37-.31c.88-.07,1.77-.1,2.86-.15-.22.24-.32.43-.44.45a2.32,2.32,0,0,1-.66-.07c.32.92,1,1.09,1.46.65.56,0,1,.08,1.39.09a3.55,3.55,0,0,0,.55-.06c.33,0,.67,0,1-.06.64-.08,1.33-.48,1.8.39.38-.68,1.69-.47,1.41-1.7-.81.28-.18-.3-.29-.51-.74.36-1.54-1.12-2.14,0l-1.45-.24,1-1.27.76.13c.2-.53.37-1,.53-1.37-.56.69-1.17.41-1.85,0,.09.3.15.48.2.66l-.79.32-.48-2.43-.28.06c.2.94.36,1.89.63,2.81.13.47.28,1-.15,1.18s-.77,0-1.24-.07c0,0,0,.2-.05.43l-.57.08c-.17-.66-.17-.66-.64-.56l0,.48a1.47,1.47,0,0,1-.49-.13c-.35-.23-.65-.54-1-.74s-.78-.06-1.06.34c0,.06-.28,0-.41,0a5.33,5.33,0,0,0-.63.32,2.21,2.21,0,0,1,1.86-1.68c-.09-.5-.13-.85-.22-1.19-.18-.75-.19-.74-.46-.7.08.29.16.58.25.87a1.57,1.57,0,0,0-1.77,0,8.18,8.18,0,0,1-2.18.42c-.52.08-1.18,0-1.51.24s-.58,0-.87,0-.71,0-.81.13a8.33,8.33,0,0,0-.6,1.39L125,86.9l.61.33c-.52.13-1.11.13-1.17.31-.33,1-.79.26-1.21.17a2.72,2.72,0,0,0-.49,0s-.07,0-.13-.1.11-.32.16-.49l-.16-.17-.93.76c-.44-.38-.43-.55.13-.77l.62-.25h0a1.6,1.6,0,0,1,.47-.08,5.54,5.54,0,0,1,.67.18c0,.07,0,.14,0,.21.69-.28.69-.28.12-1,.72-.64.67.93,1.1.61a4.5,4.5,0,0,1,.09-1.58c.3-.63.08-.92-.42-1.2l-1.29-.71a1.91,1.91,0,0,0-.29-2,8.35,8.35,0,0,1-.78-1l1-.12c.09-.44.15-.68.19-.93s0-.63-.4-.65c-.27,0-.54,0-.91,0,.57,1-.73.86-.77,1.38l-1,.21c0-.21.08-.43.13-.65.75.07,1-.11,1.15-.95a11,11,0,0,0-.06-1.7c.58-.16.57-.15,1.06.19a.43.43,0,0,0,.41,0,8.93,8.93,0,0,0,.6-.91c-.45-.29-.78-.49-1.16-.72l1-1c-.15-.28-.45-.59-.44-.89,0-.49.45-.62.91-.62a5.52,5.52,0,0,0,.65-.11c-.12-.3-.21-.5-.23-.55a6.4,6.4,0,0,0,.74-.78s-.26-.3-.43-.49-.08-.48-.12-.74l.92.32c-.34-.78,0-1.08.52-1.33.21-.11.48-.34.49-.53.06-.85.75-1.12,1.31-1.58,0-.15-.07-.34-.09-.41a4,4,0,0,0,.72-.53c.31-.38.56-.8.85-1.23,0-.07-.12-.23-.23-.43,1.23,0,1.51-.28,1.74-1.81a7.18,7.18,0,0,0,1-.39,1.2,1.2,0,0,0,.49-.53c0-.1-.23-.29-.31-.46a2.61,2.61,0,0,1-.12-.5l1.33-.2.82-.66-.31-.3,1.42-.38c.64.24,1.33.15,1.45-.07.4-.1.79-.08.87-.23.31-.53.6-.63,1.08,0v-.81c.53.58.81.68,1.06.38.44-.54.7-.3.95.15.16.28.27.62.72.25a11,11,0,0,1,1.38-.88l1.12-.15-.69,1c0,.13.05.38.09.62.43,0,.36-.81.94-.54,0-.22.19-.57.11-.65-.37-.31-.08-.44.1-.64.5-.56,1-.38,1.55.08,0-.31,0-.5.05-.68l.59-.12c-.08-.37-.14-.67-.21-1l.58-.07.17-.22-.87-.42c.07-.1.14-.21.22-.31l.7.32,2.47.16V56c0,.17,0,.35,0,.52-.17-.06-.35-.11-.52-.18a3.21,3.21,0,0,1-.35-.24c0,.39.06.65.08.83l-.49.35,0,.2,1,.16c-.06.35-.13.77-.21,1.28l-.22-.51-.63,1.28c-.3-.39-.54-.7-.85-1.12,0,.35-.06.57-.1,1-.41-.44-.58-.76-.45-1.22a1.42,1.42,0,0,0,0-.41c-.14.07-.35.1-.41.21a.61.61,0,0,1-.84.35c-.43-.14-.59,0-.74.51-.22.74.36,1.22.33,1.95l2.18-.86.06.17-.38.28.5.38-.6.31c.58.2,1.13.27,1.08,1h0a1.18,1.18,0,0,0-1.55-.08l-.23-.53.59-.16c-.26-.56-.71-.59-1.48-.14l.55.82-.27,0c-.58.21-.94.86-.58,1a6.54,6.54,0,0,0,1.55.29c.18,0,.46,0,.51,0a1.9,1.9,0,0,1,.18.68l-.56,0c.07.2.15.4.29.78-.56-.41-.77.9-1.16.2l-1,.77c.5,0,.36,1,1.15.75l-.35-.39,1.14-1.09.68,1-1.92,1.29-.88-.09.59.68-.64.07c-.1.62.68,1.42-.54,1.72l.38.5c0-.55.13-.55.88-.11-.34.44-.7.89-1.09,1.37l-.56-.24c-.05.3-.1.55-.14.79a2.4,2.4,0,0,1-.16.78c-.37.52-1.17.76-1,1.61,0,0-.06.07-.1.09a.91.91,0,0,0-.33,1.26c.16.41.37.79.58,1.25l.81-1.24.36.81c.08-.28.15-.55.27-1a2.83,2.83,0,0,0,.41.64c.18.14.57.3.66.22a3.38,3.38,0,0,1,2.77-.82c.12,0,.26-.17.4-.27h0c.54-.16,1.12-.49,1.5.3l-.1-.79-.13.13L148.14,74c.34-.08.67-.07.85-.22s.18-.45.26-.69l-.52,0c-.17,0-.35,0-.52,0-.52,0-1.05,0-1.66,0l.24.68-.74.56c.3-1-.24-1.45-.77-1.9l.08-.17,1,.39c0-.5-.27-1.09-.07-1.45a1.87,1.87,0,0,1,1.79-.9c.56,0,.88-.13,1-.67l1.51-.07.38.65h1.12L150.77,72C151.53,71.67,152.47,71.78,152.74,70.77Zm-2.64-10h0c-.06.51-.12,1-.17,1.53C150,61.77,150.05,61.26,150.1,60.75Zm0,0h0c-.47.46-.86,0-1.24-.06C149.23,60.79,149.62,61.2,150.09,60.74Zm.93-6,.57.24-.57-.24Z"/><polygon points="153.42 48.86 153.41 48.86 153.41 48.86 153.42 48.86"/><path d="M155.18,52.18l0,0,0,0Z"/><path d="M114.15,58.34a1.8,1.8,0,0,1,.47-.35c1.33-.59,2.67-1.16,4-1.76l-.26-.44.52-.4-.08-.13-.81.1c.2-.37.35-.67.51-1l.38.06.87-1.08-.43-.67c-.28.26-.62.43-.72.68-.25.69-.65.83-1.26.49,0,.75-.39.82-.93.72h0c1-.3.14-.88.19-1.35l.59-.3L116,52.15l.86,0,0-.17-.82-.56a1.33,1.33,0,0,0-.06,1.36,2.94,2.94,0,0,1-.09,1.16l-.16,0-.24-.54c-.06.43-.09.7-.12,1l-.2,0c.08-.69-.39-.89-.86-1.14a.55.55,0,0,1,0-1c.53-.25.31-.49.14-.79l-.38.26c0-.48.06-.93.1-1.48a3.21,3.21,0,0,1,.5-.42,3.09,3.09,0,0,1,.74-.29l-.25-.41.85-.19,0-.22-.88.09c-.26-.46-.51-.92-.76-1.38-.25.07-.53.13-.8.23a4.71,4.71,0,0,0-.58.32c.13.13.3.23.36.39a.92.92,0,0,1,0,.52c0,.06-.18.08-.33.13V48.6c-.35-.14-.61-.27-.88-.35s-.37-.08-.45,0c-.52.48-1,1-1.4,1.4l-.86,0a6.69,6.69,0,0,0,.07.9c0,.1.22.15.31.24a2.49,2.49,0,0,1,.2.32,1.64,1.64,0,0,0-.3.14,2.92,2.92,0,0,0-.32.21c-.11-.23-.22-.43-.4-.79l-.45.74c.67.06.22.77.78,1l-.89.23.94.73L109,54.44l.28,0a6.36,6.36,0,0,0,.28.65c.08.13.19.29.32.32a6.83,6.83,0,0,0,1,.15l0,.3-.88.39,0-.26L108.93,55c.21.46.34.75.53,1.15a3.47,3.47,0,0,0-1,0c-.27.1-.47.38-.71.57-.06-.48-.14-1-.21-1.52l.43-.09-.37-.68.17-.11c.45.29.87.38,1.17-.37a8.52,8.52,0,0,0-.94-.08c-.35,0-.7.07-1.14.11,0,.62-.42,1.12-1.32,1.14,0-.69-.15-1.55.52-1.93a6.17,6.17,0,0,1,2-.35c0-.44-.87-.22-.89-.81-.12,0-.33.07-.34.13-.07.74-.63.63-1.09.61s-.78.15-.82.6,0,1,0,1.54l-.46-.1,0-.34-.23-.05L103.79,56c-.13-.27-.17-.49-.3-.6s-.46-.28-.55-.21a3.67,3.67,0,0,0-.73.79c-.26.38-.44.81-.72,1.17-.11.14-.4.14-.64.21,0,.2-.1.45-.16.69-.77,0-.89.22-.79,1.18l.64-.23.42.62c.13-.21.18-.42.31-.52a1.11,1.11,0,0,0,.39-1.56c-.06-.13.2-.6.28-.59a4.75,4.75,0,0,1,1,.33,3.1,3.1,0,0,1-.11.29,5,5,0,0,0-.65.14,6,6,0,0,0,.14.85l.8-.48.18.14c-.21.69-.42,1.38-.63,2l.89-.28-.44.73c.48-.15.85-.4,1.08-.31s.38.54.55.81l-1.22.41.75,1.06-.84,1-.11-.07c.14-.26.27-.53.35-.68l-1.16-.75c-.17.28-.33.56-.45.78.27.13.59.2.62.33a.75.75,0,0,1-.19.64,11.46,11.46,0,0,1-1.21.77c0-.27,0-.49,0-.66l-.72-.07c-.71.76,0,2-.82,2.81l.91.39.85.88.43-.66.81.08c.2-1-.77.09-.86-.52,1,.13.11-.9.75-1.09l.13.47.79-.66L102.31,65a1.73,1.73,0,0,1,.59-.09,1.59,1.59,0,0,0,1.88-.6l.72,1,.23-.6.23.52.78-.21.45.52c.2-.78.36-1.39.53-2.07l.57.44c.07-1,1.06-1.1,1.61-1.65a2.28,2.28,0,0,0,.21-.27l-.41-1a2.47,2.47,0,0,0,2.5-1l-.65-.32A4.79,4.79,0,0,0,114.15,58.34Z"/><path d="M33.63,163.78h0l-.2.16Z"/><path d="M35.75,172.72c.47-.13.13-.45,0-.71a2.22,2.22,0,0,1-.06-.46l.2-.11c.3.48.61,1,.94,1.47l-.58,1c.13.24.26.47.38.71l.34-.31c.5.69.93.4,1.31,0l.74.28a2.11,2.11,0,0,0-.43-2.69h1.31l.11-.42v0l.74.56c.09-.62.16-1.06.23-1.51v0h0c-.1-.44-.21-.88-.37-1.53l-.74.82,0,0h0l-.84-1.07-.62.17c.33-.57.57-1,.89-1.57.21.23.37.44.56.61a1,1,0,0,0,.48.27.53.53,0,0,0,.55-.37,8.72,8.72,0,0,1,.79-1.28l1.13.09c0-.57.39-.32.66-.36.1,0,.26-.12.26-.19a.59.59,0,0,0-.17-.32.65.65,0,0,0-.18-.11c.05-.46.21-1.06.1-1.12-.57-.3-.27-.84-.45-1.23.16.17.32.33.47.5l.18-.06a14,14,0,0,0-.19-1.6c-.2-.8-.51-1.57-.69-2.37s-.32-1.8-.45-2.7c-.05-.37-.14-.66-.56-.6a1.87,1.87,0,0,0-.59.31c0-.3-.12-.68-.16-.89-.41-.12-.67-.2-.93-.25s-.73-.3-.62.42h.86a9.08,9.08,0,0,1-2.14.45c-.14,0-.29-.11-.43-.11-.53,0-1.05,0-1.62,0-.2-.77-.11-1,.6-1.25l-.32.64a4.35,4.35,0,0,0,1.18-.19.85.85,0,0,0,.36-.73c-.42-1.37-.15-1.52.9-2.05.6.52,1,.47,1.46-.18l.53.5.53-.67c-.16-.62-.37-1.41-.63-2.38a8.29,8.29,0,0,0-1,.48c-.42.28-.81.62-1.33,1,0-.32,0-.44,0-.55a3.94,3.94,0,0,0-.1-.47l-.32.34-.5.48c-.31.29-.63.57-1,.92l.67.06a1.62,1.62,0,0,1-.49,1.93,1.11,1.11,0,0,1-1.67-.48c.07,1.43-1.18,1.34-1.76,2,0,.21.11.44.17.72l-.8-.39.22-1.31-1,0c-.2,2-.38,3.95.88,5.68l-.43.32c.18.58.34,1.09.51,1.61.61-.25,1.51.24,1.75-.62l2.35.64v.12l-.6.12-.5,1a.77.77,0,0,1-.2-.53c0-.13,0-.33-.06-.39a.54.54,0,0,0-.42,0c-.48.16-1,.35-1.46.55v-.64l-.82.65-.31.16,1,.33.2-.16.22.88c-1,.15-1,.16-.59,1a8,8,0,0,0,.57.95l-.31-.11c.13.87.25,1.72.38,2.58l-.44.46,1.16.49c-.1.22-.22.49-.33.77s-.25.44-.21.62a8.73,8.73,0,0,0,.45,1.05C34.91,172.86,35.38,172.83,35.75,172.72Z"/><path d="M104.6,78.83l-.34-.62a.9.9,0,0,0,.15,0,1.56,1.56,0,0,0-.79-1.62l.83-.77c-.26,0-.48.16-.7.17a2.21,2.21,0,0,1-.84-.13c-.08,0-.14-.28-.12-.41.08-.61,0-.71-.68-.52,0-.19,0-.35,0-.52l-.15.1-1.11-1.41c-.21.27-.41.5-.57.71.15.46.3.92.44,1.39s.29.54.69.25.85-.26,1,.43c-.61,0-.59.29-.35.71-.24.08-.47.23-.66.19s-.41-.26-.59-.41-.27-.27-.48-.48c-.06.38-.09.6-.1.71a8.2,8.2,0,0,1-1.32.3c-.19,0-.54-.22-.56-.38C98.36,76,98,76,97.58,76a.55.55,0,0,0,.21.37,1.41,1.41,0,0,1,.5,1.4c-.26-.36-.39-.87-1-.82a2.66,2.66,0,0,1-.18-.57l-.87.52c.49.31.83.5,1.15.73.05,0,0,.27,0,.35a9.14,9.14,0,0,1-.62.78c-.31-.24-1-.26-.93-1.07a.22.22,0,0,0-.09-.17c-.28-.23-.56-.46-.85-.68l.43-.5-.14-.19c-.23.16-.7.43-.68.48.36.8-.24.93-.77,1.14.06.25.13.48.14.52l-.51.65c.4-.15.67-.33.76-.26.46.32.88.12,1.32,0a1,1,0,0,1,.33.06c.46.08.49.23.16.57a1,1,0,0,0-.11.64,1.33,1.33,0,0,0,.17.44c-1-.83-1.08.35-1.65.69-.06-.53-.1-1-.15-1.4A.75.75,0,0,0,93,80.1c.12,0,.21,0,.26.06.26.2.51.42.77.63a5.33,5.33,0,0,0-.58.31,3.24,3.24,0,0,0-.39.45l1.27-.09c.13.54.22,1,.35,1.48l-.51-.6-.7.32c.25.24.67.51.63.64-.29.91.3.73.82.79l-.88.36a1.78,1.78,0,0,1-.28.35c-.07.06-.21,0-.32.08.08.11.14.26.25.31.34.17.7.3,1,.43-.25.28-.54.58-.87.92l-1.61-.42c.17,1.28.35,2.64.52,3.88.36,0,.59-.06.7,0s.12.33.13.5c0,.54,0,1.08,0,1.73,0,0-.2.23-.17.26.33.34.69.66,1,1l.32.06c-.47-.75,0-.72.34-.79,0-.34-.05-.63-.07-.93l.52-.24L95,90.93l.14-.2.53.35h1.57l-.05-.27.11,0,.24.28a5.09,5.09,0,0,1,.88-.51,1,1,0,0,1,.6.06c.52.17,1-.27,1.2-1.14.64,0,.35.31.06.73h2.83v-.44l1.08.33c.08-.36.16-.7.21-.9-.44-.28-.84-.53-1.27-.82l-1.42,1.12c-.16-.8,0-1.09.76-1.24a1.32,1.32,0,0,0,.83-1.64l1.21-1.1-.81-.29.3-1,.54.43V83.43l-.84.09.52-1.63a2.84,2.84,0,0,0-.12-2.78s0-.09,0-.16Z"/><path d="M234.75,68.6l1.09-.82-.8-.31,1.29-1.09,1.13,1.08c-.08-.41-.13-.67-.19-.93l1.1.07v.54l-.1-.12-.85.79c.65.42,1,.35,1.45-.19a2.06,2.06,0,0,1,.42-.35l1.17-.83,1.19-.14c-.27.38-.42.59-.58.8L241,67v1l1.25-.88c.07-.3-.48-.9.14-1.35,0,0-.09-.39-.21-.54a4.18,4.18,0,0,0-.58-.5l.56-.22c-.4-.79-.78-1.53-1.15-2.28a1.4,1.4,0,0,1-.24-.7c.11-.79-.31-.53-.69-.39a.8.8,0,0,1-.21.05l-.08-.11.63-.26-.61-.22.34-.48-.53-.42c-.41.21-.41,1-1.1.62.05-.44.09-.86.13-1.33l-.65.11c0-.07-.07-.14-.11-.2l.77-.54c-.06-.63-.13-1.24-.19-1.85l-.22-.05a3.21,3.21,0,0,1-1,2.06c-.64.69-1.24,1.36-2.28,1.26a2,2,0,0,1-.64.6s-.06,0-.11-.07l.32-.49-.21.14a4,4,0,0,0-.59-.85c-.48-.44-.79-.34-.76.24h.85a2.81,2.81,0,0,1,0,.29h-4.12l1.31,3c.09-.37.12-.54.15-.67.33,0,.63,0,.93-.08.48-.08.65.13.63.64l-.61-.19c-.08.59-.16,1.14-.21,1.54l1.1-.26a8.46,8.46,0,0,1-1.2,1.09c-.25.2-.2,1,0,1.3a10.28,10.28,0,0,1,.57,1,1.62,1.62,0,0,0,.32.47c.3.19.64.33,1,.51-.54,1.16-.54,1.16.41,1.4l-.65.3c.22.5.43,1,.7,1.64.57-.88,1.06-1.63,1.58-2.45Z"/><polygon points="37.22 138.01 37.23 138.02 37.23 138.02 37.22 138.01"/><path d="M30.4,144.52h0l0,0Z"/><path d="M33.42,152.61H33.2c-.12-.5-.23-1-.34-1.5L31.48,151c.57-.45,1.08-.87,1.83-.69.08,0,.32-.22.33-.34,0-.57.36-.68.86-.66.2.8.92.47,1.5.67l-.7.45,1.19.16c-.14-.44-.21-.69-.28-.91a7.25,7.25,0,0,1-1.18-.3.57.57,0,0,1-.18-.55,7.21,7.21,0,0,1,.78-1,8.18,8.18,0,0,1-.65-.95c-.06-.12.06-.39.18-.49s.35,0,.45.15a1.28,1.28,0,0,1,.17.51h0c.07.28.14.56.2.84l.92-.23c.38.64,1,.06,1.62.12a1.11,1.11,0,0,0,1.32-.82c-.5-.35-1-.46-1.35.46-.25-.47-.39-.76-.54-1l1.12-.07c.3-.07.57-.11.82-.18a1.38,1.38,0,0,0,.32-.17,3.21,3.21,0,0,0-.61-1.21.72.72,0,0,0-1.17.1c-.06.1-.33.08-.5.11l0,0-.76.3c.51-1.25,1-1.68,1.5-1.5.68-.9-.71-1.07-.62-1.86l.68.12c.08-.24.15-.49.23-.74a7.78,7.78,0,0,0-.67-.49.76.76,0,0,0-.41-.12c-.45.78-.74.06-1-.06a2.27,2.27,0,0,1-.76,0c-.1,0-.13-.31-.21-.55l1.27.09v-.74l-1-.12,0-.16c.15-.09.37-.28.45-.23.86.48,1,0,1.12-.61l-.5-.38c-.15.12-.35.22-.43.37-.23.47-.49.57-.87.16l-.23.57c-.21-1-.89-.8-1.49-.8l.28-.73c-1,.06-1.55.63-1.4,1.25l2.84.59c-.63.34-.57.36-.34,1,.16.5.66,1.07,0,1.66-1-.15-1.5-.92-1.86-1.9.33.79-.37.5-.63.69a3.48,3.48,0,0,1,.18-1,.9.9,0,0,0,0-.49c0-.1-.24-.23-.3-.2s-.35.23-.35.35c0,.3.13.61.15.92s0,.77-.09.79c-.46.11-.5.48-.63.8s-.17.6-.31.87c-.34.67-.71,1.32-1.08,2l-.3-.39c-.18.26-.35.53-.48.72s0,.34,0,.49-.1.4-.16.6-.19.53-.15.75c.14.83.34,1.65.53,2.47,0,.08.1.15.13.24a1,1,0,0,1,.1.49c-.13.54.07.83.48.88.44,1-.36,2.1.53,2.78.34-.24.64-.62.92-.61A1.25,1.25,0,0,0,33.42,152.61Z"/><path d="M86.25,92.93l-1-1.17.57-.22c-.16-.32.33-1-.37-1-.29,0-.59.43-.89.66l.15.16.44-.13-.77,1.15L84,92c.53-.45.52-.62.12-1.21L84,89.63c-.8.81-1.23.1-1.6-.16a2.46,2.46,0,0,1-.72.45c-.06,0-.23-.29-.35-.47-.67-.11-.63.5-.83.88L80.24,90c-.17.19-.41.53-.46.5-.56-.29-1.47.11-1.64-.93l-.23.16c.17.42.33.85.5,1.27-.63.19-.63-.48-.87-1.15-.09.49-.14.75-.19,1.06l-.66-.32.06.16-.52.22a6.61,6.61,0,0,0-.85.78.8.8,0,0,0-.15.61c.14.52.15,1.12.81,1.35a.55.55,0,0,1,.22.47c-.3.75.21,1.24.48,1.79a3.92,3.92,0,0,1,.38-.35s.2.12.19.15a1.14,1.14,0,0,1-.19.4,5.34,5.34,0,0,1-.44.39l.23.76c.19,0,.44-.18.55-.11.44.26.83.52,1.27,0l1-1.09c-.91.33-1.37.21-1.55-.27.79.05.83,0,.59-.67l.51-.32-.47-.24c.22-.4.07-1.1.81-1.07.45,0,.9.11,1.4.17l-1.77,1,.85.85c.28-.7.66-1.1,1.31-1.14,1-.07,1.95-.12,2.93-.17.25,0,.5,0,.74,0s.48-.07.57-.21A10.06,10.06,0,0,0,86.25,92.93Z"/><path d="M81.35,89.44h0l.31-.42c-.42-.19-.82-.54-1.18-.5a8.53,8.53,0,0,0-1.75.56l-.81-.32-.11.12,1,.9c.34-.37.44-1,1.08-.64.67-.73,1-.09,1.45.31h0Z"/><path d="M147.39,39.74h0Z"/><path d="M150.7,28l1,.41h0c-.17,0-.42,0-.5.07-.51.61-1,.34-1.53,0,0,0-.08,0-.16.05s0,.35,0,.53l-.58.31-.37-.71-.24.1a10,10,0,0,0,.41,1c.24.46.22.95-.18,1.17s-.84.54-1.07,0l-.79.71c-.19-.83-.19-.83-.7-.7,0,.18,0,.32,0,.46-.19-.08-.44-.11-.56-.26-.56-.66-1.35-1-2-.06a.82.82,0,0,0-.14.68.77.77,0,0,0,.6.33A6.09,6.09,0,0,0,145,32c.46,1.26,1,1.52,1.95.87l.79.72-1,.2,0,.14-.76-.26c.1.31.19.56.27.8.76-.07,1,.16,1,.92l-1.33-.45-.27,1a1.18,1.18,0,0,1,1.7.5c-.34.24-.69.49-1.08.75-.11-.47-.09-.88-.26-1a.83.83,0,0,0-.81.12,2.12,2.12,0,0,0-.61,1c0,.28.24.62.35.86l1.66.63c-.9.26,0,.48-.2.7l-.9,1.39.18.2c.35-.24.69-.49,1.08-.78,0,.15.1.35.18.62l.39-.47-.5-.52.55-.17.09-.58-.52.08c-.15-.56-.29-1.1-.43-1.65.28.18.51.33.75.47l.11-.17-.45-.59.81-.17c0-.18-.09-.34-.13-.52l.63-.29-.14-.08c.17-.58.34-1.15.51-1.74.84.17,1,.13,1.28-.53-.09-.46-1,0-.8-.68.12-.41.89-.47,1.16-.27.27-.11.5-.29.65-.25s.53.34.51.48c-.14.89-.78.33-1.27.35v.47a3.49,3.49,0,0,1,.65,0,9.92,9.92,0,0,0,1.48.35,3.13,3.13,0,0,1,1.28.24c.47.24.67,0,.64-.49s-.48-.75-.89-.93l0-.69,0,0c.09-.15.27-.4.26-.41-.31-.24-.64-.46-1-.68l.29-.47-1,.06.89-.82.38.3c.11-.23.2-.4.3-.59l-1.1-.51c.13-.15.24-.29.37-.42s.25-.24.38-.37a2.93,2.93,0,0,0-.42-.37c-.23-.13-.55-.14-.72-.31C151.54,27.55,151.24,27.51,150.7,28Z"/><path d="M92.75,58l.69-.39c.61.34.31.75,0,1.29l1-.18c.41.35.17.59-.26.74l.3.4-.67-.1c-.24.51-.3,1.16-1,1.28-.1,0-.15.3-.22.46a3.07,3.07,0,0,1-.25.55c-.47.63-1,1.24-1.42,1.88a.55.55,0,0,0-.06.44c.15.53.33,1,.51,1.59l.91-1.21.34.93.15,0c0-.29,0-.58-.07-.94l.82.42-.34.42c.31,0,.61.08.68,0a2.29,2.29,0,0,1,1.52-.65c1.18-.27,1.27-.26,1.21.89L96,65.65c0,.28,0,.49-.06.74l.63-.2c.13.31.23.58.33.84l.17,0V65.7l.57.47c-.11-.71,0-1.1.7-1.17.1,0,.27-.41.22-.58a10,10,0,0,0-.47-1.11L98.83,61l-.12,0-.26.42c-.38-.15-.72-.3-1.07-.4a3.46,3.46,0,0,0-.27.57l.79-.13c-.27.8-.36.83-1.2.57-.5-.16-1.18.16-1.14.53.08.73,0,.84-.79.63l.48-.5-.84-1-.38.33c.13-.57.25-1.09.36-1.62.59-.1,1.31.07,1.54-.78l.42.21c.35-.14.54-.3.72-.28.49,0,.59-.15.42-.56a4,4,0,0,0-.27-.49l-.53.2c0-.25,0-.45,0-.65s-.1-.51,0-.62c.54-.57.05-.58-.38-.67V55.34l-.94.19-1.13,1.61c-.43.2-.88-.11-1-.67a3.43,3.43,0,0,0-.41-.7l-.59,1.46h0Z"/><path d="M163.11,89c0-.15,0-.3,0-.45A3.88,3.88,0,0,0,163,88c-.29-.2-.53-.38-.92-.67l-1.36.87-.06-.08.41-.47-.16-.14a6.11,6.11,0,0,0-.51.63,5.08,5.08,0,0,0-.47.93,2.25,2.25,0,0,0-.07.58l.2,0-.56,1.09c-.18-.21-.37-.41-.59-.67.73-.17.74-.52.31-1a.49.49,0,0,1-.1-.22c0-.33,0-.66,0-1-.84.44-.85.44-1.68-.28-.17.26-.34.52-.53.79-.38-.44-.64-1.19-1.35-.37-.11.13-.47,0-.42.38,0,.06-.18.21-.24.19s-.26-.14-.27-.23c0-.35,0-.7,0-1,.3-.15.6-.4.89-.39a3.08,3.08,0,0,1,1,.4l.12-.25-1-.62h-1.27l-.5.87c-.21-.3-.29-.43-.43-.62l-.29.66,1.25.55c-.11.11-.27.36-.39.35a4.41,4.41,0,0,1-1-.36c.18.43.34.81.54,1.26l-.51-.06a5.25,5.25,0,0,0-.07,1.24,2.59,2.59,0,0,1,.06,1.65c-.05.11,0,.29.08.52l1.29-.68a2.31,2.31,0,0,1,.23.42c-.44.32-.9.6-1.44,1,.1.16.25.43.42.68,0,0,.24,0,.24-.06,0-.23-.09-.45-.13-.69l.69-.06-.07.15.93.47c.15-1.4,1.35-1,2.23-1.28-.49-.35-1.58,0-1.05-1l1,.52c-.17-.38-.25-.57-.33-.76.44.19.87.55,1.22.48s.52-.59.83-1l.05.7.13-.14c.23.19.46.37.69.57s.28.35.36.33a1,1,0,0,0,.46-.37c.15-.19.23-.43.38-.62a5.49,5.49,0,0,1,.55-.53l-.14-.14-1.23,1-.17-.11.72-1.07-.69-.22,0-.19c.34,0,.7-.47,1,.13.06.11.36.22.45.16.54-.32,1.34-.22,1.52-.92A.54.54,0,0,1,163.11,89Z"/><path d="M164.33,75.47h0Z"/><path d="M169.13,76.61l-.11-.07-.62.51c.28-.89.24-1-.38-1a1.9,1.9,0,0,1-.35,1.78c-.11.05-.26,0-.39,0l-1.37.08c-.09.38-.07.66-.2.75a2.92,2.92,0,0,1-.81.32l-.06-.18.53-.71c-.33-.07-.56-.13-.79-.16-.39-.06-.54-.22-.46-.65.11-.6.14-1.21.2-1.81a1.66,1.66,0,0,0-.57.26,4,4,0,0,0-.39.74l-.64-.42a5.54,5.54,0,0,1-.17,1.24c-.08.24-.36.42-.56.61a3,3,0,0,1-.32-.24c.83-.36.58-1.1.69-1.67a2.85,2.85,0,0,0-.21-1.09h-.67l1.13-1.17c.65.22.75-.68,1.12-.88-.13-.27-.24-.49-.36-.71s-.28-.5-.43-.75c-.2,1-.58,1.4-1.09,1.09.68-.19.48-.66.43-1.06-.28.11-.51.28-.72.26-1-.09-.21-.89-.53-1.53a3.68,3.68,0,0,0-.23.49c-.42,1.07-1,2.14-.14,3.27,0,0-.09.18-.15.28v0c-.69.25-.16.71-.16,1.06,0,.13.11.26.17.38l.47-.42c-.08.33-.14.57-.19.81s-.13.44-.06.49a1.48,1.48,0,0,1,.54,1.09c.14.8.13,1-.63,1.05-.14,0-.27.16-.36.21l1.32,1.39c-.3.19-.61.51-.95.55s-.94-.08-.77-.79l-.14.19h-1.59a3.18,3.18,0,0,1-.37.82c-.08.08-.38-.06-.56-.09l-.52.75.7.88.2-.13V82l.93-.56c.89,1.16,1.48.72,1.89-.11a2.76,2.76,0,0,0,.66.41c.67.18.87.54.42,1s-.3.62.12.84l-.6.54a1.39,1.39,0,0,0,1.92-.22c-.13-.69-.26-1.38-.4-2.15.4-.2.56-.62.31-1.22a1.52,1.52,0,0,1,.46.45c.08.11.14.3.23.31a.92.92,0,0,0,.47-.14c.25-.15.46-.43.72-.49.93-.2,1.88-.33,2.9-.5l.31.33c.17-.56.42-.47.68.07v-.91l-.14.11-1-1c.37-.18.71-.23.82-.41C168.65,77.81,168.87,77.2,169.13,76.61Z"/><path d="M250.72,77.15c-.06.19-.1.33-.14.47h-.24c0-.43-.08-.86-.13-1.36-.7.3-.11.9-.28,1.15h-1.51l-.28-.84,1-1.38a1,1,0,0,0,1.4.52l.43.6.64-.06c.17-.3.29-.54.44-.77s.37-.48.55-.71a3.12,3.12,0,0,0-.92-.27c-.22,0-.45.2-.55.25.07.46.12.78.17,1.08-.25-.14-.5-.4-.65-.36-.42.13-.68.16-.88-.31a6.1,6.1,0,0,0-.66-.92c-.37.12-1-.65-1.49.15l-.21-.32c-.2.16-.4.3-.59.44l-.11-.14c.05-.22.09-.43.15-.71l-.72.35.38-.68-.9-1-.43.4c-.79-.57-.79-.57-.12-1,.3-.2.28-.83-.08-.9-.61-.12-.8-.6-1.11-1a3.65,3.65,0,0,0-.45-.42l.43-.46c-.48-.59-.66-.66-.8-.33l-.42,1.06c.68-.22.92.34,1.25.84-.6.22-1.15.39-1.68.63s-1.16.58-1.87.94l1,.8c.56-1.31,1.69-1.16,2.67-1,.38.06.66.76.94,1.11l-.86.69c-.22-.23-.45-.49-.68,0,0,.1-.25.12-.35.21a1.25,1.25,0,0,0-.26.32c.32.34.66.65,1,1l.13-.14-.36-.55c.32-.17.67-.22.76-.41.37-.69.54-.5.74.08,0,.15.21.27.36.45l-.89.55-.13-.14c0,.24-.08.48-.11.63l.65.35-.33.45c-.23-.34-.4-.59-.61-.92l-.38,1.07.8.22c-.11.37-.2.68-.26.9a10.27,10.27,0,0,0-1.2-1.09c-.32-.21-.62-.32-.63-.79,0-.21-.27-.4-.45-.65a2.48,2.48,0,0,0-.11,2.37l.76-.45c.7.35.22.79,0,1.33l.8-.43c.16.32.49.69.41.86s-.54.45-.94.75l.24.46c.46-.35.71-.91,1.34-.61.06,0,.22,0,.24-.06.32-.78,1-.45,1.55-.56a8.69,8.69,0,0,0,.91-.37,3.76,3.76,0,0,1,1.43-.42,6.58,6.58,0,0,1,1.69.56C251,77.55,251,77.55,250.72,77.15Z"/><path d="M169.42,56.46h0v0Z"/><path d="M168.51,57.33c-.15-.11-.28-.23-.42-.35.62-.39.62-.39.24-.91l-.66.88-.22-.17.35-.57c-.14-.11-.38-.25-.36-.3.24-.83-.39-1.18-.77-1.55l-.88.6a2,2,0,0,0-.51.45c-.56.84-1.12,1.68-1.63,2.55a.86.86,0,0,0,0,.72c.23.46.16.74-.33.91a2.24,2.24,0,0,0-.57.25c-.13.11-.32.34-.29.45a1.47,1.47,0,0,0,.43.54c.07.06.21.05.32.07-.57.07-1.09.13-1.28.79-.15.49,0,.79.54.85L161.82,64l.31.16c-.1-.73,1.41-.49.76-1.57,0,0,0-.17.09-.24a1.08,1.08,0,0,1,1.55-.32c.24-.44.46-.88.69-1.31l-.15-.09c.14-.14.28-.29.43-.43l-.13-.11-.72.34-.1-.19c.35-.35.5-1,1.29-.7a2.16,2.16,0,0,0,1.12.11c.63-.14,1.23-.41,1.86-.61a.54.54,0,0,1,.42,0c.36.29.56.09.7-.21a8,8,0,0,0,.33-1l-.71.65V57.32h.05l-.2-.86-.72.9C168.64,57.36,168.56,57.37,168.51,57.33Z"/><path d="M4.18,111.73a8.87,8.87,0,0,0,.35-1.32,1,1,0,0,1,1-1.08l.49-.06v-.11l-.55-.24c0-.26,0-.5-.06-.78.71-.33.78.54,1.22.67.17-.14.33-.27.66-.56,0,.47-.08.73-.1,1,0,.54.36.86.83.6s1.07-.7,1.59-1l-1.36-.48c.52-.25.84-.45.5-.67-.48,0-.8.07-1.13.07s-.86,0-1.3,0-.6,0-.91.06l.43-.76-.46.06-.3-.93,1,.05c-.68-.63.14-.64.24-1.05l-1-.22-.11-.15,1.43-.68a1.6,1.6,0,0,1-.2-.46c0-.54-.45-.58-.7-.34a4.59,4.59,0,0,0-1.07,1.45,1,1,0,0,1-.26.43c-.38.38-1,.65-.8,1.32l-.62.32.06.15.7.06c-.95.49-.64,1.27-.86,2.07l.64-.7.19.12c-.1.21-.22.41-.32.61s-.14.29-.2.43l-.29.7c.09.26.27.73.41,1.21s.31.86.89.82A1.79,1.79,0,0,1,4.18,111.73Z"/><path d="M23.87,65.47c.13.36,0,.79.5.83l.79-.63c.12.22.24.43.48.83,0-.45-.05-.72-.07-1.07l.91.39-.37.24.09.19c.19,0,.5.08.57,0,.65-.87,1.63-.73,2.51-.86.35-.06.7-.09,1-.13l0-.18c.13.15.25.31.5.63,0-.7.3-.58.61-.28,0-.33-.05-.56-.07-.8-.71.13-.68-.45-.91-.89.22-.06.45-.06.54-.17a.92.92,0,0,0,.2-.59c0-.11-.25-.26-.39-.28-.48,0-1,0-1.45,0s-.93.3-.86.64c0,.15,0,.39,0,.45a1.86,1.86,0,0,1-.59.19l-.06-.17.39-.57A14.27,14.27,0,0,0,26.85,62a1,1,0,0,0-1.45.45c-.27.54-.47.55-.9.1-.07-.08-.25-.05-.38-.07a1.77,1.77,0,0,1-.05,1.87A.92.92,0,0,0,23.87,65.47Z"/><path d="M37.93,136.67l-.07-.24-2.12.49.27-1.2.76.3.66-.66c0-.42.06-.91.1-1.61-.16-.27-.42-.7-.69-1.13l-.16.26c-.21-.39-.42-.79-.74-1.36l-.76,1.23-.18-.61c-.16-.46-.7-.65-.77-.3s.17.56.28.86l-.78.37c.75-.2,1.54.8,2.12-.14l.71.86c-.39.25-.79.52-1.21.75a.72.72,0,0,1-.46,0c-.69-.19-.74-.13-.73.6,0,.27-.22.55-.39.94-.21-.33-.32-.49-.44-.69l.44-.24-.15-.22-1.82.73c.41.22.92.33.57,1-.34-.3-.59-.22-.74.24-.05-.16-.1-.32-.17-.57-.13.61-1.22.23-1,1.24.46-.26.78-.16.84.45l2-.37-.51-.38c.64-1.13,1.56-.26,2.35-.32l-.13-1,.3-.08a3,3,0,0,1,.33.86c0,.51.17.65.63.44s.59-.09.67.36c0,.18.2.33.31.5,0-.28-.08-.56-.12-.82Z"/><path d="M37.21,138h0l0,0Z"/><polygon points="13.04 115.46 13.04 115.47 13.04 115.46 13.04 115.46"/><path d="M13,114.86c.18-.27.46-.65.71-.65,1,0,1.24-.27,1-1.16l-1,0,.6-.56c.09.14.17.24.25.35.56-.54,1.56-.44,2-1.53a4.25,4.25,0,0,0-1.52.4c-.39.32-.53.31-.82,0-.13-.16-.42-.2-.64-.29l-.09.21.51.37-.67.47.14.6c-.66-.12-1.26-.24-1.86-.33-.06,0-.13.22-.22.31s-.27.26-.4.25-.3-.15-.42-.27a2.3,2.3,0,0,1-.26-.4c.1.63.09.66-.69,1.16-.09,0-.3-.08-.68-.19l.62,1-1.24-.44-.08.1.41.48-1,.74c.41.17.84.07,1,.22.58.69,1.14.37,1.73.15l-.16-.16.5-.73c.6.78,1.17.15,1.75.27-.1-.36-.17-.61-.25-.86l.17-.1a4,4,0,0,1,.46.62,3.19,3.19,0,0,1,.2.64C13,115.25,12.92,115,13,114.86Z"/><polygon points="164.33 75.47 164.33 75.48 164.34 75.47 164.33 75.47"/><path d="M165.68,75.56c.13-.41.5-.56,1.06-.51a1.64,1.64,0,0,0,1.65-.46,1.66,1.66,0,0,1,1.16-.28c.17,0,.33.38.58.71l1-1c-.52-.7-1-.76-1.48-.46l-.39-.7,1.1-2.39a16.59,16.59,0,0,0-1.58-.79c-.11,0-.36.27-.55.42l.16.14.45-.28v1.92c-.31-.53-.52-.13-.69.06-.12-.17-.2-.3-.34-.53l-.61,1.07c-.4-.28-.61-.11-.68.51a2,2,0,0,1,.61-.28c.21,0,.44.11.66.1,1.08,0,1.3.21,1,1.15l-.91.32c-.09-.17-.18-.35-.28-.52l-.89.7c-.07-.66-.17-1.28-.9-1.19-.24,0-.45.4-.63.58-.21-.15-.47-.36-.76-.53a1.35,1.35,0,0,0-.46-.1c0,.17,0,.39.05.5.27.33.6.63.93,1l-.61.73a.93.93,0,0,0,.4.17A9.4,9.4,0,0,0,165.68,75.56Z"/><path d="M147.54,19.61c0,.06.34.2.53.31l.45.26c-.8.38-.48.8-.18,1.27L149,21l1.43,1.66,1.53-.84h0v0h0c-.55.14-.41-.38-.57-.61a3.43,3.43,0,0,1-.45-2.46c0-.19.23-.36.44-.67-.12-.57-.58-.79-1.24-.47s-1.26,1.27-2.25,1.33C147.75,18.94,147.6,19.36,147.54,19.61Z"/><path d="M62.76,66.53c.05-.27.09-.56.14-.85l-.74-.09v-.13l.58-.23,0-.21-1.15-.46.26-.33c-.43-.73-.76-.11-1.11,0A5,5,0,0,0,59.21,64c-.42,0-.47.47-.11.73s.68.45,1,.68c-.22,1-.39,1.15-1.71,1.42l1,.57c.53.92,1.25-.18,1.83.15-.54-1.22-.52-1.33.08-1.38.1.38.19.74.27,1.1h.21c0-.3.09-.6.14-.9h.14l.21,1h.6l-.87.89.93.15.05-.14L62.63,68l1.45-.37Z"/><polygon points="222.01 43.69 222.01 43.69 222.01 43.68 222.01 43.69"/><path d="M160.8,67.86c-.13.24-.26.48-.5.9a6,6,0,0,0,1,.33c.34-.65.75-.22,1.05-.19.42-.44.83-1,1.35-1.11a5.35,5.35,0,0,1,2,.12,1.07,1.07,0,0,1,.76.49c.08.22-.18.56-.29.85-.24.91.39,1.36,1.16,1.87L168,69.6h-.08l-.77.85-.18-.15.15-.22c.58-.79.54-.93-.18-1.66a2,2,0,0,1-.3-.8c0-.06.13-.18.22-.22s.18,0,.22.11c.27.39.52.8.72,1.11a3,3,0,0,0,.59-.24.51.51,0,0,0,.22-.35,1.68,1.68,0,0,0-.12-.45L167.1,67a4,4,0,0,0-1.16-.37,5.22,5.22,0,0,0-1.33.26c-.61.15-1.22.33-1.83.5a.59.59,0,0,0-.17.1l-.81.58-.27-.11c0-.5.05-1,.08-1.54,0,0-.14-.06-.2,0-.59.56,0,1.24-.14,2Z"/><path d="M80.45,80.28c.27,1.07,0,1.36-.85,1.2-.07.44-.14.85-.19,1.17.8-.05,1.51-.11,2.21-.1.14,0,.26.31.39.48-.53.28-.33.62-.14,1,.07.16-.08.42-.16.81l-.27-.8c0,.57-.09,1-.14,1.59l-.6-1c-.6,1,0,1.76.42,2.61l-.57-.2-.12.13c.14.18.33.51.42.49a1.42,1.42,0,0,0,.59-.45c.27-.35.49-.73.79-1.18.11.25.17.4.23.55h.69v0h0c.17,0,.4-.07.5-.19s.36-.49.3-.63a1.51,1.51,0,0,0-.65-.53,4.25,4.25,0,0,0-.47.55c-.21-.43-.4-.81-.56-1.12.14-.2.26-.37.37-.55s.09-.29.19-.35c.72-.46.39-.66-.14-1s-1.19-.47-1-1Z"/><path d="M171.68,83.69c.11-.21.22-.42.34-.67h.49V81.9a3,3,0,0,1,.88-.23c.38,0,.61,0,.57-.39-.29-.19-.84-.15-.54-.79.47.16.73.06.56-.47l-.77-.14v-.7l-1.7,1.11v-.82l-.59.13c.8-1.06.8-1.09,0-1.31l-.66.75a1.7,1.7,0,0,1,.21,1,13.94,13.94,0,0,1-.22,1.42c0,.11-.21.19-.24.3s-.18.58-.09.65a3.7,3.7,0,0,0,.83.45Z"/><path d="M152.71,77.08l.17.13.8-.15-.27.76,2.32-.16s.07-.17,0-.19l-2.49-1.54c0,.32-.07.52-.08.61l-1.3.1,1.27-1.2-1-.75.07-.18.75.2,1.05-1.28c-.86-.59-1.57.1-2.16.19-.24.31-.42.52-.57.75s-.15.37-.09.43c.41.45.07.83,0,1.24,0,.14-.09.33,0,.42.33.49,0,.62-.38.84l.59,0c0,.12,0,.23-.12.54Z"/><path d="M36.91,64.57s0,0,0,0Z"/><path d="M33.48,67.5l-.42.2v.11h1c.12.33.24.62.35.91l.14,0c.12-.46.23-.92.36-1.42l.32.25v-1.1h1l0-.21a2.51,2.51,0,0,1-.68-.25,3.84,3.84,0,0,1-.51-.69,6.26,6.26,0,0,0,1.3.3,4.48,4.48,0,0,0,1-.26c-.17-.24-.34-.49-.51-.72l-.84.36v-.71a4.45,4.45,0,0,0-.48.26c-.43.28-.84.57-1.34.92,0-.37.05-.63.07-.9l-.55.17c0-.21.11-.29.14-.39a7.09,7.09,0,0,0,.14-.78l-.54.27-.43.24A4.05,4.05,0,0,1,32.8,67Z"/><path d="M36.91,64.57h0Z"/><path d="M2.9,64.87a5.76,5.76,0,0,1-1.16.3c-.09,1,.09,1.51.68,1.68.15.05.35-.07.53-.11-1-.11-.48-.86-.68-1.17l2.24.9c.07-.3.16-.65.24-1L4,65l1.05-1.09c-.74-.1-.48-.74-.33-1.37a1.89,1.89,0,0,0-.59-.06c-.76.24-1.53.49-2.28.77-.12,0-.15.31-.16.31A8.79,8.79,0,0,1,3,64.23.7.7,0,0,1,2.9,64.87Z"/><path d="M30.4,144.52l0,0h0Z"/><path d="M30.53,143.57a4,4,0,0,0,.52-.65.44.44,0,0,0-.11-.4c-.47-.45-1-.87-1.32-1.18.15-.88.33-1.59.38-2.32a6.39,6.39,0,0,0-.2-1.35l-.2.18L27.34,137c.19.48.36.93.56,1.42.16,0,.36,0,.56-.08a5.28,5.28,0,0,1,.66-.16c.18,0,.46.09.51.2a.79.79,0,0,1-.07.64c-.21.29-.56.47-.77.76a.65.65,0,0,0,0,.62c.47.64.46,1-.13,1.59-.09.08-.16.31-.11.37.24.32.53.61.87,1l.28-.74h.21c0,.66-.62,1.55.46,1.88,0-.28,0-.55-.08-.87C30.38,143.62,30.49,143.62,30.53,143.57Z"/><path d="M14.22,107.74a.59.59,0,0,0-.56-.09c-.41.22-.6.06-.72-.32s-.07-.82-.29-1c-.63-.45-1.22-1.32-2.2-.58-.07.06-.26,0-.39,0l-1.3-.14v.83l3.59.76c.19.31-.11,1.06.75.88.05,0,.24.23.22.27a.6.6,0,0,1-.33.28c-.11,0-.25-.08-.41-.14.07.34.12.62.18.9l2.1-.71A8.69,8.69,0,0,0,14.22,107.74Z"/><path d="M89.25,67.59l.25.11a6.65,6.65,0,0,0,.81-1.5c0-.13-.67-.47-1-.7l.7-.3-.27-.88-.6.22.75-1.38.66.06-.09-.83c-1.74,0-2.52.53-2.38,1.45l.52-.45c.06,0,.11.11.17.17l-.5.53c.07.64.16,1.18.18,1.72a1.21,1.21,0,0,0,.83,1.2Z"/><path d="M144.74,16.63l1.44-.14.44-.57.19.11-.51,1.73c.43.56.57.61.76.2.27-.57.67-.57,1.15-.34.06-.09.15-.16.16-.24a3.75,3.75,0,0,0-.05-.47,1,1,0,0,1-1.14-1.1l.67.61V15.28c.63-.34.68-.5.42-.95l-1.52-.67c.34.79-1,1.29-.24,2h-1.87C144.68,16,144.71,16.29,144.74,16.63Z"/><path d="M104.17,91.23l-.91-.76c.07.3.11.5.16.71l-1.56.16.66.42-1,.45c.2.7.39,1.39.58,2.08l-.67.35c-.55-.18-.45-1.3-1.25-1-.09.45-.16.8-.26,1.28l2.19.1c0,.06,0,.13,0,.19l-.37.25.54.52.39-1.37c-.87-.36.37-1,0-1.28l1.53-1.16C103.06,91.72,104.13,91.42,104.17,91.23Z"/><path d="M142.07,76.82l-.19,0-.39.51-.67-1.67-.13.05c0,.24-.08.49-.13.87l-1.06.62.86,1.37.78-.19,0,.22h-.26l-1.16,1.35.53,0c-.31.33-.81.41-.71,1a3.77,3.77,0,0,1-.2,1.26h.21c.41-.77.82-1.53,1.24-2.29,0,0,.08,0,.11-.06l.53-.54-.12-.15h.49c-.33-.44-.23-.7.12-1.08S142,77.25,142.07,76.82Z"/><path d="M195.36,77.45l-.79-.12.7-.39c-.36.09-.44-.72-.89-.28,0,0-.22,0-.27-.11a.32.32,0,0,1,0-.3,1.15,1.15,0,0,1,.32-.25l-.05-.18-1.62.21-.11.66.13-.08a.14.14,0,0,1,0,.06c0,1.43,0,1.43,1,1.28,0,0,.08,0,0,0,.09.51.17,1,.26,1.45.1-.4.19-.77.27-1.14l.16,0c.09.28.18.56.26.84l.67,0c-.14.23-.24.38-.31.48l.64.42.29.13-.1-.19.85-.63C195.7,79,195.47,78.73,195.36,77.45Z"/><polygon points="192.64 76.7 192.65 76.69 192.65 76.69 192.64 76.7"/><polygon points="18.61 105.22 18.61 105.23 18.62 105.22 18.61 105.22 18.61 105.22"/><path d="M18.33,104.61l0,0c-.13.11-.25.23-.4.37l-.28-.48-1,.59-.28-.63a.5.5,0,0,0-.19,0c-.66.19-1.31.38-2,.59-.12,0-.2.17-.29.28-.25.27-.49.56-.72.83.18.28.38.59.69,1.05.11-.69.19-1.17.28-1.73l.64.57c.53-.31,1-.64,1.59-.08l-.62,1,1.45-.4c0-.68.05-.65.81-.93.21-.07.34-.33.51-.51-.08-.21-.16-.43-.23-.65Z"/><path d="M116.19,82.66c.09-.35.18-.71.3-1.13l-.75.13.93-1.24.46.27.63-.73-.16,0c0-.66-.09-1.32-.13-2l-.31,0a9.2,9.2,0,0,1,0,1,1.06,1.06,0,0,1-.29.63c-.5.42-1,.78-1.52,1.12-.38.07-.76.13-1.14.21s-.52.13-.79.19h0c0,.16-.16.41-.11.44a3.38,3.38,0,0,0,1,.58C114.9,82.41,115.54,82.52,116.19,82.66Z"/><path d="M91.21,73.28c-.13.28-.26.57-.38.86,0,.13-.18.34-.13.39.42.47,0,.66-.3.91.49.08,1.11.5,1.06-.57l.73.44c.07-.16.16-.35.25-.53l.22.08L93,76.08c.66-.6,1.2-.59,1.56,0l.86-.23.07-.21-2-1.06c-.06.33-.09.53-.12.73l-.25.17c.24-1-.14-1.28-.9-1.21l.07.52c-.19-.08-.32-.11-.43-.17s-.37-.21-.55-.32a5.24,5.24,0,0,0,.5-.44c.09-.09.22-.23.2-.32a.62.62,0,0,0-.29-.29c-.5-.28-1-.54-1.56-.83l-.36.34.65.26-.53.44.16.16a.83.83,0,0,1,.29-.16C90.67,73.36,90.94,73.32,91.21,73.28Z"/><path d="M77.2,67.05a.53.53,0,0,1-.2.43.81.81,0,0,0-.32,1.15c.18.42.38.84.62,1.34l.78-1.29c.14.44.21.69.29.93l.27-.06-.07-.89.68,0c-.36-.71-1.21-1.14-.64-2.18l-.51.32c.05-.24.09-.45.14-.77C77.67,66.27,77.11,66.27,77.2,67.05Z"/><path d="M4.22,68.42c-.31.57-.54,1-.83,1.49L5,69l.12.13L4.43,70c.75-.2,1.29-.38,1.84-.49a.8.8,0,0,1,.64.12.67.67,0,0,1,0,.64,15.09,15.09,0,0,1-1.17,1.09l-.18-.12c0,.1.07.21.11.31l1,.9.37-.14a7.16,7.16,0,0,1,.19-1.56,1.35,1.35,0,0,0-.5-1.69,1,1,0,0,1-1.45-.29A.87.87,0,0,0,4.22,68.42Z"/><path d="M138.15,90.26a2.12,2.12,0,0,0-.2-.37c-.11-.14-.25-.38-.37-.37a.8.8,0,0,0-.55.3c-.07.1.06.35.13.53s.26.62.41,1L136.48,91l-.16.26a4.06,4.06,0,0,0,.46.36c.21.13.54.18.65.36.26.45.59.25.71,0a11.84,11.84,0,0,0,.69-1.6c.82.47,1.3-.44,2-.68A2.52,2.52,0,0,0,138.15,90.26Z"/><path d="M69.51,71.46c.39.46.75.43,1-.11A5.86,5.86,0,0,0,71,70.06c.18-.87.06-1-.92-1.06,0,.15,0,.3,0,.49l-1.79.24.5,1.42C69,70.89,69.26,71.16,69.51,71.46Z"/><path d="M156.38,85.47a6.84,6.84,0,0,0,.9-1.33c.28.76.83.67,1.31.45a1.1,1.1,0,0,0,.47-.73c0-.12-.34-.4-.56-.43s-.3.31-.41.44l-2.17-.29V83c-.11,0-.28,0-.32.12a1.15,1.15,0,0,0,.75,1.71l-.38.44c-.43-.42-.48.38-.81.25,0,.13.05.26.07.4A3.68,3.68,0,0,0,156.38,85.47Z"/><path d="M138.56,82.12c0-.21,0-.54-.17-.6a6.8,6.8,0,0,1-1.39-.73l-1.18.63,1.07,1.45-.66.07-.14.75c.62.33.9-.13,1.21-.59l.48.68a4.28,4.28,0,0,1,.05-.75,1.69,1.69,0,0,1,.24-.41l-.53-.08v-.19a6.2,6.2,0,0,0,.62-.06C138.3,82.26,138.57,82.17,138.56,82.12Z"/><path d="M37.58,180.57c-.94-.42-1-1.45-1.78-2-.13.37-.24.73-.37,1.12h.65c-.08.47.78.92-.1,1.32.33.61.7.29,1.14,0,0,.31,0,.5-.08.68l-.15-.15-1,.55.76.76.46-.41c.12-.55.16-1.23.28-1.24.72-.07.68-.87,1.31-1.08l-1.42-.3Z"/><path d="M240.84,76.36l-1.17-1.43-1.08,1.2.67.13-.38.66.62.79,1.38-1c.2.82-.71.74-.8,1.27l1,.31C241.42,76.75,241.42,76.74,240.84,76.36Z"/><path d="M246.34,82.63c.28-.12.65-.17.82-.38s0-.51,0-.64l-2.55.27.37.42-.38.7,1.2.06c.24.26.46.69.76.75s.87.43,1-.23a4.87,4.87,0,0,1-.65-.35A6.76,6.76,0,0,1,246.34,82.63Z"/><path d="M43,170.47c.22-.3.44-.6.68-.9l.42.58.56-.8a4.4,4.4,0,0,0-1.08-.33,4.8,4.8,0,0,0-1.12.27c0-.2.08-.39.12-.61l-1.23.08c0,.33.11.69,0,.75-.41.24-.31.6-.32.94A2.58,2.58,0,0,1,43,170.47Z"/><path d="M89.72,57.53c.57.4,1.09.81,1.65,1.16.33.2.64.14.71-.32s.1-.76.15-1.14c-.09,0-.22,0-.23,0-.32.7-.32.7-1,.93.19-.36.36-.68.49-.91l-.6-1.07c-.65-.74-.87.2-1.46.43l.71.37Z"/><path d="M168.79,65.11a3,3,0,0,1,.51.25,3.62,3.62,0,0,1,1.34,2.09h0l.84-1.47a1.23,1.23,0,0,1-.24-.07c-.37-.14-.55-.81-.29-1l.2-.22a1.27,1.27,0,0,0-.32-.13c-.34,0-.68-.06-1-.13C168.92,64.23,168.92,64.22,168.79,65.11Z"/><path d="M35.32,178.08a11,11,0,0,1,1.49-.51,1,1,0,0,1,.7.27,3.81,3.81,0,0,1,.51.77c-.07-.16-.14-.32-.22-.48l.36-.59a1.78,1.78,0,0,1-1.2-1.11c0-.12-.37-.2-.55-.17-.8.11-.9,0-1.08-.8a2.07,2.07,0,0,0-.4-.61l-.2.12c.2.54.4,1.08.61,1.62l.61.27a3.45,3.45,0,0,0-.35.5A5.45,5.45,0,0,0,35.32,178.08Z"/><path d="M156.61,51.05c0-.51-.07-1-.1-1.53a5.35,5.35,0,0,1-.87.18,5.29,5.29,0,0,1-.8-.09c.15.4-.74.81,0,1.21a.33.33,0,0,1,.06.3c-.11.36-.24.7-.35,1l.65.05,1.17-1.24Z"/><path d="M155.18,52.18h0Z"/><path d="M243,81.43a2.3,2.3,0,0,1-.17-.65l.35,0c-.28-.38-1.15-.55-1.43-.2a1.75,1.75,0,0,0-.26,1.23c0,.16.64.22,1,.34.07.08.2.33.4.41.44.19.91.24,1.25-.56a4.59,4.59,0,0,1-.7-.13A1.16,1.16,0,0,1,243,81.43Z"/><path d="M159.63,86.39a1.1,1.1,0,0,0,.62-.36c.25-.29.44-.63.69-1,.47.6.93.59,1.47,0a8.63,8.63,0,0,0-1-.37,5.89,5.89,0,0,0-.94-.09l-.77-1c-.21.35-.54.67-.5.92a5,5,0,0,0,.6,1.3h-.74C159.35,86.13,159.51,86.4,159.63,86.39Z"/><path d="M44.77,178.61a2.85,2.85,0,0,0-.85.91,1.44,1.44,0,0,0-.23.75c.36.2.46.87,1.05.63l-.22-.28,1.09-1c.15-.14.28-.3.49-.52C45.93,178.41,45.51,178.16,44.77,178.61Z"/><path d="M44.77,180.9h0v0Z"/><path d="M93.45,52.1a3.15,3.15,0,0,0,2.35.08c.06-1-.54-1.14-1.23-1a17.3,17.3,0,0,0-2,.65l0,0c-.12.71-.75.54-1.18.71C91.88,53.3,92.29,53.2,93.45,52.1Z"/><path d="M117.37,80.66c-.06.45-.11.82-.16,1.28-.15-.12-.19-.17-.24-.2l-.32-.13c.45,1.34,1.8,1,2.43,1.76l.18-.17-.75-1.29c.13-.27.25-.54.39-.85Z"/><path d="M34.75,97.78h-1c.12-.42-.92-1,.3-1.19L34,96.42l-1.06-.1-.47.81L32.23,97l.2-.7-.13-.15-.69.52,1.81,2.08Z"/><path d="M155.42,39.12l.08-.13-1-.73.37-.17V36.34l-.51-.11c0-.28,0-.56-.05-.84l.38-.14V35L153.37,35c-.24.84-.22.9.43,1.32,1,.68,1.09,1.12.25,1.64.15.45.28.88.45,1.3,0,.11.18.18.27.26L155,39Z"/><path d="M154.77,39.49l0,0h0l0,0Z"/><path d="M78.16,78.46H77.4c.16.23.33.45.48.67l.67-.44c.11.46.2.86.31,1.3.73-.59,1.29-.64,1.64-.2.48-.35.4-.62,0-.84l-2.23-1.07C78.2,78.13,78.18,78.32,78.16,78.46Z"/><path d="M115.32,50.29l1.61-.09a.24.24,0,0,1,.06.11,1,1,0,0,0,1.35.07l-.36-.65.4-.66c-.72,0-.74-.1-.25-.84-.71-.2-1.21.3-2,.3l.66.88Z"/><path d="M33.35,100.73l-.09.14,1.27.9c.19-.58,0-1.32,1-1.27-.15-.28-.26-.47-.36-.67l.34-.27a1.71,1.71,0,0,1-.6-.1c-.6-.33-1-.24-1.29.36-.18.32-.34.6.24.65.09,0,.17.18.25.28l-.11.12Z"/><path d="M237.23,72.52a3.53,3.53,0,0,0-.7-.16,3.34,3.34,0,0,0-.78.3c0-.23.06-.38.11-.71-.44.13-1,.18-1.07.35a3,3,0,0,0,.23,1.18l.38-.18.76.44c.36-.38.59-.65.86-.89a3.43,3.43,0,0,1,.43.36l.73-.75A7.9,7.9,0,0,1,237.23,72.52Z"/><path d="M202.4,40.57l.35-1.78-.26-1.28a.53.53,0,0,0-.13.22c-.12.26-.26.52-.39.78l-.56-.33c.17-.25.34-.5.49-.77a2.51,2.51,0,0,0,.16-.46l-.23-.19c-.23.2-.67.42-.65.59a10.34,10.34,0,0,0,.46,2.21A4.11,4.11,0,0,0,202.4,40.57Z"/><path d="M150.3,24.09l-.37.36c-.1.08-.26.15-.28.25-.14.6-.24,1.2-.35,1.8l.21.08a1.31,1.31,0,0,0,.22-.32,4.68,4.68,0,0,1,.16-.67c.26-.48.55-.95.85-1.42a.28.28,0,0,1,.2-.12c.62,0,.45-.33.32-.7h.26l.3-1c.05-.16.1-.32.14-.48l-2.1,2.26Z"/><path d="M138,4.87a.55.55,0,0,1,.67,0c.35.2,1.14-.1,1.05-.39-.26-.86.36-1,.88-1.3-.14.3-.28.59-.42.9l1.63.09s0-.24.09-.51l.64.35-.17.13.34.64.21-.06c.05-.27,0-.61.18-.8s.52-.28.85-.44l-1.08-1c-.08.46-.14.75-.19,1l-.15,0c-.13-.35-.25-.7-.33-1l1-.69h.7c-.25.85-.25.85.56,1.4.09-.69.44-.09.69-.16h0l.65.53c-.78.31-.38,1.25-.93,1.72-.12.1-.13.32-.19.49-.11-.16-.21-.32-.35-.55l-.3.58c-.72.1-.86-.24-.65-.91-.29.22-.56.4-.65.64A10.52,10.52,0,0,0,142.39,7h-1.62l.23.8c-.79-.66-.78-.66-.49-1.7.14-.49.52-.51.91-.52,0-.17-.08-.33-.11-.5-.06-.42-.32-.74-.73-.6s-.86.41-.94.73c-.23.83-.55.1-.85.07a4.58,4.58,0,0,1,.39,1.21c0,.67-.51.52-1.06.34l1,2.13a1.53,1.53,0,0,0-.14,1.76c.2.47.52.52.86.33.22.27.35.58.59.68s.49,0,.75-.09c-.13-.14-.25-.29-.38-.44.09-.21.21-.46.41-.87.38.62.69,1.12.89,1.46-.12.76-.22,1.37-.32,2l.54-.44c.53.71,1,.36,1.39-.08.6.41.67.4.95-.12a1.39,1.39,0,0,0,1.81,0c-.44-.79-1.14-.57-1.83-.33.13-.89-.15-1.46-.75-1.66.39-.42.84-.3,1.34-.27a7.48,7.48,0,0,0,1.74-.26l-.36-.78-.29.07c0-1,1-.22,1.2-.77l.77.42.93-1.34c-.22-.58-1.24.4-1.35-.58l-1.3.16c0,.32.05.58.07.83h-.2c-.14-.24-.29-.47-.42-.68l-.81.45L145,8.27l.33-.77-.61.27c-1-.32-.46-.87-.25-1.39l.63.13c-.07.16-.12.29-.18.45a2.88,2.88,0,0,0,.73.25.7.7,0,0,0,.55-.2c.28-.55.5-1.14.73-1.66l.95.19L148,5.3l-.46-.2c.08-.2.14-.38.21-.58l-.64-.2c-.29-.61,0-1.22-.5-1.82s-.71-1-1.47-.93c.2-1.06-.75-.36-1-.75l.48-.36c-.29-.45-.51-.33-.77,0a6.88,6.88,0,0,1-.79.66l.24.31c-.68,0-.75-.46-.61-.75.25-.52-.12-.49-.36-.67-.12.44-.21.82-.34,1.31l.44-.35c-.26.7-.67,1.35-.19,2.15l-.22.12-1.38-.65c0,.17,0,.39,0,.62l-.71-.42-.53.91-.11-.18-1.75.65C137.65,4.51,137.4,5.19,138,4.87Z"/><path d="M144.49,19h-1.57l-.3-.5,0,.89-1-.51c-.06.1-.13.19-.19.28l.49.31-.58.61A2.57,2.57,0,0,0,144.49,19Z"/><path d="M5.74,71.63l-.53-.19-.09-.56c-.17.07-.44.08-.5.2a10,10,0,0,0-.52,1.48c0,.12.19.45.26.44.64-.1,1.27-.26,2-.43l-.63-1h0Z"/><path d="M168.23,65.53c-.12-.1-.4,0-.61,0v.17l.68.36-.29.39c1.11.82,1.41,1.41,1.08,2.16A1.78,1.78,0,0,0,171,69l-.85-.52-.38.23c0-.21-.05-.36-.08-.51-.09-.4-.17-.81-.28-1.21a1.5,1.5,0,0,0-.27-.57A5.36,5.36,0,0,0,168.23,65.53Z"/><path d="M97.74,72.89c-.39.78.49,1.16.31,1.89l.91-.14c-.13-.46-.35-.82-.25-1a5.33,5.33,0,0,1,.91-.94l-.21-.32C98.85,72.55,98.15,72.09,97.74,72.89Z"/><path d="M43,175l-.94.66.1-.72-.47-.07c-.22.53-.45,1.05-.62,1.47l.91.47h0l.74.28c-.14-.42-.21-.62-.33-1l.81.44Z"/><path d="M17.19,112.82c.11.15.2.26.26.33l-1.78.56v.19c.43.25.35,1.1,1.21.94,0-.25-.05-.46-.08-.74l1.17.08C18.29,113,18.24,112.9,17.19,112.82Z"/><path d="M168.81,53.32l1.3-1.55c.28.12.47.81,1.14.13l-1.75-.67-.21-.29-.78.86c.12.25.28.57.46.92l-1-.32Z"/><path d="M236.51,54.47c0,.21,0,.56-.14.59-.62.18-.29.56-.22,1l1.68-.63.33-1.11-.8-.24Z"/><path d="M20.41,92.58a2.47,2.47,0,0,1-.73-.1c-.54-.33-.64,0-.7.43l-.47-.16-.57-.25h0L17.4,93.6l.88-.27c.14,0,.29-.06.43-.09.07.16.11.43.21.46.59.16,1.2.25,1.88.39v-.78l-.46,0C20.37,93.05,20.39,92.82,20.41,92.58Z"/><path d="M20.8,93.31h0l0,0Z"/><path d="M145.64,22.32c-.73.12-.8.07-.86-.6l1.18-.1c0-.22.06-.46.11-.8a8.28,8.28,0,0,0-1.73.21c-.2.06-.83.27-.33.9a10.57,10.57,0,0,0,.83.74C145.43,23.31,145.43,22.79,145.64,22.32Z"/><path d="M33.35,94.7c-.46.8-.4.9.46,1a1.07,1.07,0,0,1,.55.23,7.56,7.56,0,0,1,.63.54c0,.1-.1.23-.19.46l.54-.36c.09-.5.17-.89.25-1.35l-.51-.28h0A1.46,1.46,0,0,1,33.35,94.7Z"/><path d="M155.85,79c-.19.25-.36.66-.59.69s-.49-.33-.62-.42c0,.51-.08,1.12-.12,1.58a2.59,2.59,0,0,1,.95-.12c.72.17,1.19-.18,1.19-1C155.85,79.54,155.85,79.54,155.85,79Z"/><path d="M10.47,111.31a7,7,0,0,1,1.39.15c.73.28,1.07-.3,1.51-.59.14-.1,0-.59,0-1.07l-.74.61c.13.11.23.2.35.32l-.59.1c-.27-1-.35-1.09-1-.7.13.25.26.51.49,1l-2-.15C10.19,111.13,10.32,111.28,10.47,111.31Z"/><path d="M174.2,57.81l-.94-.51c-.32.37-1,.7-.65,1.31l1.86.24.44-1.29-.11-.12Z"/><path d="M16.75,108c-.07.23-.13.42-.18.61a2,2,0,0,0-.12-.49.66.66,0,0,0-.37-.33,1.66,1.66,0,0,0-.69.1c-.05,0-.08.26,0,.36a1.38,1.38,0,0,0,1.79.51c.09-.06.08-.25.12-.42l.83.54.48-.88Z"/><path d="M93.11,79.42c0-.32-.06-.65-.07-.78l-1.2-1-.93,1.13A3,3,0,0,0,93.11,79.42Z"/><path d="M143.51,17.56c0-.16,0-.32.07-.59.65.41.07.9.28,1.36l1-.07a4.39,4.39,0,0,0-.25-.44c-.42-.4-.72-.77-.32-1.42a.65.65,0,0,0-.38-1c-.19-.06-.33-.28-.41-.35l-.28.82.81.65-.22.26-.57-.07C143.27,17,142.63,17.48,143.51,17.56Z"/><path d="M143.22,16.7h0v0h0l0,0Z"/><path d="M140.79,17a4.18,4.18,0,0,0,1.13-.38c.49-.32.81.07,1.2.16a.24.24,0,0,0,.1-.05c-.33-.43-.59-1-1-1.24a3.93,3.93,0,0,0-1.54-.13l.63.78-.6.23C140.72,16.52,140.76,16.76,140.79,17Z"/><path d="M154,80.4l-.17.09-.95-.87-1,1.29,1,.31C154.07,81.61,154.07,81.61,154,80.4Z"/><path d="M170.4,62.37c-.19.51-.32.83-.5,1.31a7,7,0,0,0,1.44.16c.45,0,1.07.14,1.32-.69l-1,.12C171.14,63.07,171.13,62,170.4,62.37Z"/><path d="M172.19,62.91l.26.05.5-1.07.74-.42c-.54-.76-1.2-.72-2-.53C171.86,61.62,172,62.27,172.19,62.91Z"/><path d="M65,65.39,64.45,64c-.13.23-.29.39-.29.54,0,.53-.17.89-.79,1,.07.34.13.63.23,1.09.31-.4.49-.63.71-.93l.13,1.25.35.06c.06-.22.23-.58.17-.63C64.43,66,64.74,65.66,65,65.39Z"/><path d="M165.4,63.33a12.42,12.42,0,0,0-1.35-.16c-.14.4-.25.75-.37,1.11l1.11.13v.14a1.77,1.77,0,0,0-.33.08c-.15.09-.41.21-.41.33,0,.29.15.33.48.32.59,0,.31-.66.69-.76l-.51-.94,1,.35C165.56,63.66,165.52,63.36,165.4,63.33Z"/><path d="M144,85.32c-.16-.1-.52.14-.79.23l0,.11-.64-.09,0,.19.63.48.49-.33c.49.48.27.68-.28.76l.05.19,1.52-.24C145.37,85.55,144.49,85.59,144,85.32Z"/><polygon points="153.48 40.93 153.49 40.94 153.49 40.93 153.48 40.93"/><path d="M155.26,40.62c.16-.21.35-.41.58-.67-.19-.35-.63-.39-1.08-.42-.27.32-.53.65-.89,1.09L153.7,40l-.78.14c.19.23.34.4.48.58a1,1,0,0,1,.09.26A2.09,2.09,0,0,0,155.26,40.62Z"/><path d="M94.67,53.82a1.91,1.91,0,0,1-.36.47,3.48,3.48,0,0,1-.51.26s-.1.14-.08.17a8.1,8.1,0,0,0,.7.85c.07.07.26,0,.42,0-.16-.24-.27-.42-.3-.45l1.35-1.12a2,2,0,0,0,.14.6c0,.06.32.07.37,0,.19-.24-.19-1.13-.38-1.2L95,54.32Z"/><path d="M103.1,70.32a6.47,6.47,0,0,0-1.95-.18c.23.5.34.78.48,1a.36.36,0,0,0,.26.18c.65,0,1.29,0,1.92,0C103.62,71.07,103.46,70.46,103.1,70.32Z"/><path d="M197.21,77.54c.71-.71-.3-1.13-.23-1.74a3.61,3.61,0,0,0-.3.69,1.73,1.73,0,0,1-.45.69c-.42.3-.42.65.07,1l.48-.64.14,0a2.44,2.44,0,0,0,0,.54,2.37,2.37,0,0,0,.27.61s.24,0,.38-.08l-.18-.54C197.33,77.89,197.15,77.6,197.21,77.54Z"/><path d="M201.7,48a1.17,1.17,0,0,0,.79,0c.18-.12.37-.55.28-.7a11.07,11.07,0,0,0-1-1.41C201,46.56,201.53,47.29,201.7,48Z"/><path d="M78.93,82.49l-1.18-1-.86,1.22a5.34,5.34,0,0,0,2.16.6C79,82.9,78.94,82.61,78.93,82.49Z"/><path d="M40.89,153.15v0h0l0,0Z"/><path d="M40,153.82l.51.66-.5.55.55.33,1.17-1.1-.27-1.1-.54.77-.19-.13c.11-.17.21-.35.3-.52,0,0-.11-.09-.18-.13a1.37,1.37,0,0,1-.29.34A5.15,5.15,0,0,1,40,153.82Z"/><path d="M157.34,50.06l-.48.77.47.13c0,.39,0,.71.07,1.06l-.44.14,1.21.77c-.14-.35-.27-.64-.38-.9.32-.28.61-.56.78-.71Z"/><path d="M134.48,93l.48.51.65-.37c-.07.24-.09.33-.15.53.9-.54,1-.75.74-1.66C135.35,91.84,134.92,92.37,134.48,93Z"/><path d="M146.89,25.11l-1.43.55,1.84,1a2.93,2.93,0,0,0,.48-.77C148,25.08,146.88,25.6,146.89,25.11Z"/><path d="M172.9,85.94a5,5,0,0,0-1.72,0c.5.63.78,1.18,1.58,1a3.69,3.69,0,0,1,1.16.16C173.58,86.66,173.32,86.11,172.9,85.94Z"/><path d="M36.65,93,35,92.8c.6.7.13.89-.33,1.06.17.37.32.69.48,1,.35-.29.61-.62.36-1.13C36.2,93.78,36.58,93.49,36.65,93Z"/><path d="M94.56,94.47l-.67.12a8.46,8.46,0,0,0,.43.85,3.07,3.07,0,0,0,.55.5c.76-.44.84-.73.48-1.62Z"/><path d="M149.44,36.76c-.32.38-.86.31-1.24.78a.76.76,0,0,0-.17.94l.23.11.63-1c.05.18.08.28.1.39a2.21,2.21,0,0,0,.7-.42,1.51,1.51,0,0,0,.14-.73S149.49,36.71,149.44,36.76Z"/><path d="M83.22,89c.11-.59.18-1,.24-1.39l.18.05.15.7.19-.06-.09-.62.18-.09.41.61a1.59,1.59,0,0,1,.13-.13l-1-1.24-.17.25-.29-.52-.52.91C82.75,87.82,83,88.31,83.22,89Z"/><path d="M45.78,71a3,3,0,0,0-1-.5c-.14.53-.25.92-.35,1.26l2,.54A6,6,0,0,0,45.78,71Z"/><path d="M34.84,72.12c.7.07,1.16-.34,1.23-1.18H34c.23.43.37.72.53,1A.42.42,0,0,0,34.84,72.12Z"/><path d="M133.61,92.5c-.19.49-1.17.24-1,1.11l-.73.21,0,.11,1,.24c.23-.45.23-.45.9,0,0-.53-.07-1-.1-1.57Z"/><path d="M203.45,61.63c-.14,0-.12.54-.17.83l.19.09.6-.36.85.55c.19-.49.36-.91.59-1.51l-.59.53C204.45,61.29,203.91,61.48,203.45,61.63Z"/><path d="M92,77.14c-.19-.41-.38-.79-.57-1.19l-1.08-.26-.14.23,1.05.83-.79.81C91.18,78,91.52,77.4,92,77.14Z"/><path d="M50.51,75.12V73.91l-1-.2L49,75a3.79,3.79,0,0,0,.72.21A4,4,0,0,0,50.51,75.12Z"/><path d="M32.34,140.12l-1.77.38c.81.37.42.84.16,1.3l.92-.08c0-.27,0-.47-.07-.69l1-.14Z"/><path d="M71.35,68.71c-.47,1.08.46,1.54.85,2.22,0,.06.25,0,.45,0a5.84,5.84,0,0,0-.4-1.4A4.05,4.05,0,0,0,71.35,68.71Z"/><path d="M74.32,85.39c-.7-.1-1,.26-1,1a2.45,2.45,0,0,0,.5.2c.19,0,.49.1.55,0a3.79,3.79,0,0,0,.44-1S74.48,85.42,74.32,85.39Z"/><path d="M44.1,181.44a1.23,1.23,0,0,0-.6,0,.41.41,0,0,0-.26.24.33.33,0,0,0,.14.27c.33.2.67.38,1,.59.46-.51.74-.5,1.6.34a3.57,3.57,0,0,0-.16-.72C45.18,182.1,44.69,181.64,44.1,181.44Z"/><path d="M30.37,97.55l.62.38c-.41.6-.08.92,1,1.09a9.07,9.07,0,0,0-.28-1.32C31.57,97.39,30.66,97.31,30.37,97.55Z"/><path d="M159.09,76.61h1c-.6-.43-.64-.82-.38-1.33s-.05-1.06-.38-.85a2.17,2.17,0,0,0-.64,1s.23.36.32.34c.46-.09.3.23.29.41A2,2,0,0,1,159.09,76.61Z"/><path d="M20.84,93.1h0v0Z"/><path d="M22,91.84s0,0,.06,0l.47-.09c-.37-.72-.37-.72-1.21-.42s-.85.46-.61,1.21a5,5,0,0,1,.11.58C21,92.39,21.14,91.79,22,91.84Z"/><path d="M12.31,56.21l.11.15-.45.55.06.16L13.28,56l0-.18L11,55.92l.46.78Z"/><path d="M178,45.54c.9.06,1.19-.2,1.13-.92a2,2,0,0,1-.65.2,5,5,0,0,1-1-.22l-.19.24c.17.4.33.8.57,1.36C177.94,45.86,178,45.7,178,45.54Z"/><path d="M17.27,56.8c-.62,0-1.2,0-1.77,0-.07,0-.19.31-.18.32.36.26.76.74,1.09.69A.91.91,0,0,0,17.27,56.8Z"/><path d="M37.06,74.82a3.69,3.69,0,0,0-1.19-.16c.15.39.29.76.45,1.16l.89.28C37.29,75.66,37.63,75.14,37.06,74.82Z"/><path d="M7,110.11l-1.35.33.42.7c.56-.82.61,0,.74.21l1-.25Z"/><path d="M2.4,69.19l.47-.31c.12-.61.21-1.1.34-1.75l-1.06.11.62.41c-.09.1-.19.19-.27.29s-.31.39-.46.58l0,0v0H2Z"/><path d="M204,43.61l-.23-.74h-1.58C203.16,44,203.32,44,204,43.61Z"/><path d="M192.88,78.77l-.37-.62-1,.49.9.77,1-.16c0-.29-.1-.57-.16-.86Z"/><path d="M34.31,129.68c-.22.23-.24.52-.37.74a4.67,4.67,0,0,1-.6.7c0,.18.06.42.1.64l1.37-.92Z"/><path d="M27.69,135.31l.94-.74L27.17,134c-.42.58-.42.73,0,1.36.07-.22.13-.4.25-.75Z"/><path d="M24.58,70.56l1.38.22.32-.94C25.26,69.7,24.79,69.89,24.58,70.56Z"/><path d="M143,27.77a3.53,3.53,0,0,0,.9.15c.24-.62.14-.83-.68-1.34l-.48.6-.28.05C142.65,27.42,142.8,27.67,143,27.77Z"/><path d="M252.18,75.88v1.37l-.88.18.06.28a4.6,4.6,0,0,0,.85-.22c.88-.42.5-1.24.63-1.95Z"/><path d="M193.79,82.08l-.15.18.42.54-1.29.79.06.23a5.49,5.49,0,0,0,1.49-.33c.14-.07,0-.71,0-1.07C194.24,82.28,194,82.19,193.79,82.08Z"/><path d="M2,68.52c-.47,0-1,.31-1.37-.48l.68-.28-.68-.27c-.19.61-.37,1.16-.61,1.9C.74,68.87,1.59,69.25,2,68.52Z"/><path d="M98.25,67.31l.77-.18c-.19-.5-.38-1-.58-1.55C97.71,65.93,97.66,66.36,98.25,67.31Z"/><path d="M154.55,82.28c.18,0,.36,0,.54,0a1.81,1.81,0,0,0-.22-.59,2.36,2.36,0,0,0-1.69.32c0,.08,0,.2.06.36.72-.4.7.17.83.54l.23-.74A1,1,0,0,0,154.55,82.28Z"/><path d="M104.31,75.27c.18-.65.2-1.22-.79-1.36l-.39,1.23Z"/><path d="M162.68,91.59l-.35-.83-.22,0c-.1.36-.2.71-.34,1.18a5.53,5.53,0,0,0,1.23.14c.07,0,.11-.52.16-.79l-.16,0Z"/><path d="M250.23,82.43l-.23-.07a2.18,2.18,0,0,0-.48,1.91c.79.23.87-.26.94-.84l-.58.14Z"/><path d="M11.55,107.57l-.8,1.83,1.35-.28Z"/><path d="M39.53,177.63l.17,0c.07-.2.15-.4.25-.67l.85.59c.16-.24.3-.46.54-.85h-2C39.39,177,39.46,177.33,39.53,177.63Z"/><path d="M4.24,112.25h0s0,0,0,0v0l-.52.43.74.79.42-.49.26.34.66-.44-1.56-.63Z"/><path d="M251.9,82.45c.45,1.14-.84,1.06-1.11,1.65l1.41.07c.05-.34.12-.64.14-.94S252.73,82.46,251.9,82.45Z"/><path d="M89,69.3l.24.27a5.06,5.06,0,0,0,0-.55Z"/><path d="M90.17,68.78l.3-1.53-.17,0c-.11.21-.16.54-.33.62a1.15,1.15,0,0,0-.7,1.19c.19-.2.37-.4.56-.59Z"/><path d="M86.31,53.73l.46.33.15-.07c0-.17,0-.41-.13-.48-.26-.17-.65-.42-.85-.33s-.46.53-.73.88l1.07.22C86.29,54.08,86.3,53.92,86.31,53.73Z"/><path d="M222,43.88s-.17,0-.18,0c-.27-.45-.55-.16-.71,0a2.83,2.83,0,0,0-.35.79c.34-.06.58-.09.81-.14l.75-.16-.3-.72C222,43.76,222,43.85,222,43.88Z"/><path d="M222,43.69h0v0Z"/><path d="M143.61,29.23l-.18-.13.06.24Z"/><path d="M143.48,29.6l-.25-.43.12-.13.08.06-.21-.83c-.17.08-.5.2-.49.25a7.54,7.54,0,0,0,.33,1.12S143.29,29.62,143.48,29.6Z"/><path d="M144,28.89l-.38.34.28.21Z"/><path d="M50.51,73.24l.54.45V73.5l1.26-.41c-.08-.27-.15-.51-.24-.84Z"/><path d="M175.63,83.05c0,.16.08.51.16.52a13.46,13.46,0,0,0,1.42,0c0-.11,0-.22.07-.33a11.72,11.72,0,0,0-1.26-.55C175.93,82.68,175.67,82.91,175.63,83.05Z"/><path d="M18.53,91.8c-.33.85-.59.18-.86,0-.32.4-1.19.53-.73,1.29l1-.6h0a3.44,3.44,0,0,0,.66-.24S18.56,92,18.53,91.8Z"/><path d="M31.25,101.74l.87,1.31,1-.58v-.21C32.34,102.56,31.91,101.57,31.25,101.74Z"/><path d="M66,71.76c.68-.12,1.35-.31,2-.48A2.7,2.7,0,0,1,68,71l-2.4.29C65.72,71.49,65.87,71.78,66,71.76Z"/><path d="M38.31,176.29l-.47.57.28-.22a7,7,0,0,0,.44.86.37.37,0,0,0,.35.11c.08,0,.12-.21.16-.33C39.3,176.6,38.77,176.47,38.31,176.29Z"/><path d="M171.12,75.92,171,75.8l-1.8.78,1,.62C170.52,76.81,170.82,76.37,171.12,75.92Z"/><path d="M92.82,84.32c-.19.36-.62.84-.51,1.08.23.52.78.7,1.44.23l-1-.55.31-.6Z"/><path d="M40.06,68.29l-1.39-.44-.24.78H40Z"/><path d="M164.3,81.74c-.37.28-.72.58-1.12.9l1.32.43a11.27,11.27,0,0,0,.1-1.13C164.6,81.87,164.34,81.72,164.3,81.74Z"/><path d="M141.43,5.55h0Z"/><path d="M141.4,6.53c.37.13.66,0,.66-.33s-.07-.77-.63-.65l-.9,1A3.35,3.35,0,0,1,141.4,6.53Z"/><path d="M126.36,85c-.27-.1-.55-.3-.79-.26s-.32.37-.4.6c-.21.64.43.49.8.66-.07-.25-.13-.49-.21-.81l.52,0Z"/><path d="M236.58,67.61c-.14.23-.41.47-.39.69.06.89.3,1.09,1.36,1.27l-.86-.72c.08-.43.13-.76.19-1.09Z"/><path d="M33.65,74c-.08.44.22.67.88.6-1.51-.54.09-1.39-.37-2C33.08,72.72,33.74,73.52,33.65,74Z"/><path d="M232.21,43.21a4.35,4.35,0,0,0-.4-.77c-.16.19-.49.49-.45.56a12.86,12.86,0,0,0,.92,1.2A4.36,4.36,0,0,0,232.21,43.21Z"/><path d="M212.42,90.75l1-.47c.05.14.12.31.19.48l.13,0c0-.33,0-.66.06-1h-1.07Z"/><path d="M144.12,78l1.36.26c0-.43,0-.84-.08-1.38Z"/><path d="M78.76,73.88l.49-.95a1.43,1.43,0,0,0-1.75.82l.68-.34Z"/><path d="M171.75,58.44l-.26-.7-.17,0-.26,1,.53-.28-.07.57c.83,0,.89-.13.67-.85Z"/><path d="M87,56.38l-.2.24.72.27-.16.2L86.83,57l-.11.16c.21.17.49.52.63.47s.46-.42.73-.69Z"/><path d="M237.44,57.6l-.37-.83-1.58.43a4.05,4.05,0,0,0,.76.31A9.66,9.66,0,0,0,237.44,57.6Z"/><path d="M42.89,171.83c.16.15.31.29.51.46.05-.45.06-.93.71-.55.1.06.35-.12.53-.19v-.21c-.67.4-.48-.09-.49-.56Z"/><path d="M97.94,94.78l-.66.2.45.5.81-.89v-1C97.75,93.72,98.17,94.39,97.94,94.78Z"/><path d="M205,48c.48-.86.32-1.14-.78-1.24v1.08l.48-.57Z"/><path d="M98.13,93.33c.52-.65-.43-.86-.56-1.35v1l-.42,0v.29C97.48,93.35,98,93.49,98.13,93.33Z"/><path d="M142.5,21.45a2.45,2.45,0,0,0,.24-.69l-.28-.18-1,.76C141.81,21.93,142.18,21.86,142.5,21.45Z"/><path d="M38.8,140.55c0-.07,0-.27-.06-.47s-.17-.57-.26-.86l-1,.47Z"/><path d="M117.75,52.88c.26-.89.26-.89,1-1l-.65-.81C117.48,52.67,117.48,52.67,117.75,52.88Z"/><path d="M115.84,75.92c0-.12-.22-.25-.37-.31s-.27.14-.27.23c0,.39,0,.78,0,1.16h.68A7.82,7.82,0,0,0,115.84,75.92Z"/><path d="M192.21,75.7a5.33,5.33,0,0,0-.75.3c.09.19.16.39.27.58a3.26,3.26,0,0,0,.24.35l.67-.24c-.06-.25-.1-.5-.18-.74S192.27,75.68,192.21,75.7Z"/><polygon points="192.64 76.7 192.65 76.69 192.64 76.69 192.64 76.7"/><path d="M203,64.71l-.08.23a2,2,0,0,1,.46.24,6.43,6.43,0,0,1,.47.52c.31-.22.58-.41.91-.66Z"/><path d="M143.27,25.18c-.1.18-.18.5-.09.62a4.65,4.65,0,0,0,.78.76,7.56,7.56,0,0,0,0-.94.73.73,0,0,0-.24-.51A.51.51,0,0,0,143.27,25.18Z"/><path d="M74.49,89a4.38,4.38,0,0,0-.08.82c.88-.83,1-1.51.6-2A11.51,11.51,0,0,0,74.49,89Z"/><path d="M99.08,92.31c.3.71,1.19.71,2.07-.11Z"/><path d="M18.41,113.46c.26.48.58.79,1.06.49.08,0,0-.62-.19-.8C18.89,112.75,18.65,113.14,18.41,113.46Z"/><path d="M114.84,79.59a9.52,9.52,0,0,1-.87.7c-.38.2-.72.38-.56.89l1.88-1.72A1.48,1.48,0,0,0,114.84,79.59Z"/><path d="M122.32,53.87a1.22,1.22,0,0,0-1.7-.31C121.05,54.4,121.73,53.75,122.32,53.87Z"/><path d="M94.4,66.28s-.16-.17-.17-.16c-.38.28-.74.57-1.18.93l1.25.19C94.34,66.92,94.39,66.6,94.4,66.28Z"/><path d="M32.72,103.45c-.21,0-.43-.07-.55,0a9.51,9.51,0,0,0-.92.76l.69.36C32.23,104.16,32.43,103.89,32.72,103.45Z"/><path d="M96.07,69a7.64,7.64,0,0,0,0-2c0-.13-.34-.21-.52-.31l-.31.38.74.48C95.29,68,96,68.46,96.07,69Z"/><path d="M199.41,44.9l-1,1C199.73,46,199.74,46,199.41,44.9Z"/><path d="M148.48,12.12l-.4.66c.09.05.23.17.27.15.29-.21.55-.44,1-.77l-1.34-.6Z"/><path d="M41.08,174.1c-.42-.34-.81-.79-1.41-.27a.41.41,0,0,0-.15.28.34.34,0,0,0,.24.19c.43,0,.86,0,1.29,0Z"/><path d="M2.94,69.94a1.63,1.63,0,0,0-.46-.15l-.8.73.05.16,1.16-.26a1.62,1.62,0,0,0,.32-.17C3.12,70.14,3.05,70,2.94,69.94Z"/><path d="M230,42.07c.24.53.68.44.89.18s-.15-.6-.24-.92l-.29.06C230.2,41.63,230.07,41.86,230,42.07Z"/><path d="M144.82,24.35c-.41-.09-1,0-.85-.74a2.21,2.21,0,0,0-.34-.14,8.53,8.53,0,0,0,0,.88,1.81,1.81,0,0,0,.2.48l.16-.09c0-.12,0-.23-.06-.39C144.56,24.8,144.57,24.8,144.82,24.35Z"/><path d="M173.64,89.59c-.57.83.65.74.6,1.39C174.8,90.1,174.39,89.77,173.64,89.59Z"/><path d="M147.59,10.29c-.07.33-.14.65-.2.91l-.76-.21c.09.3.18.6.29.93C147.84,11.18,148,10.83,147.59,10.29Z"/><path d="M51.24,76.53c.5-.14,1-.3,1.44-.44l-.28-.57-1.31.74S51.21,76.53,51.24,76.53Z"/><path d="M169.43,61.39A1.31,1.31,0,0,0,171.2,61l-1.78.19Z"/><path d="M153.42,48.86h0Z"/><path d="M153.42,48.87l-.91,1.7C153.55,50.21,153.87,49.49,153.42,48.87Z"/><path d="M86.35,56l.13.12c.43-.45.77-.36,1.15.07,0-.25,0-.5,0-.65l-1.19-.27C86.45,55.43,86.4,55.71,86.35,56Z"/><path d="M129.72,93.46l.28.36-.61.18v.13l1,.27c-.05-.66-.09-1.22-.14-1.84Z"/><path d="M27.18,66.83,26,67.72l1.27.24C27.25,67.56,27.22,67.2,27.18,66.83Z"/><path d="M149.18,40.05c-.13-.23-.27-.51-.35-.65l-1.43.35A1.72,1.72,0,0,0,148,40C148.32,40.08,148.71,40.05,149.18,40.05Z"/><path d="M147.39,39.74l0,0h0Z"/><path d="M73.2,61.49a10.67,10.67,0,0,0,1-.62l-1.32-.69.47.57-.46.58C73,61.39,73.13,61.52,73.2,61.49Z"/><path d="M143.7,33.42c.43.14.43.14,1.3-.52C144.32,32.46,144.28,32.47,143.7,33.42Z"/><path d="M39.85,101.29c-.12.51-.22.93-.31,1.35l1.17-.7Z"/><path d="M39.54,102.64l0,0h0Z"/><path d="M146.56,21.26c.22.47.6.46,1.16,0l-.84-.62C146.77,20.87,146.5,21.15,146.56,21.26Z"/><path d="M153.32,82.64s-.07.1-.1.16a9,9,0,0,0,1.35.82c.14.06.45-.31.75-.53L154.08,83v0l0,0h0Z"/><path d="M143.88,80.94c.14-.28.26-.52.38-.78-1.19,0-1.26,0-1.6.78l.77-.43Z"/><path d="M254.16,80.34v.23l1,.29c0-.28.08-.56.13-1l-.66.26Z"/><path d="M117,76.41l-.21-.54a2.34,2.34,0,0,0,0,.79c0,.07.06.13,0,.07l1.12.35C118,76.34,117.8,76.18,117,76.41Z"/><path d="M162,64.74l-.85.65.09.17.65-.06-.28.68C162.39,65.88,162.1,65.33,162,64.74Z"/><path d="M207.46,40.25l-.9-.67-.15,1a1.56,1.56,0,0,0,.2.16Z"/><path d="M207.81,85.33c.09-.31.17-.59.27-.86s.2-.55.33-.9C207.7,83.69,207.7,83.69,207.81,85.33Z"/><path d="M21,95.13c.69.22,1,0,1.16-.71C21.52,94.17,21.33,94.72,21,95.13Z"/><polygon points="13.04 115.47 13.05 115.46 13.04 115.46 13.04 115.47"/><path d="M15.06,114.77a2.66,2.66,0,0,0-2,.69l2.08-.42Z"/><path d="M235.13,43.31,234,42.8l-.29.4,1.05.59Z"/><path d="M234.36,44.56l-.08.79a1,1,0,0,0,1.12-.79c0-.07-.13-.15-.24-.27l-.3.48Z"/><path d="M36.24,175.26c.08.69.44.55,1,.34l-.45-.18c-.05-.34-.08-.58-.11-.82l-.78.21C36,175,36.23,175.11,36.24,175.26Z"/><path d="M36.67,174.6h0v0h0Z"/><path d="M241,70c.09-.4.17-.79.3-1.41a3.48,3.48,0,0,0-.77.29c-.11.1-.13.3-.21.51H241l-.2.55Z"/><path d="M91.73,69.83l.54-.34.57.47.29-.85C92.56,69.27,91.94,69.08,91.73,69.83Z"/><path d="M143.37,84.31l-.71-.12-.74,1.28.1.09Z"/><path d="M170.67,89.53,172,90l-1.08-1.35C170.79,89.06,170.73,89.32,170.67,89.53Z"/><path d="M206.45,43.8l-1,.54.72.52C206.06,44.47,207,44.34,206.45,43.8Z"/><path d="M42.51,173.38c.22.15.49.45.65.4s.45-.39.77-.69l-.81-.24c0,.17,0,.3,0,.42h-.54Z"/><path d="M224.89,59.5c-.11.44-.21.82-.33,1.26l.54.43c0-.35-.13-.66,0-.75C225.56,60,225,59.82,224.89,59.5Z"/><path d="M17.05,111.71l1.52.44v-1l-.07,0c-.07.2-.13.39-.22.67l-1.13-.46Z"/><path d="M11,57.39H9.58a1.28,1.28,0,0,1,0,.19C10.36,57.89,10.82,57.83,11,57.39Z"/><path d="M179.57,86.65l1.1-1.71C179.69,85.23,179.56,85.89,179.57,86.65Z"/><path d="M118.55,74l-.79.39.48.9.49-.71-.55.21.39-.62Z"/><path d="M95.11,60.39l-.5.72.2-.18.51.93.16-.1a3.1,3.1,0,0,1-.21-.58,4.19,4.19,0,0,1,0-.71Z"/><path d="M78.88,83.88l1,.33c.06-.21.13-.41.25-.8l-1.27.28Z"/><path d="M52.42,67h0Z"/><path d="M53.19,67.88c.08-.13.17-.28.31-.49L53,67.5c.09-.26.15-.46.22-.67l-.82.14C52.51,67.4,52.55,67.86,53.19,67.88Z"/><path d="M34,152.24l.68.85c.23-.18.61-.43.21-.78C34.74,152.15,34.33,152.25,34,152.24Z"/><path d="M161.2,86.82l1.09-.56c-.07-.14-.13-.26-.29-.55C161.89,86.31,161,85.84,161.2,86.82Z"/><path d="M115.29,79.46c.11-.3.23-.61.3-.79l-.69-.79h-.11c.16.53.33,1.05.5,1.58Z"/><path d="M19.32,109.94h0l0,0,0,0Z"/><path d="M105.53,67.16l.09.81.69-.33-.42-.61Z"/><path d="M152.16,79.62l.75-.47-.1-.66C152.22,78.76,152,79.28,152.16,79.62Z"/><path d="M215,90.82l1,.25-.64-1.1Z"/><path d="M41.38,178.12l.84-.26a3.32,3.32,0,0,1-.36-.64c0-.12,0-.28.09-.43-.14,0-.37,0-.38.05C41.49,177.23,41.45,177.62,41.38,178.12Z"/><path d="M119.6,50.55h0c.23-.18.65-.38.64-.54a3.12,3.12,0,0,0-.53-1c-.18.6-.31,1-.44,1.41l.33.19h0Z"/><path d="M119.46,51.69l.47-.55-.34-.58-.67.62Z"/><path d="M206.76,64.71a1.15,1.15,0,0,0-.87-.25c-.25.1-.4.46-.6.7l.17.08Z"/><path d="M44.33,175l.09.42h.24v-.91l-1,.3.06.24Z"/><path d="M8.15,103l.58.61.59-.7-1.06-.06Z"/><path d="M45.08,176.2c-.06.47-.12,1-.17,1.42l.33,0,.19-1.41Z"/><path d="M136.35,49.69c.1-.11.1-.31.14-.47-.25.11-.51.21-.75.33a1.28,1.28,0,0,0-.26.2C135.84,50.27,136.12,50,136.35,49.69Z"/><path d="M222.8,70.89h-.52l-.48.56.48.54Z"/><path d="M22.35,87.86l-1,.41,1.31.42Z"/><path d="M19.28,59h0v0h0Z"/><path d="M19.78,58.9c-.15-.26-.33-.51-.52-.8l-.46.33.48.53.45.18C19.75,59.06,19.81,59,19.78,58.9Z"/><path d="M149,14.17c.58-.34.72-.06.76.35l.24-.08-.06-.91-.86.28C149,13.93,149,14.05,149,14.17Z"/><path d="M206.82,44.15a2.09,2.09,0,0,0,.81-.15c.14-.09.13-.43.19-.65l-.16,0c-.3.21-.59.43-.88.65Z"/><path d="M143,24.23l-1.1-.06.37.74Z"/><path d="M98.69,96.55l1-.85C99,95.57,98.54,95.57,98.69,96.55Z"/><path d="M164.27,70.19a1.13,1.13,0,0,1-.43.1c0,.1,0,.2.07.3l1.13-.25-.35-.63A2.4,2.4,0,0,1,164.27,70.19Z"/><path d="M144,14.58l1.27-.28C144.78,13.63,144.75,13.64,144,14.58Z"/><path d="M85.36,96.23c-.09,0-.17.12-.22.2s.1.18.14.18l1.48-.32-.05-.21C86.26,96.13,85.81,96.17,85.36,96.23Z"/><path d="M68.09,74.41l.72.2c.06-.11.12-.23.17-.34l-.64-.49Z"/><path d="M158,92.32l.07.3,1.64-.32,0-.25Z"/><path d="M177.87,88.22c.32,1.13.72-.18,1.07.06l-.6-.5C178.18,87.93,178,88.06,177.87,88.22Z"/><path d="M178.56,91.55l-1.25.07C178.15,92.33,178.35,92.32,178.56,91.55Z"/><path d="M37.17,73.31l-.82.59.19.24.89-.09Z"/><path d="M194.68,82.15a5.55,5.55,0,0,0,.91,0v-.28l-1-.18C194.6,81.8,194.62,82.14,194.68,82.15Z"/><path d="M147.22,23.29c-.05.39-.09.79-.15,1.32C147.87,23.94,147.86,23.54,147.22,23.29Z"/><polygon points="185.16 89.04 185.15 89.04 185.15 89.05 185.16 89.04"/><path d="M184.48,90l.67.37V89.05a4.23,4.23,0,0,0-.34.4C184.69,89.61,184.59,89.79,184.48,90Z"/><path d="M1.1,65.58,1,65.41l-.57.35-.25-.39-.17,0c0,.18,0,.48,0,.52A.74.74,0,0,0,1.1,65.58Z"/><path d="M38.87,178.57a3.31,3.31,0,0,0-.43.58,5.53,5.53,0,0,0,.55.14c.1,0,.25,0,.3-.06s.1-.29.05-.34S38.9,178.54,38.87,178.57Z"/><path d="M53.06,69.73l-.93-.63C52.17,69.87,52.52,70.07,53.06,69.73Z"/><path d="M154,84.78c.1.53.22,1.14.33,1.76A1.09,1.09,0,0,0,154,84.78Z"/><path d="M141.3,13.8c.18.35.34.64.5.93,0-.34.68-.77-.1-1h.05v0l0,0Z"/><path d="M170,68.36l.63-.91-.63-.69Z"/><path d="M15.92,110.54l.9.11c0-.1.05-.2.07-.3l-.84-.31Z"/><path d="M76.86,83.1v-.37l0,0h0c-.37-.59-.82-.33-1.27-.15l.58.22Z"/><path d="M75.6,82.58h0Z"/><path d="M256,80.1c-.52.83-.52.83,0,1.09l.21-1Z"/><path d="M19.37,57l.07-.13-1-.61c0,.35.07.55.09.74Z"/><path d="M146.8,27l.89.81C147.72,27.22,147.55,26.85,146.8,27Z"/><path d="M18.91,108.63c-.07.22-.15.43-.2.66a1.17,1.17,0,0,0,0,.32l.8-.48Z"/><path d="M18.73,109.61h0c-.52.17-.52.17-.06,1.09l.65-.78-.59-.32Z"/><path d="M71.56,59.54l-.14.18.4.81H72c0-.22.12-.47,0-.64S71.73,59.65,71.56,59.54Z"/><path d="M100,97.39c.63.7,1,0,1.4,0l0-.23Z"/><path d="M44.77,180.9l0,0,0,0Z"/><path d="M45,181.58l.81-.32c-.12-.26-.21-.48-.3-.68l-.68.32.42.2C45.15,181.21,45.09,181.32,45,181.58Z"/><path d="M15.36,59.57l1.24.16-1-.91C15.54,59.08,15.47,59.29,15.36,59.57Z"/><path d="M239.1,68.88l-.93-.09c0,.26.06.45.11.78l.84-.53Z"/><path d="M150.73,15.33l-.33-.06c-.06.45-.13.9-.2,1.35l.28,0C150.57,16.22,150.65,15.78,150.73,15.33Z"/><path d="M89.67,60.12l-.29,0c-.07.43-.15.85-.22,1.28l.27,0Z"/><path d="M73.05,59.36l.35.58.72-1Z"/><path d="M66,66.53c0,.28,0,.51,0,.73h1.16Z"/><path d="M195.83,80h0Z"/><path d="M194.33,80.51l1.5-.56C195.22,79.85,194.54,79.56,194.33,80.51Z"/><path d="M108.55,51.36h0Z"/><path d="M107.85,52.3l.7-.94-.75-.07C107.82,51.62,107.83,52,107.85,52.3Z"/><path d="M77.11,77.22a3,3,0,0,0,.52.42c.05,0,.22-.18.33-.28l-.59-.44Z"/><path d="M197.09,54.14c-.09-.29-.15-.5-.24-.82l-.65.32v.22Z"/><path d="M92.56,80.91c0-.26,0-.47,0-.68a3,3,0,0,0-.06-.43l-.19,0C92.1,80.63,92.1,80.63,92.56,80.91Z"/><path d="M104.64,66.22c.08-.4.14-.69.21-1l-.66.3C104.25,65.88,104.13,66.37,104.64,66.22Z"/><path d="M1.26,63.82.65,65c.31,0,.67-.06.67-.11A6.69,6.69,0,0,0,1.26,63.82Z"/><path d="M252,79.52c.84-.14.93-.25.75-.92Z"/><path d="M64.23,86.73l.79.92c0-.36.06-.6.08-.84Z"/><path d="M39.23,174.93c-.15,0-.26.27-.38.42l.15.17.84-.31A.67.67,0,0,0,39.23,174.93Z"/><path d="M189.45,44.58l0,0,0,0Z"/><path d="M190.87,44l-.69-.17-.69.74,1.35-.44Z"/><path d="M172.76,54.08h0Z"/><path d="M172,53.56c0,.24.05.48.08.72l.64-.2-.51-.61Z"/><path d="M172.43,60.11l-.09.19,1.13.38C173.39,60.33,173.39,60.33,172.43,60.11Z"/></g></g></svg>