<svg xmlns="http://www.w3.org/2000/svg" viewBox="0 0 306.39 91.54"><g id="Calque_2" data-name="Calque 2"><g id="P2_m5_1"><path d="M243.94,71.3a9.14,9.14,0,0,0,2-4.81c.13-1.25.41-2.49.58-3.74s.61-2.58.33-3.73c-.4-1.67.36-3.31-.23-4.9.74-1.71-.45-3.51.27-5.22-.81-1.44.41-3.09-.57-4.6-.6-.92-.56-2.23-1-3.27a2.21,2.21,0,0,0-2.15-1.38A1.75,1.75,0,0,0,241.28,41c-.11.38-.84.74-1.33.8a27.69,27.69,0,0,1-3.16.06c-2.58,0-4.66.8-6,3.22a44.58,44.58,0,0,0-2.54,5.48c-.89,2.35-2,4.61-3,6.92a17.58,17.58,0,0,0-1.26,8.6,8,8,0,0,1-1.07,5.23c-1.44,2.25-2.91,4.49-4.24,6.8s-3,3.3-5.6,2.79a2.32,2.32,0,0,1-1.57-.73,10.54,10.54,0,0,1-2.13-3.63c-.81-2.85-1.31-5.77-2.29-8.59a19.94,19.94,0,0,1-1-6.86c0-1.5-.22-3-.22-4.52a10,10,0,0,1,1.33-5.69c1.51-2.26,3.23-4.38,4.92-6.52A14,14,0,0,1,214.4,42c1.35-1,2.86-1.86,4.19-2.92,1.17-.94,2.54-1,3.88-1.22.67-.12,1.35-.18,2.13-.29-.11-1-.46-1.86.56-2.24.79-1.83.61-3.22-1.3-3.47a7.12,7.12,0,0,0-1.66-.05c-1,.12-2.08.35-3.13.49a7.29,7.29,0,0,0-3.65,1.59c-1.49,1.2-3.14,2.21-4.53,3.51-1.17,1.1-2.79,1.91-3.13,3.75,0,.23-.36.41-.57.59a4.61,4.61,0,0,0-.78.66c-.92,1.26-1.84,2.52-2.69,3.83a14.92,14.92,0,0,0-2.3,7.87c0,.76-.6,1.58.2,2.28.08.07,0,.38-.08.57a17.45,17.45,0,0,0,.21,6.16A57.8,57.8,0,0,0,203.87,72c.57,1.72.91,3.51,1.4,5.25a11.73,11.73,0,0,0,1,2.82c.86,1.41,1.95,2.67,2.9,4a6.84,6.84,0,0,0,5.18,2.9c.83.09,1.63-.25,2.35-.12a3.6,3.6,0,0,0,3.55-1.58,68.45,68.45,0,0,0,4-5.68,5.11,5.11,0,0,1,1.95-1.88,7.76,7.76,0,0,1,.78.71c.67.82,1.28,1.67,2,2.47.86,1,1.62,2,3.22,2.1,1.31.07,2.48.2,3.4-.94.22-.28.49-.51.7-.79C238.86,78,241.37,74.6,243.94,71.3Zm-12.17,5.76a.44.44,0,0,1-.3.07,11.72,11.72,0,0,1-1.41-1.23,4,4,0,0,1-.93-3.67c0-.1.1-.19.11-.28a15.88,15.88,0,0,1,.93-4.34,2,2,0,0,0-.56-1.59,2.38,2.38,0,0,1-.76-2.17,15.79,15.79,0,0,1,1.77-5.41c.58-1.12.94-2.34,1.46-3.48.87-1.91,1.73-3.83,2.72-5.68a5,5,0,0,1,1.59-1.35,16.34,16.34,0,0,1,1.44-.8l.25.7c1,0,2-.06,3,0s1.23.29,1.24,1.45c0,3.13,0,6.26,0,9.39a14.2,14.2,0,0,1-2.69,9c-.92,1.19-1.91,2.32-2.91,3.45a20,20,0,0,0-2,2.81A19.8,19.8,0,0,1,231.77,77.06Z"/><path d="M159.45,73.2a3.83,3.83,0,0,0,.74-2.22c0-.62,1.06-1.18,1.3-1.88a23,23,0,0,0,1.41-5.39,43.72,43.72,0,0,0-.39-11,19.48,19.48,0,0,0-2.9-6.73,5.26,5.26,0,0,0-1.59-1.3c-.57-.41-1.35-.65-1.72-1.19-1.06-1.56-2.72-1.42-4.07-1.23a10.82,10.82,0,0,0-5.67,2.3c-1,.88-2.2,1.59-3.27,2.43a15,15,0,0,0-1.43,1.53l-1,.37a11.3,11.3,0,0,1-.36-1.7c-.24-3.68-.44-7.36-.69-11-.08-1.14.23-2.32-.23-3.41,0-.08-.07-.16-.11-.25v0a8.3,8.3,0,0,0,.32-1.59c0-1.9,0-3.81-.09-5.71-.12-3.62-.27-7.24-.41-10.8l-.87-.3a6.71,6.71,0,0,0,.21-4.35,4.64,4.64,0,0,1-.12-1.93A9.72,9.72,0,0,0,138,3.31c-.25-.76-.36-1.85-1.7-1.39-.1,0-.33-.2-.45-.34-.29-.35-.54-.73-.83-1.08A3.29,3.29,0,0,0,132.8.06c-.42.23-1.32,2.28-1.07,2.71.83,1.43.67,3,.81,4.56q.53,5.79.78,11.62c.15,3.63.13,7.27.2,10.91.06,3.27,0,6.54.21,9.8.21,4,.57,7.94.88,11.9.13,1.61.32,3.2.43,4.81s.22,3.4.27,5.11,0,3.7.05,5.56a14.16,14.16,0,0,1-.84,6.24,7.19,7.19,0,0,0-.58,2.64,15.44,15.44,0,0,0,1.72,7,1,1,0,0,0,1.28.66c.14.42.26.79.37,1.11.69,0,1.28.07,1.87.14a15.26,15.26,0,0,0,4,.06c1.28-.16,2.54-.38,3.82-.58a11.39,11.39,0,0,0,7.95-5c.32-.45.71-.86,1-1.3C157.19,76.42,158.39,74.85,159.45,73.2Zm-20-40.71h0l0-.06Zm6.79,47.79c-1.52,1-3.18.56-4.8.43-.69,0-.92-.52-.84-1.38l1.78-.57c.39-1.41,0-2.8-.09-4.2-.08-1.86-.23-3.71-.29-5.57s0-3.63-.09-5.44c-.2-2.85-.4-5.66,1.14-8.26a5.27,5.27,0,0,0,.29-1.17c.07-.23.25-.63.36-.62,1.2.08,1.22-1.09,1.82-1.61,1.93-1.65,3.62-3.6,6-4.75,1.42-.7,2.2-.64,2.88.72a21.06,21.06,0,0,1,2.32,6,56.18,56.18,0,0,1,.08,8.61c-.05,3.52-1.66,6.47-3.5,9.33-.81,1.26-1.54,2.57-2.41,3.79a30.4,30.4,0,0,1-2.67,3.22A9.75,9.75,0,0,1,146.26,80.28Z"/><path d="M131.65,77.1c0-.38-.19-1,0-1.14.9-.79.57-1.68.41-2.59a34.31,34.31,0,0,1-.62-3.74c-.31-4-.51-8.06-.82-12.08a77.11,77.11,0,0,0-1.15-10.82c-.46-2.11-.73-4.27-1.07-6.41a6.39,6.39,0,0,0-2.25-3.92L125,37.65c-.86-.08-1.53-.16-2.21-.18-.5,0-1,.09-1.51.12a7,7,0,0,0-4.3,1.62c-.88.74-1.86,1.35-2.75,2.08-1.83,1.49-3.64,3-5.44,4.53a4,4,0,0,0-1.23,1.31c-.54,1.41-1.71,2.37-2.4,3.71a22.5,22.5,0,0,0-2.35,6,14,14,0,0,1-.17,2.08A17.66,17.66,0,0,0,101.9,65c0,2.41.11,4.82.13,7.24a12.13,12.13,0,0,0,3.33,8.49,6.1,6.1,0,0,0,4.58,2c1.54,0,3.29.05,4.21-1.7,2-1.05,2.17-3.48,3.77-4.82.09-.08,0-.3.11-.43a24.23,24.23,0,0,1,1-2.35,14.83,14.83,0,0,0,1.9-4.37,11,11,0,0,1,1.14-3.27,23.61,23.61,0,0,0,2-6.95,8.64,8.64,0,0,1,1.32-3.27c.71.23.67.82.73,1.27.2,1.55.39,3.1.49,4.65.15,2.62.58,5.2.56,7.84a28.72,28.72,0,0,0,.61,5.69c.3,1.57.37,3.37,2,4.3a1.66,1.66,0,0,0,1.21.27,1.36,1.36,0,0,0,.89-1.43C131.84,77.79,131.69,77.45,131.65,77.1ZM120.74,55.8a41.41,41.41,0,0,1-2.47,8.2c-1,2.29-1.73,4.72-2.65,7.06a12.7,12.7,0,0,1-1.31,2.16,22,22,0,0,0-1.51,2.24,1.83,1.83,0,0,1-1.91,1.18,3.6,3.6,0,0,1-2.73-1.21,6.28,6.28,0,0,1-1.45-2.54,11.35,11.35,0,0,1-.55-3.09q0-5,.11-10a7.76,7.76,0,0,1,1.36-4.42,3.83,3.83,0,0,0,.34-.67,16.32,16.32,0,0,1,4.73-6.09c1.11-.92,2.1-2,3.28-2.83a21.75,21.75,0,0,1,3.84-2,9.33,9.33,0,0,1,2.44-.25C121.77,47.83,121.59,51.86,120.74,55.8Z"/><path d="M277.19,73.39a1.31,1.31,0,0,0-.34-1.5c-.44-.5-1.05-1.2-1-1.72.14-1-.5-1.54-.77-2.63a13.57,13.57,0,0,0-.88,1.31c-.58,1.18-1.08,2.39-1.68,3.55a5.28,5.28,0,0,1-3.34,2.65,16.91,16.91,0,0,1-4.66,0,2.24,2.24,0,0,1-1.92-1.32,13.59,13.59,0,0,1-1.34-4.13c-.22-2.7-.15-5.43-.12-8.15.05-5.55.15-11.09.26-16.64a1.78,1.78,0,0,1,.49-1.18,9.51,9.51,0,0,1,2.56-1.8c1.72-.68,3.62-.87,5.2-1.92.08,0,.21-.11.27-.07,1.22.72,2.14-.52,3.29-.51a2.49,2.49,0,0,0,1.86-1.15A9.81,9.81,0,0,1,277.85,35c.08-.07.07-.27.14-.53-.29-.06-.61-.24-.79-.15a6,6,0,0,1-3,.27,5.8,5.8,0,0,0-1.49.15c-1.28.26-2.55.56-3.82.85a9.05,9.05,0,0,0-1,.24c-1.23.42-2.43.89-3.67,1.28a6.66,6.66,0,0,1-1.38.14c0-1.34-.17-2.53-.11-3.71.11-2.2.16-4.38.08-6.58-.12-3.33-.09-6.67-.13-10a20.8,20.8,0,0,1,1-7c.6-1.76.3-2.57-1.32-3.7a3,3,0,0,0-.78-2.82,5.34,5.34,0,0,0-.61.87c-.57,1.4-1.09,2.83-1.67,4.23a16.92,16.92,0,0,0-1.18,6.35c-.07,4.21.41,8.42.06,12.64,0,.1,0,.2,0,.3-.07,3.28-.15,6.56-.22,9.84a4.22,4.22,0,0,1-1.27,3.13,2.23,2.23,0,0,0-.43,2.91,6.35,6.35,0,0,1,.7,3.74c-.1,1.4.31,2.82,0,4.26-.1.46.17,1,.14,1.49-.12,1.67,0,3.34-.1,5s.15,3.3.16,4.95c0,1.8-.08,3.6-.11,5.4a3.8,3.8,0,0,0,.11.89c.21,1,.4,2,.67,3,.53,1.93.73,3.93,1.88,5.7a6.16,6.16,0,0,0,3.38,2.63,13.44,13.44,0,0,0,7,.32,8.36,8.36,0,0,0,6.14-5.1C276.6,75.11,276.85,74.23,277.19,73.39Z"/><path d="M26.64,82.37a46.08,46.08,0,0,1-2.71-5c-.81-1.9-1.33-3.9-2-5.86-.39-1.2-.77-2.4-1.16-3.6-1.15-3.52-1.34-7.21-2-10.82A37.7,37.7,0,0,0,17.19,51,4.94,4.94,0,0,0,15,48a1.79,1.79,0,0,0-2-.13,1.87,1.87,0,0,0-.77,1.83,30.92,30.92,0,0,0,1.32,7.38,17.21,17.21,0,0,1,1.08,5.78A20.83,20.83,0,0,0,14.62,65c.06,1.5.25,3,.25,4.51a15.54,15.54,0,0,1-.31,3.74c-.68,2.68-1.56,5.31-2.3,8a6.94,6.94,0,0,1-1.72,3,2.79,2.79,0,0,1-3,1c-1.44-.42-2.78-1-3.09-2.73a30.12,30.12,0,0,1-.2-9c.3-2.44.69-4.88,1.1-7.3A6.78,6.78,0,0,1,6,63.41a4.57,4.57,0,0,0,.31-1.61,5.69,5.69,0,0,1,.19-1c.39-1.05.83-2.08,1.25-3.13a18.36,18.36,0,0,1,2-4.53A2,2,0,0,0,9,50.43c-1.42-.75-2.61-.64-3.39.76A36.19,36.19,0,0,0,3,57.24,39.66,39.66,0,0,0,1.65,63C1.17,65.56.59,68.14.31,70.78A58.16,58.16,0,0,0,.15,81c.08,1,.5,2,.66,3.08a8.39,8.39,0,0,0,3,5.73,7.72,7.72,0,0,0,3,1.58c2,.5,5-.26,5.73-1.75,1-1.87,2.5-3.32,3.28-5.38.83-2.21,1.62-4.42,2.27-6.69.15-.55.33-1.09.5-1.64h.34c.58,1.63,1.08,3.31,1.77,4.89a29.09,29.09,0,0,0,2.51,4.79c.94,1.37,1.5,3.08,3.24,4.27a3.28,3.28,0,0,1,1.52-2.27c1.12-.74,1.15-1.79.36-2.91C27.75,83.93,27.12,83.2,26.64,82.37Z"/><path d="M48.63,74.63c.34-2.55.83-5.1.95-7.66.21-4.12.2-8.26.23-12.39a7.56,7.56,0,0,0-1.11-4.19c-.39-.6-.91-1.25-1.7-1a3.87,3.87,0,0,1-3.29-.18A7.26,7.26,0,0,0,42.29,49c.34.72.54,1.15.74,1.59a4.3,4.3,0,0,1,.46,1.09c.21,1.64.42,3.29.51,5,.07,1.15,0,2.31-.08,3.47a69.82,69.82,0,0,1-.74,9.8c-.31,1.74-.52,3.49-.75,5.24-.18,1.3-.31,2.6-.51,3.89a4.71,4.71,0,0,1-.58,1.07c-.7-2.31-1.43-4.3-1.9-6.35-.61-2.63-1.13-5.3-1.48-8-.67-5.15-1.18-10.32-1.79-15.47-.12-.93-.41-1.84-.65-2.9-1,.21-1.7.39-2.46.53a2.21,2.21,0,0,1-1,0c-.67-.21-1.3-.51-2-.8a3.43,3.43,0,0,0-.08.67c.23,2.36.47,4.71.7,7.07.18,1.75.25,3.53.55,5.27,1,5.71,1.7,11.48,3.28,17.09a6.61,6.61,0,0,0,1.69,3.31,12,12,0,0,1,2.31,2.77,4,4,0,0,0,2.66,2c.34.08.65.26,1,.37,1.77.58,4.47-.5,4.94-2.16a30.39,30.39,0,0,0,.75-3.24C48.16,78.43,48.39,76.53,48.63,74.63Z"/><path d="M172.46,75.7c0-6.57-.06-13.14-.06-19.71a7.11,7.11,0,0,1,.33-2.53,19.62,19.62,0,0,1,3.92-5.86c.91-1,1.95-1.88,2.92-2.83a11.85,11.85,0,0,1,7.06-3.69,3.48,3.48,0,0,0,2.78-2.45,1.07,1.07,0,0,0-.78-1.52A3.17,3.17,0,0,0,187.3,37a28.51,28.51,0,0,0-4.9.84,17.88,17.88,0,0,0-8.1,4.83,5.91,5.91,0,0,1-2.56,1.89c-.55-2.23-.35-4.62-2-6.24a6.57,6.57,0,0,0-1.66.62,5.28,5.28,0,0,0-1,1.31c-.85-1.21-1-1.22-2.39-.25a15.17,15.17,0,0,1,.66,3.31,56.34,56.34,0,0,0,.39,6.48,10,10,0,0,1-.16,4.19c-.4,1.19-.78,2.38-1.14,3.58a3.63,3.63,0,0,0-.21,1c0,1.21-.08,2.42,0,3.62a3.5,3.5,0,0,0,.42,1.07,23.71,23.71,0,0,0-.37,2.4c0,.26.59.38.35.93a4.29,4.29,0,0,0-.36,1.86c.09,1.86.23,3.73.47,5.57a37.37,37.37,0,0,0,.85,4.44c.13.54.6,1.42.91,1.42,1,0,1.4.85,2.07,1.28.49.31.75,1.1,1.48.84a3.4,3.4,0,0,0,1.66-1,5.37,5.37,0,0,0,.68-2.26A25.5,25.5,0,0,0,172.46,75.7Z"/><path d="M299.71,63.1c-.34-1.26-.8-2.5-1-3.78-.35-2-.76-3.92-2.21-5.46a1.9,1.9,0,0,1-.35-.66A21,21,0,0,1,295,44a4.56,4.56,0,0,1,.29-1.11c4.46-.74,7.79,1.14,10.72,4l.41-.21c-.16-.59-.58-1.25-.43-1.75.61-2.06-.41-3.36-1.84-4.54-.11-.1-.15-.28-.27-.36a13,13,0,0,0-3-1.94,20.22,20.22,0,0,0-4.48-.7,19.14,19.14,0,0,0-3.3,0,3,3,0,0,0-2.9,2.24,17.88,17.88,0,0,0-.26,3.44c0,.4.2.83.09,1.19-.44,1.51.14,3,.24,4.43a18.34,18.34,0,0,0,.48,2.52c.4,1.93,1.91,3.41,2.18,5.39a.22.22,0,0,0,0,.14c1.2,1.34,1.43,3.09,1.9,4.72a38.13,38.13,0,0,1,.75,3.86,27.31,27.31,0,0,1,.44,2.81c.08,1.15,0,2.31,0,3.47a2.26,2.26,0,0,1-2.83,2.46,9.85,9.85,0,0,0-1.33,0c-1.74,0-3.47.08-5.21.07a1.52,1.52,0,0,1-1-.35,8.21,8.21,0,0,1-1.7-1.89c-.73-1.36-1.26-2.83-1.95-4.41-.11,0-.52,0-.65-.23-.74-1.15-1.65-.6-2.51-.3s-1.16.69-1.06,1.74a2.9,2.9,0,0,0,.26,1c.87,1.71,1.75,3.4,2.65,5.09a1.87,1.87,0,0,0,.5.55c1,.8,2,1.61,3,2.37,1.49,1.1,3,2.3,5,1.58.12,0,.29,0,.43,0,1.1,0,2.19.07,3.29.09a4,4,0,0,1,1.34,0c1.19.45,2.27-.13,3.39-.24.77-.08,1.26-1.07,2.2-.84a5.85,5.85,0,0,0,.87-1.87A39.91,39.91,0,0,0,299.71,63.1Z"/><path d="M75.37,80.82a2.26,2.26,0,0,1-1.08-1.69,3.78,3.78,0,0,0-.91-1.67A15.24,15.24,0,0,0,72,76.09c-.93-.91-1.9-1.78-2.77-2.74-.71-.79-1.29-1.69-1.94-2.52-1.92-2.45-1.94-2.52-1-5.16a5.47,5.47,0,0,1,.61-1c.21-.33.46-.64.66-1,.35-.61.66-1.24,1-1.83.68-1.09,1.38-2.17,2.09-3.25.41-.61.86-1.21,1.28-1.82a9.43,9.43,0,0,0,.64-1,8.06,8.06,0,0,1,1.17-2.24,8.17,8.17,0,0,0,1.88-3.22c.14-.36.27-.84.56-1a3.11,3.11,0,0,0,1.25-2.15,17.24,17.24,0,0,0,.6-4.75,2,2,0,0,0-1-1.77l-.44,1-.6-1.27c-1-.08-1.12.53-1.27,1.23a13.14,13.14,0,0,1-.76,2.55c-.38.85-1,1.61-1.37,2.46-.24.53-.13,1.23-.38,1.75A6,6,0,0,1,71,49.58,8.39,8.39,0,0,0,69.15,53c-.05.19-.11.48-.24.52-1,.31-1.11,1.17-1.45,2A11.48,11.48,0,0,1,66.4,57a10,10,0,0,0-1.46,2.28,12.52,12.52,0,0,1-3.1,4.42c-1-1.38-2.07-2.65-2.93-4.05a33.33,33.33,0,0,0-5.67-6.47,13.43,13.43,0,0,0-1.62-1.11c0,.59-.1.91,0,1.12a1,1,0,0,1-.29,1.35c-1.12,1.19-1.06,2.18.17,3.31a24.05,24.05,0,0,1,4.8,5.41c.15.26.3.59.55.71a3,3,0,0,1,1.38,2,5.88,5.88,0,0,0,.5.92c.27.52.51,1,.69,1.42a31.41,31.41,0,0,0-2.28,3.45c-.4.8-.9,1.53-1.34,2.3a10.31,10.31,0,0,0-1.3,5.5,11.15,11.15,0,0,1,.07,3,5.27,5.27,0,0,0,.06,1.42l.33.09a9.25,9.25,0,0,1,.62-.88A4.69,4.69,0,0,1,56.78,82a3.16,3.16,0,0,0,1.77-3.08A2.55,2.55,0,0,1,59,77.39c.84-1.27,1.69-2.56,2.4-3.91a2,2,0,0,1,1.53-1.23l-.37.38A13.17,13.17,0,0,1,64.2,73.7a21.46,21.46,0,0,1,2,2.76,55.9,55.9,0,0,0,5.09,5.35,4.94,4.94,0,0,0,3.14,1.67A1.41,1.41,0,0,0,76,82.62,1.39,1.39,0,0,0,75.37,80.82Z"/><path d="M196.3,68.73c0-2.47-.07-4.94-.06-7.41,0-4.14.1-8.27.12-12.41a15.23,15.23,0,0,0-.28-3.16,4.76,4.76,0,0,0-1-2.11c-.42-.45-1.2-.56-2.12-.94a5.63,5.63,0,0,0-.8,1.84,28.25,28.25,0,0,0,.33,3.28c.1,1.34.22,2.68.2,4,0,2.71-.16,5.42-.22,8.14q-.12,5.37-.2,10.75c0,1.75,0,3.51,0,5.33l-1.14.67a8.39,8.39,0,0,0,.77,1.42,4.63,4.63,0,0,1,.76,3.14c0,.27,0,.54,0,.88.73,0,1.15-.28,1.17-.89a2,2,0,0,1,1.2-1.76,1.93,1.93,0,0,0,1.07-1.72C196.14,74.78,196.27,71.76,196.3,68.73Z"/><path d="M192.81,27.61c.89.76.78,1.66.88,2.57.07.63.17,1.24.25,1.86a1.61,1.61,0,0,0,.48-.08c.09,0,.2-.13.21-.21a7.1,7.1,0,0,1,1.77-3.22,1.49,1.49,0,0,0,.26-.7,3.25,3.25,0,0,1,.87-2,2.3,2.3,0,0,0,.57-1.22,7.72,7.72,0,0,1,1.1-2.93,2.1,2.1,0,0,0-1-2.51c-2.2-.62-3.75.47-4.36,2.67A13.62,13.62,0,0,1,193,25C192.55,25.7,191.91,26.85,192.81,27.61Z"/></g></g></svg>