<svg xmlns="http://www.w3.org/2000/svg" viewBox="0 0 327.96 209.28"><defs><style>.cls-1{fill:#fff;opacity:0.2;}</style></defs><g id="Calque_2" data-name="Calque 2"><g id="Contours"><path class="cls-1" d="M327.93,145.34c-.42-13-6.16-24.57-18.81-29.32a37.8,37.8,0,0,0-18.42-1.68c-2.67.37-5.61.73-8,2l-.05,0c-.29-.87-2.09-2.64-2.52-3.4-3.57-6.18-6.07-11.86-11-17.21a47.6,47.6,0,0,0-16.77-12.19A38.27,38.27,0,0,0,236,80.66l.14-.37c1.11-2.51,2.17-4.85,2.17-7.63,0-14.81-13.59-30.33-28-32.54-14.69-2.25-26.41,6.47-34,18.1-8.13-3.82-16.93-5-26-5.16-5-.11-10.1.13-14.79,2-3.5,1.37-5.66,3.82-8.11,6.1-2.94-3.8-5.39-8-9.1-11.15a69.52,69.52,0,0,0-16.62-10.3c-4.36-2-4.89-5.56-6.2-10-1.24-4.12-2.72-7.69-5.68-10.5C86.16,9.28,78.28.62,68.14,0,59.59-.47,51.29,4.9,47.8,12.59c-3.66,8.05-2.37,16.82-3.64,25.31-.55,3.63-1.63,7.2-4.65,9.53-4.79,3.71-11.41,4.27-16.42,7.74-8.78,6.07-16,17.17-19.78,27-5.92,15.62-3.38,34.62,3.48,49.55,3.27,7.13,8.57,14.06,16.21,16.75,6.71,2.37,13.37.67,19-2.93,2,3.34,4.77,5.93,9.19,6.36,5,.48,9.73-1.65,14.28-3.64a34.63,34.63,0,0,0,27.32,11.54,45.64,45.64,0,0,0,17.69-4.37c1.35-.62,2.61-1.42,3.94-2.08.23-.11,2.42-.74,1.92-1.06,1.23.59,3.73,4.08,4.93,5.21,8.68,8.16,22.44,14,34.36,14.67,6.34.38,12.36-2.44,18.64-2.2,6.79.25,11.87,4.82,17.54,8,12.18,6.82,24.68,7.67,37.78,5.51.64,3.66,1.72,7.17,4.34,10.09,5.42,6,12.7,6.94,20.21,5.27,1.58-.35,3.4-.35,4.93-.8,1.82,1.88,6.56,4.74,7.56,5.4a34.44,34.44,0,0,0,21.47,5.72C316.31,206.59,328.7,169.43,327.93,145.34Zm-46.7-28.43.25,0-4.34,2.24,0,0C279.14,118.07,281.24,117,281.23,116.91Zm-22.82,80.16a.46.46,0,0,1-.05-.2A.84.84,0,0,0,258.41,197.07Z"/></g></g></svg>