<svg xmlns="http://www.w3.org/2000/svg" viewBox="0 0 305.32 149.44"><g id="Calque_2" data-name="Calque 2"><g id="P2_m4_1"><path d="M301.42,62.8a24.28,24.28,0,0,1-3.82-6.69c-1.34-3.21-2.41-6.55-3.52-9.85-.54-1.6-.89-3.26-1.38-4.88-.59-1.92-1.32-3.8-1.86-5.74-.75-2.64-1.4-5.3-2-8a35.59,35.59,0,0,1-1-4.94c-.11-1.07-.24-1.95-1.11-2.38l-2.59.55a17,17,0,0,0-.32,2.36c0,3.47.33,6.92,0,10.41-.33,3.17-.25,6.38-.43,9.56-.09,1.62-.33,3.23-.57,4.83-.18,1.21-.54,2.4-.69,3.61a29.12,29.12,0,0,1-1.53,7.38c-.38,1-.56,2-.91,3-.26.71-.65,1.37-.95,2a2.25,2.25,0,0,1-1.9-1.24c-2.57-4.43-3.58-9.32-4.37-14.29q-.57-3.65-1-7.31c-.34-3.2-.64-6.4-.85-9.6-.16-2.48-.13-5-.22-7.44a2.76,2.76,0,0,0-2.19-2.84,7.15,7.15,0,0,1-1.51-.73c-.79.45-1.67,1.06-1.59,2.12A49.15,49.15,0,0,0,266,30a23,23,0,0,1,.54,6.85c-.16,2.19-.48,4.36-.63,6.54-.16,2.41-.1,4.83-.31,7.22-.26,2.81-.62,5.61-1.11,8.38A51,51,0,0,1,263,64a1.27,1.27,0,0,1-1.4,1c-2.39,0-3.94-1.44-5-3.2A52.77,52.77,0,0,1,251,48.15a44.4,44.4,0,0,0-1.53-5.31,2.69,2.69,0,0,1,.63-3.3,6.47,6.47,0,0,0,2-4.47,8.11,8.11,0,0,0-1.24-4.78c-1.92-2.74-4.72-4.32-7.65-5.67-2.62-1.19-5.48-1.45-8.28-2a6.47,6.47,0,0,0-3.3.48,2.36,2.36,0,0,0-1.39,1.15c-.63,1.68-1.1,3.43-1.58,5.17-.25.91-.37,1.87-.57,2.8-.15.71-.37,1.41-.51,2.12-.32,1.66-.66,3.31-.89,5-.31,2.29-.67,4.59-.75,6.9-.1,3,.05,6,.08,9.08a12,12,0,0,0,2.72,8,9.45,9.45,0,0,1,.81,1.35,3.36,3.36,0,0,1-2.48.56,4.36,4.36,0,0,0-1.14,0,10.27,10.27,0,0,1-7.3-2.09,2.61,2.61,0,0,1-1.13-3.2c.62-2.05,1.19-4.11,1.73-6.18.81-3.15,1.62-6.32,2.37-9.49a28.43,28.43,0,0,0,.77-4.47c.14-2.22.12-4.46.05-6.68a7.24,7.24,0,0,0-.59-3.12A9.43,9.43,0,0,0,214,24.56c-1-.08-2-.52-2.94.24a21.59,21.59,0,0,0-.59,6.21c.13,1.92,0,3.87-.05,5.8,0,1.14,0,2.28,0,3.42,0,.79.16,1.58.16,2.37,0,3.68.05,7.37,0,11.06a16.06,16.06,0,0,0,1.85,7.4,2.39,2.39,0,0,1,.13,2.11,12.63,12.63,0,0,1-1.1,2.42c-.76,1.12-1.61,2.27-3.3,1.75-.13,0-.31.06-.48.09a6.68,6.68,0,0,1-5.34-1.79,10.12,10.12,0,0,1-2.09-3.22,45.74,45.74,0,0,1-2.43-7q-1.87-5.74-3.67-11.52c-.8-2.56-.59-5.13-.79-7.68-.23-3-.51-6-1-9-.42-2.71-.9-5.41-1.37-8.2.73-.21,1.44-.38,2.11-.63,2.38-.92,4.73-1.93,7.13-2.78,3-1.07,6.08-2,9.1-3,2.29-.79,2.36-1.41,1.85-3.75-.26-1.18-.93-1.13-1.58-1.24s-1.22.32-1.47,1.09a1.89,1.89,0,0,1-.92,1.08c-1,.45-2.13.71-3.17,1.11-3.11,1.18-6.19,2.43-9.29,3.6-1.42.54-2.88,1-4.43,1.48-.15-.54-.25-1-.38-1.38-.54-1.83-1.1-3.66-1.64-5.5s-1-3.64-1.54-5.46c-.47-1.63-1-3.24-3.09-3.67-.16.28-.34.81-.46.8-1.33-.13-1.2.84-1.2,1.6a39.63,39.63,0,0,0,1.33,9.68c.53,2,.92,4,1.37,6a15.17,15.17,0,0,1-2.84,1.4A18.7,18.7,0,0,0,178.06,21c-1.3.67-2.65,1.25-3.92,2a21.63,21.63,0,0,0-3.22,2.13,4.73,4.73,0,0,0-1.75,2.37c.17,0,.28.13.38.12l1-.21c2.62-.49,4.87-2,7.34-2.86,1.81-.65,3.53-1.58,5.32-2.32.64-.27,1.36-.72,1.91-.12.45,2.07.88,4,1.28,5.9.62,3,.87,6.13,2,9-.61.91.56,1.31.6,2.06.15,2.57.45,5.13.49,7.7.07,4.21-.06,8.42,0,12.62,0,2.92.17,5.84.26,8.72a6.78,6.78,0,0,1-5.33-.86,32.4,32.4,0,0,1-3.21-3.42A43,43,0,0,1,178,58.86c-.8-1.38-1.6-2.76-2.32-4.18-.84-1.64-1.57-3.35-2.38-5-.57-1.16-1.22-2.28-1.77-3.44a19,19,0,0,0-1-2.35,15.8,15.8,0,0,0-1.72-1.64c-.54-.57-1-.68-1.52,0-.35.44-.62.94-.93,1.42-2.52-1.1-2.52-1.1-4.48-1.1s-3.54.82-4.17,2.8a47.6,47.6,0,0,0-1.84,7.49c-.43,3-.82,6-1,9a90.34,90.34,0,0,0-.34,9.45c0,1,.13,1.88-.75,2.61-.71.58-1.32,1.29-2.12,2.08a12.83,12.83,0,0,1-.54-1.54c-.53-2.41-1-4.83-1.55-7.24-.91-4.16-1.76-8.33-2.78-12.45-.75-3-1.75-6-2.64-9a4.7,4.7,0,0,1-.22-.63c-.25-2.12-.46-4.24-.75-6.35a17.62,17.62,0,0,0-.71-3.12c-.36-1.06-1.37-1.34-2.82-1-1.09.22-.91,1-.86,1.72.09,1.12.24,2.24.43,3.35.13.81.38,1.6.62,2.57l-2.25-.49a4.65,4.65,0,0,0-5,1.6c-1.77,2.25-3.51,4.54-5.09,6.93a70.59,70.59,0,0,0-5.58,10.57c-1.44,3.26-3.19,6.39-3.24,10.15,0,3.32.44,6.29,3.23,8.45a24.62,24.62,0,0,0,2.45,1.78,6.49,6.49,0,0,0,2.43,1,23.35,23.35,0,0,0,7.08-.09c1.71-.33,2.31-2,3.56-2.9a2,2,0,0,1,1.42-2.17c.11,0,.16-.29.21-.45a59.32,59.32,0,0,0,2.52-7.26,36,36,0,0,0,1.23-8.64,16.84,16.84,0,0,1,.47-3.11h.38c.36,1,1.17,1.91.93,3.23-.12.64.34,1.38.54,2.08a8.69,8.69,0,0,1,.36,1.09A37.32,37.32,0,0,0,147,70.93a4.46,4.46,0,0,1,.07.65c.33,2.27.54,4.57,1.07,6.78a3.35,3.35,0,0,1-.52,3,82.94,82.94,0,0,0-4.54,7.55,16,16,0,0,0-1.61,5.22,44.67,44.67,0,0,0-.1,10,38.52,38.52,0,0,0,.89,4.77c.42,1.69.9,3.38,1.48,5,1.45,4.08,2.93,8.16,4.49,12.2s3.26,8.16,4.95,12.22c1.22,3,2.47,5.9,3.84,8.79a5.1,5.1,0,0,0,1.82,1.93,2,2,0,0,0,3.1-1.67c0-1.79-.17-3.58-.3-5.36-.19-2.41-.36-4.83-.61-7.24-.2-1.85-.49-3.68-.77-5.52-.38-2.49-.78-5-1.17-7.47-.34-2.12-.66-4.24-1-6.35-.28-1.65-.67-3.28-.94-4.93s-.41-3.24-.65-4.85c-.45-3.12-.93-6.24-1.38-9.35-.13-.9-.16-1.81-.32-2.7-.64-3.66-1.34-7.3-1.95-11-.37-2.2-.17-2.53,1.7-3.77-.2,1.76.12,2.46,1.53,3.36a4,4,0,0,0,2.85.81,6.75,6.75,0,0,1,1.68,0c3,.28,4.89-1.18,6.17-3.7,1.79-3.52,2.42-7.36,3-11.22.15-1,.11-2,.24-3,.26-2.06.58-4.11.86-6.17.19-1.38.35-2.77.5-4.16.07-.58.09-1.16.14-1.74a26.92,26.92,0,0,1,2.43,4.66,46.79,46.79,0,0,0,3.34,6.68A22.12,22.12,0,0,0,182.3,70a5,5,0,0,0,1.87,1,22.89,22.89,0,0,0,5.89,1c2.18,0,3.3-1,3.3-3.1q0-6.18,0-12.37a1.58,1.58,0,0,1,.83.88c.69,2,1.28,4,2.05,5.87a10.08,10.08,0,0,0,4,5.38c1.87,1.13,2.82,1.81,5.08,1.91,1.37.06,2.75.06,4.13,0A6.06,6.06,0,0,0,215,67.09c.25-.47.57-.91.86-1.36,3,2,5.89,3.5,9.37,3.29,1.45-.09,3,.31,4.33-.37A19.79,19.79,0,0,0,232.43,67,5.23,5.23,0,0,1,235,65.88a6.76,6.76,0,0,0,2.44-1A7.07,7.07,0,0,0,240.3,61,77.55,77.55,0,0,0,243,51.17c.52-2.49,1-4.9,3-6.92.37,1.38.71,2.67,1.08,4,.57,1.94,1.09,3.89,1.77,5.79a72.89,72.89,0,0,0,2.78,6.86c1.32,2.74,2.87,5.3,5.71,6.9a7.62,7.62,0,0,0,6.18.49,4.39,4.39,0,0,0,2.94-2.74,33.6,33.6,0,0,0,2.34-9.58c0-.51.13-1,.2-1.54a51.77,51.77,0,0,1,2,5.07,15.85,15.85,0,0,0,2.91,5.85c1.86,2.06,4.79,3.53,7.46,1.42A4.65,4.65,0,0,0,283.08,64c.16-.7.26-1.42.47-2.11A39.76,39.76,0,0,0,285,57.23c.81-4.91,1.9-9.78,2.26-14.75.07-.9.28-1.79.42-2.68l.36,0a23.82,23.82,0,0,0,.59,2.39c1.48,4.35,2.91,8.72,4.53,13s3.58,8.37,6.84,11.66c.74.74,1.47,1.76,2.76,1.73a2.58,2.58,0,0,0,2.56-2.16A45,45,0,0,1,301.42,62.8ZM139.64,57c-.32,2.54-.4,5.13-.84,7.66a63.34,63.34,0,0,1-1.73,6.87c-.36,1.26-1,2.46-1.41,3.71a9.26,9.26,0,0,1-2.56,3.46,1.55,1.55,0,0,1-.76.34,10,10,0,0,1-9-2.19c-1.64-1.46-1.72-3.55-1.48-5.52a21.2,21.2,0,0,1,1.59-6.72c1.18-2.47,2.33-5,3.49-7.44a39.65,39.65,0,0,1,3.91-5.84c1.69-2.35,3.69-4.48,5.6-6.76l3.81.42c0,1.58,0,3.14,0,4.71A51.09,51.09,0,0,1,139.64,57Zm13.69,51.36c.79,4.89,1.63,9.77,2.46,14.66.53,3.11,1.19,6.2,1.61,9.32.31,2.37.34,4.78.5,7.17l-.37.12c-.38-.9-.83-1.78-1.12-2.7-1.17-3.7-2.56-7.31-4.08-10.87-.86-2-1.79-4-2.56-6q-1.77-4.62-3.32-9.31a26.17,26.17,0,0,1-1.37-7.54c-.07-2.29-.06-4.58-.08-6.87a14,14,0,0,1,2.22-7.19c.4-.68.75-1.4,1.16-2.07.24-.41.56-.76,1-1.36.39,1.53.81,2.74,1,4C151.41,95.92,152.34,102.15,153.33,108.36Zm12.44-36a15.86,15.86,0,0,0-1.11,2.86c-.32.83-.63,1.67-1,2.49a2.29,2.29,0,0,1-2.34,1.58c-.89,0-1.78,0-2.68,0a4.69,4.69,0,0,1,1.8-6.44c1.94-1.19,3.92-2.32,6-3.53A5.16,5.16,0,0,1,165.77,72.36Zm1-11.41a6,6,0,0,1-1.61,3.76c-1.44,1.57-2.84,3.15-5,3.89a8.61,8.61,0,0,0-1.81,1.26c-.6-1.47-.13-2.79-.07-4.11A117.64,117.64,0,0,1,159.88,51a37.71,37.71,0,0,1,.86-3.93,1.59,1.59,0,0,1,1-1,5,5,0,0,1,3.88.66A2.56,2.56,0,0,1,166.79,49c0,3.14.13,6.28.18,9.41C167,59.28,166.86,60.12,166.79,61ZM215,55.16c-.46-.64-.62-2.7-.55-4.22s-.12-3-.15-4.56,0-3,0-4.56,0-2.94,0-4.41,0-3-.05-4.48,0-3,0-4.7a5.44,5.44,0,0,1,4.26,2.51,5.14,5.14,0,0,1,.63,2.91,44.74,44.74,0,0,1-.95,9.86c-.73,3.05-1.38,6.13-2.13,9.17A19.54,19.54,0,0,1,215,55.16Zm25.27-12.29c-.12.77-.11,1.57-.23,2.34-.25,1.56-1.29,2.72-2,4-.87,1.55-1.59,3.2-2.38,4.81-.47.95-1,1.9-1.44,2.86-.65,1.35-1.27,2.71-2,4.38-.47-.62-.78-1-1-1.37-1.22-2-1.26-4.15-1.24-6.36,0-2.93,0-5.86,0-8.78a22.85,22.85,0,0,1,.46-3.68c.6-3.25,1.25-6.5,1.92-9.74.33-1.59.75-3.17,1.13-4.73a14,14,0,0,1,7.46.84c.05,1.16.13,2.39.13,3.61A76.16,76.16,0,0,1,240.24,42.87ZM247.5,36c-1.17-1.81-.56-4-1.86-5.58C248.17,31.86,248.7,33.42,247.5,36Z"/><path d="M93.56,86.8c-.44-1.57-.86-3.14-1.28-4.7-.49-1.86-1-3.7-1.45-5.57a25.93,25.93,0,0,0-2-6.07C88.14,69,87.4,67.54,86.77,66a23.77,23.77,0,0,0-3.4-5.4c-1-1.31-2.43-2.36-3.42-3.7C78.79,55.37,77,55.37,75.48,55a9.13,9.13,0,0,0-3.35.21,7,7,0,0,0-4.58,2.63A27.68,27.68,0,0,0,65,62.55a15.94,15.94,0,0,0-1.58,6.84c0,2.24.08,4.48.1,6.73a11,11,0,0,1-.24,1.55,45.21,45.21,0,0,0-6.45-9.17c-2.37-2.45-5.07-4.3-8.76-3.91-.89.1-1.8,0-2.7.08-1.72.06-4.17,1.63-4.5,3.1a28.09,28.09,0,0,0-.67,5C40,76,40.05,79.13,40,82.32c0,.6-.39,1.23-.28,1.79a16.41,16.41,0,0,1,.09,3.5c-.08,4.21,0,8.43,0,12.64a9.88,9.88,0,0,1-.29,1.51c-.46-.83-.76-1.29-1-1.77-.63-1.45-1.22-2.92-1.86-4.36-.85-1.9-1.83-3.76-2.59-5.7-1-2.61-2.32-5.09-2.93-7.9-.39-1.85-.92-3.68-1.17-5.56s-.4-3.45-.67-5.17-.94-2.21-2.65-2c-.07.45-.14.93-.19,1.33l-1.13.42c0,.53,0,1,0,1.41.15,2-.18,4,.75,5.92a6.38,6.38,0,0,1,.45,2.47c.12,3.35.22,6.71.24,10.06q0,6.75-.12,13.5c0,1.34-.26,2.67-.4,4-.39,0-.65,0-.82-.06a11.81,11.81,0,0,1-4.26-3.75c-1.57-2.33-3.28-4.57-4.83-6.91a5.66,5.66,0,0,1-1.06-2.6c-.2-2.68-.27-5.39-.24-8.09a27.09,27.09,0,0,0-1.31-7.92,59.39,59.39,0,0,0-2.85-8.1,7.6,7.6,0,0,0-2.52-3.51,3.81,3.81,0,0,1-.64.24c-1.81.33-2.12.64-2.18,2.5,0,1.3,0,2.6,0,3.9.1,2.46.14,4.93.42,7.37A32.32,32.32,0,0,0,7.16,87c.92,3,1.77,6.13,3.74,8.74a1.31,1.31,0,0,1,.22.77A58.21,58.21,0,0,1,8.45,112a75.51,75.51,0,0,1-6.63,14.91,28,28,0,0,0-1.6,3.72,3.28,3.28,0,0,0,.27,2.87,11.2,11.2,0,0,0,3.05-2.92,72.2,72.2,0,0,0,5.85-10.35A40.5,40.5,0,0,0,13,110c.39-2.33.94-4.64,1.42-7,.06-.28.18-.55.32-1,2.19,2.85,4,5.71,6.48,8.06,1.15,1.08,2.67,1.39,3.88,2.28.25.19.77,0,1.16,0s.77-.11,1.15-.13A2.48,2.48,0,0,0,29.86,110c.12-.89.28-1.78.35-2.68.11-1.23.21-2.46.21-3.7,0-2-.08-3.93-.11-5.9,0-1.4,0-2.79,0-4.19a14,14,0,0,1,.27-1.67,12,12,0,0,1,1.11,1.58c1.28,3,2.5,6,3.78,9a19.94,19.94,0,0,0,1.26,2.37c.46.77,1.06,1.47,1.49,2.25A3.31,3.31,0,0,0,41,108.75c1.43.17,1.75-.09,2.31-1.38.68-1.59.17-3.21.21-4.8.07-3.39-.06-6.78-.07-10.17,0-1,.15-2.09.16-3.13,0-1.9,0-3.8,0-5.7,0-.89.13-1.78.14-2.68.05-3.09,0-6.19.13-9.29.06-2,1-2.85,3-2.92.28,0,.56-.11.84-.11,1.87,0,3.59.16,5.09,1.68a46.67,46.67,0,0,1,4.66,6,35.85,35.85,0,0,1,2.61,4.9,31.6,31.6,0,0,1,1.72,3.8c1.06,3,2,6.09,3,9.15.34,1.07.57,2.16.87,3.24a31.21,31.21,0,0,0,1.1,3.87,1.83,1.83,0,0,0,2.32,1.23,2.11,2.11,0,0,0,1.67-2.08,13.76,13.76,0,0,0-.34-3.51A96.57,96.57,0,0,1,68,87.19a72.06,72.06,0,0,1-.48-10.79c0-2,0-4,.06-6,0-.6,0-1.21,0-1.81a16.24,16.24,0,0,1,1.32-5,10.36,10.36,0,0,1,2.94-4.17,4.87,4.87,0,0,1,5.66.28c4,3.74,6.37,8.55,8.41,13.53a32.07,32.07,0,0,1,1.26,3.85c.71,2.66,1.36,5.33,2,8a11.89,11.89,0,0,1,.27,1.79c.14,1.5.14,3,1.54,4.07a2.61,2.61,0,0,0,2.83.24c.69-.56.78-1.33.34-2.45A19.56,19.56,0,0,1,93.56,86.8Zm-82.45-.06a19.42,19.42,0,0,1-1.65-7.67A13.65,13.65,0,0,1,11.11,86.74Z"/><path d="M152.15,35.72c.12.48.22.9.4,1.59,3.45-2.16,6.08-5.09,9.43-7.6l2.39,2.55a8.34,8.34,0,0,0,1.21-.21,16,16,0,0,0,1.5-.58c-.09-.64-.45-1.37-.22-1.81.75-1.49-.36-2-1.21-2.67-.5-.4-1.11-.68-1.6-1.1-1.17-1-1.15-1-2.35-1-.56,0-1.13,0-1.75,0-1.33,2.59-3.63,4.23-5.83,6-1.59,1.26-3.11,2.55-3.7,4.54C150.82,36.43,151.54,35.83,152.15,35.72Z"/></g></g></svg>