<svg xmlns="http://www.w3.org/2000/svg" viewBox="0 0 304.08 87.34"><defs><style>.cls-1,.cls-2{fill:#fe5f58;}.cls-1{opacity:0.2;}</style></defs><g id="Calque_2" data-name="Calque 2"><g id="Phrase_2" data-name="Phrase 2"><g id="P2_m4_3"><path class="cls-1" d="M295.36,21.46c-5.5-4.31-12.09-6.15-18.24-4.45C273.34,6.73,259.8,1.16,252.19,7.79,243.93-.63,226.13.4,221.47,11.61c-1.79-.62-3.55-1.32-5.33-2A67.93,67.93,0,0,0,204.26,6c-6.66-1.14-12.86.77-14,6.91-7.5-1-14.62-4.23-22.36-3.88-5.76.26-11.15,2.2-16.7,3.54-6.41-14.11-29.7-8.9-42.11-9.08C98.44,3.31,78.16,1,68.55,9.32a9.78,9.78,0,0,0-2.22-1.21C63.51,7,59.07,7.55,56.79,5.43a4.38,4.38,0,0,0-6.92,1.3C37.08,2.9,21.9-4.56,10.17,3.82,3,9-.11,19.59,0,28.05A31.61,31.61,0,0,0,9.44,49.84c6.35,6.35,15,10.33,23.75,11.92a36.07,36.07,0,0,0,12.3.43C50.32,61.4,55,59.6,59.87,59c4.6-.54,7,1.19,8.77,5.3s2.73,8.76,5,12.79C77,83.21,84.72,87.9,91.87,87.29c13.43-1.16,11.19-18,14-28.09,7.29,1.54,14.71-1,22.18-.51,10.65.67,21.18,2.59,31.86,3.12,10.89.54,21.81.3,32.71.62,10.65.31,22.39-.12,32.74,2.6,8.3,2.18,15.61,7,23.86,9.35a54.27,54.27,0,0,0,23.3,1.37c15.92-2.56,28.05-14.84,31-30.73C305.27,35.93,302.76,27.26,295.36,21.46Z"/><path class="cls-2" d="M60.08,21.14c-.16-.19-.37-.47-.56-.47a5.63,5.63,0,0,1-2.4-.51.51.51,0,0,0-.22,0,5.48,5.48,0,0,0-4.35,2.22,25.3,25.3,0,0,0-3.18,4.44c-.1.2-.37.32-.66.57a16.79,16.79,0,0,0-1.06-6.7c-.25-.6-.53-.89-1.16-.9a1.89,1.89,0,0,1-1.14-.19c-.41-.35-.82-.24-1.24-.23a4.94,4.94,0,0,0-2.92,1.45,13.37,13.37,0,0,0-4.06,5.74c-.82,2.27-1.55,4.57-2.32,6.86-.17.49-.37,1-.63,1.65a5,5,0,0,1-.12-.54c0-2.09,0-4.17.06-6.25,0-1.18-.1-2.35-.06-3.52a28.3,28.3,0,0,0-.21-5.67c0-.1-.09-.18-.23-.44-.15.48-.24.74-.28.89l-1.41-.11c-.2-.28.24-1.1-.67-.86-.06.45,0,1-.2,1.27-.47.45-.34,1-.38,1.43-.07.76-.05,1.54-.13,2.3-.24,2.33-.51,4.65-.79,7a15.23,15.23,0,0,1-.84,4.16,25.22,25.22,0,0,1-2.62,3.89A2.93,2.93,0,0,1,23.23,40a4.72,4.72,0,0,1-3.61-2.76c-.83-2.06-.58-4.2-.63-6.3-.06-2.48,0-5,0-7.44a10,10,0,0,1,0-1.1q.32-3.16.66-6.32c.11-1,.28-1.92.43-3l-.55-.3.17-.93-2.25.8.38-1.36a1.5,1.5,0,0,0-.83.81,11.86,11.86,0,0,0-.74,3.65,28.75,28.75,0,0,1-.25,3.18c-.16,2-.39,4.08-.45,6.12-.08,2.38,0,4.77,0,7.16A18.11,18.11,0,0,0,16,37c.63,2.09,1.44,3.93,3.66,4.76.26.1.48.34.74.47a3.38,3.38,0,0,0,1,.4c1.09.12,2.19.14,3.28.28a3.72,3.72,0,0,0,2.61-.59c.61-.39,1.48-.72,1.7-1.29.35-.86,1.1-1.34,1.48-2.16.3,1.44.58,2.81.87,4.19a4.11,4.11,0,0,0,.31,1c.19.33.47.79.77.84a1.86,1.86,0,0,1,1.1.59c.25.25.68.44,1,0,.05-.07.15-.2.2-.19.83.19.82-.45.85-.93A33.86,33.86,0,0,1,37,38.05c.69-2.68,1.6-5.31,2.52-7.92a14.34,14.34,0,0,1,3.19-5.82c.58-.57,1-1.37,1.94-1.56a2.27,2.27,0,0,1,.25.49,13.94,13.94,0,0,1,.51,3c0,2.55.12,5.1.17,7.64a14.86,14.86,0,0,1-.11,2.5,26.23,26.23,0,0,0-.66,4.41c0,1.72,0,3.43,0,5.22.42.15.84.31,1.2-.32.22-.37,1.08-.22,1,.07-.12.51.21.56.43.53a.94.94,0,0,0,.65-.47,11.1,11.1,0,0,0,.47-1.91,34.55,34.55,0,0,0,.28-5.28,8.53,8.53,0,0,1,.43-3.36,18.63,18.63,0,0,0,1-2.55,19.44,19.44,0,0,1,2.3-4.52c.81-1.32,1.88-2.48,2.78-3.74a3.69,3.69,0,0,1,2-1.22c.15,1.27.33,2.43.42,3.6.08.91,0,1.81,0,2.72,0,1.82.07,3.64-.05,5.44s-.5,3.46-.69,5.2a5.93,5.93,0,0,0,.19,3c.41.15.7.07.78-.28A17.7,17.7,0,0,0,58.4,41c.12-1.15.14-2.33.32-3.47a47.53,47.53,0,0,0,.5-8.7,1.37,1.37,0,0,1,.6,1.35,3.32,3.32,0,0,0-.21,1.16,11,11,0,0,1-.08,3.49c-.12,1.85-.52,3.68-.7,5.53a5.24,5.24,0,0,0,.28,1.91,5,5,0,0,0,.71,1.14c.49-.17.52-.53.55-1a44.73,44.73,0,0,1,.45-5.32,23.29,23.29,0,0,0,.41-4.22c0-2.95-.16-5.89-.34-8.83A4.77,4.77,0,0,0,60.08,21.14Z"/><path class="cls-2" d="M110.08,20.73a7,7,0,0,0-1.2-.49,22.3,22.3,0,0,0-2.82-.42c-2.27-.13-4.55-.19-6.83-.29a2.75,2.75,0,0,0-2,.74,5.3,5.3,0,0,0-1.78,2.44c-.59,1.92-1.18,3.84-1.74,5.76-.25.85-.43,1.72-.65,2.63-.15-.11-.24-.15-.25-.2a2.12,2.12,0,0,1-.06-.43,9.17,9.17,0,0,0-4-7,6.37,6.37,0,0,0-3-1.28L82.71,22c-.3-1.77.08-3.58-1-5.27-.06.6-.11,1-.14,1.36l-1.94-1.19a2,2,0,0,1-.18.6,2.77,2.77,0,0,0-.34,2.08c0,.74.08,1.49.12,2.21-.77.41-1.63,0-2.45.64h2c-.23,1-1.7.56-1.75,1.66h1.5L76.7,25.53l1.88-.16.12.59,1-.13a7.59,7.59,0,0,0,0,1.18c.52,3.39,1.11,6.77,1.59,10.17a37.26,37.26,0,0,1,.78,6.66.36.36,0,0,0,.12.27c.55.52.15.83-.32,1.19l.79.29c.06.48.09.89.16,1.28.31,1.65.67,3.28,1,4.93a47.72,47.72,0,0,0,2.7,9.14c.51,1.29,1,2.6,1.44,3.92.21.61.33,1.24.46,1.72.49.16,1,.19,1.06.38.32.76,1.18.66,1.65,1.2-.11-.5-.5-1,.07-1.4.06-.06,0-.33-.07-.5s-.14-.48-.23-.76l.81-.32a4.09,4.09,0,0,1-.37-.9A16.07,16.07,0,0,0,90.1,60.1c-.64-1.51-1.22-3.05-1.79-4.59a10.56,10.56,0,0,1-.85-2.66c-.18-2.32-.9-4.54-1.2-6.83-.14-1-.14-1,.66-1.56a22.36,22.36,0,0,0,2.76-2.29,12.7,12.7,0,0,0,3-4.09l.4,1.08,3,1.77-1,.23a3.66,3.66,0,0,0,1,.11c1,0,2.08.56,2.94-.41a9.48,9.48,0,0,0,5.53-3.7,2.36,2.36,0,0,1,.53-.4c0,2-.62,4,.19,5.92l.83-1.52.37,1.62a7.77,7.77,0,0,0,.45-2.07c.19-1.92.3-3.85.59-5.76a3.27,3.27,0,0,1,.71-2.21c0,.29,0,.55,0,.8-.24,2.55-.5,5.09-.72,7.64a7.09,7.09,0,0,0,.15,1.28,1,1,0,0,0,.49-.69c.08-1,.08-2,.17-3,.26-3.08.92-6.12.94-9.22,0-2.29.11-4.57.17-6.85l.62.08a13.72,13.72,0,0,1-.8-1.17C108.83,21,109.53,21,110.08,20.73ZM86.81,44a2,2,0,0,0,.83-1h0A2,2,0,0,1,86.81,44Zm.88-1h0a2,2,0,0,0,.35-.09A2,2,0,0,1,87.69,43Zm2-8.32A2.8,2.8,0,0,1,89.27,36a28.85,28.85,0,0,1-2.69,3.15,5.9,5.9,0,0,1-1.36.95c-.75-4.91-1.48-9.57-2.2-14.27a4,4,0,0,1,3.85,1.32c.32.29.56.67.88.95s.88.69,1.35,1.06l-.44,0a3,3,0,0,0,.23.83A7.87,7.87,0,0,1,89.74,34.71ZM86.33,23.19,90.9,26.9a3.43,3.43,0,0,0-.33-.76,3.43,3.43,0,0,1,.33.76ZM99.7,39.81a1.49,1.49,0,0,0,1.23-1h0A1.49,1.49,0,0,1,99.7,39.81Zm1.27-1h0a1.5,1.5,0,0,0,.69,0A1.5,1.5,0,0,1,101,38.82Zm1-.24a1.42,1.42,0,0,0,.18-.22A1.42,1.42,0,0,1,102,38.58Zm3.66-9.77a6.77,6.77,0,0,1-2,4.5c-1,1-2.07,2.12-3.09,3.2a4.32,4.32,0,0,1-2.69,1.34,1.36,1.36,0,0,1-1.74-1.33,18.91,18.91,0,0,1,.42-5.76c.2-.74.29-1.51.53-2.23A11.43,11.43,0,0,1,97.86,26a7.83,7.83,0,0,0,.63-2,1.38,1.38,0,0,1,1.65-1c1.55.15,3.11.19,4.67.28h0c.28.07.56.12.81.17C105.63,25.23,105.71,27,105.61,28.81Z"/><path class="cls-2" d="M138.1,19.37c-.08-.5-.28-1-.33-1.48-.12-1.05-.2-1.13-1.19-.9-.17,0-.34.11-.5.15-.37-.21-.52-.83-1.09-.5.11,1,.09,1-.82,1.42a10.78,10.78,0,0,0-3.64,2.78,57.61,57.61,0,0,0-5.75,8.27,1.56,1.56,0,0,0-.14.48c0,.08,0,.25,0,.25a1.61,1.61,0,0,1-.41.06c0-4.53,0-9,0-13.43l-.25,0c-.15.46-.29.92-.45,1.42l-.52-.78c-.43.22-.12,1.1-.87.76h0v0a1.51,1.51,0,0,0-1,1.44c0,.25-.07.5-.07.75,0,.79-.32,1.6.18,2.36-.4,1.11,0,2.26-.17,3.4a10.23,10.23,0,0,0,0,1.92c0,.6.16,1.21.16,1.81s-.11,1.23-.16,1.85c0,.11-.06.25,0,.32.25.32.24.48,0,.92a5,5,0,0,0-.3,2.25,29.4,29.4,0,0,1-.33,4.29,38.19,38.19,0,0,0-.35,4.28,1.09,1.09,0,0,0,.38.83c.29.2.56,0,.82-.31s.67-.34.87.19c.25.69.72.54,1.36.51.11-1.6.19-3.17.34-4.73a8.06,8.06,0,0,1,.41-2.25c.63-1.63,1.35-3.23,2.11-4.81A40,40,0,0,1,130,26.07c1.3-1.74,2.62-3.48,4-5.2.19-.25.41-.55.9-.32a2.12,2.12,0,0,0,0,.71,18,18,0,0,1,.47,4.67c.1,1.26,0,2.52,0,3.78,0,2.42.07,4.83.09,7.24,0,1.19.06,2.37,0,3.55s.07,2.45-.6,3.53a1,1,0,0,0,1.25.42c.11-.31.19-.56.28-.82.54.19.52.21,1,.78a.78.78,0,0,0,.54.28.65.65,0,0,0,.47-.36,11.47,11.47,0,0,0,.35-2.24c0-2.73,0-5.46,0-8.19,0-2.07,0-4.14.07-6.21A50.45,50.45,0,0,0,138.1,19.37Zm-16-.75a.06.06,0,0,0-.06,0A.06.06,0,0,1,122.08,18.62Zm0,0c.07,0,.16.07.24.09h0C122.25,18.69,122.16,18.63,122.09,18.62Z"/><path class="cls-2" d="M289.2,34.41c-.18-1.1-.19-2.3-1.08-3.16-.17-.17-.38-.39-.57-.4a12,12,0,0,1-2-.41,6.27,6.27,0,0,0-3.68.26c-3.2,1.29-6.33,2.7-8.81,5.23a3.34,3.34,0,0,1-.85.42v-4.7l-.24,0c-.43,1.19.1,2.62-1,3.84,0-.62.06-1.07.09-1.59-.65-.22-.71-.84-.67-1.73-.53.74-1.22,1.14-.49,1.91.11.12.08.42.06.64-.06.8-.14,1.59-.22,2.39,0,.05-.08.1-.12.15l-.48-.21c0,.17,0,.35,0,.38a.64.64,0,0,1,.34.8c-.21.75-.45,1.5-.73,2.23-.15.39-.48.72-.62,1.11-.61,1.73-1.12,3.49-1.8,5.19a42.79,42.79,0,0,0-2.44,8.43,3.89,3.89,0,0,0,.23,1.6c0,.16.4.23.58.33l.61-.9c.08.73.14,1.25.22,1.88l.84-.54c.14.5,0,1.1.67,1.14.06-.07.15-.12.16-.18a61.77,61.77,0,0,1,1.79-7,54.35,54.35,0,0,0,1.65-6.29,9.62,9.62,0,0,1,2.5-4.65,44.3,44.3,0,0,1,3.67-3.45A15.93,15.93,0,0,1,282.71,34,8.76,8.76,0,0,0,285,33a4.29,4.29,0,0,1,1,2.35c0,.76,0,1.53,0,2.3a18.17,18.17,0,0,1-.12,3.47c-.43,2-1.1,3.94-1.68,5.91q-1.5,5.09-3,10.17a1.53,1.53,0,0,0,0,.43c1.09.49.95-.95,1.66-1,.13.24.15.71.59.29.08.32.17.65.29,1.12.31-.2.63-.29.73-.5a7.81,7.81,0,0,0,.64-1.62c.33-1.23.44-2.5.89-3.72.88-2.4,1.54-4.87,2.37-7.28a14.64,14.64,0,0,0,.91-5.36c0-.88,0-1.75,0-2.63A15.21,15.21,0,0,0,289.2,34.41Zm-1.68,5.09a.47.47,0,0,0-.31-.14A.47.47,0,0,1,287.52,39.5Z"/><path class="cls-2" d="M171.34,38.94q-.36-3.72-.73-7.42c-.12-1.13-.28-2.25-.41-3.38-.27-2.18-.53-4.37-.78-6.55a7.16,7.16,0,0,1-.06-2.06,1.36,1.36,0,0,0-.34-1.28,1.61,1.61,0,0,1-2.12-.07,9.8,9.8,0,0,1-1.28.24c-1,0-1.91,0-2.87,0a1.27,1.27,0,0,0-.64.13c-1,.59-1.89,1.21-2.84,1.8-.65.41-1.21.83-.89,1.75.05.15-.1.36-.18.56h0v0l0-.06-.94,1.22-.34-.2c0,.19-.07.38-.1.56l.32-.15a11.52,11.52,0,0,0-.91,1.54c-.28.67-.36,1.42-.64,2.09-.42,1-.22,2.23-1,3.13-.05.05-.1.17-.08.19.59.58-.07,1-.25,1.36.12.31.37.64.29.83a5.64,5.64,0,0,0-.1,2.38,6.54,6.54,0,0,1,.05,1.32,7.18,7.18,0,0,0,.45,3.19c.3,1.13,1.28,1.69,2.22,2.3,1.36.9,2.79.66,4.23.51a1,1,0,0,0,.48-.26c.63-.55,1.24-1.12,1.85-1.67a17.32,17.32,0,0,0,3.39-3.81,3.52,3.52,0,0,1,.7-.64c.17,2.23.31,4.26.47,6.29,0,.37.1.73.14,1.1.06.53.4.62.77.61l.74-1.35.08-.08,1.15,1.52c.32,0,.66-.07.61-.61C171.64,42.35,171.5,40.64,171.34,38.94Zm-4.87-7,0,1.12c-.08.27-.14.54-.23.81s-.21.56-.38,1a3.81,3.81,0,0,0-1.72,1.55,2,2,0,0,1-.48.42c-.13.11-.32.18-.4.31a6.72,6.72,0,0,1-1.68,1.6,3.16,3.16,0,0,1-3.82.21,2.36,2.36,0,0,1-1-1.74,21.27,21.27,0,0,1,0-5c.06-.47.18-.93.28-1.39.18-.84.32-1.7.56-2.53a11.65,11.65,0,0,1,4-5.85,2.14,2.14,0,0,1,1.07-.49c1.12-.06,2.25,0,3.4,0a22.74,22.74,0,0,1,.45,2.77c.08,1.7.55,3.39.14,5.12-.06.28.19.79.17,1.19S167,31.83,166.47,32Z"/><path class="cls-2" d="M229.54,33.35c-.16-1.2-.36-2.39-.49-3.6a4.34,4.34,0,0,1,.17-1.08L228.73,27h0c.11-.91-.85-1.16-1.23-1.87a1.61,1.61,0,0,1,1.86.67,6.32,6.32,0,0,0,.9,1c-.46-1.75-1.16-2.25-2.86-2.23a3.17,3.17,0,0,1-1-.1,3.83,3.83,0,0,0-2.67.23c-1.84.88-3.65,1.85-5.45,2.81a12.48,12.48,0,0,0-1.43,1c-2.15,1.59-3.07,4-4.08,6.32a20.12,20.12,0,0,0-1.2,6.46c-.07.83-.07,1.67-.11,2.5,0,.46.1.81.63.86s.87.14,1,.68a3.19,3.19,0,0,0,.55,0v-.42h4.13l-.45.24-.24.16A13.76,13.76,0,0,0,226.39,37a34.85,34.85,0,0,1,.6,8.46c.32,0,.6.08.72,0a4.6,4.6,0,0,0,.69-.81l1,.18c-.09.21-.15.37-.27.68l1.15.06c0-.39,0-.64.06-.89a75.32,75.32,0,0,0-.74-9.73C229.6,34.37,229.6,33.86,229.54,33.35Zm-15.83,3.06a1.3,1.3,0,0,0-.53,1,1.3,1.3,0,0,1,.53-1ZM225.4,27.9a32.71,32.71,0,0,0-1.55,5.6A10.2,10.2,0,0,1,221.79,38a14.38,14.38,0,0,1-2,2.44,10.12,10.12,0,0,1-5,2.07,12.45,12.45,0,0,1,0-1.85,26.07,26.07,0,0,1,.53-4c.22-.71.37-1.44.63-2.16a7.2,7.2,0,0,1,2.21-2.81,13.84,13.84,0,0,1,3.57-2.31c1.2-.53,2.32-1.22,3.52-1.86C225.34,27.72,225.43,27.83,225.4,27.9Zm2.4,7.86a3,3,0,0,0,.34-.4,3,3,0,0,1-.34.4Zm0,0h0c.32,0,.35.19.37.4C228.15,36,228.12,35.76,227.8,35.79Z"/><path class="cls-2" d="M187.4,22.22l-.3-.73c-.22.18-.47.29-.52.45a20.88,20.88,0,0,0-.52,2.07c-.08.39-.26.49-.62.36-.08-.46-.27-.9.27-1.27.12-.09.12-.53,0-.73a.72.72,0,0,0-.61-.3c-.37,0-.36.32-.32.67a9.73,9.73,0,0,1-.1,1.3c0,3.12-.14,6.25-.07,9.38a33.47,33.47,0,0,1-.65,7.07,5.1,5.1,0,0,1-.67,2.09c-1,1.37-2.19,2.75-4.26,2.26a3.5,3.5,0,0,0-.41-.05,4.12,4.12,0,0,0-.64-.93,2.23,2.23,0,0,1-.74-1.66c-.1-1.68-.25-3.37-.19-5.05.18-4.62.27-9.23.06-13.85a2,2,0,0,0-.83-1.57,9.64,9.64,0,0,0-.94-.63v1.6c-.67.23.31,1.13-.58,1.32-.39-.77.1-1.94-1.07-2.41,0,.65,0,1.25,0,1.85,0,2.57.15,5.13.15,7.7,0,3.33-.06,6.67-.09,10a7.67,7.67,0,0,0,1.87,5.16,2.7,2.7,0,0,0,2,1.1c.77,0,1.54.11,2.3.22,3.54.52,5.91-1.49,7-4.28a18.71,18.71,0,0,0,.91-5c.15-1.74.05-3.51.07-5.26,0-3.39.09-6.77.14-10.15C188.11,22.4,187.88,22.19,187.4,22.22Zm-1.69,14.55h0c.06.07.17.15.22.22A2.23,2.23,0,0,0,185.71,36.77Zm0,0h0l.36-1.07Z"/><path class="cls-2" d="M251.47,27.27a1.6,1.6,0,0,1,1.35-.54,10.39,10.39,0,0,0,2.73.12,1.45,1.45,0,0,1,1.38.52,1.44,1.44,0,0,0,1.45.45l-2.77-2.41c1-.26,1.4.95,2.47,1-1.11-1.41-2.14-2.54-4-2.42-1.37.09-2.75-.15-4.1.52a5.66,5.66,0,0,0-1.76,1q-1.72,1.83-3.49,3.62a3.85,3.85,0,0,0-1.19,2.31,28.32,28.32,0,0,0,.17,4.11,1,1,0,0,0,.4.63c1,.75,2,1.45,3,2.2A7.87,7.87,0,0,1,249,39.93a5.15,5.15,0,0,1-.41,5.1,28.94,28.94,0,0,1-2.92,2.61c-.6.5-1.22.14-1.79-.18a2.33,2.33,0,0,1-.51-.43c-1.12-1.2-2.27-2.38-3.33-3.63a3.54,3.54,0,0,1-1-2.13c0-.13-.23-.26-.53-.56l.17,1.56-.16,0-.41-.8-.63.33a3.16,3.16,0,0,1-.15-.56c0-2.9,0-5.8,0-8.7,0-1.55,0-3.09-.06-4.64,0-.34-.1-.58-.64-.48-.26,4.8.2,9.65-.31,14.52l-.6.35c.22.67.45,1.28.64,1.91a2.66,2.66,0,0,1,.18,1,6.15,6.15,0,0,0,.59,2.64c.11-1.25.11-1.25.5-1.86a6.66,6.66,0,0,0,1.94,1.91c.92.68,1.57,1.75,2.88,1.81.12,0,.23.14.34.21.32.55-.51.37-.5.77a3.09,3.09,0,0,0,2.07-.21c.27.23.48.55.64.53a8.23,8.23,0,0,0,2.11-.5,15,15,0,0,0,4.37-3.29,4,4,0,0,0,1.12-2.08,23.41,23.41,0,0,0,0-4.27,5.07,5.07,0,0,0-2.26-4.06c-1-.69-2-1.42-3-2.06a1.14,1.14,0,0,1-.58-1.1,3.94,3.94,0,0,1,1.1-2.67C249.05,29.71,250.32,28.54,251.47,27.27Zm-6.79,6.84h0l.11,0Zm5.15-6.44c.5-.1.58-.14.82-.74-.24.61-.32.64-.82.75Zm-.07.07h0c0,.72-.3.94-1.14,1h0Zm-1.15,1a.44.44,0,0,1,0,.65.45.45,0,0,0,0-.65Zm-1.27,1.59c.28-.74,1-1,1.26-1.6h0C248.31,29.32,247.62,29.61,247.34,30.35Z"/><path class="cls-2" d="M216.32,26.57c1.26-.31,2.53-.6,3.83-.91-.71-.39-1.38,0-2,0l-1-.72,2.69-.65-.05-.28c-.63.09-1.27.15-1.89.26-2.64.44-5,1.72-7.33,2.87a1.92,1.92,0,0,0-.62.43c-.76.79-1.5,1.6-2.25,2.4-.21.23-.44.44-.71.71a2.63,2.63,0,0,1,.46-2c.2-.31.41-.61.58-.93a7.77,7.77,0,0,1,2.84-3.07,15.45,15.45,0,0,1,6.81-2.13,4.34,4.34,0,0,0,.65-.18c-.14-.19-.17-.28-.23-.3a.88.88,0,0,0-.42-.09c-1,.15-1.93.31-2.89.5a10.56,10.56,0,0,0-6,3.16c-.58.65-1.08,1.37-1.63,2.05a8.05,8.05,0,0,1-.73.66c-.2-3-.39-5.75-.58-8.5l-.92.07c0,.54,0,1,0,1.53.19,2.59.36,5.18.63,7.77a6,6,0,0,1-.23,2.27c0,.12-.25.2-.52.41-.11-1.46-.17-2.7-.29-3.93s-.33-2.54-.46-3.81-.24-2.48-.3-3.71-.05-2.46-.08-3.71c-.54.1-.67.38-.68.74-.07,1.57-.18,3.14-.18,4.71,0,1.23.14,2.47.24,3.69.11,1.39.24,2.77.39,4.16.09.93.31,1.86.33,2.8.07,3,.07,6.07.1,9.1,0,1,0,2,0,3,0,.5.15.79.79.56,0-.62,0-1.24,0-1.86s.2-1.16.21-1.74c0-1.25-.05-2.5,0-3.75a20.24,20.24,0,0,1,.4-2.78c0-.12.3-.2.53-.33,0,2.16,0,4.21,0,6.25a11.66,11.66,0,0,0,.64,4.19c.06.14.24.24.45.43a3.79,3.79,0,0,0,.11-.52c0-1.61,0-3.22,0-4.82s-.15-2.94.51-4.32c.06-.14,0-.34,0-.51s0-.89.14-.9c.77-.11.78-.8,1-1.27a23.76,23.76,0,0,1,2.16-3.54A9.37,9.37,0,0,1,216.32,26.57Zm-6.57,4.09h0c.16-.14.34-.27.5-.42C210.09,30.39,209.91,30.52,209.75,30.66Z"/><path class="cls-2" d="M261.41,35.1a4.54,4.54,0,0,1,0-1.18c.09-.3.48-.54.12-.91-.65.54-.61,1.52-1.5,2,.1-.51.17-.91.27-1.49a1.86,1.86,0,0,0-1,1.47,23.58,23.58,0,0,1-1,4.72c-.4,1.47-.7,3-1.16,4.43-.77,2.39-1.63,4.76-2.44,7.14,0,.16-.1.4,0,.51a.81.81,0,0,1,0,1,.37.37,0,0,0,.26.59.91.91,0,0,0,.61-.33,1.31,1.31,0,0,0,.13-.55l.92.3.1-.23L255.7,52a1.53,1.53,0,0,1,.26-.41c.42-.37.66-.29.92.25s.75.8.53,1.44c0,.07.3.26.51.43.16-.61.25-1.08.41-1.53.48-1.41,1-2.82,1.47-4.24.26-.75.49-1.52.69-2.29a49.83,49.83,0,0,1,1.34-5.08c.64-1.63.54-3.37,1.12-5,0-.1.07-.26,0-.32-.36-.39-.05-.76,0-1.13,0-.2.07-.4.13-.78C262.07,33.64,262,34.52,261.41,35.1Z"/><path class="cls-2" d="M114.68,23.12a.94.94,0,0,0-.56-.77c.06.62.34,1.2-.14,1.84,0-1.51-1.58-1.6-2.18-2.6.11.79.21,1.57.33,2.37h-.74a9,9,0,0,0,0,1.16c.16,1.22.4,2.44.53,3.66.22,2.16.46,4.31.56,6.48.14,2.82.15,5.64.23,8.47,0,.17.15.35.25.57a1.38,1.38,0,0,0,.37-1.14c0-.66,0-1.32.11-2,0-.49.2-1,.2-1.48,0-2.38,0-4.76,0-7.14,0-.15.19-.3.29-.44a3,3,0,0,1,.09.52c0,1.94,0,3.88.07,5.82,0,.89,0,1.77,0,2.65,0,.25,0,.62.13.74a4.09,4.09,0,0,1,1,2.32c0,.07.17.1.41.22a11.43,11.43,0,0,0,.14-1.44,125.83,125.83,0,0,0-.42-13.59C115.13,27.28,114.91,25.2,114.68,23.12Z"/><path class="cls-2" d="M235.33,32.12a32.41,32.41,0,0,0-.18-6.23c0-.14-.15-.26-.23-.39l-.22.05c0,.61,0,1.21,0,1.81a5.93,5.93,0,0,1-.15,1.11,7.55,7.55,0,0,0-.27,1c0,1.32-.06,2.65-.05,4s.07,2.8.06,4.2c0,2-.08,4-.15,5.94a16.68,16.68,0,0,0,.26,4.12c.47.07.57-.13.49-.51a1.36,1.36,0,0,1,.35-1.5h0a2.13,2.13,0,0,0,.15-.59c0-1.15,0-2.3,0-3.46,0-1.45,0-2.9,0-4.36C235.36,35.57,235.27,33.84,235.33,32.12Z"/><path class="cls-2" d="M238.24,16.48c0,.54-.06,1-.1,1.67l1.26-.55c.33.3-.17,1.07.6,1.17a14.05,14.05,0,0,0,.31-5.12c-.28.41-.55.82-.82,1.24l-.48-.4-.44.55c0-.53.08-1,.14-1.64-1.31,1.14-1.35,2.58-1.67,3.94C237.75,17.57,237.84,16.83,238.24,16.48Z"/><path class="cls-2" d="M264.54,20.42l-.06.06h0v0h0Z"/><path class="cls-2" d="M264,25.36c.06,0,.14-.05.19-.07.16-.64.33-1.27.48-1.9,0-.09,0-.25,0-.28-.51-.34-.22-.79-.2-1.2s0-.93.07-1.4c-.49.12-.57.52-.7.94a10.18,10.18,0,0,1-.55,1.21l-.65-.33v1.51A2,2,0,0,0,264,25.36Z"/><path class="cls-2" d="M111.93,16.54c-.77-.8,0-.83.23-1.14l-.29-.85.76-.19c.07-.88-.7-.42-1-.69.13-.64.13-.64.7-1.06-1-.06-1-.07-1.22.88s-.31,1.82-.49,2.82l.9.2Z"/><path class="cls-2" d="M114,15.32c0-1.22.88-2.34-.13-3.55a5.53,5.53,0,0,0-.45,1.74,1.79,1.79,0,0,1,0,1C113.1,15,113.36,15.17,114,15.32Z"/><path class="cls-2" d="M262.13,22.09a4.16,4.16,0,0,1,.27-2.39,2.71,2.71,0,0,0-.93,2.85C262,22.83,262.24,22.44,262.13,22.09Z"/><path class="cls-2" d="M211.8,25.64l2.9-1.29c-1-.45-1.64.42-2.4.6C212,25,211.61,25.11,211.8,25.64Z"/><path class="cls-2" d="M261.34,24.41c.36.07.52-.2.53-.51,0-.12-.18-.25-.36-.51a6.42,6.42,0,0,0-.53.71A.71.71,0,0,0,261.34,24.41Z"/><path class="cls-2" d="M185.88,21.27s.06,0,.22-.13a6.15,6.15,0,0,0-.45-.68s-.37.14-.38.24C185.21,21.13,185.54,21.23,185.88,21.27Z"/><path class="cls-2" d="M157.55,22.54c.09.38.37.27.62.17,0-.19,0-.38-.07-.78C157.82,22.23,157.52,22.42,157.55,22.54Z"/><path class="cls-2" d="M93.34,40.12c.14.19.27.4.42.58s.18,0,.29,0l-.58-.68Z"/><path class="cls-2" d="M215.3,24.38l.78-.31L216,23.9l-.77.19Z"/><path class="cls-2" d="M188,21.49l-.27-.57-.33.17.38.51Z"/><path class="cls-2" d="M205.54,19.42l0-.13-.49,0,0,.24Z"/><path class="cls-2" d="M214.62,45.3h-.83l.81.15Z"/><path class="cls-2" d="M213.79,45.3l-.09,0h.09Z"/><path class="cls-2" d="M264.7,19.81l-.16.61.4-.48Z"/><path class="cls-2" d="M217.15,23.91l0-.11h-.54v.11Z"/><path class="cls-2" d="M249.76,27.75l-1.13,1C249.46,28.68,249.7,28.46,249.76,27.75Z"/></g></g></g></svg>