<svg xmlns="http://www.w3.org/2000/svg" viewBox="0 0 336.89 177.04"><defs><style>.cls-1{fill:#fff;opacity:0.2;}</style></defs><g id="Calque_2" data-name="Calque 2"><g id="Contours"><path class="cls-1" d="M332.63,62.62C329.24,52.19,327.67,41,323,31c-7.08-15.23-21.59-18.25-36.92-16-10.23,1.51-20.81,4.73-31.24,4-8.12-.58-12.65-8.5-20.18-10.69-3.49-1-7.91-.54-11.34.46-1.68.49-3.27,1.84-5,2.14-2.42.45-2.36-.63-3.62-2.74C210.53,1.13,202-2.58,194.38,2.05c-6.17,3.76-9.07,11.46-10.35,18.23-.35,1.85-.48,1.66-2.84,2.83-4.34,2.17-9,3.79-13.45,5.66-8.45,3.53-16.64,7.38-23.86,13.1A71.84,71.84,0,0,0,132.55,53.2c-2.8,3.47-5,8.54-8.43,11.36-5.24,4.29-14.4-6.49-18.4-9.41C98,49.56,89.83,50,82,54.8a34.3,34.3,0,0,0-6,1.43c-4.9,1.62-9.63,3.76-14.63,5.08-5.3,1.39-10.13,1.09-15.45.28-4.73-.72-9.76-1.77-13.67,1.76-1.63,1.48-2.17,3.68-3.64,5.17S24.25,71,22.15,71.78C18.61,73.15,14.9,74.35,12.09,77c-3.41,3.25-5,7.88-5.92,12.4-1.56,7.69-1.35,15.51-1.94,23.29-.45,5.89-2.14,11.45-3.21,17.22-1.54,8.31-2.25,18.59,4.73,24.76,8.31,7.35,20.94,4.27,29.29-1.14,4.89-3.17,9-5.93,15-5.87,6.51.06,12.92.42,18.72-3.15,5.43-3.33,8.49-9.95,15.46-9.17,7.49.83,13.18.09,19.11-4.79,2.44-2,4.85-5,8-5.79,3.57-.85,7.56.45,11.22.08,6-.61,11.2-3.73,16.15-7.06,3.51,8.18,5.2,17.42,8,25.73,3.58,10.65,8.14,22.56,17.66,29.32,8.56,6.07,21.57,5.61,29.19-1.89,7.45-7.33,8.15-19.36,7.56-29.17a171.73,171.73,0,0,0-4.42-27.86,80.16,80.16,0,0,0,10.7-3.3c2.27-.87,4.52-1.82,6.73-2.84s4.56-2.91,6.94-3.7c3.74-1.24,4.88.88,7.63,2.65,3.07,2,6.44,2.13,10,1.5a19.29,19.29,0,0,0,5.78-2c1.77-.94,3.79-3.06,5.73-3.44,3.76-.74,7.51,3.15,11.61,2.65,3.76-.45,6.08-4.42,9.28-4.65,1.93-.15,4.34,1.36,6.23,1.83a67.63,67.63,0,0,0,8.13,1.25c16.35,1.89,38.85.12,48.75-15.29C339.73,80.05,335.45,71.29,332.63,62.62Z"/></g></g></svg>