<svg xmlns="http://www.w3.org/2000/svg" viewBox="0 0 326.03 213.48"><defs><style>.cls-1{fill:#fff;opacity:0.2;}</style></defs><g id="Calque_2" data-name="Calque 2"><g id="Contours"><path class="cls-1" d="M325.83,174.9c-1.42-14.41-8.39-27.32-15.19-39.83-6.28-11.55-14.22-24.48-9.12-37.8,5.2-13.57,12.59-24.48,10.62-39.72A56.72,56.72,0,0,0,292.9,21.88c-9.95-8.4-22.38-11.59-35.08-13C244,7.31,228.75,10.68,224.14,25.6c-2,6.45-1.28,13.24-.43,19.8.24,1.82.83,4.43,1.15,7.07-5.5-4.57-11.62-8.36-18.81-8.26a20,20,0,0,0-12.79,5.27c-2.23,1.94-3.91,5.23-6.9,5.68-8,1.18-14.4-11.28-17.19-16.77-4.18-8.2-7.4-17-13-24.38C142.74-3.76,119-1.91,100.12,4.75A156.09,156.09,0,0,0,51.38,32.58a5.21,5.21,0,0,0-3.7,2Q44.56,38.27,41.44,42a116.81,116.81,0,0,0-11.9,14.91C21.59,67.42,14.4,78.43,9.16,90.66a112.32,112.32,0,0,0-8.3,58.22C3,166.16,9.38,185.06,26.22,193.1c18.65,8.9,39.54,5.53,57.53-3.28a118.17,118.17,0,0,0,41.9-34.74c3,5.19,5.65,10.67,9.53,15.31,6.33,7.54,15.22,11.32,24.86,12.18,11.72,1,27.58-.75,37-9.08,3,4.42,5.67,9.09,9.33,13a31.7,31.7,0,0,0,24,10.22,51.83,51.83,0,0,0,31.36-11.61c2.35,6.89,5.37,13.47,10.62,18.8,9.59,9.73,25.13,12.6,37.22,5.94C321.87,203.05,327.17,188.43,325.83,174.9Z"/></g></g></svg>