<svg xmlns="http://www.w3.org/2000/svg" viewBox="0 0 333.97 179.35"><defs><style>.cls-1{fill:#fff;opacity:0.2;}</style></defs><g id="Calque_2" data-name="Calque 2"><g id="Contours"><path class="cls-1" d="M326,47.46c-7.94-10.23-20.39-16.64-32.57-20.4-13-4-26.13-9.53-39.61-11.45-8.84-1.26-14.67,1.49-22.67,4.57-6.9,2.66-9.39.31-15.59-2.44-14.53-6.48-30.14-6.32-43.85,1.13-6.08-6.33-13.56-11-22.58-11.84-8.7-.83-17,2-24.78,5.74C102.24-10.94,67.29,2.34,45.29,20.51A92,92,0,0,0,20.76,52.7,5.57,5.57,0,0,0,17,55.5C3.75,77.6-6.81,107.63,5.37,132.42c6,12.29,19.85,25.19,34.5,23.2a23,23,0,0,0,16.74-11.14,39.78,39.78,0,0,0,3.09-8.28c4.39,8.11,9.7,15.32,19.46,18.23,13.32,4,25.84-.59,36.8-7.73,3.49,6.59,7.67,12.46,15.72,14.43a29.31,29.31,0,0,0,16.33-.9c4.92-1.62,10.43-5.37,15.77-5,4.11.24,7.45,3.47,10.81,5.49a26.87,26.87,0,0,0,14.54,3.94c6.21-.12,13.79-.94,20.34-3.4a21.34,21.34,0,0,0,7.59,10.56c5.75,4.13,12.86,4.39,19.59,3,9.5-1.91,18.67-6.67,27-12.31,1.2,5.34,3.58,10.28,8.15,13.55,5.82,4.15,13.11,4.07,19.59,1.52,17.36-6.83,27.95-23.84,32.41-41.13a436.52,436.52,0,0,0,9.09-48C334.83,74.4,335.08,59.18,326,47.46Z"/></g></g></svg>