<svg xmlns="http://www.w3.org/2000/svg" viewBox="0 0 338.57 139.74"><defs><style>.cls-1{fill:#fff;opacity:0.2;}</style></defs><g id="Calque_2" data-name="Calque 2"><g id="Contours"><path class="cls-1" d="M335.11,46.4c-4.25-9.77-13.86-11.77-23.55-12.12-2.08-.08-4.11-.36-6.16-.5a.4.4,0,0,0-.24,0,1.67,1.67,0,0,0,0-.5,64.48,64.48,0,0,0-4.75-13.88c-2.69-5.93-6.91-12.23-13.26-14.64-6.13-2.34-12.46,0-17,4.38C262.6,16.4,260.58,27.62,259.74,38c-4.29-2.31-7.94-5.82-12.38-8-6-2.93-11.55-2.28-16.77.52-4.13-4.35-9-8.42-14.92-9.45-7.07-1.22-13.33,2.49-18.41,7.05-4.4,3.95-9.35,11.26-15.52,12.5-5.29,1.06-6.66-7.7-7.51-11.46-2.11-9.34-3.52-21.81-12.81-27-10-5.63-21.66.7-26.14,10.22s-4.76,20.08-5.56,30.38a46.6,46.6,0,0,0-22,4.06A5.16,5.16,0,0,0,104.46,48a29.75,29.75,0,0,0-16-7.75c-10.19-1.44-20,1.67-29.84,3.81C39.88,48.12,16.24,49.07,6.93,69c-7.36,15.72-10,35.51-2.3,51.6,9.71,20.4,33.51,21.38,53,17.21,14.19-3,28.13-8.14,41.57-13.54,7.08-2.84,12.37-6.54,15.32-12C121,123.35,135,128,148.58,128.31c15.92.32,33.94-3.57,48.17-11.57,5.6,6.54,15.76,6.61,24.07,6.81,6.34.15,12.5.14,18.74-1.18s12.14-3.54,18.14-5.45a43,43,0,0,0,5.27-1.67l.36-.16c2.06.93,4.3,1.27,6.36,2.42,5.76,3.24,11.23,4,17.83,3.58,12.21-.81,25-4.14,34.16-12.56a51.75,51.75,0,0,0,15.44-28.38C339.17,69.51,339.5,56.52,335.11,46.4ZM263.56,115c.66-.25.49,0,0,0Z"/></g></g></svg>