<svg xmlns="http://www.w3.org/2000/svg" viewBox="0 0 336.77 131.11"><defs><style>.cls-1{fill:#fff;opacity:0.2;}</style></defs><g id="Calque_2" data-name="Calque 2"><g id="Contours"><path class="cls-1" d="M334.62,74.39C332,69.83,326.53,67,322.15,64.33c-5.55-3.34-11.38-6.2-16.9-9.57-5.93-3.62-10.95-7.86-18-9.11-7.3-1.3-14.49.39-21.63,1.82-6.64,1.34-15,3.4-20.9-1.14-5.29-4.09-8.58-10.42-13.43-15-6-5.68-12.61-7-20.57-6.05-2.47.29-5.62.95-7.82-.61s-3.36-5.34-4.58-7.78C194.53,9.38,189,4.77,180.57,3.22a23.94,23.94,0,0,0-22.78,7.69c-9.6,11.18-8.51,25.41-11.65,38.59-4.51-5.94-10.25-10.5-18.62-10.07a16.85,16.85,0,0,0-7.8,2.31c-2,1.17-2.58,2.63-3.89,1.64-1.87-1.41-3-4.75-4.29-6.69a24.18,24.18,0,0,0-5.24-5.54c-9.92-7.68-24.72-11.84-35.91-4.25-5.79,3.92-8.77,10-10.82,16.45-1-3.46-2.17-6.86-3.44-10.17C52.58,23.94,48,14.43,41.05,7.27,34.94,1,26.06-2.49,17.91,2.11,10.3,6.4,5.85,15,3.1,23-2,37.85.17,54.73,2.9,69.86c2.86,15.84,7.57,33.27,18.25,45.75,4.87,5.7,11.76,10.18,19.44,10.44,7.86.27,15-3.39,21.08-8.07,8.84,8.85,20.43,12.94,33.47,12,11.56-.79,22.68-4.83,31.24-12.33a25.91,25.91,0,0,0,10.88,10.89c7.18,3.58,15.79,3.06,23.15.29a51.14,51.14,0,0,0,11.71-6c1.78-1.27,3.86-3.64,5.95-4.3s2.49.1,4.48,1.06c8.86,4.25,16.45-2.58,23.27-7.84,22.41,16.07,52.28-4.89,74.92-11.1,7.58-2.08,15.29,1.23,22.84,2.06a35.77,35.77,0,0,0,17-2.48C330.72,96.31,341.44,86,334.62,74.39Z"/></g></g></svg>