<svg xmlns="http://www.w3.org/2000/svg" viewBox="0 0 306.05 160.84"><defs><style>.cls-1,.cls-2{fill:#fe5f58;}.cls-1{opacity:0.2;}</style></defs><g id="Calque_2" data-name="Calque 2"><g id="Phrase_2" data-name="Phrase 2"><g id="P2_m4_1"><path class="cls-1" d="M302.18,56.89c-3.08-9.47-4.51-19.62-8.73-28.7C287,14.35,273.84,11.61,259.91,13.66,250.62,15,241,18,231.53,17.29c-7.37-.53-11.49-7.72-18.33-9.71A19.63,19.63,0,0,0,202.89,8c-1.52.44-3,1.66-4.5,1.94-2.2.41-2.14-.58-3.29-2.49-3.84-6.42-11.59-9.8-18.51-5.58-5.61,3.41-8.24,10.4-9.41,16.55-.31,1.68-.43,1.51-2.58,2.58-3.94,2-8.15,3.44-12.21,5.14-7.68,3.2-15.12,6.7-21.68,11.9a64.2,64.2,0,0,0-10.29,10.29c-2.55,3.16-4.52,7.76-7.66,10.32C108,62.55,99.67,52.75,96,50.1c-7-5.07-14.43-4.64-21.52-.32a32.71,32.71,0,0,0-5.42,1.3c-4.45,1.47-8.74,3.42-13.29,4.62-4.81,1.26-9.2,1-14,.25-4.3-.66-8.87-1.6-12.42,1.6-1.48,1.34-2,3.34-3.3,4.7s-4,2.23-5.93,3C16.91,66.46,13.54,67.54,11,70c-3.09,3-4.54,7.16-5.37,11.26-1.42,7-1.23,14.09-1.77,21.17-.4,5.34-1.94,10.39-2.91,15.64-1.4,7.55-2.05,16.88,4.29,22.49,7.55,6.67,19,3.88,26.61-1,4.44-2.88,8.15-5.38,13.65-5.33,5.91.06,11.73.38,17-2.86,4.93-3,7.71-9,14-8.33,6.81.75,12,.08,17.36-4.35,2.22-1.83,4.41-4.57,7.31-5.26,3.24-.77,6.87.41,10.19.07,5.41-.56,10.17-3.39,14.67-6.42,3.19,7.44,4.73,15.83,7.26,23.38,3.26,9.68,7.4,20.5,16.05,26.63,7.78,5.52,19.59,5.11,26.52-1.71,6.76-6.66,7.4-17.59,6.86-26.5a156,156,0,0,0-4-25.31,73.7,73.7,0,0,0,9.72-3c2.06-.8,4.11-1.66,6.12-2.59s4.14-2.64,6.3-3.36c3.4-1.13,4.44.8,6.93,2.41,2.79,1.8,5.85,1.93,9.05,1.36a17.36,17.36,0,0,0,5.25-1.79c1.61-.86,3.45-2.78,5.21-3.12,3.41-.67,6.82,2.86,10.55,2.41,3.41-.42,5.52-4,8.42-4.23,1.76-.13,3.94,1.24,5.67,1.66a60.87,60.87,0,0,0,7.38,1.14c14.85,1.71,35.29.11,44.28-13.89C308.63,72.72,304.74,64.76,302.18,56.89Z"/><path class="cls-2" d="M289.67,71.05A22.18,22.18,0,0,1,286.2,65C285,62.05,284,59,283,56c-.49-1.45-.8-3-1.25-4.42-.54-1.75-1.2-3.46-1.69-5.22-.68-2.4-1.27-4.82-1.87-7.23a35.14,35.14,0,0,1-.94-4.49c-.1-1-.21-1.77-1-2.16l-2.35.5a15.57,15.57,0,0,0-.29,2.14,93.3,93.3,0,0,1,0,9.46c-.3,2.88-.22,5.79-.39,8.69-.08,1.46-.3,2.93-.52,4.38-.16,1.1-.49,2.18-.62,3.28a26.9,26.9,0,0,1-1.39,6.7c-.35.9-.51,1.86-.83,2.77a18.17,18.17,0,0,1-.86,1.83,2,2,0,0,1-1.73-1.12c-2.33-4-3.25-8.48-4-13q-.52-3.32-.87-6.65c-.31-2.9-.59-5.81-.77-8.72-.15-2.25-.12-4.51-.2-6.76a2.51,2.51,0,0,0-2-2.58,5.75,5.75,0,0,1-1.37-.67c-.72.42-1.52,1-1.45,1.94a44.23,44.23,0,0,0,.83,6.51,20.75,20.75,0,0,1,.49,6.22c-.15,2-.44,4-.57,5.94-.15,2.19-.09,4.39-.29,6.57-.23,2.54-.56,5.09-1,7.6-.28,1.55-.86,3-1.29,4.57a1.15,1.15,0,0,1-1.27.88c-2.17,0-3.58-1.31-4.57-2.91a47.3,47.3,0,0,1-5.08-12.35,39.21,39.21,0,0,0-1.4-4.82,2.45,2.45,0,0,1,.58-3,5.89,5.89,0,0,0,1.85-4.06,7.37,7.37,0,0,0-1.13-4.34c-1.74-2.49-4.28-3.93-7-5.15-2.37-1.09-5-1.32-7.51-1.8a6.08,6.08,0,0,0-3,.44,2.11,2.11,0,0,0-1.26,1.05c-.58,1.53-1,3.11-1.44,4.69-.23.84-.34,1.7-.52,2.55-.14.64-.33,1.28-.46,1.92-.29,1.51-.6,3-.81,4.53a60.07,60.07,0,0,0-.68,6.27c-.1,2.74,0,5.49.07,8.24a10.94,10.94,0,0,0,2.47,7.26,9.15,9.15,0,0,1,.74,1.22,3.11,3.11,0,0,1-2.26.51,3.6,3.6,0,0,0-1,0,9.36,9.36,0,0,1-6.62-1.9,2.37,2.37,0,0,1-1-2.91q.84-2.79,1.57-5.61c.74-2.87,1.47-5.74,2.15-8.63a24.28,24.28,0,0,0,.7-4.06c.13-2,.11-4.05.05-6.07a6.7,6.7,0,0,0-.53-2.83,8.6,8.6,0,0,0-7.16-4.89c-.88-.07-1.83-.47-2.68.22a20.19,20.19,0,0,0-.53,5.64c.11,1.75,0,3.52,0,5.28,0,1,0,2.07,0,3.1,0,.72.15,1.43.15,2.15,0,3.35,0,6.7,0,10a14.63,14.63,0,0,0,1.67,6.72,2.21,2.21,0,0,1,.13,1.92,12.92,12.92,0,0,1-1,2.2c-.69,1-1.46,2.06-3,1.58-.13,0-.29.07-.44.09a6.08,6.08,0,0,1-4.85-1.62,9.09,9.09,0,0,1-1.9-2.93,41.37,41.37,0,0,1-2.21-6.34q-1.71-5.22-3.34-10.47c-.72-2.32-.53-4.66-.71-7-.21-2.73-.47-5.44-.88-8.14-.39-2.46-.82-4.91-1.24-7.44.66-.2,1.3-.35,1.91-.58,2.16-.83,4.29-1.75,6.48-2.53,2.74-1,5.52-1.8,8.27-2.75,2.08-.71,2.14-1.28,1.67-3.4-.23-1.07-.84-1-1.43-1.13s-1.11.29-1.33,1a1.77,1.77,0,0,1-.84,1c-.93.41-1.93.64-2.88,1-2.82,1.08-5.62,2.2-8.44,3.27-1.29.49-2.62.88-4,1.35-.13-.49-.22-.88-.34-1.26-.49-1.66-1-3.32-1.49-5s-.91-3.31-1.4-5c-.43-1.49-.91-2.95-2.81-3.34-.14.26-.3.74-.42.73-1.21-.12-1.09.76-1.08,1.45a35.74,35.74,0,0,0,1.2,8.79c.48,1.81.83,3.66,1.25,5.5A15,15,0,0,1,181,31.75,16.73,16.73,0,0,0,177.6,33c-1.18.61-2.4,1.14-3.56,1.79a20.27,20.27,0,0,0-2.92,1.94,4.28,4.28,0,0,0-1.59,2.15c.15.05.25.12.34.11.3-.05.6-.13.9-.19,2.39-.45,4.42-1.79,6.67-2.6,1.65-.59,3.21-1.43,4.83-2.11.59-.24,1.24-.65,1.74-.11.41,1.88.8,3.62,1.16,5.36.57,2.75.79,5.57,1.81,8.22-.55.84.51,1.19.54,1.87.14,2.34.41,4.67.45,7,.06,3.83-.06,7.65,0,11.47,0,2.65.15,5.3.23,7.92a6.17,6.17,0,0,1-4.84-.78A28.59,28.59,0,0,1,180.41,72a36.63,36.63,0,0,1-2.85-4.49c-.72-1.25-1.46-2.5-2.11-3.79-.76-1.5-1.43-3-2.16-4.55-.52-1.06-1.11-2.07-1.61-3.13a15.59,15.59,0,0,0-.88-2.13,13.19,13.19,0,0,0-1.57-1.5c-.48-.51-.92-.61-1.38,0-.31.41-.56.86-.84,1.3-2.29-1-2.29-1-4.07-1a3.53,3.53,0,0,0-3.78,2.54A42.33,42.33,0,0,0,157.48,62c-.39,2.71-.75,5.43-.93,8.18a82.2,82.2,0,0,0-.31,8.59c0,.88.12,1.71-.68,2.37-.65.53-1.2,1.17-1.93,1.89a12.89,12.89,0,0,1-.49-1.4c-.48-2.19-.93-4.39-1.41-6.58-.83-3.77-1.6-7.56-2.53-11.31-.68-2.76-1.58-5.47-2.39-8.2a3.32,3.32,0,0,1-.2-.58c-.23-1.92-.42-3.85-.68-5.76a16.23,16.23,0,0,0-.65-2.84c-.33-1-1.24-1.21-2.56-1-1,.19-.83.93-.78,1.56.08,1,.21,2,.38,3,.13.74.35,1.45.57,2.34-.77-.17-1.41-.3-2-.45a4.23,4.23,0,0,0-4.57,1.46c-1.61,2-3.19,4.12-4.62,6.29a64.27,64.27,0,0,0-5.08,9.6c-1.3,3-2.89,5.81-2.94,9.22,0,3,.4,5.72,2.94,7.68a23.32,23.32,0,0,0,2.22,1.62,6.06,6.06,0,0,0,2.21.95,21.33,21.33,0,0,0,6.43-.09c1.56-.29,2.1-1.82,3.23-2.63A1.88,1.88,0,0,1,142,84c.1,0,.15-.26.2-.4a54.13,54.13,0,0,0,2.28-6.6,32.4,32.4,0,0,0,1.12-7.84,16.28,16.28,0,0,1,.43-2.83h.35c.32,1,1.06,1.73.84,2.93-.11.58.3,1.26.49,1.89a7.13,7.13,0,0,1,.32,1,34.49,34.49,0,0,0,1.37,6.28,3,3,0,0,1,.07.6c.31,2.06.49,4.15,1,6.16a3,3,0,0,1-.47,2.72,76.41,76.41,0,0,0-4.12,6.86,14.22,14.22,0,0,0-1.46,4.74,40.72,40.72,0,0,0-.1,9.1,33.38,33.38,0,0,0,.82,4.33,45,45,0,0,0,1.34,4.56c1.32,3.71,2.66,7.42,4.08,11.09s3,7.41,4.49,11.09c1.12,2.69,2.25,5.36,3.49,8a4.67,4.67,0,0,0,1.66,1.76,1.77,1.77,0,0,0,2.81-1.52c0-1.63-.15-3.25-.28-4.87-.16-2.19-.32-4.39-.55-6.58-.18-1.68-.44-3.34-.69-5q-.53-3.4-1.07-6.79c-.31-1.92-.6-3.85-.93-5.77-.26-1.49-.61-3-.86-4.48s-.37-2.94-.59-4.4c-.41-2.84-.84-5.67-1.26-8.5-.11-.81-.14-1.64-.28-2.45-.58-3.32-1.22-6.63-1.78-10-.33-2-.15-2.3,1.55-3.43a2.58,2.58,0,0,0,1.39,3,3.57,3.57,0,0,0,2.59.73,6,6,0,0,1,1.52,0c2.7.25,4.45-1.08,5.61-3.36A32.51,32.51,0,0,0,170,75.92c.13-.9.1-1.83.21-2.74.24-1.87.53-3.73.79-5.6.17-1.25.31-2.51.45-3.77.06-.53.09-1.06.13-1.59a24.46,24.46,0,0,1,2.2,4.24,44.1,44.1,0,0,0,3,6.07,20.05,20.05,0,0,0,4.62,5.1,4.54,4.54,0,0,0,1.69,1,21.45,21.45,0,0,0,5.35.88c2,0,3-.9,3-2.82,0-3.75,0-7.49,0-11.24a1.42,1.42,0,0,1,.76.8c.63,1.78,1.16,3.59,1.85,5.33a9.25,9.25,0,0,0,3.67,4.89c1.7,1,2.56,1.64,4.61,1.73,1.25.06,2.5.06,3.75,0a5.5,5.5,0,0,0,5-3.24c.23-.43.52-.82.79-1.24,2.69,1.81,5.35,3.18,8.51,3,1.31-.08,2.68.28,3.93-.33A18.59,18.59,0,0,0,227,74.84a4.68,4.68,0,0,1,2.34-1,6.16,6.16,0,0,0,2.22-.9,6.41,6.41,0,0,0,2.58-3.51,68.75,68.75,0,0,0,2.43-8.95c.47-2.26.91-4.46,2.76-6.29.34,1.25.65,2.43,1,3.59.51,1.76,1,3.54,1.61,5.26a64.88,64.88,0,0,0,2.52,6.23c1.2,2.49,2.61,4.81,5.18,6.27a6.89,6.89,0,0,0,5.62.44,4,4,0,0,0,2.67-2.49A29.88,29.88,0,0,0,260,64.8c0-.46.12-.93.19-1.39A41,41,0,0,1,262,68a14.58,14.58,0,0,0,2.65,5.31c1.69,1.88,4.36,3.21,6.78,1.3A4.31,4.31,0,0,0,273,72.15c.15-.64.24-1.3.43-1.93A35.6,35.6,0,0,0,274.75,66c.74-4.45,1.73-8.88,2.06-13.4.06-.82.25-1.62.38-2.43l.33,0a22.16,22.16,0,0,0,.53,2.17c1.35,4,2.64,7.92,4.11,11.83a29.15,29.15,0,0,0,6.22,10.59c.67.68,1.34,1.61,2.51,1.57a2.32,2.32,0,0,0,2.32-2A42.89,42.89,0,0,1,289.67,71.05Zm-147-5.27c-.29,2.32-.37,4.67-.76,7A58.71,58.71,0,0,1,140.37,79c-.34,1.15-.89,2.24-1.29,3.37a8.35,8.35,0,0,1-2.32,3.15,1.5,1.5,0,0,1-.69.31,9.11,9.11,0,0,1-8.2-2c-1.48-1.32-1.56-3.22-1.34-5A19.27,19.27,0,0,1,128,72.7c1.08-2.25,2.12-4.51,3.18-6.76a34.51,34.51,0,0,1,3.55-5.3c1.53-2.15,3.35-4.08,5.08-6.15l3.47.38c0,1.44,0,2.86,0,4.28A47.43,47.43,0,0,1,142.7,65.78Zm12.44,46.66c.72,4.45,1.48,8.88,2.23,13.32.48,2.82,1.08,5.63,1.46,8.47.29,2.15.32,4.34.46,6.51l-.34.11c-.34-.82-.75-1.61-1-2.45-1.07-3.36-2.33-6.64-3.71-9.88-.78-1.81-1.63-3.59-2.33-5.44q-1.59-4.2-3-8.46a23.83,23.83,0,0,1-1.24-6.85c-.06-2.08,0-4.16-.07-6.23a12.76,12.76,0,0,1,2-6.54c.36-.62.68-1.27,1-1.88.22-.37.51-.69.92-1.23.36,1.39.73,2.48.92,3.61C153.39,101.14,154.23,106.8,155.14,112.44Zm11.3-32.7a14,14,0,0,0-1,2.6c-.29.75-.58,1.51-.89,2.26A2.08,2.08,0,0,1,162.42,86c-.81,0-1.62,0-2.44,0a4.27,4.27,0,0,1,1.63-5.85c1.76-1.09,3.56-2.11,5.43-3.21A4.77,4.77,0,0,1,166.44,79.74Zm.93-10.37a5.53,5.53,0,0,1-1.47,3.42,11.55,11.55,0,0,1-4.49,3.54,7.47,7.47,0,0,0-1.65,1.13c-.54-1.33-.12-2.53-.06-3.73a109.11,109.11,0,0,1,1.38-13.38,33.07,33.07,0,0,1,.79-3.58,1.44,1.44,0,0,1,.93-.89,4.5,4.5,0,0,1,3.53.6,2.32,2.32,0,0,1,1,2.07c0,2.85.12,5.69.17,8.54C167.54,67.85,167.42,68.61,167.37,69.37Zm43.76-5.26a8.81,8.81,0,0,1-.5-3.83c.06-1.38-.11-2.76-.13-4.14s0-2.76,0-4.14,0-2.67,0-4,0-2.72,0-4.07,0-2.74,0-4.27a4.93,4.93,0,0,1,3.87,2.28,4.62,4.62,0,0,1,.57,2.64,40.89,40.89,0,0,1-.87,9c-.65,2.77-1.25,5.56-1.93,8.33A16.11,16.11,0,0,1,211.13,64.11Zm23-11.17c-.11.71-.09,1.43-.21,2.13-.22,1.42-1.17,2.47-1.84,3.67-.79,1.42-1.44,2.91-2.16,4.37-.43.87-.89,1.73-1.31,2.6-.59,1.23-1.16,2.47-1.87,4-.42-.56-.71-.88-.93-1.24-1.11-1.79-1.15-3.78-1.12-5.79,0-2.65,0-5.31,0-8a20.88,20.88,0,0,1,.41-3.34q.84-4.43,1.75-8.85c.3-1.45.69-2.88,1-4.3a12.77,12.77,0,0,1,6.78.77c0,1.05.11,2.16.12,3.28A69.46,69.46,0,0,1,234.09,52.94Zm6.6-6.21c-1.07-1.65-.51-3.66-1.69-5.08C241.29,43,241.78,44.36,240.69,46.73Z"/><path class="cls-2" d="M100.84,92.85c-.4-1.42-.78-2.84-1.16-4.27-.45-1.68-1-3.35-1.32-5A23.73,23.73,0,0,0,96.58,78c-.67-1.32-1.34-2.65-1.91-4a21.33,21.33,0,0,0-3.09-4.9c-.94-1.19-2.21-2.14-3.11-3.36-1-1.43-2.64-1.42-4-1.77a8.36,8.36,0,0,0-3,.19,6.31,6.31,0,0,0-4.16,2.39,26.23,26.23,0,0,0-2.37,4.29A14.56,14.56,0,0,0,73.41,77c0,2,.07,4.07.09,6.11a9.65,9.65,0,0,1-.21,1.41,41.19,41.19,0,0,0-5.87-8.33c-2.14-2.22-4.6-3.9-8-3.55-.81.09-1.64,0-2.46.07-1.56,0-3.78,1.48-4.08,2.82a24.9,24.9,0,0,0-.61,4.54c-.13,2.89-.09,5.78-.16,8.67,0,.55-.36,1.12-.26,1.63A14.8,14.8,0,0,1,52,93.6c-.07,3.82,0,7.65,0,11.47a9.72,9.72,0,0,1-.27,1.37c-.42-.75-.69-1.16-.88-1.6-.58-1.32-1.11-2.65-1.69-4-.77-1.73-1.67-3.41-2.35-5.18a46.35,46.35,0,0,1-2.66-7.18c-.36-1.67-.84-3.34-1.07-5s-.37-3.14-.61-4.69-.85-2-2.4-1.78c-.06.41-.13.84-.18,1.2l-1,.39c0,.48,0,.88,0,1.28.13,1.8-.17,3.63.67,5.37a5.63,5.63,0,0,1,.42,2.25c.1,3,.2,6.09.21,9.14q0,6.12-.1,12.26c0,1.22-.24,2.43-.37,3.68-.35,0-.59,0-.74-.06a10.66,10.66,0,0,1-3.88-3.4c-1.42-2.12-3-4.16-4.39-6.28a5.33,5.33,0,0,1-1-2.36c-.18-2.44-.24-4.9-.22-7.35a24.49,24.49,0,0,0-1.18-7.19,54.56,54.56,0,0,0-2.59-7.37,6.84,6.84,0,0,0-2.29-3.18,4.58,4.58,0,0,1-.58.22c-1.65.29-1.93.58-2,2.27,0,1.18-.05,2.36,0,3.54.09,2.23.12,4.48.38,6.69A28.47,28.47,0,0,0,22.35,93c.83,2.77,1.61,5.57,3.4,7.94a1.32,1.32,0,0,1,.2.7,53.19,53.19,0,0,1-2.43,14.12,68.35,68.35,0,0,1-6,13.55A26.7,26.7,0,0,0,16,132.69a3,3,0,0,0,.25,2.61,10.47,10.47,0,0,0,2.77-2.65,66.44,66.44,0,0,0,5.31-9.41,36.49,36.49,0,0,0,3.27-9.3c.36-2.12.85-4.21,1.3-6.32a8.33,8.33,0,0,1,.28-.89c2,2.59,3.64,5.18,5.9,7.32,1,1,2.41,1.26,3.52,2.08.23.17.7,0,1,0s.7-.1,1.05-.12A2.25,2.25,0,0,0,43,113.91c.11-.82.25-1.63.32-2.44.1-1.12.19-2.24.19-3.36,0-1.78-.08-3.57-.1-5.36,0-1.27,0-2.54,0-3.8a14.82,14.82,0,0,1,.25-1.52,10.71,10.71,0,0,1,1,1.43c1.16,2.72,2.27,5.47,3.43,8.19a18.53,18.53,0,0,0,1.15,2.15c.42.7,1,1.33,1.36,2a3,3,0,0,0,2.5,1.55c1.3.15,1.59-.08,2.09-1.26.62-1.45.16-2.91.19-4.36.07-3.08,0-6.16-.05-9.23,0-1,.13-1.9.14-2.85,0-1.73,0-3.45,0-5.18,0-.81.12-1.62.13-2.43,0-2.81,0-5.63.11-8.44.06-1.87.89-2.6,2.74-2.66.26,0,.51-.1.76-.1,1.71,0,3.26.15,4.63,1.53A43.79,43.79,0,0,1,68,83.23a34.49,34.49,0,0,1,2.38,4.45A30.56,30.56,0,0,1,72,91.14c1,2.75,1.83,5.54,2.7,8.31.31,1,.52,2,.79,2.94a27.84,27.84,0,0,0,1,3.52,1.66,1.66,0,0,0,2.1,1.12,1.94,1.94,0,0,0,1.52-1.89,12.57,12.57,0,0,0-.31-3.19,87.18,87.18,0,0,1-2.18-8.74,66.94,66.94,0,0,1-.44-9.81c0-1.82,0-3.64.06-5.46,0-.55,0-1.1,0-1.64a14.42,14.42,0,0,1,1.21-4.53A9.33,9.33,0,0,1,81.14,68a4.42,4.42,0,0,1,5.14.26C90,71.63,92.06,76,93.92,80.52A28,28,0,0,1,95.06,84c.65,2.41,1.24,4.84,1.83,7.26a11.45,11.45,0,0,1,.24,1.63c.13,1.37.13,2.75,1.4,3.7a2.38,2.38,0,0,0,2.57.21c.63-.5.71-1.2.31-2.22A17.87,17.87,0,0,1,100.84,92.85Zm-74.9,0a17.7,17.7,0,0,1-1.51-7A12.38,12.38,0,0,1,25.94,92.8Z"/><path class="cls-2" d="M154.07,46.46c.1.43.2.81.36,1.43,3.14-2,5.52-4.61,8.57-6.9l2.16,2.32a9.45,9.45,0,0,0,1.1-.19,13,13,0,0,0,1.37-.53c-.09-.58-.41-1.24-.21-1.64.69-1.36-.32-1.82-1.09-2.43-.46-.36-1-.62-1.46-1-1.06-.92-1-.93-2.13-.91h-1.58c-1.22,2.35-3.31,3.84-5.3,5.41-1.45,1.14-2.83,2.31-3.36,4.12C152.86,47.1,153.51,46.55,154.07,46.46Z"/></g></g></g></svg>