<svg xmlns="http://www.w3.org/2000/svg" viewBox="0 0 318.91 165.72"><defs><style>.cls-1{fill:#fff;opacity:0.2;}</style></defs><g id="Calque_2" data-name="Calque 2"><g id="Contours"><path class="cls-1" d="M313.71,71.25c-6.06-12.58-17.24-19.79-31.2-16.1a35.64,35.64,0,0,1-9.5,1.52h-.09c-.28-4.57-2.3-9.73-3.16-14-2.53-12.79-8.55-25.8-23.42-26.68-12.46-.74-19.7,9.9-24.15,20.25-9.33-2.76-19,2.06-27.11,7.53-2.73-5.06-5.18-10.2-10.79-12.81-8.66-4-18.49-3-27.78-1.14,1.05-7.2.83-14.84-3-20.94-4.84-7.67-16.16-11.72-24.15-6.49C122.2,7,120.33,16.83,119,24.62c-.71,4.12-1.07,8.38-2.2,12.42s-1.52,3.54-5.18,2.38c-12.07-3.85-25.91-8.28-38.76-6-3.32-6.31-6-12.77-11.26-17.93a4.53,4.53,0,0,0-4.88-1.14c-9.57-2.42-18.85,5.41-24.32,12.51s-10,15.53-14.76,23.31A159.48,159.48,0,0,0,4.06,76.33c-3.16,8.19-5.52,17.75-3,26.44,2.69,9.27,11.46,16.36,21.28,15.79,3.16-.19,9.38-3.2,11,.54,1.93,4.59.14,11.28-.47,16-1.31,10.2-1.34,24.62,10,29.49,12.59,5.43,21.48-9.85,24.36-19.81,3.09-10.69,3.31-21.82,3.8-32.87a101.4,101.4,0,0,0,21.16,8,140.69,140.69,0,0,0,29.56,3.7c9.68.19,20.47-.84,29.62-4.19,7.21-2.64,13.09-7.64,19.7-11.38,5.78,9.73,15.81,16.24,27.57,12.53,4.47-1.42,11.12-6.15,15.83-4.13,5,2.13,8.38,8.06,12.51,11.39,5.84,4.7,13,6,20.31,6.94,7.75,1,15.68,1.81,23.5,2.06,10.33.33,21.38-1.18,30.35-6.64C320.58,118.32,322.92,90.41,313.71,71.25ZM273,59.61s0-.17,0-.38C273.15,59.41,273.16,59.55,273,59.61Z"/></g></g></svg>