<svg xmlns="http://www.w3.org/2000/svg" viewBox="0 0 306.5 164.6"><defs><style>.cls-1,.cls-2{fill:#fe5f58;}.cls-1{opacity:0.2;}</style></defs><g id="Calque_2" data-name="Calque 2"><g id="Phrase_2" data-name="Phrase 2"><g id="P2_m1_2"><path class="cls-1" d="M299.17,43.56c-7.28-9.39-18.7-15.28-29.88-18.72-11.91-3.68-24-8.76-36.35-10.52-8.12-1.15-13.46,1.37-20.81,4.2-6.33,2.44-8.62.29-14.3-2.24-13.34-5.94-27.67-5.8-40.24,1C152,11.51,145.14,7.25,136.86,6.46c-8-.77-15.64,1.8-22.74,5.26C93.82-10,61.75,2.15,41.57,18.82A84.48,84.48,0,0,0,19.05,48.37a5.05,5.05,0,0,0-3.49,2.56C3.44,71.22-6.25,98.77,4.93,121.53c5.54,11.27,18.21,23.11,31.66,21.29A21.13,21.13,0,0,0,52,132.6a35.81,35.81,0,0,0,2.83-7.6c4,7.44,8.91,14.05,17.87,16.72,12.22,3.64,23.71-.54,33.77-7.09,3.2,6.05,7,11.43,14.43,13.24a27,27,0,0,0,15-.82c4.51-1.49,9.56-4.93,14.46-4.64,3.78.22,6.84,3.19,9.92,5a24.64,24.64,0,0,0,13.35,3.62c5.7-.11,12.66-.87,18.66-3.13a19.59,19.59,0,0,0,7,9.7c5.27,3.79,11.8,4,18,2.78,8.72-1.75,17.13-6.11,24.75-11.29,1.1,4.9,3.29,9.44,7.48,12.43,5.34,3.82,12,3.74,18,1.4,15.94-6.26,25.66-21.88,29.75-37.74a399.82,399.82,0,0,0,8.34-44.1C307.28,68.28,307.52,54.31,299.17,43.56Z"/><path class="cls-2" d="M292.57,77.73c0-1.31-.2-2.61-.16-3.91,0-1,.4-2,.43-3a10.15,10.15,0,0,0-.41-2.27c-.08-.39-.14-.78-.22-1.17a4.11,4.11,0,0,1-.12-.61c0-.8,0-1.59,0-2.39,0-.45.4-1,.26-1.37a4.79,4.79,0,0,1-.17-3.1c.07-.32-.19-.73-.34-1.08-.37-.87-.87-1.72-.21-2.75l-1-1c.63-1.14-.68-1.49-.85-2.34.43-.32.75-.7-.07-1.15-.18-.1-.23-.45-.32-.69-.19-.52-.36-1-.54-1.56s-.62-1.24-.44-1.5c.44-.6.05-.82-.24-1.1a2,2,0,0,1-.75-1c-.68-2.21-4.35-4.51-6.72-4.31a6.31,6.31,0,0,1-2.63,0,29.26,29.26,0,0,0-4.76-.94,8.88,8.88,0,0,0-2,.25c-.62-.08-1.46-.22-2.3-.3s-1.71-.1-2.56-.1a3.57,3.57,0,0,0-.22.83c-.38-.1-.84-.24-1.3-.33a1.51,1.51,0,0,0-.54.1l.13.31a14.85,14.85,0,0,0-2,.37c-1.28.41-2.54.89-3.81,1.37-.53.21-1,.46-1.57.7l-.18-.27c0,.26-.07.52-.08.63a6.06,6.06,0,0,0-1.6.34A10.57,10.57,0,0,0,254,45.49a5.49,5.49,0,0,1-1,.64c-.81.4-1.64.77-2.62,1.22l1.23.82-2.26.79.17.08-3.35,3.24.42.1c-.48.58-.94,1.06-1.32,1.61-.26.38-.37.86-.63,1.25s-1.06,1-1,1.33c.15.64-.27.55-.5.78-.64.65-1.23,1.36-2,2.17l.63.33-2.64,3.29c-.8-1.38.5-3.1-.77-4.4.17-.24.53-.66.49-.7-.94-1-.16-2,0-3-.91-.52-1.27-1.12-.25-1.75a6.18,6.18,0,0,1-.72-1.43c-.24-1.08.17-2.33-1-3.15-.08-.06,0-.28-.06-.43-.13-1-.19-2-.39-2.94-.11-.5-.66-1-.62-1.43.09-.8-.42-1.13-.81-1.62s-1-1-.89-1.35c.26-.87-.27-.79-.74-.93s-.63-.3-1-.43a3.69,3.69,0,0,0-1.2-.43c-1.45,0-2.92,0-4.38,0a3.78,3.78,0,0,1-2.64-.73,3.15,3.15,0,0,0-1.68-.34c-1.69,0-3.38,0-5.07,0-.18.81-1.25,1.2-2.5.89-.38,1.1-1.39,1.37-2.32,1.78a4.81,4.81,0,0,0-1,.7c-.21.17-.34.43-.56.56-.46.29-1,.46-1.43.78a8.67,8.67,0,0,0-2.62,2.73c-.34.62-1.3,1.16-1.91,1.84s-1.59,1.46-2.51,2.28a4.5,4.5,0,0,1-1.54-.68c-.82-.79-1.38-1.86-2.21-2.62a24.84,24.84,0,0,0-3.37-2.49c-1.79-1.13-3.67-2.11-5.44-3.27a8.66,8.66,0,0,0-5.94-1.66c-.29,0-.61-.23-.93-.29-.7-.13-1.41-.25-2.11-.31-.25,0-.54.31-.76.26-.94-.2-1.85-.52-2.79-.72s-2.17-.37-3.26-.56c-.24,0-.59-.24-.7-.14-1,.9-2.05.33-2.89,0l-4,2a12,12,0,0,1-3.41,3.64l.36.17c-.12,1.59-2.14,2.16-1.79,4.05-.41.55-1.73.66-1.27,1.54a13.79,13.79,0,0,1-1.09,1.92,22.12,22.12,0,0,1-1.82,1.8l.47.63c-.48.15-1,.16-1.22.42-.68.8-1.24,1.71-1.85,2.57l-1.33,1.92.63.26-1.53.67,1.25.39-1.6,1.08.21.27c-.51,1-.95,1.79-1.53,2.9-.9.26-1.3,1.1-.59,1.8l-.56.91-.36-.06c-.54,1.12-1.06,2.16-1.55,3.21s-1.37,1.77-.44,3.07a2,2,0,0,0-1.59,2.8c0,.08-.25.24-.38.37-.23-.54-.5-1.06-.68-1.61a4,4,0,0,1-.06-.92c0-.76-.15-1.52-.13-2.28,0-1.08.16-2.16.18-3.24,0-.45-.38-1-.2-1.33.61-1,0-1.79-.22-2.64l.61-.26a6.5,6.5,0,0,1-.32-1.4c0-.9.06-1.79.11-2.68,0-.37.08-.75.13-1.12a8.66,8.66,0,0,0-.3-1.34,20.38,20.38,0,0,1-.16-2.07c0-.6.19-1.35-.1-1.75a1.27,1.27,0,0,1,.08-1.82c0-2.06-1.26-3.75-1-6-.05-.31-.15-1-.25-1.6-.05-.34,0-.85-.18-1-1.24-1-.8-2.44-1.18-3.65-.19-.61,0-1.33-.19-1.94s-.64-.8-1-1.2l.17-.15-.46-.08c-.24-.82-.24-1.78-.62-2-1-.49-.35.76-.67,1l-1.61-1.46a2.39,2.39,0,0,0,.8.15,7.53,7.53,0,0,0,1.48-.4c.08,0,.08-.52,0-.71a16.55,16.55,0,0,0-1.49-2.25c-.69-.83-1-2.21-2.64-2l.93-.76c-.78-.2-1.47-.83-1.79.2-.09.3-.36,1.59,1,1.1.16-.05.63.53.83.89a5.25,5.25,0,0,0,2.08,2.48s0,.11,0,.15l-.83.28-.24.38a25,25,0,0,1-2.38-1.17c-.6-.36-1.51-1-1.51-1.44,0-1.31-.92-1.05-1.38-.89-.8.3-1.11-.14-1.36-.62a6.65,6.65,0,0,1-.39-1.55l-2.21-.12.94-1c-.48,0-.69,0-.9,0s-.46.08-.71.12c.37,1.21.07,1.73-1,2.07-.87.28-2.14.43-2.48,1A2.13,2.13,0,0,1,122.23,30a1,1,0,0,0-.43.09l-5.08,2.38c-1,.45-2,.6-2.5,1.86a2.17,2.17,0,0,1-1.85,1.54l-.5-.54c.7-.89,1.43-1.76,2.07-2.68a3.3,3.3,0,0,0,.39-1c1.81-.16,3.67-2.59,3.14-3.52l-3.12,3.45c0-.11.07-.22.11-.34-.47.08-.45.31-.7.73A24,24,0,0,1,112,34.33c-.38.45-.84.84-1.27,1.27l-.39-.52c-.08.23-.21.41-.16.49a1.05,1.05,0,0,1-.67,1.63c-1.11.07-1.16.89-1.3,1.52-.18.87-.51,1.4-1.63,1.31l.54.62-1.73,1.86c-.58.33.15,1.66-1.49,1.5-.07.45-.15,1-.22,1.54l-.13-.15-2.15,2.5,1,.5c-.91-.17-1.41.38-1.88,1-.1.14-.4.14-.6.21a3.19,3.19,0,0,1,0-.62,5,5,0,0,0,.22-1,2.86,2.86,0,0,0-.34-.89l-.19.1V42.81l.06,0-.26-1.72c-1-.43-.65-1.13.16-1.89l-.7-.3a7.21,7.21,0,0,0,0-1.48c-.46-1.91-1-3.8-1.4-5.73-.12-.69-.7-1.09-.71-1.84a18.42,18.42,0,0,0-.52-3.07l-1.08-.58.38-.78c-1-.4-.41-1.24-.45-1.74L93.2,22.39c.66-.51.94-.87,0-1.07-.27-.06-.72-.22-.74-.38-.19-1.46-1.26-1.28-2.24-1.29a.77.77,0,0,0-.83-1c-1.15,0-2-1.18-3.46-.4a2.79,2.79,0,0,1-3.38-.57c-.08-.11-.27-.24-.36-.21-1,.36-1.63-.55-2.47-.57a4.45,4.45,0,0,1-1.22.3,4.14,4.14,0,0,1-2.62-.09c-.37-.16-1.25.2-.79,1.17l.87-.53c.1.2.18.38.27.57.63-.17,1.43-.65,1.79-.43,1,.64,1.31-.44,2-.64a.88.88,0,0,1,0,.23c-.46,1.39-.55,1.44-2,1.22-.17,0-.39.15-.54.29s-.5.52-.58.6c-.48-.27-.94-.72-1.22-.63a19.54,19.54,0,0,0-2.31,1.11,10.34,10.34,0,0,1-1.23.39l0-.26-2.25,2.31-.2-.4c-.54.08-1.2,0-1.59.27a12.72,12.72,0,0,1-4.86,2.07,4,4,0,0,0-1.46.92c-.49.41-.83.87-1.62.91-1.17.05-3.22,1.85-4.31,3A20.25,20.25,0,0,1,54,30.86a1.25,1.25,0,0,1-.79.3c-.52,0-.89-.14-.88.65,0,.24-.73.49-1.12.73L51,32.29a10.19,10.19,0,0,0,1-1.36c.39-.75,1.77-.92,1.16-2.23,1.82.45,1.25-1.45,2.09-2,.18-.11,0-.76,0-1.16l-.19,0-.74,1.78-.91-.61.35,1.12c-1.39.08-1.19,2.3-2.82,2,.12.8-.93,2.27-2.43,3.45l-.09-.26L44.9,38.86l-.23-.25-1.83,2.85-1.78,2.83-.3-.61c-1.2,2-1.59,4.37-3.84,5.56l.34.82L37,50l-.66,1.16c-.16.28-.27.72-.5.79-.48.17-1,.16-.31.75l-.84.52-.53.91.45.36a10.45,10.45,0,0,0-2.61,4,3.63,3.63,0,0,1-1,1.36c-.49.44-.55.37-.24.81-.5.5-1.33.94-1.4,1.48a3.29,3.29,0,0,1-1,1.8.49.49,0,0,0-.1.25c-.05.89-.35,1.5-1.55,1.19l.44,1.12a5.9,5.9,0,0,0-.83.91c-.56,1-1.07,2.08-1.63,3.11a.91.91,0,0,1-.55.39c-.57.11-1.31.07-.36.84.06,0-.18.7-.37.76-1.53.47-1.16,2.13-2.29,3l.91-.09a1.81,1.81,0,0,1-.79.59,2,2,0,0,0-1.38,1.59,6.22,6.22,0,0,1-.52,1.46c-.26.57-.76,1.13-.77,1.7s-.34.77-.54,1.12c-.29.52-.9,1-.92,1.49-.06,1.46-1.27,2.36-1.53,3.73a12,12,0,0,1-1.35,2.91c-.32.63-.72,1.22-1.08,1.83a1.16,1.16,0,0,0-.13.37c-.08.52,0,1.21-.26,1.55-1,1.11-.65,2.51-1,3.75a14.9,14.9,0,0,0-.07,3.14,12.1,12.1,0,0,0-.1,1.89c.19,1.31,1.09,2.41,1,3.84a6.15,6.15,0,0,0,.71,2,.66.66,0,0,0-.19,1.22,10,10,0,0,0,2.19.85c.17-.75.3-1.37.44-2l-.61-.42c.17-.24.42-.44.43-.64,0-1.08-.06-2.16,0-3.24a17,17,0,0,1,.47-2.24c.06-.35.14-.79.22-1.29-.72-.57-.23-1.83.87-2.3.22.27.42.46.57.69s.32.53.25.62a3.54,3.54,0,0,0-.36,2.52c0,1.41.23,2.82.31,4.23a5.2,5.2,0,0,0,1.32,2.61c1-1.44.89-3.12.85-4.56L22.64,109c-.12.32-.43.83-.33.93.32.31.9.75,1.17.64s.63-.77,1.07-1.37l-1.37-.11.93-.93-.67-.37c.17-.2.59-.45.63-.76.22-1.65.35-3.3.48-5,0-.39-.2-.85-.07-1.18a16,16,0,0,1,1.08-2.09l-.35-.4c.32-.31.65-.48.75-.75a6,6,0,0,0,.21-1.27c.63.18.55,0,.66-.78a3.21,3.21,0,0,1,1.73-2.73c.23-.1.29-.6.42-.92a8.33,8.33,0,0,0-.94-.37,6.94,6.94,0,0,0-1-.07c.93-.48,2.25,0,2.77-1.38l-1.26-.64c.69-.31,1.12-.48,1.51-.69s.76-.47,1.14-.71l-.65-1,1.38.21-.72-1.95c1,.51,1.13.4,1.45-.76.09-.33.49-.56.66-.88.32-.61.58-1.25.84-1.89a3.26,3.26,0,0,0-.55-.41,1.71,1.71,0,0,0,2-1.67c0-1,.63-.75,1-1,.82-1.32.73-3.19,2.53-3.91-.54-.75-.2-1.35,1-1.69-.48-.92.33-1.28.76-1.82.15-.19.12-.52.18-.78.05-.64,1.26-.88.34-1.88,1.26.13,1.89-.12,1.75-.75-.18-.81.19-1,.82-1.1a1.35,1.35,0,0,0,.32-.16l-.62-.77L45,64.84c.2-1.18-.67-1.22-1.51-1.17-.17,0-.3.5-.52.9l-.75-.15c.31-.59.6-1.19.94-1.76a6,6,0,0,1,.7-.82l.19.14c-.09.33-.18.65-.22.81a2.39,2.39,0,0,0,.65.45c.29.08.8.17.87,0,.41-.68,1.92-.74,1.24-2.06,0,0,0-.11.09-.15L49,58.83l-.5-.33,1.72-1.61L50,56.42c.39-.19.85-.26,1-.52.65-1.09,1.12-2.3,1.84-3.34s1.81-2.23,2.73-3.34a3.13,3.13,0,0,1,.54-1.08c.38-.6,1.44-.86.79-2L58.12,46l-.2-.25,1.37-1.26c.1-.1.33-.17.33-.25,0-.83.86-1,1.21-1.54l1.29-2a8.14,8.14,0,0,0,.85-.55c.15-.11.19-.41.33-.46a4.94,4.94,0,0,1,1-.13l-.32-.89c.91-.18,2-.13,2.18-1.41a.47.47,0,0,1,.16-.28l2.14-1.85c.64-.55,2,.18,2.18-1.17,0,0,.15,0,.2,0,.63-.31,1.64,0,1.79-1.12,0,0,.17-.11.27-.11,1.69-.16,1.67-.18,2.65-1.29.65-.75,1.49-.47,2.29-.28a1.9,1.9,0,0,0,.91.05c.76-.22,1.48-.59,2.25-.75a1.71,1.71,0,0,1,1.37.18,14.65,14.65,0,0,1,1.51,2c.53.73,1.08,1.45,1.62,2.17v1.52c.17,0,.59.08.59.14,0,.81,1,1.41.53,2.34a1.05,1.05,0,0,0,0,.74,11.34,11.34,0,0,1,.73,2.86c.15,1.22-.54,2.57.38,3.73a.69.69,0,0,1-.26,1.13,1.48,1.48,0,0,0,.17.82c.08.13.43.09.65.13a2.1,2.1,0,0,0-.33.67c-.17,1.25,1,2.56-.15,3.79-.06.06.08.32.14.49a10.42,10.42,0,0,1,.64,2.06c.09.86-.18,1.75-.07,2.6a4.69,4.69,0,0,1-.36,1.82,9.8,9.8,0,0,0,0,2.36,10.69,10.69,0,0,0,.1,2.2c.19.82.28.87-.19,1.39.18.46.59,1,.48,1.3a31.68,31.68,0,0,1-1.32,3.2c0,.07,0,.16-.09.19-.72.49-1.75.73-1.5,2-1.46.75-.86,2.94-2.49,3.59-.11,0-.22.44-.16.49.46.41,0,.56-.18.81a10.24,10.24,0,0,0-.75,1L81.75,78a9.91,9.91,0,0,1-.84,2.84c-.86,1.29-2.08,2.35-2,4.09,0,.07-.19.13-.24.22-.72,1.56-1.47,3.1-2.15,4.69-.25.6-.26,1.31-.5,1.92a4.53,4.53,0,0,1-.82,1l.43.49-.65.42c0,.51.14,1,0,1.23-.65,1,.1,2-.21,2.9,0,.17.34.48.53.72a3.28,3.28,0,0,0-.21,1.49,13.42,13.42,0,0,1,.09,1.79c0,.6-.51,1.25-.38,1.78.32,1.39.07,2.84.6,4.23a20.38,20.38,0,0,1,.67,3.64l1.25.1a3.31,3.31,0,0,1-1,.58c-.14.06-.34.28-.31.35.27.67.58,1.33.89,2l3.72-.62a2.38,2.38,0,0,1,.88-2.87l.7,1.64c1.24-.28,2.32-1.26,3.62-.17l-.66.42c.32.23.74.39.75.58a4.55,4.55,0,0,1-.19,1.19,3.56,3.56,0,0,0,1,.3,13,13,0,0,0,1.87-.3s-.09-.43,0-.62c.25-.71.37-1.79.87-2,.87-.42.5-.88.43-1.4h.75c.31-.7.55-1.19.75-1.7.13-.32.21-.65.31-1h0c.19-.14.56-.3.54-.4-.07-.52-.11-.83.51-1.16a1.91,1.91,0,0,0,.64-1.58c-.14-1.19-.06-2.14.81-2.41.44-1.22.54-2.4,1.18-3s.19-.91,0-1.34l1.38-.39-1.12-.46c1.61-.71,1.14-2.81,2.53-3.73l-1.2-.61,1.62-.3-1.73-1c.54-.2,1.23-.25,1.47-.6.43-.63.8-1.46.16-1.91a10.11,10.11,0,0,0,.69-1.53c.3-1.15.53-2.33.84-3.71-.65-.45.18-1,.5-1.62l-.85-.42.86-.35a14.81,14.81,0,0,1-.25-1.59c0-.24.26-.52.22-.75a4.61,4.61,0,0,1,1.1-4.25l-.29-.44c.38-.44.86-.75.86-1.06,0-.84.38-1.2.8-1.21l2.72-4.45-.34-.47c.5-.29,1.44-.59,1.43-.87,0-.91.83-.63,1.13-1.11l-.39-.55c1.07.11,1.27-.2,1-1.06.84-1.05,1.57-2,2.4-3l-1.43-.52c1.25,0,2.28,0,2-1.46,1.21.49.82-.37.77-.94.86.18,1.23.27,1.15-.91-.06-.84,1-1.75,1.6-2.62.29-.43.61-.85,1-1.35.44,0,2.05-1.15,1.91-1.77-.33-1.48.82-1.23,1.36-1.44.26-.77.47-1.4.69-2.07h1.2c-.2-.32-.35-.54-.47-.74.23-.12.71-.25.7-.36-.06-1.78,1.84-1.93,2.55-3.08.4-.64,1.64-1,1.73-1.56.17-1.15,1.05-1.28,1.69-1.74,1.22-.87,1.5.26,1.94,1,.07.12.29.14.37.25a6.71,6.71,0,0,1,.51.86c.15.31.28.63.49,1.13a2.31,2.31,0,0,0,1,2.66l-.61.25a11,11,0,0,0,.83,1.73c.39.55.59.91-.09,1-.16,1.58.59,3,.45,4.59a16.72,16.72,0,0,0,.38,3.18,6.18,6.18,0,0,1-.13,1.28l-.39,0c.24.43.49.86.68,1.21a23.81,23.81,0,0,0-.45,2.94c0,.91.24,1.83.28,2.74a4.84,4.84,0,0,1-.2,2c-.34.83,0,1.07.72,1.24-.16.5-.19,1.14-.52,1.48-.51.5-.18.9-.08,1.34,0,.19.27.36.27.53-.05.86-.14,1.72-.24,2.57-.08.64-.48,1.43-.24,1.87.73,1.33-.62,2.53-.06,3.79,0,0-.08.12-.14.16-.89.6-.26,1.49-.42,2.22-.1.45-.08,1.1-.36,1.29-.62.42-.55,1-.68,1.57-.2.81-.46,1.61-.74,2.56a4.25,4.25,0,0,1,.13,2.13c-.5,1.35-1,2.7-1.4,4.07s-.44,2.58-1.55,3.42a1,1,0,0,1-.28,1.47,1.41,1.41,0,0,0-.27,2,8.34,8.34,0,0,0-1.24,1.79c-.28.74-1.15,1.47-.54,2.1a23,23,0,0,0-1.39,4.51c-.06.55-.64.77-.47,1.08.54,1-.26,1.42-.6,2.08a1.08,1.08,0,0,0,.53,1.59,8.51,8.51,0,0,0,1.44.39c-.13.58-.25,1.16-.38,1.71l1.06-.1c-1.44.14-1,1.64-1.62,2.27-.06.06.23.47.44.86.19-.5.33-.76.4-1a5.87,5.87,0,0,0,.07-.86c1.3.68,1.53.62,2.57-.7l-.73-.41,1.68-.36L127,115c1.1-1,.77-2.42,1.16-3.6,0,0,.05-.06.12-.12l1.31.19c-.24,1.32-.47,2.54-.69,3.73a2.11,2.11,0,0,0,2.43-.34c1.07-1,1.76-1,2.62-.1-.8.36-1.1.83-.36,1.56a3.12,3.12,0,0,1,.35.56l-1.16.75c1.07.42,1.95,1,2.41-.48l-.76-.27,1.68-.54c-1.07-.67-.11-1.14,0-1.7a8.8,8.8,0,0,0,.1-1c.07-1.33,1.67-2.07,1.44-3.72h-1c.66-.83,1.33-1.66,2-2.49a.27.27,0,0,0,0-.2c-.36-1.23.58-1.92,1.09-2.88-.59-.76.11-1.11.87-1.5l-.84-.4c.3-.41.61-.83,1-1.29l-1.62-.74.14-.29,1.7.55c-.55-1.21,1-1.92.29-3,.84-.83.25-2.64,2.35-3.15-1.18,1.33-.58,2.36-.23,3.39a1.44,1.44,0,0,0-.27,1c.1.64.65,1.22,0,1.91-.16.18-.17.8,0,.91,1.14.88.5,1.4-.42,1.9.6,1.78,1.18,3.5,1.77,5.21h-1.13c1.14.39-.34.66,0,1l1.74-.52c.16.53.21,1.29.45,1.36,1.29.33,1.22,1.62,1.86,2.38a2.27,2.27,0,0,0,.49.44c1.13.79,2.26,1.58,3.41,2.35.74.5,1.46,1.29,2.25,1.37,1.66.19,2.51,1.56,3.83,2.21a17.44,17.44,0,0,1,2.89,2.17l1.11-.55c-.22.35-.44.7-.56.91l1.13,1.46,2-.19v.21l-.54.38.05.39c1,0,2,0,3.07,0a10.15,10.15,0,0,1,4.32.57,11.64,11.64,0,0,0,2.68.44,2.32,2.32,0,0,1,1-.21c.19,0,.39.23.57.23,1.62-.06,3.23-.16,4.85-.21a9.52,9.52,0,0,1,1.14.1l5.69-2.63-1.84-1.26-.18.26.83.71-2.88.35.54,1-1.73-.49.23.52c-.51.15-.95.3-1.41.42a1.83,1.83,0,0,1-.52,0c-1.15-.11-2.31-.24-3.47-.3-.16,0-.34.35-.54.56L172,124l0-.15,1.59-.25c-.28-.3-.48-.5-.63-.67l3.07-1.21-.24-.8.24-.16h0l1,1,.29-.07c-.09-.37-.18-.75-.28-1.13a1.29,1.29,0,0,0,.44,0c.53-.12,1,.28,1.63,0a5.7,5.7,0,0,1,2.43-.08l5.34-2.51c0-.14.06-.46.11-.86l1.21,1c0-1.23,0-1.23,1.06-1.43-.13-.6-.26-1.21-.4-1.81l.29,0,.46,1.43c.62-.93.78-2.12,2-1.57.12.66.23,1.3.33,1.9l-1.82-.41c.92,1,.7,1.81-.36,2.12-.56.15-1.12.29-1.67.48-.09,0-.09.32-.13.49-.45,0-.89-.15-.94.57,0,.21-.34.49-.58.58s-.49-.09-.74-.15c-.06.14-.12.27-.17.41l2.13,2,.33-.32-1.25-1.66,2.15,1c-.13-.74-.21-1.18-.3-1.63l.7.76c.23-.29.56-.51.53-.68-.13-.86.27-.78.94-.81s1.4-.39.89-1.21a16.6,16.6,0,0,0,1.48-1.17c.12-.11.13-.59.05-.62-1-.51-.53-1.14-.1-2,.26.78.43,1.33.61,1.87l.33-.1.69-2.39.79.41v-1c.2,0,.64.06.66,0,.27-.94,1.3-1.65.85-2.8,1-.08,2-1,1.62-1.54,1.14-.37.49-1.29.54-2l1.08-.11v-.38h-2.52v-.27l.7-.6,1.24.33.07-.23-.59-.72.14-.14,1.05.78c.22-.32.39-.58.59-.83s.46-.5.7-.75c-.32-.17-.65-.33-1-.51s-.52-.34-.79-.51c.17-.2.35-.38.5-.59s.31-.47.48-.74a1.94,1.94,0,0,1,.65,1.38c.23-.25.55-.46.66-.75.27-.69.39-1.42.65-2.11s.9-1.48.91-2.22a4.81,4.81,0,0,1,.81-2.59c.24-.4-.06-1.12-.12-1.75,1.37-.1.6-1.88,1.42-2.5l-.39-.93.34.12c.25-.25.75-.58.7-.75a3,3,0,0,1,.8-3.14l-1.11-.66a6.79,6.79,0,0,0,1.32-1.78,6.8,6.8,0,0,0,.12-2.66c-.1-.67.42-1.08.37-1.69a16.85,16.85,0,0,1,0-2.46c.1-1.32.33-2.63.43-3.94.07-.82,0-1.65,0-2.47s.21-1.37.29-2.06-.07-1.38.23-1.87A17.8,17.8,0,0,1,211,64a11.37,11.37,0,0,1,1.33-1.27,3.14,3.14,0,0,1,.81-.35l-.54-.65,1.18-.94.47.21a11.61,11.61,0,0,0,1.3-2.2c.41-1.27,1.66-.67,2.4-1.3l-.4-.63,1.22-.9-.36-.72,1.48.34c.37-.6.91-1.56.95-1.54,1.18.59,1.4-.46,2-1.27l.57,1.53,1.22-1.11.4.75c-.11.93-1.62.64-1.07,1.87l.67-.06c.12,1-.1,2.28.42,2.83.94,1,.51,2.19,1,3.22a7.08,7.08,0,0,1,.15,2.62,6.49,6.49,0,0,0,0,1.25c.11.44.63,1.14.52,1.24-1.42,1.28.75,3-.62,4.28a3.32,3.32,0,0,1,.32,2.85,10.4,10.4,0,0,0,0,3.16c0,1.55-.07,3.11-.06,4.67,0,.42.24.85.24,1.28,0,.87.48,1.91-.65,2.45.19,1,.37,1.93.52,2.69-.32.42-.77.74-.77,1.07a12.52,12.52,0,0,0,.27,2.14c-.16.55-.23.88-.35,1.18s-.34.67-.51,1a13.78,13.78,0,0,1,.3,3.07c0,.06-.15.11-.21.17a2.67,2.67,0,0,0-.56,2.64L223,101.5l.56.28c-.26,1-.49,1.91-.73,2.82,0,0-.15,0-.2.07-.8.55-.6,1.28-.34,2.1l-.86-.28-.06.88c-.09,1.16-.15,2.33-.28,3.49a1,1,0,0,1-.51.67c-.65.18-.61.57-.52,1.09a14.57,14.57,0,0,1,.12,1.49c-.29.29-.83.73-.78.81.53.9.17,1.7,0,2.62a28.25,28.25,0,0,0,.07,4.86c.05,1.37.12,2.75.17,4.13a.42.42,0,0,1-.06.3c-1.14,1.25.15,2.49.14,3.72l.56-.06c-.18.31-.39.5-.39.7s.21.41.33.62c-.31.56-.63,1.12-1,1.83a5.5,5.5,0,0,0,1.51.25c.15,0,.36-.61.33-.93a6.2,6.2,0,0,0-.4-1.36c.25-.58.5-1.17.75-1.73h-.76l2.07-1.48.92.5v-2c.57,0,1.26-.32,1.61-.09,1,.69,1.66-.31,2.49-.36.17,0,.41-.13.48-.06a.77.77,0,0,1,.19.53c-.07,1.14-.57,2.32.44,3.32l-.46.09a6.89,6.89,0,0,1,.25,1.25,10.53,10.53,0,0,1-.19,2.18c-.17.71.22,1,.73,1.06a22,22,0,0,0,2.37.18,7,7,0,0,1-.26-1.84,23.51,23.51,0,0,1,.87-3.8c.22-.66.3-1.12-.2-1.65-.14-.14-.11-.46-.15-.64,1.58-.16.86-1.81,1.85-2.36l-.77-.38c.44-1.79.85-3.49,1.28-5.25l-.93-.45,1.26-.3c-.43-1.12-.65-2.19.26-3.2.14-.15.08-.51.05-.77-.09-.79.34-1.49.2-2.36s.52-1.83.8-2.75c.12-.41.13-.86.26-1.26.23-.73-.11-1.56.52-2.22a2.3,2.3,0,0,0,.37-1c.1-.43.13-.87.24-1.3a8.93,8.93,0,0,0,.43-1.26,9.67,9.67,0,0,1,.22-2.62c.41-.91,1.34-1.6.89-2.79,0,0,.17-.11.26-.18.66-.48.94-1,.43-1.51.37-.69,1-1.38.9-1.8-.37-1,.44-.88.65-1,.28-.93.51-1.67.74-2.4h.68c-.78-1.06-.11-1.44.74-1.78q-.48-1.12-.9-2.07l1.5.44-.45-1.15c.47-.61.88-1.16,1.37-1.81l-1.09-.09c-.09-.35-.17-.66-.29-1.18.63.9,1.5,1.2,1.78.74.47-.79.87-1.62,1.33-2.49l-1.68-.84.51-.58,1.36,1.21.4-.16c-.87-1,0-1.26.62-1.58l-.15-.36-1.9.25c0-.29.05-.63.07-1l1.26.25.08-.25-.71-.59.49-.46.72,1.09.31-.09V76l.72.41c.83-1.24,1.61-2.4,2.53-3.79a1.89,1.89,0,0,1,.16-.55,7.1,7.1,0,0,1,.55-.8,10.59,10.59,0,0,1,1.52-2.34c.85-.76,1.25-1.46.76-2.53l0,0h0c-.31-.56-.61-1.12-.92-1.67l.46.09.64-.63,1.81,1c.14-.57.26-1,.39-1.58,1.05.84,1.18-.24,1.58-.66s.48-1.55,1.6-1.26a1.87,1.87,0,0,0,.3-.8,1.9,1.9,0,0,0-.26-.69h0l0,0,.68-.5.55.66c.33-.42.49-.83.77-1a14.15,14.15,0,0,1,2-.58l-.42-.86c1.43,0,2.16-.49,2.48-1.56h0l1.32,1c-.1-.67-.15-1-.2-1.28h1.62c-.05-.39-.09-.72-.13-1,2.33.49,4.39-.62,6.73-.74l-.92.62,1.45.47.38-.34-1-.17L276,53.83a7.56,7.56,0,0,0,.6,1.62c.64,1,.69,1.72-.63,1.94.18.58.33,1.07.49,1.56l.27.06.41-1.69,1.68,3.28-1.35.79v1.7l.8-.67c.8.63,0,.94-.5,1.42h1.41l0,.16-.69.31.2,2.41c.49,0,.8.65.42,1.37-.09.16.06.45.1.68a2.24,2.24,0,0,1,.07.44c0,1-.39,2.24.08,2.86,1.17,1.54-.08,3.19.58,4.69a5,5,0,0,1,.06,1.74l.37.08-.91.44c.38.72.93,1.33.18,2.14-.21.23,0,.83,0,1.26a6,6,0,0,1-.19,1c-.06.23-.26.45-.24.66.11.85.24,1.71.42,2.55a3.19,3.19,0,0,1-.82,2.59,4.82,4.82,0,0,1-.27,1.22,2.66,2.66,0,0,0-.1.49,7.87,7.87,0,0,1-.37,2.57,5.19,5.19,0,0,0-.65,3c0,.32-.29.66-.43,1a3.88,3.88,0,0,0-.33.88,8,8,0,0,1-.13,1.12,12.1,12.1,0,0,1-.64,1.1c-.08.19-.84,3.32-.89,3.49-.18.66-.34,1.32-.5,2-.28,1.15-.55,2.31-.85,3.45,0,.13-.29.2-.43.29l.28.08c-.13.93.07,2.23-.47,2.71-1.09,1-.72,2.24-1.12,3.31a13.29,13.29,0,0,0-.35,3.31l-.79.39a3,3,0,0,1,.21,2.7,4.45,4.45,0,0,0-.53,2.89c.07.38-.44.87-.67,1.3a5.85,5.85,0,0,1,.25,1.57c-.12,1.46-1.42,2.75-.61,4.36,0,.05-.11.16-.13.25a4.87,4.87,0,0,0-.24,1.17,11.84,11.84,0,0,1,.1,2.71c-.14.61-.4,1.09-.06,1.7.09.18.08.6,0,.69a1.78,1.78,0,0,1-.81.14c-.43,0-.85.05-1.36.08a3.78,3.78,0,0,0,2.5,2.45v3.1l1.36-.4c-1.05-1.47-1-2-.17-2.91.32-.39.6-.81,1-1.4h1a1.12,1.12,0,0,1,1.62-1,1.36,1.36,0,0,0,.8,0c.82-.21,1.62-.48,2.42-.72l.51,0,.95.58-.19.27-.84-.2c-.08.75.36,1.65-1.28,1.76.76.76,1.32,1.3,1.62,1.61-.16.68-.5,1.29-.36,1.74s.43.51.2.73a10.7,10.7,0,0,1-1.3,1c.24.17.72.33.86.64.4.89.81,1,1.42.35l.89.49,1.14-.87-.31-.07c.09-.42.19-.84.31-1.38a2.11,2.11,0,0,1,.2-3.08c.1-.54.18-.88.23-1.22a1.12,1.12,0,0,0,0-.48,5.18,5.18,0,0,1,0-3.41c.29-.85.89-2,.55-2.57-.93-1.46.07-2.54.33-3.75.15-.74-.13-1.61.61-2.25.17-.15,0-.72-.06-1.33l-.62-.55.87.62c.2-.65.67-1.36.55-2a6.48,6.48,0,0,1,.2-3.07c.08-.29,0-.62.13-.9a11.56,11.56,0,0,0,.8-2.2,5.39,5.39,0,0,1,.78-3c.22-.35-.08-1-.09-1.53a1.07,1.07,0,0,1,.19-.68c.57-.53.79-1-.24-1.68h1.58c-.85-1-.45-1.69.25-2.36l-1-.53,0-.22,1.22.13c0-.32,0-.68,0-1a5.37,5.37,0,0,1,.15-.8,4.22,4.22,0,0,1,.31-1.21c.54-.88,0-2.11,1-2.88a1.05,1.05,0,0,0,.42-1.38c-.26-.59.07-1.43.16-2.39l-.61-.45.09-.22,1.37.57c0-.52-.05-1-.08-1.4l.53-.13-.52-1.18.73-.56-.3-.09c.15-.76.29-1.52.51-2.65-.26-.54,0-3.75.62-4.4-.14-.31-.44-.63-.41-.92.12-1.28.31-2.56.52-3.83a9.34,9.34,0,0,0,0-3.76,1.3,1.3,0,0,1,0-.62A8.88,8.88,0,0,0,292.57,77.73ZM138.7,32.43l-.2.24-.62-.28Zm-48,5h0l.85-1.34ZM120.4,43c-.3.36-.14.67.14,1C120.26,43.68,120.1,43.37,120.4,43Zm-1.8,2.36c.6-.62.91-1.54,2-1.24h0l-.71.9.71-.9c-1.13-.3-1.44.62-2,1.24a1.56,1.56,0,0,1-.75.46A1.56,1.56,0,0,0,118.6,45.37Zm2.06-1.26h0c.21-.33.43-.65.71-1.09Zm28.79,65.79h0c.06.3.11.61.16.92C149.56,110.51,149.51,110.2,149.45,109.9Zm42.56-.12,0-.06ZM190.09,95c-.56.25-1.37.41-1,1.36,0,0,0,.15-.06.21-.66.8-1.35,1.58-2,2.41-.16.21-.09.58-.19.86a2.11,2.11,0,0,1-.37.49l-.19-.34c-.73,1.22-2.41,2.25-.7,4.19-1.92-1-2.52.69-3.52,1.41-1.19.86-2.24,1.92-3.32,2.86l.4.25L174.4,111a8,8,0,0,1-1.24.21c-.79,0-1.58,0-2.37,0a4.07,4.07,0,0,0-.78,0c-2.2.49-4.19-.32-6.1-1.17-1.16-.51-2.56-.88-3.12-2.36-.14-.35-.9-.46-1.34-.67a15.64,15.64,0,0,0-1-2.19,14.74,14.74,0,0,0-1.63-1.72c1.16,0,2.16,0,3.17,0a2.92,2.92,0,0,1,.49.12l.43.1v-.78l1.29.07c0,.29,0,.59-.07,1.05l1.72-.73c.22.6.36,1.22,1.21.73.14-.08.4,0,.61,0,1.39.08,2.78.14,4.17.24.31,0,.6.26.91.31a8.83,8.83,0,0,0,1.15,0,2.53,2.53,0,0,1,.55,0c.24,0,.5.2.71.15,1.09-.29,1.08-.31,2,.16a3.82,3.82,0,0,0,.11-.38c0-.11,0-.21,0-.17.4-.07.76-.15,1.11-.18.51-.06,1-.1,1.53-.11.82,0,1-.49.91-1.28l2.35-.43,1.24-1.19.25.19c-.09-.28-.18-.56-.32-1,.95.51,1.16.1,1-.76l.68.22,1.77-2.12h.11a2.88,2.88,0,0,1,.47-.75c.53-.46,1.11-.87,1.84-1.42-.19-1,.62-1.79,1.7-2.49l-.88-.48,2.63-1.06c.25.85-.45,1.25-1.28,1.74l.95.62C189.91,94.36,189.91,94.36,190.09,95Zm-1.81,17a1.51,1.51,0,0,0,.57-.48A1.51,1.51,0,0,1,188.28,112Zm-5.53-2.75a.18.18,0,0,1-.05.07A.18.18,0,0,0,182.75,109.2Zm-.08.13-.17.12Zm6.72,1.5c-.18.18-.34.41-.51.61.17-.2.33-.43.51-.61ZM171.65,96.46a1.71,1.71,0,0,0-.67,1.41h0A1.71,1.71,0,0,1,171.65,96.46Zm13.08-7.52h0l.94,1.37Zm7.18,20.6-.14-.26ZM163,83.92c0-.81,0-1.61,0-2.42,0-.2,0-.41,0-.61,0-.42.05-.84.09-1.38l.94.07a1.54,1.54,0,0,1,.41-2.34l-1-.59V76.5l1.23.12a4.56,4.56,0,0,1,0-1.11c.09-.39.4-.72.48-1.1.17-.82.15-1.68.39-2.47a15,15,0,0,1,1.21-2.22c.09-.81.22-2,.35-3.24l.84.44.51-.68-.87-.95,1.17.32c-.09-.55-.17-1-.19-1.13.43-.47,1-.79.95-1.09,0-.87,1.68-1.12.71-2.26l1.84-.85c0-.1,0-.46,0-.61l2.54-.9,0-.36-1.29.16a.12.12,0,0,1-.08,0,1.46,1.46,0,0,1,.05-.2l-1.16-.81,1.16.8c0-.19.1-.44,0-.54.09.1,0,.36,0,.54.73,0,1.47,0,2.38,0l-1-.66,1.89-.24,0-.06c.29,0,.69.12.86,0,1-.84,1,0,1.19.81l.89-.78-.49-.21c1.44-.57,1.43-.56,2.42.76a11.54,11.54,0,0,0,1.09,1c.14-.9.24-1.46.33-2l3.3.42v.19l-.83,0,1,.79c.14-.25.27-.48.41-.71.11.2.21.41.33.59.29.43.59.84.89,1.26l.58.78.32-.65,2.71,2.13,1.54-.21c-.35-.64-1.6-.36-1.32-1.49,0,0-.5-.1-.62-.26-.73-1-1.4-2-2.16-2.88-.18-.23-.63-.24-1-.34l-.75-.22c.13-.28.2-.63.41-.8s.48.13.72.25a4.27,4.27,0,0,1,.59.39c.14-.39.26-.75.44-1.26l.91,1.83V55.59A11.47,11.47,0,0,1,194,61.92c-.65.17-1.52.09-1.65,1.31a7.83,7.83,0,0,1-1.18,2.26,1.91,1.91,0,0,0-.91,3l-1-.32-1.41,1.79.69.23L186.71,72l-.56-.22.71,1.17-.53-.17L182.25,78l.22.19s0,.14-.08.15c-1.29.16-1.78,1.27-2.47,2.13-.11.13-.24.24-.36.36s-.49.41-.56.66a6,6,0,0,1-2,2.16,4,4,0,0,0-.65.72A7,7,0,0,0,176,85.5l-.39-.14L173.8,87.2l-1.11,1.14c-.07,0-.5,0-.53,0-.42,1.21-1.74.83-2.51,1.44a10.58,10.58,0,0,1-3.13.88,3,3,0,0,1-1-.08,3.57,3.57,0,0,1-.93-.43c-.45-.27-.87-.59-1.26-.87a4.67,4.67,0,0,1-.49-1.43C162.85,86.57,163,85.24,163,83.92Zm7.25,15.54-.79,1.55c.49.46.83.65,1.49-.06a8.08,8.08,0,0,1,3.26-1.59,2.16,2.16,0,0,0,.45-.29l.84,1.05c.07-.43.12-.66.14-.78l2.89-.5c0-.34-.09-.91-.15-1.47l.07,0c.14.51.27,1,.4,1.51h.22l.23-1.05c.68.32,1.25-.92,2-.09.08-.22.15-.43.23-.64l.95-.78.67.21-.48-1.12c1.49.72.82-.83,1.38-1.07l.31.68,1.91-2.51.9.25V94l-1.33-.37-.06.23.84.6-1.05-.25c0,.39,0,.71.06,1-.28,0-.54-.53-.84,0a4.84,4.84,0,0,1-.76.9l.77,1.27-.16.28-1.5-.49c-.07.29-.15.61-.23.92l-.32.26c-.05-.18-.09-.36-.13-.54L180.92,99l.23.29.62-.7c0,1.65-1.42.5-1.66.94v1.6l-.78-.2-1.11.84s.11.26.29.66a6,6,0,0,0-1-.54,5.88,5.88,0,0,0-1.19-.14l.81.7a24.47,24.47,0,0,1-8.31.29v.38h-1.12l.79-.9-1,.31-.18-1.12a6.91,6.91,0,0,1-1.93.83c-.38,0-.85-.49-1.25-.81a9.5,9.5,0,0,1-.83-.85l-.62-.73-.79-1Zm19.15,11.37h0a7.38,7.38,0,0,0,.82-.76,7.38,7.38,0,0,1-.82.76c1.69.61,2.37.07,2.25-1.78h0C191.76,110.9,191.08,111.45,189.39,110.83Zm3.38-23.2h0c.39-.63.41-.74-.53-1C193.18,86.89,193.16,87,192.77,87.63Zm23.92-34.56.23.74Zm.39,2.63c.46-.17.53-.45.36-.78C217.61,55.25,217.54,55.53,217.08,55.7Zm.07-1.21h0v0l1.43.33ZM254,66.41Zm-2.45-2h0c.08-.14.15-.28.23-.41C251.67,64.12,251.6,64.26,251.52,64.4ZM253.81,62h0l1.2.48Zm28.45,46.46h0l-.49-.4Zm-3.05,36.25.32.39h0Zm1.23-26.64c.13-.5.57-1-.07-1.48h0C281,117.07,280.57,117.59,280.44,118.09Zm-.08-1.52h0c.71-.28.56-.63.36-1C280.92,115.94,281.07,116.29,280.36,116.57Zm1.33-6,.64-.88h0Z"/><path class="cls-2" d="M130.85,26.7l0,0h0v0h0Z"/><path class="cls-2" d="M132,27.55a2.61,2.61,0,0,1,2.67.3c.19-1.08-.2-1.52-1.2-1.53a2.66,2.66,0,0,1-1.33-.24c-.78-.47-1.13-.34-1.26.62C131.24,27,131.78,27.64,132,27.55Z"/><path class="cls-2" d="M123.21,26.77h.23c0-.37.07-.75.13-1.45l-3.79,1.49c.08,1.08-2,.41-1.82,1.88L123.21,26Z"/><path class="cls-2" d="M73.93,16.73a10.34,10.34,0,0,0-2.2,1.32c-.88.93-.79,0-1.14-.61l-1.13,1.93c1.12-.34,2-.64,3-.87S74.07,17.94,73.93,16.73Z"/><path class="cls-2" d="M61,22.19l.44,1.11c.19-.91.33-1.6.48-2.3-.36.24-.42.74-.69.93s-.85,0-1.17.19a7.27,7.27,0,0,0-1.22,1.08v.95Z"/><path class="cls-2" d="M57.22,26c.24-.94,1.68-1.49,1.62-2.83h0l0,0h0l-.06-.5a5.72,5.72,0,0,1-2.22,2.6,3.88,3.88,0,0,0-.67,1.12c.21.09.46.29.61.24S56.9,26.33,57.22,26Z"/><path class="cls-2" d="M147.65,116.44l-.39,0a4.75,4.75,0,0,0,.18,1.27c.07.17.53.17.93.27.54,1.19.9,1.34,1.73.46l-2.4-1.24Z"/><path class="cls-2" d="M64.61,20.33l1.26.52c0-.63-.07-1-.1-1.45l-.9.41.08-.75-.22,0L64,20.7l.29.15Z"/><path class="cls-2" d="M125.3,25.76a3.62,3.62,0,0,0-.73-1.08c-.25.19-.73.4-.71.57a5,5,0,0,0,.54,1.35C124.8,26.25,125.34,25.94,125.3,25.76Z"/><path class="cls-2" d="M255.72,65.63a1.4,1.4,0,0,0-.87-.7,1.05,1.05,0,0,0-.78.51,2.59,2.59,0,0,0-.08,1C254.92,67.19,255,65.83,255.72,65.63Z"/><path class="cls-2" d="M157.26,122.59v.34l1.75.26.21-.23-.79-1.06Z"/><path class="cls-2" d="M127.28,25.18c-.49.73-1.7-.74-1.82.82l1.82.33Z"/><path class="cls-2" d="M152.49,121.66l.65-.34c0,.21.08.39.13.68l1.11-.85C152.8,120.43,152.42,120.54,152.49,121.66Z"/><path class="cls-2" d="M155.6,122.45c0-.37.06-.75.08-1.06l-1.79.37Z"/><path class="cls-2" d="M173.31,58.31h0S173.32,58.31,173.31,58.31Z"/></g></g></g></svg>