<svg xmlns="http://www.w3.org/2000/svg" viewBox="0 0 306.39 100.17"><g id="Calque_2" data-name="Calque 2"><g id="P2_m5_2"><path d="M302.83,62.11c-.07,0-.18,0-.3,0a1,1,0,0,1-.22-.12,1.34,1.34,0,0,1-.27-.31c-.76-1.26-1.65-1.56-2.84-.71a12.93,12.93,0,0,0-3,2.66,30.38,30.38,0,0,0-2.91,5.46c-.86,1.81-1.29,3.8-2.38,5.54-.62,1-1,2.13-1.51,3.17-1.06,2-1.73,4.23-3.16,6.06-.81,1-1.5,2.14-2.31,3.16a15.84,15.84,0,0,1-1.62,1.51c-.45-.67-.55-1.45-1.53-1.56v2.44a5.87,5.87,0,0,1-2.86.87c-.89,0-1.86-.07-2.33-1a5.39,5.39,0,0,1-.42-1.8,4.57,4.57,0,0,1,.95-3.76,3,3,0,0,0,.57-.79,17.19,17.19,0,0,1,2-3.84,11.82,11.82,0,0,1,3.82-3.92,42,42,0,0,0,4.31-3,7.75,7.75,0,0,0,2.48-4,13,13,0,0,0,.44-3.43c.06-1.15,0-2.31,0-3.47a10.19,10.19,0,0,0,.12-1.08c-.13-1,.42-2.21-.78-2.87A19.52,19.52,0,0,0,286.24,56c-.86-.3-1.83-.29-2.65-.66-1.52-.67-2.93-.1-4.37.13-.92.14-1.3,1-1.84,1.56-.26.28-.31.75-.57,1-1.2,1.2-1.47,2.86-2.2,4.29a30.64,30.64,0,0,0-1.55,4.47c-.36,1.09-.75,2.17-1,3.28-.48,1.81-1,3.63-1.3,5.47a21.86,21.86,0,0,0-.67,4.77,2.36,2.36,0,0,1-1.67,2.57c-.75.26-1.24,0-1.31-.82a15.79,15.79,0,0,1,.05-2.06,41.92,41.92,0,0,1,.32-6c.38-2,.37-4,.83-6.07.76-3.32.69-6.81,1.61-10.13.29-1.07.41-2.2.63-3.29a9,9,0,0,0,.33-1.31c0-1.81.93-3.42,1.15-5.2.17-1.36,1-2.64,1.18-4s1.26-2.57,1.35-4.07c0-.75.67-1.45.76-2.21.25-2,1.25-3.69,1.73-5.57a8.52,8.52,0,0,0,.46-1.73q.13-3.87.14-7.74a33.5,33.5,0,0,0-.23-3.46c0-.42,0-1-.69-1s-.65.38-.76.83c-.16.64-.4,1.26-.61,1.89a1.32,1.32,0,0,0-1.47-1.13c0-.62,0-1.17-.13-1.71a.67.67,0,0,0-.45-.4.8.8,0,0,0-.58.26c-.11.11-.11.34-.15.52A52.6,52.6,0,0,1,268.87,28q-1.56,3.38-3,6.82c-.62,1.55-1.11,3.15-1.65,4.73-.5,1.42-.9,2.89-1.52,4.26s-1.61,2.58-2,4.1c-.05.24-.44.58-.64.56-1.2-.1-2.39-.3-3.58-.45a20.21,20.21,0,0,0-2.45-.29c-1.52,0-3,.4-4.59,0a3.13,3.13,0,0,0-2.2.25c-.74.45-1.84.52-2.16,1.57-1.9,1.15-2.69,3.18-3.9,4.88-.4.57-.75,1.18-1.26,2a6.41,6.41,0,0,1-.18-.9c0-1.48,0-3,0-4.43s0-3.19-.12-4.78a22.14,22.14,0,0,0-.37-3,4.61,4.61,0,0,0-.71-1.25l0,.05c.25-1.1-.4-1.91-.76-2.68-1.41-.21-2.89.48-3.69-.89a12.65,12.65,0,0,0-1.76-.19c-1.57.06-3.08.08-4.38,1.33a24.69,24.69,0,0,1-3.67,2.46V37.46l-1.1-.59.85-.24a18.9,18.9,0,0,0-1.57-6.47c-.5-1.19-1.16-1.72-2.4-1.53a2.84,2.84,0,0,1-2.09-.5,3.88,3.88,0,0,0-1.55-.46c-2.26-.29-3.6,1.36-5.15,2.54a8.13,8.13,0,0,0-1.19,1.29c-.91,1.12-1.27,2.55-2.16,3.72a40.66,40.66,0,0,0-2.61,4.55c-.44.76-.91,1.49-1.36,2.24a15.37,15.37,0,0,0-1.37,2.34c-.72,1.88-1.32,3.81-1.95,5.73-.13.4-.19.83-.29,1.24a29.47,29.47,0,0,1-.18-3.73c0-1.16-.15-2.32-.13-3.48,0-3,.15-6,.2-9,0-.36.23-1-.41-1s-.33.65-.35,1c0,.55,0,1.11,0,1.67l-.33,0c-.14-.42-.16-1-.45-1.2-1-.59-.64-1.44-.64-2.24,0-1.72-.06-3.44,0-5.16a2.08,2.08,0,0,0-1.5-2.45v0a1.77,1.77,0,0,0-1.58-.7,4.3,4.3,0,0,1-2.62-.64,3.37,3.37,0,0,0-3.27.07c-1.21.63-1.79,1.81-2.6,2.8a6.26,6.26,0,0,0-1.33,1.89c-.35,1.12-1.44,1.86-1.47,3.09a15.76,15.76,0,0,0-2.74,5.68,19.39,19.39,0,0,1-.94,2.27,29.44,29.44,0,0,1,0-3.76c0-2-.19-4-.11-6,0-.41,0-.82,0-1.24,0-.08-.18-.15-.39-.31a2.46,2.46,0,0,1,0,.62,2.31,2.31,0,0,1-.4.48c-.33-2.87-1.31-5.28-3.84-6.9,1.94-.45,2.75,0,3.19,1.55.09.31.14.63.2.95.18.91.34,1.82.56,2.72,0,.14.34.23.7.45-.22-.82-.39-1.38-.52-2-.21-1-.35-2-.61-3a2,2,0,0,0-2.37-1.66,3.12,3.12,0,0,1-2.34-.65,1.72,1.72,0,0,0-1.57-.34,1.69,1.69,0,0,1-.82.09,3,3,0,0,0-2.68.81,9.83,9.83,0,0,0-3.4,3.67c-.09.18-.46.22-.69.33-.25-.72-.79-.15-1.26-.18,1.1-1.21,1.09-1.2.53-2.84-.19-.56-.28-1.16-.46-1.73a9.33,9.33,0,0,0-.72-1.93,2.26,2.26,0,0,0-1.92-1.33c-1-.06-2.15.25-2.9-.82-.09-.12-.34-.15-.53-.17a6.25,6.25,0,0,0-5.81,2.28,16.4,16.4,0,0,0-2.46,3.08,7.15,7.15,0,0,1-1.1,1.25,3.66,3.66,0,0,1-.34-1,23.64,23.64,0,0,0-.78-5.43,3.36,3.36,0,0,0-1.41-2.32,4,4,0,0,1-3.39-.5,1.19,1.19,0,0,0-.65-.17,15.48,15.48,0,0,0-1.8.07,6.16,6.16,0,0,0-1.4.31,16.12,16.12,0,0,0-4.1,2.44,10.94,10.94,0,0,0-3,3.73c-.4.76-.52,1.62-.92,2.33A7.72,7.72,0,0,0,129.53,26c-.27,1.78-1.06,3.46-1.2,5.29,0,0-.15,0-.26,0a5.74,5.74,0,0,1-.23-1.21c0-1.61.13-3.21.12-4.82,0-2-.11-4-.16-6,0-1-.07-1.93-.07-2.89,0-2.07,0-4.15,0-6.22,0-.17-.23-.34-.4-.56-.55.44-1,1-1.73.61V9.2l-2-1.43c.7-1.22.73-1.23,1.74-.73l2,1,.18-.3c-.59-.44-1.2-.86-1.77-1.33a3.56,3.56,0,0,0-2.29-.89A7.2,7.2,0,0,1,121,5a3.93,3.93,0,0,0-3.84.5,24.61,24.61,0,0,0-4.55,4.14,62.38,62.38,0,0,0-4.15,6.62,19.39,19.39,0,0,0-1.69,5.07,36.22,36.22,0,0,0-1.47,7.94c0,1.81-.12,3.63,0,5.44s.35,3.37.53,5.06a10.1,10.1,0,0,0,3.27,6.65,5.37,5.37,0,0,0,3.51,1.5c.6,0,1.19,0,1.78.07a19.91,19.91,0,0,0,5.87,0,3.4,3.4,0,0,0,2.06-1.13c.42-.47.88-.89,1.47-1.48,0,.38,0,.55.07.71.35,1.62.66,3.26,1.07,4.88.24.95,1,1.1,1.65.34a9.11,9.11,0,0,0,.84-1.43l.91.16c.19.68.38,1.34.59,2,.64-.11,1.32.25,1.68-.42a4.29,4.29,0,0,0,.88-2.51,2,2,0,0,1,.37-1.53,1.72,1.72,0,0,0,.32-.76c.27-1.65.53-3.31.75-5,.26-2,.47-4,.73-6,.17-1.21.1-2.59.67-3.58,1-1.78,1.46-3.82,2.76-5.52a13.89,13.89,0,0,1,4.41-3.63,3.48,3.48,0,0,1,.49,1c.15,1.38.3,2.76.34,4.15,0,1.66,0,3.33,0,5,0,.55,0,1.1,0,1.64-.08,1.91-.15,3.81-.24,5.71,0,1-.1,2.05-.2,3.07-.14,1.37-.35,2.73-.48,4.1a1.15,1.15,0,0,0,.23.87,1.46,1.46,0,0,1,.33,1.54c-.07.4-.11.79-.19,1.38,2.09-.86,1.34-2.7,1.8-4a.68.68,0,0,1,1.09.13c.15.21,0,.65-.09,1s-.22.4-.24.61.17.27.31.47c.18-.36.31-.64.42-.87,1-.07.75.82,1,1.23l1.15-.14c.07-.91.16-1.77.19-2.64A55.12,55.12,0,0,1,148.92,36a15.87,15.87,0,0,1,.62-2.51,31.07,31.07,0,0,1,3.6-6c.32-.44.71-.83,1.07-1.24a11.53,11.53,0,0,1,1.15-1.35,2.33,2.33,0,0,1,2.44.31,10.21,10.21,0,0,1,1.13,2.53c.34,1.47,1,2.92.53,4.5-.06.2.08.46.09.69a11.62,11.62,0,0,1,.09,2.35c-.2,1.37-.36,2.74-.66,4.11a28.35,28.35,0,0,0-1.06,6.87c0,.78,0,1.57,0,2.35,0,1.83-.05,3.66,0,5.49a26.24,26.24,0,0,0,.46,3.27,4.07,4.07,0,0,0,.44.92c.86-.44.94-.46.88-.83-.22-1.32.68-2.23,1.16-3.66.17,1.05.29,1.77.4,2.48h.11l.06-1.23.29-.15c.26.47.29,1.22,1.08,1a1.45,1.45,0,0,0,1-1.39c.16-1.06.32-2.12.39-3.18s0-2.11.08-3.17c.1-1.43.31-2.86.44-4.29s.22-2.68.3-4,.18-2.86,1.26-4c.15-.16.18-.43.3-.62.73-1.25,1.45-2.52,2.23-3.74a21.2,21.2,0,0,1,1.58-2.06,2.08,2.08,0,0,1,.8-.53c1-.37,2.72.29,2.88,1.44.18,1.37.34,2.75.45,4.13a14.39,14.39,0,0,0,0,2.07c.48,2,0,4.06-.18,6.06-.28,2.75-1,5.46-.88,8.24,0,1.21.17,2.41.28,3.61a9.52,9.52,0,0,0,.25,1.6,7.42,7.42,0,0,0,.78,2.34,2.48,2.48,0,0,0,2.13.82c.45,0,.91.11,1.36.13,1.19,0,1.15,0,1.27,1.15.07.72.06,1.51.75,2l.21.74a1.57,1.57,0,0,0,1.8,1.28,5.18,5.18,0,0,1,1.62,0,1.9,1.9,0,0,0,1.56-.37,18.45,18.45,0,0,1,2.85-1.88,10.4,10.4,0,0,0,4.18-3.62c.52-.68.9-1.66,2-1.74.33,2.54.64,5,.95,7.43a3.42,3.42,0,0,0,3-.23c-.38.87-.5,1.84-1.5,2.27l-1.05-1.31c.08.91,0,1.87,1.1,2.17.74-.46,1.6-.76,1.49-1.88a2.25,2.25,0,0,0,2.25-.6,2.11,2.11,0,0,1,.68-.48c1.14-.38,1-1.74,1.79-2.35,0-1.27.81-2.33,1-3.56s.62-2.48.92-3.72A20.69,20.69,0,0,1,207,48.81c.11-.19.06-.46.13-.68a4.83,4.83,0,0,1,.4-1c.23-.4.56-.74.8-1.14,1.12-1.85,2.22-3.71,3.33-5.57.56-1,1.19-1.87,1.66-2.86.93-2,1.43-2.33,3.66-2.3,1.46,1.64,1.66,3.76,1.86,5.8a50.64,50.64,0,0,1,.1,5.78,33.56,33.56,0,0,1-.35,4c-.35,2.35-1.54,4.39-2.47,6.53a9.51,9.51,0,0,0-.64,1.22,48.28,48.28,0,0,0-2.13,10.93c-.1,2,.6,3.9.59,5.88,0,0,.13.06.3.14.84-1.34.31-3.27,1.82-4.6.2.59.31,1,.45,1.34.3.8.49.89,1.37.66a5.33,5.33,0,0,0,.6-.23,11.66,11.66,0,0,0,.32-1.26c.34-2.17.65-4.35,1-6.52a5.58,5.58,0,0,1,.21-1.08c.57-1.53,1.17-3,1.76-4.56a14.85,14.85,0,0,0,.78-2.07,20.69,20.69,0,0,1,2.95-6.48c.66-1,1.77-1.81,2.36-2.87,1.07-1.94,2.73-2.2,4.62-2,.49,0,1.05.16,1.19.79a16.93,16.93,0,0,1,.46,2.18c.13,1.29.18,2.59.22,3.89a20.37,20.37,0,0,1-.51,6.87c-.14.42-.25.84-.36,1.27-.39,1.6-.78,3.21-1.16,4.81s-.71,2.91-1,4.38-.39,2.82-.65,4.21c-.21,1.17-.25,1.18.75,1.86.62.13.64-.4.81-.75s.39-.91.6-1.4l1.57.7c-.6,1.21.52,1.2,1.16,1.49a7.57,7.57,0,0,0-.36,1.57,16.85,16.85,0,0,0,0,3.76c.38,2.08.81,3.19,3.42,3.1a14.38,14.38,0,0,1,2.58.34,6.79,6.79,0,0,0,1.09.22,21,21,0,0,0,3.27-.14,8.67,8.67,0,0,0,3.11-1c.72-.44,1.44-.93,2.17-1.39.44-.27.81-.66,1.25-.94,1.38-.87,1.92-2.51,3.22-3.46.15-.12.06-.55.08-.85h0l0,0c.88-.23.9-.24.56-.8h0l0-.06c.16-.07.36-.11.46-.24a25.2,25.2,0,0,0,3.42-6.41c1.25-3.14,2.06-6.45,3.11-9.67a6.4,6.4,0,0,1,1-1.41c-.26,2.23-.48,4.2-.73,6.16a30.16,30.16,0,0,0-.58,4.49c.11,2.94-.62,5.8-.52,8.75.07,2.17-.35,4.37-.39,6.58a10.75,10.75,0,0,0,1.4,5.34,1.55,1.55,0,0,0,1.71.84c1.38-.24,2.86-.09,4.11-1,.15-.1.42,0,.6,0,.23,1.63.39,3.2.7,4.74a3.57,3.57,0,0,0,2.7,2.75,13.93,13.93,0,0,0,4,.37,31.39,31.39,0,0,0,3.95-.58,6.77,6.77,0,0,0,3.82,2.46c2.16.61,3.61.64,4.63.06-.14-.13-.26-.34-.39-.35a8.56,8.56,0,0,0-1.6,0c-2.14.21-4-.16-5.26-2.16-.09-.14-.32-.18-.45-.3a1.51,1.51,0,0,1-.21-.39l.6-.34a6.87,6.87,0,0,1,2.28.94,4,4,0,0,0,3.37,1l-.83-.34a2,2,0,0,1,1-.16,6.88,6.88,0,0,0,1.79.13,3.69,3.69,0,0,1,2.41.26h0c-.08.37.05.8-.48,1s-.53.71-.51,1.19h0v0a7.78,7.78,0,0,1,1-.55,17.39,17.39,0,0,0,1.89-.77,33.76,33.76,0,0,0,3.13-2.06c.73-.55,1.68-1.1,2-1.87.63-1.55,1.67-2.88,1.95-4.67.32-2,1.35-3.83,2.06-5.74.83-2.22,2-4.32,2.38-6.69a44.31,44.31,0,0,0,.84-5.93c.08-2.61-.1-5.24-.27-7.85C305.94,61.68,304.73,61,302.83,62.11Zm-19.17,4.78c-1,.77-2,1.38-3.05,2-.81.53-1.63,1-2.44,1.56l-.55.36-.3-.24c1-2.57,2.08-5.14,3.13-7.75a2.07,2.07,0,0,1,2.45.3.91.91,0,0,0,.23.15c.51.25,1.17.27,1.19,1.11A2.78,2.78,0,0,1,283.66,66.89ZM111.38,28.94a28.07,28.07,0,0,1,2-5.69,37.13,37.13,0,0,1,3.5-5.61,10.5,10.5,0,0,1,3.2-3.09,10.15,10.15,0,0,0,1.19-.91s.18,0,.38.07a6,6,0,0,1,.22,1.15c0,2.92,0,5.84,0,8.76,0,1.74.15,3.49.06,5.23a32,32,0,0,1-.61,4.12,13.68,13.68,0,0,1-3.55,6.44c-.59.68-1.4.59-2.18.67a2.06,2.06,0,0,1-1.88-.87,10,10,0,0,1-2.61-6.12A13.08,13.08,0,0,1,111.38,28.94Zm-2.65,11.32h0c-.09.09-.21.18-.22.27C108.52,40.44,108.64,40.35,108.73,40.26Zm0,0h0c-.22-.07-.51-.1-.62-.25C108.2,40.12,108.49,40.14,108.71,40.21Zm83.93-3.1c-.34,2.73-.4,5.5-2,8a15.33,15.33,0,0,1-2.82,3.39c-1,.85-1.92,1.79-2.88,2.7a2.23,2.23,0,0,1-.47-2,27,27,0,0,0,.18-3.93,13.18,13.18,0,0,1,1.41-5c.37-.82.71-1.65,1.14-2.43,1-1.83,2-3.64,3.09-5.44.4-.69,1-.75,1.83-.17-.18-.66-.3-1.09-.43-1.6l.72-.34c.07.2.17.33.15.44C192.19,32.86,192.9,35,192.64,37.11Zm36.75,6.41.26.48-.26-.48ZM257.24,57c-.71,2.1-1.41,4.19-2.18,6.26-.28.77-.84,1.44-1.12,2.21-.52,1.45-1.69,2.63-1.77,4.25-.21,0-.54-.17-.63-.08-.27.28-.43.67-.68,1a33.34,33.34,0,0,1-2.64,3.15,14.43,14.43,0,0,1-2.54,1.7c-.43.27-.91.45-1.34.72a4.1,4.1,0,0,1-3.48.72c-.64-1.14-.16-2.27.17-3.41.06-.21.32-.4.31-.59-.13-1.67.67-3.14,1.13-4.66a27.81,27.81,0,0,1,1.78-3.8c.19-.41.33-.84.5-1.26a23.64,23.64,0,0,1,3.22-5,7.72,7.72,0,0,1,2.8-2.09,6.7,6.7,0,0,1,2.63-.43,24.73,24.73,0,0,1,3,.1C257.17,55.88,257.49,56.32,257.24,57Zm-2.59,20.36a1.11,1.11,0,0,1,.37-.08A1.11,1.11,0,0,0,254.65,77.39Zm45.66-.68c-.49,1.39-1.08,2.74-1.61,4.11-.43,1.11-.85,2.22-1.23,3.35-.42,1.29-.79,2.59-1.19,3.88a11.39,11.39,0,0,1-1.69,3.14,3.19,3.19,0,0,1-1.6,1,13.57,13.57,0,0,1-4.71.36c-.74,0-.91-.4-.39-1a31.15,31.15,0,0,0,3.72-5.32,5.1,5.1,0,0,0,.67-1c.77-2.49,2.2-4.66,3.27-7,.72-1.58,1.27-3.25,2-4.82s1.67-3.25,2.51-4.88l.38,0a17.36,17.36,0,0,1,.37,2.56A16.41,16.41,0,0,1,300.31,76.71Z"/><path d="M231.44,76.13l0,0h0Z"/><path d="M14.55,1.12c.06-.14.18-.43.33-.81a3.62,3.62,0,0,0-2.74.28,20.94,20.94,0,0,1-1.9,1.27A12.29,12.29,0,0,0,4.15,7.81c-.45.86-.74,1.82-1.22,2.58-1.2,1.91-1.31,4.11-2,6.15a24,24,0,0,0-.84,6.11,45.53,45.53,0,0,0,0,6.91A17.64,17.64,0,0,1,.59,32c-.11,1.91,1.25,3,2.33,4.1a6.3,6.3,0,0,0,3.57,1.8c1.6.25,3.2.48,4.8.71a2.54,2.54,0,0,0,.55,0,20.62,20.62,0,0,1,2.08,0,4.07,4.07,0,0,0,4.21-2.1c.34-.56.77-1.07,1.14-1.59a24.3,24.3,0,0,1,2.25,2.64c.54.84,1.22.72,1.95.64.31,0,.6-.29.92-.33s.72,0,.85.16c.72,1,1.63.81,2.58.5a5.19,5.19,0,0,0,2.66-2l.92,1a4.36,4.36,0,0,0,3.29,1.7,5.82,5.82,0,0,1,2.18.18,8.28,8.28,0,0,0,4.37.33A9,9,0,0,0,44,38.41c.64-.33.6-1,.74-1.57a2.25,2.25,0,0,1,.3-.52,3.06,3.06,0,0,1,.48.32c.25.25.45.56.72.78,1,.8,1.72,1.9,3.31,1.53a2.8,2.8,0,0,1,2.46.49c.2.16.61.07.92.1a14.87,14.87,0,0,1,2.58,0,2,2,0,0,0,2.09-.82A7.13,7.13,0,0,0,59,35.85c.26-1.63.92-3.18.7-4.9-.11-.9.53-1.81.21-2.77.77-1.3.62-2.83.8-4.22.23-1.72,1.16-3.29,1-5.07.9-2.24,1.9-4.45,2.66-6.74.5-1.49,1.79-1.91,2.88-2.62.17-.12.76.1.9.33a16.78,16.78,0,0,1,1.53,2.75,10.15,10.15,0,0,1,1.09,3.9,46.23,46.23,0,0,1,0,4.71,13.27,13.27,0,0,1-.44,3.65,2.36,2.36,0,0,0,0,.84,4.89,4.89,0,0,1-2.49,4.05c.24-.43.61-.77.86-1.19a17,17,0,0,0,.74-1.65c-1.37-.1-1.47,0-1.81,1-.08.25-.32.45-.42.7A22.78,22.78,0,0,0,66,31.75c-.14.57.12,1.24-.19,1.83h0c.42.78-.85,1.1-.52,1.86a4.87,4.87,0,0,1,.68,2,7.54,7.54,0,0,1-.27,1.26c1.41-.47,1.74-1.49,1.72-2.9l1.41,1.33,1.07-.89c.42,1.08.79,2.08,1.2,3.06a7.88,7.88,0,0,0,2.43,3.43,20.54,20.54,0,0,0,2.81,1.42c1.08.58,2.26.08,3.37.38a5.13,5.13,0,0,0,2,.41,10.17,10.17,0,0,1,2.35.09,9.37,9.37,0,0,0,2.54-.16c2.19-.55,3.63-2.06,4.9-4l-1-.33c-1.2,1.17-2.27,2.23-3.37,3.26a1,1,0,0,1-.67.14c-.71,0-1.42-.08-2.13-.11a15.31,15.31,0,0,0,7.31-6l-1.54-.45c-1,1.33-1.78,2.7-3.6,2.64-.16,0-.42.1-.46.22-.27.75-.76.37-1.5.34,1.13-.8,2.06-1.38,2.9-2.08,1.64-1.35,1.62-1.37,2-2.6-.39.34-.66.58-.94.81l-.91.76c-1.09-.68-1.14-.69-1.87.21a3.6,3.6,0,0,1-3.06,1.49c-1.18,0-2.28-.37-3.42-.34-.59,0-1-.27-1.68-.74a5.9,5.9,0,0,1,1.48-.3,20,20,0,0,0,3,0,4,4,0,0,0,3.08-1.15c.85-.88,2.18-1.39,2.36-2.83-.63-.12-.6-.09-.87.17-1.44,1.4-2.5,3.38-5.07,2.92a33,33,0,0,0-4.12-.27A1.55,1.55,0,0,1,75.91,35a14.68,14.68,0,0,1-.2-1.86,22.72,22.72,0,0,1,.29-2.6c.16-1.07.48-2.13.54-3.21.12-1.89-.09-3.81.17-5.66a13.1,13.1,0,0,1,2.74-7,9.31,9.31,0,0,0,.61-.89c.44-.68.83-1.39,1.33-2,.62-.79,1.31-1.53,2-2.26a3.15,3.15,0,0,1,.86-.69c1-.48,1.92-.89,2.87-1.34A6.28,6.28,0,0,0,88,6.8a5.53,5.53,0,0,0-3.88.74c-.91.56-2.33.91-2.51,2.4,0,.13-.41.23-.67.33.29-.59.56-1.19.88-1.76C82.54,7.19,84,6.77,85.16,6,86.1,5.34,87,4.58,88,3.77c-1.51-.66-2.59.52-3.81.38-.84,1-2.34,1.18-2.77,2.38l-2.16.83a7.67,7.67,0,0,1,2.88-2.89,20.07,20.07,0,0,0,3-2.27,7.79,7.79,0,0,0-3.18,1,1.77,1.77,0,0,1-.91.31,2.36,2.36,0,0,0-1.35.61,12.21,12.21,0,0,0-3.16,3.25,13.52,13.52,0,0,1-1.31,1.33c0-.24,0-.29,0-.33A1.7,1.7,0,0,1,75.42,8a49.28,49.28,0,0,1,3.31-4.58A9.19,9.19,0,0,1,82.63.64a5.06,5.06,0,0,0,1-.64,5.82,5.82,0,0,0-2.84.43,10.21,10.21,0,0,0-3.14,3c-.35.48-.8.89-1.1,1.39a8.09,8.09,0,0,1-1.45,2.06,11,11,0,0,0-1.25,1.67c-.08-.1-.19-.23-.29-.37-.94-1.31-1.9-2.61-2.82-3.93A1.78,1.78,0,0,0,69,3.37a12.75,12.75,0,0,1-1.38.07A2.23,2.23,0,0,1,67,3.19c0-.1,0-.2,0-.31,1.07-.07,2.14-.18,3.22-.22a2.56,2.56,0,0,1,2,.79c.14.14.44.12.67.16C72.39,3,72,2.15,71.17,2.13c-1.3,0-2.66-.4-3.91.25-1.88,1-3.73,2-5.59,3-.45.24-.88.51-1.32.77-.19.12-.46.22-.56.4C59.36,7.36,59,8.18,58.6,9c-.53,1.28-1,2.56-1.47,3.87a51.23,51.23,0,0,0-1.72,5.58c-.39,1.85-.44,3.77-.84,5.64-.35,1.6-.18,3.32-.42,5-.18,1.22,0,2.64-1.35,3.44l.41.7c-2.52,1.32-4.94-1.18-4.66-4.37,1,1.62,1.72,3.16,3.44,3.8.21-.55-.09-.86-.43-.91-.72-.13-1-.68-1.29-1.18-.17-.27-.37-.53-.53-.8a6.28,6.28,0,0,1-1.36-3.12c0-1.94-.05-3.88-.14-5.82q-.15-3.52-.4-7c-.15-1.95-.36-3.89-.55-5.84-.11-1-.19-2.06-.35-3.08-.06-.33,0-.91-.6-.91-1,.75.52,2.06-.63,2.84l-.56-1.66-1.62.79a9.59,9.59,0,0,0,.31,1.71c.2.58,0,.75-.54.9-.3-.8,0-1.77-.89-2.3-.68.1-.89.57-.9,1.19,0,1,0,2-.07,3s0,2.31-.07,3.45c-.08,1.42-.25,2.84-.33,4.26a23.62,23.62,0,0,1-.12,4.2,11.53,11.53,0,0,0-.09,2.43,15.28,15.28,0,0,1-.84,6,10.92,10.92,0,0,0-.4,1.83,8.62,8.62,0,0,1-2.29-.51A6,6,0,0,1,34,26.26c.14-3.24.49-6.48.43-9.74,0-2,0-4-.06-6-.06-1.62-.2-3.24-.36-4.85-.08-.87-.27-1.72-.43-2.58-.09-.47-.3-.8-.9-.56l-.12,1.87-.28.17c-.15-.33-.3-.66-.41-.92l-1.75.61c.87,1.34.87,1.34.54,2.25-.19-.25-.34-.47-.51-.67a8.07,8.07,0,0,0-.58-.59c-.61-.57-1.25-.4-1.44.42A6.47,6.47,0,0,0,28,6.93a60.53,60.53,0,0,0,.06,6.46c.16,1.88-.21,3.84.17,5.65s-.23,3.64-.49,5.39A51,51,0,0,1,26,30.71l-1.27-.45-.17.24.93,1-.77,1a10.38,10.38,0,0,1-2.8-6.26l1,.61c-.45-1-.46-1-1.18-1.07A8.6,8.6,0,0,0,22,24.26c0-1.3-.19-2.59-.21-3.88,0-2.31.07-4.63,0-6.93S21.43,9,21.2,6.83c0-.38-.28-1.06-.45-1.07-1,0-1-1-1.58-1.39l1.17-.93C20.13,2,20,1.93,19,2.08c-.06.52-.12,1-.17,1.51A18.72,18.72,0,0,0,12.41,3l1.65-1.14L13.25.9l.13-.22ZM9.85,31.59A4.91,4.91,0,0,1,7.2,30.25a4.91,4.91,0,0,0,2.65,1.34l.68.14Zm4.43-24c0,.71,0,1.47.09,2.22.14,1.09.4,2.17.55,3.26.18,1.28.31,2.58.46,3.87.19,1.59.46,3.18.56,4.77a10.57,10.57,0,0,1-.22,3c-.41,1.8-1,3.56-1.49,5.33a1.82,1.82,0,0,1-2,1.31,12.27,12.27,0,0,1-5.63-2.08,11.5,11.5,0,0,1-.5-1.07A5.44,5.44,0,0,1,5.71,27a23.82,23.82,0,0,1,.62-6.68c.18-1.15.71-2.24.94-3.38s1.12-2.08,1.35-3.25c.41-2.06,2.1-3.35,3.12-5A2.07,2.07,0,0,1,14.28,7.63Z"/><path d="M72.93,3.61h0v0Z"/><path d="M288.72,98.58a16.77,16.77,0,0,0,2.27,0,3.5,3.5,0,0,0,1.12-.57c-.58.07-1.15.14-1.72.19S289.24,97.91,288.72,98.58Z"/><path d="M72.92,3.62h0Z"/><path d="M73,5.36c.14.72.6.64,1.11.53-.4-.75-.8-1.5-1.19-2.25l-.39.57A6.64,6.64,0,0,1,73,5.36Z"/><path d="M146.91,50.49l-.25-.19c-.06.62-1,.11-.85,1.11l1.32-.08C147,51,147,50.73,146.91,50.49Z"/><path d="M231.32,78.4c.4-.85.63-1.53.11-2.23C231.29,76.85,230.83,77.51,231.32,78.4Z"/><path d="M231.44,76.14s0,0,0,0l0,.06Z"/><path d="M290.14,99.3c-.44.07-.57.22-.42.73l1.42.12C291,99.68,290.87,99.17,290.14,99.3Z"/><path d="M24.86,29.77c-.42-.35-.71-.61-1.22-1.05C23.78,29.62,23.93,30.05,24.86,29.77Z"/><path d="M22.63,27.87l1,.68C23.49,28.07,23.49,27.23,22.63,27.87Z"/><path d="M73.93,6.9c.1.08.41-.12.59-.18L74.1,5.9h0C73.84,6.2,73.46,6.52,73.93,6.9Z"/><path d="M215.78,72c.07.56.1.86.16,1.34C216.27,72.87,216.38,72.56,215.78,72Z"/><path d="M20.15,4.45l.43.79C21,4.77,21,4.55,20.15,4.45Z"/></g></g></svg>