<svg xmlns="http://www.w3.org/2000/svg" viewBox="0 0 305.78 167.04"><g id="Calque_2" data-name="Calque 2"><g id="P1_m3_3"><path d="M103.23,71.6a0,0,0,0,0,0,0h0Z"/><path d="M305.19,28.35c-.14-.11-.57.12-.86.23a2.27,2.27,0,0,0-.45.28c-.05-.37-.09-.69-.14-1a12.53,12.53,0,0,0-1.25.2,8.65,8.65,0,0,0-1,.42,7.11,7.11,0,0,1-1.77.61c-.63.07-1.22.72-1.76,1.2a23.26,23.26,0,0,1-9.77,5.34,2,2,0,0,1-1.35-.07c-2.94-1.83-4.7-4.38-4.59-8a1.22,1.22,0,0,1,.69-1.11,32.69,32.69,0,0,0,4.68-3.33A7.27,7.27,0,0,0,287,11.74c-1.56-1.2-3.42-1.94-5.36-.87-.75.42-1.55.52-2.28.87a3.82,3.82,0,0,0-1.22,1,9.49,9.49,0,0,0-1.89,5.08c-.31,2.35-.53,4.71-.73,7.07a1.93,1.93,0,0,1-.79,1.56,4.49,4.49,0,0,0-1.68,2.78c-.28,1.24-.44,2.51-.67,3.77A16.35,16.35,0,0,1,270,39.58a19.4,19.4,0,0,0-1,1.85c-.94.18-1.17.16-1.56-.93a18,18,0,0,1-1-3.87c-.36-3.13-.49-6.29-.9-9.41a43.37,43.37,0,0,0-1.4-6.35,4.74,4.74,0,0,0-2.79-3.06,8.35,8.35,0,0,0-5.16-.64c-2.08.47-4.14,1.07-6.21,1.62-1.59.42-3.18.83-4.75,1.3-1,.28-1.9.66-2.86,1a5.91,5.91,0,0,0-.94.25,3,3,0,0,0-1,.77,2.54,2.54,0,0,0-.15,1,11.63,11.63,0,0,1,.79.88,7.9,7.9,0,0,1,.63,1.09A22.18,22.18,0,0,1,244.08,36a23.43,23.43,0,0,1-3.21,10.1c-.45.82-1.4,1.35-2,2.12a2,2,0,0,1-2.41.69c-.51-.14-1-.3-1.51-.46a17.26,17.26,0,0,1-5.22-2.56,1.23,1.23,0,0,1-.5-1.69,18,18,0,0,0,.83-2.26c.4-1.37.75-2.76,1.1-4.14.78-3,.93-6-1.06-8.71l-.68.3-.06-.11.55-.39A12.54,12.54,0,0,0,228.58,27a7.15,7.15,0,0,0-2-1.38c-.4-.18-1.05-.65-1.54.31-.22-1-.6-1.39-1.36-.7a.26.26,0,0,1-.24,0c-.49-.32-.72.08-.93.37-.39.53-.81.85-1.48.49-.05.23-.09.39-.15.63-.54-.66-.83-.43-1.25.08a5,5,0,0,0-.77,2.61,23,23,0,0,0,.08,8.1c.13.75.26,1.5.38,2.26l-.16,0c-.16-.43-.31-.85-.47-1.27l-.19.07c.43.94-.1,2.25,1.24,2.85.08,0,.1.19.15.29.58,1.15,1.18,2.29,1.73,3.46a1.2,1.2,0,0,1,0,1c-.83,1.51-1.74,3-2.61,4.47-.16.27-.22.72-.43.8-1.14.43-1.61,1.55-2.47,2.25s-1.75,1.48-2.68,2.28c-1.12-2.46-2.23-4.82-3.28-7.21-1.68-3.84-3.25-7.73-5-11.53-1-2.27-2-4.45-1.82-7.06a34.21,34.21,0,0,0-2-13,52.34,52.34,0,0,0-4.71-10.4c-.95-1.59-2-3.12-3-4.68A5.23,5.23,0,0,0,190,0a1.35,1.35,0,0,0-.88.12c-.6.31-1.15.7-1.73,1a.9.9,0,0,1-.63.12c-.84-.28-1,.2-1,.85.06,1.18.16,2.37.25,3.55l-.19,0c-.13-1.15-.27-2.29-.4-3.44l-.24,0a8,8,0,0,0,0,1.77c.3,1.35.69,2.69,1.1,4a5.1,5.1,0,0,0,.65,1c-.45.3-.18.69.18,1.08.09.09.26.14.29.24.2.83.35,1.67.59,2.49a1.47,1.47,0,0,0,.54.81c.73.48,1,1,.47,1.82.8.19.88.39.55.85.21.31.4.56.55.82s.12.44.25.6c.42.5.18.69-.43.83l.83,1.39a17.07,17.07,0,0,0,.51,1.95c1.56,3.85,3.15,7.68,4.71,11.53a4.36,4.36,0,0,1,.38,1.61,34.26,34.26,0,0,1-2.24,12.52,40.81,40.81,0,0,1-2.49,4.39c-.73,1.27-2,2.19-3,3.36a2.54,2.54,0,0,1-1,.73c-.29.13-.71.58-.66.76.22.7-.23.65-.63.7-.73.1-2.08,1.39-2.08,2.08l-.72-.19v.74a2.1,2.1,0,0,0-.83.1,2.9,2.9,0,0,1-1.88.47,11.94,11.94,0,0,1-2-.43,6.19,6.19,0,0,1-3.39-2c-.45-.57-1.21-.89-1.58-1.63-.54-1.08-1.19-2.11-1.79-3.16-.41-.74.06-1.21.57-1.57A15.64,15.64,0,0,1,175,50.58c.77-.38,1.31-1,2.09-1.44a26.27,26.27,0,0,0,3.56-2.29c2-1.46,4-2.91,5.95-4.52a29.16,29.16,0,0,0,4.19-4.27c1.75-2.29,1.24-4.76-1.19-6.32A28.34,28.34,0,0,0,186,30c-3.15-1.47-6.17-.69-9.09.67A10.65,10.65,0,0,0,172.85,34c-.9,1.2-1.84,2.38-2.66,3.64s-1.38,2.38-2,3.59c-.86,1.54-1.78,3.06-2.54,4.65a10.46,10.46,0,0,0-.87,5.13,2.33,2.33,0,0,1-.89,1.82,11,11,0,0,0-2.13,3.14,22.84,22.84,0,0,0-.94,4c-.14-.18-.26-.26-.3-.38-1.09-3.22-2.19-6.43-3.25-9.66-.67-2.06-1.31-4.14-1.92-6.22a4.75,4.75,0,0,0-6.22-3.18,39.93,39.93,0,0,0-6,2.55c-1.92,1-3.68,2.28-5.51,3.45-.74.47-1.15,1.35-2.05,1.64a.73.73,0,0,0-.31.56,9.83,9.83,0,0,0-.05,2.36,10.29,10.29,0,0,0,.84,2.45c.47,1,1.15,1.91,1.58,2.93a52.43,52.43,0,0,1,1.87,5.13c.39,1.33.56,2.73.83,4.1,0,0-.06,0-.12.09-.24-1-.46-1.9-.69-2.83l-.24.05c.08.57.15,1.15.23,1.73a2.39,2.39,0,0,1-.77-.86c-1.61-2.56-3.27-5.09-4.8-7.7-1-1.65-1.85-3.32-3.77-4.08-1.35-.52-2.67-.87-4,.14a2.85,2.85,0,0,1-.74.29c-.6.22-1.4.25-1.78.67A11.19,11.19,0,0,0,121.68,56a5.84,5.84,0,0,1-.8,1.2,2,2,0,0,1-.24-.33c-1.26-3.08-2.45-6.2-3.8-9.24-.94-2.11-2-4.15-4.66-4.7-1.15-.24-1.91-.08-2.44,1a.89.89,0,0,1-.77.26c-.67-.15-1.43-.27-1.81.34-.68,1.1-1.63,2-1.91,3.39-.73,3.64-1.67,7.23-2.53,10.84.24-.41.48-.82.73-1.23a11.24,11.24,0,0,1-.15,1.3c-.62,2.69-1.27,5.38-1.89,8.08a3.27,3.27,0,0,0,0,.7l.92-.15c-.1.64-.19,1.26-.27,1.79l.7.87c.24-.51.5-1,.75-1.58l.27.09c-.27,1,.1,2-.53,2.94l.65-.19.11.26.14,0c0-.25-.08-.49-.13-.73l.41.06-.36-1.3.11-.1.6.66,5-21.09A1,1,0,0,1,110,50c-.32,1.57-.68,3.13-1,4.69q-.61,2.79-1.21,5.58c-.28,1.31-.54,2.64-.84,4-.37,1.62-.81,3.23-1.15,4.86-.22,1.07-.33,2.17-.5,3.26a2.1,2.1,0,0,1-.2.63,15.82,15.82,0,0,0-.87,1.75c-.27.85-.35,1.76-.61,2.6-.14.46-.58.82-.74,1.27a24.17,24.17,0,0,0-.9,3.23,10.9,10.9,0,0,0,0,2.14l.36.07a5,5,0,0,0,.61-1c.66-2,1.29-4.08,1.91-6.13.41-1.34.81-2.69,1.12-4.06a6.85,6.85,0,0,0,0-1.62,4.65,4.65,0,0,0,.67-1.06q.81-2.91,1.52-5.87c.91-3.84,1.77-7.68,2.67-11.52.14-.59.35-1.15.58-1.89.49,1.17.9,2.11,1.28,3.07.06.17-.07.41,0,.59a3.43,3.43,0,0,0,.53,1.36c.31.34.93,1.39.8,1.88s-.32,1.05.55,1.08c.09,0,.23.23.25.37.1.69.37,1.19,1.44,1.12-.45.28-.66.39-.85.53a.8.8,0,0,0,.17,1.41c.11,0,.25.12.29.21.31.71.61,1.41.88,2.13a1.93,1.93,0,0,1,0,.59h-.13l-.36-.83-.19.08c.23.7.44,1.41.7,2.11a5.1,5.1,0,0,1,.31,3.55,37.23,37.23,0,0,0-.9,3.82,7.71,7.71,0,0,0-.09.84l.16,0c.17-.56.34-1.12.54-1.82V75.6l.2.06.5-.85c.25.4.39.93.7,1.07s.76-.18,1.22-.32l1,2.68.22-.08c-.14-.49-.27-1-.41-1.47l.26-.06.75,2.89c-.15-.23-.31-.45-.46-.67l-.18.11c.18.66.37,1.32.55,2l.28,0c0-.36-.06-.71-.08-1.07l3.15,10-.19.08-.31-.33-.23.12a2.54,2.54,0,0,1,1.14,2.53l-.27-.45-.13.06c.54,1.78,1.09,3.55,1.66,5.39l.48-.39c.17.6.33,1.15.48,1.7l-.19.16L126.6,98l-.25.19c.69,1.24.62,2.72,1.75,3.91.8.86,1,2.3,1.43,3.5.52,1.46,1,2.93,1.47,4.41a4.4,4.4,0,0,1,.45,2c-.16.86-.15,1.41.53,1.92a6.61,6.61,0,0,1,.78.9H132l-.11.23c.28.16.71.27.81.51a21.69,21.69,0,0,1,.67,2.39c0,.18,0,.48.06.54.61.37.63.35.64,1.17l-.5-.33c.19.47.35.88.55,1.39l.12-.53a3.85,3.85,0,0,1,.86,2.55,2.23,2.23,0,0,0,.36,1.61,8.52,8.52,0,0,1,1.34,2.59c.13.35-.07.74,0,1a3.25,3.25,0,0,0,.69,1.22,2.75,2.75,0,0,0,0,.78c1.06,2.75,2,5.56,3.26,8.23a24,24,0,0,1,2.07,9.82c0,1.15,0,2.3,0,3.45H143c.48-3.13,0-6.25-.3-9.37,1,3.22.75,6.58,1.12,9.88a38.76,38.76,0,0,0,.24-7.3c.18,1.86.23,3.72.29,5.58,0,.39-.12.85.05,1.15a5.17,5.17,0,0,0,1,1.05,3.78,3.78,0,0,0,.47-1,16.81,16.81,0,0,0,.08-2c0-1.05,0-2.1,0-3.16a.51.51,0,0,1,.12.31c.19,1.57-.36,3.19.38,4.71.06.13-.05.35,0,.49a3.33,3.33,0,0,0,.36.56c.21-.17.57-.33.6-.53.19-1.55.35-3.1.45-4.65.07-1,0-2.09,0-3,.54,2.4,0,5.11,1,7.68a2.06,2.06,0,0,0,.64-1,12.89,12.89,0,0,0,.2-2.4c-.07-3.35-.17-6.7-1.39-9.89-2.89-7.52-5.81-15-8.61-22.59-1.84-4.94-3.51-10-5.19-15-1.15-3.41-2.19-6.84-3.26-10.27q-1.31-4.2-2.58-8.42c-1.38-4.62-2.76-9.23-4.1-13.86a2.39,2.39,0,0,1,0-1.3c.78-2.7,1.6-5.38,2.42-8.07a10,10,0,0,1,.41-.92,10.6,10.6,0,0,1,1.16,1.25c1.35,2.09,2.66,4.2,4,6.3.3.48.64.94.89,1.44s.35,1,.59,1.49c.5,1,1.61,1.49,1.94,2.59l.05.06c.66.68,1.31,1.36,2,2a5.35,5.35,0,0,0,6.38,1.15.65.65,0,0,1,.33-.06c.93.25,1.37-.33,1.62-1a6.36,6.36,0,0,0,.53-2.34,62.17,62.17,0,0,0-.78-8.53,51.31,51.31,0,0,0-2.47-7.72,28,28,0,0,0-2-3.93c-.52-.93-.56-1.14.27-1.72,1.9-1.31,3.81-2.61,5.75-3.86,1-.63,1.52-.29,1.81.86a27.21,27.21,0,0,0,1.23,3.87c.29.69,0,.68-.58.8,1.57.6,1.11,2.1,1.76,3.09l-.19.13-.47-.24c.1.33.19.61.28.93l.62-.15c.33.92.64,1.79.94,2.66.11.33.18.67.31,1,.34.85.74,1.68,1,2.55.24.71.25,1.51.55,2.19.83,1.9,1.74,3.76,2.65,5.62a1.42,1.42,0,0,0,1.62.9c.11,0,.29-.1.31-.07.67.94,1.62-.44,2.32.28a3.64,3.64,0,0,0,.4-.36c.42-.41.79-.78,1.5-.48.21.09.75-.22.93-.49a15.89,15.89,0,0,0,2.22-5.34c.31-1.26.61-2.52.94-3.9,1.32.8,2.79,1.24,3.69,2.61l.66-.25c0,.92.7,1,1.26,1.16s1.24.12,1.63.44a4.9,4.9,0,0,0,2.46,1.12,18.12,18.12,0,0,0,2.55.19,11.84,11.84,0,0,0,6.19-1.35A52.25,52.25,0,0,0,192.08,59a27.84,27.84,0,0,0,7.64-8.8c.79-1.46,1.4-3,2.08-4.52H202l.08,1.29a5.2,5.2,0,0,1,.63.79c.58,1.11,1.11,2.24,1.66,3.36.12.24.27.47.37.72.35.88.63,1.79,1,2.66s1,2,1.47,3c.52,1.18,1,2.39,1.42,3.59a7.45,7.45,0,0,1,.22,1.29c.82.41.95,1.39,1.24,2.56l-.57-.8-.17.17.82.76a1.69,1.69,0,0,1,.39.5c.53,1.22,1,2.46,1.55,3.67s1.32,2.5,1.86,3.8c.62,1.45,1.09,3,1.63,4.45.47,1.27.9,2.56,1.43,3.81.89,2.08,1.86,4.12,2.75,6.2a7.36,7.36,0,0,1,.23,1.43,6.88,6.88,0,0,0,.39,1.16,7.49,7.49,0,0,1,.42.72c.08.25,0,.57.07.81.33.89.68,1.77,1.08,2.63a7.77,7.77,0,0,0,.71,1.08v.67c.53-.29.37.18.43.4.16.61.25,1.25.47,1.84.33.91.86,1.77,1.11,2.7.21.77,1,1.21,1,2.11,0,.39.36.79.61,1.3.05-.24.07-.35.13-.6.26.52.45.94.68,1.34a4,4,0,0,0,2.06,2.14,9.75,9.75,0,0,0,7.89-.92,7.56,7.56,0,0,0,3.12-4c1.6-3.86,1.35-7.79.18-11.69a53.45,53.45,0,0,0-4-9.77A51.21,51.21,0,0,0,225.53,67c-2-1.82-4.19-3.48-6.27-5.24-.77-.65-1.46-1.4-2.23-2.14.93-.84,1.7-1.55,2.49-2.25a33.2,33.2,0,0,0,6.49-6.9c.31-.49.54-.42,1-.26,2.22.78,4.43,1.66,6.71,2.22a12.23,12.23,0,0,0,9.55-1.56,13.58,13.58,0,0,0,4.37-4.76c4.15-7.06,4.48-14.39,1.34-21.92l-.38-.89c2.32-.75,4.55-1.45,6.77-2.19a1.2,1.2,0,0,1,1.74.75,18.94,18.94,0,0,1,1.17,3.73c.53,4.14.89,8.31,1.35,12.47a10.75,10.75,0,0,0,1.18,4.34L261,42c.65,1.2,1.25,2.41,2.54,2.93a20.94,20.94,0,0,0,3.76,1.16,6,6,0,0,0,2.12-.36c.13,0,.27-.12.38-.09a3.28,3.28,0,0,0,3.28-.95,20.72,20.72,0,0,0,4.55-6.35c.33-.69.61-1.4.91-2.1a9.07,9.07,0,0,0,.88.75,23.32,23.32,0,0,0,3.12,2,10.21,10.21,0,0,0,6.23.3,32.39,32.39,0,0,0,16.11-8.17,3.68,3.68,0,0,0,.86-1.73C305.83,29.06,305.47,28.59,305.19,28.35ZM173,44.68a57.73,57.73,0,0,1,6-9.34,18.69,18.69,0,0,1,2-1.89.77.77,0,0,1,.67-.19,15.44,15.44,0,0,1,2.76,1.61,1.65,1.65,0,0,1,0,2.36,13.94,13.94,0,0,1-1.82,1.94c-1.35,1.2-2.72,2.38-4.14,3.48s-2.63,1.86-4,2.77c-.55.37-1.12.69-1.67,1.06a8.79,8.79,0,0,0-.74.6l-.17,0C172.27,46.27,172.57,45.43,173,44.68ZM219.22,68.9c1.9,2,3.93,3.85,5.68,5.95s3.22,4.42,4.8,6.61l-.34.53c1,.5.71,1.66,1.23,2.43a12.11,12.11,0,0,1,1.24,2.74A65.37,65.37,0,0,1,234,93.9a12.77,12.77,0,0,1-.83,8.79,4.86,4.86,0,0,1-.49-.72q-1.83-4.29-3.65-8.6-3.35-8-6.67-16c-1.07-2.56-2.11-5.13-3.15-7.7a4.3,4.3,0,0,1-.16-.73Z"/><path d="M102.7,58.82l0,0,0,0Z"/><path d="M73.78,84.29,72.64,85V83.81c-.41.08-.82.15-1.23.25-.1,0-.16.16-.26.2-.62.27-1.24.54-1.87.79a7.35,7.35,0,0,0-1.72.64c-1.5,1.12-2.91,2.38-4.41,3.5S60,91.45,58.41,92.5c-.8.51-1.6,1.18-2.69.82a15.19,15.19,0,0,1-6.92-4.6.72.72,0,0,1,0-1c1.48-2.26,3-4.49,4.37-6.82a33.23,33.23,0,0,0,2.19-4.68,10.86,10.86,0,0,0,.09-8.59c-.31-.71-.92-1.28-1.23-2-.89-2-2.72-2.57-4.61-3a.92.92,0,0,0-.56.09c-1.36.68-2.8,1.14-4.16,1.84s-1.85,1.92-2.7,2.94-.66,2.39-1.63,3.27a.53.53,0,0,0-.07.46c.35,1-.19,1.75-.62,2.55,0-.28.09-.56.13-.84l-.21-.05c-.26,1-.54,2-.76,3a18.08,18.08,0,0,0,.72,10.69c.13.32.3.81.54.87a.7.7,0,0,1,.52,1A3.77,3.77,0,0,1,40,89.77c-.67.73-1.1,1.63-1.74,2.41a45.9,45.9,0,0,0-3.83,5.68c-.85,1.41-1.49,2.94-2.22,4.42-.14.28-.26.56-.46,1a4,4,0,0,1-.26-.52c-.81-2.25-1.64-4.48-2.41-6.74q-2.27-6.68-4.49-13.37c-1.1-3.3-2.14-6.62-3.28-9.91-.73-2.1-1.6-4.16-2.43-6.23a4.84,4.84,0,0,0-3.94-2.95,1.3,1.3,0,0,0-.73.08,13.32,13.32,0,0,1-3.37,1.28,1.14,1.14,0,0,0-.7.65,22.81,22.81,0,0,0-1.5,3.67c-1.13,4.46-2.1,9-3.22,13.42S3,91.57,1.8,96c-.14.5-.33,1,.12,1.45,0,0,0,.2-.09.35l-.37-.51c-.33,1.4-.62,2.63-.9,3.87l.23,0,.4-1.26.15,0c-.17.68-.33,1.36-.52,2.14-.12-.29-.19-.47-.25-.65H.41c-.14.6-.27,1.2-.41,1.8l.25,0c.11-.22.21-.45.38-.83.07.78.12,1.37.16,2l.17,0,.41-.82c.3.33.58.92,1,1,1,.27.57-1,1.13-1.33a2.82,2.82,0,0,0,.18.67,6.54,6.54,0,0,0,.48.69c.18-.22.38-.43.54-.66a.8.8,0,0,0,.09-.32c1-3.69,1.91-7.39,2.89-11.08a18.29,18.29,0,0,1,.75-2,1.61,1.61,0,0,1,0,.44q-1,3.9-2.07,7.8a11.1,11.1,0,0,0-.47,5.52c.89-.38,1-1.21,1.14-1.93.51-1.94,1-3.89,1.46-5.84q2.33-9,4.64-18c.39-1.55.72-3.11,1.08-4.67l.24,0c.74,2.24,1.47,4.49,2.21,6.73l.22-.06v-.72c.25.76.87,1.28.15,1.9,0,0,0,.21.06.31.55,1.63,1.09,3.26,1.65,4.89a2.31,2.31,0,0,0,.16.31c.16-.11.28-.21.61-.46-.1.56-.17.9-.23,1.24.18.1.46.16.52.31a21.72,21.72,0,0,1,.77,2.18c0,.06-.24.21-.4.34.18.17.6.38.73.71.49,1.17.88,2.39,1.3,3.59q.89,2.53,1.74,5.07c.09.26.25.69.15.79-.72.67.17,1.09.05,1.69l.53-.39c-.09.55-.16.93-.23,1.32l.12,0,.25-.38.52.85-.62.06c.11.38.19.69.29,1l.51-.45c.15.61.49,1.18.36,1.6-.25.81-.19,1.31.63,1.67.15.06.19.41.24.64a3.19,3.19,0,0,1-.42.16,4.25,4.25,0,0,0,.27,1c.29.49.92.84.53,1.56a1.91,1.91,0,0,1,.77,2.22c-.09.31.07.7,0,1-.15.75-.41,1.48-.57,2.23-.6,2.77-1.28,5.52-1.72,8.31a69.42,69.42,0,0,0-.85,8.12A60.5,60.5,0,0,0,26,146.9c.13.67.32,1.32.49,2l.23,0c-2.12-9.58-2.4-19.14.18-28.67-.15,1.12-.39,2.22-.59,3.34a60.69,60.69,0,0,0-.85,12.91,67.36,67.36,0,0,0,1.67,12.65c.48,2.12,1.14,4.21,1.7,6.31a3.26,3.26,0,0,1,.24,1.44c-.27,1.11.28,1.79.89,2.6a23.85,23.85,0,0,1,1.86,3.22,8,8,0,0,0,5.42,4,13.1,13.1,0,0,0,7.31-.42c4.17-1.36,8.39-5.53,5.78-12-1.33-3.31-2.51-6.68-3.76-10q-2.48-6.6-4.93-13.21-3.22-8.7-6.41-17.42a1,1,0,0,1-.07-.62,67.09,67.09,0,0,1,6.15-15.2c.89-1.51,1.94-2.92,3-4.35a.85.85,0,0,1,.77-.24c.65.33,1.23.78,1.85,1.15A25.64,25.64,0,0,0,50,96.11a13.66,13.66,0,0,0,13.53-1.44c2.31-1.54,4.5-3.26,6.74-4.92Q72,88.42,73.8,87C75,86.08,75,84.92,73.78,84.29Zm-19-12.51v0Zm-.21,1.77a7,7,0,0,0,.15-1A7,7,0,0,1,54.59,73.55Zm-19.38,60c.12.33.27.64.46,1.05l.43-.09.63,1.64-.25.11-.45-.9-.11,0,.39,1.14a.93.93,0,0,1,.78,1.5c.31.56.59,1,.82,1.5.06.11-.08.3-.07.44a2.58,2.58,0,0,0,.12.57c.88-.14.36.64.75.8l-.18.14L38,141c.28.65.46,1.09.67,1.58l.31-.52c.25,1.08,1.13,1.79.71,3a2.91,2.91,0,0,0,1.21,2.53c.12.06.16.26.3.53l-.56-.1a.51.51,0,0,0,0,.18c.6,1.57,1.2,3.14,1.82,4.7,0,0,.09,0,.13,0,.17.47.34.88.48,1.3s.15.63.24.94a12.44,12.44,0,0,0,.58,1.82,4.72,4.72,0,0,1-.23,4.32c-.42.82-1.48,1.34-2.3,1.92-.17.13-.59,0-.85-.11a7.27,7.27,0,0,1-3.09-3.19A37.7,37.7,0,0,1,34,150.49a74.37,74.37,0,0,1-2.21-12.83A50.41,50.41,0,0,1,32,126.75c0-.17.08-.33.11-.47l.94.29s.08.13,0,.16c-.62.59-.14,1.13.07,1.66C33.84,130.11,34.53,131.81,35.21,133.51ZM48,77.52c-.6,1.2-1.2,2.41-1.79,3.62a9.42,9.42,0,0,0-.36,1,7.6,7.6,0,0,1-.24-.77,18.59,18.59,0,0,1,.78-7.91c.47-1.53,1.1-3,1.7-4.51.11-.26.42-.43.64-.65a4.5,4.5,0,0,1,.55.69,6.3,6.3,0,0,1,.69,4.48c-.07.31-.19.61-.29.91l-.1,0V71.09h-.09a26.61,26.61,0,0,1-.22,3,18,18,0,0,1-.88,2.72A5.72,5.72,0,0,1,48,77.52Z"/><path d="M218.82,11.65c1.63,1,3.14,2.46,5.34,1.72.82.48,1.22.11,1.35-.84a4.32,4.32,0,0,0,.94.45.93.93,0,0,0,.72-.15,1.53,1.53,0,0,0-.18-2.28,12,12,0,0,0-1.11-.75c-2.81-1.81-5.61-3.64-8.45-5.39a8,8,0,0,0-2.27-.82c-.2-.06-.57.18-.71.38s-.33.72-.87.57c-.1,0-.25.15-.4.2a3.25,3.25,0,0,1-.89.27,2.29,2.29,0,0,1-.71-.24c-.15.63-.28,1.18-.44,1.9.24.18.69.55,1.18.87C214.48,8.92,216.62,10.33,218.82,11.65Z"/><path d="M171.06,26.29c.65.78.94.79,2,.1.48.64.74.64,1.27,0l.92-1.06c0,.54.05.78.09,1.32.46-.45.77-.72,1-1,1.23-1.47,2.47-2.94,3.64-4.46a2.88,2.88,0,0,0,.56-1.52,1.46,1.46,0,0,0-.63-1c-.12-.09-.55.19-.81.33a4.26,4.26,0,0,0-.57.43V18.24a5.37,5.37,0,0,0-1.28.24c-.7.29-1.36.68-2,1,0,0-.12,0-.15,0-.58-.44-1,.06-1.28.36-1.66,1.74-3.33,3.48-4.05,5.54l.77,1.12Z"/><path d="M7.44,46.2a4.2,4.2,0,0,0,1.9.41,10,10,0,0,0,3-.44c1.94-.68,3.83-1.5,5.7-2.34A1.82,1.82,0,0,0,19,42c0-.91-.61-1.22-1.39-.76-.16.08-.33.14-.58.25,0-.36.05-.59.08-1a2.55,2.55,0,0,0-.84-.07c-1.21.4-2.43.79-3.6,1.28-1.69.71-3.35,1.5-5,2.27C7,44.3,6.83,45.92,7.44,46.2Z"/><path d="M100.58,75.19Z"/><path d="M103.23,71.6h0l0,0Z"/><path d="M101.35,72.16c0,.51.22,1.07,0,1.46s-.74.73-1.07,1l.56.5-.11.13-.18-.08-1.32,3.2L99,78.31c-.06-.16-.12-.32-.17-.48a2.11,2.11,0,0,0-.56,1.1,4,4,0,0,0,.72.33l-1,.23c0,.36-.1.76-.16,1.17-.28-.36-.56-.5-.88,0l.49.06c0,.24,0,.53-.13.7-.67.9-.38,1.85-.17,2.82.1-.3.21-.6.39-1.15.22.37.34.6.48.8s.3.48.49.51a.79.79,0,0,0,.61-.33,7,7,0,0,0,.32-.91c.06-.13.25-.2.38-.3.07.24,0,.35,0,.44.05.37.14.74.22,1.11l.8-.82a.19.19,0,0,0,0-.08c.4-1.27.82-2.53,1.18-3.81.54-1.9,1.07-3.8,1.55-5.72a12.08,12.08,0,0,0,.19-1.88l-.55-.5C103,73,102,72,101.35,72.16Z"/><path d="M102.71,58.83l0,0s0,0,0,.06Z"/><path d="M101.54,64.77c.42-1.66.84-3.32,1.22-5a3.15,3.15,0,0,0-.06-.91l-1.44,6.23A.45.45,0,0,0,101.54,64.77Z"/><path d="M218.1,34.89V30.1H218v4.79Z"/><path d="M26.64,149.71c.16.69.32,1.38.49,2.08l.24-.06-.53-2.08Z"/></g></g></svg>