<svg xmlns="http://www.w3.org/2000/svg" viewBox="0 0 304.47 170.3"><g id="Calque_2" data-name="Calque 2"><g id="P2_m1_1"><path d="M303.77,162.27c-2.15-3.73-4.2-7.51-6.21-11.31-5.88-11.06-11.81-22.11-17.56-33.25-3.53-6.84-6.76-13.85-10.15-20.77-2.08-4.25-5.14-7.3-10-8.35a6.85,6.85,0,0,0-4.56.24A42.64,42.64,0,0,1,249,91.49a8.15,8.15,0,0,0-4.85,3.45,40.46,40.46,0,0,0-3.14,5.25c-2.35,4.86-4.54,9.8-6.86,14.68-3.69,7.77-7.39,15.54-12.2,22.71-.41.61-.94,1.15-1.46,1.78a4.71,4.71,0,0,1-.62-.67c-.44-.9-.88-1.79-1.26-2.71-5.48-13.35-8.2-27.37-10.06-41.61-.82-6.28-1.87-12.54-3.07-18.77A32.75,32.75,0,0,0,203,68.37c-1-2.24-3.18-3-5.44-3.82a7.38,7.38,0,0,0-6.56.37A50.37,50.37,0,0,1,185.64,67a7.13,7.13,0,0,0-1.65.84c-3.67,2.83-5.6,7-7.92,10.78-1.21,2-2.26,4.13-3.42,6.18-1.53,2.73-3.12,5.44-4.63,8.19-.57,1-.89,2.21-1.51,3.2s-1.52,1.67-2.13,2.61a87,87,0,0,1-11,14.42c-1.14,1.15-2.42,2.17-3.65,3.22a1.39,1.39,0,0,1-2.29-.28,26.48,26.48,0,0,1-2.33-3.52c-3.31-6.73-4.67-14.07-5.39-21.39-1-10.53-1.27-21.13-1.89-31.7-.52-8.84-1-17.69-1.73-26.51-.34-3.83-1.51-7.58-4.86-10-1-.71-2.35-.81-3.37-1.46a8.77,8.77,0,0,0-6.15-1.29,14.4,14.4,0,0,0-3,.72,93.84,93.84,0,0,0-9.22,3.78,50.34,50.34,0,0,0-6.32,4.44,56.59,56.59,0,0,0-5,3.72c-2.68,2.44-5.22,5-7.79,7.57a20,20,0,0,0-1.36,1.68,15.08,15.08,0,0,0-2.17,1.31c-.43.29-.89.75-1.32.73s-.72-.63-.89-1.06C83,38.79,81.53,34.29,79.59,30A21.15,21.15,0,0,0,69.39,19.1c-1.06-.5-2.16-.89-3.28-1.35.15-.31.18-.5.28-.57,3.24-2.11,6.45-4.27,9.76-6.25a2.87,2.87,0,0,1,2.29.26c3.22,1.7,5.54,4.45,8,7,1.38,1.44,2.55,3.28,5,3.08a.71.71,0,0,1,.46.1c1.46,1.18,2.57.72,3.41-.86a9.76,9.76,0,0,0,1.29.73c.63.24,1.3.39,2,.58l.12-1.77.18-2.52.66-.16c.41.52.81,1.06,1.24,1.56s1,1.05,1.45,1.56a4.43,4.43,0,0,0,1.16-6.18c-3.59-4.62-7.44-9-12.84-11.51A38,38,0,0,0,81.73.17c-3.78-.71-7.26,1-10.84,2A46.67,46.67,0,0,0,59.35,7.38a100,100,0,0,0-10.74,7.84C45,18.11,41.8,21.43,38.21,24.3A54.76,54.76,0,0,0,25.14,38.85c-3.83,6.42-7.44,13-10.88,19.62C11.48,63.84,9,69.36,6.56,74.91A81.68,81.68,0,0,0,.21,102a64,64,0,0,0,2.53,24.25c.74,2.32,1.77,4.54,2.67,6.81l.4-.16-.66-2.08A54.24,54.24,0,0,1,8.43,136c2.36,4.29,6.1,6.79,10.63,8.24,7,2.22,13.91,1.79,20.9.05a46.29,46.29,0,0,0,19.53-10.5,86.06,86.06,0,0,0,12.44-13.91A84.33,84.33,0,0,0,86.85,86.1a85.19,85.19,0,0,0,1.33-24.89,2.66,2.66,0,0,1,.52-2C92.8,55.42,97,51.7,101.14,48c3.89-3.51,7.76-7,11.66-10.51,1.59-1.41,3.25-2.73,5.29-4.43,2.5,11.47,1.76,22.71,3,33.77-.24-10.91.16-21.84-1.55-32.69a1.92,1.92,0,0,1,.53.93c.56,4.3,1.37,8.59,1.59,12.91.51,9.74.62,19.49,1.09,29.23.29,6.12.85,12.23,1.44,18.32.35,3.58,1,7.12,1.53,10.67-3.35-12.61-3.89-25.58-4.66-38.54a1.28,1.28,0,0,0-.4,1c.36,6.8.64,13.61,1.11,20.4a100,100,0,0,0,4.46,23.75c.68,2.11,1.67,4.12,2.52,6.18l.42-.18-.71-2.09a1.8,1.8,0,0,1,.82,1c.9,2,1.62,4,3.27,5.53,3.43,3.15,7.65,4.28,12.13,4.4,10.32.29,18.66-3.86,25.36-11.65,7-8.16,12.49-17.32,17.75-26.65.49-.86,1-1.71,1.51-2.56l.54.13q1.2,8.44,2.41,16.88l.73-.09q-1.18-9.39-2.38-18.79l.55-.06q2.84,18.89,5.66,37.76a32.08,32.08,0,0,1-.71-3.2c-.87-4.36-1.75-8.73-2.66-13.08a6.76,6.76,0,0,0-.61-1.35l-.43.17a148.28,148.28,0,0,0,4.8,22.52l1.39-.45c.22.89.41,1.64.6,2.39l-.3.1-1-1.11a1.75,1.75,0,0,0-.09,1.33c1,2.93,2,5.85,3,8.77.26.74.35,1.69,1.61,1.5.22,0,.55.7.95,1.25l-1.4.17c.7,1.38,1.34,2.62,2,3.87l.31-.15-.63-1.77.36-.11c.33,1,.67,2,1.06,3.22a4.36,4.36,0,0,1,1.09,1.1,8.48,8.48,0,0,0,5.09,4.17,20.38,20.38,0,0,0,11,.58c3-.66,6-1.27,8.49-3.45a48.33,48.33,0,0,0,9-11.06,235.34,235.34,0,0,0,14-27.63c.46-1,1-2,1.67-3.5.63,1.23,1,2,1.42,2.8,1,2.17,2,4.39,3.1,6.53q5.91,11.46,11.91,22.86c4.54,8.63,9.08,17.26,13.73,25.82.55,1,.61,2.93,2.66,2.6.16,0,.4.45.58.7l.93,1.34.82-.63c1.08.49,2,.95,2.94,1.32,1.83.71,1.25-1.28,2.12-2,.16.27.3.49.44.71.5.77,1.14,1.68,2.09,1.06.49-.31.63-1.34.73-2.08a21.78,21.78,0,0,0,0-2.8l.55-.09c.67,1,1.26,2.12,2,3.08s1.59,1,2.16-.19A5.44,5.44,0,0,0,303.77,162.27ZM35.46,58.61A16.74,16.74,0,0,1,39,47.32c4.77-5.9,9.34-12,14.26-17.75,2.77-3.24,3.39-2.81,6.14,0a47.72,47.72,0,0,1,4.13,5,7,7,0,0,1,1,2.25q2.16,7.53,4.24,15.08a26.15,26.15,0,0,1,.88,4.62,2.72,2.72,0,0,1-.79,2.12c-4,2.92-8,5.75-12,8.53a28.14,28.14,0,0,1-9.95,4.43c-5.41,1.19-8-.46-10.14-5.64-.92-2.28-1.13-4.85-1.66-7.29Zm26.6,48.53a83.56,83.56,0,0,1-6,9.91,122.94,122.94,0,0,1-8.91,10.06,35.9,35.9,0,0,1-8.6,6.74,11.56,11.56,0,0,1-8.43,1.61c-2.66-.61-4.45-2.49-6-4.57-3.29-4.39-4.79-9.53-5.79-14.81-2.16-11.46-.5-22.66,2.65-33.72.43-1.51,1-3,1.51-4.46a13,13,0,0,1,.95-1.69c5.5,4.92,11.87,6.19,18.65,5.93,9.42-.35,18-3.35,26.15-8l2.72-1.61c.06,1.08.17,1.88.13,2.67A73.67,73.67,0,0,1,62.06,107.14Z"/><path d="M251,17.14c1.73,4.67,3.27,9.42,5,14.09a35.44,35.44,0,0,0,2.26,4.19c0-1.13,0-2,0-2.93,0-.22.37-.55.61-.59s.55.25.64.47a18.71,18.71,0,0,0,1.11,2.76,2.52,2.52,0,0,0,1.74,1.11c1,0,.91-1,.69-1.69-.38-1.27-.85-2.51-1.21-3.78-.08-.28.1-.63.15-.86,1.68.17,1.71,1.37,2,2.5s.68,2.24,1,3.33c1.57-.27,2.14-1,1.95-2.32a13.32,13.32,0,0,1-.15-3.27,11,11,0,0,1,.87-2.44c1.1,2.51,2.06,4.72,3,6.93l.58,0c.27-.58.6-1.14.81-1.74.63-1.84.05-3.62-.54-5.32-1.5-4.38-3.08-8.75-4.74-13.08-.95-2.48-2.07-4.9-3.22-7.3a2.63,2.63,0,0,0-2.56-1.86c0,.73-.07,1.39-.12,2.38a12.49,12.49,0,0,0-1.57-2,21.54,21.54,0,0,0-2.52-1.55,8.8,8.8,0,0,0-.76,2.29c-.1,2.22-.52,3.05-2,3.32.54-1.81.18-2.63-.92-2.79l-2.44,3c-.64-.91-1.16-1.67-1.76-2.54a10.86,10.86,0,0,0-.46,2.26,12.61,12.61,0,0,0,.45,3.75C249.43,14.69,250.53,15.8,251,17.14Z"/></g></g></svg>