<svg xmlns="http://www.w3.org/2000/svg" viewBox="0 0 305.99 119.13"><defs><style>.cls-1,.cls-2{fill:#fe5f58;}.cls-1{opacity:0.2;}</style></defs><g id="Calque_2" data-name="Calque 2"><g id="Phrase_2" data-name="Phrase 2"><g id="P2_m2_2"><path class="cls-1" d="M304,67.6c-2.43-4.15-7.35-6.77-11.33-9.15-5-3-10.34-5.63-15.36-8.7-5.38-3.28-10-7.13-16.37-8.27-6.63-1.18-13.17.35-19.66,1.66-6,1.21-13.65,3.08-19-1-4.81-3.72-7.8-9.47-12.2-13.63-5.46-5.15-11.46-6.32-18.7-5.49-2.24.26-5.1.86-7.1-.56s-3.06-4.85-4.17-7.07c-3.42-6.82-8.47-11-16.1-12.42a21.75,21.75,0,0,0-20.7,7C134.64,20.07,135.63,33,132.78,45c-4.09-5.4-9.31-9.54-16.91-9.15a15.34,15.34,0,0,0-7.09,2.09c-1.81,1.07-2.35,2.39-3.53,1.5-1.71-1.28-2.69-4.32-3.91-6.08a21.26,21.26,0,0,0-4.76-5c-9-7-22.45-10.76-32.63-3.87-5.26,3.56-8,9.08-9.82,15-.88-3.15-2-6.24-3.13-9.24-3.23-8.39-7.36-17-13.7-23.55-5.55-5.7-13.62-8.87-21-4.69-6.91,3.9-10.95,11.75-13.45,19C-1.86,34.39.15,49.73,2.63,63.48,5.23,77.86,9.51,93.7,19.22,105c4.43,5.18,10.68,9.26,17.66,9.49,7.14.25,13.6-3.08,19.16-7.33,8,8,18.56,11.75,30.4,10.94,10.51-.72,20.61-4.39,28.39-11.21a23.42,23.42,0,0,0,9.89,9.89c6.52,3.27,14.34,2.79,21,.27a46.43,46.43,0,0,0,10.64-5.43c1.61-1.16,3.51-3.3,5.41-3.9s2.26.08,4.07.95c8,3.87,14.94-2.34,21.14-7.12,20.37,14.6,47.5-4.44,68.07-10.08,6.89-1.89,13.89,1.11,20.76,1.87a32.4,32.4,0,0,0,15.47-2.26C300.49,87.51,310.24,78.17,304,67.6Z"/><path class="cls-2" d="M118.25,72.34c-.66-1.87-1.47-3.68-2.26-5.49-.61-1.41-1.93-1.78-3.27-2a1.93,1.93,0,0,0-.84.14c-.91.24-1.63,1-2.64,1a.59.59,0,0,0-.42.24,4.73,4.73,0,0,0-.93,1.35c-.81,2.73-1.54,5.48-2.29,8.23,0,0,.05.06.13.15l.45-1.13c.12.88-.4,1.9-.87,1.81-.16.62-.29,1.26-.5,1.87-.68,1.92-1.4,3.83-2.09,5.74a17.37,17.37,0,0,1-.63,1.8c-.23.47-.68.82-.94,1.27-.53.89-1,1.84-1.51,2.72s-1.18,1.73-1.79,2.62c-.23-.16-.33-.22-.42-.3a14.78,14.78,0,0,1-3.7-5.64,1.33,1.33,0,0,1,.07-.83,27.61,27.61,0,0,0,1.86-7,14.48,14.48,0,0,0-1.2-8.26c-.27-.56-.6-1.31-1.54-1-.08,0-.23-.06-.31-.14-.65-.72-1.29-.35-2,0a4.46,4.46,0,0,1-1.47.72A2.68,2.68,0,0,0,86.88,72a12.68,12.68,0,0,0-.53,1.72A23.59,23.59,0,0,0,86.76,86a2.2,2.2,0,0,1-.14,1.43,30.3,30.3,0,0,1-4.1,6.18c-.83,1-1.79,1.85-2.78,2.86a15.38,15.38,0,0,1-.88-1.9c-.87-2.69-1.71-5.38-2.54-8.08A24.73,24.73,0,0,0,73,79a8,8,0,0,0-8.69-3.13A18,18,0,0,0,60.94,77a47.48,47.48,0,0,0-4.43,2.55C54.7,80.7,53,81.94,51.16,83.1a6,6,0,0,1-2.06,1.06c-.58.12-1,.19-1.28.74a1.65,1.65,0,0,1-.26.29c-.18-.4-.37-.54-.68-.15s-.59.7-1,1.11l-.35-.87c-.63,2-.17,4-1,6,.08-1.12.16-2.24.23-3.37h-.2c0,.32-.05.65-.07,1a9,9,0,0,1-1.44,4.92,4.68,4.68,0,0,1-2.87,2.12,7.4,7.4,0,0,1-4.79-.66,16.7,16.7,0,0,1-7-6.78c-3.42-5.89-5.06-12.37-5.92-19-.59-4.61-.77-9.28-1.14-13.92,0-.39.06-.64.49-.73,2.79-.59,5.41-1.78,8.18-2.46,2.35-.57,4.65-1.34,7-2a1.4,1.4,0,0,0,.81-1.39,1,1,0,0,0-1-.86,2.45,2.45,0,0,1-.83-.3c-.24-.09-.5-.29-.7-.25-1.26.28-2.51.6-3.75.94-.77.21-1.52.51-2.3.73-2,.56-4.06,1.1-6.1,1.65l-1.79.53c0-.36,0-.57,0-.78,0-1.76,0-3.52.06-5.28.17-5.62.36-11.24.54-16.86.07-2.17.14-4.34.19-6.51,0-.82-.24-1.12-1-1.19-.15,1-.34,1.95-.42,2.93a22.42,22.42,0,0,0,0,2.46c0,.6.1,1.21.08,1.82,0,.46-.19.91-.23,1.36,0,.23.21.48.18.71-.05.49-.27,1-.3,1.45-.08,1.51-.12,3-.16,4.55-.06,2.46-.11,4.91-.15,7.37s-.09,5.16-.15,7.74a2.92,2.92,0,0,1-.15.65.47.47,0,0,1-.21-.38c0-3.58-.05-7.16,0-10.75,0-1.29.21-2.58.26-3.87.13-3.11.22-6.21.33-9.31.07-2.1.14-4.2.18-6.3,0-.38.05-.89-.55-.91s-.7.47-.86.88a1.24,1.24,0,0,0,0,.43q-.15,4-.28,8c0,.15,0,.29,0,.44s0,.23,0,.35c-.17-3.13.36-6.27-.14-9.58-.15.27-.18.41-.24.43-.82.26-.93.89-.94,1.63,0,1.84-.08,3.69-.15,5.53-.09,2.21-.25,4.42-.31,6.62-.15,5.75-.25,11.49-.38,17.23a2.2,2.2,0,0,1-.09.43.77.77,0,0,1-.14-.5c.07-4,.13-8,.24-11.93.16-5.25.38-10.5.54-15.75,0-1-.06-2.08-.1-3.11h-.32c-.41,10.56-.82,21.12-.93,31.68h-.38Q15.67,41,16,29a.39.39,0,0,0-.25.31c-.13,3.47-.28,6.94-.37,10.41-.11,4.17-.2,8.34-.22,12.51a2.34,2.34,0,0,1-1,2.12l.75.31-.69.28,0,.21L15,55c.31,6.6.61,13.23,2.11,19.73A114.45,114.45,0,0,1,15.65,55.9a144.48,144.48,0,0,0,2.48,22.52c-.27-1.08-.53-2.16-.8-3.24l-.29.08a47.26,47.26,0,0,0,2.06,7.38c.1-.34.15-.49.2-.64l.17.06c-.06.18-.13.36-.18.55s-.14.36-.09.49c.63,1.59,1.28,3.18,1.93,4.76.06.13.22.21.32.32a3.43,3.43,0,0,1,.56.71c.09.2,0,.52.1.69.33.5.76.93,1.09,1.43s.49,1,.83,1.5a18.22,18.22,0,0,0,5.84,5,17.46,17.46,0,0,0,13.78,1,9.52,9.52,0,0,0,5.59-4.42,10.25,10.25,0,0,0,1.41-4.74,2.2,2.2,0,0,1,1.5-2.13c2.12-1.12,4.08-2.55,6.11-3.84s4.21-2.63,6.3-4A1,1,0,0,1,66,79.7a14.75,14.75,0,0,1,1.74,2.35c1.89,3.54,2.59,7.47,3.87,11.2.56,1.66,1.31,3.26,2,4.88a1,1,0,0,0,.31.37s.16-.06.25-.1c0,.13,0,.26.07.39s0,.2.06.23a7.69,7.69,0,0,0,1.92,1.16,8.86,8.86,0,0,0,7.43-1.08,22.55,22.55,0,0,0,5.55-5.56l.77-1c.5.53.9,1,1.36,1.43a11.88,11.88,0,0,0,2.26,1.78c2.66,1.31,7.83,1.15,10.08-2.25,1.2-1.81,2.32-3.67,3.42-5.54.24-.41.42-.57.89-.4a8.2,8.2,0,0,0,1.6.42c3.09.42,6,.15,8.17-2.43,2-2.31,2.88-4.89,2-7.92C119.29,75.85,118.86,74.06,118.25,72.34Zm-3.88,9-.22,0-.15-2-.22,0a4.69,4.69,0,0,1,0,.53c-.09.77-.22,1.54-.28,2.32-.07.94-.9,1.38-1.33,2.08-.1.14-.51.17-.76.13-.75-.14-1.49-.35-2.25-.53,1.07-3.32,2.16-6.69,3.24-10.05h.31C113.17,76.33,114.58,78.64,114.37,81.29Z"/><path class="cls-2" d="M206.44,87.94c-1.46-.68-2.94-1.33-4.41-2a11.15,11.15,0,0,1-6.21-7.65c-.53-2-.09-4,.24-6,.36-2.19.77-4.37,1.14-6.56a1.8,1.8,0,0,0-.89-2.11A5,5,0,0,0,193,63c-1.38.35-2.75.73-4.1,1.16a8,8,0,0,1-3.74.63c-1.41-.21-2.82-.42-4.21-.71a3.38,3.38,0,0,1-2.28-1.4,3,3,0,0,0-.71-.58l-.42.51c-.35-.56-.72-1.09-1.39-.79-.24.11-.32.57-.45.82-.26,0-.67-.21-1-.1s-.52.54-.89,1l-.43-.79c-.35.34,0,1.11-1,.73.21.76.35,1.33.52,1.9a18.35,18.35,0,0,1,.55,6.22,19.7,19.7,0,0,1-2.77,8.77,32.45,32.45,0,0,1-1.91,2.77,5.05,5.05,0,0,1-.79.74c-1.14,1.09-2.29,2.17-3.56,3.37-.67-.9-1.23-1.53-1.66-2.25a25.39,25.39,0,0,1-2.68-7.31,2.47,2.47,0,0,1,.12-1.67,105.49,105.49,0,0,0,7.27-21.31,56.89,56.89,0,0,0,1.24-14.59c-.17-3.69-.59-7.37-1-11-.26-2.3-.6-4.6-1.06-6.86a3.06,3.06,0,0,0-4-2c-.9.35-1.81.67-2.7,1a2.52,2.52,0,0,0-.77.53,13.64,13.64,0,0,0-2.94,4.74c-.52,1.25-1,2.55-1.39,3.84-.48,1.45-1,2.91-1.31,4.4-.48,2.11-.87,4.25-1.24,6.38a77.67,77.67,0,0,0-1.07,14.68c.05,2.58.13,5.17.42,7.74.46,4.22,1.1,8.41,1.65,12.62a2.35,2.35,0,0,1-.08,1.27c-1.2,2.3-2.35,4.65-3.74,6.84A69.11,69.11,0,0,1,142,94.43c-1.94,2.11-4,4.1-6.09,6.07-.93.88-1.1,1.33-.5,2.31a4.51,4.51,0,0,0,.94.3,5.94,5.94,0,0,1,1.52,0,1.41,1.41,0,0,0,1.34-.23c.14-.08.36-.21.46-.16.54.3.88-.08,1.23-.34a17.2,17.2,0,0,0,1.63-1.33,74.25,74.25,0,0,0,11.14-13.29c.65-1,1.27-2,1.94-3,.61.48,1.27.79,1,1.69a.54.54,0,0,0,.15.39A20.88,20.88,0,0,0,158.64,89a5.61,5.61,0,0,0,3.45,1.51,12.17,12.17,0,0,0,10-3.68,26.81,26.81,0,0,0,5.53-7.72,20.14,20.14,0,0,0,2.16-8c.06-1.08.1-2.16.16-3.31,3.57.69,7.15.92,10.74-.43,0,.38-.06.57-.09.75-.32,1.88-.67,3.76-1,5.64a13.67,13.67,0,0,0,.29,7A3.4,3.4,0,0,0,191,82.58a2.37,2.37,0,0,1,.86,1.6c.06.58.81,1.09,1.28,1.61a11.68,11.68,0,0,0,4.07,2.82,27.21,27.21,0,0,1,2.69,1.24,8.55,8.55,0,0,0,4.87,1c.18,0,.46-.17.5-.32.14-.49.4-.3.72-.24a1.23,1.23,0,0,0,.91-.11A1.38,1.38,0,0,0,206.44,87.94ZM158.32,65a81.37,81.37,0,0,1,3-35.45C163.42,41.66,163,53.52,158.32,65Z"/><path class="cls-2" d="M291.44,76.13a12,12,0,0,0-2.39-.62c-1.42-.11-2.85,0-4.28-.05s-3.13-.06-4.7,0c-.8,0-1.62.17-2.41.11-1-.07-1.87-.4-2.81-.46a20.47,20.47,0,0,1-6-1.33,7.85,7.85,0,0,1-2.63-1.94,13.88,13.88,0,0,1-1.67-2.49A22.21,22.21,0,0,1,263.16,67a5.71,5.71,0,0,0-4.92-3.21c-1.9-.24-3.6.63-5.28,1.38a4,4,0,0,0-.88.78c-1.82.26-3.14,1.53-4.51,2.6s-2.69,2.47-4.06,3.76c-.06-.24-.09-.45-.15-.65-.4-1.52-.75-3-1.23-4.53a4,4,0,0,0-1.78-2.4,11.37,11.37,0,0,0-2.16-.79,4.09,4.09,0,0,0-3.45,1,1.74,1.74,0,0,0-.62-.08,14.2,14.2,0,0,0-4.19,2.48,12.47,12.47,0,0,0-1.73,1.52A9.42,9.42,0,0,0,226,71.92c-.08.2-.43.3-.65.44s-.23.08-.27.16c-.5.81-1,1.63-1.47,2.45-.15.27-.24.57-.39.91-.08.05-.3.11-.4.26-.95,1.5-1.93,3-2.81,4.53a4.56,4.56,0,0,0-1,2.71c-.22,0-.52,0-.62.08-.35.42-.62.9-.94,1.34a1.26,1.26,0,0,1-.53.45.63.63,0,0,1-.49-.31,32.58,32.58,0,0,1-2.12-4.62,14.19,14.19,0,0,1-.26-6.09,1.28,1.28,0,0,1,.4-.7c1.36-1.26,2.79-2.45,4.09-3.77A8.81,8.81,0,0,0,220.83,66c.49-1.76.19-2.94-1-3.73-.33-.21-.78-.22-1.13-.4a4.59,4.59,0,0,0-3.38-.35A22.44,22.44,0,0,0,212,62.77a3.56,3.56,0,0,0-1.52,1,19,19,0,0,0-1.33,2.67c.1.22.31.46.28.66-.2,1.5-.44,3-.68,4.48a4.35,4.35,0,0,1-.2.61l-.19,0,.14-1.41c-.17,0-.23.12-.25.2-.29,1.21-.29,1.22-1.46,1-.65-.12-.77,0-.65.65A.8.8,0,0,1,206,73a20.55,20.55,0,0,0-2.21.52c-.71.25-.69.44-.12.91.08.06.1.21.17.38l-.64-.28c0,.08-.05.16-.07.23a9,9,0,0,0,4.45,1c0,.73,0,1.33,0,1.93s0,1.18,0,1.76h.3V75.71h.23a4.43,4.43,0,0,1,.06.51A19.72,19.72,0,0,0,208.8,82a12.94,12.94,0,0,0,.74,1.68.55.55,0,0,0,0,.38c.59,1.18,1.21,2.34,1.85,3.5A3.43,3.43,0,0,0,213,89.25a8.82,8.82,0,0,0,6.45-.2,3.28,3.28,0,0,0,.87-.5,19.33,19.33,0,0,0,4.58-5.6c1.34-2.2,2.59-4.46,4-6.64a28.2,28.2,0,0,1,6.36-7.65c.59-.46,1.2-.42,1.43.25a19.06,19.06,0,0,1,.88,3.12c.36,2.26.62,4.54.89,6.81.09.69.08,1.4.11,2.1l-.22,0c-.5-3.73-.42-7.55-1.73-11.15A118.75,118.75,0,0,1,238.21,83l.36-.94c0,.33.06.54.1.75s.11.45.2.81c.24-.27.39-.42.54-.58.28.84,1,.89,1.87.06.11.7.54.8.94.38a4.91,4.91,0,0,0,.57-1.33l.7,1.36a6.48,6.48,0,0,0,.74-1.14,28.05,28.05,0,0,1,3-6,26.84,26.84,0,0,1,8.82-8.5c.35-.21.69-.33,1,.08s.72.91,1.09,1.35.51.93,1.16.91c-.44.82-.35.94,1,1.35l-.54.24a8.72,8.72,0,0,0,.82,1.4c.67.8,1.13,1.88,2.39,2,.09,0,.27.26.25.29-.25.36.12.45.28.51a39.25,39.25,0,0,0,3.74,1.41,44.93,44.93,0,0,0,10.19,1.35c1.73.08,3.47.08,5.2.1s3.74.06,5.61,0c.66,0,1.51.06,1.68-.74.54,0,1.2.16,1.33,0a4.37,4.37,0,0,0,.46-1.6C291.71,76.37,291.55,76.17,291.44,76.13Z"/><polygon class="cls-2" points="209.11 66.46 209.11 66.46 209.1 66.46 209.11 66.46"/><path class="cls-2" d="M78.23,45c1.61,2.52,3.28,5,4.91,7.5a22.76,22.76,0,0,0,1.27,2.06c.48.59.43,1.52,1.23,1.9,0,0,0,.22,0,.32a1.29,1.29,0,0,0,.24.5c.37.37.79.7,1.16,1.07.1.1.11.31.17.46a3.18,3.18,0,0,0,.25.63,3.69,3.69,0,0,0,1.35,1.37,10,10,0,0,0,2.25.73l.21-.72c.41.22.68,1,1.17.41.25-.32.15-.9.23-1.51a4.2,4.2,0,0,0,.53.7,1.41,1.41,0,0,0,.79.41c.17,0,.38-.38.48-.62a1.43,1.43,0,0,0-.24-1.49c-.65-.84-1.28-1.69-1.88-2.56-1.87-2.7-3.8-5.35-5.57-8.11-1.57-2.45-3-5-4.42-7.55C82,39.94,81.78,39.25,81,39c0,.28,0,.48-.08.75-.59-.36-.71-1.44-1.56-1-.28.13-.31.78-.49,1.3a2.54,2.54,0,0,0-.47-.28c-.13,0-.34-.1-.42,0-.28.23-.52.5-.78.75l-.64-.7-.19,0a7.79,7.79,0,0,0,.2,2.13A20.48,20.48,0,0,0,78.23,45Z"/><path class="cls-2" d="M192.6,52.13c.13-1.31.27-2.63.4-4l.11,0c-.05,1.13-.11,2.26-.16,3.39,0,.48.33.64.68.8s.65.06.7-.4.09-.9.14-1.35h.06c0,.26.05.52.09.93l.09-.49a3.76,3.76,0,0,1,.15.6,5.34,5.34,0,0,0,.41.68c.18-.22.46-.41.51-.65.16-.8.24-1.62.34-2.43l1.14-10.12a1.8,1.8,0,0,0,0-.4c-1.39-.57-1.15.9-1.75,1.35-.07-.24-.13-.46-.18-.68l-.23-.11-1.19,1.74c-.06-.36-.13-.86-.21-1.44C192.86,40.77,191.89,51.24,192.6,52.13Z"/><path class="cls-2" d="M196.62,50.91h.06l.15,1.29c.32-.37.57-.53.66-.76a6.11,6.11,0,0,0,.35-1.4c.35-3.11.68-6.22,1-9.33.12-1,.14-1-.86-1.42-1.12,3.88-1.1,7.9-1.55,11.86A.6.6,0,0,0,196.62,50.91Z"/><path class="cls-2" d="M192.91,40.45c-.56.92-1.59,10.14-1.22,11.24C192.1,47.87,192.5,44.17,192.91,40.45Z"/><path class="cls-2" d="M209.11,66.46Z"/><path class="cls-2" d="M208.64,70.22c.15-1.25.31-2.5.46-3.75l-.84,3.68Z"/><path class="cls-2" d="M16,25.59h-.19v3.12H16Z"/><path class="cls-2" d="M16.12,23H16v2.17l.15,0Z"/><path class="cls-2" d="M45,86l-.22,0c-.08.44-.16.89-.25,1.34l.31,0Z"/></g></g></g></svg>