<svg xmlns="http://www.w3.org/2000/svg" viewBox="0 0 305.53 129.95"><g id="Calque_2" data-name="Calque 2"><g id="P2_m4_2"><path d="M47.35,115.47c-.58-1.43-1.13-2.88-1.71-4.31-.74-1.81-1.49-3.61-2.28-5.39A15.42,15.42,0,0,0,41.94,103a5.56,5.56,0,0,1-1-3.54c0-.89-.13-1.79-.08-2.69.1-2-1.36-3.48-1.34-5.47,0-1-.84-2.08-1.29-3.13-.75-1.74-1.46-3.49-2.24-5.21a20,20,0,0,0-1.42-2.61,1.19,1.19,0,0,0-1-.47c-1.89.2-2.51,1.22-2.09,3.14a6.88,6.88,0,0,1,.16,2.21,6,6,0,0,0,1,3.7,23.14,23.14,0,0,1,1.47,3.43c.89,2.38,1.74,4.79,2.59,7.19a8.35,8.35,0,0,1,.64,2.29A34.86,34.86,0,0,1,36,114.1a21.69,21.69,0,0,1-6.52,10.24,7.31,7.31,0,0,1-5.33,1.92c-4-.16-7-2.13-9.64-4.85-2.38-2.45-3.74-5.59-5.09-8.61a46.14,46.14,0,0,1-2.56-8.93C6.2,101,5.83,98,5.42,95A33.66,33.66,0,0,1,5,85.77,5.69,5.69,0,0,0,4.66,83c-.47-1.21-1-2.63-2.74-2.4-.15-.49-.29-.92-.43-1.36l-.21,0c-.1.6-.2,1.2-.32,2l-1-.77A12.06,12.06,0,0,0,.72,83.5a15.42,15.42,0,0,1,.8,5.13c0,.94-.18,1.88-.16,2.82.06,3.79,1.35,7.46,1.27,11.28a2.19,2.19,0,0,0,.16.58l1.29,4.93c.37,1.39.67,2.81,1.11,4.18.92,2.88,2.75,5.3,4.14,7.94a21.45,21.45,0,0,0,5.45,6.14A14.81,14.81,0,0,0,24.46,130a9.48,9.48,0,0,0,4-.72,17.29,17.29,0,0,0,7.49-6.3,28.57,28.57,0,0,0,4-9.48c.26-1.12.53-2.22.85-3.57.35.65.57,1,.77,1.44.46.94,1,1.85,1.34,2.82.83,2.2,1.54,4.44,2.36,6.64A2.19,2.19,0,0,0,48,122.45c1.15-.11,1.2-.32,1.4-1.56a2.23,2.23,0,0,0-.4-1.57C48.34,118.09,47.87,116.76,47.35,115.47Z"/><path d="M305.32,20.94c-.34-1.06-.34-1.05-1.55-1.05a2.58,2.58,0,0,1-.76-.22,3.31,3.31,0,0,1-2.6,1.37,21.84,21.84,0,0,0-3.06.62c-.38.09-.75.24-1.14.31-.93.17-1.88.24-2.79.47-1.92.49-3.82,1-5.81,1.6-.11-.84-.28-1.58-.3-2.32-.12-4.15-.27-8.3-.29-12.45a23.68,23.68,0,0,0-.86-7.53A2.92,2.92,0,0,0,284.43.06c-.55-.29-1.9.49-1.73,1,.29.83-.36,1.48-.07,2.33a19.53,19.53,0,0,1,.76,5.92c.05,2,.43,4,.65,5.94a6,6,0,0,1,.11,1.92,14.2,14.2,0,0,0-.29,6.67,7.11,7.11,0,0,1,0,1.48,21.71,21.71,0,0,1-2.73.81,27.55,27.55,0,0,0-6.27,2c-.54.23-1.07.51-1.12,1.22h.63c-1,1.16-.94,1.23.41,1.83a2.93,2.93,0,0,0,2.29,0c2.27-.7,4.57-1.33,7-2a5.46,5.46,0,0,1,.13.86c-.08,2,.27,4.07.14,6.13a44.8,44.8,0,0,0,1.11,10.69c.9,5.09,2.57,10,3.91,14.93.19.71.68,1.35.83,2.06.57,2.74,1,5.51,1.6,8.24.48,2.18,1.13,4.32,1.69,6.49a1.88,1.88,0,0,0,1.83,1.4c1.36.16,2.18-1,1.8-2.55s-.83-2.77-1.21-4.16-.65-2.5-.92-3.77c-.51-2.34-.84-4.73-1.52-7a48.48,48.48,0,0,1-1.8-6.47,11.54,11.54,0,0,0-.52-1.57c-.38-1.29-.82-2.57-1.11-3.88-.44-1.95-.67-3.95-1.17-5.88-.91-3.44-.41-7-.93-10.44a4.74,4.74,0,0,1,.07-.74c0-.64,0-1.29,0-1.93,0-1.22-.58-2.45-.06-3.6,1.9-.59,3.7-1.2,5.53-1.68a10.08,10.08,0,0,1,2.93-.38,4.4,4.4,0,0,0,2.42-.59,3.78,3.78,0,0,1,1.66-.54,7.9,7.9,0,0,0,4.28-1.47C305.59,22.67,305.71,22.19,305.32,20.94Z"/><path d="M260.68,77.81c-.07-1.79-.39-3.57-.62-5.35-.24-2-.5-4-.75-5.94a26.13,26.13,0,0,0-.48-3.55c-.81-2.91-1.5-5.81-1-9,.95-.5,2.36,0,3.28-1.32-.62-.65-1.52-1.22-1.57-2.29,0,0-.07-.08-.11-.11-1.15-.8-2.27-1.65-3.47-2.36a3.74,3.74,0,0,0-1.74-.34,39.43,39.43,0,0,0-4.35,0,7.33,7.33,0,0,0-3.16.71c-2.76,1.75-5.7,3.39-7.21,6.55a5.58,5.58,0,0,1-.37.48c-.79,1.26-1.64,2.5-2.35,3.81a8.29,8.29,0,0,0-1,4.33,19.48,19.48,0,0,1-.38,3.72,14,14,0,0,0-.19,4.91c.34,1.85.06,3.75.58,5.61a3.36,3.36,0,0,0,.87,1.94,6.62,6.62,0,0,1,.78,1.08,4,4,0,0,0,3.95,2,7.7,7.7,0,0,1,2.09,0,5.35,5.35,0,0,0,4.15-1.4A23.63,23.63,0,0,0,253,75c1-1.6,1.89-3.27,2.82-4.9,0,0,.12.11.13.19q.66,4.42,1.31,8.86c.17,1.18.27,2.39.54,3.55a4.84,4.84,0,0,0,.91,1.64,1.55,1.55,0,0,0,1.72.17c.15.18.31.36.46.55,1.32-1.36,1.4-2.23.65-4A9.17,9.17,0,0,1,260.68,77.81Zm-7-17.76c-.23,1.63-.53,3.25-.7,4.88a16.24,16.24,0,0,1-1.45,5.48,30.93,30.93,0,0,1-6.12,8.11,2.52,2.52,0,0,1-1.18.58,15,15,0,0,1-2.22.22,3.71,3.71,0,0,1-3-2.72c-.09-.64-.11-1.29-.18-1.94-.05-.41.12-.87-.43-1.17-.18-.09-.22-.62-.18-.92.33-2.47.69-4.94,1-7.41.11-.79.18-1.58.28-2.38.45-3.61,2.58-6.21,5.15-8.53.74-.66,1.6-1.2,2.4-1.81,2.27-1.72,3-2,6.6-1.24a7.69,7.69,0,0,0-.08,1c.12,1.73.32,3.46.38,5.2A16,16,0,0,1,253.7,60.05Z"/><path d="M80,109c-1.66-5.19-3-10.48-4.8-15.62A61.59,61.59,0,0,0,70,82.59c-.51-.86-1-1.59-2.21-1.28-.39.1-.86-.15-1.32-.25-.17.22-.29.48-.49.59a4.31,4.31,0,0,0-1.91,2.75,8.15,8.15,0,0,0-.47,3.24,3,3,0,0,1-.18,1.15A22.9,22.9,0,0,1,62,92.08a14.11,14.11,0,0,0-1,4.3c-.42,2.47-.77,4.94-1.15,7.41,0,.18,0,.46-.14.51-.68.3-.65,1-.83,1.5-.5,1.42-1,2.86-1.47,4.46a4.85,4.85,0,0,1-.4-.82c-.24-1.07-.4-2.16-.66-3.22-.44-1.8-1.07-3.55-1.39-5.37-.53-3-1.79-5.72-2.59-8.6a8.2,8.2,0,0,0-.42-1c-.61-1.53-1.29-3-1.79-4.59-.64-2-1.14-4-1.69-6l-1.74-.28-.45-1a2.74,2.74,0,0,0-1,3.29c.56,1.6,1,3.23,1.56,4.84.09.29.19.57.29.86,1.06,3,2.27,6,3.15,9.06,1.56,5.47,2.88,11,4.4,16.51.55,2,.76,4.14,2,5.67,1.12.39,2.1.72,3.3,0,.09-.73.26-1.65.31-2.57s-.06-2,0-3c0-1.48.14-3,.24-4.44,0-.22.18-.57.34-.62,1.07-.35,1.1-1.33,1.39-2.15,1.38-3.94,1.93-8.06,2.68-12.14a51.73,51.73,0,0,1,2.5-9,6.51,6.51,0,0,1,.53.58c.28.41.56.83.82,1.26,2.1,3.4,3.23,7.2,4.46,11,.87,2.66,1.55,5.38,2.37,8.06a2.78,2.78,0,0,0,.82,1.52,1.67,1.67,0,0,1,.77,1.65c-.07,1.82.65,3.48.94,5.23a13.65,13.65,0,0,0,.37,1.36l.89-.51.53.68,1.28-.65c.79-1.22.35-2.46,0-3.69S80.36,110.1,80,109Z"/><path d="M288.43,65.24a54.18,54.18,0,0,0-3.56-10.65,43.49,43.49,0,0,0-4.49-7.76,3.6,3.6,0,0,0-1.81-1.42c-2.76-.65-6.23,2-6.61,4.78a8.44,8.44,0,0,1-.53,2c-.52,1.3-1.11,2.56-1.67,3.84a23.4,23.4,0,0,1-1.14,2.61,8.92,8.92,0,0,0-1.49,3.87,5.51,5.51,0,0,1-.64-1.46c-.36-1.13,0-2.27,0-3.41,0-1.7-.2-3.39-.31-5.09A16.44,16.44,0,0,0,266,50a9.83,9.83,0,0,1,0-3.42,12,12,0,0,0,0-2.68,9.36,9.36,0,0,0-.51-2.47c-.36-.87-.39-2.12-1.79-2.26-.21.91-.42,1.76-.65,2.75-.18-.77-.32-1.41-.49-2.18-.86,1-.5,1.87-.41,2.75a31.82,31.82,0,0,1,.4,5.22,25.35,25.35,0,0,0,.14,5.51,8.77,8.77,0,0,1,.14,2.1,27.07,27.07,0,0,0,.7,8.32c.23,1.07.45,2.15.62,3.23A34.26,34.26,0,0,0,265.65,74l1,2.51c.06.17.19.47.12.54-.54.54,0,1,.06,1.51,0,0,.13,0,.24.07l.15-1,.91,2.14,2.1-1.28a16.43,16.43,0,0,0,.4-2.66c0-2.6-.15-5.21-.16-7.81s.12-5.4,1.49-7.85a8.92,8.92,0,0,0,.43-1.12c1-2.66,2-5.34,3.08-8A16.85,16.85,0,0,1,277,48.69a37.93,37.93,0,0,1,3,4.6c1.46,3.12,2.73,6.34,4,9.55.37.95.4,2,.68,3a44.62,44.62,0,0,0,1.83,5.85c.39.91.81,1.6.45,2.62a2.21,2.21,0,0,0,1.25,2.43c.4.16,2-.23,2.19-.61a4.14,4.14,0,0,0,.27-3.33A33.85,33.85,0,0,1,288.43,65.24Z"/><path d="M166.94,66.35l-.42.48L164.4,66c0,.64.21,1,.07,1.2a1.08,1.08,0,0,1-.88.18,15.36,15.36,0,0,0-1.84-.53,26.08,26.08,0,0,0-3.75,0,6.86,6.86,0,0,0-5.21,2.53,22.52,22.52,0,0,0-2.35,4.16c-2,3.92-3.41,8-3.22,12.48a17.82,17.82,0,0,1-.26,2.82,15.34,15.34,0,0,0-.29,2.22c0,1.14.26,2.27.37,3.41A2.46,2.46,0,0,0,149.13,97c.55.18,1.05.5,1.6.71a12.89,12.89,0,0,0,2.07.69,12.15,12.15,0,0,0,2.09.09c3.16.06,6.19-.19,8.59-2.67a11.23,11.23,0,0,1,3-2.23,5,5,0,0,0,2.52-2.8c.43-1.07.82-2.16,1.15-3.26.39-1.28.91-2.56.35-3.94a2.21,2.21,0,0,1,0-.89c.08-2.6.14-5.2.26-7.79a8,8,0,0,0-1.29-4.56C168.64,69,167.79,67.72,166.94,66.35Zm1,16.54a10.56,10.56,0,0,1-.26,1.48l-.49-.44c-.24,1-.48,1.89-.66,2.8a9.24,9.24,0,0,1-4.21,5.94c-.5.34-1,.63-1.49,1a5.53,5.53,0,0,1-4.43,1.23,2.12,2.12,0,0,0-.75.06c-1.44.41-2.74-.22-4.08-.54-.61-.14-.89-.53-1.06-1.25-.52-2.22,0-4.38.19-6.56.08-1.15.21-2.29.38-3.42a24.9,24.9,0,0,1,2.74-8.06c.58-1.1,1.25-2.15,1.89-3.22s1.82-1.27,3-1.39c2.31-.24,4.42.52,6.55,1.24a1.51,1.51,0,0,1,1.11,1.1c.25,1.06.54,2.11.77,3.18a21.64,21.64,0,0,0,.72,3.12A10.73,10.73,0,0,1,167.94,82.89Zm1.83-1.28.2,0c-.06.28-.11.57-.2,1.06Z"/><path d="M231.58,53.66c-1.88-.9-3.85-1.64-5.8-2.39-.27-.1-.65.09-1,.15.11-.41-.15-.53-.45-.73a6.57,6.57,0,0,0-3.28-.84c-2.63-.22-5,0-7.18,1.8a21.35,21.35,0,0,0-3.95,3.65,8.84,8.84,0,0,0-1.46,5.81,1.49,1.49,0,0,0,.36.8,11.62,11.62,0,0,0,1.2,1.33,5.13,5.13,0,0,0,1.1.73c.47.24,1,.36,1.46.6,1.5.78,3,1.62,4.49,2.37,1.83.92,3.71,1.73,5.53,2.67a8.5,8.5,0,0,1,4,4.45,5,5,0,0,1-.28,5.1,4.87,4.87,0,0,1-3.4,1.71,59.13,59.13,0,0,1-6,.65c-1.24.1-1.78-.32-2.3-1.48a1.92,1.92,0,0,0-.44-.65c-.29-.27-.64-.49-1-.79l-1.4.38a13.08,13.08,0,0,0-.43,1.78,2.44,2.44,0,0,0,.13,1.4,4.13,4.13,0,0,0,3.21,2.42,24.85,24.85,0,0,0,4,.24c3.6-.24,7.34-.16,10.16-3.06.92-1,2-1.83,1.8-3.37a10.09,10.09,0,0,1,0-1.65c.15-3.09-2.05-6.25-3.55-8.44a2.4,2.4,0,0,0-.92-.74c-1.31-.65-2.38-1.61-3.94-2s-3.21-1.56-4.82-2.35c-1.16-.57-2.34-1.12-3.54-1.59-1.82-.7-2.31-2.39-1.22-3.69A58.36,58.36,0,0,1,217,53.75a.5.5,0,0,1,.26-.15c1.82-.24,3.61-.87,5.46-.26.86.28,1.73.54,2.57.86,1.67.65,3.43,1.14,4.75,2.48a1.39,1.39,0,0,0,1.75.26L233,55.18C232.55,54.67,232.17,53.94,231.58,53.66Z"/><path d="M126.79,86.85a6.56,6.56,0,0,0-1.13,1c-1.06,1.62-2,3.28-3.1,4.9a18.17,18.17,0,0,0-1.32,1.78c-.53,1.07-.87,2.23-1.35,3.33a5.83,5.83,0,0,1-2.5,3.1,6.57,6.57,0,0,1-3.48.55,8.83,8.83,0,0,1-5.08-2.67A27.31,27.31,0,0,1,106,95.36a3.43,3.43,0,0,1-.68-1.77,98.28,98.28,0,0,1,.18-10.15c.19-3.37,1.82-6.29,2.51-9.49.12-.53.76-.93,1-1.45a9.28,9.28,0,0,0,.47-1.67,3.26,3.26,0,0,0,3-.48h-1.25c0-.67.11-1.11.78-1.33a11,11,0,0,0,1.7-1,23,23,0,0,0-3.15-.33,6.81,6.81,0,0,0-2,.61c-.06,0,0,.27-.1.57-.86-.79-1.57-.66-2.06.36-1,2.11-2,4.21-3,6.33a7.88,7.88,0,0,0-.56,1.7c-.34,1.61-.66,3.22-1,4.84a13.11,13.11,0,0,0-.23,2.08c0,2.05-.07,4.11,0,6.16,0,1.69.13,3.37.26,5.06a2.34,2.34,0,0,0,.45,1.08c.69,1,1.41,1.89,2.14,2.81a15.33,15.33,0,0,0,5.91,4.49c2.64,1.18,5.36,1,8.09.8.58,0,1.13-.6,1.66-1,.23-.16.34-.52.58-.67,1.55-1,2.14-2.56,2.68-4.2a8.84,8.84,0,0,1,.94-2,53.19,53.19,0,0,1,3.53-5.19,3.73,3.73,0,0,0,1-3.27Z"/><path d="M144.88,74.28c-1.35.19-1.35.15-3-.59-.17-.07-.53-.08-.57,0-.3.57-1.13.48-1.33,1s-.67.68-1.11.88a7.18,7.18,0,0,0-3.06,2.54,18.81,18.81,0,0,0-2.52,6.2l-.34,0c-.23-1-.53-2-.68-3a20.31,20.31,0,0,0-2.18-7.12,12.1,12.1,0,0,1-.94-2.36c-.57-1.86-1-3.78-1.65-5.6-.58-1.54-1.16-3.25-3-3.48L123,64.48a2.3,2.3,0,0,1,.21.38c.53,1.18,1.12,2.33,1.55,3.54.5,1.41.81,2.88,1.28,4.29.61,1.85,1.33,3.65,1.93,5.5a25.36,25.36,0,0,1,.8,3.34c.29,1.56.45,3.15.74,4.71.53,2.84,1.68,5.52,2,8.44a11.83,11.83,0,0,0,2.59,5.89l.6-.37.75,1.37a1.42,1.42,0,0,0,1.71-.82,6.3,6.3,0,0,0,.46-2.07,15.87,15.87,0,0,0,0-2.67,23.28,23.28,0,0,0-.45-2.47,5.4,5.4,0,0,1-.27-1c.06-2.75.12-5.49.26-8.24a5,5,0,0,1,.57-2,14.93,14.93,0,0,1,1.68-2.66c1.08-1.3,2.14-2.56,4.19-2.39a2.56,2.56,0,0,0,2.73-2.08C145.92,74.7,145.65,74.18,144.88,74.28Z"/><path d="M206.12,58.65c-1.41-.49-2.76-1.1-4.16-1.59-2.11-.73-4.34-.59-6.51-.82a5.15,5.15,0,0,0-3.68.83,1.5,1.5,0,0,0-.76,1.29c-.12,1.28-.42,2.55-.57,3.83-.16,1.44-.41,3,.88,4.06a22.1,22.1,0,0,0,2.89,2.12,38.68,38.68,0,0,0,4.5,2.38,4.42,4.42,0,0,1,2.91,4c.14,2.34,0,4.68,0,7.22a56.64,56.64,0,0,1-8.13,1.16,2.83,2.83,0,0,1-2.42-.48l.35-.42a24.6,24.6,0,0,1-3.61-1.67,2.72,2.72,0,0,0-2.71-.28,1.33,1.33,0,0,0-.56,2.25,10.56,10.56,0,0,0,2.49,1.62,17.86,17.86,0,0,0,3.09,1.13c1.37.38,2.61,1.25,4.15,1.06,1.14-.14,2.3-.06,3.45-.13,1.3-.08,2.6-.16,3.88-.34a4.47,4.47,0,0,0,3.78-4.44c0-1.75,0-3.51.05-5.26a13.63,13.63,0,0,0-1.83-6.1,3.12,3.12,0,0,0-1.13-1.18c-1.83-1.13-3.7-2.17-5.54-3.29-.84-.52-1.63-1.13-2.44-1.71a1.3,1.3,0,0,1-.5-1.58c.22-.77.42-1.53.68-2.51.57.07,1.11.11,1.65.19a15.9,15.9,0,0,0,1.91.33,18.12,18.12,0,0,1,5.89,1,2.57,2.57,0,0,0,2.29-.27l-.4-.62c.56-.06,1.18,0,1.16-.82S206.67,58.84,206.12,58.65Z"/><path d="M182.07,87.43a8,8,0,0,0-.69-3.92c-.12-.31-.32-.7-.23-1,.35-1.12-.21-2-.52-3-.17-.56-.37-1.11-.56-1.66-.53-1.61-1-3.24-1.62-4.83-.46-1.25-1-2.47-1.57-3.7a9.58,9.58,0,0,0-1.09-2.43,22.2,22.2,0,0,0-2.94-2.69.87.87,0,0,0-1.27.35c-.21.7-1.51,1.32-.31,2.29a8.05,8.05,0,0,1,.54.89c.71,1,1.74,1.81,1.77,3.19a2.65,2.65,0,0,0,.38,1A72.24,72.24,0,0,1,178.29,85a49.82,49.82,0,0,0,2,7.25,1.87,1.87,0,0,1,.68.13,1.1,1.1,0,0,0,1.57-.18c.62-.56.43-1.07.2-1.73A7.41,7.41,0,0,1,182.07,87.43Z"/><path d="M165.55,51c.72.08,1.44.09,2.15.13.22-.45.41-.8.55-1.17.24-.61.22-.6-.54-.81a2.43,2.43,0,0,1-.53-.35L165.9,48c-.35.76-.65,1.36-.9,2S165,50.92,165.55,51Zm1.11-1.93c.1.51.74,1.13-.35,1.42C165.79,49.84,166.66,49.54,166.66,49.05Z"/></g></g></svg>