<svg xmlns="http://www.w3.org/2000/svg" viewBox="0 0 306.39 124.79"><defs><style>.cls-1,.cls-2{fill:#fe5f58;}.cls-1{opacity:0.2;}</style></defs><g id="Calque_2" data-name="Calque 2"><g id="Phrase_2" data-name="Phrase 2"><g id="P2_m5_2"><path class="cls-1" d="M299.1,63.33c-5.32-4.52-12.29-6.06-19.14-6.75.77-10.33,2.22-21-1.2-31-1.91-5.56-6-10.41-12-11.6-7.58-1.51-13.73,4.46-18.12,9.83-2.16,2.63-4.21,5.36-6.14,8.16-.91,1.32-1.79,2.66-2.61,4.06-.48.83-1.42,3.51-2.39,4s-6.68-3.29-8.18-4.27c-3.58-2.33-6.89-4.91-10.86-6.58-5-2.12-10-1.75-15.24-2.63-4-.67-7.73-2.67-11.69-3.67-10.31-2.63-21.08-.59-31.37-3S141.78,10.3,131.67,7.68a29.67,29.67,0,0,0-14.59-.4c-4.25,1-8.25,3.08-12.32,4.76C97.45,3,85.41-.76,73.93.13a4.43,4.43,0,0,0-3.51,2C55.06.35,39.26,2.18,24.19,5.64,8.26,9.3-.14,22.15,0,38.11c.15,16.44,7.54,29.8,23.3,35.6,7.08,2.6,14.83,3.53,22.33,3.84,9.39.39,18.78.4,28.17.79,5.06.2,10.62.7,15.61-.37A24.67,24.67,0,0,0,95,75.9c1.83-.89,4-2.72,6.16-2.86,2.9-.2,6.1,2.75,8.44,4.23,3.16,2,6.41,4.18,10,5.22,4.78,1.37,10,1,14.85.52,5.29-.5,11.72-1.94,16.7.56,3.44,1.72,5.89,4.44,9.64,5.72,4.91,1.68,10.31,2.12,15.4,3.08,8.91,1.67,18.51,3,27,6.41,9.42,3.8,17.23,11,26.17,15.77,14.68,7.86,34.05,13.56,50.47,8s24.52-21.28,26.33-37.79C307.05,76.88,305.39,68.69,299.1,63.33Z"/><path class="cls-2" d="M288.11,73.82c-.06,0-.16,0-.27,0a.54.54,0,0,1-.19-.11,1,1,0,0,1-.25-.28c-.69-1.14-1.49-1.41-2.57-.64a11.51,11.51,0,0,0-2.7,2.4,28.42,28.42,0,0,0-2.63,4.93c-.78,1.65-1.17,3.45-2.16,5-.56.89-.87,1.94-1.36,2.87-1,1.83-1.56,3.83-2.86,5.48-.73.93-1.35,1.94-2.09,2.86a12.8,12.8,0,0,1-1.46,1.36c-.4-.6-.5-1.31-1.38-1.41v2.2a5.28,5.28,0,0,1-2.59.8c-.8,0-1.68-.07-2.1-.88a4.63,4.63,0,0,1-.38-1.63,4.08,4.08,0,0,1,.86-3.4,2.66,2.66,0,0,0,.51-.71,15.36,15.36,0,0,1,1.83-3.47,10.64,10.64,0,0,1,3.45-3.55,36.64,36.64,0,0,0,3.9-2.7,7,7,0,0,0,2.24-3.66,11.82,11.82,0,0,0,.4-3.1c.05-1,0-2.09,0-3.14a8.16,8.16,0,0,0,.11-1c-.12-.89.37-2-.71-2.59a17.27,17.27,0,0,0-2.56-1.15c-.78-.27-1.66-.26-2.4-.59-1.37-.61-2.65-.1-4,.11-.83.13-1.18.87-1.67,1.41-.23.25-.27.68-.51.92-1.09,1.08-1.33,2.59-2,3.88a27.4,27.4,0,0,0-1.4,4c-.33,1-.67,2-.94,3-.43,1.64-.89,3.28-1.17,5a19.48,19.48,0,0,0-.61,4.31A2.12,2.12,0,0,1,257,92.64c-.68.24-1.12,0-1.19-.74a14.45,14.45,0,0,1,.05-1.86,38.18,38.18,0,0,1,.29-5.47c.34-1.82.33-3.66.75-5.49.68-3,.62-6.15,1.45-9.16.27-1,.37-2,.57-3a7.41,7.41,0,0,0,.3-1.19c0-1.63.84-3.08,1.05-4.69.15-1.24.88-2.39,1.06-3.62s1.14-2.33,1.22-3.68c0-.68.6-1.31.69-2,.23-1.78,1.13-3.33,1.56-5a7.49,7.49,0,0,0,.41-1.56q.13-3.49.13-7a27.26,27.26,0,0,0-.2-3.13c0-.39,0-.92-.63-.94s-.59.35-.69.75c-.14.58-.36,1.14-.54,1.72a1.21,1.21,0,0,0-1.34-1A14.29,14.29,0,0,0,261.8,34a.59.59,0,0,0-.41-.36.7.7,0,0,0-.53.22c-.1.11-.09.32-.13.48a47.16,47.16,0,0,1-3.31,8.6q-1.42,3-2.68,6.17c-.57,1.4-1,2.85-1.5,4.27s-.81,2.62-1.37,3.86A21.5,21.5,0,0,0,250.08,61c-.05.21-.39.52-.58.5-1.08-.09-2.15-.27-3.23-.41a18.65,18.65,0,0,0-2.22-.26c-1.38,0-2.74.36-4.15,0a2.83,2.83,0,0,0-2,.22c-.67.42-1.66.47-1.95,1.42-1.72,1-2.44,2.88-3.53,4.42-.36.51-.67,1.06-1.14,1.8a5.68,5.68,0,0,1-.16-.82c0-1.34,0-2.67,0-4s0-2.87-.11-4.31a18.42,18.42,0,0,0-.34-2.76,4.09,4.09,0,0,0-.64-1.12l0,0a3.58,3.58,0,0,0-.7-2.42c-1.27-.19-2.6.43-3.33-.81a13.07,13.07,0,0,0-1.6-.17c-1.41.06-2.78.08-3.95,1.2a21.83,21.83,0,0,1-3.32,2.23V51.54l-1-.54.77-.21a17,17,0,0,0-1.42-5.85c-.45-1.08-1-1.56-2.16-1.39a2.54,2.54,0,0,1-1.89-.45,3.51,3.51,0,0,0-1.4-.42c-2-.26-3.26,1.23-4.66,2.3a6.65,6.65,0,0,0-1.07,1.17c-.83,1-1.15,2.3-2,3.36a34.52,34.52,0,0,0-2.36,4.11c-.39.69-.82,1.35-1.23,2a13.63,13.63,0,0,0-1.23,2.11c-.66,1.71-1.2,3.45-1.77,5.18a10.88,10.88,0,0,0-.26,1.13,27.73,27.73,0,0,1-.17-3.38c0-1-.13-2.1-.12-3.14,0-2.7.14-5.4.19-8.1,0-.33.21-.92-.37-.9s-.3.59-.32.93c0,.5,0,1,0,1.51l-.29,0c-.13-.37-.15-.92-.41-1.08-.87-.53-.58-1.3-.58-2,0-1.55-.06-3.11,0-4.66A1.91,1.91,0,0,0,192.13,41v0a1.6,1.6,0,0,0-1.43-.64,4,4,0,0,1-2.37-.57,3,3,0,0,0-3,.06A8.22,8.22,0,0,0,183,42.43a5.63,5.63,0,0,0-1.21,1.71c-.31,1-1.29,1.68-1.33,2.79A14.27,14.27,0,0,0,178,52.06a19.4,19.4,0,0,1-.85,2.06,25.68,25.68,0,0,1,0-3.4c0-1.8-.18-3.59-.11-5.39a10.44,10.44,0,0,0,0-1.12c0-.07-.16-.13-.35-.28a2.09,2.09,0,0,1,0,.56c0,.14-.19.24-.36.44-.3-2.6-1.19-4.78-3.47-6.25,1.75-.4,2.48,0,2.88,1.4.08.29.12.58.18.87.16.82.31,1.64.51,2.45,0,.14.3.21.63.42-.2-.75-.35-1.26-.47-1.78-.19-.89-.31-1.79-.56-2.67a1.85,1.85,0,0,0-2.14-1.51,2.8,2.8,0,0,1-2.11-.58,1.56,1.56,0,0,0-1.42-.31,1.48,1.48,0,0,1-.74.08,2.67,2.67,0,0,0-2.42.73,8.85,8.85,0,0,0-3.08,3.32c-.08.16-.41.2-.62.3-.23-.65-.71-.13-1.14-.16,1-1.09,1-1.09.48-2.57-.17-.51-.25-1.05-.42-1.57a8.85,8.85,0,0,0-.64-1.74,2.06,2.06,0,0,0-1.74-1.2c-.91-.06-2,.22-2.63-.74-.08-.11-.31-.14-.47-.16a5.68,5.68,0,0,0-5.26,2.06,14.72,14.72,0,0,0-2.22,2.79,6.32,6.32,0,0,1-1,1.13,3.48,3.48,0,0,1-.31-.91,20.85,20.85,0,0,0-.7-4.91,3,3,0,0,0-1.28-2.1,3.54,3.54,0,0,1-3.06-.44,1.07,1.07,0,0,0-.59-.16,14.62,14.62,0,0,0-1.62.06,5.45,5.45,0,0,0-1.27.29,14.31,14.31,0,0,0-3.7,2.2,9.79,9.79,0,0,0-2.69,3.38c-.36.68-.47,1.46-.83,2.1a6.8,6.8,0,0,0-1,2.46c-.24,1.61-1,3.13-1.08,4.78,0,0-.14,0-.23,0a5.27,5.27,0,0,1-.22-1.09c0-1.46.12-2.91.11-4.36,0-1.81-.1-3.61-.15-5.42,0-.87-.05-1.74-.06-2.61,0-1.88,0-3.75,0-5.62,0-.16-.21-.31-.36-.51-.49.4-.91.88-1.56.55V26l-1.78-1.3c.63-1.1.66-1.11,1.57-.66l1.83.9.17-.27c-.53-.4-1.09-.78-1.6-1.21a3.26,3.26,0,0,0-2.07-.8,6.53,6.53,0,0,1-2.23-.43,3.59,3.59,0,0,0-3.47.45,22.34,22.34,0,0,0-4.12,3.75,56.61,56.61,0,0,0-3.75,6A17.34,17.34,0,0,0,110.9,37a32.94,32.94,0,0,0-1.33,7.18c0,1.63-.1,3.28,0,4.91s.32,3.05.49,4.58a9.11,9.11,0,0,0,3,6A4.92,4.92,0,0,0,116.15,61c.54,0,1.08,0,1.62.06a17.76,17.76,0,0,0,5.3,0,3.08,3.08,0,0,0,1.87-1c.37-.43.79-.81,1.32-1.34a6.37,6.37,0,0,0,.07.64c.31,1.47.59,3,1,4.41.22.86.91,1,1.49.31a7.81,7.81,0,0,0,.76-1.29l.82.14.53,1.84c.59-.1,1.21.23,1.53-.37a3.88,3.88,0,0,0,.79-2.27,1.82,1.82,0,0,1,.34-1.39,1.53,1.53,0,0,0,.29-.68c.24-1.5.48-3,.67-4.49.24-1.81.43-3.62.67-5.42a8.94,8.94,0,0,1,.6-3.24c.93-1.61,1.32-3.46,2.49-5a12.49,12.49,0,0,1,4-3.28,3.15,3.15,0,0,1,.45.87c.13,1.24.26,2.49.3,3.75.05,1.5,0,3,0,4.52,0,.49,0,1,0,1.49-.06,1.71-.13,3.43-.21,5.15-.05.93-.09,1.86-.18,2.78-.13,1.24-.32,2.47-.44,3.71a1.1,1.1,0,0,0,.21.79c.47.41.38.88.3,1.39-.06.35-.1.71-.17,1.24,1.88-.78,1.21-2.44,1.63-3.62a.61.61,0,0,1,1,.11c.13.19,0,.59-.08.89s-.2.36-.22.55.16.25.28.43l.38-.79c.92-.07.68.74.94,1.11l1-.12c.06-.83.15-1.61.18-2.39A50.11,50.11,0,0,1,149,50.25a15.36,15.36,0,0,1,.56-2.27,28.19,28.19,0,0,1,3.25-5.43c.29-.4.65-.75,1-1.13a11,11,0,0,1,1-1.21,2.07,2.07,0,0,1,2.21.28,9.11,9.11,0,0,1,1,2.28c.31,1.33.88,2.65.48,4.07-.05.19.07.41.08.62a10.91,10.91,0,0,1,.08,2.13c-.18,1.24-.33,2.48-.6,3.72a25.93,25.93,0,0,0-1,6.2c0,.71,0,1.42,0,2.14,0,1.65,0,3.3,0,4.95a21.3,21.3,0,0,0,.42,3,3.74,3.74,0,0,0,.39.84c.78-.41.85-.42.8-.76-.2-1.19.61-2,1.05-3.3.15.94.25,1.59.36,2.24h.09l.06-1.12.26-.13c.23.42.26,1.1,1,.87a1.34,1.34,0,0,0,.89-1.26c.14-1,.28-1.91.35-2.88s0-1.91.07-2.86c.09-1.29.28-2.58.4-3.88s.19-2.42.26-3.64a5.21,5.21,0,0,1,1.15-3.6c.13-.14.16-.39.26-.56.67-1.14,1.32-2.28,2-3.38a16.11,16.11,0,0,1,1.43-1.86,1.72,1.72,0,0,1,.71-.48c.88-.34,2.47.26,2.61,1.29.16,1.25.31,2.49.41,3.74a13.2,13.2,0,0,0,0,1.88c.43,1.85,0,3.66-.16,5.47-.26,2.49-.89,4.93-.8,7.45,0,1.09.15,2.18.25,3.26a10,10,0,0,0,.23,1.45,6.34,6.34,0,0,0,.71,2.11,2.22,2.22,0,0,0,1.92.75c.41,0,.82.1,1.23.11,1.08,0,1,0,1.15,1,.06.65.05,1.36.68,1.81.06.22.12.45.19.67A1.41,1.41,0,0,0,179.09,76a4.83,4.83,0,0,1,1.47,0,1.71,1.71,0,0,0,1.41-.34,16.8,16.8,0,0,1,2.57-1.7,9.46,9.46,0,0,0,3.79-3.27c.46-.61.81-1.5,1.79-1.57q.44,3.44.86,6.72a3.1,3.1,0,0,0,2.7-.21c-.35.78-.46,1.66-1.36,2l-.95-1.18c.07.82,0,1.69,1,2,.67-.41,1.45-.68,1.35-1.7a2,2,0,0,0,2-.54,2.16,2.16,0,0,1,.62-.43c1-.34.88-1.57,1.62-2.12,0-1.15.73-2.11.93-3.22s.56-2.24.83-3.37a18.78,18.78,0,0,1,1.73-5.26c.1-.17.06-.42.13-.62a4.52,4.52,0,0,1,.36-.88c.21-.36.51-.67.72-1q1.51-2.51,3-5c.51-.86,1.08-1.69,1.5-2.59.84-1.78,1.29-2.1,3.31-2.08,1.32,1.49,1.5,3.4,1.68,5.25a43.27,43.27,0,0,1,.09,5.22,29.3,29.3,0,0,1-.31,3.62c-.32,2.12-1.4,4-2.24,5.9a10.55,10.55,0,0,0-.58,1.1,44.27,44.27,0,0,0-1.92,9.89c-.09,1.81.54,3.52.53,5.31,0,0,.12,0,.28.13.75-1.22.28-3,1.64-4.16.18.53.28.88.41,1.21.27.72.44.81,1.23.6a5.76,5.76,0,0,0,.55-.21c.1-.41.23-.77.29-1.14.3-2,.58-3.93.88-5.89a5.15,5.15,0,0,1,.18-1c.52-1.38,1.06-2.75,1.59-4.12a13.28,13.28,0,0,0,.71-1.87,18.69,18.69,0,0,1,2.66-5.87c.6-.94,1.61-1.63,2.14-2.59,1-1.75,2.47-2,4.18-1.85.44,0,.94.15,1.08.71a15.13,15.13,0,0,1,.41,2c.11,1.16.17,2.34.2,3.51a18.53,18.53,0,0,1-.46,6.21c-.13.38-.23.76-.33,1.15l-1,4.35c-.31,1.32-.64,2.63-.89,4s-.36,2.54-.59,3.8c-.19,1.06-.23,1.07.68,1.69.56.11.58-.37.73-.68s.35-.82.54-1.27l1.42.63c-.54,1.1.47,1.09,1.05,1.35a8.37,8.37,0,0,0-.33,1.42,15.43,15.43,0,0,0,0,3.4c.35,1.88.73,2.88,3.09,2.8a12.31,12.31,0,0,1,2.33.31,6,6,0,0,0,1,.19,17.06,17.06,0,0,0,2.95-.12,8,8,0,0,0,2.82-.9c.65-.4,1.3-.84,2-1.26.4-.25.74-.59,1.13-.85,1.25-.78,1.74-2.26,2.91-3.13.14-.1.06-.5.07-.77h0l0,0c.79-.21.81-.22.5-.73h0l0-.06a1,1,0,0,0,.42-.21,22.62,22.62,0,0,0,3.08-5.8c1.14-2.84,1.87-5.83,2.82-8.74a5.59,5.59,0,0,1,.92-1.28c-.23,2-.43,3.8-.65,5.57a26,26,0,0,0-.53,4.06c.1,2.66-.56,5.24-.47,7.91.06,2-.32,4-.36,6a9.8,9.8,0,0,0,1.27,4.82,1.39,1.39,0,0,0,1.55.77c1.24-.22,2.58-.09,3.71-.86.14-.09.38,0,.54,0,.22,1.48.36,2.89.64,4.29a3.24,3.24,0,0,0,2.44,2.49,12.68,12.68,0,0,0,3.64.33,29.44,29.44,0,0,0,3.58-.52,6.08,6.08,0,0,0,3.45,2.22c1.94.55,3.26.58,4.18.06-.13-.12-.23-.31-.35-.32a8.78,8.78,0,0,0-1.45,0c-1.93.19-3.64-.14-4.75-2-.08-.13-.29-.16-.41-.27a1.37,1.37,0,0,1-.19-.35l.55-.31a6.39,6.39,0,0,1,2.05.84,3.67,3.67,0,0,0,3.05.93l-.75-.31a1.75,1.75,0,0,1,.92-.14,6.33,6.33,0,0,0,1.61.11,3.33,3.33,0,0,1,2.18.24h0c-.07.33.05.72-.44.89s-.48.64-.46,1.07h0v0a7.65,7.65,0,0,1,.88-.5,17,17,0,0,0,1.71-.69,30.74,30.74,0,0,0,2.83-1.87c.66-.49,1.52-1,1.8-1.68.57-1.41,1.5-2.61,1.76-4.23a28.59,28.59,0,0,1,1.87-5.19c.75-2,1.8-3.91,2.15-6a40.65,40.65,0,0,0,.75-5.36,70.28,70.28,0,0,0-.24-7.1C290.93,73.43,289.83,72.84,288.11,73.82Zm-17.33,4.32c-.86.69-1.83,1.25-2.76,1.86l-2.2,1.41c-.17.1-.33.21-.49.32l-.28-.22c.94-2.32,1.88-4.64,2.83-7a1.87,1.87,0,0,1,2.21.28.8.8,0,0,0,.22.13c.45.23,1.05.24,1.07,1A2.51,2.51,0,0,1,270.78,78.14ZM115,43.83a25.1,25.1,0,0,1,1.8-5.14A34.28,34.28,0,0,1,120,33.61a9.87,9.87,0,0,1,2.89-2.79A9.41,9.41,0,0,0,124,30s.15,0,.33.07a5.36,5.36,0,0,1,.21,1c0,2.64,0,5.28,0,7.92,0,1.58.13,3.16,0,4.73a31.65,31.65,0,0,1-.55,3.73,12.38,12.38,0,0,1-3.21,5.81c-.54.62-1.27.54-2,.61a1.84,1.84,0,0,1-1.7-.79,8.94,8.94,0,0,1-2.36-5.53A11.75,11.75,0,0,1,115,43.83Zm-2.39,10.23h0c-.08.08-.2.17-.2.25C112.44,54.23,112.56,54.14,112.64,54.06Zm0,0h0c-.2-.07-.46-.09-.56-.23C112.16,53.94,112.42,54,112.62,54Zm75.87-2.8c-.31,2.47-.36,5-1.83,7.19a13.71,13.71,0,0,1-2.55,3.07c-.9.76-1.73,1.62-2.61,2.44a2,2,0,0,1-.41-1.79,26.22,26.22,0,0,0,.16-3.55,12,12,0,0,1,1.27-4.52c.33-.73.64-1.49,1-2.2.9-1.65,1.84-3.28,2.79-4.91.36-.62.9-.68,1.65-.15-.16-.6-.26-1-.38-1.45l.65-.3c.06.17.15.29.14.39C188.09,47.37,188.74,49.29,188.49,51.22ZM221.72,57l.24.43-.24-.43ZM246.9,69.23c-.64,1.89-1.27,3.79-2,5.66-.26.69-.76,1.3-1,2-.47,1.31-1.52,2.38-1.59,3.85-.2,0-.49-.16-.57-.07-.25.25-.39.6-.62.88a31.23,31.23,0,0,1-2.38,2.85,13.33,13.33,0,0,1-2.3,1.53c-.39.25-.83.41-1.21.65a3.72,3.72,0,0,1-3.15.66c-.58-1-.14-2.06.15-3.08,0-.2.29-.37.28-.54-.11-1.51.61-2.84,1-4.21A26.14,26.14,0,0,1,235.15,76c.18-.37.31-.76.46-1.14a21.46,21.46,0,0,1,2.91-4.49,6.85,6.85,0,0,1,2.53-1.89,6.18,6.18,0,0,1,2.37-.39,24.36,24.36,0,0,1,2.7.09C246.84,68.18,247.12,68.59,246.9,69.23Zm-2.34,18.4a1.14,1.14,0,0,1,.33-.07A1.14,1.14,0,0,0,244.56,87.63ZM285.84,87c-.45,1.25-1,2.47-1.46,3.71-.39,1-.77,2-1.11,3s-.72,2.33-1.08,3.5a10.2,10.2,0,0,1-1.52,2.83,3,3,0,0,1-1.45.89,12.2,12.2,0,0,1-4.26.32c-.67,0-.82-.36-.35-.86A29,29,0,0,0,278,95.64a4.2,4.2,0,0,0,.6-1,56.07,56.07,0,0,1,3-6.33c.66-1.43,1.15-2.94,1.81-4.37s1.51-2.93,2.27-4.4l.34,0a14.25,14.25,0,0,1,.33,2.32A14.81,14.81,0,0,1,285.84,87Z"/><path class="cls-2" d="M223.57,86.5l0,0h0Z"/><path class="cls-2" d="M27.5,18.68l.29-.74a3.26,3.26,0,0,0-2.47.26,17.3,17.3,0,0,1-1.73,1.15,11.12,11.12,0,0,0-5.5,5.38c-.41.77-.67,1.64-1.1,2.33-1.09,1.73-1.19,3.72-1.79,5.56a21.27,21.27,0,0,0-.76,5.53,39.39,39.39,0,0,0,0,6.24,17.54,17.54,0,0,1,.39,2.2c-.1,1.73,1.13,2.7,2.11,3.72a5.74,5.74,0,0,0,3.23,1.62c1.44.23,2.89.44,4.33.65a4.36,4.36,0,0,0,.51,0c.62,0,1.25,0,1.87,0a3.68,3.68,0,0,0,3.81-1.9c.31-.5.69-1,1-1.43a20.79,20.79,0,0,1,2,2.39c.49.76,1.11.65,1.77.57.28,0,.54-.26.82-.3s.66,0,.77.15c.65.94,1.48.73,2.34.45a4.7,4.7,0,0,0,2.41-1.82l.82.91a3.91,3.91,0,0,0,3,1.53,5.34,5.34,0,0,1,2,.17,7.54,7.54,0,0,0,3.95.3,8.15,8.15,0,0,0,2.45-1.19c.58-.3.55-.89.67-1.42A1.91,1.91,0,0,1,55,50.5a3.53,3.53,0,0,1,.43.29,7.3,7.3,0,0,0,.65.71c.87.72,1.55,1.72,3,1.38a2.53,2.53,0,0,1,2.22.44c.18.15.55.07.83.09a14,14,0,0,1,2.33,0,1.82,1.82,0,0,0,1.9-.74,6.37,6.37,0,0,0,1.32-2.62c.24-1.47.83-2.88.64-4.43-.1-.82.48-1.64.19-2.5.7-1.18.56-2.56.72-3.82.21-1.56,1.05-3,.9-4.58.81-2,1.71-4,2.4-6.1.45-1.35,1.62-1.73,2.61-2.37.15-.1.68.09.81.3a15.06,15.06,0,0,1,1.38,2.48,9.23,9.23,0,0,1,1,3.54,40.14,40.14,0,0,1,0,4.25,11.47,11.47,0,0,1-.39,3.3,2.14,2.14,0,0,0,0,.76,4.39,4.39,0,0,1-2.25,3.66c.22-.39.55-.7.77-1.07A14.78,14.78,0,0,0,77.11,42c-1.24-.09-1.33,0-1.64.91-.08.23-.29.41-.38.63A21,21,0,0,0,74,46.37c-.13.51.11,1.12-.17,1.65h0c.39.71-.76,1-.46,1.69A4.27,4.27,0,0,1,74,51.5a5.55,5.55,0,0,1-.24,1.14C75,52.21,75.32,51.29,75.3,50l1.27,1.2,1-.8c.38,1,.72,1.88,1.09,2.77a7.1,7.1,0,0,0,2.19,3.1,19.51,19.51,0,0,0,2.54,1.29c1,.52,2,.07,3,.34a4.66,4.66,0,0,0,1.82.37,9.35,9.35,0,0,1,2.12.08,8,8,0,0,0,2.3-.15,7.46,7.46,0,0,0,4.42-3.62l-.9-.3c-1.08,1.06-2,2-3,3a.92.92,0,0,1-.61.12c-.64,0-1.28-.06-1.92-.1a13.71,13.71,0,0,0,6.6-5.44l-1.39-.41c-.94,1.21-1.6,2.45-3.25,2.39-.14,0-.38.09-.42.2-.24.68-.68.33-1.35.31,1-.72,1.86-1.25,2.62-1.88,1.48-1.22,1.46-1.24,1.84-2.35l-.85.73-.83.69c-1-.62-1-.63-1.69.18A3.23,3.23,0,0,1,89.11,53c-1.06,0-2.06-.34-3.09-.31-.53,0-.86-.24-1.51-.67a4.78,4.78,0,0,1,1.33-.27,19,19,0,0,0,2.72,0,3.61,3.61,0,0,0,2.78-1c.77-.79,2-1.25,2.13-2.56-.57-.1-.54-.07-.79.16-1.3,1.27-2.26,3.05-4.58,2.64a30.71,30.71,0,0,0-3.72-.25A1.4,1.4,0,0,1,83,49.3a13.66,13.66,0,0,1-.17-1.68,18.56,18.56,0,0,1,.26-2.35c.15-1,.43-1.93.49-2.9.1-1.71-.08-3.44.15-5.12a11.9,11.9,0,0,1,2.47-6.35,7.62,7.62,0,0,0,.56-.8c.4-.61.75-1.26,1.2-1.83s1.18-1.38,1.8-2a3.13,3.13,0,0,1,.78-.63c.85-.43,1.73-.8,2.6-1.21a8.4,8.4,0,0,0,.76-.57,5,5,0,0,0-3.51.66c-.83.51-2.1.83-2.27,2.17,0,.12-.37.21-.6.31.26-.54.5-1.08.79-1.6.69-1.2,2-1.57,3.06-2.29.85-.58,1.62-1.26,2.55-2-1.37-.59-2.34.47-3.44.35-.77.87-2.12,1.07-2.51,2.15l-2,.75a6.92,6.92,0,0,1,2.6-2.61,17.74,17.74,0,0,0,2.74-2.05,7,7,0,0,0-2.87.91,1.59,1.59,0,0,1-.83.28,2.14,2.14,0,0,0-1.22.55,11.07,11.07,0,0,0-2.85,2.94,13.35,13.35,0,0,1-1.19,1.2c0-.21,0-.26,0-.29a2.06,2.06,0,0,1,.17-.33,47.69,47.69,0,0,1,3-4.14A8.45,8.45,0,0,1,89,18.24a4.2,4.2,0,0,0,.89-.57,5.31,5.31,0,0,0-2.56.38,9.33,9.33,0,0,0-2.84,2.69c-.31.43-.72.8-1,1.26a7.65,7.65,0,0,1-1.31,1.86,9.45,9.45,0,0,0-1.14,1.51c-.07-.09-.17-.21-.26-.34-.85-1.18-1.71-2.35-2.55-3.55a1.61,1.61,0,0,0-1.54-.77c-.42,0-.83.08-1.25.07a2,2,0,0,1-.59-.23,2.72,2.72,0,0,1,0-.28c1-.07,1.94-.16,2.91-.2a2.33,2.33,0,0,1,1.81.72c.13.12.39.1.61.14-.46-.53-.77-1.31-1.56-1.34-1.18,0-2.4-.36-3.54.23-1.69.89-3.37,1.8-5,2.71-.4.22-.8.46-1.19.7-.18.11-.42.19-.5.36-.39.73-.77,1.47-1.09,2.24-.47,1.15-.93,2.31-1.32,3.49a43.27,43.27,0,0,0-1.56,5c-.35,1.67-.39,3.4-.76,5.09-.32,1.46-.16,3-.38,4.48-.16,1.11,0,2.39-1.22,3.12l.38.63c-2.28,1.19-4.48-1.07-4.22-3.95.89,1.47,1.56,2.86,3.11,3.44.19-.5-.08-.78-.39-.83-.65-.11-.87-.61-1.17-1.06-.15-.25-.33-.48-.47-.73a5.62,5.62,0,0,1-1.23-2.82c0-1.75,0-3.51-.13-5.26q-.14-3.19-.37-6.37c-.13-1.76-.32-3.52-.49-5.28-.09-.93-.17-1.86-.32-2.78-.05-.31,0-.83-.54-.83-.86.68.47,1.86-.57,2.56-.18-.55-.34-1-.51-1.49L53.69,23A8.68,8.68,0,0,0,54,24.55c.19.52,0,.67-.49.81-.27-.72,0-1.6-.8-2.08-.61.09-.8.52-.82,1.07l-.06,2.74c0,1,0,2.08-.06,3.12-.07,1.28-.23,2.56-.3,3.85a21,21,0,0,1-.11,3.8,10.61,10.61,0,0,0-.07,2.19,14.09,14.09,0,0,1-.76,5.42,8.42,8.42,0,0,0-.37,1.65,7.55,7.55,0,0,1-2.07-.46,5.45,5.45,0,0,1-3-5.25c.13-2.93.44-5.86.39-8.8,0-1.81,0-3.62-.06-5.43,0-1.46-.17-2.92-.32-4.38-.07-.78-.25-1.56-.39-2.33-.08-.43-.27-.72-.81-.5,0,.55-.07,1.12-.11,1.68l-.26.16L43.11,21l-1.58.55c.79,1.22.79,1.22.49,2-.17-.23-.31-.42-.46-.6a6.75,6.75,0,0,0-.53-.54c-.54-.51-1.13-.35-1.3.38a6.18,6.18,0,0,0,0,1.14,51.77,51.77,0,0,0,.06,5.84c.13,1.69-.2,3.46.14,5.1s-.2,3.29-.44,4.87a42.74,42.74,0,0,1-1.61,5.68L36.68,45l-.15.21.84.94-.69.92a9.35,9.35,0,0,1-2.53-5.67l.93.56c-.41-.92-.42-.93-1.07-1a7.81,7.81,0,0,0,.24-1.42c0-1.17-.17-2.34-.19-3.51,0-2.09.07-4.18,0-6.26s-.33-4-.54-6c0-.35-.25-1-.41-1-.88,0-.86-.86-1.42-1.26.43-.34.75-.59,1.06-.85-.19-1.25-.3-1.36-1.26-1.22,0,.47-.1.93-.15,1.36a17.17,17.17,0,0,0-5.76-.56l1.49-1-.73-.84.12-.2ZM23.25,46.23A4.43,4.43,0,0,1,20.85,45a4.43,4.43,0,0,0,2.4,1.22l.61.12Zm4-21.66c0,.64,0,1.33.08,2,.13,1,.36,2,.5,2.95.16,1.16.27,2.33.42,3.5.17,1.44.41,2.87.5,4.31a9.6,9.6,0,0,1-.2,2.73c-.37,1.63-.87,3.22-1.35,4.82a1.65,1.65,0,0,1-1.82,1.19,11.19,11.19,0,0,1-5.09-1.89c-.15-.32-.32-.63-.45-1a5.16,5.16,0,0,1-.34-1.16,21.92,21.92,0,0,1,.56-6c.16-1,.65-2,.85-3.06s1-1.88,1.22-2.94c.37-1.86,1.9-3,2.82-4.55A1.86,1.86,0,0,1,27.25,24.57Z"/><path class="cls-2" d="M80.27,20.94h0v0Z"/><path class="cls-2" d="M275.36,106.79a15.2,15.2,0,0,0,2.05,0,2.92,2.92,0,0,0,1-.51l-1.55.17C276.39,106.46,275.83,106.19,275.36,106.79Z"/><path class="cls-2" d="M80.26,20.94h0Z"/><path class="cls-2" d="M80.33,22.52c.13.65.54.57,1,.47l-1.08-2c-.13.2-.26.4-.35.52A6,6,0,0,1,80.33,22.52Z"/><path class="cls-2" d="M147.16,63.31l-.23-.16c-.05.56-1,.09-.77,1l1.19-.07C147.27,63.75,147.21,63.53,147.16,63.31Z"/><path class="cls-2" d="M223.46,88.55c.37-.77.58-1.39.11-2C223.44,87.14,223,87.74,223.46,88.55Z"/><path class="cls-2" d="M223.58,86.5l0,0,0,0Z"/><path class="cls-2" d="M276.64,107.44c-.39.06-.51.2-.37.66l1.28.11C277.39,107.78,277.3,107.32,276.64,107.44Z"/><path class="cls-2" d="M36.81,44.58l-1.1-.94C35.83,44.45,36,44.83,36.81,44.58Z"/><path class="cls-2" d="M34.8,42.86l.88.62C35.58,43.05,35.58,42.28,34.8,42.86Z"/><path class="cls-2" d="M81.18,23.91c.08.07.37-.11.53-.17-.16-.3-.27-.52-.38-.74h0C81.09,23.28,80.75,23.56,81.18,23.91Z"/><path class="cls-2" d="M209.42,82.79c.06.51.09.79.14,1.22C209.86,83.55,210,83.26,209.42,82.79Z"/><path class="cls-2" d="M32.55,21.69l.4.71C33.35,22,33.32,21.78,32.55,21.69Z"/></g></g></g></svg>