<svg xmlns="http://www.w3.org/2000/svg" viewBox="0 0 342.17 174.59"><defs><style>.cls-1{fill:#fff;opacity:0.2;}</style></defs><g id="Calque_2" data-name="Calque 2"><g id="Contours"><path class="cls-1" d="M338.29,55.87c3.81-4.12,4.48-10.38,3.43-15.68-2.05-10.3-11-19-21.35-18.85C318,10.75,311.86-3.75,299.45.89,293,3.32,290.87,10.21,290,16.46a158.09,158.09,0,0,0-1.49,16.11c-5.61,1-9.5,3.94-13.21,9.4-2.17,3.17-4.46,6.54-7.92,8.41-4,2.19-9.12,2.65-13.61,3.22-9.72,1.22-19.62,1.47-29.23,3.48a55.65,55.65,0,0,0-22.15,10c-2.78-3.57-6-6.87-10.32-8.32-4.79-1.59-9.51-.43-13.92,1.72-5.75,2.79-10.67,7.37-16.55,9.86-2.74,1.16-4.62.5-7.26-.44a32.44,32.44,0,0,0-10.06-2.15c-7.76-.23-15,3.58-21.75,7-7.26,3.67-14.63,7.49-22.42,9.89-14.62,4.5-28.19-.92-42.7-2.92-15.52-2.14-32.3-2.44-45,8a4.13,4.13,0,0,0-1.56,3.77C4.11,100.65.63,111.84.09,122.28c-1.13,21.43,8.7,45.49,31.35,51.39,11.87,3.09,22.77-1.85,29.41-11.4,4.08,2.44,8.23,3,13.55,1.37,6.39-1.95,11.59-6.56,18.41-7.09,5.7-.45,11.58.38,17.09-1.54a18.32,18.32,0,0,0,10.49-9.71,127.14,127.14,0,0,0,35.33,1.23,117.9,117.9,0,0,0,18-3.46c6.62-1.83,12.77-4.77,19.29-6.86,10.64-3.41,21.62,0,32.21-4.27,11-4.42,21.74-13.09,34.24-11.13,12.81,2,25.57,3,37.77-2.64,2-.92,3.56-2.25,5.83-2.38s4.45.74,6.62,1.24c5.69,1.31,10.88,1.18,15.6-2.61,6.88-5.52,7.34-15,6.38-23.16-.52-4.35-1.43-8.63-2.21-12.94-.81-4.51-4.2-11.76-.81-15.81C331.1,59.52,335.58,58.81,338.29,55.87Z"/></g></g></svg>