<svg xmlns="http://www.w3.org/2000/svg" viewBox="0 0 306.65 120.88"><defs><style>.cls-1,.cls-2{fill:#fe5f58;}.cls-1{opacity:0.2;}</style></defs><g id="Calque_2" data-name="Calque 2"><g id="Phrase_2" data-name="Phrase 2"><g id="P2_m2_1"><path class="cls-1" d="M304.46,87.43a80.21,80.21,0,0,1-3.15-16.19,127.59,127.59,0,0,1,1.05-26.7c.83-6.37,1.88-12.8,1.49-19.24C303,11.48,293.46-.35,278.65,0c-13.1.32-20.56,12-27.18,22.21a16.49,16.49,0,0,0-11-2.58c-5.69.73-11.06,4.23-15.64,7.49a27.17,27.17,0,0,0-3.29,2.76,9.72,9.72,0,0,1-1,1.11,10.63,10.63,0,0,0-5.88-1c-2.76.3-5.87,2.24-8.67,1.61-2.45-.56-4.14-3-5.48-4.91-2.91-4.13-5.1-8.85-9-12.18A22.07,22.07,0,0,0,176.38,9.8c-9.78.48-18.49,6-24.81,13.28-8.69-9-22.28-13.95-32.54-6.83-4.44-7.07-12-10.13-21.48-10.06-11.72.08-19.87,6.65-28.66,13.13C59.68.76,34.7,14.43,23.63,26.17A76.11,76.11,0,0,0,4.07,68.1C-.12,80.85-2.4,95.39,3.9,107.37c4.09,7.79,13,12.78,21.78,10.77,7.21-1.65,13.85-7,18.47-13.35,4.18,5.92,9.14,10.75,17.78,8.3,6.75-1.92,13.18-8.31,17.46-14.9,5.94,5.65,9.87,13.19,18.53,15.91,10.16,3.18,20.31-.22,27.57-7.2,6.7,5.8,13.36,12,22.35,13.49,13.78,2.29,24.83-3.85,37-9.15,9-3.93,17-.38,25.93,2.26,9.83,2.92,20.1,5.43,30.44,5.08,8.55-.28,16.52-2.74,22.21-8.57,8.31,7.36,20.24,12.29,30.71,7.72a21,21,0,0,0,12.5-17.81C306.84,95.65,305.65,91.48,304.46,87.43Z"/><path class="cls-2" d="M145.81,93.71a1.33,1.33,0,0,0,0-.74c-.2-.9-.5-1.79-.61-2.7-.16-1.21-.49-2.44.11-3.66a1.2,1.2,0,0,0-.16-1c-.64-.84-.38-1.72-.26-2.62.15-1.19.27-2.38.38-3.57,0-.19,0-.48-.1-.56-1.06-.77-.53-2-.5-2.83a9.36,9.36,0,0,0,0-2.8,23.84,23.84,0,0,0-.39-2.37,8,8,0,0,1-.13-2.2,4.77,4.77,0,0,0,0-1,8.36,8.36,0,0,1-.48-4.45,1.27,1.27,0,0,0-.37-1.26,3.23,3.23,0,0,1-.51-1.5c-.09-.47,0-1,0-1.44a25.21,25.21,0,0,0-.37-3.26c-.18-.82-.14-1.72-.94-2.39a1.92,1.92,0,0,1-.57-1.86,2.57,2.57,0,0,0-.66-2.55,3.64,3.64,0,0,1-.88-1.5c-.22-.57-.18-1.26-.43-1.81-.51-1.1-1.13-2.15-1.73-3.21-.07-.12-.29-.15-.43-.24-.74-.51-1.64-.87-1.81-1.93,0-.15-.23-.32-.38-.39a34.19,34.19,0,0,0-3.6-1.38,4.69,4.69,0,0,0-3.07,0c-1,.37-2,.53-3,.85-.37.13-.94.45-1,.71,0,.84-.52.79-1.12.84s-1.17.14-1.32.44c-.41.84-1.3,1-1.78,1.59a19,19,0,0,1-1.84,1.86,3.34,3.34,0,0,0-.65.91,3.4,3.4,0,0,1-1.65,1.63c-.12,0-.14.34-.24.51-.23.38-.48.76-.73,1.13-.14.21-.44.39-.44.58,0,.73-.49,1.06-1,1.42a1.17,1.17,0,0,0-.37.43,3.92,3.92,0,0,1-1.65,2.17c-.25.14-.3.6-.45.91a2.39,2.39,0,0,1-.37.75c-.63.6-1.55,1-1.41,2.11,0,.12-.17.26-.25.4a7.36,7.36,0,0,1-1.49,2.53c-.08.06,0,.31,0,.48s-.06.32-.09.48h-.25c0-.58-.12-1.16-.13-1.74a14.27,14.27,0,0,1,.1-2.27c.11-.67.26-1.23-.3-1.82a1.65,1.65,0,0,1-.27-1.31c.3-1.24.52-2.42-.47-3.47a.36.36,0,0,1-.11-.22l-.42-3.83c0-.16,0-.39-.12-.47-1-.8-.36-2.44-1.56-3.16-.07,0,0-.26,0-.39a1.89,1.89,0,0,0-.93-1.63c-.46-.26-.68-.94-1-1.41-.69-.91-1.41-1.8-2.11-2.7a.12.12,0,0,0-.08,0c-1,0-1.56-.86-2.34-1.29a2,2,0,0,0-.51-.24c-.82-.14-1.66-.3-2.49-.38a3.14,3.14,0,0,0-.94.16c-.59.13-1.3.53-1.75.34-1.73-.76-3.31.15-4.92.34-.7.08-1.42.87-1.92,1.51a2.32,2.32,0,0,1-1.9,1,1.81,1.81,0,0,0-.92.43c-.56.41-1.1.85-1.64,1.3s-1.29,1.16-2,1.71a9.78,9.78,0,0,1-1.09.72c-.44.27-.89.5-1.32.77a3.46,3.46,0,0,0-1.35,2.11,1,1,0,0,1-.31.48c-1.17,1-2.6,1.66-3.24,3.18,0,.12-.28.17-.42.25a1.77,1.77,0,0,0-.55.34c-.63.86-1.22,1.75-1.85,2.61a6.32,6.32,0,0,1-.72.64c-.28.27-.54.55-.8.84s-.27.39-.41.58l-2.07,3s0,.06,0,.08c-.18.33-.35.66-.55,1-.52.82-1.71,1.39-1.12,2.43a12.26,12.26,0,0,0-1.82,1.89,13,13,0,0,0-.91,2.56c-.15-.26-.23-.43-.33-.57-.94-1.28.14-2.71-.32-4.06a10.66,10.66,0,0,1-.13-2.35c-.13-1.21-.59-2.4-.06-3.63a1.14,1.14,0,0,0,0-.73c-.25-.86-.6-1.69-.8-2.55a10.46,10.46,0,0,1-.19-1.94c0-.74.23-1.51-.55-2.11A1.44,1.44,0,0,1,56.8,46c.25-1.48-.85-2.38-1.4-3.51a9.44,9.44,0,0,1-.54-1.22c-.13-.38-.13-.8-.26-1.17a12.36,12.36,0,0,0-.72-1.67,3.33,3.33,0,0,0-.86-1.2,7.13,7.13,0,0,1-1.77-2c-.33-.44-.48-1.22-.87-1.35a7.66,7.66,0,0,0-2.81-.36c-.76,0-1.45.22-2.1-.33-.14-.11-.42-.08-.63-.08-.81,0-1.63.08-2.44,0s-1.34,0-1.72.8c-.11.24-.47.38-.72.55-.67.45-1.61.23-2.18,1S36.37,37,35.69,37.77a4.35,4.35,0,0,0-.46.85c-.23.41-.41,1.1-.72,1.16-.6.12-.58.46-.63.86-.1.77,0,1.61-.91,2.06a.64.64,0,0,0-.22.55c.35.48.06.82-.23,1.09-.62.58-1.35,1-1.92,1.66a5.49,5.49,0,0,0-1.34,2c-.23.87-.26,1.75-1,2.38a2.73,2.73,0,0,0-.5.66c-.43.69-.87,1.37-1.27,2.08a3.93,3.93,0,0,0-.24.78,6.57,6.57,0,0,1-.31,1c-.57,1.17-1.21,2.3-1.75,3.48A28.78,28.78,0,0,1,23,61.23c-.55.92-.36,2.18-1.36,2.89-.08.06.07.41.07.63s0,.59-.08.66c-1.2.74-1,1.91-1,3a3.09,3.09,0,0,1-.37,1.22c-.36.69-.81,1.33-1.2,2-.23.4-.41.82-.6,1.23a2,2,0,0,0-.24.6,26.52,26.52,0,0,1-.32,2.84c-.23,1-.69,1.86-1,2.81a12.42,12.42,0,0,0-.49,2c-.15.89-.19,1.79-.32,2.69a7.25,7.25,0,0,1-.43,1.58c-.36.81-1.33,1.46-.58,2.53a.37.37,0,0,1,0,.32c-.71,1-.2,1.89.12,2.83a2.29,2.29,0,0,1,.09,1.1,3.58,3.58,0,0,0,1.23,2.74,9.45,9.45,0,0,1,1.21.86,4,4,0,0,0,3.38.41c.16-.09.38-.2.45-.35.55-1.23,1.22-2.41.67-3.87A6.71,6.71,0,0,1,22,89.87c0-.48.14-1,.18-1.44a18.43,18.43,0,0,1,.2-3.26c.48-1.87,1.15-3.69,1.8-5.51.4-1.11.35-2.4,1.28-3.33a1.34,1.34,0,0,0,.23-.76c.08-.86.08-1.72.19-2.57.08-.64.09-1.58.49-1.84.83-.54.89-1.41,1.35-2.08s.89-1,.51-1.79a.33.33,0,0,1,.08-.31,4,4,0,0,0,1-2.17c.27-1.06,1-2,1.21-3.08s1.28-2.06.92-3.36c0-.12.21-.3.29-.47a7.13,7.13,0,0,0,1.1-2.52,2.23,2.23,0,0,1,.88-1.85,1.34,1.34,0,0,0,.64-1.34c-.11-.59.3-.93.81-1.21a2.28,2.28,0,0,0,1-1c.4-1,.84-1.86,1.32-2.78a27.57,27.57,0,0,1,1.55-2.94,2.17,2.17,0,0,1,1.17-1.06c.66-.2,1.27-.52,1.33-1.39a.82.82,0,0,1,.44-.62,1.63,1.63,0,0,0,1.42-1.68,3.49,3.49,0,0,0,.8,0c1.09-.29,1.66.86,2.63.93,0,0,.06.24.12.36.35.76.7,1.53,1.06,2.28,0,.09.18.13.25.21.47.59.95,1.17,1.39,1.78a.49.49,0,0,1,0,.47c-.57.92-.15,1.64.46,2.31a1.62,1.62,0,0,1,.38,1.76,1.58,1.58,0,0,0,.21,1.57,2.31,2.31,0,0,1,.39,1.05c.08.52,0,1,.08,1.57s.15,1.31.23,2c0,.16,0,.36.07.47a2.21,2.21,0,0,1,.32,1.82,4.7,4.7,0,0,0,.21,1.37,3.46,3.46,0,0,1,.24,1c-.28,1.63.42,3.29-.24,4.93a5.86,5.86,0,0,0,0,2.13c0,.43-.14.92,0,1.27a3.48,3.48,0,0,1,0,3,.89.89,0,0,0,.16.8c.59.43.5.92.33,1.48s-.42,1-.26,1.32a1.84,1.84,0,0,1,0,1.65,4.93,4.93,0,0,0-.17,1c-.16,1.33.24,2.69-.25,4a2.09,2.09,0,0,0,.07.81,5.68,5.68,0,0,0,0,.72c.08.44.06,1,.33,1.26A8.21,8.21,0,0,0,54.26,86a3.48,3.48,0,0,0,4.4-.7,1.19,1.19,0,0,0,.32-.85,5.32,5.32,0,0,1,.28-2.93c.19-.4.35-.82.53-1.22a5.22,5.22,0,0,0,.72-1.54,5.29,5.29,0,0,1,.72-2.4,10.39,10.39,0,0,0,.67-1.28,9.41,9.41,0,0,1,2.17-3.72,4,4,0,0,0,.77-1.67c.36-1.08.46-2.2,1.43-3.07a10.68,10.68,0,0,0,1.62-2.44c.24-.37.47-.74.68-1.12a9.64,9.64,0,0,0,.44-1c.15-.4.19-1.07.45-1.17.91-.36,1.29-1.14,1.81-1.83A10.21,10.21,0,0,0,73,56.77a3.71,3.71,0,0,1,1.63-2.22c.36-.21.52-.78.76-1.2a2.89,2.89,0,0,1,.26-.56c.66-.67,1.36-1.31,2-2s1.39-1.53,2.13-2.24a2.69,2.69,0,0,1,1-.49c.67-.21,1.24-.48,1.38-1.26.09-.5.39-.72.92-.89a7.16,7.16,0,0,0,3.56-2.69A3,3,0,0,1,89.1,42c.77-.08,1.61.24,2.06-.72a.3.3,0,0,1,.22-.09c1.11,0,2.24-.16,3.12.71.43.43.74,1,1.2,1.37a3.81,3.81,0,0,1,1.49,2.52,12,12,0,0,0,.64,2c0,.15,0,.32.08.48a6.47,6.47,0,0,0,.28,1.07c.42,1.11,1.49,2.07.7,3.45-.07.14.21.54.41.74a2.81,2.81,0,0,1,.54,2.06,6,6,0,0,0,.29,1.28c.06.26.24.53.2.77a3.34,3.34,0,0,0,.52,3c.09.12.19.39.14.44-.62.65-.11,1.37-.16,2,0,.34.31.88.18,1-.6.59-.27,1.28-.3,1.9a14.51,14.51,0,0,0,.09,2.87c.2,1.53.51,3,.76,4.56,0,.13-.16.28-.2.44-.19.78-.37,1.57-.55,2.36,0,.07,0,.16.06.24.14.61.28,1.22.41,1.83A6.17,6.17,0,0,1,101,82c-.35.84-.84,1.57-.3,2.49a1,1,0,0,1,0,.74c-.43,1,.12,1.68.5,2.45a2.72,2.72,0,0,0,3.06,1.7c1-.12,2,0,2.77-1,.43-.55,1.2-.82.81-1.74-.06-.14.1-.36.11-.55a9.81,9.81,0,0,0,0-3,3.53,3.53,0,0,1-.09-1.9.92.92,0,0,0,0-.57,2.93,2.93,0,0,1,.14-2.14c.26-1,1.06-1.88.56-3,0-.1.11-.29.16-.44.37-1.12.75-2.23,1.08-3.36.18-.64.07-1.34.94-1.69a1,1,0,0,0,.45-1.42,1.27,1.27,0,0,1,.29-1.16c.57-.55,1.13-1,.74-1.91a.44.44,0,0,1,.08-.38c.69-.74.78-2,1.84-2.41a.66.66,0,0,0,.31-.38c.39-1.45,1.62-2.56,1.72-4.14a.52.52,0,0,1,.15-.28c.93-1.08,2-2.08,2.78-3.24a17.28,17.28,0,0,1,2.43-2.62s0-.1.08-.14c.51-.7,1-1.43,1.55-2.08s1.84-1.09,2.22-2.2a.38.38,0,0,1,.26-.2c.69-.13.82-.74,1.09-1.24a1.85,1.85,0,0,1,.38-.62,2.32,2.32,0,0,1,3.52.72A20,20,0,0,0,132,48.09a6.82,6.82,0,0,1,1.27,2.52,16.8,16.8,0,0,0,.41,2.09c.34.7,1,1.26,1,2.13,0,.15.18.28.23.43a2.55,2.55,0,0,1,.29,1,9.54,9.54,0,0,0,1,4.24c.36,1,1,1.88.57,3.07a3.63,3.63,0,0,0,0,1.46c.06.88.64,1.67.41,2.6-.06.23-.17.55-.07.71a4.2,4.2,0,0,1,.21,3.26c-.05.24.13.52.16.79a10.78,10.78,0,0,1,.24,2.69,4.4,4.4,0,0,0,.32,2.71,2.22,2.22,0,0,1,.35,1.33c-.29,1-.85,1.91-.23,3a.25.25,0,0,1-.05.23c-.41.48-.18.94.06,1.39a1.62,1.62,0,0,1,0,1.86,1.38,1.38,0,0,0-.09.84,6,6,0,0,1,.23,1.27c-.22,1.61.31,3.19.09,4.8-.14,1,.74,2,.14,3.09,0,0,0,.15,0,.24.06.87.09,1.75.19,2.61.06.52.07,1.2.4,1.51a5.27,5.27,0,0,0,3,1.71,5.36,5.36,0,0,0,3.44-1,.49.49,0,0,0,.2-.35c0-1,.06-2,0-2.92C145.8,96.15,145.32,94.94,145.81,93.71Z"/><path class="cls-2" d="M230.58,80.64c-.23-.12-.69.11-1,.28s-.6.62-1,.77c-.9.38-1.84.66-2.76,1a2.4,2.4,0,0,0-1.49,1.75,1.28,1.28,0,0,0-1.77,1,2.23,2.23,0,0,1-2.2,1.49c-.35-.05-.93,0-1.09.25-.73,1.09-1.53,1.91-3,1.61a1.07,1.07,0,0,0-.68.23c-.66.41-1.31.83-1.94,1.29s-1.33,1-2.06,1.61c-.62-1-1.76-.31-2.78-.48.35-.85-1.35-1.34-.26-2.13a14.74,14.74,0,0,1-1.22-1.86c-.13-.27,0-1,.12-1,1.05-.37.71-1.16.66-1.87a6.82,6.82,0,0,1-.08-1.74,1.39,1.39,0,0,0-.6-1.69,4,4,0,0,0,1.28-3.31c0-.31.06-.63.06-.94a20.23,20.23,0,0,1,0-3.39c.25-1.63,1.29-3,1.44-4.74.07-.85.23-1.68.37-2.52a1.6,1.6,0,0,1,.17-.46,3,3,0,0,0,0-2.93.58.58,0,0,1,0-.53,2.35,2.35,0,0,0,.64-2.55c-.11-.37-.19-.76-.29-1.13s-.3-.61-.22-.84c.34-1.08.47-2.07-.64-2.81-.11-.08-.12-.3-.17-.46-.64-2-3.09-2.83-4.89-2.49-.59.11-1.19.55-1.73.47a2.51,2.51,0,0,0-2.12.61.94.94,0,0,1-.69.08c-1.2-.19-1.44,0-2.15.93a2.62,2.62,0,0,1-1.29.86c-.58.19-.79-.17-.63-.76a3.54,3.54,0,0,0-1.37-3.61,5,5,0,0,0-2.87-1,2.46,2.46,0,0,0-2.68,2.34,1.25,1.25,0,0,1-.52,1.2c-.32.24-.66,1-.52,1.19.49.69-.06,1.36.14,2a3.38,3.38,0,0,1,.07,1.7c-.42,1.69-.92,3.35-1.41,5-.32,1-.65,2.08-1,3.1a14.91,14.91,0,0,1-.82,1.45,1.43,1.43,0,0,0-.19.68,4.1,4.1,0,0,1-1.11,3.22A9,9,0,0,0,182.62,74c-.82,1.4-1.9,2.67-2.31,4.3,0,.12-.25.2-.37.31s-.38.24-.4.38c-.07.83-.72,1.2-1.23,1.69a6.4,6.4,0,0,0-.42.49c-.65.78-1.55,1.36-1.91,2.36,0,0,0,0-.07,0-.64.64-1.32,1.25-1.92,1.92-.82.91-1.58,1.87-2.36,2.81,0,.06-.12.18-.16.17a1.79,1.79,0,0,0-2,1.26s-.09.06-.14.09c-.66.36-1.49.5-1.77,1.36,0,.08-.25.1-.38.14-.92.29-1.85.58-2.77.89a.51.51,0,0,0-.3.25c-.22.69-.81.44-1.2.38s-.47-.44-.68-.7-.53-.91-.93-1.09a1.43,1.43,0,0,1-.85-1.68,2.24,2.24,0,0,0-.2-1.33c-.5-.71-.81-1.34-.25-2.15.1-.16.15-.51.06-.61-.76-.79-.18-1.77-.37-2.66a12.92,12.92,0,0,1,.12-3.27.69.69,0,0,0-.16-.45,1.64,1.64,0,0,1,0-2.07,2,2,0,0,0,.3-1.55,3.14,3.14,0,0,1,.11-2,31.31,31.31,0,0,0,1-3.07c.08-.22.44-.39.7-.5s.86-.06,1.09-.28c1.08-1.11,2.88-1.2,3.67-2.68,0,0,.1,0,.15-.06,1-.33,2-.64,3-1a1.31,1.31,0,0,0,.45-.33c.3-.32.59-.65.86-1s.41-.47.4-.69c0-.89.55-1.11,1.22-1.34a3.17,3.17,0,0,0,1-.55c.75-.59,1.47-1.2,2.18-1.82a10.05,10.05,0,0,0,1.11-1.15c.59-.7.51-1.88,1.61-2.24.17-.06.31-.46.33-.71A1.5,1.5,0,0,1,180,54.48a3.23,3.23,0,0,0,1.88-2.81,4.39,4.39,0,0,1,.35-1.16c.19-.67,1.34-1.07.53-2l.29-.08c0-.5,0-1,0-1.5,0-.11-.1-.25-.05-.32.59-.87-.11-1.43-.49-2.06s-1-1.16-.83-2.06c0-.22-.47-.54-.76-.79a8.54,8.54,0,0,0-.78-.56c-.15-.11-.29-.31-.45-.33-.91-.11-1.81-.18-2.72-.25a7.77,7.77,0,0,1-1.76-.13,2.33,2.33,0,0,0-2.22.29,1.85,1.85,0,0,1-1.62.35c-.8-.19-1.21.24-1.67.77s-.86,1.08-1.4,1.23c-1.45.41-2,1.77-3,2.6A11.43,11.43,0,0,0,164,47.08c-.22.26-.55.54-.58.83a4.68,4.68,0,0,1-1.72,3.14,4.94,4.94,0,0,0-1.91,2.53c-.11.54-.7,1-1.13,1.46-.56.6-1.26,1.08-.95,2.1.06.2-.24.5-.35.76-.2.49-.66,1.12-.51,1.46.33.71-.06,1-.44,1.33a1.22,1.22,0,0,0-.44,1.46c.36,1.2-.59,1.95-.92,2.91,0,.09-.35.07-.52.12l-1.52.5c-.21.07-.46.21-.62.14a1.5,1.5,0,0,0-1.46.34,1.89,1.89,0,0,1-2,.21,1.29,1.29,0,0,0-.65-.05,2.66,2.66,0,0,0-2.61,2.42,3.09,3.09,0,0,0,.45,2.68c.58.65,1,1.67,2.16,1.24a.31.31,0,0,1,.23.08,2.73,2.73,0,0,0,3,.1,2.14,2.14,0,0,1,1.6.29c.18.1.05.79.06,1.21,0,.26,0,.53,0,.8,0,.9.28,2-.14,2.67-.89,1.37-.44,2.75-.43,4.11a5,5,0,0,1-.16,2.38.67.67,0,0,0-.07.41,28.2,28.2,0,0,0,1.27,3.62,2,2,0,0,1,.18,1.7c-.24.69-.5,1.43.38,2a1.35,1.35,0,0,1,.43.6c.55,1.08,1.13,2.15,1.62,3.26A2.26,2.26,0,0,0,158,97.37c.31,0,.56.43.86.62.52.34,1.07.91,1.61.91a6.46,6.46,0,0,1,2.57.81,1.52,1.52,0,0,0,1.13,0c.64-.33,1.55-.18,1.9-1,0-.05.31,0,.47,0,1.63.07,3.16,0,4.25-1.53A2.28,2.28,0,0,1,172.51,96c.14,0,.29-.14.42-.25a17.07,17.07,0,0,0,3-2.5,4.32,4.32,0,0,0,.61-.86c.4-.89.76-1.75,2-1.76a1.08,1.08,0,0,0,1.21-1.18,1.21,1.21,0,0,1,.33-.63c1-1.31,2.64-2.07,3.4-3.65.47-1,1.81-1.46,1.63-2.83,0-.06.06-.16.12-.21a6.15,6.15,0,0,0,2-1.93c.5-.89,1.28-1.62,1.36-2.74a1.35,1.35,0,0,1,.26-.67,11,11,0,0,0,1.93-4.12,2.66,2.66,0,0,1,.69-1.28c.68-.54,1-1,.39-1.76a6.12,6.12,0,0,0,.53-.8c.46-1.05.9-2.1,1.34-3.16a6.69,6.69,0,0,0,.29-.86c.14-.67.24-1.34.41-2,0-.15.28-.28.45-.35a16.23,16.23,0,0,0,1.58-.52c.81-.38,1.58-.84,2.37-1.26a.88.88,0,0,1,.33,0c1.06-.12,2.13-.25,3.2-.34a1.08,1.08,0,0,0,1.09-.72.72.72,0,0,1,.65-.3.81.81,0,0,1,.37.61c0,.66-.07,1.33-.1,2a25.53,25.53,0,0,1-.94,4.43c-.37,1.56-1.09,3-.72,4.73a12.76,12.76,0,0,1-.06,3.26,1.86,1.86,0,0,1-.15.56c-.31.88-.6,1.76-.94,2.62-.41,1,.05,1.94.16,2.91.07.53.27,1.22,0,1.57a3.08,3.08,0,0,0-.17,3c.28.79-.24,2,1.13,2.2-.34.83-.65,1.54-.95,2.26a1.2,1.2,0,0,0,0,.33c0,1.55,1.22,2.77,1.2,4.33a.23.23,0,0,0,.07.15c.63.71,1.24,1.46,1.92,2.12a6.22,6.22,0,0,0,1.59,1.17,10.73,10.73,0,0,0,2,.61,2,2,0,0,0,.54,0,5.78,5.78,0,0,1,.93,0c.56.09,1.1.25,1.66.36.89.16.78-.79,1.22-1.13l.19-.17.74.26a9.13,9.13,0,0,1,2.35-1.23,4.38,4.38,0,0,1,1.75-.25,1.36,1.36,0,0,0,1.24-.45,8.2,8.2,0,0,1,1.73-1.51c1-.56,2.15-.84,2.73-2a.9.9,0,0,1,.79-.28c.87.31,1.37-.23,1.76-.77.83-1.15,2.21-1.35,3.3-2,.52-.32,1.22-.28,1.49-1,.07-.18.41-.24.61-.37l1-.71a2,2,0,0,0,.48-.44c.28-.4.75-.84.74-1.25,0-.75-.45-1.47-.55-2.23C233.07,81.25,231.64,81.17,230.58,80.64Zm-66-21.55c.25-.5.49-1,.75-1.5a3.87,3.87,0,0,1,.34-.55c.12-.14.35-.24.4-.39a20.29,20.29,0,0,0,.83-2.9c.21-1.32.32-1.62,1.61-1.6,1.1,0,1.22-1,1.79-1.5s1.12-1.66,1.88-2a5.65,5.65,0,0,0,2.12-1.45,3.3,3.3,0,0,1,1-.49c.78.63.59,1.37.25,2.16-.24.55-.37,1.13-.58,1.69a1.74,1.74,0,0,1-.31.47,13.5,13.5,0,0,1-2.79,2.47,16.21,16.21,0,0,0-2.78,3.09c-.51.58-1,1.16-1.55,1.7a1.08,1.08,0,0,1-.73.34c-1-.17-1.25.55-1.66,1.18A9.29,9.29,0,0,1,164.1,61l-.37-.26Z"/><path class="cls-2" d="M288.78,98.58a4.27,4.27,0,0,1-1.18-1.14c-.49-.68-.84-1.46-1.32-2.15s-1.28-1.49-1-2.61a.79.79,0,0,0-.13-.63,2.91,2.91,0,0,1-.87-2.13c0-.35.14-.8,0-1a4.18,4.18,0,0,1-.61-2.61c.05-1.15-.65-2.32-.7-3.49a15.75,15.75,0,0,1,.52-3.29c.09-.57.42-1.25.22-1.67-.55-1.12-.15-2.16,0-3.22.06-.41.17-.82.23-1.23s.13-1.06.16-1.6.17-1,0-1.19c-.71-.69-.07-1.2.11-1.78.06-.2.27-.38.29-.58.14-1.51.25-3,.38-4.53a2.85,2.85,0,0,1,.17-.46,6.9,6.9,0,0,0,.59-2,12.79,12.79,0,0,0-.49-3.26,4.1,4.1,0,0,1-.05-1.84,1.34,1.34,0,0,0-.16-1c-.8-.85-1.42-1.93-2.68-2.24a10.12,10.12,0,0,0-1.59-.43,2,2,0,0,0-1,.42c-.2.13-.3.42-.5.55-.79.53-1.57.91-1.84,2.08A4.63,4.63,0,0,1,275.59,58c-.28.22-.32.74-.47,1.13a5,5,0,0,1-.2.54,10.86,10.86,0,0,0-1.27,2.46c-.15.65-.75.66-.93,1.1-.3.79-.54,1.59-.81,2.39-.06.15-.08.4-.18.43-1.06.38-1.05,1.54-1.65,2.26S269,70,268.4,70.7c-.79,1-2,1.74-2.41,2.82-.55,1.54-2.27,2.11-2.6,3.71,0,.14-.39.19-.54.34-.31.32-.87.72-.82,1,.13.79-.36,1-.84,1.29-1,.57-2.25.66-2.79,1.9a.93.93,0,0,1-.66.43c-1.1.11-1.53,1.11-2.3,1.66a5.47,5.47,0,0,1-1,.66c-.49.2-1.17.11-1,1,0,.09-.2.29-.31.3-.76,0-1.06.64-1.46,1.13-.17.2-.35.5-.57.55a19.69,19.69,0,0,1-3.38.62,1.38,1.38,0,0,1-1.47-1.86,1.87,1.87,0,0,0-.14-1c-.23-.7-.57-1.37-.75-2.07a18.63,18.63,0,0,0-.58-3c-.32-.76,0-1.79.06-2.7,0-.48.26-1.11,0-1.43-.9-1.29-.47-2.7-.57-4.06,0-.13.09-.26.14-.39.35-.91.71-1.81,1-2.73.08-.22,0-.5,0-.74a5.19,5.19,0,0,1,.31-1.32c.36-.79,1.14-1.44.76-2.48-.07-.17.07-.43.16-.63.43-1,.89-2,1.32-3.07.07-.16,0-.38,0-.56a7.36,7.36,0,0,1,.19-1.26,13.64,13.64,0,0,1,.6-1.54c.13-.33.33-.62.47-.95a15.72,15.72,0,0,0,.85-2.25c.12-.49.17-.87.67-1.13a1.85,1.85,0,0,0,1.08-1.54,4.8,4.8,0,0,1,.37-1.61c.4-.78.51-1.72,1.45-2.24.32-.18.35-.94.46-1.45.06-.31-.08-.68,0-1a2,2,0,0,0-.2-1.72,3.82,3.82,0,0,0-2-1.75,1.21,1.21,0,0,0-.85.07,7.15,7.15,0,0,1-1.86.81c-.87.06-1.06.61-1.4,1.18-.71,1.21-1.45,2.41-2.26,3.55-.36.52-.75.94-.46,1.64.06.15-.16.42-.26.63l-1.21,2.61c-.12.27-.22.55-.34.82-.58,1.24-1.6,2.28-1.56,3.79,0,.26-.25.53-.39.8a7.78,7.78,0,0,0-1.05,2.07c-.18,1-1.09,1.92-.68,3.09,0,.05-.1.18-.18.25-.78.68-.64,1.57-.65,2.46a7.58,7.58,0,0,1-.35,2.83c-.62,1.43-.11,2.89-.42,4.32-.17.82,0,1.7-.17,2.54-.23,1.44-1,2.89.3,4.23.09.09.05.32,0,.47-.08.81-.17,1.62-.24,2.43a.72.72,0,0,0,.12.48,2.62,2.62,0,0,1,.63,2.38,3,3,0,0,0,.84,2.31c.5.67.86,1.45,1.34,2.14s1,1.29,1.49,2,.67,1.34,1.05,2a1.27,1.27,0,0,0,.55.4c.19.1.42.11.6.21a6.35,6.35,0,0,0,1.86,1c1,.14,2.07.55,3-.35.16-.15.51-.08.77-.16.6-.18,1.2-.37,1.79-.58a8.52,8.52,0,0,1,1.17-.49c.72-.17,1.54-.12,1.67-1.16,0-.14.25-.26.4-.37.38-.24.76-.49,1.15-.7a3.72,3.72,0,0,1,.64-.22,4.73,4.73,0,0,0,1.43-.49c.81-.65,1.5-1.45,2.28-2.14.53-.48,1.14-.86,1.69-1.31.4-.33.72-.82,1.17-1,1.24-.56,1.5-.91,1.46-2.33a.69.69,0,0,1,.26-.51c.88-.5,1.82-.93,2.68-1.47a4.71,4.71,0,0,0,1-1.06c.26-.31.38-.64.86-.86a3.6,3.6,0,0,0,1.69-1.6,4.27,4.27,0,0,1,1.43-2.1c.1-.07.13-.24.19-.36.4-.85.79-1.69,1.18-2.54a.64.64,0,0,1,.1-.13c.61-.67,1.25-1.32,1.82-2a16.48,16.48,0,0,0,1-1.57c.42.28.56.61.26,1.2a2.8,2.8,0,0,0-.45,1.73,2.1,2.1,0,0,1-.12,1.72,2.07,2.07,0,0,0-.06,1,6.17,6.17,0,0,1,0,2.1,7.18,7.18,0,0,0-.1,4.73,1.81,1.81,0,0,1,.07.65c-.08,1.21-.18,2.41-.27,3.61a.36.36,0,0,0,.08.23c.66.45.52,1.16.6,1.8q.21,1.61.48,3.21a1.23,1.23,0,0,0,.27.59,4.43,4.43,0,0,1,1.1,3.36,3,3,0,0,0,.29,1c.13.33.3.64.43,1,.72,1.88,1.28,3.85,3,5.15a.38.38,0,0,1,.14.21c.16.63.66.74,1.21.83a3.44,3.44,0,0,1,1.08.36,2.84,2.84,0,0,0,3.26-.77c.9-1.06.46-2.28.71-3.41A1.08,1.08,0,0,0,288.78,98.58Z"/><path class="cls-2" d="M293.27,21.08c-.41-.92-.93-1.79-.37-2.77a3.07,3.07,0,0,0-.12-.63,1.68,1.68,0,0,0-2.16-.65,2.06,2.06,0,0,1-1,.26,2,2,0,0,0-2.18,1.22,16,16,0,0,1-1.09,1.87,10.63,10.63,0,0,0-.85,1.55,11.74,11.74,0,0,1-.52,1.94,5.59,5.59,0,0,1-1.71,1.84,2,2,0,0,0-.87,1.39,4.11,4.11,0,0,0-.26,1.67,12,12,0,0,0,.79,2.35,1,1,0,0,0,1.53.47,1.68,1.68,0,0,1,1.87-.16,2.82,2.82,0,0,0,2.33-.37.89.89,0,0,0,.4-.58,8.52,8.52,0,0,0,.33-1.64,2.89,2.89,0,0,1,1.75-2.41,1.22,1.22,0,0,0,.47-.63c.26-.72.47-1.47.71-2.21a.76.76,0,0,1,.26-.31A1.65,1.65,0,0,0,293.27,21.08Z"/></g></g></g></svg>