<svg xmlns="http://www.w3.org/2000/svg" viewBox="0 0 336.61 133.87"><defs><style>.cls-1{fill:#fff;opacity:0.2;}</style></defs><g id="Calque_2" data-name="Calque 2"><g id="Contours"><path class="cls-1" d="M333.59,91c-1.94-5.49-.22-10.39,1.06-15.91,1.23-5.36,2.53-11.24.51-16.56a12.86,12.86,0,0,0-8-7.61c3.42-11.81,2.61-28.46-10-32-12.81-3.61-20.94,10.61-27,22.14-6.76-15.16-18.48-30-36.62-22.12-11,4.82-16,13.87-23.23,22.73-3,3.71-5.71,6.55-10.71,5.59-6-1.15-11.39-4.35-17.34-5.68-6.5-1.44-13.16-1.58-19.77-2-3.76-.28-10.56.09-13-3.45s-3.23-8.35-4.89-12.13a48.4,48.4,0,0,0-9.7-14.89c-6.71-6.73-18.65-13.15-27.13-5.74-3.4,3-5.3,7.17-6.94,11.29-1,2.58-2.29,10.35-4.71,11.81-.84.52-6.39-1.68-8.26-2.12a60.55,60.55,0,0,0-14.65-1.35c-7,0-19.6-.85-24.83,5-11.79-7.57-26-14.17-39.41-9.32C14.4,23.93,3.6,39.31.72,54.15-1.87,67.51,2.58,83,13.31,91.81c10.07,8.26,23.31,10.51,36,9.88a114.93,114.93,0,0,0,37.2-8.42c5.56,16.83,25.41,19.44,41.69,18.87,9.57-.33,19.13-2.37,28.71-2,15.63.67,30.86,6.08,46.6,5A42.56,42.56,0,0,0,214,113.34c1-.32,6.61-2.29,7.73-3.65.62.58,1.29,1.12,1.91,1.68,1.82,1.63,3.65,3.26,5.61,4.73,5,3.74,11.93,5.15,17.88,6.48,7.78,1.75,15.64,3,23.32,5.16,12.23,3.46,26.81,8.12,39.6,5.23,11.11-2.52,22.84-12,25.84-23.28C337.7,102.77,335.88,97.48,333.59,91Z"/></g></g></svg>