<svg xmlns="http://www.w3.org/2000/svg" viewBox="0 0 336.56 132.67"><defs><style>.cls-1{fill:#fff;opacity:0.2;}</style></defs><g id="Calque_2" data-name="Calque 2"><g id="Contours"><path class="cls-1" d="M334.15,96a88.64,88.64,0,0,1-3.45-17.77,140.23,140.23,0,0,1,1.15-29.31c.91-7,2.06-14,1.64-21.11C332.58,12.6,322.08-.39,305.83,0,291.45.36,283.26,13.19,276,24.39a18.07,18.07,0,0,0-12.07-2.83c-6.24.8-12.14,4.64-17.16,8.21a32.82,32.82,0,0,0-3.62,3A10.73,10.73,0,0,1,242,34,11.66,11.66,0,0,0,235.59,33c-3,.33-6.44,2.46-9.52,1.76-2.69-.6-4.55-3.29-6-5.38-3.18-4.54-5.6-9.71-9.91-13.37a24.16,24.16,0,0,0-16.56-5.22c-10.73.52-20.29,6.57-27.22,14.57-9.54-9.86-24.46-15.31-35.72-7.49-4.88-7.77-13.15-11.12-23.57-11C94.2,6.88,85.26,14.09,75.6,21.2,65.5.84,38.08,15.84,25.94,28.72,14,41.37,6.81,57.7,4.46,74.74c-4.59,14-7.09,30-.18,43.1,4.49,8.56,14.26,14,23.91,11.82,7.9-1.81,15.2-7.7,20.26-14.65,4.59,6.5,10,11.8,19.52,9.11,7.41-2.1,14.47-9.12,19.16-16.36C93.65,114,98,122.25,107.47,125.22c11.15,3.5,22.29-.23,30.26-7.89,7.35,6.36,14.66,13.16,24.53,14.8,15.12,2.52,27.26-4.22,40.6-10,9.88-4.3,18.7-.41,28.47,2.49,10.79,3.2,22.06,6,33.41,5.58,9.38-.31,18.13-3,24.37-9.41,9.13,8.08,22.21,13.49,33.71,8.48a23.08,23.08,0,0,0,13.71-19.55C336.77,105,335.46,100.41,334.15,96Z"/></g></g></svg>