<svg xmlns="http://www.w3.org/2000/svg" viewBox="0 0 306.66 168.42"><defs><style>.cls-1,.cls-2{fill:#fe5f58;}.cls-1{opacity:0.2;}</style></defs><g id="Calque_2" data-name="Calque 2"><g id="Phrase_1" data-name="Phrase 1"><g id="P1_m3_1"><path class="cls-1" d="M306.3,38.83c-1.22-8.34-4.66-18.57-11.2-24.26-6.7-5.82-13.18-5.05-19-1.2A25.36,25.36,0,0,0,264.54,1.59c-7.33-3.44-15.31-1-21.05,4.23-5.42,4.9-8.33,12-13.75,16.85-8.05,7.19-19.25,4.42-29,5a103.42,103.42,0,0,0-14,1.93c-5.77,1.16-10,3.93-15.17,6.35-1.56.72-3,1.42-4.55.83-2-.73-3.52-2.48-5.66-3.16-5-1.61-10.15-.61-15.12.68s-10.28,3.24-15.51,3.12c-6.18-.15-12.38-2.68-18.57-3.37a76.09,76.09,0,0,0-14.94-.2c-1.89.16-3.83.6-5.72.69l-.17-.21c-.84-1-2.66-1.61-3.67-2.41-4.07-3.21-7.26-7.31-11.71-10.07a56.81,56.81,0,0,0-13.22-5.78c-6.19-1.89-13.71-3.3-20.28-1.7A14.59,14.59,0,0,0,36.9,15C28.78,17.33,23,24.9,19.19,32A81,81,0,0,0,10.47,60.3c-1,8.1-1,17.5,3.32,24.74,4.06,6.79,10.57,8.63,17.28,7.63-1,4.33-3.87,8.68-6,11.94-4.54,6.85-9.83,13.16-14.82,19.68C2.48,134.43-5.31,151,4.83,162.39,16.26,175.2,38.21,165,48.5,155.82a59.23,59.23,0,0,0,15-22c2.34-5.74,2.88-11.93,4-18,.61-3.36,1.3-6.71,2.16-10a21.54,21.54,0,0,1,1.23-4c1-2,.7-1.77,1.94-1.37,1.6.51,3.09,2,4.62,2.78a17.86,17.86,0,0,0,6,1.55c5.36.54,11.08-.33,16.46-.59,10.79-.51,22-1.6,32-6,4.12-1.8,7.24-4.65,10.66-7.5,1.64-1.36,3.55-3.16,5.63-3.76,2.29-.66,3.67.47,5.72,1.22,9.7,3.51,19.3,1,28.73-2.07,2.72-.88,5.45-1.83,8.25-2.44s4.93-.18,7.8-.05c5.14.24,7.3-3.41,11.76-4.75,5.05-1.53,11.89.07,17,.69,5.67.69,11.13,0,16.77-.79s11.28-1.61,17-1.84c5.17-.21,10.29.44,15.45-.26C295.42,74.14,309.1,58,306.3,38.83Z"/><path class="cls-2" d="M300.13,47.34c.56-.55.84-1.13.11-1.76a.66.66,0,0,1-.15-.3c-.27-1-.53-2-.81-3.15a.49.49,0,0,0-.2-.89c-.71-.05-.6-.56-.8-.9a8.34,8.34,0,0,0-.47-.89,2.08,2.08,0,0,1-.4-1.38c0-.79-.1-1.75-1.11-2.12a.84.84,0,0,1-.34-1.42c.35-.41.14-.39-.11-.56a2.57,2.57,0,0,1-1-2.42c0-.19-.11-.57-.23-.59-.69-.12-.76-.75-1.06-1.19-.1-.14-.26-.32-.4-.32-.67,0-.68-.39-.61-.91a1.35,1.35,0,0,0-1-1.73c.72-.58,0-.9-.23-1.3a4.34,4.34,0,0,0-.57-.66l-.45.45A7.65,7.65,0,0,0,290,24a12.55,12.55,0,0,0-1-1.76c-.12-.2-.42-.48-.57-.45a1,1,0,0,0-.64.55,2.81,2.81,0,0,0,.16,2.14,2.82,2.82,0,0,1,.44,2.33,39.77,39.77,0,0,0-1.2,4.53c-.54,3.06-.95,6.15-1.43,9.22-.36,2.34-.66,4.69-1.13,7a20.16,20.16,0,0,1-2.36,6.56c-.34.55-1,1.33-1.4,1.29a2.51,2.51,0,0,1-2.14-1.08c-.37-.62-.89-1.44-1.9-1.37a2.09,2.09,0,0,0-1.14-1.85c-.13,0-.22-.23-.31-.37a18.66,18.66,0,0,0-1.57-2.78,20.22,20.22,0,0,1-1-2.09A19.09,19.09,0,0,1,271,41.39a3.81,3.81,0,0,0-.31-.56l.39-.28c-1.2-.93-.3-1.9,0-2.84l-.22,0-.37.8L268,35.17c-.24.15-.64.26-.72.47-.39,1.12-.71,2.25-1,3.39-.08.31,0,.65-.06,1-.14.61-.39,1.2-.52,1.81-.35,1.65-.66,3.32-1,5a.25.25,0,0,1-.11.12c-.83.43-.4,1.39-.84,2s-.19,1.35-.86,1.85a1.57,1.57,0,0,0-.22,2l.21-.31.19.17c-.24.22-.47.45-.72.66a5.11,5.11,0,0,0-1,.8,21,21,0,0,1-1.29,2.1,2.38,2.38,0,0,1-1.61.85c-.85,0-1.43-2.11-.91-2.88-.54-.9-1.13-2-.53-2.93-.74-.25-1.37-.6-1-1.56,0-.08,0-.22-.11-.31a3.4,3.4,0,0,1-.25-2.49h.79v-.15h-.69c.12-.39.22-.74.33-1.09H256l-.43.8c-.17-.62-.29-1-.4-1.46l-.28-.12,1.38-1.07c-.86-.86-.38-2.17-.77-3.23a2.37,2.37,0,0,1-1.07-.71,20.49,20.49,0,0,1-1-1.9c-.27-.5-.61-.88-1.28-.44a3.73,3.73,0,0,1-.36-1,2.52,2.52,0,0,1,.21-.88,10.87,10.87,0,0,1-1.11-.84c-.73-.75-1.41-1.54-2.15-2.29a1.35,1.35,0,0,0-.74-.35,19.66,19.66,0,0,0-2.54-.14,6.47,6.47,0,0,0-3,.83,10.12,10.12,0,0,0-3.76,3.87,11.46,11.46,0,0,0-.93,9.9c.55,1.57,1.44,3,2.14,4.55.14.31.29.89.14,1a17.22,17.22,0,0,1-2.27,1.7c-.36.23-1,.15-1.24.42A10.51,10.51,0,0,1,233.1,56a15.49,15.49,0,0,0-1.93,1.2l0-.21a2.08,2.08,0,0,0-.58.19c-.17.11-.26.45-.41.47-1.19.12-2.17.9-3.38,1-.4,0-.69-.28-.8-.23-1,.43-1.18-.46-1.57-1s-.66-1.27-1.43-1.6c-.3-.13-.63-1-.51-1.17.56-.58.09-.69-.26-.93-.13-.09-.3-.28-.28-.39.15-1.08-.91-2.33.46-3.23,0,0,0-.1,0-.28l-1.25-.49c-.4-.78.44-1.24.78-1.92-.94.27-1.57,0-1.43-.57a2.83,2.83,0,0,0-.21-2.28s0-.12,0-.16c-.14-.28-.28-.55-.43-.82a3.11,3.11,0,0,1-.22-.45,13,13,0,0,0-.93-2.84,38.39,38.39,0,0,0-2.42-3,2.93,2.93,0,0,0-2-1.13,7.09,7.09,0,0,0-2.28.36,6.68,6.68,0,0,0-1.46.45c-.92.46-1.81,1-2.7,1.5-.24.13-.43.35-.68.46a16.85,16.85,0,0,0-1.86.76c-1.64,1-3.24,2.06-4.85,3.1a2.69,2.69,0,0,0-1.07,3.5,15.86,15.86,0,0,1,1.42,5.38,10.86,10.86,0,0,1-1,5.28,39.78,39.78,0,0,1-3.61,5.41,9,9,0,0,1-2.67,2c-.77.45-2.47-.27-3.23-1.16a10.88,10.88,0,0,0-2.28-2.44c-.77-.46-.72-1.36-1.41-1.72.4-1.26-.14-2.49-.08-3.74,0-.35,0-.7,0-1a4,4,0,0,1,.19-.75l.4.81c.17-.5.28-.84.41-1.26a10.52,10.52,0,0,0,3-3.7c.4-.74.78-2.11-.58-2.79a.34.34,0,0,1-.13-.3c.15-.56-.29-.73-.63-1s-.77-.37-.94-.68c-.62-1.14-1.82-1.59-2.74-2.35a1.72,1.72,0,0,0-1.59-.17,3.26,3.26,0,0,0-.93,1.61c-.3.91-.22,2-.42,2.81a18.61,18.61,0,0,0-.48,3.44,34.58,34.58,0,0,0,.21,4.43c.06.8.47,1.67.27,2.37A11.1,11.1,0,0,1,180.91,60a18.13,18.13,0,0,1-3.51,4l-1.2,1,0,.5a6.58,6.58,0,0,0-2.07.84c-.41.38-.58.27-.73.18-.33.17-.57.4-.8.41-.86,0-1.72-.09-2.58-.08a6.31,6.31,0,0,0-1.21.24c-.38-.21-.71-.36-1-.56-.52-.35-1.3-.62-1.47-1.1-.24-.71-.72-.81-1.23-1-.2-.09-.47-.14-.59-.29a14.63,14.63,0,0,0-1.4-2c-.45-.41-.69-1.07-1.15-1.59a29.43,29.43,0,0,1-3.16-4.37,6.23,6.23,0,0,0-1.5-1.72,14.08,14.08,0,0,0-2.76-1.93c-.36-.17-.55-.54-1-.28s-.81.2-1.1.44a10.83,10.83,0,0,0-1,1.15,25.81,25.81,0,0,0-2.57,2.78,40.75,40.75,0,0,0-2.28,4.15c-.86,1.62-1.69,3.25-2.55,4.86-.06.13-.29.18-.44.26a2.52,2.52,0,0,1,0-.48c.09-.35-.42-.91-.92-.85.81-1.21-.62-1.91-.61-2.66-.41-.45-.71-.76-1-1.09-.62-.72-1.18-1.49-1.85-2.15a6.22,6.22,0,0,0-1.83-1.38,1.47,1.47,0,0,0-1.62.26,12.69,12.69,0,0,0-2.18,2.93A36.48,36.48,0,0,0,130.39,68a11.35,11.35,0,0,1-1.33,2.11,5.44,5.44,0,0,0-.22-.73c-.63-1.29-1.25-2.59-1.9-3.87a9.77,9.77,0,0,0-1.25-2.27,22.1,22.1,0,0,0-2.86-2.41,2,2,0,0,0-2.32,0,4.92,4.92,0,0,0-.78,1.16c-.49,1.31-1,2.64-1.34,4-.17.59-.1,1.23-.25,1.83-.31,1.29-.74,2.56-1,3.85a15,15,0,0,1-1.19,4.16c-.26.47-.54.64-1,.31a8.84,8.84,0,0,1-1.19-.9c-1.23-1.31-2.43-2.65-3.64-4,0-.06-.06-.16-.11-.22-.47-.67-.93-1.33-1.42-2-.26-.35-.55-.68-.83-1a3.79,3.79,0,0,0-.31-.37c-.57-.59-1.13-1.21-1.74-1.76a15.7,15.7,0,0,0-1.65-1.3c-.11-.08-.46,0-.59.17a3.18,3.18,0,0,0-.84,1.11c-.43,1.37-.8,2.76-1.1,4.15-.25,1.15-.28,2.35-.58,3.48-.62,2.28-1.26,4.57-2.07,6.79-.57,1.59-1.13,3.26-2.81,4.35-.43-.49-1.21-1-1.19-1.46,0-1.09-.78-1.82-.92-2.8,0-.25-.43-.45-.65-.67s-.45-.38-.52-.61c-.23-.81-.39-1.64-.58-2.46-.12-.51-.26-1-.41-1.63l-.21.51-.18,0v-.82l-.74-1.21-.33.54-.49-1,.67-.12-.57-1.59c-.06.29-.12.53-.18.78h-.3c-.15-1.17-.3-2.35-.45-3.5a8.72,8.72,0,0,1-1.3-1,20.46,20.46,0,0,1-1.58-2.12.84.84,0,0,1,0-.69c.36-.66.77-1.3,1.18-2s.59-1.33,1.37-1.7c.54-.24.87-.88,1.37-1.23s1.29-.76,2,0c.25.25.81.24,1.23.29A1.41,1.41,0,0,0,94,60a6.28,6.28,0,0,0,.83-.55,6.87,6.87,0,0,0-.63-.69,8,8,0,0,1-1.32-1c-.75-.94-1.44-1.86-2.83-1.74-.42,0-.85,0-1.3,0a4.65,4.65,0,0,0-.77.34,13.56,13.56,0,0,0-2.32,1.62,20.19,20.19,0,0,0-2,2.58c-.47.66-1.18,1.32-1.24,2-.09,1-.9,1.5-1,2.48s-.83,1.75-1.22,2.65a15.9,15.9,0,0,0-1.39,7.86c.25,2.41.55,4.94,2.17,7,.77,1,2.59,1.57,3.59.83a2.17,2.17,0,0,0,1.08-1.76,4.83,4.83,0,0,1,.38-1.27,3,3,0,0,0,.29-1.12c0-.29-.42-.54-.48-.61a4.93,4.93,0,0,0,.73-1.21,12.79,12.79,0,0,0,.26-2c.08-.68.15-1.36.22-2l-.19-.09-.68.64L86,73.86c.1-.84.21-1.69.33-2.66.2.09.5.12.57.27a17.73,17.73,0,0,1,.79,1.85c.45,1.21.82,2.47,1.33,3.65.76,1.75,1.54,3.5,2.46,5.16s2.18,3.38,3.22,5.1a2,2,0,0,0,2.11.86A4.81,4.81,0,0,0,98.07,88c1.06-.33,2.15-.64,2.61-1.85a3.5,3.5,0,0,1,.56-1,1.06,1.06,0,0,0,0-1.52c1.07-.13,1.35-.71,1-1.6a1.21,1.21,0,0,1,.13-1.38c.11-.14-.05-.49-.1-.83l.77-.29c-.19.61-.31,1-.44,1.41.45.16.79-.23.74-.78,0-.33-.1-.77.07-1,.49-.53.32-1,0-1.45a1.74,1.74,0,0,1,.39-2.13c.28-.13.73-.24.78-.45a3.55,3.55,0,0,0-.18-1.28L104.05,75h-.26a2.55,2.55,0,0,1-.11-.93c.27-.9.61-1.78.93-2.67l.32.46c.55-.93-.06-1-.8-1.06.45-.22.21-1.44,1.2-.73,0,0,.16-.09.23-.08.28,0,.65,0,.82.19a16.08,16.08,0,0,1,1.1,1.37c.81,1,1.59,2,2.46,3a29.7,29.7,0,0,0,2.83,2.78c1,.84,1.86,2,3.28,2.09,1,.07,2.06.44,2.71-.46-.29-.53-.72-1-.73-1.4s.56-.63.86-.92c.09-.27.11-.75.29-.82.64-.24.36-.34,0-.58-.17-.12-.37-.44-.32-.59.2-.59.49-1.16.78-1.81h1.21a9.54,9.54,0,0,0-.9-1.17c-.63-.61-.64-.88.06-1.44a1.07,1.07,0,0,0,.24-.43c.11-.32.2-.65.35-1.11a6.28,6.28,0,0,1,.13-1.85,14,14,0,0,1,1.33-2.25l-.16-.13-.46.17-.06-.13,1.43-.76a23.87,23.87,0,0,1,1.84,2,18.4,18.4,0,0,1,1.26,2.2c.39.71.76,1.43,1.15,2.14.56,1,1.1,2,1.7,3,.47.75,1.13.7,1.93.49s1.3-.41,1.27-1.14c.36-.12.89-.24.88-.31a13.9,13.9,0,0,0-.32-1.73L133.66,68s.22,0,.31-.06c.29-.28.54-.59.81-.89-.64-.52,0-1,.07-1.47a11.16,11.16,0,0,1,.26-1.28s.06-.09.12-.18l.47.39,1.06-.82-.13-.18-.57.08-.11-.25a9.78,9.78,0,0,0,1-.52.76.76,0,0,0,.32-.49c0-.11-.28-.22-.48-.37l.61-1.25.24.06.2.65.62-.39a17,17,0,0,1,1.15,1.64c.8,1.49,1.48,3,2.31,4.49.53,1,.88,2.18,2.25,2.35.5.06,1,.08,1.51.09a1.86,1.86,0,0,0,1.9-1.8c0-.33.4-.63.63-.94.09-.12.25-.18.33-.31s-.12-.2-.22-.28a5.35,5.35,0,0,0-.47-.29c.16-.15.31-.31.48-.45.45-.41,1.05-.73,1.33-1.23a16.8,16.8,0,0,0,.93-2.49.31.31,0,0,1,.13-.17c.72-.3.83-.9.84-1.58a1.8,1.8,0,0,1,.19-.79c1.36.11,1.11-1.42,1.94-1.9a9.16,9.16,0,0,0,1.77-1.88,14.56,14.56,0,0,1,1,1.15c.9,1.23,1.77,2.47,2.65,3.7s1.89,2.76,3,4a22.28,22.28,0,0,0,2.79,2.79c.61.52,1.62.67,2,1.27.72,1,1.77,1,2.73,1.33a7.22,7.22,0,0,0,2.17.32,14.29,14.29,0,0,0,2.91-.35,13.42,13.42,0,0,0,2.2-.94c.51.14.76,0,1-1a12.39,12.39,0,0,1,.54-1.32l.79,1.16c.8-.66,1.72-1.39,2.6-2.16.07-.06,0-.35-.08-.53s-.14-.63-.21-.92l1.31.27c0-.23,0-.46.07-.71,1.05-.35,1.25-.62,1.23-1.77l.9-.34c.81.85,1.62,1.62,2.34,2.48a20.27,20.27,0,0,0,4.61,3.75,1.11,1.11,0,0,0,.49.12,8.15,8.15,0,0,0,3.59-.34,6.83,6.83,0,0,0,2.88-1.8,32.3,32.3,0,0,0,3-3.92c.29-.42.95-.95.32-1.63.52.36.66-.11.86-.41a2.11,2.11,0,0,0,.17-.55l-.78.22v-.64a1,1,0,0,0,1.26-1c0-.53.94-1.1,0-1.63a3,3,0,0,0,0-2.44v-.15a4.62,4.62,0,0,1-.64-3.21l.24.19a2.44,2.44,0,0,0,.43.28s.24-.16.23-.18-.2-.28-.29-.43-.19-.37-.19-.35l-1.1-.3.07-.21.65-.32-.79-.2L202,47.32c.14-.15.32-.32.47-.49a3.4,3.4,0,0,1,.45-.59c.94-.69,1.91-1.34,2.85-2a2.75,2.75,0,0,0,.43-.57,1.82,1.82,0,0,0,1.1-.32c.17-.13.21-.45.24-.53a11.33,11.33,0,0,0,1.75-.62c.76-.4,1.44-1,2.21-1.37s1.58-.52,2.34-.86c1.37-.61,1.89-.57,2.46.79.66,1.59,1.07,3.29,1.57,4.94a14,14,0,0,1,.61,2.26,44.28,44.28,0,0,0,2.19,8.71,11.88,11.88,0,0,0,2.36,4,3.15,3.15,0,0,0,1.12.91,5.94,5.94,0,0,0,3.06.41,19.94,19.94,0,0,1,2.62-.34,7.75,7.75,0,0,0,3-1,55.45,55.45,0,0,0,9.41-5c.79-.57,1.81-1.38,2.62-1.27,1.67.23,2.92-.63,4.23-1.18a2.8,2.8,0,0,0,1.84-2.27c-.15-.17-.29-.4-.24-.56.32-1.05.83,0,1.28-.1.1-.52.21-1.06.33-1.63h.45v-.07l-.59-.15c-.42-1,.16-1.45.77-1.87,1,.58-.43.85-.16,1.34.69-.25.8.32.92.7.16.54.14,1.14.31,1.68a59.12,59.12,0,0,0,2.3,6.68c.4.88.56,2,1.85,2.59,1.82.77,3.28.79,4.83-.55l-.35-.68.79-.2-.42-.33.54-.87.87.15.11-.2-.65-.6.74-2.65c-.13-.38-.23-.64-.32-.92,0,0,.07-.05.16-.12l.23.49,1.25-.64.2.61.22-.06c0-.23,0-.58-.16-.65A4,4,0,0,0,265,52.1l.86-.79c-.19-.66-.39-1.39-.62-2.22l.76.42a13,13,0,0,0,.61-1.35,12.48,12.48,0,0,1,.88-2.67c.49-.76.24-.94-.38-1.14.26-.76.8-1.12,1.34-.92H269c1,0,.91.85,1.2,1.39.65,1.21,1.21,2.47,1.86,3.69.34.62,1,1.14,1.14,1.79a4.9,4.9,0,0,0,1,2c.66,1,1.38,1.9,2.13,2.81A13.27,13.27,0,0,0,278,56.66c.41.35,1,.51,1.36.86a4.44,4.44,0,0,0,4.77.67c1.17-.51,1.52-1.61,2.19-2.46.32-.42.1-1.25.18-1.88,0-.22.26-.42.39-.62a.54.54,0,0,1,.05-.11c.19-.1.5-.16.55-.31a21.49,21.49,0,0,0,.69-2.24c.22-.92.39-1.85.57-2.77H289c.27.43.52.87.81,1.27a2.86,2.86,0,0,0,.82.9,7.53,7.53,0,0,0,1.7.56,20.65,20.65,0,0,0,3.89.84,6.27,6.27,0,0,0,5.16-2,2.36,2.36,0,0,0,.3-.73l-1.21.9C300.91,48.15,300.84,47.72,300.13,47.34ZM82,78.34a3.38,3.38,0,0,1-.33-.86,15.22,15.22,0,0,1,.1-1.65l.31,0c0,.81.07,1.63.11,2.45Zm.81-2.89a.93.93,0,0,1-1.26.11c-.08,0,.09-.55.11-.69h.93C82.62,75.07,82.82,75.36,82.76,75.45Zm.68-3.85-.75.64.66-.18c-.2,1,.28,2.08-.8,2.78-.1-.16-.17-.36-.31-.44a5.34,5.34,0,0,0-.89-.25l1-1.8a5.62,5.62,0,0,1-.1-.7,6,6,0,0,0,0-.94,7.07,7.07,0,0,0-.38-1.06c.34-.07.68-.13,1-.22a1.84,1.84,0,0,0,.35-.15l.2.14-.67,1.14C83.24,70.69,83.83,70.9,83.44,71.6Zm164.15-27a13.84,13.84,0,0,0-1.08,1.76,12.1,12.1,0,0,1-2.76,2.86,5.84,5.84,0,0,1-1.07.67l.06.47-1.32-1.11c-.58-.5-1.14-1-.85-1.92l.71.51c-.09-.74-.17-1.43-.26-2.13,0-.14,0-.33,0-.41-.62-.77-.13-1.64-.24-2.46,0-.3.2-.65.33-1,.23-.55.63-1.1-.17-1.74.05.35.09.55.12.76l-.13.07a2.12,2.12,0,0,1-.36-.72.66.66,0,0,1,.33-.55c.58-.19.63-.56.52-1.06,0-.14.08-.31.13-.48.59.52,1,.46,1.46-.16a6.82,6.82,0,0,1,2.89-2.48,2.78,2.78,0,0,1,2.89.3,3.41,3.41,0,0,1,1,2.92A11.51,11.51,0,0,1,247.59,44.55Zm49.86,2.75c-.26.27-.75.29-1.11.48a5,5,0,0,1-3.06.15,15.32,15.32,0,0,1-3.79-1.47l-.22.55c-.77-1.4.43-2.57,0-3.85l-.66-.27c.61-1.13,1.34-2.15,1-3.49l-1-.46.1-.22a1.91,1.91,0,0,0,.45.13,1.56,1.56,0,0,0,.78,0c.1-.06,0-.45,0-.69v-.9l-.4.1c-.07-.31-.15-.62-.25-1l.83.4.26-2.54-.44,0c0,.48,0,1-.1,1.45,0,.16-.21.31-.32.46l-.14-.16c.21-1.14.43-2.29.66-3.53l.38.46c.43-1,.43-1-.34-1.91l.41-.67c.2.28.37.51.52.75.58.94,1.18,1.88,1.71,2.85.32.57.52,1.22.82,1.8.63,1.22,1.37,2.4,1.94,3.65.85,1.87,1.62,3.79,2.36,5.71A2.11,2.11,0,0,1,297.45,47.3Z"/><path class="cls-2" d="M43.08,64.16a4.48,4.48,0,0,1,.19,1,2.46,2.46,0,0,1-.39.06,9.26,9.26,0,0,1-.32-1,.35.35,0,0,1,0-.24c.46-.76.17-1.31-.58-1.78.55-.25,1.22-.35,1.42-.71s-.07-1-.16-1.62a1.65,1.65,0,0,0-1-2.37,3.76,3.76,0,0,1-.46-1.25,3.3,3.3,0,0,1,.54-1.12l.25,0L42,53.79l-.63.41-.64-1.6.18-.09.75.47c-.18-.92-.79-.74-1.38-.76.33-.44-.79-1,.31-1.32a.27.27,0,0,0,.06-.23c-.41-.52-.32-1.5-1.08-1.44l-.79-.88a13.74,13.74,0,0,0-1-1.05,9.41,9.41,0,0,0-1.93-1.49,6.74,6.74,0,0,0-2.18-.37,2.79,2.79,0,0,0-1.07.13,7.89,7.89,0,0,0-3.51,2.6,63.9,63.9,0,0,0-4.58,6,26.54,26.54,0,0,0-1.66,3.12A34.43,34.43,0,0,0,21,61.2c-.84,2.33-1.51,4.72-2.19,7.1a2.37,2.37,0,0,0,.26,1.18c.11.31.34.58.47.89.23.6.68.77,1.09.28s.5-.3.85-.22a3.18,3.18,0,0,0,.76,0c.13-.67.25-1.33.37-2l-.05.1.05-.09,0-.06c.15-.15.36-.28.44-.46A10.87,10.87,0,0,0,23.75,66c.05-.25.15-.95-.6-.75.06-.78,1-1.48.18-2.3h1v1l.25.05c.35-1.11.7-2.23,1.06-3.34l-.31.12-.3-.38,1.15-.88-.45-.36,1.51-1.27-.85-.35c.11-.19.23-.37.34-.55s.13-.25.21-.37a3.57,3.57,0,0,1,1.53-1.31,3.05,3.05,0,0,0,1.95-2.45c.34-.24.77-.38.85-.63a3.12,3.12,0,0,1,2-2.13c.1,0,.15-.16.25-.23a8.81,8.81,0,0,1,1.67-1.08,1.36,1.36,0,0,1,1.21.28A8,8,0,0,1,38,51.49a59.54,59.54,0,0,1,1.61,6.71,46.1,46.1,0,0,1,.57,5.87c.09,2.11,0,4.23,0,6.34,0,.57.2,1.14.17,1.7s-.29,1.06-.37,1.6c-.26,1.65.12,3.34-.22,5-.09.41.1.87,0,1.28-.23,1.36-.59,2.7-.78,4.06-.25,1.76-.33,3.53-.57,5.28-.2,1.44-.5,2.87-.78,4.3q-.49,2.52-1,5-.59,2.7-1.21,5.39c-.38,1.66-.8,3.31-1.18,5-.17.76-.19,1.56-.43,2.3-.35,1.11-.86,2.18-1.26,3.28-.22.6-.33,1.25-.55,1.85-.71,1.93-1.47,3.85-2.18,5.78a40.37,40.37,0,0,1-1.7,4.66c-1.2,2.33-1.95,4.86-3.28,7.14-.62,1-1,2.24-1.62,3.32a35.94,35.94,0,0,1-2,3.28c-.83,1.21-1.71,2.39-2.65,3.52a36.39,36.39,0,0,1-2.73,3c-.48.46-1.15.72-1.65,1.17-.32.28-.5.6-1,.69a5,5,0,0,0-1.52.9,16.78,16.78,0,0,1-2,1.29,12.68,12.68,0,0,0-4.31,2.91,1.2,1.2,0,0,0,.18,1.88c.08.07.19.16.18.24-.07,1,.61,1.09,1.27,1s1.48.21,2-.62a3.43,3.43,0,0,1,1.09-.89c1.18-.76,2.39-1.48,3.56-2.25a11.66,11.66,0,0,0,1.14-1c.41.36,2.28-.78,2.45-1.55.26,0,.56,0,.69-.09,1.31-1.19,2.61-2.39,3.87-3.63a1.62,1.62,0,0,0,.27-1c.09-1.42.77-2.09,2.12-1.9a3.24,3.24,0,0,1-.27-.77,3.79,3.79,0,0,1,0-1.22c.7-.13.55-.62.45-1.34l.69.87.42-.73-.39-.2.39.2.35-.39c.12-.24.19-.62.39-.7.72-.31.62-.82.53-1.27l-1.56-.16A6.51,6.51,0,0,0,26,138c.37-.4.59-1,1.33-.76,0,0,.25-.4.2-.47-.48-.61,0-1.07.18-1.58s1.15-1,.65-1.84c.77-.32.77-.32,1.25-1.55l.36.44a3.8,3.8,0,0,1,.6-.83c.37-.29.3-.55.07-.85.66-.18.91-.54.62-1l1-1.65-.85-.48a7.06,7.06,0,0,1,.67-.67c.07-.06.23,0,.36,0,.33-.64.71-1.27,1-1.94.51-1.21.8-2.51,1.39-3.7.19-.4.36-1,.16-1.34-.38-.57-.21-1.11-.24-1.65s.07-.76.68-.8c.22,0,1.11-.21.57-1-.21-.28-.43-.55-.65-.83.39-.55,1-1.11.57-2a.36.36,0,0,1,0-.27c.47-.6,1-1.17,1.42-1.78a5.19,5.19,0,0,0,.43-1c-1.37.56-.65-.61-1-.89,0,0,.15-.32.24-.49l-.36-.54,1.92-.76c.24-.76.43-1.32.6-1.89a2.34,2.34,0,0,0,.2-.83c-.13-.9-1.24-1.7-.23-2.7,0,0,0-.11,0-.16a1.78,1.78,0,0,1,.43-2.21c-.13-.12-.29-.24-.28-.27.23-.53.49-1,.74-1.55l.24,0c0,.28.11.66,0,.83a1,1,0,0,0,.14,1.47,10.32,10.32,0,0,0,.36-1.35c.08-.48.51-1.18-.39-1.2V96.68c1-.34,1.06-.6.55-1.81l.6-.61a8.08,8.08,0,0,0,.17-1.08c0-.37.09-.9-.11-1.09-.65-.63-.29-1.24-.16-1.88a12.6,12.6,0,0,0,.21-1.35c0-.09-.23-.2-.41-.33.19-.44.41-.94.61-1.42-.17-.09-.48-.14-.52-.28a1.09,1.09,0,0,1,.14-.69c.07-.17.38-.3.37-.43A2.09,2.09,0,0,1,42.7,84a4,4,0,0,0,.53-1.18l-.88.27c-.52-.78,0-1.62-.22-2.48-.19-.67.32-1.55.51-2.3l.58.15a1.19,1.19,0,0,0-.25-.61c-.16-.3-.48-.73-.38-.92.49-.93-.15-1.9.2-2.82l-.39.63c0-.42.05-.64.07-.86.1-.83.22-1.66.29-2.49.11-1.24.16-2.49.28-3.73,0-.21.24-.39.38-.6l-.67-.74.35-.24-.5-.41a1.81,1.81,0,0,0,.54-.18c.28-.22.66-.45.75-.74a3.7,3.7,0,0,0-.07-1.23C43,63.54,42.88,63.67,43.08,64.16ZM22,69.25h0Z"/><polygon class="cls-2" points="36.98 109.03 36.98 109.03 36.98 109.03 36.98 109.03"/><path class="cls-2" d="M63.22,34.59c.19-1-.83-1.28-.82-2h-.23c-.31.39-.77.74-.91,1.18C60.77,35.37,60.35,37,60,38.6c-.77,3.3-1.49,6.61-2.23,9.92-.49,2.2-1,4.39-1.45,6.6-.35,1.74-.61,3.49-.89,5.24A9.54,9.54,0,0,0,55.24,62a8.52,8.52,0,0,0,.25,1.42c-.56.29-.21.86,0,1.39.1.28.23.55.34.82s.2.76.45,1,.58-.1.91-.17l.46.61c.13-1.32.24-2.46.31-3.31l.6-.6c-.53-.32-.31-.81-.34-1.27-.06-.76-.24-1.52-.37-2.26.95-.26,1-1.14.79-2.2.25-.3.68-.64.62-.78a2.38,2.38,0,0,1,.34-2.2,2,2,0,0,0,.08-1.57c-.31-.62,0-.69.39-.72s.75-.4.87-.86.35-1.06.49-1.59a5.68,5.68,0,0,0,.11-1c-.42.25-.67.51-.81.45s-.51-.48-.47-.55a12.74,12.74,0,0,1,1-1.19l-.61-1.75.76-1.14c.16-.21.59-.17.9-.33s.71-.32.26-.85a1,1,0,0,1,.16-1.59v1.55c.62-1.38.61-1.4,0-2.47a1.48,1.48,0,0,1-.05-.48c-.09-.53-.19-1.07-.29-1.6l1.42-1.55.77.45v-2h-1C64.51,34.61,63.36,34.76,63.22,34.59Z"/><path class="cls-2" d="M28.82,36l-.18.13,1.56-.14a6,6,0,0,0,.32-1.7,1.35,1.35,0,0,1,.62-1.32,2.81,2.81,0,0,0,.52-1.1c.07-.17,0-.46.14-.55.45-.36.52-.71-.09-1.27,1,.16,1-1.23,2-.71l.57-.49c-.16-.4-.31-.75-.39-1l1-1c.33-.05.58-.07.79-.11-.15-.47-.24-.74-.33-1,.47,0,1,.21,1.1.06a3.58,3.58,0,0,0,.5-1.2c0-.05-.11-.22-.2-.23a.42.42,0,0,0-.35.09,2.62,2.62,0,0,0-.24.53l-1-1.65c-.32-.52-.62-1.05-.95-1.62-1.4,1.28-1.86,3.2-2.77,4.85l-.24-.31c-.38.67-.76,1.29-1.09,1.93-.61,1.14-1.21,2.28-1.77,3.45A4.81,4.81,0,0,0,28,33.09c0,.32,0,.91.2,1C29.42,34.48,28.22,35.42,28.82,36Z"/><path class="cls-2" d="M36.21,26.18l-.2-.05-.25.61.34-.08C36.18,26.63,36.18,26.34,36.21,26.18Z"/><path class="cls-2" d="M35.76,26.74h0Z"/><path class="cls-2" d="M100.3,56.29a.27.27,0,0,0,.21.11,5.56,5.56,0,0,0,1.08,0c.42-.06.78-.1,1-.65a14.65,14.65,0,0,1,1.48-2.45c.92-1.38,1.88-2.73,2.77-4-.68-.25-1.53-.31-1.71-.69-.39-.82-1.17-1.28-1.59-2.21-.41.56-.73,1-1,1.41-.86,1.29-1.69,2.6-2.57,3.87A2.76,2.76,0,0,0,99.33,54,19.88,19.88,0,0,0,100.3,56.29Z"/><path class="cls-2" d="M263.33,25.5c-.05.09.17.46.24.45a3.06,3.06,0,0,0,1.26-.28,8.79,8.79,0,0,0,1.25-1.12l-.65,1.38c.29-.09.45-.11.58-.17.78-.4.75-1.16.81-1.88.25-.31.7-.63.69-.94s-.41-.69-.66-1.07H268l-.84-.44c.17-.15.33-.1.43-.16a6,6,0,0,0,1-.61c.09-.07,0-.3.05-.46l-.84.3s-.1,0-.21-.07c.21-.51.4-1,1.09-.59.06-.25.13-.5.19-.75l-.19.07-1-1.6-.39.3c.08-.28.08-.42.15-.48.58-.59-.49-.71-.32-1.17-.3.09-.73.09-.89.29a10.29,10.29,0,0,0-1.45,2.11c-.85,1.9-1.58,3.85-2.35,5.75.14.12.18.18.23.18C263.12,24.63,263.94,24.49,263.33,25.5Z"/><path class="cls-2" d="M300.93,47.43l.45.59.28-.05c-.17-.9-.34-1.8-.52-2.7l-.24,0c.1.71.19,1.41.29,2.11Z"/><path class="cls-2" d="M104.14,77.35l.49-1.53C103.75,76.17,103.61,76.64,104.14,77.35Z"/><path class="cls-2" d="M38.52,108.79,37,109l.83.73Z"/><path class="cls-2" d="M37,109h0Z"/><path class="cls-2" d="M35,28.68l.59-1.27-.28-.16C35,27.63,34.23,27.85,35,28.68Z"/><path class="cls-2" d="M32.46,126.76l-.05,0h.05Z"/></g></g></g></svg>