<svg xmlns="http://www.w3.org/2000/svg" viewBox="0 0 306.13 145.45"><g id="Calque_2" data-name="Calque 2"><g id="P1_m3_1"><path d="M304.55,32.11c.58-.57.87-1.16.11-1.82a.64.64,0,0,1-.15-.31c-.28-1.05-.55-2.1-.84-3.24a.5.5,0,0,0-.21-.92c-.72-.05-.61-.58-.82-.93a6.78,6.78,0,0,0-.48-.93,2.08,2.08,0,0,1-.41-1.41c0-.82-.11-1.81-1.15-2.19a.88.88,0,0,1-.36-1.47c.37-.42.15-.4-.1-.57a2.65,2.65,0,0,1-1-2.5c0-.19-.12-.58-.24-.61-.72-.12-.79-.77-1.1-1.23-.1-.14-.27-.32-.41-.33-.7,0-.7-.4-.62-.94a1.4,1.4,0,0,0-1-1.78c.74-.59,0-.93-.24-1.34a5.23,5.23,0,0,0-.58-.68l-.47.46A8.1,8.1,0,0,0,294.07,8a13.4,13.4,0,0,0-1-1.82c-.13-.21-.43-.49-.59-.46a1,1,0,0,0-.66.57,2.87,2.87,0,0,0,.17,2.2,3,3,0,0,1,.46,2.41,37.94,37.94,0,0,0-1.24,4.68c-.57,3.15-1,6.33-1.48,9.5-.38,2.41-.68,4.84-1.17,7.23a20.53,20.53,0,0,1-2.44,6.77c-.34.56-1,1.37-1.43,1.33a2.59,2.59,0,0,1-2.21-1.11c-.39-.64-.92-1.49-2-1.42a2.14,2.14,0,0,0-1.18-1.9c-.14-.06-.23-.24-.31-.38a21,21,0,0,0-1.63-2.88c-.49-.6-.62-1.48-1.06-2.15A20.11,20.11,0,0,1,274.52,26a3.09,3.09,0,0,0-.31-.57l.39-.3c-1.24-1-.3-2,0-2.93l-.22,0L274,23l-2.65-3.43c-.25.16-.66.27-.74.49-.4,1.15-.74,2.32-1.06,3.5-.08.31,0,.67-.06,1-.15.63-.41,1.23-.54,1.86-.36,1.71-.67,3.42-1,5.14a.22.22,0,0,1-.11.12c-.86.44-.41,1.43-.87,2s-.19,1.4-.88,1.91a1.63,1.63,0,0,0-.23,2.11l.21-.33.2.19-.74.68a5.41,5.41,0,0,0-1,.82,24.63,24.63,0,0,1-1.33,2.17,2.48,2.48,0,0,1-1.67.87c-.87,0-1.47-2.17-.93-3-.56-.92-1.17-2-.55-3-.76-.26-1.42-.62-1-1.61,0-.08-.05-.23-.11-.32a3.5,3.5,0,0,1-.26-2.57h.82l0-.16h-.71l.34-1.11-.13,0-.45.83c-.17-.64-.29-1.07-.41-1.5l-.29-.13,1.43-1.11c-.89-.88-.4-2.24-.8-3.33a2.46,2.46,0,0,1-1.11-.73,19.48,19.48,0,0,1-1.07-2c-.29-.52-.63-.91-1.32-.46a3.87,3.87,0,0,1-.38-1,2.8,2.8,0,0,1,.22-.9,11.39,11.39,0,0,1-1.14-.87c-.76-.77-1.46-1.59-2.22-2.36a1.38,1.38,0,0,0-.76-.36,19.24,19.24,0,0,0-2.63-.15,6.62,6.62,0,0,0-3.11.86,10.46,10.46,0,0,0-3.88,4,11.87,11.87,0,0,0-1,10.21c.57,1.63,1.49,3.12,2.21,4.69.15.33.29.92.14,1.06a16.09,16.09,0,0,1-2.34,1.76c-.37.24-1,.16-1.28.44a10.87,10.87,0,0,1-3.43,1.81,17.19,17.19,0,0,0-2,1.24l-.06-.21a2.14,2.14,0,0,0-.59.18c-.17.13-.27.48-.42.49-1.23.13-2.25.94-3.49,1.07-.42,0-.72-.28-.82-.24-1.07.46-1.22-.46-1.63-1s-.68-1.31-1.48-1.65c-.31-.13-.65-1.07-.52-1.21.58-.59.1-.71-.27-1-.13-.09-.3-.28-.29-.4.16-1.11-.93-2.41.48-3.33,0,0,0-.11,0-.29L223,34.25c-.41-.8.45-1.27.81-2-1,.27-1.63,0-1.48-.6a2.85,2.85,0,0,0-.22-2.34c0-.05,0-.13,0-.17-.14-.29-.29-.57-.44-.85a2.56,2.56,0,0,1-.23-.47,14,14,0,0,0-1-2.93c-.68-1.12-1.71-2-2.51-3.1A3,3,0,0,0,216,20.65a7.5,7.5,0,0,0-2.35.38,5.9,5.9,0,0,0-1.51.47c-1,.47-1.87,1-2.79,1.54a6.58,6.58,0,0,1-.7.47,18,18,0,0,0-1.92.79c-1.69,1-3.34,2.12-5,3.19a2.78,2.78,0,0,0-1.11,3.62c.64,1.79,1.47,3.53,1.47,5.54A11.07,11.07,0,0,1,201,42.1a40.64,40.64,0,0,1-3.71,5.58,9.35,9.35,0,0,1-2.76,2.07c-.8.47-2.55-.27-3.33-1.19A11.17,11.17,0,0,0,188.82,46c-.79-.47-.73-1.4-1.45-1.78.41-1.29-.14-2.56-.08-3.85,0-.36,0-.72,0-1.09a5.86,5.86,0,0,1,.2-.76l.42.83.42-1.3a11,11,0,0,0,3.11-3.82c.41-.76.8-2.17-.6-2.88a.36.36,0,0,1-.14-.3c.16-.59-.3-.75-.64-1s-.8-.38-1-.7c-.65-1.17-1.88-1.64-2.84-2.42a1.74,1.74,0,0,0-1.63-.17,3.23,3.23,0,0,0-1,1.66c-.31.94-.23,2-.44,2.9a19.68,19.68,0,0,0-.49,3.55,38.76,38.76,0,0,0,.21,4.56c.06.83.5,1.72.29,2.45a11.54,11.54,0,0,1-1.64,3.27A19,19,0,0,1,178,49.32l-1.24,1,0,.52a6.57,6.57,0,0,0-2.12.87c-.43.39-.61.27-.76.18-.35.18-.59.42-.83.42-.89,0-1.77-.09-2.66-.08a6.73,6.73,0,0,0-1.25.25c-.39-.22-.73-.38-1-.58-.54-.35-1.35-.64-1.52-1.13-.25-.73-.75-.84-1.27-1.07-.21-.09-.48-.14-.61-.3a14.71,14.71,0,0,0-1.45-2.08c-.46-.42-.71-1.1-1.19-1.64a30.7,30.7,0,0,1-3.26-4.5,6.31,6.31,0,0,0-1.54-1.78,13.87,13.87,0,0,0-2.85-2c-.37-.18-.57-.56-1.06-.29s-.83.21-1.13.45a10.49,10.49,0,0,0-1,1.19,27.55,27.55,0,0,0-2.65,2.87,43.12,43.12,0,0,0-2.35,4.28c-.88,1.67-1.74,3.35-2.62,5-.07.13-.31.18-.46.26a2,2,0,0,1,0-.49c.1-.36-.43-.94-.95-.89.84-1.23-.64-2-.63-2.74-.42-.46-.73-.78-1-1.12-.64-.74-1.22-1.53-1.91-2.22a6.48,6.48,0,0,0-1.89-1.42,1.51,1.51,0,0,0-1.67.27,13.23,13.23,0,0,0-2.24,3,37.51,37.51,0,0,0-3.39,7.77,11.87,11.87,0,0,1-1.37,2.18,6.55,6.55,0,0,0-.23-.76c-.64-1.33-1.29-2.67-2-4a9.65,9.65,0,0,0-1.3-2.34,22.85,22.85,0,0,0-3-2.49,2.08,2.08,0,0,0-2.39,0,4.93,4.93,0,0,0-.8,1.2c-.51,1.35-1,2.72-1.39,4.11-.17.6-.1,1.27-.25,1.88-.32,1.33-.77,2.64-1.06,4a15.31,15.31,0,0,1-1.23,4.28c-.26.48-.55.67-1,.32a8.1,8.1,0,0,1-1.23-.93c-1.28-1.35-2.51-2.73-3.76-4.1,0-.06-.06-.16-.11-.23-.48-.68-1-1.37-1.46-2-.27-.36-.57-.7-.86-1-.11-.13-.2-.27-.32-.39-.59-.61-1.17-1.24-1.8-1.81a15.64,15.64,0,0,0-1.7-1.34c-.12-.08-.47,0-.61.17a3.34,3.34,0,0,0-.86,1.15c-.45,1.41-.83,2.84-1.14,4.28-.26,1.19-.28,2.42-.6,3.59-.63,2.36-1.3,4.71-2.13,7-.59,1.63-1.16,3.35-2.9,4.48-.44-.51-1.24-1-1.23-1.5,0-1.13-.81-1.88-.94-2.9,0-.25-.45-.45-.68-.69s-.46-.39-.53-.63c-.24-.83-.4-1.69-.6-2.54-.12-.52-.27-1-.43-1.67l-.21.52-.19,0v-.84L88.46,59l-.34.56-.5-1.08.68-.12-.58-1.64c-.07.3-.13.55-.18.8l-.32,0c-.15-1.22-.31-2.43-.46-3.62a9.2,9.2,0,0,1-1.35-1.07,19.35,19.35,0,0,1-1.62-2.19.85.85,0,0,1,0-.71c.37-.68.8-1.34,1.21-2s.61-1.37,1.42-1.75c.55-.25.9-.91,1.42-1.27s1.32-.79,2.07,0c.25.26.83.25,1.26.3a1.52,1.52,0,0,0,.76-.11,6.56,6.56,0,0,0,.85-.56,5.48,5.48,0,0,0-.65-.71,9,9,0,0,1-1.36-1.07c-.77-1-1.49-1.91-2.92-1.79-.43,0-.88,0-1.34,0a4.53,4.53,0,0,0-.8.35A13.9,13.9,0,0,0,83.37,43a19.41,19.41,0,0,0-2.07,2.67c-.48.67-1.21,1.35-1.28,2.09-.09,1-.92,1.54-1,2.55s-.87,1.8-1.26,2.73a16.34,16.34,0,0,0-1.44,8.11c.26,2.49.56,5.1,2.24,7.24.79,1,2.66,1.61,3.7.85a2.24,2.24,0,0,0,1.12-1.81,5,5,0,0,1,.38-1.31,3.07,3.07,0,0,0,.3-1.16c0-.3-.42-.55-.49-.63a5.25,5.25,0,0,0,.75-1.24,12.66,12.66,0,0,0,.27-2c.08-.7.15-1.4.23-2.1l-.2-.1-.7.67-.24-.06c.11-.87.22-1.75.34-2.75.21.09.52.13.59.28a16.15,16.15,0,0,1,.82,1.91c.46,1.25.84,2.54,1.37,3.76.79,1.8,1.58,3.61,2.54,5.32s2.25,3.49,3.31,5.27a2.06,2.06,0,0,0,2.18.89A5.16,5.16,0,0,0,96.13,74c1.09-.33,2.21-.65,2.69-1.9a3.44,3.44,0,0,1,.57-1,1.08,1.08,0,0,0,0-1.57c1.11-.13,1.4-.74,1-1.65a1.24,1.24,0,0,1,.14-1.42c.11-.14,0-.51-.1-.86l.79-.29-.45,1.45c.46.16.81-.24.76-.81,0-.33-.1-.79.08-1,.5-.56.32-1,0-1.51A1.79,1.79,0,0,1,102,61.3c.29-.14.75-.25.81-.47s-.09-.74-.19-1.32l-.34,1.1H102a2.5,2.5,0,0,1-.1-1c.27-.93.62-1.84,1-2.75l.33.47c.57-1-.07-1.05-.83-1.1.47-.22.22-1.47,1.24-.74,0,0,.16-.1.24-.09.29,0,.67,0,.85.19.42.43.75,1,1.13,1.42.84,1,1.64,2.11,2.54,3.09A34.26,34.26,0,0,0,111.28,63c1,.86,1.92,2,3.39,2.14,1,.08,2.12.46,2.8-.46-.31-.55-.74-1-.75-1.46s.57-.64.88-.94c.09-.28.12-.77.3-.84.66-.26.37-.36,0-.6-.18-.13-.38-.45-.33-.61a20.17,20.17,0,0,1,.8-1.87h1.25a10.2,10.2,0,0,0-.93-1.21c-.65-.62-.65-.9.07-1.49a1,1,0,0,0,.24-.44c.12-.33.21-.66.37-1.14a6,6,0,0,1,.13-1.91,14.41,14.41,0,0,1,1.37-2.32l-.17-.13-.47.17-.06-.13,1.47-.79a27.29,27.29,0,0,1,1.9,2.08,18,18,0,0,1,1.3,2.27c.41.73.78,1.47,1.19,2.2.57,1,1.13,2.05,1.75,3,.48.78,1.17.73,2,.51s1.33-.42,1.3-1.17c.37-.13.92-.25.91-.32a17.15,17.15,0,0,0-.33-1.79c.33-.69.73-1.5,1.16-2.39,0,0,.22,0,.31-.06.3-.29.56-.61.84-.92-.66-.54,0-1,.07-1.52a11.88,11.88,0,0,1,.27-1.32c0-.05.06-.09.13-.18l.48.4L136,49l-.13-.19-.59.09-.11-.26a10.32,10.32,0,0,0,1.05-.53.78.78,0,0,0,.33-.51c0-.11-.29-.23-.49-.38l.63-1.3L137,46l.2.67.64-.4A18.16,18.16,0,0,1,139,47.92c.82,1.53,1.52,3.13,2.37,4.64.56,1,.91,2.24,2.32,2.41a13.79,13.79,0,0,0,1.57.1,1.91,1.91,0,0,0,2-1.86c0-.34.42-.65.65-1,.1-.13.26-.2.35-.32s-.13-.21-.23-.29a4.9,4.9,0,0,0-.48-.31l.48-.46a6.23,6.23,0,0,0,1.38-1.26,18.35,18.35,0,0,0,1-2.57.32.32,0,0,1,.14-.18c.74-.31.85-.93.86-1.63a2,2,0,0,1,.19-.82c1.41.12,1.15-1.46,2-2a10,10,0,0,0,1.83-1.93,15.47,15.47,0,0,1,1.06,1.18c.92,1.27,1.82,2.55,2.73,3.82s2,2.85,3,4.18a23.66,23.66,0,0,0,2.88,2.87c.63.54,1.67.7,2.11,1.32.75,1,1.83,1.06,2.82,1.36a7.07,7.07,0,0,0,2.24.33,15.17,15.17,0,0,0,3-.35,14.7,14.7,0,0,0,2.27-1c.53.14.78,0,1.05-1a14.28,14.28,0,0,1,.56-1.36l.81,1.2c.83-.68,1.77-1.44,2.68-2.23.08-.06,0-.36-.08-.55s-.14-.65-.21-.94l1.35.27c0-.24.05-.48.07-.73,1.08-.36,1.29-.64,1.27-1.83l.92-.34c.84.87,1.68,1.67,2.42,2.55a20.82,20.82,0,0,0,4.76,3.87,1.15,1.15,0,0,0,.5.12,8.4,8.4,0,0,0,3.71-.34,7.17,7.17,0,0,0,3-1.86,32.67,32.67,0,0,0,3.14-4c.3-.43,1-1,.33-1.67.53.37.68-.13.89-.43a2.19,2.19,0,0,0,.17-.56l-.8.22v-.66a1,1,0,0,0,1.3-1c0-.55,1-1.13,0-1.68a3.08,3.08,0,0,0,0-2.52v-.15a4.76,4.76,0,0,1-.66-3.32,1.82,1.82,0,0,0,.25.19,1.76,1.76,0,0,0,.44.29c.05,0,.24-.16.23-.18s-.2-.29-.3-.45a3.36,3.36,0,0,1-.18-.36l-1.14-.3.07-.22.67-.33-.81-.21-.57-1.58c.15-.15.32-.32.48-.5a3.61,3.61,0,0,1,.46-.61c1-.71,2-1.38,3-2.1a2.39,2.39,0,0,0,.44-.58,1.84,1.84,0,0,0,1.13-.33c.18-.13.22-.46.26-.54a13.09,13.09,0,0,0,1.79-.64c.8-.42,1.49-1,2.29-1.42s1.63-.53,2.41-.88c1.41-.63,1.95-.6,2.54.81.68,1.64,1.1,3.39,1.62,5.1a13.82,13.82,0,0,1,.62,2.33,46.33,46.33,0,0,0,2.26,9A12.56,12.56,0,0,0,225,45.82a3.2,3.2,0,0,0,1.15.93,6.1,6.1,0,0,0,3.16.42,23.42,23.42,0,0,1,2.7-.35,8,8,0,0,0,3.07-1,56.89,56.89,0,0,0,9.72-5.16c.81-.59,1.87-1.42,2.7-1.31,1.72.24,3-.65,4.36-1.22a2.91,2.91,0,0,0,1.9-2.34c-.15-.18-.3-.41-.25-.58.33-1.08.86.06,1.32-.1l.34-1.68h.46v-.08l-.6-.15c-.43-1,.16-1.49.79-1.92,1,.59-.44.87-.16,1.37.71-.26.82.33.94.73.17.56.15,1.17.33,1.73A62.84,62.84,0,0,0,259.26,42c.42.91.59,2.11,1.91,2.67,1.88.8,3.39.82,5-.56l-.37-.7.82-.21-.43-.34.55-.9.9.16.11-.21-.67-.62.77-2.74c-.14-.38-.24-.66-.33-.94,0,0,.07-.06.16-.13l.24.51,1.29-.66.2.62.23-.06c-.05-.23,0-.6-.16-.67a4.22,4.22,0,0,0-1.12-.23l.89-.82-.64-2.29.78.44A12.93,12.93,0,0,0,270,33a12,12,0,0,1,.91-2.75c.49-.78.24-1-.4-1.17.27-.79.82-1.17,1.38-1h.56c1,0,.94.88,1.24,1.44.66,1.25,1.24,2.55,1.92,3.8.34.65,1.06,1.18,1.18,1.85a5,5,0,0,0,1,2c.69,1,1.43,2,2.21,2.89a13.45,13.45,0,0,0,1.64,1.65c.41.35,1,.52,1.39.88a4.6,4.6,0,0,0,4.93.69c1.2-.53,1.57-1.66,2.25-2.53.34-.44.1-1.29.19-2,0-.23.27-.43.41-.64a.21.21,0,0,1,.05-.11c.19-.1.51-.16.57-.32a23.59,23.59,0,0,0,.7-2.31c.23-.95.4-1.91.6-2.86H293c.28.44.53.89.83,1.31a3.05,3.05,0,0,0,.85.93,8,8,0,0,0,1.75.58,21.22,21.22,0,0,0,4,.86,6.43,6.43,0,0,0,5.32-2.06,2.56,2.56,0,0,0,.3-.76l-1.24.93C305.36,32.94,305.28,32.5,304.55,32.11Zm-225,32a2.81,2.81,0,0,1-.34-.88,13.85,13.85,0,0,1,.1-1.7h.32L79.7,64Zm.83-3a1,1,0,0,1-1.3.12c-.08,0,.09-.57.12-.72h.95C80.19,60.71,80.4,61,80.33,61.1Zm.7-4-.77.66.68-.19c-.2,1,.29,2.15-.83,2.87-.1-.16-.17-.37-.32-.45a5.29,5.29,0,0,0-.91-.26l1-1.85c0-.25-.09-.49-.1-.73a6.33,6.33,0,0,0,0-1,8,8,0,0,0-.4-1.09l1-.22a2.83,2.83,0,0,0,.36-.16l.2.15-.69,1.17C80.83,56.19,81.44,56.41,81,57.13Zm169.32-27.9A16.88,16.88,0,0,0,249.24,31a12.48,12.48,0,0,1-2.84,3,6.91,6.91,0,0,1-1.11.69l.06.48L244,34c-.6-.5-1.17-1-.87-2l.73.53c-.09-.76-.18-1.48-.27-2.19,0-.15,0-.34,0-.43-.64-.79-.13-1.69-.25-2.53,0-.31.21-.67.34-1,.24-.57.65-1.14-.18-1.8.06.36.09.57.13.78l-.14.08a2.49,2.49,0,0,1-.37-.75.71.71,0,0,1,.35-.57c.59-.19.64-.57.53-1.09,0-.14.08-.32.14-.49.61.53,1.07.47,1.5-.17a7,7,0,0,1,3-2.56,2.87,2.87,0,0,1,3,.31,3.49,3.49,0,0,1,1.06,3A11.85,11.85,0,0,1,250.35,29.23Zm51.43,2.84c-.27.27-.77.29-1.14.49a5.17,5.17,0,0,1-3.15.16,15.91,15.91,0,0,1-3.91-1.52l-.23.57c-.8-1.45.44-2.65,0-4l-.67-.28c.63-1.17,1.37-2.22,1.06-3.6l-1-.48.1-.22a2,2,0,0,0,.46.13,1.52,1.52,0,0,0,.8,0c.11-.06,0-.47,0-.72v-.92l-.41.11c-.08-.33-.15-.65-.26-1.08l.85.41.27-2.62-.45,0c0,.5,0,1-.11,1.49,0,.17-.21.32-.32.48l-.15-.16c.22-1.18.45-2.37.69-3.64l.39.47c.44-1.06.44-1.06-.36-2l.43-.69c.2.29.38.52.53.77.6,1,1.22,1.94,1.77,2.94.33.59.53,1.26.85,1.86.65,1.26,1.41,2.47,2,3.76.88,1.94,1.67,3.91,2.44,5.9A2.16,2.16,0,0,1,301.78,32.07Z"/><path d="M39.4,49.46a4.75,4.75,0,0,1,.19,1,2.53,2.53,0,0,1-.4.06c-.13-.34-.23-.7-.33-1.05a.37.37,0,0,1,.06-.25c.47-.78.17-1.35-.6-1.83.57-.26,1.25-.37,1.47-.74s-.08-1-.17-1.66a1.7,1.7,0,0,0-1.08-2.45,4.07,4.07,0,0,1-.47-1.29,3.44,3.44,0,0,1,.56-1.16l.25,0c-.18-.46-.37-.91-.55-1.37l-.66.43c-.2-.53-.42-1.09-.65-1.65l.19-.1.76.48c-.18-.94-.8-.75-1.42-.78.34-.46-.81-1.07.32-1.36,0,0,.1-.2.07-.24-.43-.53-.34-1.55-1.12-1.48-.36-.41-.59-.66-.82-.91a10.14,10.14,0,0,0-1-1.08,9.35,9.35,0,0,0-2-1.54,6.94,6.94,0,0,0-2.25-.38,3,3,0,0,0-1.11.13A8.19,8.19,0,0,0,25.05,33a66.19,66.19,0,0,0-4.72,6.2,28.25,28.25,0,0,0-1.71,3.22,35.94,35.94,0,0,0-2,4c-.86,2.4-1.55,4.86-2.25,7.32a2.39,2.39,0,0,0,.26,1.21c.12.33.36.6.49.92.24.62.7.8,1.12.29s.52-.31.88-.22a3.43,3.43,0,0,0,.79,0c.13-.7.25-1.38.38-2.06l-.06.09.05-.09,0-.06c.16-.15.38-.29.46-.48a10.29,10.29,0,0,0,.69-2c.05-.25.16-1-.61-.77.06-.81,1-1.53.18-2.37h1v1l.26.05c.36-1.15.72-2.3,1.09-3.44l-.32.12-.31-.39,1.19-.91-.46-.37L23,42.94l-.88-.37c.12-.19.24-.37.35-.56s.14-.26.22-.38a3.76,3.76,0,0,1,1.58-1.36,3.12,3.12,0,0,0,2-2.52c.35-.24.79-.39.88-.65a3.17,3.17,0,0,1,2.09-2.19c.1,0,.16-.17.26-.24a8.89,8.89,0,0,1,1.72-1.12,1.39,1.39,0,0,1,1.25.29,8,8,0,0,1,1.62,2.55,61.09,61.09,0,0,1,1.66,6.92,49,49,0,0,1,.59,6.06c.1,2.17,0,4.36,0,6.54,0,.58.21,1.17.17,1.74a16.54,16.54,0,0,1-.38,1.66c-.27,1.71.13,3.44-.23,5.15-.08.42.11.89,0,1.32-.24,1.4-.61,2.78-.81,4.19-.25,1.8-.34,3.64-.59,5.45-.2,1.48-.51,3-.8,4.42q-.51,2.61-1.06,5.2-.6,2.77-1.25,5.55c-.39,1.72-.83,3.42-1.22,5.13-.18.78-.2,1.61-.44,2.37-.37,1.15-.88,2.25-1.3,3.38-.23.63-.34,1.29-.57,1.92-.73,2-1.51,4-2.25,6a42.82,42.82,0,0,1-1.75,4.8c-1.23,2.41-2,5-3.39,7.36-.64,1.1-1,2.32-1.66,3.43s-1.36,2.29-2.11,3.39S15,130.79,14.07,132a38.72,38.72,0,0,1-2.82,3c-.49.48-1.18.75-1.7,1.21-.33.29-.52.61-1.06.71a5,5,0,0,0-1.57.93,15.92,15.92,0,0,1-2.09,1.32,13.28,13.28,0,0,0-4.44,3,1.23,1.23,0,0,0,.19,1.94c.07.07.19.17.18.25-.07,1,.63,1.12,1.31,1.05s1.52.21,2.05-.64a3.57,3.57,0,0,1,1.13-.92c1.22-.78,2.46-1.52,3.67-2.32a12.33,12.33,0,0,0,1.17-1c.43.37,2.35-.8,2.54-1.6.26,0,.57,0,.71-.1,1.35-1.22,2.69-2.45,4-3.73a1.68,1.68,0,0,0,.29-1c.09-1.47.79-2.16,2.18-2a3.43,3.43,0,0,1-.28-.79,4,4,0,0,1,0-1.26c.73-.13.57-.64.46-1.38l.72.89.44-.75-.41-.21.41.21.35-.4c.13-.25.2-.64.4-.72.75-.32.64-.85.55-1.31l-1.61-.17a6.37,6.37,0,0,0,.93-.67c.38-.41.61-1,1.37-.78,0,0,.27-.42.21-.49-.49-.62,0-1.1.19-1.63s1.18-1,.66-1.89c.8-.34.8-.34,1.3-1.6l.37.45a4.08,4.08,0,0,1,.62-.86c.38-.3.31-.56.07-.88.68-.17.93-.55.64-1l1-1.71-.87-.49A6.51,6.51,0,0,1,28,114c.07,0,.23,0,.36,0,.35-.66.73-1.31,1-2,.52-1.25.82-2.59,1.42-3.82.21-.41.38-1.09.18-1.38-.39-.58-.22-1.14-.26-1.71s.08-.78.71-.82c.23,0,1.14-.22.59-1-.22-.3-.45-.58-.67-.87.4-.56,1.08-1.13.59-2.08a.34.34,0,0,1,0-.28c.49-.61,1-1.2,1.47-1.83a4.85,4.85,0,0,0,.44-1.08c-1.41.58-.67-.63-1-.92a2.72,2.72,0,0,1,.25-.5l-.37-.56,2-.78c.25-.78.44-1.36.61-1.94a2.17,2.17,0,0,0,.21-.87c-.13-.92-1.28-1.75-.23-2.78a.22.22,0,0,0,0-.17,1.83,1.83,0,0,1,.45-2.27c-.13-.13-.3-.25-.29-.29.24-.54.5-1.06.76-1.59l.25,0c0,.29.12.68,0,.86-.49.63-.22,1.08.15,1.51A12.32,12.32,0,0,0,37,85.51c.07-.5.52-1.21-.4-1.23V83c1-.35,1.09-.63.57-1.88l.61-.62a10.87,10.87,0,0,0,.18-1.12c0-.38.09-.92-.12-1.13-.67-.64-.3-1.27-.17-1.93a11,11,0,0,0,.22-1.4c0-.09-.23-.2-.42-.34l.63-1.46c-.17-.09-.49-.15-.53-.29a1.08,1.08,0,0,1,.13-.71c.08-.18.4-.31.39-.45a2.16,2.16,0,0,1,1-1.76,4.45,4.45,0,0,0,.55-1.21l-.91.28c-.54-.81,0-1.67-.23-2.57-.2-.69.33-1.59.53-2.37l.6.16a1.23,1.23,0,0,0-.26-.63c-.17-.31-.5-.76-.39-.95.5-1-.16-2,.2-2.91-.1.16-.19.32-.4.65,0-.43,0-.66.08-.88.09-.86.22-1.72.29-2.58.11-1.28.17-2.56.29-3.84,0-.22.25-.41.4-.62l-.7-.76.36-.25L38.9,51a1.94,1.94,0,0,0,.56-.18c.29-.23.68-.46.77-.77a3.61,3.61,0,0,0-.06-1.26C39.32,48.82,39.19,49,39.4,49.46ZM17.62,54.7h0Z"/><polygon points="33.11 95.74 33.1 95.74 33.11 95.75 33.11 95.74"/><path d="M60.17,19c.21-1.06-.85-1.31-.85-2h-.23c-.32.41-.79.76-.93,1.22-.51,1.63-.94,3.29-1.33,5C56,26.5,55.3,29.91,54.54,33.32c-.51,2.27-1,4.53-1.5,6.81-.36,1.79-.63,3.61-.92,5.41a9,9,0,0,0-.18,1.64,9.55,9.55,0,0,0,.26,1.47c-.58.3-.21.88,0,1.43.1.29.24.56.36.84s.2.78.45,1,.6-.1.94-.18l.48.64c.13-1.37.24-2.55.32-3.42l.62-.62C54.81,48,55,47.5,55,47a23,23,0,0,0-.37-2.33c1-.26,1-1.17.81-2.26.26-.31.7-.67.64-.81a2.46,2.46,0,0,1,.35-2.27,2.07,2.07,0,0,0,.09-1.63c-.33-.63,0-.7.39-.74.58,0,.77-.4.91-.88s.36-1.09.5-1.64a6,6,0,0,0,.11-1c-.43.26-.69.52-.83.47s-.53-.51-.48-.57a11.1,11.1,0,0,1,1-1.23l-.64-1.8.79-1.18c.17-.22.6-.17.93-.34s.72-.34.26-.88a1.07,1.07,0,0,1,.16-1.64v1.6c.65-1.43.64-1.45,0-2.55-.07-.13,0-.33-.06-.49-.09-.56-.19-1.1-.29-1.65l1.46-1.6.8.46V20h-1C61.5,19,60.32,19.13,60.17,19Z"/><path d="M24.69,20.35l-.19.14,1.61-.14a6,6,0,0,0,.33-1.75,1.37,1.37,0,0,1,.65-1.36,2.86,2.86,0,0,0,.53-1.14c.08-.18,0-.48.14-.57.47-.37.54-.74-.08-1.31,1,.16,1.08-1.27,2.1-.74l.58-.49L30,12,31,11l.81-.11c-.16-.49-.25-.77-.34-1,.48,0,1,.21,1.14.06a3.53,3.53,0,0,0,.51-1.24c0-.06-.12-.22-.2-.24a.47.47,0,0,0-.37.1,2.09,2.09,0,0,0-.24.54c-.39-.61-.74-1.15-1.08-1.7s-.63-1.08-1-1.67C28.84,7,28.36,9,27.43,10.7l-.25-.32c-.4.68-.78,1.32-1.13,2-.62,1.18-1.25,2.36-1.82,3.56a4.78,4.78,0,0,0-.41,1.49c0,.33,0,.93.21,1C25.31,18.85,24.08,19.81,24.69,20.35Z"/><path d="M32.32,10.28l-.21,0-.26.63a3,3,0,0,0,.35-.09C32.29,10.75,32.28,10.45,32.32,10.28Z"/><path d="M31.85,10.86h0Z"/><path d="M98.43,41.34a.32.32,0,0,0,.22.12,8.08,8.08,0,0,0,1.1,0c.43-.07.81-.11,1-.68a15.07,15.07,0,0,1,1.52-2.52c1-1.43,1.94-2.82,2.86-4.15-.7-.26-1.58-.32-1.77-.71-.4-.85-1.2-1.32-1.63-2.28-.42.57-.76,1-1.06,1.45-.89,1.33-1.74,2.68-2.65,4A2.82,2.82,0,0,0,97.42,39,18.82,18.82,0,0,0,98.43,41.34Z"/><path d="M266.59,9.58c0,.09.18.48.25.47a3.3,3.3,0,0,0,1.3-.3,9.24,9.24,0,0,0,1.29-1.15c-.21.43-.41.86-.67,1.42a4,4,0,0,0,.59-.18c.81-.41.78-1.19.84-1.93.26-.32.72-.65.72-1s-.43-.72-.69-1.11h1.17l-.87-.45c.18-.15.34-.1.44-.16a7.33,7.33,0,0,0,1-.63c.08-.07,0-.31.05-.47-.29.1-.58.21-.87.3,0,0-.1,0-.22-.07.22-.53.41-1,1.13-.61.06-.26.13-.52.2-.77L272,3,271,1.39l-.39.31c.08-.29.08-.43.15-.5.6-.6-.5-.73-.33-1.2-.31.09-.75.09-.92.3A9.69,9.69,0,0,0,268,2.48c-.88,1.95-1.64,4-2.43,5.92.15.13.19.19.23.19C266.38,8.68,267.22,8.53,266.59,9.58Z"/><path d="M305.38,32.2l.46.6.29,0L305.59,30l-.24,0c.1.72.19,1.44.29,2.17Z"/><path d="M102.39,63.07c.15-.49.31-1,.5-1.59C102,61.85,101.83,62.33,102.39,63.07Z"/><path d="M34.7,95.5l-1.58.24.85.76Z"/><path d="M33.11,95.73v0h0Z"/><path d="M31.06,12.86l.61-1.31-.29-.17C31.07,11.78,30.27,12,31.06,12.86Z"/><path d="M28.44,114l-.05,0h.05Z"/></g></g></svg>